<svg width="53" height="60" viewBox="0 0 53 60" fill="none" xmlns="http://www.w3.org/2000/svg">
<path d="M3.9339 46.238C3.3908 46.238 2.95043 46.6783 2.95043 47.2214V51.2949C1.70351 51.6167 0.693289 52.5287 0.245502 53.736C-0.20233 54.9434 -0.0306561 56.2935 0.704742 57.3503C1.44015 58.4075 2.64616 59.038 3.93389 59.038C5.22162 59.038 6.42774 58.4075 7.16304 57.3503C7.89845 56.2935 8.07011 54.9434 7.62228 53.736C7.17445 52.5287 6.16416 51.6168 4.91735 51.2949V48.2049H9.83469C10.0955 48.2049 10.3457 48.1013 10.5301 47.9169C10.7145 47.7325 10.8182 47.4822 10.8182 47.2214V44.271H25.5702V51.2949C24.3233 51.6167 23.313 52.5287 22.8653 53.736C22.4174 54.9434 22.5891 56.2935 23.3245 57.3503C24.0599 58.4075 25.2659 59.038 26.5536 59.038C27.8414 59.038 29.0475 58.4075 29.7828 57.3503C30.5182 56.2935 30.6899 54.9434 30.242 53.736C29.7942 52.5287 28.7839 51.6168 27.5371 51.2949V44.271H41.3057V47.2214C41.3057 47.4822 41.4093 47.7325 41.5937 47.9169C41.7781 48.1013 42.0283 48.2049 42.2891 48.2049H47.2065V51.2949C45.9595 51.6167 44.9493 52.5287 44.5015 53.736C44.0537 54.9434 44.2254 56.2935 44.9608 57.3503C45.6962 58.4075 46.9022 59.038 48.1899 59.038C49.4776 59.038 50.6838 58.4075 51.4191 57.3503C52.1545 56.2935 52.3261 54.9434 51.8783 53.736C51.4305 52.5287 50.4202 51.6168 49.1734 51.2949V47.2214C49.1734 46.9606 49.0698 46.7104 48.8854 46.526C48.701 46.3416 48.4507 46.238 48.1899 46.238H43.2726V44.271H47.2064C47.4672 44.271 47.7175 44.1674 47.9019 43.983C48.0863 43.7986 48.1899 43.5484 48.1899 43.2876V15.7504C48.1899 15.4896 48.0863 15.2394 47.9019 15.055C47.7175 14.8706 47.4672 14.767 47.2064 14.767H43.2726V12.8H48.1899C48.4507 12.8 48.701 12.6964 48.8854 12.512C49.0698 12.3276 49.1734 12.0774 49.1734 11.8166V7.7431C50.4203 7.42128 51.4305 6.50932 51.8783 5.30196C52.3261 4.0946 52.1545 2.74449 51.4191 1.68774C50.6837 0.630521 49.4776 0 48.1899 0C46.9022 0 45.6961 0.630476 44.9608 1.68774C44.2254 2.74453 44.0537 4.0946 44.5015 5.30196C44.9494 6.50932 45.9596 7.4212 47.2065 7.7431V10.8331H42.2891C41.746 10.8331 41.3057 11.2735 41.3057 11.8166V14.767H27.5371V7.7431C28.784 7.42128 29.7942 6.50932 30.242 5.30196C30.6899 4.0946 30.5182 2.74449 29.7828 1.68774C29.0474 0.630521 27.8414 0 26.5536 0C25.2659 0 24.0598 0.630476 23.3245 1.68774C22.5891 2.74453 22.4174 4.0946 22.8653 5.30196C23.3131 6.50932 24.3234 7.4212 25.5702 7.7431V14.767H10.8182V11.8166C10.8182 11.5558 10.7145 11.3055 10.5301 11.1211C10.3457 10.9367 10.0955 10.8331 9.83469 10.8331H4.91735V7.7431C6.16427 7.42128 7.17449 6.50932 7.62228 5.30196C8.07011 4.0946 7.89844 2.74449 7.16304 1.68774C6.42763 0.630521 5.22162 0 3.93389 0C2.64616 0 1.44004 0.630476 0.704742 1.68774C-0.0306674 2.74453 -0.20233 4.0946 0.245502 5.30196C0.693334 6.50932 1.70362 7.4212 2.95043 7.7431V11.8166C2.95043 12.0774 3.05405 12.3276 3.23845 12.512C3.42285 12.6964 3.67311 12.8 3.9339 12.8H8.85124V14.767H5.90084C5.35774 14.767 4.91737 15.2073 4.91737 15.7504V43.2876C4.91737 43.5484 5.02099 43.7986 5.20539 43.983C5.38979 44.1674 5.64005 44.271 5.90084 44.271H8.85124V46.238H3.9339ZM5.90084 55.0892C5.90084 55.6108 5.6936 56.1113 5.32481 56.4801C4.95601 56.8489 4.45549 57.0561 3.9339 57.0561C3.41232 57.0561 2.91179 56.8489 2.543 56.4801C2.1742 56.1113 1.96697 55.6108 1.96697 55.0892C1.96697 54.5676 2.1742 54.0671 2.543 53.6983C2.91179 53.3295 3.41232 53.1222 3.9339 53.1222C4.45549 53.1222 4.95601 53.3295 5.32481 53.6983C5.6936 54.0671 5.90084 54.5676 5.90084 55.0892ZM50.1569 55.0892C50.1569 55.6108 49.9497 56.1113 49.5809 56.4801C49.2121 56.8489 48.7116 57.0561 48.19 57.0561C47.6684 57.0561 47.1679 56.8489 46.7991 56.4801C46.4303 56.1113 46.223 55.6108 46.223 55.0892C46.223 54.5676 46.4303 54.0671 46.7991 53.6983C47.1679 53.3295 47.6684 53.1222 48.19 53.1222C48.7116 53.1222 49.2121 53.3295 49.5809 53.6983C49.9497 54.0671 50.1569 54.5676 50.1569 55.0892ZM46.223 3.94882C46.223 3.42724 46.4303 2.92671 46.7991 2.55792C47.1679 2.18912 47.6684 1.98189 48.19 1.98189C48.7116 1.98189 49.2121 2.18912 49.5809 2.55792C49.9497 2.92671 50.1569 3.42724 50.1569 3.94882C50.1569 4.47041 49.9497 4.97093 49.5809 5.33973C49.2121 5.70852 48.7116 5.91576 48.19 5.91576C47.6684 5.91576 47.1679 5.70852 46.7991 5.33973C46.4303 4.97093 46.223 4.47041 46.223 3.94882ZM1.96697 3.94882C1.96697 3.42724 2.1742 2.92671 2.543 2.55792C2.91179 2.18912 3.41232 1.98189 3.9339 1.98189C4.45549 1.98189 4.95601 2.18912 5.32481 2.55792C5.6936 2.92671 5.90084 3.42724 5.90084 3.94882C5.90084 4.47041 5.6936 4.97093 5.32481 5.33973C4.95601 5.70852 4.45549 5.91576 3.9339 5.91576C3.41232 5.91576 2.91179 5.70852 2.543 5.33973C2.1742 4.97093 1.96697 4.47041 1.96697 3.94882ZM28.5206 55.0892C28.5206 55.6108 28.3134 56.1113 27.9446 56.4801C27.5758 56.8489 27.0753 57.0561 26.5537 57.0561C26.0321 57.0561 25.5316 56.8489 25.1628 56.4801C24.794 56.1113 24.5867 55.6108 24.5867 55.0892C24.5867 54.5676 24.794 54.0671 25.1628 53.6983C25.5316 53.3295 26.0321 53.1222 26.5537 53.1222C27.0753 53.1222 27.5758 53.3295 27.9446 53.6983C28.3134 54.0671 28.5206 54.5676 28.5206 55.0892ZM24.5867 3.94882C24.5867 3.42724 24.794 2.92671 25.1628 2.55792C25.5316 2.18912 26.0321 1.98189 26.5537 1.98189C27.0753 1.98189 27.5758 2.18912 27.9446 2.55792C28.3134 2.92671 28.5206 3.42724 28.5206 3.94882C28.5206 4.47041 28.3134 4.97093 27.9446 5.33973C27.5758 5.70852 27.0753 5.91576 26.5537 5.91576C26.0321 5.91576 25.5316 5.70852 25.1628 5.33973C24.794 4.97093 24.5867 4.47041 24.5867 3.94882ZM6.88431 42.3041V16.7339H46.223V42.3041H6.88431Z" fill="#293D7C"/>
<path d="M10.8182 39.3537H20.6529C20.9136 39.3537 21.1639 39.2501 21.3483 39.0657C21.5327 38.8813 21.6363 38.631 21.6363 38.3702V33.4529C21.6341 31.3942 20.558 29.4856 18.797 28.4183C19.8682 27.5666 20.5356 26.3065 20.6388 24.9414C20.742 23.5768 20.2722 22.2308 19.3414 21.2271C18.4111 20.2234 17.1041 19.6531 15.7355 19.6531C14.367 19.6531 13.0599 20.2234 12.1296 21.2271C11.1988 22.2307 10.729 23.5768 10.8322 24.9414C10.9354 26.3065 11.6028 27.5665 12.6741 28.4183C10.913 29.4856 9.83695 31.3942 9.8347 33.4529V38.3702C9.8347 38.631 9.93832 38.8813 10.1227 39.0657C10.3071 39.2501 10.5574 39.3537 10.8182 39.3537ZM15.7355 21.6513C16.5179 21.6513 17.2687 21.9621 17.8218 22.5153C18.3749 23.0685 18.6859 23.8193 18.6859 24.6016C18.6859 25.3839 18.375 26.1348 17.8218 26.6879C17.2686 27.241 16.5178 27.552 15.7355 27.552C14.9532 27.552 14.2023 27.2411 13.6492 26.6879C13.0961 26.1347 12.7852 25.3839 12.7852 24.6016C12.7852 23.8193 13.096 23.0684 13.6492 22.5153C14.2024 21.9622 14.9532 21.6513 15.7355 21.6513ZM11.8016 33.4529C11.8016 32.0475 12.5515 30.7487 13.7686 30.0459C14.9856 29.3434 16.4854 29.3434 17.7024 30.0459C18.9195 30.7488 19.6694 32.0476 19.6694 33.4529V37.3868H11.8016V33.4529Z" fill="#E74C3C"/>
<path d="M26.5537 20.6678H37.3718V22.6347H26.5537V20.6678Z" fill="#FFCE31"/>
<path d="M26.5537 28.5356H42.2892V30.5025H26.5537V28.5356Z" fill="#00947E"/>
<path d="M26.5537 36.4033H42.2892V38.3702H26.5537V36.4033Z" fill="#FFCE31"/>
</svg>
