<svg width="67" height="59" viewBox="0 0 67 59" fill="none" xmlns="http://www.w3.org/2000/svg">
<path d="M61.7654 6.91407C62.7006 6.91407 63.5643 6.47495 64.0321 5.76168C64.4994 5.04846 64.4994 4.17026 64.0321 3.45699C63.5642 2.74378 62.7006 2.3046 61.7654 2.3046C60.8303 2.3046 59.9666 2.74372 59.4988 3.45699C59.0315 4.17021 59.0315 5.04841 59.4988 5.76168C59.9666 6.47489 60.8303 6.91407 61.7654 6.91407ZM61.7654 4.14845C61.9047 4.14763 62.0384 4.19578 62.137 4.2822C62.2879 4.4139 62.3333 4.61309 62.252 4.78593C62.1702 4.95919 61.9781 5.07155 61.7654 5.07031C61.4762 5.07031 61.242 4.86413 61.242 4.60938C61.242 4.35462 61.4762 4.14844 61.7654 4.14844L61.7654 4.14845Z" fill="#00947E"/>
<path d="M66.9998 0.921875C66.9998 1.43096 66.5311 1.84375 65.9529 1.84375C65.3748 1.84375 64.9061 1.43096 64.9061 0.921875C64.9061 0.412789 65.3748 0 65.9529 0C66.5311 0 66.9998 0.412789 66.9998 0.921875Z" fill="#293D7C"/>
<path d="M5.23433 6.91407C6.16951 6.91407 7.03316 6.47495 7.50096 5.76168C7.96831 5.04846 7.96831 4.17026 7.50096 3.45699C7.03313 2.74378 6.16946 2.3046 5.23433 2.3046C4.29921 2.3046 3.43551 2.74372 2.96771 3.45699C2.50036 4.17021 2.50036 5.04841 2.96771 5.76168C3.43553 6.47489 4.29921 6.91407 5.23433 6.91407ZM4.86278 4.28225C4.96139 4.19583 5.09506 4.14768 5.23433 4.1485C5.52363 4.1485 5.75777 4.35469 5.75777 4.60944C5.75777 4.86419 5.52363 5.07038 5.23433 5.07038C5.02169 5.07161 4.82961 4.95926 4.74782 4.786C4.6665 4.61315 4.71183 4.41396 4.86279 4.28226L4.86278 4.28225Z" fill="#00947E"/>
<path d="M2.09374 0.921875C2.09374 1.43096 1.62498 1.84375 1.04687 1.84375C0.468759 1.84375 0 1.43096 0 0.921875C0 0.412789 0.468759 0 1.04687 0C1.62498 0 2.09374 0.412789 2.09374 0.921875Z" fill="#293D7C"/>
<path d="M51.2968 17.5156H47.1093C46.5541 17.5156 46.0213 17.7099 45.6287 18.0556C45.2362 18.4013 45.0156 18.8705 45.0156 19.3594V58.0781C45.0156 58.3226 45.1259 58.5572 45.3221 58.73C45.5184 58.9029 45.7848 59 46.0624 59H52.3437C52.6213 59 52.8877 58.9029 53.0839 58.73C53.2802 58.5572 53.3905 58.3226 53.3905 58.0781V19.3594C53.3905 18.8705 53.1699 18.4013 52.7774 18.0556C52.3848 17.7099 51.852 17.5156 51.2968 17.5156ZM51.2968 57.1562H47.1093V19.3594H51.2968V57.1562Z" fill="#293D7C"/>
<path d="M40.8281 26.7344H36.6406C36.0854 26.7344 35.5526 26.9286 35.16 27.2743C34.7674 27.62 34.5468 28.0892 34.5468 28.5781V58.0781C34.5468 58.3226 34.6571 58.5572 34.8534 58.73C35.0497 58.9029 35.3161 59 35.5937 59H41.8749C42.1526 59 42.4189 58.9029 42.6152 58.73C42.8115 58.5572 42.9218 58.3226 42.9218 58.0781V28.5781C42.9218 28.0892 42.7012 27.62 42.3086 27.2743C41.9161 26.9286 41.3833 26.7344 40.8281 26.7344ZM40.8281 57.1562H36.6406V28.5781H40.8281V57.1562Z" fill="#E74C3C"/>
<path d="M30.3592 35.9531H26.1717C25.6165 35.9531 25.0837 36.1474 24.6912 36.4931C24.2986 36.8388 24.078 37.308 24.078 37.7969V58.0781C24.078 58.3226 24.1883 58.5572 24.3846 58.73C24.5809 58.9029 24.8473 59 25.1249 59H31.4061C31.6837 59 31.9501 58.9029 32.1464 58.73C32.3427 58.5572 32.453 58.3226 32.453 58.0781V37.7969C32.453 37.308 32.2324 36.8388 31.8398 36.4931C31.4472 36.1474 30.9144 35.9531 30.3592 35.9531ZM30.3592 57.1562H26.1717V37.7969H30.3592V57.1562Z" fill="#E74C3C"/>
<path d="M19.8905 45.1719H15.703C15.1478 45.1719 14.615 45.3661 14.2225 45.7118C13.8299 46.0575 13.6093 46.5267 13.6093 47.0156V58.0781C13.6093 58.3226 13.7196 58.5572 13.9159 58.73C14.1122 58.9029 14.3786 59 14.6562 59H20.9374C21.215 59 21.4814 58.9029 21.6777 58.73C21.874 58.5572 21.9843 58.3226 21.9843 58.0781V47.0156C21.9843 46.5267 21.7637 46.0575 21.3711 45.7118C20.9785 45.3661 20.4457 45.1719 19.8905 45.1719ZM19.8905 57.1562H15.703V47.0156H19.8905V57.1562Z" fill="#293D7C"/>
<path d="M18.8437 29.5C18.8428 30.7857 19.0596 32.0644 19.4877 33.2937C20.0845 32.9221 20.6865 32.5286 21.2936 32.1138V32.1134C20.4449 29.0408 21.1296 25.7952 23.1756 23.1967C25.2212 20.5978 28.4324 18.8939 31.9978 18.5157C31.7239 17.93 31.687 17.279 31.8931 16.6719C28.3062 17.0205 24.9912 18.5219 22.5835 20.8891C20.1752 23.2559 18.8437 26.3219 18.8437 29.4999L18.8437 29.5Z" fill="#00947E"/>
<path d="M10.0237 40.9175C10.2452 41.3867 10.8565 41.6093 11.3897 41.4155C17.5822 39.1524 32.1968 32.4778 38.0844 18.3686L38.2101 18.8296C38.3134 19.2638 38.7532 19.572 39.257 19.5625C39.3364 19.5625 39.4154 19.5547 39.4925 19.5395C39.7631 19.4844 39.9982 19.337 40.1454 19.1296C40.2926 18.9222 40.3403 18.6715 40.2777 18.4332L39.257 14.5428C39.1696 14.2251 38.898 13.972 38.5429 13.8774C38.1881 13.7827 37.8026 13.8605 37.5296 14.0819L34.1848 16.7969C33.9413 16.9509 33.7843 17.1892 33.7539 17.4521C33.723 17.7147 33.8221 17.9765 34.0249 18.1707C34.2282 18.365 34.5161 18.4728 34.8162 18.4674C35.1157 18.4625 35.399 18.344 35.5929 18.1427L36.1635 17.6818C30.5469 31.1412 16.5183 37.5437 10.578 39.7141C10.0494 39.9128 9.80173 40.4499 10.0233 40.917L10.0237 40.9175Z" fill="#FFCE31"/>
<path d="M41.2252 20.788C41.8384 21.2115 42.4062 21.6835 42.9213 22.1984V19.6172C42.7278 19.4743 42.5338 19.3361 42.3296 19.1978C42.1819 19.8246 41.7912 20.3863 41.2252 20.788L41.2252 20.788Z" fill="#293D7C"/>
<path d="M55.4843 41.9037V44.508L57.3163 46.1168C57.7822 46.5271 57.6462 47.3428 57.0284 47.8914L55.4843 49.2557V51.8184C55.6221 51.7258 55.753 51.6258 55.8768 51.5188L58.494 49.2141C59.9437 47.9326 60.0643 45.9876 58.787 44.8307L55.4843 41.9037Z" fill="#293D7C"/>
<path d="M10.9927 43.3281C10.6712 43.3281 10.352 43.2844 10.0454 43.1988L8.19751 44.8211C6.90992 45.9595 7.03568 47.9184 8.49054 49.2045L11.1077 51.5092V51.5096C11.2316 51.6166 11.3629 51.7166 11.5003 51.8092V49.2465L9.96133 47.8913C9.33835 47.3382 9.20234 46.5085 9.6683 46.1167L13.0286 43.1621H13.029C13.2052 43.0074 13.3487 42.8263 13.4529 42.6275C13.0029 42.8029 12.579 42.9642 12.1864 43.0885C11.8102 43.2362 11.4045 43.3177 10.9928 43.328L10.9927 43.3281Z" fill="#293D7C"/>
<path d="M63.6919 24.5823H58.9491C58.2916 21.9356 57.104 19.4132 55.4422 17.1332L58.7973 14.1787C60.0849 13.0403 59.954 11.0814 58.5043 9.79982L55.8871 7.49513C55.1571 6.83911 54.1616 6.46419 53.1185 6.4535C52.2894 6.4428 51.4898 6.72512 50.899 7.23709L47.5438 10.1916C44.9542 8.72852 42.0903 7.68286 39.0848 7.10339V2.91334C39.0848 1.30011 37.4201 0.000427246 35.3581 0.000427246H31.6418C29.5794 0.000427246 27.9152 1.30011 27.9152 2.91334V7.0898C24.9096 7.66926 22.0456 8.71504 19.4561 10.178L16.1061 7.2235V7.22309C15.5126 6.71647 14.7134 6.43949 13.8871 6.45348C12.8472 6.46665 11.8559 6.84117 11.1283 7.49512L8.51109 9.79981C7.05576 11.0814 6.94078 13.0264 8.21806 14.1787L11.5783 17.1332C9.91555 19.4128 8.72798 21.9352 8.07138 24.5822H3.30817C1.48171 24.5822 0.000297546 26.0478 0.000297546 27.8639V31.141C0.000297546 32.9527 1.48183 34.4182 3.30817 34.4182H8.05606C8.3748 35.7071 8.82159 36.9686 9.3908 38.1888C9.51838 38.1205 9.65112 38.0604 9.78851 38.009C10.2437 37.8431 10.7517 37.6493 11.2962 37.4283C10.7864 36.3265 10.3854 35.1886 10.0974 34.0264C9.99555 33.6152 9.7371 33.2469 9.36508 32.9827C8.9926 32.7185 8.52899 32.5744 8.05093 32.5744H3.30818C2.64875 32.5744 2.09405 31.9155 2.09405 31.1365V27.8639C2.09405 27.0849 2.6488 26.4305 3.30818 26.4305H8.05608C8.53418 26.4305 8.99779 26.2865 9.37023 26.0223C9.74271 25.7585 10.0012 25.3897 10.1026 24.9786C10.7055 22.5459 11.7972 20.2276 13.3268 18.1336C13.5862 17.7789 13.6998 17.3566 13.6484 16.9373C13.5969 16.5179 13.3838 16.1266 13.0441 15.829L9.68379 12.879C9.21784 12.4686 9.34869 11.6529 9.97682 11.1043L12.594 8.79964C12.9333 8.48851 13.3978 8.30824 13.8872 8.29714C14.1597 8.29055 14.4247 8.37821 14.6252 8.5416L17.9752 11.4961C18.3131 11.7949 18.7575 11.9826 19.2338 12.0279C19.71 12.0731 20.1895 11.9735 20.5923 11.7451C22.9726 10.3985 25.6066 9.43717 28.3705 8.90543C28.8379 8.81612 29.2562 8.58854 29.5562 8.26053C29.8563 7.93293 30.0194 7.52426 30.0194 7.10329V2.91323C30.0091 2.33254 30.7573 1.84407 31.642 1.84407H35.3583C36.243 1.84407 36.9912 2.33258 36.9912 2.91323V7.08969C36.9912 7.51071 37.1547 7.91897 37.4548 8.24694C37.7548 8.57453 38.1731 8.80212 38.64 8.89184C41.404 9.42315 44.0379 10.385 46.4187 11.7311C46.8211 11.9595 47.3006 12.0595 47.7772 12.0143C48.2534 11.969 48.6974 11.7809 49.0358 11.4821L52.391 8.52759C52.5915 8.36461 52.856 8.27695 53.1289 8.28313C53.6126 8.29753 54.0711 8.4778 54.4062 8.78563L57.0234 11.0903C57.6464 11.6389 57.7824 12.4731 57.3164 12.8649L53.9613 15.8195C53.8132 15.9557 53.6893 16.1113 53.5949 16.2804C54.7731 16.9615 55.483 18.1188 55.4844 19.3597V21.1158C56.0985 22.3583 56.5734 23.6506 56.9028 24.9741C57.0047 25.3852 57.2631 25.7535 57.6351 26.0177C58.0076 26.282 58.4712 26.426 58.9493 26.426H63.6915C64.351 26.426 64.9057 27.0853 64.9057 27.8594V31.1365C64.9057 31.9156 64.3509 32.5699 63.6915 32.5699H58.9493C58.4712 32.5699 58.0076 32.7139 57.6351 32.9782C57.2631 33.242 57.0047 33.6107 56.9028 34.0219C56.5733 35.3453 56.0985 36.6377 55.4844 37.8801V41.8071C57.1216 39.5465 58.2946 37.0504 58.9494 34.4321H63.6916C65.5186 34.4321 66.9995 32.9616 66.9995 31.155L67 27.8638C67 26.0477 65.5185 24.5822 63.6921 24.5822L63.6919 24.5823Z" fill="#293D7C"/>
</svg>
