<svg width="58" height="59" viewBox="0 0 58 59" fill="none" xmlns="http://www.w3.org/2000/svg">
<path d="M0.589615 21.8645L4.92352 24.361C4.7779 25.0479 4.66142 25.7422 4.5751 26.4355C4.44978 27.4448 4.38633 28.4763 4.38633 29.4998C4.38633 30.1509 4.90843 30.6798 5.55118 30.6798C6.19392 30.6798 6.71603 30.1509 6.71603 29.4998C6.71603 28.5743 6.77375 27.6419 6.88659 26.7289C6.99735 25.8344 7.16533 24.9363 7.38477 24.0608C7.51426 23.5456 7.28752 23.0072 6.83147 22.7443L2.76702 20.4034L7.94959 11.4423L12.023 13.7876C12.4723 14.0462 13.036 13.974 13.4077 13.6106C14.714 12.332 16.1783 11.2163 17.7608 10.295C19.3656 9.36044 21.0838 8.6288 22.8674 8.12201C23.3702 7.97925 23.7171 7.51515 23.7171 6.98573V2.36H29.4483C30.091 2.36 30.6131 1.8311 30.6131 1.18C30.6131 0.528896 30.091 0 29.4483 0H22.5522C21.9095 0 21.3874 0.528896 21.3874 1.18V6.10808C19.7223 6.64803 18.1149 7.36604 16.599 8.24839C15.1055 9.11864 13.7066 10.1453 12.43 11.3075L8.1008 8.81479C7.54593 8.49556 6.84183 8.68731 6.51993 9.24412L0.160126 20.2418C0.00203978 20.5137 -0.0406008 20.8387 0.0400014 21.1437C0.121125 21.4487 0.31926 21.7084 0.589664 21.8649L0.589615 21.8645Z" fill="#293D7C"/>
<path d="M22.8653 50.8722C21.0832 50.3686 19.3667 49.6385 17.764 48.704C16.1852 47.7832 14.7214 46.6665 13.4145 45.3848C13.0427 45.0202 12.4785 44.9481 12.0281 45.2073L7.94902 47.5573L2.76698 38.5962L6.83143 36.2552C7.39045 35.9328 7.58651 35.2127 7.26825 34.6458C6.95 34.0795 6.23912 33.8819 5.67953 34.2033L0.589073 37.1354C0.318136 37.2918 0.120019 37.5505 0.0399303 37.856C-0.0411923 38.161 0.00248929 38.4855 0.160055 38.7579L6.51986 49.7556C6.84124 50.3124 7.54586 50.5057 8.10073 50.1849L12.4352 47.6874C13.7118 48.8521 15.1097 49.8799 16.6011 50.7496C18.1154 51.633 19.7217 52.3494 21.3863 52.8877L21.3868 57.82C21.3868 58.4711 21.9089 59 22.5516 59C23.1944 59 23.7165 58.4711 23.7165 57.82V52.0085C23.717 51.4785 23.3691 51.0144 22.8652 50.8722L22.8653 50.8722Z" fill="#293D7C"/>
<path d="M57.2237 37.1357L52.8898 34.634C53.0354 33.9486 53.1514 33.2559 53.2377 32.5642C53.3636 31.5549 53.427 30.5234 53.427 29.5004C53.427 28.8493 52.9049 28.3204 52.2621 28.3204C51.6194 28.3204 51.0973 28.8493 51.0973 29.5004C51.0973 30.4254 51.0396 31.3573 50.9262 32.2697C50.816 33.1626 50.648 34.0581 50.4291 34.9315C50.2996 35.4461 50.5258 35.9845 50.9813 36.2479L55.0468 38.5947L49.8648 47.5558L45.7914 45.2063C45.3421 44.9466 44.7779 45.0188 44.4061 45.3828C43.0972 46.6639 41.6344 47.7792 40.0588 48.6978C38.4566 49.6324 36.741 50.3614 34.961 50.865C34.4576 51.0072 34.1097 51.4719 34.1097 52.0013L34.1087 56.6397H28.3775C27.7348 56.6397 27.2127 57.1686 27.2127 57.8197C27.2127 58.4708 27.7348 58.9997 28.3775 58.9997H35.2735C35.9163 58.9997 36.4384 58.4708 36.4384 57.8197V52.8805C38.1019 52.3437 39.7067 51.6268 41.2205 50.7433C42.7089 49.8752 44.1051 48.8495 45.3828 47.6858L49.7115 50.1829C50.2654 50.5021 50.9705 50.3114 51.2935 49.7541L57.6533 38.7563C57.8114 38.4845 57.854 38.16 57.7734 37.855C57.6923 37.551 57.4941 37.2919 57.2237 37.1354L57.2237 37.1357Z" fill="#293D7C"/>
<path d="M34.9585 8.128C36.7411 8.63161 38.4577 9.36173 40.0598 10.2962C41.6386 11.217 43.1024 12.3338 44.4093 13.6155C44.7811 13.98 45.3464 14.0527 45.7967 13.7925L49.8633 11.4435L55.0454 20.4046L50.9799 22.7514C50.4208 23.0743 50.2263 23.795 50.5446 24.3608C50.7589 24.7427 51.1525 24.9566 51.5576 24.9566C51.7531 24.9566 51.9513 24.9066 52.1333 24.8012L57.2232 21.8628C57.4936 21.7063 57.6912 21.4477 57.7713 21.1422C57.8524 20.8372 57.8087 20.5126 57.6512 20.2408L51.2914 9.24311C50.9689 8.68577 50.2633 8.49454 49.7094 8.8143L45.387 11.3102C44.1103 10.146 42.7125 9.11827 41.2216 8.24858C39.7073 7.36515 38.1014 6.64877 36.4364 6.11042L36.4359 1.18018C36.4359 0.529079 35.9138 0.000183105 35.271 0.000183105C34.6283 0.000183105 34.1062 0.529079 34.1062 1.18018V6.99171C34.1072 7.52113 34.4551 7.98575 34.9585 8.12799L34.9585 8.128Z" fill="#293D7C"/>
<path d="M16.486 22.9043C15.8931 22.6493 15.2104 22.9317 14.9591 23.5317C14.1692 25.4228 13.7693 27.4304 13.7693 29.5007C13.7693 31.571 14.1703 33.5796 14.9591 35.4697C15.1474 35.9201 15.5785 36.1904 16.0325 36.1904C16.1838 36.1904 16.3377 36.1604 16.4854 36.0966C17.0782 35.8427 17.3549 35.1505 17.1047 34.55C16.437 32.9522 16.099 31.2539 16.099 29.5008C16.099 27.7487 16.4376 26.0492 17.1047 24.4511C17.3554 23.851 17.0782 23.1583 16.4859 22.9044L16.486 22.9043Z" fill="#FFCE31"/>
<path d="M41.3272 36.096C41.4749 36.1597 41.6293 36.1897 41.7801 36.1897C42.2336 36.1897 42.6652 35.9195 42.8534 35.4691C43.6434 33.578 44.0443 31.5704 44.0443 29.5006C44.0443 27.4313 43.6434 25.4233 42.8545 23.5315C42.6038 22.9315 41.9205 22.6497 41.3277 22.9041C40.7354 23.1581 40.4582 23.8502 40.7083 24.4508C41.376 26.0496 41.7141 27.749 41.7141 29.5005C41.7141 31.2521 41.3755 32.9515 40.7083 34.5497C40.4577 35.1503 40.7349 35.8424 41.3272 36.0959L41.3272 36.096Z" fill="#00947E"/>
<path d="M39.767 15.386C39.767 13.8267 38.5147 12.5587 36.976 12.5587H20.8372C19.298 12.5587 18.0462 13.8272 18.0462 15.386C18.0462 16.6782 18.911 17.7586 20.0816 18.0947C20.0727 18.1284 20.0613 18.1616 20.053 18.1958C19.9037 18.8232 19.8595 19.4665 19.9224 20.1101C19.9848 20.7533 20.1518 21.3765 20.4191 21.9623C20.6941 22.5649 21.0665 23.1107 21.5267 23.5842L24.8019 26.9567C25.0301 27.1916 25.3312 27.3091 25.6323 27.3091C25.9272 27.3091 26.2226 27.1964 26.4493 26.9704C26.9074 26.5132 26.9137 25.7662 26.4628 25.3015L24.5028 23.2839L28.9058 23.2829C29.5485 23.2829 30.0706 22.754 30.0706 22.1029C30.0706 21.4518 29.5485 20.9229 28.9058 20.9229H22.5152C22.3701 20.5915 22.2755 20.2412 22.2396 19.8793C22.2027 19.499 22.2287 19.1187 22.3166 18.7483C22.3603 18.565 22.4201 18.3864 22.4929 18.2136H35.3182C35.391 18.3864 35.4508 18.5645 35.4945 18.7483C35.5823 19.1181 35.6078 19.499 35.5714 19.8793C35.5345 20.2591 35.4357 20.6268 35.2781 20.9729C35.1169 21.3275 34.8964 21.6493 34.6245 21.9296L28.0754 28.673L21.5268 35.4169C21.0655 35.891 20.6932 36.4368 20.4191 37.0388C20.1518 37.6246 19.9844 38.2478 19.9225 38.891C19.8601 39.5342 19.9038 40.1784 20.053 40.8053C20.0614 40.8395 20.0728 40.8722 20.0816 40.9064C18.9111 41.2425 18.0463 42.3229 18.0463 43.6151C18.0463 45.1744 19.2985 46.4424 20.8373 46.4424H36.9761C38.5153 46.4424 39.767 45.1739 39.767 43.6151C39.767 42.3229 38.9022 41.2425 37.7317 40.9064C37.7405 40.8727 37.752 40.8395 37.7603 40.8053C37.9095 40.1779 37.9537 39.5346 37.8908 38.891C37.8284 38.2478 37.6615 37.6246 37.3942 37.0388C37.2699 36.767 37.1227 36.5078 36.9594 36.2592C36.9532 36.2492 36.947 36.2387 36.9402 36.2281C36.7473 35.9394 36.5304 35.6671 36.286 35.4163L33.0109 32.0444C32.5595 31.5808 31.8221 31.5734 31.3634 32.0307C30.9053 32.4879 30.899 33.2349 31.3499 33.6995L33.3099 35.7171L28.9064 35.7182C28.2636 35.7182 27.7415 36.2471 27.7415 36.8982C27.7415 37.5493 28.2636 38.0782 28.9064 38.0782H35.2969C35.442 38.4095 35.5367 38.7598 35.5726 39.1218C35.6095 39.5021 35.5835 39.8824 35.4956 40.2517C35.4519 40.4356 35.3921 40.6141 35.3188 40.7875H22.4945C22.4217 40.6147 22.3619 40.4366 22.3183 40.2528C22.2304 39.883 22.2049 39.5021 22.2413 39.1218C22.2782 38.742 22.377 38.3743 22.5346 38.0282C22.6958 37.6742 22.9163 37.3518 23.1883 37.0715L29.7374 30.3276L36.2855 23.5842C36.7463 23.1101 37.1191 22.5643 37.3932 21.9623C37.6605 21.3765 37.8279 20.7533 37.8898 20.1101C37.9522 19.4669 37.9085 18.8227 37.7593 18.1948C37.751 18.161 37.7395 18.1289 37.7307 18.0952C38.9018 17.7586 39.767 16.6776 39.767 15.386ZM36.976 44.0822H20.8372C20.5829 44.0822 20.3759 43.8725 20.3759 43.6149C20.3759 43.3573 20.5829 43.1477 20.8372 43.1477H36.976C37.2303 43.1477 37.4372 43.3573 37.4372 43.6149C37.4372 43.8725 37.2303 44.0822 36.976 44.0822ZM20.8372 14.918H36.976C37.2303 14.918 37.4372 15.1277 37.4372 15.3853C37.4372 15.6429 37.2303 15.8525 36.976 15.8525H36.028H36.0259H21.7881H21.785H20.837C20.5827 15.8525 20.3758 15.6429 20.3758 15.3853C20.3758 15.1277 20.5818 14.918 20.8372 14.918Z" fill="#E74C3C"/>
</svg>
