<svg width="62" height="59" viewBox="0 0 62 59" fill="none" xmlns="http://www.w3.org/2000/svg">
<path d="M61.9997 12.7832V4.91662C61.9997 4.54436 61.7788 4.20371 61.4286 4.03734L53.162 0.104041C52.8709 -0.0346804 52.5286 -0.0346804 52.2376 0.104041L43.9709 4.03734C43.6208 4.20372 43.3998 4.54436 43.3998 4.91662V12.7832C43.3998 13.1555 43.6208 13.4961 43.9709 13.6625L44.6938 14.0067L39.0174 19.2494C36.7017 17.605 33.8895 16.7169 30.9999 16.7169C28.1102 16.7169 25.2981 17.605 22.9823 19.2494L17.306 14.0067L18.0288 13.6625C18.3789 13.4961 18.5999 13.1555 18.5999 12.7832V4.91662C18.5999 4.54436 18.3789 4.20371 18.0288 4.03734L9.76219 0.104041C9.47111 -0.0346804 9.12881 -0.0346804 8.83773 0.104041L0.571095 4.03734C0.220967 4.20372 0 4.54436 0 4.91662V12.7832C0 13.1555 0.220967 13.4961 0.571095 13.6625L8.83773 17.5958C9.12881 17.7345 9.47111 17.7345 9.76219 17.5958L15.3477 14.9382L21.4209 20.5476C19.2213 22.6731 17.8739 25.4651 17.6132 28.4379C17.3526 31.4111 18.195 34.3769 19.9936 36.8199L13.2396 43.0583L9.76231 41.4037C9.47123 41.265 9.12893 41.265 8.83785 41.4037L0.571213 45.337C0.221085 45.5034 0.00011803 45.844 0.00011803 46.2163V54.0829C0.00011803 54.4552 0.221085 54.7958 0.571213 54.9622L8.83785 58.8955C9.12893 59.0342 9.47123 59.0342 9.76231 58.8955L18.0289 54.9622C18.3791 54.7958 18.6 54.4552 18.6 54.0829V46.2163C18.6 45.844 18.3791 45.5034 18.0289 45.337L15.1983 43.9903L21.3107 38.345C23.8405 40.8608 27.3408 42.2831 31 42.2831C34.6592 42.2831 38.1595 40.8604 40.6893 38.3445L46.8017 43.9898L43.9711 45.3366C43.6209 45.503 43.4 45.844 43.4 46.2163V54.0829C43.4 54.4552 43.6209 54.7958 43.9711 54.9622L52.2377 58.8955C52.5288 59.0342 52.8711 59.0342 53.1622 58.8955L61.4288 54.9622C61.7789 54.7958 61.9999 54.4552 61.9999 54.0829V46.2163C61.9999 45.844 61.7789 45.5034 61.4288 45.337L53.1622 41.4037C52.8711 41.265 52.5288 41.265 52.2377 41.4037L48.7604 43.0583L42.0064 36.8199C43.8055 34.3769 44.6479 31.4111 44.3872 28.4379C44.1261 25.4651 42.7791 22.6731 40.5791 20.5476L46.6523 14.9382L52.2378 17.5958C52.5289 17.7345 52.8712 17.7345 53.1623 17.5958L61.4289 13.6625C61.779 13.4961 61.9997 13.1555 61.9997 12.7832ZM9.29994 2.08251L15.2559 4.91662L9.29994 7.75073L3.34395 4.91662L9.29994 2.08251ZM2.06664 6.50747L8.26661 9.45745V15.1252L2.06664 12.1752V6.50747ZM10.3333 15.1252V9.4579L16.5332 6.50792V12.1757L15.7347 12.5554L14.1528 11.0945L12.7135 12.5054L13.7764 13.487L10.3333 15.1252ZM2.06664 47.8076L8.26661 50.7575V56.4253L2.06664 53.4753V47.8076ZM10.3333 56.4253V50.758L16.5332 47.808V53.4758L10.3333 56.4253ZM9.29994 49.0504L3.34395 46.2167L9.29994 43.3826L15.2559 46.2167L9.29994 49.0504ZM45.4665 47.8072L51.6664 50.7572V56.425L45.4665 53.475V47.8072ZM53.7331 56.425V50.7581L59.9331 47.8081V53.4759L53.7331 56.425ZM52.6998 43.3821L58.6558 46.2167L52.6998 49.0508L46.7438 46.2167L52.6998 43.3821ZM40.5006 35.4295L38.6392 33.7113L37.1995 35.1222L39.2062 36.9756C37.0647 39.109 34.0995 40.3167 30.999 40.3167C27.8986 40.3167 24.9329 39.1096 22.7919 36.976L24.7995 35.1222L23.3602 33.7113L21.4988 35.4304C19.9907 33.2451 19.3658 30.6143 19.7385 28.0243C20.1117 25.4338 21.4578 23.0602 23.5281 21.3416C25.5984 19.6234 28.2529 18.6765 31 18.6765C33.7471 18.6765 36.4014 19.6234 38.4718 21.3416C40.5422 23.0602 41.8883 25.4338 42.2615 28.0243C42.6347 30.6143 42.0092 33.2451 40.5012 35.4304L40.5006 35.4295ZM52.6998 2.08296L58.6558 4.91707L52.6998 7.75118L46.7438 4.91707L52.6998 2.08296ZM47.8468 11.0948L46.2649 12.5558L45.4664 12.176V6.50782L51.6664 9.4578V15.1256L48.2232 13.4873L49.286 12.5057L47.8468 11.0948ZM53.7331 15.126V9.45823L59.9331 6.50826V12.176L53.7331 15.126Z" fill="#293D7C"/>
<path d="M8.26661 19.6665H10.3333V39.333H8.26661V19.6665Z" fill="#293D7C"/>
<path d="M51.6664 19.6665H53.7331V39.333H51.6664V19.6665Z" fill="#E74C3C"/>
<path d="M20.6665 6.88327H41.3331V8.84992H20.6665V6.88327Z" fill="#00947E"/>
<path d="M20.6665 50.1496H41.3331V52.1162H20.6665V50.1496Z" fill="#FFCE31"/>
</svg>
