<svg width="60" height="56" viewBox="0 0 60 56" fill="none" xmlns="http://www.w3.org/2000/svg">
<path d="M56.2632 24.5126H52.9426V0.939133C52.9426 0.375746 52.5736 0 52.0203 0H0.922299C0.369011 0 0 0.375735 0 0.939133V37.7555C0 38.3189 0.369 38.6947 0.922299 38.6947H6.82554C6.73339 43.1088 6.64125 42.9212 8.94703 45.5505C10.5152 47.335 10.8837 47.8045 10.8837 48.8375V54.8484C10.8837 55.4118 11.2527 55.7876 11.806 55.7876H30.0685C30.6218 55.7876 30.9908 55.4118 30.9908 54.8484V48.7437C30.9908 48.368 31.083 47.9922 31.2677 47.6164L32.9279 43.9537C33.5734 42.545 33.2969 41.5117 33.3891 38.6942H38.0931V52.7817C38.0931 54.3785 39.2922 55.599 40.8599 55.599L56.2635 55.5999C57.8317 55.5999 59.0304 54.3789 59.0304 52.7825V27.3306C59.0304 25.8277 57.8312 24.5128 56.2635 24.5128L56.2632 24.5126ZM33.1123 32.2142C32.6511 30.9932 31.3598 30.054 29.9763 30.054C29.2383 30.054 28.5008 30.3359 27.947 30.8055C27.3016 29.8663 26.2868 29.2087 25.0875 29.2087C24.3495 29.2087 23.612 29.4906 23.0582 29.9601C22.4128 29.021 21.398 28.3633 20.1987 28.3633C19.6454 28.3633 19.0917 28.551 18.6305 28.7391V22.2585C18.6305 20.3802 17.155 18.7834 15.2177 18.7834C13.3731 18.7834 11.8049 20.2859 11.8049 22.2585V31.2745C10.9748 31.5564 10.0525 32.026 9.22232 32.777L5.903 32.7774V6.01055H47.0392V24.5123H40.8596C39.2914 24.5123 38.0927 25.7333 38.0927 27.3296V32.2134L33.1123 32.2142ZM39.9377 31.5565H57.186V48.7433H39.9377V31.5565ZM57.186 27.3304V29.6783H39.9377V27.3304C39.9377 26.767 40.3067 26.3913 40.86 26.3913H56.2636C56.8169 26.3913 57.1859 26.8609 57.1859 27.3304H57.186ZM1.84525 1.87851H51.0985V24.5123H48.8854V5.07079C48.8854 4.5074 48.5164 4.13166 47.9631 4.13166H4.98211C4.42883 4.13166 4.05982 4.50739 4.05982 5.07079V33.5279C4.05982 34.0913 4.42882 34.4671 4.98211 34.4671H7.56473C6.82672 35.7819 6.82672 36.6273 6.82672 36.721L1.84585 36.7215L1.84525 1.87851ZM31.2685 43.1081L29.6082 46.7708C29.3314 47.3342 29.1471 47.9918 29.1471 48.6491V53.8147L12.7293 53.8152V48.7438C12.7293 46.9594 11.8992 46.1141 10.3311 44.2358C7.84065 41.4184 8.94759 42.639 8.67083 36.7223C9.03983 34.844 10.4233 33.7169 11.8068 33.0596V38.6009C11.8068 39.1643 12.1758 39.5401 12.7291 39.5401C13.2823 39.5401 13.6514 39.1643 13.6514 38.6009L13.6522 22.1647C13.6522 21.3193 14.3902 20.5678 15.2204 20.5678C16.0506 20.5678 16.7886 21.3193 16.7886 22.1647V36.0639C16.7886 36.6273 17.1576 37.003 17.7109 37.003C18.2642 37.003 18.6332 36.6273 18.6332 36.0639V31.6497C18.6332 30.8044 19.3712 30.0529 20.2014 30.0529C21.0315 30.0529 21.7695 30.8044 21.7695 31.6497V36.0639C21.7695 36.6273 22.1385 37.003 22.6918 37.003C23.2451 37.003 23.6141 36.6273 23.6141 36.0639L23.6133 32.5893C23.6133 31.744 24.3513 30.9925 25.1815 30.9925C26.0116 30.9925 26.7496 31.7439 26.7496 32.5893V36.0644C26.7496 36.6277 27.1186 37.0035 27.6719 37.0035C28.2252 37.0035 28.5942 36.6278 28.5942 36.0644V33.5285C28.5942 32.6832 29.3323 31.9317 30.1624 31.9317C30.9926 31.9317 31.7306 32.6831 31.7306 33.5285C31.4533 42.1688 31.638 42.2625 31.269 43.1079L31.2685 43.1081ZM33.2978 36.8156V34.0921H38.0018V36.8156H33.2978ZM56.264 53.7212H40.8604C40.3072 53.7212 39.9381 53.3455 39.9381 52.7821V50.5281H57.1864V52.7821C57.1864 53.3455 56.8174 53.7212 56.2641 53.7212H56.264Z" fill="#293D7C"/>
<path d="M15.127 14.5584C11.0688 14.5584 7.84035 17.7516 7.84035 21.6024C7.84035 22.1657 8.20935 22.5415 8.76265 22.5415C9.31595 22.5415 9.68495 22.1657 9.68495 21.6024C9.68495 18.785 12.1754 16.4367 15.1269 16.4367C18.1707 16.4367 20.569 18.7845 20.569 21.6024C20.569 22.1657 20.9379 22.5415 21.4912 22.5415C22.0445 22.5415 22.4135 22.1657 22.4135 21.6024C22.4135 17.6577 19.1851 14.5584 15.1269 14.5584H15.127Z" fill="#FFCE31"/>
<path d="M43.5349 9.67363C43.5349 9.11024 43.1659 8.7345 42.6126 8.7345H23.8892C23.3359 8.7345 22.9669 9.11023 22.9669 9.67363C22.9669 10.237 23.3359 10.6128 23.8892 10.6128H42.5202C43.0735 10.6128 43.5347 10.1432 43.5347 9.67363H43.5349Z" fill="#E74C3C"/>
<path d="M43.5349 15.309C43.5349 14.7456 43.1659 14.3698 42.6126 14.3698L26.6558 14.3694C26.1025 14.3694 25.7335 14.7451 25.7335 15.3085C25.7335 15.8719 26.1025 16.2477 26.6558 16.2477H42.5202C43.0739 16.2481 43.5349 15.7785 43.5349 15.309Z" fill="#00947E"/>
<path d="M43.5349 20.9441C43.5349 20.3807 43.1659 20.0049 42.6126 20.0049H29.4234C28.8701 20.0049 28.5011 20.3807 28.5011 20.9441C28.5011 21.5075 28.8701 21.8832 29.4234 21.8832H42.5202C43.0735 21.8832 43.5347 21.4136 43.5347 20.9441H43.5349Z" fill="#E74C3C"/>
<path d="M44.8263 42.9213H42.9817C42.4284 42.9213 42.0594 43.2971 42.0594 43.8605C42.0594 44.4238 42.4284 44.7996 42.9817 44.7996H44.8263C45.3796 44.7996 45.7486 44.4239 45.7486 43.8605C45.7486 43.2971 45.3796 42.9213 44.8263 42.9213Z" fill="#FFCE31"/>
<path d="M49.4376 42.9213H47.593C47.0397 42.9213 46.6707 43.2971 46.6707 43.8605C46.6707 44.4238 47.0397 44.7996 47.593 44.7996H49.4376C49.9909 44.7996 50.3599 44.4239 50.3599 43.8605C50.3599 43.2971 49.9909 42.9213 49.4376 42.9213Z" fill="#FFCE31"/>
<path d="M54.05 42.9213H52.2054C51.6521 42.9213 51.2831 43.2971 51.2831 43.8605C51.2831 44.4238 51.6521 44.7996 52.2054 44.7996H54.05C54.6033 44.7996 54.9723 44.4239 54.9723 43.8605C54.9727 43.2971 54.6037 42.9213 54.05 42.9213Z" fill="#FFCE31"/>
</svg>
