<svg width="58" height="58" viewBox="0 0 58 58" fill="none" xmlns="http://www.w3.org/2000/svg">
<path d="M28.6995 25.9207C29.2103 25.9215 29.6244 26.3357 29.6253 26.8465H31.4769C31.4752 26.2741 31.2963 25.7161 30.9648 25.2495C30.6329 24.7828 30.165 24.4299 29.6253 24.2398V23.1433H27.7737V24.2398C26.9437 24.5315 26.3015 25.2003 26.0435 26.0413C25.7856 26.8828 25.9431 27.7962 26.4667 28.503C26.9908 29.2098 27.8195 29.6255 28.6995 29.6235C29.0739 29.6235 29.4116 29.8488 29.555 30.1947C29.6984 30.5406 29.6195 30.9391 29.355 31.204C29.0901 31.4689 28.692 31.5483 28.3457 31.4053C27.9997 31.2623 27.7741 30.9246 27.7737 30.5501H25.9221C25.9241 31.1226 26.1031 31.6806 26.4346 32.1472C26.766 32.6138 27.2339 32.9664 27.7741 33.1565L27.7737 34.153H29.6253L29.6257 33.1565C30.4556 32.8647 31.0975 32.1956 31.3554 31.3545C31.6133 30.513 31.4558 29.5996 30.9322 28.8924C30.4081 28.1856 29.5794 27.7699 28.6995 27.7719C28.4535 27.7727 28.2171 27.6756 28.0431 27.5016C27.8687 27.328 27.7708 27.0924 27.7708 26.8461C27.7708 26.6002 27.8687 26.3646 28.0431 26.1906C28.2171 26.017 28.4535 25.9199 28.6995 25.9207V25.9207Z" fill="#E74C3C"/>
<path d="M37.9575 30.6503H35.1801V18.5143C35.1801 18.2688 35.0826 18.0332 34.909 17.8596C34.7354 17.686 34.4998 17.5885 34.2543 17.5885H23.1446C22.6334 17.5885 22.2188 18.003 22.2188 18.5143V30.6503H19.4414C19.074 30.6503 18.7417 30.8673 18.5937 31.2033C18.4461 31.5397 18.511 31.9316 18.7594 32.2023L28.0175 42.2862C28.1927 42.4771 28.4403 42.5858 28.6995 42.5858C28.9586 42.5858 29.2062 42.4771 29.3814 42.2862L38.6395 32.2023C38.8879 31.9316 38.9528 31.5397 38.8052 31.2033C38.6573 30.8673 38.325 30.6503 37.9575 30.6503V30.6503ZM28.6995 40.2911L21.5484 32.5019H23.1446C23.3901 32.5019 23.6257 32.4044 23.7993 32.2308C23.9729 32.0572 24.0704 31.8216 24.0704 31.5761V19.4401H33.3285V31.5761C33.3285 31.8216 33.426 32.0572 33.5996 32.2308C33.7732 32.4044 34.0088 32.5019 34.2543 32.5019H35.8505L28.6995 40.2911Z" fill="#00947E"/>
<path d="M28.6995 9.25613C23.5431 9.25613 18.5978 11.3044 14.952 14.9506C11.3058 18.5964 9.25749 23.5416 9.25749 28.6981C9.25749 33.8546 11.3058 38.7998 14.952 42.4456C18.5978 46.0918 23.543 48.1401 28.6995 48.1401C33.8559 48.1401 38.8011 46.0918 42.4469 42.4456C46.0931 38.7998 48.1414 33.8546 48.1414 28.6981C48.1356 23.5437 46.0856 18.6018 42.4407 14.957C38.7957 11.3121 33.8538 9.26206 28.6996 9.25624L28.6995 9.25613ZM28.6995 46.2885C24.034 46.2885 19.56 44.4351 16.2619 41.1362C12.9628 37.8376 11.1096 33.3635 11.1096 28.6986C11.1096 24.0337 12.9629 19.5592 16.2619 16.2611C19.5605 12.962 24.0346 11.1088 28.6995 11.1088C33.3644 11.1088 37.8389 12.9621 41.137 16.2611C44.4361 19.5597 46.2893 24.0337 46.2893 28.6986C46.2839 33.3624 44.429 37.8336 41.1312 41.1309C37.8339 44.4287 33.3627 46.2836 28.6989 46.289L28.6995 46.2885Z" fill="#FFCE31"/>
<path d="M55.9479 22.4249H54.1446C53.7697 22.4133 53.4081 22.2823 53.1126 22.0512C52.817 21.8202 52.603 21.5007 52.5013 21.1399V21.1395C52.0706 19.788 51.5259 18.4757 50.8721 17.2172C50.6877 16.8899 50.6129 16.5117 50.6584 16.139C50.7043 15.7658 50.8675 15.4169 51.1254 15.1433L52.4079 13.8604C52.7212 13.5471 52.7687 13.0561 52.5212 12.6887C50.4471 9.60337 47.7937 6.94995 44.7084 4.87636C44.341 4.62879 43.85 4.67632 43.5367 4.9896L42.2538 6.27208C41.9802 6.52957 41.6314 6.69325 41.2581 6.73871C40.8853 6.78417 40.5071 6.70937 40.1799 6.52545C38.921 5.87159 37.6086 5.32645 36.2572 4.89624C35.8964 4.79456 35.5769 4.58047 35.3458 4.28496C35.1148 3.98945 34.9842 3.62781 34.9726 3.25293V1.44967C34.9726 1.00702 34.6589 0.625944 34.2245 0.541225C30.5766 -0.180408 26.823 -0.180408 23.1752 0.541225C22.7408 0.625953 22.4271 1.00702 22.4271 1.44967V3.25293C22.4155 3.62781 22.2849 3.98944 22.0539 4.28496C21.8228 4.58048 21.5033 4.79457 21.1425 4.89624C19.7906 5.32649 18.4783 5.87165 17.2194 6.52545C16.8917 6.70937 16.5139 6.78418 16.1411 6.73871C15.7679 6.69325 15.4191 6.52957 15.1455 6.27208L13.863 4.9896C13.5497 4.67632 13.0587 4.62878 12.6913 4.87636C9.60597 6.94995 6.95255 9.60337 4.87853 12.6887C4.63096 13.0561 4.67849 13.5471 4.99177 13.8604L6.27426 15.1437C6.53216 15.4173 6.69542 15.7662 6.7413 16.1394C6.78676 16.5122 6.71195 16.8904 6.52762 17.2177C5.87377 18.4762 5.32862 19.7884 4.89841 21.1399C4.79674 21.5007 4.58264 21.8202 4.28713 22.0513C3.99163 22.2823 3.62998 22.4133 3.25511 22.4249H1.45184C1.00919 22.4249 0.628118 22.7386 0.543399 23.173C-0.181133 26.8204 -0.181133 30.5749 0.543399 34.2224C0.628127 34.6567 1.00919 34.9704 1.45184 34.9704H3.25511C3.62998 34.982 3.99162 35.1126 4.28713 35.3436C4.58265 35.5747 4.79674 35.8942 4.89841 36.255C5.32866 37.6065 5.87382 38.9188 6.52762 40.1772C6.71196 40.505 6.78676 40.8828 6.7413 41.2559C6.69542 41.6292 6.53216 41.9784 6.27426 42.252L4.99177 43.5345C4.67849 43.8478 4.63095 44.3388 4.87853 44.7062C6.95213 47.7915 9.60555 50.4449 12.6909 52.519C13.0583 52.7661 13.5493 52.7186 13.8626 52.4057L15.1459 51.1232C15.4195 50.8653 15.7683 50.7017 16.1416 50.6562C16.5144 50.6107 16.8925 50.6855 17.2198 50.8695C18.4784 51.5237 19.7906 52.0689 21.1425 52.4991C21.5033 52.6008 21.8228 52.8149 22.0539 53.1104C22.2849 53.4059 22.4155 53.7675 22.4271 54.1424V55.9457C22.4271 56.3883 22.7408 56.7694 23.1752 56.8541C26.8226 57.5786 30.5771 57.5786 34.2245 56.8541C34.6589 56.7694 34.9726 56.3883 34.9726 55.9457V54.1424C34.9842 53.7675 35.1148 53.4059 35.3458 53.1104C35.5769 52.8149 35.8964 52.6008 36.2572 52.4991C37.6091 52.0688 38.9214 51.5237 40.1799 50.8695C40.5076 50.6855 40.8854 50.6107 41.2586 50.6562C41.6318 50.7021 41.9806 50.8653 42.2542 51.1232L43.5371 52.4057C43.8504 52.7186 44.3414 52.7661 44.7088 52.519C47.7941 50.4449 50.4476 47.7915 52.5212 44.7062C52.7687 44.3388 52.7212 43.8478 52.4079 43.5345L51.1254 42.2516C50.8675 41.978 50.7039 41.6292 50.6584 41.2559C50.6129 40.8827 50.6877 40.5045 50.8721 40.1772C51.5259 38.9187 52.0711 37.6065 52.5013 36.255C52.603 35.8942 52.817 35.5747 53.1126 35.3436C53.4081 35.1126 53.7697 34.982 54.1446 34.9704H55.9479C56.3905 34.9704 56.7716 34.6567 56.8563 34.2223C57.5808 30.5749 57.5808 26.8204 56.8563 23.173C56.7716 22.7386 56.3905 22.4249 55.9479 22.4249V22.4249ZM55.175 33.1187H54.1446C53.3762 33.1291 52.631 33.3845 52.0181 33.8478C51.4051 34.3111 50.9559 34.9579 50.7364 35.6945C50.3384 36.9451 49.8342 38.159 49.2295 39.3237C48.8621 39.9999 48.7208 40.7765 48.8266 41.5387C48.932 42.3012 49.2787 43.01 49.816 43.5614L50.5517 44.2975V44.2971C48.8278 46.7129 46.715 48.8257 44.2992 50.5496L43.5635 49.8139H43.5639C43.0126 49.277 42.3038 48.9303 41.5416 48.8245C40.7791 48.7187 40.0029 48.8596 39.3263 49.2266C38.1615 49.8321 36.9473 50.3363 35.6966 50.7344C34.96 50.9538 34.3132 51.4031 33.8499 52.016C33.3866 52.6289 33.1312 53.3741 33.1208 54.1425V55.1729V55.1725C30.1942 55.668 27.2052 55.668 24.2786 55.1725V54.1425C24.2682 53.3742 24.0128 52.6289 23.5495 52.016C23.0862 51.4031 22.4394 50.9538 21.7029 50.7344C20.4522 50.3364 19.2379 49.8321 18.0732 49.2266C17.3966 48.86 16.6208 48.7187 15.8582 48.8245C15.0961 48.9303 14.3873 49.277 13.8364 49.8139L13.1003 50.5496C10.6849 48.8253 8.57205 46.7124 6.84772 44.2971L7.5834 43.5614V43.5618C8.1207 43.0105 8.46747 42.3017 8.57286 41.5391C8.67867 40.7766 8.53773 40.0004 8.17071 39.3237C7.56521 38.159 7.06101 36.9452 6.66297 35.6945C6.44351 34.9579 5.99424 34.3111 5.38133 33.8478C4.7684 33.3845 4.0232 33.1291 3.25483 33.1187H2.22446C1.72684 30.1921 1.72684 27.2031 2.22446 24.2765H3.25483C4.02317 24.2661 4.7684 24.0107 5.38133 23.5474C5.99427 23.0841 6.44353 22.4373 6.66297 21.7008C7.06098 20.4501 7.56522 19.2362 8.16987 18.0715C8.5373 17.3953 8.67865 16.6188 8.57326 15.8565C8.46745 15.094 8.12069 14.3852 7.58338 13.8338L6.8477 13.0981C8.57203 10.6828 10.6849 8.56994 13.1002 6.84561L13.8359 7.58129H13.8355C14.3869 8.11818 15.0957 8.46495 15.8578 8.57075C16.6203 8.67656 17.3965 8.53562 18.0732 8.1686C19.2379 7.56352 20.4521 7.0589 21.7029 6.66086C22.4394 6.44139 23.0862 5.99213 23.5495 5.37922C24.0128 4.76628 24.2682 4.02109 24.2786 3.25272V2.22234C27.2052 1.7272 30.1942 1.7272 33.1208 2.22234V3.25272C33.1312 4.02106 33.3866 4.76628 33.8499 5.37922C34.3132 5.99216 34.96 6.44142 35.6966 6.66086C36.9468 7.05887 38.1611 7.5631 39.3258 8.16776C40.002 8.53519 40.7786 8.67613 41.5408 8.57073C42.3033 8.46492 43.0121 8.11817 43.5635 7.58127L44.2996 6.84559H44.2992C46.7145 8.56992 48.8274 10.6828 50.5517 13.0981L49.816 13.8338V13.8334C49.2787 14.3847 48.932 15.0936 48.8261 15.8557C48.7208 16.6182 48.8617 17.3944 49.2287 18.0711C49.8342 19.2358 50.3384 20.45 50.7365 21.7008C50.9559 22.4373 51.4052 23.0841 52.0181 23.5474C52.631 24.0107 53.3762 24.2661 54.1446 24.2765H55.175H55.1746C55.6726 27.2031 55.6726 30.1921 55.1746 33.1187L55.175 33.1187Z" fill="#293D7C"/>
</svg>
