<svg width="60" height="55" viewBox="0 0 60 55" fill="none" xmlns="http://www.w3.org/2000/svg">
<g clip-path="url(#clip0_123_2)">
<path d="M0.714286 49.5982C1.10877 49.5982 1.42857 49.3051 1.42857 48.9435C1.42857 48.5818 1.10877 48.2887 0.714286 48.2887C0.319797 48.2887 0 48.5818 0 48.9435C0 49.3051 0.319797 49.5982 0.714286 49.5982Z" fill="#293D7C"/>
<path d="M3.92857 48.2887H2.85714C2.6677 48.2887 2.48602 48.3577 2.35206 48.4805C2.21811 48.6033 2.14285 48.7698 2.14285 48.9435C2.14285 49.1171 2.21811 49.2837 2.35206 49.4064C2.48602 49.5292 2.6677 49.5982 2.85714 49.5982H3.92857C4.11801 49.5982 4.29969 49.5292 4.43364 49.4064C4.5676 49.2837 4.64285 49.1171 4.64285 48.9435C4.64285 48.7698 4.5676 48.6033 4.43364 48.4805C4.29969 48.3577 4.11801 48.2887 3.92857 48.2887Z" fill="#293D7C"/>
<path d="M42.1978 50.9077H39.2308C39.0512 50.9209 38.8836 50.9956 38.7615 51.1169C38.6393 51.2383 38.5714 51.3973 38.5714 51.5625C38.5714 51.7276 38.6393 51.8867 38.7615 52.008C38.8836 52.1294 39.0512 52.204 39.2308 52.2172H42.1978C42.3774 52.204 42.5449 52.1294 42.6671 52.008C42.7893 51.8867 42.8572 51.7276 42.8572 51.5625C42.8572 51.3973 42.7893 51.2383 42.6671 51.1169C42.5449 50.9956 42.3774 50.9209 42.1978 50.9077V50.9077ZM20.7692 50.9077H17.8022C17.6226 50.9209 17.4551 50.9956 17.3329 51.1169C17.2107 51.2383 17.1429 51.3973 17.1429 51.5625C17.1429 51.7276 17.2107 51.8867 17.3329 52.008C17.4551 52.1294 17.6226 52.204 17.8022 52.2172H20.7692C20.9488 52.204 21.1164 52.1294 21.2386 52.008C21.3607 51.8867 21.4286 51.7276 21.4286 51.5625C21.4286 51.3973 21.3607 51.2383 21.2386 51.1169C21.1164 50.9956 20.9488 50.9209 20.7692 50.9077V50.9077ZM37.1429 50.9077H22.8571C22.6677 50.9077 22.486 50.9767 22.3521 51.0995C22.2181 51.2223 22.1429 51.3888 22.1429 51.5625C22.1429 51.7361 22.2181 51.9027 22.3521 52.0255C22.486 52.1483 22.6677 52.2172 22.8571 52.2172H28.55V52.872H25.7143C25.5249 52.872 25.3432 52.941 25.2092 53.0638C25.0753 53.1866 25 53.3531 25 53.5268C25 53.7004 25.0753 53.867 25.2092 53.9897C25.3432 54.1125 25.5249 54.1815 25.7143 54.1815H34.6429C34.8323 54.1815 35.014 54.1125 35.1479 53.9897C35.2819 53.867 35.3571 53.7004 35.3571 53.5268C35.3571 53.3531 35.2819 53.1866 35.1479 53.0638C35.014 52.941 34.8323 52.872 34.6429 52.872H31.45V52.2172H37.1429C37.3323 52.2172 37.514 52.1483 37.6479 52.0255C37.7819 51.9027 37.8571 51.7361 37.8571 51.5625C37.8571 51.3888 37.7819 51.2223 37.6479 51.0995C37.514 50.9767 37.3323 50.9077 37.1429 50.9077Z" fill="#E74C3C"/>
<path d="M21.0714 16.955V15.2232C21.0717 15.1075 21.0385 14.9938 20.9751 14.8937C20.9117 14.7936 20.8205 14.7107 20.7107 14.6536L15.7107 12.0345C15.602 11.9781 15.479 11.9489 15.354 11.9496C15.2291 11.9503 15.1065 11.981 14.9985 12.0386C14.8906 12.0962 14.8009 12.1787 14.7385 12.2779C14.6761 12.3771 14.6431 12.4896 14.6429 12.6042V19.633L11.7857 17.528V12.1818C12.3612 12.0246 12.8557 11.6827 13.1788 11.2187C13.5018 10.7547 13.6319 10.1995 13.5452 9.65485C13.4585 9.11015 13.1609 8.61226 12.7066 8.25221C12.2524 7.89217 11.6719 7.69403 11.0714 7.69403C10.4709 7.69403 9.89048 7.89217 9.43624 8.25221C8.982 8.61226 8.68432 9.11015 8.59762 9.65485C8.51093 10.1995 8.64102 10.7547 8.9641 11.2187C9.28718 11.6827 9.78167 12.0246 10.3571 12.1818V17.8423C10.3574 17.9403 10.3816 18.0371 10.4279 18.1254C10.4743 18.2138 10.5416 18.2916 10.625 18.353L14.5536 21.2437C14.581 21.2652 14.611 21.2839 14.6429 21.2994V28.3184C14.6425 28.4746 14.7033 28.6256 14.8143 28.744L16.7857 30.8524V36.2705C16.2102 36.4278 15.7158 36.7697 15.3927 37.2337C15.0696 37.6977 14.9395 38.2528 15.0262 38.7975C15.1129 39.3422 15.4106 39.8401 15.8648 40.2001C16.3191 40.5602 16.8995 40.7583 17.5 40.7583C18.1005 40.7583 18.681 40.5602 19.1352 40.2001C19.5894 39.8401 19.8871 39.3422 19.9738 38.7975C20.0605 38.2528 19.9304 37.6977 19.6073 37.2337C19.2843 36.7697 18.7898 36.4278 18.2143 36.2705V30.6101C18.2147 30.454 18.1538 30.3029 18.0429 30.1845L16.0714 28.0762V13.7336L19.6429 15.603V16.955C19.0674 17.1123 18.5729 17.4542 18.2498 17.9182C17.9267 18.3822 17.7966 18.9373 17.8833 19.482C17.97 20.0267 18.2677 20.5246 18.722 20.8847C19.1762 21.2447 19.7566 21.4429 20.3571 21.4429C20.9577 21.4429 21.5381 21.2447 21.9923 20.8847C22.4466 20.5246 22.7443 20.0267 22.831 19.482C22.9177 18.9373 22.7876 18.3822 22.4645 17.9182C22.1414 17.4542 21.6469 17.1123 21.0714 16.955V16.955ZM10 9.98511C10 9.79086 10.0628 9.60097 10.1806 9.43946C10.2983 9.27795 10.4656 9.15206 10.6614 9.07773C10.8572 9.00339 11.0726 8.98394 11.2805 9.02184C11.4883 9.05973 11.6792 9.15327 11.829 9.29063C11.9789 9.42798 12.0809 9.60299 12.1223 9.7935C12.1636 9.98402 12.1424 10.1815 12.0613 10.361C11.9802 10.5404 11.8429 10.6938 11.6667 10.8017C11.4905 10.9096 11.2833 10.9673 11.0714 10.9673C10.9307 10.9674 10.7913 10.9421 10.6612 10.8928C10.5311 10.8435 10.4129 10.7712 10.3134 10.68C10.2139 10.5887 10.135 10.4804 10.0812 10.3612C10.0274 10.2419 9.99982 10.1141 10 9.98511V9.98511ZM18.5714 38.4672C18.5714 38.6615 18.5086 38.8514 18.3909 39.0129C18.2731 39.1744 18.1058 39.3003 17.91 39.3746C17.7142 39.449 17.4988 39.4684 17.291 39.4305C17.0831 39.3926 16.8922 39.2991 16.7424 39.1617C16.5925 39.0244 16.4905 38.8494 16.4492 38.6589C16.4078 38.4683 16.429 38.2709 16.5101 38.0914C16.5912 37.9119 16.7286 37.7585 16.9047 37.6506C17.0809 37.5427 17.2881 37.4851 17.5 37.4851C17.6408 37.4849 17.7802 37.5102 17.9102 37.5595C18.0403 37.6088 18.1585 37.6811 18.258 37.7724C18.3576 37.8636 18.4365 37.972 18.4903 38.0912C18.544 38.2104 18.5716 38.3382 18.5714 38.4672V38.4672ZM20.3571 20.1339C20.1452 20.1339 19.9381 20.0763 19.7619 19.9684C19.5857 19.8605 19.4484 19.7071 19.3673 19.5276C19.2862 19.3482 19.265 19.1507 19.3063 18.9602C19.3476 18.7697 19.4497 18.5947 19.5995 18.4573C19.7494 18.3199 19.9403 18.2264 20.1481 18.1885C20.356 18.1506 20.5714 18.1701 20.7672 18.2444C20.9629 18.3187 21.1303 18.4446 21.248 18.6061C21.3657 18.7676 21.4286 18.9575 21.4286 19.1518C21.4288 19.2808 21.4012 19.4086 21.3474 19.5278C21.2936 19.6471 21.2147 19.7554 21.1152 19.8466C21.0157 19.9379 20.8975 20.0102 20.7674 20.0595C20.6373 20.1088 20.4979 20.1341 20.3571 20.1339V20.1339Z" fill="#293D7C"/>
<path d="M27.6464 17.3807L25 14.9515V9.98515C25 9.81149 24.9247 9.64495 24.7908 9.52216C24.6568 9.39937 24.4752 9.33038 24.2857 9.33038C24.0963 9.33038 23.9146 9.39937 23.7806 9.52216C23.6467 9.64495 23.5714 9.81149 23.5714 9.98515V15.2232C23.5711 15.3092 23.5897 15.3943 23.6258 15.4736C23.662 15.5529 23.7152 15.6247 23.7821 15.6848L26.4286 18.114V27.7194L21.0714 32.6301V27.8962C21.6469 27.7389 22.1414 27.397 22.4645 26.933C22.7876 26.469 22.9176 25.9139 22.831 25.3692C22.7443 24.8245 22.4466 24.3266 21.9923 23.9665C21.5381 23.6065 20.9576 23.4084 20.3571 23.4084C19.7566 23.4084 19.1762 23.6065 18.722 23.9665C18.2677 24.3266 17.97 24.8245 17.8833 25.3692C17.7966 25.9139 17.9267 26.469 18.2498 26.933C18.5729 27.397 19.0674 27.7389 19.6429 27.8962V34.2113C19.643 34.3407 19.6848 34.4671 19.7629 34.5749C19.841 34.6826 19.9521 34.7668 20.0821 34.817C20.1696 34.8493 20.2629 34.866 20.3571 34.8661C20.4509 34.8665 20.5438 34.8496 20.6303 34.8164C20.7168 34.7832 20.7952 34.7344 20.8607 34.6729L27.6464 28.4527C27.7134 28.3926 27.7665 28.3207 27.8027 28.2414C27.8389 28.1622 27.8574 28.077 27.8571 27.9911V17.8423C27.8574 17.7563 27.8389 17.6712 27.8027 17.5919C27.7665 17.5127 27.7134 17.4408 27.6464 17.3807V17.3807ZM20.3571 26.6816C20.1452 26.6816 19.9381 26.624 19.7619 26.5161C19.5857 26.4081 19.4484 26.2547 19.3673 26.0753C19.2862 25.8958 19.265 25.6983 19.3063 25.5078C19.3476 25.3173 19.4497 25.1423 19.5995 25.005C19.7494 24.8676 19.9403 24.7741 20.1481 24.7362C20.356 24.6983 20.5714 24.7177 20.7672 24.792C20.9629 24.8664 21.1303 24.9923 21.248 25.1538C21.3657 25.3153 21.4286 25.5052 21.4286 25.6994C21.4288 25.8285 21.4012 25.9562 21.3474 26.0755C21.2936 26.1947 21.2147 26.3031 21.1152 26.3943C21.0156 26.4855 20.8975 26.5579 20.7674 26.6072C20.6373 26.6565 20.4979 26.6817 20.3571 26.6816V26.6816ZM11.4286 31.6872V27.2414C12.004 27.0841 12.4985 26.7422 12.8216 26.2782C13.1447 25.8142 13.2748 25.2591 13.1881 24.7144C13.1014 24.1697 12.8037 23.6718 12.3495 23.3118C11.8952 22.9517 11.3148 22.7536 10.7143 22.7536C10.1138 22.7536 9.53334 22.9517 9.0791 23.3118C8.62485 23.6718 8.32717 24.1697 8.24048 24.7144C8.15378 25.2591 8.28387 25.8142 8.60695 26.2782C8.93004 26.7422 9.42453 27.0841 10 27.2414V31.6872C9.42453 31.8445 8.93004 32.1864 8.60695 32.6504C8.28387 33.1144 8.15378 33.6695 8.24048 34.2142C8.32717 34.7589 8.62485 35.2568 9.0791 35.6168C9.53334 35.9769 10.1138 36.175 10.7143 36.175C11.3148 36.175 11.8952 35.9769 12.3495 35.6168C12.8037 35.2568 13.1014 34.7589 13.1881 34.2142C13.2748 33.6695 13.1447 33.1144 12.8216 32.6504C12.4985 32.1864 12.004 31.8445 11.4286 31.6872ZM9.64286 25.0447C9.64286 24.8504 9.70569 24.6605 9.82342 24.499C9.94115 24.3375 10.1085 24.2116 10.3043 24.1373C10.5 24.063 10.7155 24.0435 10.9233 24.0814C11.1311 24.1193 11.3221 24.2128 11.4719 24.3502C11.6217 24.4875 11.7238 24.6625 11.7651 24.8531C11.8065 25.0436 11.7852 25.2411 11.7042 25.4205C11.6231 25.6 11.4857 25.7534 11.3095 25.8613C11.1333 25.9692 10.9262 26.0268 10.7143 26.0268C10.5735 26.027 10.4341 26.0017 10.304 25.9524C10.174 25.9031 10.0558 25.8308 9.95625 25.7395C9.85672 25.6483 9.77781 25.54 9.72403 25.4207C9.67025 25.3015 9.64267 25.1737 9.64286 25.0447ZM10.7143 34.8661C10.5024 34.8661 10.2952 34.8085 10.119 34.7006C9.94284 34.5927 9.80551 34.4393 9.72441 34.2598C9.64332 34.0803 9.6221 33.8829 9.66344 33.6923C9.70478 33.5018 9.80683 33.3268 9.95667 33.1895C10.1065 33.0521 10.2974 32.9586 10.5053 32.9207C10.7131 32.8828 10.9285 32.9022 11.1243 32.9766C11.3201 33.0509 11.4874 33.1768 11.6051 33.3383C11.7229 33.4998 11.7857 33.6897 11.7857 33.884C11.7859 34.013 11.7583 34.1408 11.7045 34.26C11.6508 34.3792 11.5718 34.4876 11.4723 34.5788C11.3728 34.6701 11.2546 34.7424 11.1245 34.7917C10.9944 34.841 10.855 34.8663 10.7143 34.8661V34.8661Z" fill="#00947E"/>
<path d="M57.1429 48.2887H56.0714C55.882 48.2887 55.7003 48.3577 55.5664 48.4805C55.4324 48.6033 55.3571 48.7698 55.3571 48.9435C55.3571 49.1171 55.4324 49.2837 55.5664 49.4064C55.7003 49.5292 55.882 49.5982 56.0714 49.5982H57.1429C57.3323 49.5982 57.514 49.5292 57.6479 49.4064C57.7819 49.2837 57.8571 49.1171 57.8571 48.9435C57.8571 48.7698 57.7819 48.6033 57.6479 48.4805C57.514 48.3577 57.3323 48.2887 57.1429 48.2887Z" fill="#293D7C"/>
<path d="M59.2857 49.5982C59.6802 49.5982 60 49.3051 60 48.9435C60 48.5818 59.6802 48.2887 59.2857 48.2887C58.8912 48.2887 58.5714 48.5818 58.5714 48.9435C58.5714 49.3051 58.8912 49.5982 59.2857 49.5982Z" fill="#293D7C"/>
<path d="M53.8286 48.2887H45.8786C46.3922 47.6804 46.671 46.9331 46.6714 46.164V44.7988L47.8536 43.941C47.9978 43.8371 48.0928 43.6863 48.1188 43.5198C48.1447 43.3533 48.0996 43.1841 47.9929 43.0473L47.0964 41.8982L48.5214 41.4431C48.6995 41.3865 48.846 41.2677 48.9289 41.1126C49.0119 40.9574 49.0246 40.7785 48.9643 40.6148L48.2071 38.5556H50.2821C50.5247 38.5549 50.7636 38.5003 50.9781 38.3966C51.1927 38.2928 51.3767 38.1429 51.5143 37.9598C51.6552 37.7713 51.7443 37.5544 51.7742 37.3276C51.804 37.1007 51.7737 36.8706 51.6857 36.6568L48.6429 29.2384L49.5107 27.5C49.5535 27.4148 49.5754 27.322 49.575 27.2283V23.6009C49.35 18.6509 47.1464 14.4866 43.2 11.5565C39.4957 8.87329 34.8591 7.50615 30.1429 7.70653C30.0959 7.69716 30.048 7.69277 30 7.69344H27.1429C26.9536 7.69395 26.7722 7.7631 26.6384 7.88578C26.5046 8.00846 26.4291 8.1747 26.4286 8.3482V13.5863C26.4283 13.6722 26.4468 13.7574 26.483 13.8366C26.5192 13.9159 26.5723 13.9878 26.6393 14.0479L29.4964 16.6669C29.562 16.7283 29.6404 16.7771 29.7269 16.8102C29.8134 16.8434 29.9062 16.8604 30 16.8601H34.2857C34.3795 16.8604 34.4723 16.8434 34.5588 16.8102C34.6453 16.7771 34.7237 16.7283 34.7893 16.6669L35.9536 15.603C36.4813 15.8642 37.0941 15.9427 37.6797 15.8239C38.2654 15.7052 38.7849 15.3972 39.1432 14.9563C39.5016 14.5154 39.6748 13.971 39.6314 13.4226C39.5879 12.8742 39.3306 12.3585 38.9064 11.9697C38.4823 11.5809 37.9197 11.345 37.3214 11.3052C36.7232 11.2653 36.1293 11.4241 35.6483 11.7526C35.1673 12.0811 34.8313 12.5573 34.7018 13.0942C34.5723 13.631 34.6578 14.1927 34.9429 14.6765L33.9893 15.5506H30.2964L27.8571 13.3146V9.00296H29.9321C30 9.01719 30.0699 9.02161 30.1393 9.01606C36.4964 8.79671 43.0464 11.4354 46.2107 16.8601H43.825C43.7012 16.4798 43.4719 16.1354 43.1594 15.8608C42.8468 15.5861 42.4619 15.3905 42.0421 15.2932C41.6224 15.1959 41.1823 15.2001 40.7649 15.3055C40.3475 15.4109 39.9671 15.6139 39.6609 15.8945C39.3548 16.1752 39.1334 16.5239 39.0184 16.9065C38.9034 17.2891 38.8988 17.6925 39.0049 18.0773C39.1111 18.4621 39.3245 18.8149 39.6241 19.1014C39.9237 19.3879 40.2994 19.5982 40.7143 19.7116V25.6994H35.3571C35.1679 25.6999 34.9865 25.769 34.8527 25.8917C34.7188 26.0144 34.6434 26.1807 34.6429 26.3542V29.9553H28.9286C28.8348 29.9551 28.742 29.972 28.6555 30.0052C28.569 30.0384 28.4906 30.0871 28.425 30.1485L22.7107 35.3866C22.6437 35.4467 22.5906 35.5186 22.5544 35.5979C22.5182 35.6771 22.4997 35.7623 22.5 35.8482V41.1812C21.9245 41.3385 21.43 41.6804 21.1069 42.1444C20.7839 42.6084 20.6538 43.1635 20.7405 43.7082C20.8272 44.2529 21.1249 44.7508 21.5791 45.1109C22.0333 45.4709 22.6138 45.669 23.2143 45.669C23.8148 45.669 24.3952 45.4709 24.8495 45.1109C25.3037 44.7508 25.6014 44.2529 25.6881 43.7082C25.7748 43.1635 25.6447 42.6084 25.3216 42.1444C24.9985 41.6804 24.504 41.3385 23.9286 41.1812V36.1199L29.225 31.2649H42.1429C42.2757 31.2648 42.406 31.2308 42.5189 31.1666C42.6318 31.1024 42.723 31.0106 42.7821 30.9015L44.925 26.9729C44.9749 26.8826 45.0006 26.7827 45 26.6815V24.3899H48.1464V27.0875L47.2214 28.9405C47.1432 29.0996 47.1355 29.2804 47.2 29.4446L50.35 37.1217C50.357 37.1371 50.3597 37.1538 50.3578 37.1704C50.356 37.187 50.3496 37.2029 50.3393 37.2167C50.3331 37.2255 50.3247 37.2328 50.3147 37.238C50.3048 37.2431 50.2936 37.2459 50.2821 37.2461H47.2143C47.1003 37.246 46.988 37.2709 46.8867 37.3187C46.7854 37.3666 46.6981 37.436 46.6321 37.5211C46.5669 37.6056 46.5242 37.7029 46.5075 37.8052C46.4907 37.9076 46.5004 38.0121 46.5357 38.1104L47.3857 40.4184L45.725 40.9488C45.6198 40.9814 45.5245 41.0363 45.4469 41.1092C45.3693 41.182 45.3116 41.2707 45.2786 41.3678C45.2447 41.4649 45.2362 41.5678 45.2535 41.6685C45.2709 41.7691 45.3137 41.8646 45.3786 41.9473L46.4357 43.3027L45.5143 43.9672C45.4297 44.0287 45.3614 44.1068 45.3144 44.1958C45.2674 44.2848 45.2429 44.3824 45.2429 44.4812V46.164C45.2448 46.5345 45.1419 46.8991 44.9441 47.2221C44.7462 47.5452 44.4603 47.8157 44.1143 48.0071C43.7782 48.1903 43.3946 48.2876 43.0036 48.2887C40.0179 48.2887 28.5714 44.8446 28.5714 39.122V37.7568C28.5714 37.5832 28.4962 37.4166 28.3622 37.2938C28.2283 37.1711 28.0466 37.1021 27.8571 37.1021C27.6677 37.1021 27.486 37.1711 27.3521 37.2938C27.2181 37.4166 27.1429 37.5832 27.1429 37.7568V39.122C27.1429 43.6399 32.5107 46.6943 37.1214 48.2887H6.17142C6.06976 48.2764 5.96642 48.2842 5.8683 48.3115C5.77019 48.3388 5.67956 48.385 5.60247 48.447C5.52539 48.509 5.46363 48.5853 5.42132 48.6709C5.379 48.7565 5.35712 48.8494 5.35712 48.9434C5.35712 49.0374 5.379 49.1303 5.42132 49.216C5.46363 49.3016 5.52539 49.3779 5.60247 49.4399C5.67956 49.5019 5.77019 49.5481 5.8683 49.5754C5.96642 49.6027 6.06976 49.6105 6.17142 49.5982H53.8286C53.9302 49.6105 54.0336 49.6027 54.1317 49.5754C54.2298 49.5481 54.3204 49.5019 54.3975 49.4399C54.4746 49.3779 54.5364 49.3016 54.5787 49.216C54.621 49.1303 54.6429 49.0374 54.6429 48.9434C54.6429 48.8494 54.621 48.7565 54.5787 48.6709C54.5364 48.5853 54.4746 48.509 54.3975 48.447C54.3204 48.385 54.2298 48.3388 54.1317 48.3115C54.0336 48.2842 53.9302 48.2764 53.8286 48.2887V48.2887ZM37.1429 12.6042C37.3548 12.6042 37.5619 12.6618 37.7381 12.7697C37.9143 12.8776 38.0516 13.031 38.1327 13.2104C38.2138 13.3899 38.235 13.5874 38.1937 13.7779C38.1524 13.9684 38.0503 14.1434 37.9005 14.2808C37.7506 14.4181 37.5597 14.5117 37.3519 14.5496C37.144 14.5875 36.9286 14.568 36.7328 14.4937C36.5371 14.4193 36.3697 14.2935 36.252 14.1319C36.1343 13.9704 36.0714 13.7805 36.0714 13.5863C36.0712 13.4573 36.0988 13.3295 36.1526 13.2102C36.2064 13.091 36.2853 12.9827 36.3848 12.8914C36.4843 12.8002 36.6025 12.7279 36.7326 12.6786C36.8627 12.6293 37.0021 12.604 37.1429 12.6042V12.6042ZM24.2857 43.378C24.2857 43.5722 24.2229 43.7621 24.1051 43.9236C23.9874 44.0851 23.8201 44.211 23.6243 44.2853C23.4285 44.3597 23.2131 44.3791 23.0053 44.3412C22.7974 44.3033 22.6065 44.2098 22.4567 44.0724C22.3068 43.9351 22.2048 43.7601 22.1634 43.5696C22.1221 43.379 22.1433 43.1816 22.2244 43.0021C22.3055 42.8226 22.4428 42.6693 22.619 42.5613C22.7952 42.4534 23.0024 42.3958 23.2143 42.3958C23.355 42.3956 23.4944 42.4209 23.6245 42.4702C23.7546 42.5195 23.8728 42.5919 23.9723 42.6831C24.0718 42.7743 24.1508 42.8827 24.2045 43.0019C24.2583 43.1211 24.2859 43.2489 24.2857 43.378V43.378ZM40.3571 17.5149C40.3571 17.3206 40.42 17.1307 40.5377 16.9692C40.6554 16.8077 40.8228 16.6818 41.0186 16.6075C41.2143 16.5331 41.4298 16.5137 41.6376 16.5516C41.8454 16.5895 42.0363 16.683 42.1862 16.8204C42.336 16.9577 42.4381 17.1327 42.4794 17.3233C42.5207 17.5138 42.4995 17.7113 42.4184 17.8907C42.3373 18.0702 42.2 18.2236 42.0238 18.3315C41.8476 18.4394 41.6405 18.497 41.4286 18.497C41.2878 18.4972 41.1484 18.4719 41.0183 18.4226C40.8883 18.3733 40.7701 18.301 40.6705 18.2097C40.571 18.1185 40.4921 18.0102 40.4383 17.8909C40.3845 17.7717 40.357 17.6439 40.3571 17.5149ZM44.2857 23.0803C44.0964 23.0809 43.9151 23.15 43.7812 23.2727C43.6474 23.3954 43.572 23.5616 43.5714 23.7351V26.5277L41.7 29.9553H36.0714V27.0089H41.4286C41.5224 27.0089 41.6153 26.992 41.7019 26.9591C41.7886 26.9262 41.8674 26.878 41.9337 26.8172C42 26.7564 42.0526 26.6842 42.0885 26.6047C42.1244 26.5253 42.1429 26.4401 42.1429 26.3542V19.7116C42.5398 19.6009 42.9008 19.4023 43.1942 19.1334C43.4876 18.8644 43.7042 18.5335 43.825 18.1696H46.8821C47.5737 19.7361 47.9873 21.394 48.1071 23.0803H44.2857Z" fill="#293D7C"/>
<path d="M36.7857 19.1518C36.3706 19.1523 35.9621 19.2467 35.5964 19.4268L34.4322 18.3628C34.3665 18.3014 34.2882 18.2527 34.2017 18.2195C34.1152 18.1863 34.0223 18.1694 33.9286 18.1696H30C29.8107 18.1701 29.6294 18.2393 29.4955 18.362C29.3617 18.4846 29.2863 18.6509 29.2857 18.8244V24.0625C29.2862 24.157 29.3088 24.2503 29.3519 24.3361C29.395 24.4219 29.4577 24.4983 29.5357 24.5601L31.7857 26.328V29.9553H33.2143V26.0268C33.2146 25.9321 33.1924 25.8386 33.1492 25.7527C33.106 25.6667 33.0429 25.5904 32.9643 25.5291L30.7143 23.7613V19.4791H33.6321L34.5857 20.3532C34.3252 20.7947 34.2299 21.3022 34.3145 21.7981C34.399 22.2939 34.6588 22.7506 35.0539 23.098C35.4489 23.4455 35.9574 23.6645 36.5014 23.7214C37.0453 23.7784 37.5946 23.6701 38.065 23.4132C38.5353 23.1564 38.9007 22.7651 39.105 22.2995C39.3094 21.8339 39.3413 21.3197 39.1961 20.8358C39.0508 20.352 38.7364 19.9252 38.3009 19.6209C37.8655 19.3167 37.3332 19.1519 36.7857 19.1518V19.1518ZM36.7857 22.4256C36.5738 22.4256 36.3667 22.368 36.1905 22.2601C36.0143 22.1521 35.8769 21.9987 35.7959 21.8193C35.7148 21.6398 35.6935 21.4423 35.7349 21.2518C35.7762 21.0613 35.8783 20.8863 36.0281 20.7489C36.1779 20.6116 36.3689 20.5181 36.5767 20.4802C36.7845 20.4423 37 20.4617 37.1957 20.536C37.3915 20.6104 37.5589 20.7363 37.6766 20.8978C37.7943 21.0593 37.8571 21.2492 37.8571 21.4434C37.8573 21.5725 37.8298 21.7002 37.776 21.8195C37.7222 21.9387 37.6433 22.0471 37.5438 22.1383C37.4442 22.2295 37.326 22.3019 37.196 22.3512C37.0659 22.4005 36.9265 22.4257 36.7857 22.4256Z" fill="#00947E"/>
<path d="M19.2857 9.98515C19.4976 9.98515 19.7048 9.92755 19.881 9.81963C20.0572 9.71171 20.1945 9.55832 20.2756 9.37885C20.3567 9.19939 20.3779 9.00191 20.3366 8.8114C20.2952 8.62088 20.1932 8.44588 20.0433 8.30852C19.8935 8.17117 19.7026 8.07763 19.4947 8.03973C19.2869 8.00184 19.0715 8.02129 18.8757 8.09562C18.6799 8.16996 18.5126 8.29584 18.3949 8.45736C18.2771 8.61887 18.2143 8.80876 18.2143 9.003C18.2146 9.26339 18.3276 9.51303 18.5285 9.69716C18.7293 9.88128 19.0017 9.98485 19.2857 9.98515ZM19.2857 8.51193C19.3917 8.51193 19.4952 8.54073 19.5833 8.59469C19.6714 8.64865 19.7401 8.72535 19.7807 8.81508C19.8212 8.90481 19.8318 9.00355 19.8111 9.09881C19.7905 9.19407 19.7394 9.28157 19.6645 9.35024C19.5896 9.41892 19.4942 9.46569 19.3902 9.48464C19.2863 9.50359 19.1786 9.49386 19.0807 9.4567C18.9828 9.41953 18.8992 9.35659 18.8403 9.27583C18.7814 9.19507 18.75 9.10013 18.75 9.003C18.7501 8.8728 18.8066 8.74797 18.9071 8.65591C19.0075 8.56384 19.1437 8.51206 19.2857 8.51193ZM53.163 14.5685C53.0217 14.5685 52.8836 14.6069 52.7662 14.6788C52.6487 14.7508 52.5572 14.853 52.5031 14.9727C52.449 15.0923 52.4349 15.224 52.4624 15.351C52.49 15.478 52.558 15.5947 52.6579 15.6862C52.7578 15.7778 52.8851 15.8402 53.0237 15.8654C53.1622 15.8907 53.3058 15.8777 53.4364 15.8282C53.5669 15.7786 53.6784 15.6947 53.7569 15.587C53.8354 15.4793 53.8773 15.3527 53.8773 15.2232C53.8771 15.0496 53.8018 14.8832 53.6678 14.7605C53.5339 14.6377 53.3524 14.5687 53.163 14.5685ZM53.163 15.5506C53.0924 15.5506 53.0233 15.5314 52.9646 15.4954C52.9059 15.4595 52.8601 15.4083 52.8331 15.3485C52.806 15.2887 52.7989 15.2229 52.8127 15.1594C52.8265 15.0959 52.8605 15.0375 52.9105 14.9917C52.9604 14.946 53.0241 14.9148 53.0933 14.9022C53.1626 14.8895 53.2344 14.896 53.2997 14.9208C53.3649 14.9456 53.4207 14.9875 53.46 15.0414C53.4992 15.0952 53.5202 15.1585 53.5202 15.2232C53.5201 15.31 53.4824 15.3933 53.4154 15.4546C53.3485 15.516 53.2577 15.5505 53.163 15.5506V15.5506ZM47.3929 7.69348C47.2516 7.69348 47.1135 7.73188 46.996 7.80383C46.8786 7.87577 46.787 7.97803 46.7329 8.09768C46.6789 8.21732 46.6647 8.34897 46.6923 8.47598C46.7199 8.60299 46.7879 8.71966 46.8878 8.81123C46.9877 8.9028 47.115 8.96516 47.2535 8.99042C47.3921 9.01569 47.5357 9.00272 47.6662 8.95316C47.7967 8.90361 47.9083 8.81968 47.9868 8.71201C48.0653 8.60433 48.1071 8.47774 48.1071 8.34824C48.1069 8.17465 48.0316 8.00822 47.8977 7.88548C47.7638 7.76273 47.5822 7.69368 47.3929 7.69348V7.69348ZM47.3929 8.67562C47.3222 8.67562 47.2532 8.65642 47.1944 8.62045C47.1357 8.58448 47.0899 8.53335 47.0629 8.47353C47.0359 8.4137 47.0288 8.34788 47.0426 8.28437C47.0564 8.22087 47.0904 8.16253 47.1403 8.11675C47.1903 8.07096 47.2539 8.03978 47.3232 8.02715C47.3925 8.01452 47.4643 8.021 47.5295 8.04578C47.5948 8.07056 47.6506 8.11252 47.6898 8.16636C47.7291 8.2202 47.75 8.28349 47.75 8.34824C47.7499 8.43504 47.7123 8.51826 47.6453 8.57964C47.5783 8.64102 47.4876 8.67554 47.3929 8.67562ZM53.5202 0.818481C53.3789 0.818481 53.2408 0.856883 53.1233 0.928829C53.0058 1.00077 52.9143 1.10303 52.8602 1.22268C52.8062 1.34232 52.792 1.47397 52.8196 1.60098C52.8472 1.72799 52.9152 1.84466 53.0151 1.93623C53.115 2.0278 53.2422 2.09016 53.3808 2.11542C53.5194 2.14069 53.663 2.12772 53.7935 2.07816C53.924 2.02861 54.0356 1.94468 54.1141 1.83701C54.1925 1.72933 54.2344 1.60274 54.2344 1.47324C54.2342 1.29965 54.1589 1.13322 54.025 1.01048C53.8911 0.887727 53.7095 0.81868 53.5202 0.818481ZM53.5202 1.80062C53.4495 1.80062 53.3805 1.78142 53.3217 1.74545C53.263 1.70948 53.2172 1.65835 53.1902 1.59853C53.1632 1.53871 53.1561 1.47288 53.1699 1.40937C53.1836 1.34587 53.2177 1.28754 53.2676 1.24175C53.3176 1.19596 53.3812 1.16478 53.4505 1.15215C53.5198 1.13952 53.5916 1.146 53.6568 1.17078C53.7221 1.19556 53.7779 1.23752 53.8171 1.29136C53.8563 1.3452 53.8773 1.40849 53.8773 1.47324C53.8772 1.56004 53.8395 1.64326 53.7726 1.70464C53.7056 1.76602 53.6148 1.80054 53.5202 1.80062V1.80062ZM4.17689 15.878C4.17689 15.7485 4.135 15.6219 4.05651 15.5142C3.97803 15.4066 3.86647 15.3226 3.73595 15.2731C3.60543 15.2235 3.46182 15.2106 3.32326 15.2358C3.1847 15.2611 3.05743 15.3234 2.95753 15.415C2.85764 15.5066 2.78961 15.6233 2.76205 15.7503C2.73449 15.8773 2.74863 16.0089 2.80269 16.1286C2.85676 16.2482 2.94831 16.3505 3.06577 16.4224C3.18324 16.4944 3.32134 16.5328 3.46261 16.5328C3.65198 16.5326 3.83354 16.4635 3.96744 16.3408C4.10135 16.218 4.17668 16.0516 4.17689 15.878ZM3.10546 15.878C3.10546 15.8133 3.12641 15.75 3.16565 15.6961C3.2049 15.6423 3.26068 15.6003 3.32594 15.5755C3.39119 15.5508 3.463 15.5443 3.53228 15.5569C3.60156 15.5695 3.6652 15.6007 3.71515 15.6465C3.76509 15.6923 3.79911 15.7506 3.81289 15.8141C3.82667 15.8776 3.8196 15.9435 3.79256 16.0033C3.76553 16.0631 3.71976 16.1142 3.66103 16.1502C3.60229 16.1862 3.53324 16.2054 3.46261 16.2054C3.36792 16.2053 3.27713 16.1708 3.21017 16.1094C3.14322 16.048 3.10556 15.9648 3.10546 15.878Z" fill="#293D7C"/>
<path d="M2.89678 3.85161L3.4275 3.21158L3.09214 3.03741L2.75142 3.75438H2.74L2.39392 3.04233L2.0525 3.22173L2.57821 3.8467V3.85685L1.75642 3.75962V4.10795L2.58357 4.01072V4.02087L2.0525 4.64551L2.37107 4.83015L2.73464 4.10795H2.74571L3.08107 4.82491L3.43321 4.6406L2.89678 4.02578V4.01563L3.74035 4.10795V3.75962L2.89678 3.86209V3.85161Z" fill="#FFCE31"/>
<path d="M13.6907 2.03957L13.385 2.39937L13.5682 2.50577L13.7775 2.08966H13.7839L13.9771 2.50249L14.18 2.39642L13.8711 2.04252V2.03663L14.3568 2.08966V1.88898L13.8711 1.94791V1.94202L14.1768 1.57338L13.9836 1.47321L13.7871 1.88603H13.7807L13.5814 1.47615L13.385 1.57928L13.6875 1.9394V1.94529L13.2143 1.88898V2.08966L13.6907 2.03368V2.03957Z" fill="#FFCE31"/>
<path d="M58.2246 9.5009V9.15944L57.3971 9.25995V9.2498L57.9179 8.62188L57.5889 8.45099L57.2546 9.1542H57.2436L56.9039 8.4559L56.5693 8.63203L57.0846 9.24489V9.25504L56.2789 9.15944V9.5009L57.09 9.40563V9.41578L56.5693 10.0286L56.8818 10.2097L57.2382 9.5009H57.2489L57.5779 10.2044L57.9232 10.0237L57.3971 9.42069V9.41054L58.2246 9.5009Z" fill="#FFCE31"/>
<path d="M28.8218 4.35021L29.2711 3.80839L28.9875 3.66107L28.6989 4.26771H28.6893L28.3964 3.66533L28.1079 3.81723L28.5525 4.34595V4.35446L27.8571 4.27229V4.56693L28.5571 4.48476V4.49327L28.1079 5.02199L28.3771 5.17816L28.6846 4.56693H28.6939L28.9779 5.17357L29.2757 5.01774L28.8218 4.49753V4.48902L29.5357 4.56693V4.27229L28.8218 4.35872V4.35021Z" fill="#FFCE31"/>
</g>
<defs>
<clipPath id="clip0_123_2">
<rect width="60" height="55" fill="white"/>
</clipPath>
</defs>
</svg>
