<svg width="60" height="55" viewBox="0 0 60 55" fill="none" xmlns="http://www.w3.org/2000/svg">
<path d="M0.45805 15.2257L9.1169 19.5551C9.14806 19.5707 9.18023 19.5845 9.21323 19.5964C9.21989 19.5989 9.22665 19.6009 9.23336 19.6032C9.25847 19.6118 9.28407 19.6193 9.31018 19.6258C9.31906 19.628 9.3279 19.6301 9.33684 19.6321C9.36177 19.6375 9.38712 19.6417 9.41283 19.6451C9.42137 19.6463 9.42982 19.6478 9.43837 19.6487C9.50561 19.6564 9.57363 19.6564 9.64087 19.6487C9.64944 19.6478 9.65788 19.6463 9.66642 19.6451C9.69213 19.6417 9.71748 19.6375 9.74241 19.6321C9.75134 19.6301 9.76018 19.628 9.76907 19.6258C9.79519 19.6193 9.8208 19.6118 9.84589 19.6032C9.85259 19.6009 9.85935 19.5989 9.86602 19.5964C9.89902 19.5845 9.93118 19.5707 9.96235 19.5551L18.6212 15.2257C18.7598 15.1564 18.8755 15.0542 18.9561 14.9297C19.0367 14.8053 19.0792 14.6632 19.0792 14.5185V5.13595C19.0792 5.1327 19.0786 5.12958 19.0785 5.12636C19.0777 5.06021 19.068 4.99442 19.0495 4.93047C19.0473 4.92285 19.0448 4.91531 19.0423 4.90773C19.0344 4.88324 19.0252 4.85899 19.0146 4.83498C19.0112 4.82746 19.0082 4.81988 19.0047 4.81243C18.9907 4.7828 18.9748 4.75397 18.957 4.72609L18.9564 4.72517L18.9541 4.72206C18.9364 4.69519 18.917 4.66929 18.896 4.64448C18.8904 4.63787 18.8845 4.63158 18.8787 4.62512C18.8607 4.60498 18.8418 4.58581 18.822 4.56761C18.8163 4.56234 18.8107 4.55696 18.8048 4.55182C18.7524 4.50623 18.694 4.46678 18.631 4.43438C18.6276 4.43262 18.6246 4.43039 18.6212 4.42869L9.96048 0.0983482C9.83138 0.0338147 9.68667 0 9.53962 0C9.39257 0 9.24787 0.0338147 9.11877 0.0983482L0.45805 4.42869C0.454609 4.43042 0.451634 4.43268 0.448229 4.43441C0.385291 4.46678 0.326971 4.50617 0.274601 4.55169C0.268542 4.55694 0.262849 4.56244 0.25697 4.56784C0.237343 4.58591 0.218589 4.60495 0.200708 4.62494C0.194829 4.63149 0.188821 4.63789 0.183177 4.64461C0.162215 4.66936 0.142841 4.69521 0.125155 4.72203L0.12288 4.72517L0.122223 4.72609C0.104482 4.75398 0.0885751 4.78281 0.0745863 4.81243C0.071025 4.81988 0.0680062 4.82746 0.0646875 4.83499C0.0540875 4.85904 0.044825 4.88329 0.0369 4.90774C0.0344543 4.91532 0.0319219 4.92284 0.0297117 4.93048C0.0112491 4.99442 0.0015091 5.06021 0.000714844 5.12636C0.000672656 5.12958 0 5.1327 0 5.13595V14.5185C5.91506e-06 14.6632 0.0425452 14.8053 0.123147 14.9297C0.203749 15.0542 0.319436 15.1564 0.45805 15.2257ZM17.3214 14.0402L10.4185 17.4917V10.2869L17.3214 6.54786V14.0402ZM9.53962 1.72332L16.4209 5.16397L9.53962 8.89134L2.6583 5.16396L9.53962 1.72332ZM1.75781 6.54786L8.66072 10.2869V17.4917L1.75781 14.0402V6.54786ZM35.0766 51.4665C35.0681 51.4676 35.0483 51.4706 35.0399 51.4719C34.8102 51.5106 34.6064 51.6307 34.4729 51.8063C34.3393 51.9819 34.2866 52.1986 34.3264 52.4096C34.3662 52.6205 34.4951 52.8085 34.6852 52.9328C34.8753 53.0571 35.1112 53.1076 35.3417 53.0734C35.5722 53.0392 35.7787 52.9229 35.9163 52.75C36.0539 52.577 36.1114 52.3613 36.0765 52.1497C36.0416 51.938 35.917 51.7476 35.7298 51.6197C35.5426 51.4917 35.3078 51.4367 35.0766 51.4665ZM35.2253 52.3808L35.2063 52.2633L35.227 52.3901L35.2253 52.3808ZM59.9993 5.12635C59.9985 5.06021 59.9888 4.99442 59.9703 4.93047C59.9681 4.92284 59.9655 4.91531 59.9631 4.90773C59.9552 4.88324 59.9459 4.85899 59.9353 4.83498C59.932 4.82746 59.929 4.81988 59.9254 4.81242C59.9114 4.7828 59.8955 4.75397 59.8778 4.72609L59.8771 4.72517L59.8749 4.72206C59.8572 4.69521 59.8378 4.66934 59.8168 4.64456C59.8112 4.63787 59.8052 4.63152 59.7994 4.62502C59.7814 4.60498 59.7626 4.58591 59.743 4.56779C59.7371 4.56242 59.7315 4.55694 59.7254 4.55172C59.6731 4.50622 59.6148 4.46684 59.5519 4.43449C59.5484 4.4327 59.5454 4.43042 59.542 4.42869L50.8812 0.0983482C50.7521 0.0338147 50.6074 0 50.4604 0C50.3133 0 50.1686 0.0338147 50.0395 0.0983482L41.3788 4.42869C41.3753 4.43045 41.3723 4.43273 41.3688 4.43454C41.306 4.46685 41.2478 4.50616 41.1955 4.55158C41.1893 4.55693 41.1835 4.56254 41.1775 4.56805C41.158 4.58602 41.1394 4.60493 41.1216 4.62478C41.1157 4.63142 41.1096 4.63789 41.1039 4.64469C41.0829 4.66941 41.0636 4.69523 41.0459 4.722L41.0436 4.72517L41.043 4.72609C41.0252 4.75398 41.0093 4.78281 40.9953 4.81243C40.9918 4.81988 40.9888 4.82746 40.9854 4.83499C40.9748 4.85904 40.9656 4.88329 40.9577 4.90774C40.9552 4.91532 40.9527 4.92284 40.9505 4.93048C40.932 4.99442 40.9223 5.06022 40.9215 5.12636C40.9214 5.12958 40.9208 5.1327 40.9208 5.13596V14.5185C40.9208 14.6632 40.9633 14.8053 41.0439 14.9297C41.1245 15.0542 41.2402 15.1564 41.3788 15.2257L50.0377 19.5551C50.0688 19.5707 50.101 19.5845 50.134 19.5964C50.1406 19.5989 50.1474 19.6009 50.1541 19.6032C50.1792 19.6118 50.2048 19.6193 50.2309 19.6258C50.2398 19.628 50.2487 19.6301 50.2576 19.6321C50.2825 19.6375 50.3079 19.6417 50.3336 19.6451C50.3421 19.6463 50.3506 19.6478 50.3591 19.6487C50.4264 19.6564 50.4944 19.6564 50.5616 19.6487C50.5702 19.6478 50.5786 19.6463 50.5872 19.6451C50.6129 19.6417 50.6382 19.6375 50.6632 19.6321C50.6721 19.6301 50.6809 19.628 50.6898 19.6258C50.716 19.6193 50.7416 19.6118 50.7666 19.6032C50.7734 19.6009 50.7801 19.5989 50.7868 19.5964C50.8198 19.5845 50.8519 19.5707 50.8831 19.5551L59.542 15.2257C59.6806 15.1564 59.7963 15.0542 59.8769 14.9297C59.9575 14.8053 60 14.6632 60 14.5185V5.13595C60 5.1327 59.9993 5.12958 59.9993 5.12635ZM49.5815 17.4917L42.6786 14.0402V6.54786L49.5815 10.2869V17.4917ZM50.4604 8.89134L43.5791 5.16396L50.4604 1.72332L57.3417 5.16397L50.4604 8.89134ZM58.2422 14.0402L51.3393 17.4917V10.2869L58.2422 6.54786V14.0402ZM2.69297 31.5827C2.71031 31.5827 2.72782 31.5823 2.74538 31.5813C2.8606 31.5751 2.97336 31.5482 3.07722 31.502C3.18107 31.4558 3.27399 31.3914 3.35067 31.3123C3.42734 31.2332 3.48628 31.1411 3.52411 31.0411C3.56193 30.9411 3.57791 30.8353 3.57113 30.7297C3.5709 30.7258 3.56987 30.7111 3.56959 30.7073C3.55174 30.495 3.44297 30.2979 3.26706 30.1589C3.09114 30.0199 2.86237 29.9504 2.63073 29.9656C2.39908 29.9807 2.18339 30.0793 2.03078 30.2397C1.87817 30.4002 1.80104 30.6095 1.81624 30.8219L2.69377 30.777L1.81641 30.8243C1.82955 31.0293 1.9276 31.222 2.09053 31.363C2.25345 31.5039 2.46894 31.5825 2.69297 31.5827ZM2.96076 25.1664C3.07401 25.187 3.19057 25.1869 3.30376 25.1661C3.41696 25.1453 3.52457 25.1042 3.62044 25.0453C3.71631 24.9863 3.79855 24.9106 3.86246 24.8225C3.92638 24.7343 3.9707 24.6355 3.9929 24.5317C3.99325 24.5302 3.99576 24.5182 3.99611 24.5168C4.03966 24.307 3.99056 24.0899 3.8596 23.9133C3.72864 23.7367 3.52654 23.6149 3.29771 23.5748C3.06888 23.5347 2.83204 23.5795 2.63924 23.6994C2.44645 23.8193 2.31347 24.0045 2.26954 24.2142L3.13059 24.376L2.26828 24.2203C2.24597 24.3241 2.24619 24.4309 2.26892 24.5347C2.29165 24.6384 2.33644 24.737 2.40074 24.8248C2.46505 24.9127 2.5476 24.9881 2.64369 25.0467C2.73978 25.1053 2.84752 25.146 2.96076 25.1664ZM1.81441 27.4939C1.81412 27.4978 1.81309 27.5125 1.81286 27.5164C1.79913 27.7298 1.8784 27.9394 2.03324 28.0992C2.18808 28.259 2.4058 28.3559 2.63855 28.3685C2.65618 28.3695 2.67369 28.3699 2.69108 28.3699C2.86329 28.3708 3.03205 28.3257 3.17669 28.24C3.32132 28.1543 3.43553 28.0318 3.50531 27.8875C3.57509 27.7432 3.59741 27.5833 3.56954 27.4275C3.54167 27.2718 3.46481 27.1268 3.34839 27.0105C3.23197 26.8942 3.08105 26.8115 2.91413 26.7727C2.74722 26.7338 2.57156 26.7405 2.40871 26.7918C2.24586 26.8431 2.10288 26.9369 1.99731 27.0616C1.89174 27.1863 1.82818 27.3366 1.81441 27.4939ZM24.8583 3.85392C24.9819 3.85507 25.1044 3.83233 25.2178 3.78717C25.3312 3.74202 25.4329 3.67546 25.5164 3.59185C25.5998 3.50824 25.6631 3.40945 25.7021 3.30191C25.7412 3.19438 25.755 3.08051 25.7428 2.96774C25.7306 2.85497 25.6926 2.74581 25.6313 2.6474C25.57 2.54899 25.4868 2.46352 25.387 2.39657C25.2873 2.32962 25.1733 2.28268 25.0524 2.25883C24.9315 2.23497 24.8065 2.23473 24.6856 2.25812C24.6773 2.2597 24.6578 2.26389 24.6495 2.26568C24.4407 2.31238 24.2578 2.42763 24.1354 2.5896C24.013 2.75158 23.9596 2.94906 23.9853 3.14468C24.011 3.3403 24.1141 3.52051 24.2749 3.6512C24.4358 3.78189 24.6433 3.85402 24.8583 3.85392ZM38.3695 50.7785C38.146 50.8373 37.9571 50.9749 37.8441 51.1611C37.731 51.3473 37.703 51.5669 37.7663 51.772C37.8295 51.977 37.9788 52.1508 38.1814 52.2552C38.3841 52.3596 38.6236 52.3861 38.8475 52.329C38.8556 52.327 38.8747 52.3219 38.8826 52.3196C39.1047 52.2566 39.2906 52.1154 39.3994 51.9271C39.5083 51.7388 39.5313 51.5186 39.4634 51.3147C39.3956 51.1109 39.2423 50.94 39.0373 50.8395C38.8322 50.739 38.5921 50.7171 38.3695 50.7785ZM38.4711 4.20556C38.4801 4.20819 38.5004 4.21364 38.5095 4.21584C38.7349 4.27105 38.9748 4.24258 39.1774 4.13662C39.38 4.03065 39.5288 3.85574 39.5916 3.64983C39.6543 3.44392 39.626 3.22362 39.5127 3.03675C39.3994 2.84987 39.2103 2.71149 38.9864 2.65162C38.7625 2.59176 38.5218 2.61525 38.3167 2.71699C38.1116 2.81873 37.9585 2.99052 37.8906 3.19507C37.8228 3.39963 37.8457 3.62046 37.9544 3.80963C38.063 3.99881 38.2487 4.14108 38.4711 4.20556ZM31.806 3.23404C31.8148 3.23426 31.8235 3.23436 31.8323 3.23436C32.0631 3.23424 32.2846 3.15089 32.449 3.00232C32.6133 2.85375 32.7073 2.65188 32.7106 2.44032C32.714 2.22876 32.6264 2.02448 32.4668 1.87162C32.3072 1.71876 32.0884 1.62958 31.8577 1.62334L31.846 1.62303C31.731 1.62015 31.6165 1.63811 31.509 1.67587C31.4016 1.71363 31.3033 1.77045 31.2198 1.84307C31.1363 1.9157 31.0693 2.00271 31.0226 2.09911C30.9759 2.19551 30.9504 2.29942 30.9475 2.40488C30.942 2.61904 31.0292 2.8265 31.19 2.98188C31.3509 3.13727 31.5724 3.22793 31.806 3.23404ZM35.1772 3.52483C35.4062 3.55978 35.641 3.51025 35.8303 3.38705C36.0196 3.26385 36.1481 3.077 36.1876 2.86729C36.2272 2.65757 36.1746 2.44204 36.0414 2.26774C35.9081 2.09344 35.7051 1.97454 35.4766 1.937C35.4681 1.93564 35.4483 1.93271 35.4398 1.93155C35.2098 1.90057 34.9758 1.95439 34.7889 2.08122C34.6021 2.20806 34.4777 2.39758 34.443 2.6083C34.4082 2.81902 34.466 3.03377 34.6036 3.20555C34.7412 3.37732 34.9474 3.49213 35.1772 3.52483ZM28.3158 3.34041C28.3417 3.34041 28.3678 3.33947 28.394 3.33726C28.403 3.33653 28.4236 3.33464 28.4326 3.3337C28.6594 3.30671 28.8659 3.19997 29.0085 3.03602C29.1511 2.87207 29.2185 2.66374 29.1966 2.45504C29.1747 2.24634 29.0652 2.05361 28.8912 1.91755C28.7172 1.78149 28.4923 1.71276 28.264 1.72588C28.0357 1.739 27.822 1.83293 27.6678 1.98784C27.5137 2.14276 27.4313 2.34652 27.438 2.55609C27.4447 2.76566 27.5401 2.96464 27.7038 3.11099C27.8676 3.25734 28.087 3.3396 28.3158 3.34041ZM21.4907 4.77435C21.6195 4.7764 21.7473 4.75257 21.8649 4.70453C21.9826 4.65648 22.0874 4.58539 22.1719 4.49625C22.2564 4.40711 22.3185 4.30208 22.354 4.18856C22.3895 4.07504 22.3974 3.95577 22.3772 3.83914C22.357 3.72252 22.3091 3.61137 22.237 3.5135C22.1649 3.41564 22.0703 3.33344 21.9599 3.27268C21.8494 3.21193 21.7258 3.17409 21.5976 3.16183C21.4695 3.14957 21.34 3.16319 21.2182 3.20173C21.212 3.20383 21.1947 3.20949 21.1885 3.2117C20.9953 3.27736 20.8333 3.40312 20.7309 3.56705C20.6284 3.73097 20.592 3.92266 20.628 4.10867C20.664 4.29468 20.7701 4.46322 20.9277 4.58487C21.0854 4.70653 21.2846 4.77358 21.4907 4.77435ZM2.27898 34.1196C2.31809 34.3017 2.42509 34.4656 2.58164 34.5833C2.73819 34.701 2.93453 34.7651 3.137 34.7646C3.25967 34.7646 3.38099 34.7411 3.49319 34.6957C3.6054 34.6503 3.70602 34.5838 3.78864 34.5007C3.87125 34.4176 3.93403 34.3196 3.97296 34.2129C4.01189 34.1063 4.02612 33.9934 4.01473 33.8814C4.00334 33.7695 3.9666 33.6609 3.90683 33.5627C3.84707 33.4645 3.76561 33.3788 3.66766 33.3111C3.56971 33.2434 3.45743 33.1952 3.33799 33.1695C3.21856 33.1439 3.0946 33.1414 2.97403 33.1621C2.86067 33.182 2.75268 33.2221 2.65623 33.2802C2.55979 33.3384 2.47677 33.4133 2.41193 33.5008C2.34709 33.5884 2.3017 33.6867 2.27833 33.7904C2.25497 33.894 2.2541 34.0008 2.27577 34.1047C2.27612 34.1062 2.27863 34.1181 2.27898 34.1196ZM31.6912 51.7645L31.6792 51.7648C31.4485 51.7711 31.2298 51.8604 31.0703 52.0133C30.9108 52.1661 30.8232 52.3704 30.8266 52.5819C30.83 52.7934 30.924 52.9953 31.0883 53.1438C31.2526 53.2924 31.4741 53.3757 31.7049 53.3758C31.7138 53.3758 31.7227 53.3757 31.7316 53.3755L31.717 52.5698L31.7429 53.3752C31.9758 53.3688 32.1963 53.2778 32.3561 53.1224C32.5159 52.9669 32.6018 52.7596 32.5949 52.5462C32.5881 52.3327 32.489 52.1304 32.3196 51.9838C32.1501 51.8373 31.9241 51.7584 31.6912 51.7645ZM56.2415 20.3065C56.1297 20.3329 56.0247 20.3792 55.9324 20.4428C55.8402 20.5063 55.7625 20.586 55.7038 20.6771C55.6452 20.7682 55.6066 20.869 55.5905 20.9738C55.5743 21.0785 55.5808 21.1852 55.6096 21.2876C55.6112 21.2933 55.6158 21.3093 55.6176 21.315C55.6698 21.4848 55.7809 21.6345 55.9341 21.7412C56.0873 21.848 56.2743 21.9061 56.4668 21.9067C56.602 21.9065 56.7353 21.8778 56.8564 21.8227C56.9775 21.7675 57.083 21.6875 57.1649 21.5889C57.2467 21.4902 57.3025 21.3756 57.3281 21.2539C57.3537 21.1322 57.3482 21.0068 57.3122 20.8873L56.4607 21.0866L57.3118 20.8856C57.283 20.7832 57.2325 20.6869 57.1631 20.6024C57.0938 20.5178 57.0069 20.4466 56.9075 20.3928C56.8081 20.339 56.6981 20.3037 56.5839 20.2889C56.4696 20.2741 56.3532 20.28 56.2415 20.3065ZM58.2421 27.4462C58.242 27.3407 58.2192 27.2363 58.1749 27.1389C58.1306 27.0415 58.0658 26.953 57.9841 26.8787C57.9024 26.8043 57.8055 26.7455 57.699 26.7055C57.5924 26.6656 57.4783 26.6453 57.3632 26.6459C57.1295 26.6471 56.9058 26.7331 56.7411 26.8851C56.5764 27.0371 56.4841 27.2427 56.4843 27.4569C56.4843 27.4662 56.4845 27.4754 56.4848 27.4845C56.4845 27.4932 56.4844 27.5019 56.4844 27.5107C56.4844 27.7243 56.577 27.9293 56.7418 28.0803C56.9066 28.2314 57.1302 28.3163 57.3633 28.3163C57.5964 28.3163 57.8199 28.2314 57.9848 28.0803C58.1496 27.9293 58.2422 27.7243 58.2422 27.5107V27.5C58.2422 27.4924 58.2421 27.4849 58.2418 27.4775C58.242 27.4707 58.2421 27.4638 58.2421 27.4569V27.4462ZM24.9591 51.1799C24.95 51.1779 24.9295 51.1736 24.9204 51.1718C24.6918 51.1289 24.4539 51.1705 24.2584 51.2874C24.063 51.4043 23.9257 51.5872 23.8764 51.7963C23.8271 52.0055 23.8697 52.224 23.9951 52.4044C24.1205 52.5849 24.3184 52.7128 24.546 52.7603C24.7735 52.8078 25.0124 52.7712 25.2106 52.6583C25.4089 52.5454 25.5506 52.3654 25.605 52.1573C25.6594 51.9493 25.6221 51.7299 25.5012 51.5469C25.3802 51.364 25.1855 51.232 24.9591 51.1799ZM24.7254 52.0638L24.7268 52.0576L24.752 51.9629L24.7254 52.0638ZM28.295 51.6679C28.0642 51.6453 27.833 51.7074 27.6519 51.8405C27.4708 51.9737 27.3545 52.1671 27.3284 52.3786C27.3024 52.59 27.3686 52.8024 27.5127 52.9692C27.6569 53.136 27.8671 53.2438 28.0977 53.269C28.1066 53.27 28.1272 53.2719 28.1362 53.2726C28.1625 53.2748 28.1886 53.2757 28.2144 53.2757C28.4402 53.2752 28.657 53.1951 28.82 53.0519C28.9831 52.9088 29.0798 52.7137 29.0901 52.507C29.1005 52.3003 29.0237 52.0979 28.8757 51.9416C28.7277 51.7854 28.5197 51.6874 28.295 51.6679ZM32.4833 21.6806V20.7861C32.4833 20.5724 32.3907 20.3675 32.2258 20.2164C32.061 20.0653 31.8374 19.9804 31.6043 19.9804C31.3712 19.9804 31.1477 20.0653 30.9829 20.2164C30.818 20.3675 30.7254 20.5724 30.7254 20.7861V21.5063H29.733V20.7861C29.733 20.5724 29.6404 20.3675 29.4755 20.2164C29.3107 20.0653 29.0871 19.9804 28.854 19.9804C28.6209 19.9804 28.3974 20.0653 28.2326 20.2164C28.0677 20.3675 27.9751 20.5724 27.9751 20.7861V21.5063H26.2632C26.0301 21.5063 25.8066 21.5911 25.6417 21.7422C25.4769 21.8933 25.3843 22.0982 25.3843 22.3119C25.3843 22.5256 25.4769 22.7305 25.6417 22.8816C25.8066 23.0327 26.0301 23.1176 26.2632 23.1176H26.6032V31.8823H26.2632C26.0301 31.8823 25.8066 31.9672 25.6417 32.1183C25.4769 32.2694 25.3843 32.4743 25.3843 32.688C25.3843 32.9017 25.4769 33.1066 25.6417 33.2577C25.8066 33.4088 26.0301 33.4937 26.2632 33.4937H27.9751V34.2138C27.9751 34.4275 28.0677 34.6324 28.2326 34.7835C28.3974 34.9346 28.6209 35.0195 28.854 35.0195C29.0871 35.0195 29.3107 34.9346 29.4755 34.7835C29.6404 34.6324 29.733 34.4275 29.733 34.2138V33.4937H30.7254V34.2138C30.7254 34.4275 30.818 34.6324 30.9829 34.7835C31.1477 34.9346 31.3712 35.0195 31.6043 35.0195C31.8374 35.0195 32.061 34.9346 32.2258 34.7835C32.3907 34.6324 32.4833 34.4275 32.4833 34.2138V33.3193C33.1072 33.1129 33.6466 32.7354 34.0282 32.238C34.4097 31.7406 34.6149 31.1476 34.6157 30.5396V29.6484C34.6158 29.2457 34.5258 28.8474 34.3514 28.4778C34.1769 28.1083 33.9217 27.7755 33.6014 27.5C33.9217 27.2244 34.1769 26.8916 34.3514 26.5221C34.5258 26.1525 34.6158 25.7542 34.6157 25.3515V24.4604C34.6149 23.8523 34.4097 23.2593 34.0282 22.7619C33.6466 22.2645 33.1072 21.887 32.4833 21.6806ZM32.8579 30.5396C32.8574 30.8956 32.703 31.2369 32.4284 31.4886C32.1537 31.7403 31.7814 31.8819 31.393 31.8823H28.361V28.3056H31.393C31.7814 28.306 32.1537 28.4476 32.4284 28.6993C32.703 28.9511 32.8574 29.2924 32.8579 29.6484V30.5396ZM32.8579 25.3515C32.8574 25.7075 32.703 26.0488 32.4284 26.3006C32.1537 26.5523 31.7814 26.6939 31.393 26.6943H28.361V23.1176H31.393C31.7814 23.118 32.1537 23.2596 32.4284 23.5113C32.703 23.763 32.8574 24.1043 32.8579 24.4604V25.3515ZM59.9703 40.2759C59.9681 40.2683 59.9655 40.2608 59.9631 40.2532C59.9552 40.2287 59.9459 40.2045 59.9353 40.1805C59.932 40.1729 59.929 40.1653 59.9254 40.1579C59.9114 40.1283 59.8955 40.0994 59.8778 40.0716L59.8771 40.0706L59.8749 40.0675C59.8571 40.0407 59.8377 40.0148 59.8168 39.99C59.8112 39.9833 59.8052 39.977 59.7994 39.9705C59.7814 39.9504 59.7626 39.9313 59.7429 39.9132C59.7371 39.9078 59.7315 39.9024 59.7255 39.8973C59.6731 39.8517 59.6147 39.8122 59.5516 39.7798C59.5483 39.7781 59.5453 39.7759 59.542 39.7742L50.8812 35.4438C50.7521 35.3793 50.6074 35.3455 50.4604 35.3455C50.3133 35.3455 50.1686 35.3793 50.0395 35.4438L41.3788 39.7742C41.3753 39.7759 41.3723 39.7782 41.3688 39.78C41.306 39.8123 41.2478 39.8516 41.1955 39.897C41.1893 39.9024 41.1835 39.908 41.1775 39.9135C41.158 39.9315 41.1393 39.9505 41.1216 39.9703C41.1156 39.9769 41.1096 39.9833 41.1039 39.9901C41.083 40.0149 41.0636 40.0407 41.0459 40.0675L41.0436 40.0706L41.043 40.0716C41.0252 40.0994 41.0093 40.1283 40.9953 40.1579C40.9918 40.1653 40.9888 40.1729 40.9854 40.1805C40.9748 40.2045 40.9656 40.2288 40.9577 40.2532C40.9552 40.2608 40.9527 40.2683 40.9505 40.2759C40.932 40.3399 40.9223 40.4057 40.9215 40.4718C40.9214 40.4751 40.9208 40.4782 40.9208 40.4814V49.864C40.9208 50.0087 40.9633 50.1507 41.0439 50.2752C41.1245 50.3997 41.2402 50.5019 41.3788 50.5712L50.0377 54.9006C50.0688 54.9162 50.101 54.93 50.134 54.9419C50.1406 54.9444 50.1474 54.9464 50.1541 54.9487C50.1792 54.9572 50.2048 54.9648 50.2309 54.9713C50.2398 54.9735 50.2487 54.9756 50.2576 54.9776C50.2825 54.983 50.3079 54.9872 50.3336 54.9906C50.3421 54.9918 50.3506 54.9933 50.3591 54.9942C50.4264 55.0019 50.4944 55.0019 50.5616 54.9942C50.5702 54.9933 50.5786 54.9918 50.5872 54.9906C50.6129 54.9872 50.6382 54.983 50.6632 54.9776C50.6721 54.9756 50.6809 54.9735 50.6898 54.9713C50.716 54.9648 50.7416 54.9573 50.7666 54.9487C50.7734 54.9464 50.7801 54.9444 50.7868 54.9419C50.8198 54.93 50.8519 54.9162 50.8831 54.9006L59.542 50.5712C59.6806 50.5019 59.7963 50.3997 59.8769 50.2752C59.9575 50.1507 60 50.0087 60 49.864V40.4814C60 40.4782 59.9993 40.4751 59.9993 40.4718C59.9985 40.4057 59.9888 40.3399 59.9703 40.2759ZM49.5815 52.8371L42.6786 49.3857V41.8933L49.5815 45.6325V52.8371ZM50.4604 44.2369L43.579 40.5094L50.4604 37.0688L57.3417 40.5094L50.4604 44.2369ZM58.2422 49.3857L51.3393 52.8371V45.6325L58.2422 41.8933V49.3857ZM58.0056 24.1342C57.975 23.9237 57.8544 23.733 57.6705 23.6039C57.4865 23.4748 57.2541 23.418 57.0245 23.4459C56.8516 23.4655 56.6889 23.5316 56.5569 23.6358C56.4249 23.74 56.3296 23.8777 56.2829 24.0316C56.2362 24.1854 56.2403 24.3485 56.2946 24.5002C56.3489 24.652 56.4511 24.7855 56.5881 24.8841C56.7251 24.9827 56.891 25.0419 57.0647 25.0541C57.2383 25.0664 57.4121 25.0313 57.564 24.9531C57.7159 24.875 57.8392 24.7574 57.9183 24.6151C57.9973 24.4728 58.0287 24.3122 58.0083 24.1536C58.0079 24.1507 58.006 24.1371 58.0056 24.1342ZM19.0495 40.2759C19.0473 40.2683 19.0448 40.2608 19.0423 40.2532C19.0344 40.2287 19.0252 40.2045 19.0146 40.1805C19.0112 40.1729 19.0082 40.1653 19.0047 40.1579C18.9907 40.1283 18.9748 40.0994 18.957 40.0716L18.9564 40.0706L18.9541 40.0675C18.9364 40.0407 18.917 40.0148 18.896 39.99C18.8904 39.9833 18.8845 39.9771 18.8787 39.9707C18.8607 39.9504 18.8418 39.9312 18.8219 39.913C18.8163 39.9078 18.8108 39.9025 18.8049 39.8974C18.7524 39.8517 18.6939 39.8122 18.6307 39.7797C18.6274 39.778 18.6245 39.7758 18.6212 39.7742L9.96048 35.4438C9.83138 35.3793 9.68667 35.3455 9.53962 35.3455C9.39257 35.3455 9.24787 35.3793 9.11877 35.4438L0.45805 39.7742C0.454523 39.7759 0.451487 39.7782 0.447994 39.78C0.385264 39.8123 0.327123 39.8516 0.274894 39.8969C0.268615 39.9024 0.262692 39.9081 0.256605 39.9137C0.2372 39.9316 0.218648 39.9504 0.200951 39.9702C0.194958 39.9768 0.188828 39.9834 0.183077 39.9902C0.16217 40.0149 0.14284 40.0407 0.125187 40.0675L0.122883 40.0706L0.122225 40.0716C0.104485 40.0994 0.0885774 40.1283 0.0745887 40.1579C0.0710273 40.1653 0.0680086 40.1729 0.0646898 40.1805C0.0540898 40.2045 0.0448273 40.2288 0.0369023 40.2532C0.0344566 40.2608 0.0319242 40.2683 0.0297141 40.2759C0.0112511 40.3399 0.00151115 40.4057 0.000717188 40.4718C0.000675 40.4751 2.34375e-06 40.4782 2.34375e-06 40.4814V49.864C7.83777e-06 50.0087 0.042547 50.1507 0.123149 50.2752C0.20375 50.3997 0.319438 50.5019 0.458052 50.5712L9.1169 54.9006C9.14806 54.9162 9.18023 54.93 9.21323 54.9419C9.21989 54.9444 9.22665 54.9464 9.23336 54.9487C9.25847 54.9572 9.28407 54.9648 9.31018 54.9713C9.31906 54.9735 9.3279 54.9756 9.33684 54.9776C9.36177 54.983 9.38712 54.9872 9.41283 54.9906C9.42137 54.9918 9.42982 54.9933 9.43837 54.9942C9.50561 55.0019 9.57363 55.0019 9.64087 54.9942C9.64944 54.9933 9.65788 54.9918 9.66642 54.9906C9.69213 54.9872 9.71748 54.983 9.74241 54.9776C9.75134 54.9756 9.76018 54.9735 9.76907 54.9713C9.79519 54.9648 9.8208 54.9573 9.84589 54.9487C9.85259 54.9464 9.85935 54.9444 9.86602 54.9419C9.89902 54.93 9.93118 54.9162 9.96235 54.9006L18.6212 50.5712C18.7598 50.5019 18.8755 50.3997 18.9561 50.2752C19.0367 50.1507 19.0792 50.0087 19.0792 49.8639V40.4814C19.0792 40.4782 19.0786 40.4751 19.0785 40.4718C19.0777 40.4057 19.068 40.3399 19.0495 40.2759ZM8.66072 52.8371L1.75781 49.3857V41.8933L8.66072 45.6325V52.8371ZM9.53962 44.2369L2.65828 40.5094L9.53962 37.0688L16.421 40.5094L9.53962 44.2369ZM17.3214 49.3857L10.4185 52.8371V45.6325L17.3214 41.8933V49.3857ZM4.85121 21.5109C4.9248 21.3083 4.90757 21.0871 4.80331 20.8961C4.69905 20.705 4.5163 20.5598 4.29523 20.4922C4.07416 20.4246 3.83287 20.4403 3.62442 20.5358C3.41596 20.6313 3.25739 20.7987 3.18358 21.0013C3.18318 21.0026 3.17906 21.0139 3.17866 21.0152C3.13634 21.1358 3.12567 21.2638 3.1475 21.3889C3.16934 21.5139 3.22307 21.6325 3.30433 21.735C3.38558 21.8375 3.49207 21.9209 3.61513 21.9785C3.73819 22.0361 3.87434 22.0663 4.01253 22.0666C4.19816 22.066 4.37892 22.0121 4.52937 21.9124C4.67982 21.8128 4.79238 21.6723 4.85121 21.5109ZM43.3327 27.5C43.3327 25.0827 42.5508 22.7198 41.0857 20.71C39.6207 18.7001 37.5384 17.1336 35.1022 16.2086C32.666 15.2836 29.9852 15.0416 27.3989 15.5131C24.8126 15.9847 22.437 17.1487 20.5724 18.8579C18.7077 20.5672 17.4379 22.7449 16.9235 25.1156C16.409 27.4864 16.6731 29.9438 17.6822 32.177C18.6913 34.4102 20.4002 36.319 22.5927 37.6619C24.7853 39.0048 27.363 39.7216 30 39.7216C33.5348 39.7179 36.9237 38.4291 39.4232 36.1379C41.9227 33.8467 43.3287 30.7402 43.3327 27.5ZM30 38.1103C27.7107 38.1103 25.4728 37.488 23.5693 36.3221C21.6658 35.1562 20.1823 33.4991 19.3062 31.5603C18.4301 29.6216 18.2009 27.4882 18.6475 25.43C19.0941 23.3718 20.1965 21.4812 21.8153 19.9973C23.4341 18.5134 25.4965 17.5029 27.7419 17.0935C29.9872 16.6841 32.3145 16.8942 34.4295 17.6973C36.5446 18.5004 38.3523 19.8603 39.6242 21.6052C40.896 23.35 41.5749 25.4014 41.5749 27.5C41.5714 30.313 40.3508 33.0099 38.1808 34.9991C36.0109 36.9882 33.0688 38.1071 30 38.1103ZM56.6949 33.0808C56.526 33.0396 56.3476 33.0451 56.1822 33.0967C56.0167 33.1482 55.8716 33.2435 55.7651 33.3705C55.6585 33.4974 55.5954 33.6505 55.5835 33.8103C55.5716 33.9701 55.6115 34.1295 55.6983 34.2686C55.785 34.4077 55.9147 34.5201 56.071 34.5917C56.2273 34.6634 56.4032 34.6911 56.5766 34.6713C56.75 34.6515 56.9132 34.5852 57.0455 34.4806C57.1779 34.3761 57.2736 34.2379 57.3205 34.0836C57.3216 34.08 57.3256 34.0659 57.3267 34.0622C57.3848 33.8553 57.351 33.6356 57.2325 33.4516C57.114 33.2675 56.9206 33.1341 56.6949 33.0808ZM57.2571 29.9078C57.026 29.8799 56.7923 29.9372 56.6073 30.0671C56.4223 30.1971 56.3012 30.389 56.2705 30.6008C56.27 30.6038 56.2681 30.6173 56.2678 30.6202C56.2403 30.832 56.3056 31.045 56.4492 31.2128C56.5928 31.3805 56.8031 31.4892 57.034 31.515C57.2649 31.5409 57.4976 31.4818 57.681 31.3507C57.8644 31.2195 57.9837 31.0271 58.0126 30.8156L57.1418 30.7066L58.0131 30.8123C58.0437 30.6005 57.9812 30.3862 57.8394 30.2165C57.6976 30.0469 57.4882 29.9359 57.2571 29.9078ZM21.6966 50.2968C21.6891 50.2942 21.6704 50.288 21.6628 50.2856C21.4416 50.2169 21.1997 50.231 20.9898 50.3249C20.7799 50.4187 20.6189 50.5847 20.5418 50.7867C20.4646 50.9888 20.4776 51.2106 20.5778 51.4039C20.678 51.5973 20.8574 51.7466 21.0771 51.8193C21.2967 51.8921 21.5388 51.8825 21.7507 51.7926C21.9627 51.7027 22.1273 51.5397 22.2089 51.3392C22.2906 51.1386 22.2825 50.9166 22.1866 50.7214C22.0907 50.5262 21.9146 50.3736 21.6966 50.2968ZM21.3312 51.1901L21.3357 51.1784L21.388 51.0512L21.3312 51.1901Z" fill="#293D7C"/>
<ellipse cx="38.6719" cy="51.5623" rx="0.9375" ry="0.859375" fill="#00947E"/>
<ellipse cx="38.6719" cy="3.43732" rx="0.9375" ry="0.859375" fill="#E74C3C"/>
<ellipse cx="35.2734" cy="2.68536" rx="0.9375" ry="0.859375" fill="#E74C3C"/>
<ellipse cx="31.875" cy="2.47052" rx="0.9375" ry="0.859375" fill="#E74C3C"/>
<ellipse cx="28.3594" cy="2.57794" rx="0.9375" ry="0.859375" fill="#E74C3C"/>
<ellipse cx="24.8438" cy="3.00763" rx="0.9375" ry="0.859375" fill="#E74C3C"/>
<ellipse cx="21.4453" cy="3.97443" rx="0.9375" ry="0.859375" fill="#E74C3C"/>
<ellipse cx="3.16406" cy="33.9451" rx="0.9375" ry="0.859375" fill="#FFCE31"/>
<ellipse cx="56.4844" cy="33.8377" rx="0.9375" ry="0.859375" fill="#FFCE31"/>
<ellipse cx="57.1875" cy="30.7225" rx="0.9375" ry="0.859375" fill="#FFCE31"/>
<ellipse cx="57.4219" cy="27.4998" rx="0.9375" ry="0.859375" fill="#FFCE31"/>
<ellipse cx="57.1875" cy="24.2772" rx="0.9375" ry="0.859375" fill="#FFCE31"/>
<ellipse cx="56.4844" cy="21.0545" rx="0.9375" ry="0.859375" fill="#FFCE31"/>
<ellipse cx="2.69531" cy="30.7225" rx="0.9375" ry="0.859375" fill="#FFCE31"/>
<ellipse cx="2.69531" cy="27.6072" rx="0.9375" ry="0.859375" fill="#FFCE31"/>
<ellipse cx="3.16406" cy="24.3846" rx="0.9375" ry="0.859375" fill="#FFCE31"/>
<ellipse cx="3.98438" cy="21.2693" rx="0.9375" ry="0.859375" fill="#FFCE31"/>
<ellipse cx="35.1562" cy="52.3142" rx="0.9375" ry="0.859375" fill="#00947E"/>
<ellipse cx="31.7578" cy="52.5291" rx="0.9375" ry="0.859375" fill="#00947E"/>
<ellipse cx="28.2422" cy="52.4216" rx="0.9375" ry="0.859375" fill="#00947E"/>
<ellipse cx="24.7266" cy="51.9919" rx="0.9375" ry="0.859375" fill="#00947E"/>
<ellipse cx="21.3281" cy="51.0251" rx="0.9375" ry="0.859375" fill="#00947E"/>
</svg>
