<svg width="56" height="55" viewBox="0 0 56 55" fill="none" xmlns="http://www.w3.org/2000/svg">
<path d="M54.25 4.29688H44.2925L42.7787 1.33203C42.706 1.19031 42.5948 1.07113 42.4573 0.9877C42.3199 0.904272 42.1616 0.859856 42 0.859375H36.75C36.5179 0.859375 36.2954 0.949916 36.1313 1.11108C35.9672 1.27224 35.875 1.49083 35.875 1.71875V8.59375H31.5V7.73438C31.5 7.50645 31.4078 7.28787 31.2437 7.12671C31.0796 6.96554 30.8571 6.875 30.625 6.875H25.375C25.1429 6.875 24.9204 6.96554 24.7563 7.12671C24.5922 7.28787 24.5 7.50645 24.5 7.73438V8.59375H20.125V5.15625C20.125 4.92833 20.0328 4.70974 19.8687 4.54858C19.7046 4.38742 19.4821 4.29688 19.25 4.29688H9.2925L7.77875 1.33203C7.70604 1.19031 7.59479 1.07113 7.45733 0.9877C7.31988 0.904272 7.16158 0.859856 7 0.859375H1.75C1.51794 0.859375 1.29538 0.949916 1.13128 1.11108C0.967187 1.27224 0.875 1.49083 0.875 1.71875V17.1875C0.875 17.4154 0.967187 17.634 1.13128 17.7952C1.29538 17.9563 1.51794 18.0469 1.75 18.0469H5.25V26.6406C5.25 26.8685 5.34219 27.0871 5.50628 27.2483C5.67038 27.4095 5.89294 27.5 6.125 27.5H14.875C15.1071 27.5 15.3296 27.4095 15.4937 27.2483C15.6578 27.0871 15.75 26.8685 15.75 26.6406V18.0469H19.25C19.4821 18.0469 19.7046 17.9563 19.8687 17.7952C20.0328 17.634 20.125 17.4154 20.125 17.1875V12.8906H24.5V13.75C24.5 13.9779 24.5922 14.1965 24.7563 14.3577C24.9204 14.5188 25.1429 14.6094 25.375 14.6094V19.7656H27.125V14.6094H28V30.0781H17.5C17.2679 30.0781 17.0454 30.1687 16.8813 30.3298C16.7172 30.491 16.625 30.7096 16.625 30.9375V46.4062C16.625 46.6342 16.7172 46.8528 16.8813 47.0139C17.0454 47.1751 17.2679 47.2656 17.5 47.2656H21V48.9844H17.5C17.2679 48.9844 17.0454 49.0749 16.8813 49.2361C16.7172 49.3972 16.625 49.6158 16.625 49.8438V53.2812C16.625 53.5092 16.7172 53.7278 16.8813 53.8889C17.0454 54.0501 17.2679 54.1406 17.5 54.1406H38.5C38.7321 54.1406 38.9546 54.0501 39.1187 53.8889C39.2828 53.7278 39.375 53.5092 39.375 53.2812V49.8438C39.375 49.6158 39.2828 49.3972 39.1187 49.2361C38.9546 49.0749 38.7321 48.9844 38.5 48.9844H35V47.2656H38.5C38.7321 47.2656 38.9546 47.1751 39.1187 47.0139C39.2828 46.8528 39.375 46.6342 39.375 46.4062V30.9375C39.375 30.7096 39.2828 30.491 39.1187 30.3298C38.9546 30.1687 38.7321 30.0781 38.5 30.0781H29.75V14.6094H30.625C30.8571 14.6094 31.0796 14.5188 31.2437 14.3577C31.4078 14.1965 31.5 13.9779 31.5 13.75V12.8906H35.875V17.1875C35.875 17.4154 35.9672 17.634 36.1313 17.7952C36.2954 17.9563 36.5179 18.0469 36.75 18.0469H40.25V26.6406C40.25 26.8685 40.3422 27.0871 40.5063 27.2483C40.6704 27.4095 40.8929 27.5 41.125 27.5H49.875C50.1071 27.5 50.3296 27.4095 50.4937 27.2483C50.6578 27.0871 50.75 26.8685 50.75 26.6406V18.0469H54.25C54.4821 18.0469 54.7046 17.9563 54.8687 17.7952C55.0328 17.634 55.125 17.4154 55.125 17.1875V5.15625C55.125 4.92833 55.0328 4.70974 54.8687 4.54858C54.7046 4.38742 54.4821 4.29688 54.25 4.29688ZM2.625 2.57812H6.4575L7.3325 4.29688H2.625V2.57812ZM14 25.7812H7V14.6094H11.7075L10.5962 16.8008C10.5389 16.9174 10.5091 17.0451 10.5091 17.1746C10.5091 17.3041 10.5389 17.4319 10.5962 17.5484C10.6516 17.6654 10.733 17.7686 10.8345 17.8504C10.936 17.9322 11.0549 17.9906 11.1825 18.0211L14.0175 18.7172L14 25.7812ZM12.6437 16.6117L13.0375 15.8469L13.4225 16.8094L12.6437 16.6117ZM18.375 16.3281H15.12L13.9388 13.432C13.9388 13.3891 13.9388 13.3461 13.8688 13.2945C13.7899 13.1707 13.6803 13.0686 13.5502 12.9979C13.42 12.9273 13.2737 12.8903 13.125 12.8906H6.125C5.89294 12.8906 5.67038 12.9812 5.50628 13.1423C5.34219 13.3035 5.25 13.5221 5.25 13.75V16.3281H2.625V6.01562H18.375V16.3281ZM24.5 11.1719H20.125V10.3125H24.5V11.1719ZM37.625 50.7031V52.4219H18.375V50.7031H37.625ZM22.75 48.9844V47.2656H33.25V48.9844H22.75ZM37.625 31.7969V45.5469H18.375V31.7969H37.625ZM29.75 12.8906H26.25V8.59375H29.75V12.8906ZM35.875 11.1719H31.5V10.3125H35.875V11.1719ZM37.625 2.57812H41.4575L42.3325 4.29688H37.625V2.57812ZM49 25.7812H42V14.6094H46.7075L45.5963 16.8008C45.5389 16.9174 45.5091 17.0451 45.5091 17.1746C45.5091 17.3041 45.5389 17.4319 45.5963 17.5484C45.6516 17.6654 45.733 17.7686 45.8345 17.8504C45.936 17.9322 46.0549 17.9906 46.1825 18.0211L49.0175 18.7172L49 25.7812ZM47.6438 16.6117L48.0375 15.8469L48.4225 16.8094L47.6438 16.6117ZM53.375 16.3281H50.12L48.9388 13.432L48.8687 13.2945C48.7899 13.1707 48.6803 13.0686 48.5502 12.9979C48.42 12.9273 48.2737 12.8903 48.125 12.8906H41.125C40.8929 12.8906 40.6704 12.9812 40.5063 13.1423C40.3422 13.3035 40.25 13.5221 40.25 13.75V16.3281H37.625V6.01562H53.375V16.3281Z" fill="#293D7C"/>
<path d="M20.125 44.6875H35.875C36.1071 44.6875 36.3296 44.597 36.4937 44.4358C36.6578 44.2746 36.75 44.056 36.75 43.8281V33.5156C36.75 33.2877 36.6578 33.0691 36.4937 32.908C36.3296 32.7468 36.1071 32.6562 35.875 32.6562H20.125C19.8929 32.6562 19.6704 32.7468 19.5063 32.908C19.3422 33.0691 19.25 33.2877 19.25 33.5156V43.8281C19.25 44.056 19.3422 44.2746 19.5063 44.4358C19.6704 44.597 19.8929 44.6875 20.125 44.6875ZM21 34.375H35V42.9688H21V34.375ZM47.25 54.1406C47.4821 54.1406 47.7046 54.0501 47.8687 53.8889C48.0328 53.7278 48.125 53.5092 48.125 53.2812C48.125 52.3696 47.7563 51.4952 47.0999 50.8506C46.4435 50.2059 45.5533 49.8438 44.625 49.8438C43.6967 49.8438 42.8065 50.2059 42.1501 50.8506C41.4937 51.4952 41.125 52.3696 41.125 53.2812C41.125 53.5092 41.2172 53.7278 41.3813 53.8889C41.5454 54.0501 41.7679 54.1406 42 54.1406H47.25ZM44.625 51.5625C44.9319 51.5628 45.2333 51.6424 45.499 51.7932C45.7647 51.944 45.9853 52.1609 46.1387 52.4219H43.1113C43.2647 52.1609 43.4853 51.944 43.751 51.7932C44.0167 51.6424 44.3181 51.5628 44.625 51.5625Z" fill="#E74C3C"/>
<path d="M27.125 21.4844H25.375V24.9219H27.125V21.4844Z" fill="#00947E"/>
<path d="M27.125 26.6406H25.375V28.3594H27.125V26.6406Z" fill="#00947E"/>
<path d="M47.25 19.7656H43.75V21.4844H47.25V19.7656Z" fill="#FFCE31"/>
<path d="M12.25 19.7656H8.75V21.4844H12.25V19.7656Z" fill="#FFCE31"/>
</svg>
