<svg width="53" height="54" viewBox="0 0 53 54" fill="none" xmlns="http://www.w3.org/2000/svg">
<path d="M49.125 14.4486L47.375 37.7589M7.125 21.621L19.375 10.8624L7.125 21.621ZM17.625 46.7244L7.125 28.7934L17.625 46.7244ZM33.375 27.0003L45.625 14.4486L33.375 27.0003ZM42.125 37.7589L33.375 32.3796L42.125 37.7589ZM8.875 27.0003L28.125 28.7934L8.875 27.0003ZM23.75 49.414L42.125 43.1382L23.75 49.414ZM30.75 6.20038L43.875 8.17274L30.75 6.20038Z" stroke="#293D7C"/>
<path d="M24.625 13.5518C28.0077 13.5518 30.75 10.742 30.75 7.27596C30.75 3.8099 28.0077 1 24.625 1C21.2423 1 18.5 3.8099 18.5 7.27596C18.5 10.742 21.2423 13.5518 24.625 13.5518Z" fill="#00947E" stroke="#00947E" stroke-miterlimit="0.6"/>
<path d="M5.375 29.6897C7.79125 29.6897 9.75 27.6827 9.75 25.207C9.75 22.7312 7.79125 20.7242 5.375 20.7242C2.95875 20.7242 1 22.7312 1 25.207C1 27.6827 2.95875 29.6897 5.375 29.6897Z" fill="#00947E" stroke="#00947E" stroke-miterlimit="0.6"/>
<path d="M20.25 53C22.183 53 23.75 51.3944 23.75 49.4138C23.75 47.4332 22.183 45.8276 20.25 45.8276C18.317 45.8276 16.75 47.4332 16.75 49.4138C16.75 51.3944 18.317 53 20.25 53Z" fill="#E74C3C" stroke="#F05542" stroke-miterlimit="0.6"/>
<path d="M30.75 33.2759C32.683 33.2759 34.25 31.6703 34.25 29.6897C34.25 27.7091 32.683 26.1035 30.75 26.1035C28.817 26.1035 27.25 27.7091 27.25 29.6897C27.25 31.6703 28.817 33.2759 30.75 33.2759Z" fill="#FFCE31" stroke="#F8B84E" stroke-miterlimit="0.6"/>
<path d="M44.75 44.0345C46.683 44.0345 48.25 42.4289 48.25 40.4483C48.25 38.4677 46.683 36.8621 44.75 36.8621C42.817 36.8621 41.25 38.4677 41.25 40.4483C41.25 42.4289 42.817 44.0345 44.75 44.0345Z" fill="#293D7C" stroke="#293D7C" stroke-miterlimit="0.6"/>
<path d="M47.375 15.3449C49.7912 15.3449 51.75 13.3379 51.75 10.8621C51.75 8.38639 49.7912 6.37939 47.375 6.37939C44.9588 6.37939 43 8.38639 43 10.8621C43 13.3379 44.9588 15.3449 47.375 15.3449Z" fill="#E74C3C" stroke="#F05542" stroke-miterlimit="0.6"/>
</svg>
