<?xml version="1.0" encoding="utf-8"?>
<!-- Generator: Adobe Illustrator 19.0.0, SVG Export Plug-In . SVG Version: 6.00 Build 0)  -->
<svg version="1.1" id="Layer_1" xmlns="http://www.w3.org/2000/svg" xmlns:xlink="http://www.w3.org/1999/xlink" x="0px" y="0px"
	 width="648px" height="431px" viewBox="313 -204 648 431" style="enable-background:new 313 -204 648 431;" xml:space="preserve">
<style type="text/css">
	.st0{fill:#D7D6F2;}
	.st1{fill:#111B2A;}
	.st2{fill:#FFFFFF;stroke:#111B2A;}
	.st3{fill:none;stroke:#111B2A;}
	.st4{fill:#FFFFFF;stroke:#111B2A;stroke-linejoin:round;}
	.st5{fill:none;stroke:#111B2A;stroke-width:2;stroke-linecap:round;}
	.st6{fill:none;stroke:#FFFFFF;}
	.st7{fill:#FFFFFF;}
	.st8{fill:#8072C1;}
	.st9{fill:#C6BDEF;}
	.st10{fill:#5F4CA4;}
	.st11{fill:#F7B036;}
	.st12{fill:#16A286;}
	.st13{fill:#FFB16D;}
</style>
<g id="Deal_with_customer">
	<path id="Rectangle" class="st0" d="M412,205h491l-60,22H352L412,205z"/>
	<g id="woman">
		<path id="Path" class="st1" d="M752.6-178c-7.2,0-13.6,2.4-17.6,6.1c-12.4-0.2-11.7,16.9-2,23.3c-0.1,0.8,11,21.2,23.3,21.2
			c12.2,0,22.2-10.7,22.2-23.9c0-5.1-1.5-9.9-4-13.8C772.6-172.4,763.5-178,752.6-178z"/>
		<path id="Path_2" class="st2" d="M734.2-167c0,0-4.6,4.2-4.6,13.1c0,8.9-1.3,11.6-1.3,11.6s-2.8,2.6-1.9,3.8
			c0.9,1.2,2.5,1.3,2.5,1.3l0.6,5.1c0.8,6,6,10.4,12,10.1l1.7,20.3l18.3-0.8l-2.3-24.6c0,0-2.9-6.3-2.9-11.4l2.9-0.5
			c2.9-0.5,4.6-3.7,3.5-6.4c-1.3-3-5.1-3.8-7.5-1.6l-2.4,2.3c0,0-10.1-1.5-14.9-8.5C732.9-160.3,734.2-167,734.2-167z"/>
		<path id="Oval" class="st1" d="M786.3-152.2c-6.9,0-12.5-5.8-12.5-12.9c0-7.1,5.6-12.9,12.5-12.9c6.9,0,12.5,5.8,12.5,12.9
			C798.8-158,793.2-152.2,786.3-152.2z"/>
		<path id="Path_99" class="st2" d="M729.2-54.8L722-43.2l-61.4,10.1c0,0-5.9-4.5-9.9-4.8l0.8,4.1L637-32.1c0,0,2.1,3.5,4.6,3.7
			c0.6,3.9,6.4,7.6,11.1,7.9c4.7,0.3,10.8-2.7,10.8-2.7l53.4,0.4c3.2,0,6.4-0.6,9.3-1.9c5-2.1,9.1-6,11.6-10.8l5.8-11.5L729.2-54.8z
			"/>
		<path id="Path_2_1_" class="st2" d="M754.4-108.9c0,0,11.8-0.3,19.4,7.2c2.1,2.1,4.6,14.7,2.9,28.4s-5,34-5,34s4,7.9,0,12.9h-45.6
			V-62c0,0-10.3-4.7-7.3-15.5c3-10.8,24.5-31.5,24.5-31.5H754.4z"/>
		<g id="Group_2">
			<path id="Path_15" class="st2" d="M755.3,190.8l1.1,11.5c0,0-3.5,5.4-8.9,5.4c-5.4,0-7.6-5.4-7.6-5.4l-1.4-13.1L755.3,190.8z"/>
			<path id="Path_16" class="st1" d="M756.4,200.9l2.1,12.3h-35.9l17.2-12.3c0,0,5.3,5.3,9.6,4.4
				C753.6,204.5,756.4,200.9,756.4,200.9z"/>
		</g>
		<g id="Group_2_Copy">
			<path id="Path_15_x5F_2" class="st2" d="M808.8,183.1l3.6,10.9c0,0-2.2,6-7.5,7.3c-5.3,1.2-8.6-3.6-8.6-3.6l-4.3-12.5
				L808.8,183.1z"/>
			<path id="Path_16_x5F_2" class="st1" d="M812.2,192.7l4.8,11.6l-24.9,8.6l-9.6,0.4c0,0,1.1-3.4,6.8-4.8c3-3.4,6.7-12,6.7-12
				s6.4,3.9,10.4,2.1C810.3,196.8,812.2,192.7,812.2,192.7z"/>
		</g>
		<path id="Path_3" class="st2" d="M772.3-27.3c0,0,14.7,20.1,17,50.2c2.3,30.1,3.5,67.4,3.5,67.4l24.4,92.9c0,0-10.7,6.7-24.4,6.7
			c0,0-23.3-63.3-27.5-77.7c-4.2-14.4-7.8-27.9-7.8-27.9v16.4l7.8,89.2c0,0-14.5,3.3-26.7,0c0,0-13.2-103.5-15.3-128.4
			c-2.1-24.9,3-91.2,3-91.2L772.3-27.3z"/>
		<path id="Path_103" class="st1" d="M765.5-99.5c0,0,7.9,6.7,6.8,23.5c-0.5,6.9-1.2,16.4-2,25.1c-1.3,14.5-10.2,27.2-23.4,33.4
			L724.7-7.2l0.9-13.5c0,0,15-5.1,22.1-20.2c7.1-15.1,10.7-50,10.7-50L765.5-99.5z"/>
		<path id="Rectangle_2" class="st2" d="M767.4-111.4c0-0.7-0.6-1.3-1.3-1.3H747c-3.6,0-6.4,2.9-6.4,6.4h26.8V-111.4z"/>
		<path id="Path_8" class="st1" d="M742-117.9l4.1-5.8l-4.5,1.3L742-117.9z"/>
		<path id="Path_9" class="st3" d="M758.2-145.4c0,0,1.1,3.1-1.8,4"/>
		<path id="Path_11" class="st3" d="M757.5,84.2V68.8l6.9-37.3c0,0,7.9-3.5,12.5-9.7"/>
		<path id="Path_12" class="st3" d="M735-29.5l-5.4,88c-0.2,3.5-0.2,6.9,0.2,10.4l11.7,121.5"/>
		<path id="Path_13" class="st3" d="M762.1,44.5c0,0-1.4,26.8,3.8,47.5c5.2,20.7,29.9,98.3,29.9,98.3"/>
		<path id="Path_99_x5F_2" class="st4" d="M744.8-58.7l-2.3,13.5l-53.9,31c0,0-6.3-0.7-10.2,0.6l-6.1,1.6c-0.6,0.2-1,0.7-1,1.3
			c0,0.8,0.7,1.4,1.5,1.4l7.8-0.6l-13.1,8.1c-0.7,0.4-0.9,1.3-0.4,1.9c0.4,0.6,1.1,0.8,1.7,0.5l8.6-3.9L670.6,3
			c-0.5,0.5-0.5,1.2-0.1,1.7c0.4,0.5,1.1,0.6,1.6,0.2l8.4-5l-5.2,6.1c-0.4,0.5-0.3,1.3,0.3,1.7c0.4,0.3,0.9,0.2,1.3-0.1l8-6.6L682,6
			c-0.3,0.6-0.2,1.3,0.4,1.7c0.4,0.3,1,0.3,1.4-0.1c1.7-1.3,5.8-4.7,7.6-6.6c2.2-2.4,3.8-5.2,3.8-5.2l50.3-20.3
			c2.9-1.2,5.6-2.9,7.8-5.2c3.9-3.9,6.2-9,6.7-14.5l1.1-12.8L744.8-58.7z"/>
		<path id="Path_4" class="st2" d="M744.9-91.2c0.6-7,6.8-12.1,13.7-11.4c6.6,0.7,11.6,6.4,11.2,13.1l-2,36.6l-25.9-1.3L744.9-91.2z
			"/>
		<path id="Path_20" class="st1" d="M761.8,99.5l1.8-62.9l-6.1,30.5v17.1L761.8,99.5z"/>
		<path id="Oval_2" class="st1" d="M733.2-146.7c-0.5,0-0.9-0.6-0.9-1.4c0-0.8,0.4-1.4,0.9-1.4c0.5,0,0.9,0.6,0.9,1.4
			C734.1-147.3,733.7-146.7,733.2-146.7z"/>
		<path id="Path_21" class="st5" d="M735.6-152.2c0,0-2.4-1.7-4.2,0"/>
		<path id="Path_22" class="st6" d="M735.9-149.5l20.5,2.8"/>
		<path id="Oval_3" class="st3" d="M731.8-141.2c-2.3,0-4.2-3.3-4.2-7.4s1.9-7.4,4.2-7.4c2.3,0,4.2,3.3,4.2,7.4
			S734.1-141.2,731.8-141.2z"/>
		<path id="Path_23" class="st1" d="M730.3-135.7l0.5,3.7c0,0,3.2-0.7,4.2-3.7H730.3z"/>
	</g>
	<g id="man">
		<g id="Group_2_x5F_2">
			<path id="Path_15_x5F_3" class="st2" d="M471.9,194.6l-1.1,11.5c0,0,3.5,5.4,9,5.4c5.4,0,7.6-5.4,7.6-5.4l1.4-13.1L471.9,194.6z"
				/>
			<path id="Path_16_x5F_3" class="st1" d="M470.8,204.8l-2.1,12.3h35.9l-17.2-12.3c0,0-5.3,5.3-9.6,4.4S470.8,204.8,470.8,204.8z"
				/>
		</g>
		<g id="Group_2_Copy_2">
			<path id="Path_15_x5F_4" class="st2" d="M531.1,194.6l1.7,11.5c0,0,3.5,5.4,9,5.4c5.4,0,7.6-5.4,7.6-5.4l-1.4-13.1L531.1,194.6z"
				/>
			<path id="Path_16_x5F_4" class="st1" d="M532.8,204.8l-2.1,12.3h35.9l-17.2-12.3c0,0-5.3,5.3-9.6,4.4S532.8,204.8,532.8,204.8z"
				/>
		</g>
		<path id="Path_99_x5F_3" class="st2" d="M496.7-74.8l-1.9,18.2l21.5,69c0,0,9.7-0.3,14.1,2.6l-4.2,3.9L540,32c0,0-5,2.2-7.7,0.4
			c-3.8,3.8-12.8,3.1-18-0.2c-5.2-3.4-9-11.4-9-11.4l-26.8-55.1c-5.4-9.8-7.2-21.2-5.1-32.2l2.1-11L496.7-74.8z"/>
		<path id="Path_37" class="st2" d="M479.1-41c0,0-7.9,21-7.9,39.5s-8.1,196.8-8.1,196.8h30.7l10.6-136.8l18.5,136.8h27.3l-10-192.7
			L533.8-41H479.1z"/>
		<g id="Group_37">
			<g id="Group_10">
				<path id="Path_32" class="st1" d="M505.7-142.6c-2.3-0.2-9-23.7-11.1-31.4c-2.1-7.7,0.4-17.2,6.7-14.8
					c0.8-8.4,24.4-14.3,36.2-4.6c11.8,9.7,2.6,19.6,2.6,19.6S508-142.4,505.7-142.6z"/>
				<path id="Path_3_1_" class="st2" d="M537-182.4c0,0,4.5,5,3.5,14.5c-1,9.5,0.1,12.5,0.1,12.5s2.7,3.1,1.6,4.3
					c-1.1,1.1-2.8,1.1-2.8,1.1l-1.9,9c-0.8,4-4.6,6.7-8.7,6.3l-4.7-0.5l-4,21.4l-19.5-2.9l5.3-26c0,0,3.9-6.4,4.4-11.8l-3-0.9
					c-3.1-0.9-4.5-4.4-3-7.2c1.7-3.1,5.9-3.5,8.2-0.9l2.4,2.7c0,0-0.5,5,1.6,4.9c2.1-0.1,1.9-9.5,2.7-9.9c3-1.2,9.3-1,13.4-6.2
					C536.5-177.1,537-182.4,537-182.4z"/>
				<path id="Path_8_x5F_2" class="st1" d="M523.2-131l-3.6-6.9c0,0,2.9,2.1,4.1,2.2C524.8-135.6,523.2-131,523.2-131z"/>
				<path id="Path_9_x5F_2" class="st3" d="M509.4-162.1c0,0-1.3,3.4,1.1,4.7"/>
				<path id="Oval_4" class="st1" d="M536-161.2c0.5,0.1,1-0.5,1.1-1.3c0.1-0.8-0.3-1.4-0.8-1.5c-0.5-0.1-1,0.5-1.1,1.3
					C535.1-161.9,535.5-161.2,536-161.2z"/>
				<path id="Path_21_x5F_2" class="st5" d="M533.8-167c0,0,2.8-1.4,4.6,0.5"/>
				<path id="Path_23_x5F_2" class="st1" d="M537.4-148.1l-0.9,3.6c0,0-3-1-3.7-4.1L537.4-148.1z"/>
			</g>
			<path id="Path_4_x5F_2" class="st2" d="M505.2-104.2c1.3-6.9-3.4-13.5-10.3-14.6c-6.6-1.1-12.8,3.2-14.2,9.8l-7.6,35.9l25.4,5.4
				L505.2-104.2z"/>
			<path id="Path_2_x5F_2" class="st2" d="M512.5-123.8c0,0-21.9,0.3-29.4,9.1c-7.5,8.7-4.2,40.2-4.2,40.2s-9,33.6,5.2,35.5
				l49.4,6.5l4-38l-0.5-29.1c-0.1-5-1.9-9.8-5.1-13.7l-7.6-9.2L512.5-123.8z"/>
			<path id="Path_10" class="st1" d="M512.1-93.3L522.6-46c1.8,8,6.6,15,13.5,19.4l-1.4-8.7l1.4-17.1L512.1-93.3z"/>
			<path id="Rectangle_3" class="st2" d="M499.1-128.5c0.1-0.7,0.8-1.3,1.5-1.2l19.8,2.1c4,0.4,7,4.1,6.6,8.1l-28.5-3L499.1-128.5z"
				/>
			<path id="Path_99_x5F_4" class="st2" d="M547.6-72.8l7.8,16l78,21.4c0,0,6.3-7.1,12.2-4.9l-0.4,5.3l16.2,12.9
				c0,0-1.4,2.2-4.6,2.1c-1.3,5-8.7,2.2-14.9,2c-6.2-0.2-13.7-5-13.7-5l-69.1-6.7c-4.1-0.4-8.1-1.7-11.8-3.7
				c-6.2-3.5-10.9-9-13.5-15.6l-6-15.7L547.6-72.8z"/>
			<g id="Path_101">
				<path class="st7" d="M657.7-35.6c-5-3.7-12.7-4.5-12.7-4.5l-10.8,7.4c-1,0.7-1.3,1.9-0.8,3c0.5,1.1,1.8,1.6,2.9,1.2l6.8-2.4
					c0,0,0.7,1.3,4.1,3.1c3.4,1.8,8.6,0.7,8.6,0.7"/>
				<path class="st3" d="M657.7-35.6c-5-3.7-12.7-4.5-12.7-4.5l-10.8,7.4c-1,0.7-1.3,1.9-0.8,3l0,0c0.5,1.1,1.8,1.6,2.9,1.2l6.8-2.4
					c0,0,0.7,1.3,4.1,3.1c3.4,1.8,8.6,0.7,8.6,0.7"/>
			</g>
			<path id="Path_100" class="st3" d="M555.7-57.1l-6.6,3.8"/>
			<path id="Path_4_x5F_3" class="st2" d="M533.8-106.2c-3-6.3-10.6-8.9-16.9-5.7c-6,3-8.5,10.2-5.8,16.3l15,33.5l23.7-10.5
				L533.8-106.2z"/>
			<path id="Path_102" class="st3" d="M656.8-19.9l-6.9-4.3"/>
			<path id="Path_102_Copy" class="st3" d="M653.3-17.4l-7.7-4.3"/>
		</g>
		<path id="Path_39" class="st3" d="M501.4,40.9l-11.8,154.5"/>
		<path id="Path_40" class="st3" d="M525.9-34.1l20.4,229.5"/>
		<path id="Path_41" class="st1" d="M493.8,13.9l7.6,75.8l3-30.2l-7.3-44.4L493.8,13.9z"/>
		<path id="Path_38" class="st3" d="M504.5,59.5l-7.3-44.4c0,0-11-2.9-14.8-12.4"/>
	</g>
	<g id="plant">
		<g id="Group_12_Copy">
			<path id="Path_51" class="st2" d="M668.1,161.6l6.6-33c0.8-4.2,0.1-8.6-2.1-12.3c-2.1-3.5-6-5.5-10.1-5.2l-0.6,0.1
				c-4,0.3-7.4,3-8.5,6.8c-1.2,4.1-1,8.5,0.8,12.4L668.1,161.6z"/>
			<path id="Path_96" class="st3" d="M665.2,125.4c0,0,4.5,52.6,6,65.7"/>
		</g>
		<g id="Group_12_Copy_2">
			<path id="Path_51_x5F_2" class="st2" d="M682.8,148l-6.6-33c-0.8-4.2-0.1-8.6,2.1-12.3c2.1-3.5,6-5.5,10.1-5.2l0.6,0
				c4,0.3,7.4,3,8.5,6.8c1.2,4.1,1,8.5-0.8,12.4L682.8,148z"/>
			<path id="Path_98" class="st3" d="M686.3,109.3c0,0-5.3,57.8-6.4,71.4"/>
		</g>
		<g id="Group_12_Copy_3">
			<path id="Path_51_x5F_3" class="st2" d="M669.7,130.6l-13.3-30.9c-1.7-4-1.9-8.4-0.5-12.5c1.3-3.9,4.7-6.7,8.8-7.2l0.6-0.1
				c4-0.5,7.8,1.4,9.8,4.9c2.1,3.7,2.7,8.1,1.8,12.3L669.7,130.6z"/>
			<path id="Path_95" class="st3" d="M666.6,91.6c0,0,6.4,76.7,7.7,98"/>
		</g>
		<g id="Group_12">
			<path id="Path_51_x5F_4" class="st2" d="M686.1,169.5l2.8-28.4c0.4-3.7,2.1-7,4.8-9.5c2.6-2.3,6.3-3,9.5-1.7l0.5,0.2
				c3.1,1.2,5.2,4.3,5.2,7.7c0,3.6-1.3,7.1-3.7,9.8L686.1,169.5z"/>
			<path id="Path_98_x5F_2" class="st3" d="M699.4,137c0,0-22,53.7-27,66.4"/>
		</g>
		<g id="Group_12_Copy_4">
			<path id="Path_51_x5F_5" class="st2" d="M663.9,169.5l-2.8-28.4c-0.4-3.7-2.1-7-4.8-9.5c-2.6-2.3-6.3-3-9.5-1.7l-0.5,0.2
				c-3.1,1.2-5.2,4.3-5.2,7.7c0,3.6,1.3,7.1,3.7,9.8L663.9,169.5z"/>
			<path id="Path_97" class="st3" d="M650.9,138c0,0,18.7,42.1,20.3,53.5"/>
		</g>
		<g id="Group_11">
			<path id="Rectangle_4" class="st2" d="M655,176h39v40h-39V176z"/>
			<path id="Path_43" class="st1" d="M655.2,181.6c3.3-3,6.4-2.5,9.4,1.5c5.3,7.1,12,9.9,17.4,6.2c-0.4,0.3,5.3-3.9,6.5-4.3
				c1.5-0.6,3-0.5,5.3,0.4l0.2-0.6c-2.5-1-4.1-1.1-5.8-0.4c-1.2,0.5-7.1,4.7-6.6,4.4c-5.2,3.5-11.5,0.8-16.6-6.1
				c-3.2-4.2-6.7-4.8-10.3-1.6L655.2,181.6z"/>
			<path id="Path_43_Copy" class="st1" d="M655.2,187.7c3.3-3,6.4-2.5,9.4,1.5c4.8,6.4,10.7,7.8,16.6,3.9c2-1.3,3.1-0.8,4.6,1.5
				c0.2,0.3,0.9,1.5,1.1,1.7c2,3.2,4,4.6,7.2,4.1l-0.1-0.6c-3,0.4-4.7-0.8-6.6-3.9c-0.1-0.2-0.9-1.4-1.1-1.7
				c-1.7-2.6-3.1-3.3-5.4-1.7c-5.6,3.7-11.2,2.4-15.8-3.8c-3.2-4.2-6.7-4.8-10.3-1.6L655.2,187.7z"/>
			<path id="Path_44" class="st1" d="M655.2,199.4c5.4-3.9,10.9-3.6,16.6,1c5.9,4.7,13.4,5.5,22.3,2.3l-0.2-0.6
				c-8.7,3.2-16,2.4-21.7-2.2c-5.9-4.8-11.8-5.1-17.4-1L655.2,199.4z"/>
			<path id="Path_45" class="st1" d="M694,186.9c-4.5-0.5-6.5,1-5.8,4.6c0.6,3.5,2.6,5.2,5.8,5.2v-0.6c-2.9,0-4.6-1.6-5.2-4.7
				c-0.6-3.1,1.1-4.3,5.2-3.8L694,186.9z"/>
			<path id="Path_46" class="st1" d="M655.1,190c2.7-1.3,3.9-1,3.9,0.7c0,1.9-1.4,3.7-4.2,5.5l0.3,0.5c3-1.9,4.5-3.9,4.5-6
				c0-2.3-1.7-2.7-4.8-1.2L655.1,190z"/>
			<path id="Path_47" class="st1" d="M655.2,204.1c3.7-3.7,7-3.5,10.1,0.5c5.6,7.3,10.2,10.4,14.7,9.2c1.9-0.5,2.3-1.5,2.1-3.2
				c0-0.1,0-0.2,0-0.3c-0.2-1-0.2-1.4,0.1-1.8c0.3-0.5,1.2-0.8,2.9-0.8c4.5,0,7.4,1,8.7,3l0.5-0.3c-1.5-2.2-4.5-3.2-9.2-3.2
				c-1.8,0-2.9,0.3-3.4,1c-0.4,0.5-0.4,1-0.2,2.2c0,0.1,0,0.2,0,0.3c0.2,1.5-0.1,2.1-1.7,2.5c-4.2,1.1-8.5-1.9-14-9
				c-3.3-4.3-7-4.4-11-0.5L655.2,204.1z"/>
			<path id="Path_48" class="st1" d="M665.4,176.2c4.4,7.6,14,9.1,28.7,4.7l-0.2-0.6c-14.5,4.4-23.8,2.9-28-4.4L665.4,176.2z"/>
			<path id="Path_49" class="st1" d="M655.1,207.7c5.1-2.8,10.1-0.1,15.3,8.5l0.5-0.3c-5.3-8.8-10.7-11.7-16.1-8.7L655.1,207.7z"/>
		</g>
	</g>
	<g id="list_card">
		<path id="Rectangle_Copy_14" class="st1" d="M339.1-106H493L476.9,73H323L339.1-106z"/>
		<path id="Rectangle_5" class="st2" d="M330.1-117H484L467.9,62H314L330.1-117z"/>
		<g id="Group_4">
			<path id="Rectangle_6" class="st8" d="M347.5-102h17.7l-1.6,17.5H346L347.5-102z"/>
			<path id="Rectangle_Copy_4" class="st9" d="M346-84.5h17.7L362.1-67h-17.7L346-84.5z"/>
			<path id="Rectangle_Copy_6" class="st8" d="M344.4-67h17.7l-1.6,17.5h-17.7L344.4-67z"/>
			<path id="Rectangle_Copy_5" class="st9" d="M342.8-49.5h17.7L359-32h-17.7L342.8-49.5z"/>
			<path id="Rectangle_Copy_8" class="st8" d="M341.3-32H359l-1.6,17.5h-17.7L341.3-32z"/>
			<path id="Rectangle_Copy_7" class="st9" d="M339.7-14.5h17.7L355.8,3h-17.7L339.7-14.5z"/>
			<path id="Rectangle_Copy_10" class="st8" d="M338.1,3h17.7l-1.6,17.5h-17.7L338.1,3z"/>
			<path id="Rectangle_Copy_9" class="st9" d="M336.6,20.5h17.7L352.7,38H335L336.6,20.5z"/>
		</g>
		<path id="Rectangle_7" class="st2" d="M376.1-102H461l-1.1,14H375L376.1-102z"/>
		<path id="Path_17_Copy_2" class="st3" d="M375-80.5h22"/>
		<path id="Path_17_Copy_4" class="st3" d="M374-72.5h55"/>
		<path id="Path_17_Copy_5" class="st3" d="M372-43.5h44"/>
		<path id="Path_17_Copy_6" class="st3" d="M372-35.5h76"/>
		<path id="Path_17_Copy_7" class="st3" d="M369-8.5h76"/>
		<path id="Path_17_Copy_8" class="st3" d="M368-0.5h44"/>
		<path id="Path_17_Copy_10" class="st3" d="M366,28.5h76"/>
		<path id="Path_17_Copy_9" class="st3" d="M365,36.5h44"/>
		<path id="Rectangle_Copy_11" class="st2" d="M374.1-66H459l-1.1,14H373L374.1-66z"/>
		<path id="Rectangle_Copy_12" class="st2" d="M371.1-30H456l-1.1,14H370L371.1-30z"/>
		<path id="Rectangle_Copy_13" class="st2" d="M368.1,6H453l-1.1,14H367L368.1,6z"/>
	</g>
	<g id="deal_icon">
		<g id="Group_39">
			<path id="Oval_5" class="st10" d="M402.8-92.3c19.3,0,36.6-15.3,38.4-34.2c1.9-18.9-12.3-34.2-31.6-34.2
				c-19.3,0-36.6,15.3-38.4,34.2C369.3-107.6,383.4-92.3,402.8-92.3z"/>
			<path id="Oval_Copy_12" class="st6" d="M436.2-126.5c-1.6,16.2-16.4,29.4-33,29.4c-16.6,0-28.7-13.1-27.1-29.3
				c1.6-16.2,16.4-29.4,33-29.4C425.7-155.8,437.8-142.7,436.2-126.5z"/>
			<path id="Path_104" class="st11" d="M391.4-137.8l-6.8,6.3l16.9,17.3c1.6,1.7,4.5,1.6,6.4-0.2l47.8-44.8l-5.9-6l-44.4,41.6
				L391.4-137.8z"/>
		</g>
	</g>
	<g id="list_card_copy">
		<path id="Rectangle_Copy_14_x5F_2" class="st1" d="M807.1-104H961L944.9,75H791L807.1-104z"/>
		<path id="Rectangle_8" class="st2" d="M798.1-115H952L935.9,64H782L798.1-115z"/>
		<g id="Group_4_x5F_2">
			<path id="Rectangle_9" class="st8" d="M815.5-100h17.7l-1.6,17.5H814L815.5-100z"/>
			<path id="Rectangle_Copy_4_x5F_2" class="st9" d="M814-82.5h17.7L830.1-65h-17.7L814-82.5z"/>
			<path id="Rectangle_Copy_6_x5F_2" class="st8" d="M812.4-65h17.7l-1.6,17.5h-17.7L812.4-65z"/>
			<path id="Rectangle_Copy_5_x5F_2" class="st9" d="M810.8-47.5h17.7L827-30h-17.7L810.8-47.5z"/>
			<path id="Rectangle_Copy_8_x5F_2" class="st8" d="M809.3-30H827l-1.6,17.5h-17.7L809.3-30z"/>
			<path id="Rectangle_Copy_7_x5F_2" class="st9" d="M807.7-12.5h17.7L823.8,5h-17.7L807.7-12.5z"/>
			<path id="Rectangle_Copy_10_x5F_2" class="st8" d="M806.1,5h17.7l-1.6,17.5h-17.7L806.1,5z"/>
			<path id="Rectangle_Copy_9_x5F_2" class="st9" d="M804.6,22.5h17.7L820.7,40H803L804.6,22.5z"/>
		</g>
		<path id="Rectangle_10" class="st2" d="M844.1-100H929l-1.1,14H843L844.1-100z"/>
		<path id="Path_17_Copy_2_x5F_2" class="st3" d="M843-78.5h22"/>
		<path id="Path_17_Copy_4_x5F_2" class="st3" d="M842-70.5h55"/>
		<path id="Path_17_Copy_5_x5F_2" class="st3" d="M840-41.5h44"/>
		<path id="Path_17_Copy_6_x5F_2" class="st3" d="M840-33.5h76"/>
		<path id="Path_17_Copy_7_x5F_2" class="st3" d="M837-6.5h76"/>
		<path id="Path_17_Copy_8_x5F_2" class="st3" d="M836,1.5h44"/>
		<path id="Path_17_Copy_10_x5F_2" class="st3" d="M834,30.5h76"/>
		<path id="Path_17_Copy_9_x5F_2" class="st3" d="M833,38.5h44"/>
		<path id="Rectangle_Copy_11_x5F_2" class="st2" d="M842.1-64H927l-1.1,14H841L842.1-64z"/>
		<path id="Rectangle_Copy_12_x5F_2" class="st2" d="M839.1-28H924l-1.1,14H838L839.1-28z"/>
		<path id="Rectangle_Copy_13_x5F_2" class="st2" d="M836.1,8H921l-1.1,14H835L836.1,8z"/>
	</g>
	<g id="deal_icon_copy">
		<g id="Group_39_x5F_2">
			<path id="Oval_6" class="st12" d="M870.8-90.3c19.3,0,36.6-15.3,38.4-34.2c1.9-18.9-12.3-34.2-31.6-34.2
				c-19.3,0-36.6,15.3-38.4,34.2C837.3-105.6,851.4-90.3,870.8-90.3z"/>
			<path id="Oval_Copy_12_x5F_2" class="st6" d="M904.2-124.5c-1.6,16.2-16.4,29.4-33,29.4c-16.6,0-28.7-13.1-27.1-29.3
				c1.6-16.2,16.4-29.4,33-29.4C893.7-153.8,905.8-140.7,904.2-124.5z"/>
			<path id="Path_104_x5F_2" class="st13" d="M859.4-135.8l-6.8,6.3l16.9,17.3c1.6,1.7,4.5,1.6,6.3-0.2l47.8-44.8l-5.9-6l-44.4,41.6
				L859.4-135.8z"/>
		</g>
	</g>
</g>
</svg>
