<?xml version="1.0" encoding="utf-8"?>
<!-- Generator: Adobe Illustrator 19.0.0, SVG Export Plug-In . SVG Version: 6.00 Build 0)  -->
<svg version="1.1" id="Layer_1" xmlns="http://www.w3.org/2000/svg" xmlns:xlink="http://www.w3.org/1999/xlink" x="0px" y="0px"
	 width="647.5px" height="425.4px" viewBox="626.5 -402.4 647.5 425.4" style="enable-background:new 626.5 -402.4 647.5 425.4;"
	 xml:space="preserve">
<style type="text/css">
	.st0{fill:#D7D6F2;}
	.st1{fill:#EAF0F9;}
	.st2{fill:none;stroke:#FFFFFF;stroke-linecap:round;}
	.st3{fill:none;stroke:#FFFFFF;}
	.st4{fill:#86D8FF;}
	.st5{fill:#A1E0FF;}
	.st6{fill:#00A7FF;}
	.st7{fill:#CCEEFF;}
	.st8{fill:#86D7FF;}
	.st9{fill:#FFB5B9;}
	.st10{fill:#F97A80;}
	.st11{fill:#0E143F;}
	.st12{fill:#021768;}
	.st13{fill:#DB2721;}
	.st14{fill:#60C9FF;}
	.st15{fill:#732213;}
	.st16{fill:#01B681;}
	.st17{fill:#134DBD;}
	.st18{fill:#FFAA0A;}
	.st19{fill:#5F4CA4;}
	.st20{fill:#FFFFFF;}
	.st21{fill:#F2FBFF;}
	.st22{fill:#C6DFF2;stroke:#FFFFFF;}
	.st23{fill:#FFFFFF;stroke:#00A7FF;}
	.st24{fill:none;stroke:#00A7FF;}
</style>
<g>
	<path class="st0" d="M751.3-106.1c-55.3,11-99.1-49-95.6-108C662-322.9,849.8-427.3,957-391.8c32.2,10.7,51.2,39.6,82.2,52.1
		c34.9,14.1,74.8,9.2,108.6,27.2c64.5,34.5,99.6,115.3,86.5,185C1187,124.6,1013.7-22.6,930.9-83.1
		C839.6-149.9,811.8-118.1,751.3-106.1z"/>
</g>
<ellipse class="st1" cx="950.1" cy="1.9" rx="294.1" ry="20.2"/>
<path class="st2" d="M784.6-279.9l1.2-3.7 M782.8-275.1l1.2-3.2 M781.1-270.4l1.2-3.2 M779.9-265.7l0.6-3.2 M779.9-260.9v-3.2
	 M779.9-255.7v-3.7 M779.9-250.4v-3.2"/>
<path class="st2" d="M964.5-176.9c37.6-2.6,44.4-49.1,43.1-72.1"/>
<path class="st2" d="M755.4-236l12.5,9.2l4.9-3.2l13,9.2l4.3-3.2l7.1,5.4 M755.4-230l10.9-3.2l8.7,12.4l13.6-15.1l8.7,2.7"/>
<path class="st2" d="M1144.7-236l8.8,10.1l4.2-4.8"/>
<circle class="st3" cx="1151.2" cy="-230.9" r="11.5"/>
<path class="st3" d="M1027.6-294c-0.4-0.9-0.9-3-1.1-3.9 M1030.9-289l-2.2-2.8 M1034.8-285.1l-2.2-2.2 M1039.3-281.7l-2.8-2.2
	 M1043.8-277.8l-2.8-2.2"/>
<path class="st3" d="M1016.1-310.9v7.7c0,1.6,1.3,2.9,2.9,2.9h14.8c1.6,0,2.9-1.3,2.9-2.9v-7.7c0-1.6-1.3-2.9-2.9-2.9H1019
	C1017.4-313.8,1016.1-312.5,1016.1-310.9z"/>
<path class="st3" d="M1016.1-312.6l10.3,5.5l10.3-5.5"/>
<path class="st2" d="M1118.5-236.3l3.7,3.3 M1112.1-240.7l4.3,2.7 M1105.2-244.5l3.7,2.2 M1055.4-287.4l-5.9,6 M1064.5-295.6l-5.9,6
	 M1074.7-302.6l-6.4,4.3 M1086.4-308.1l-8,3.3 M1146.3-261.9l2.7,7.1 M1140.5-272.2l3.2,6 M1134-281.4l3.2,4.3 M1126-290.7l4.3,4.9
	 M1118.5-297.2l4.3,3.3 M1099.8-247.2l3.2,1.6 M1093.9-249.9l3.7,1.6 M1088.1-251.6l3.7,1.1"/>
<path class="st4" d="M733.7-128c-1,0.1-1.7,0.9-1.6,1.9l4.6,74.6c0.1,0.9,0.8,1.6,1.8,1.6h49.8c0,0,0.1,0,0.1,0
	c1-0.1,1.7-0.9,1.6-1.9l-4.6-74.6c-0.1-0.9-0.8-1.6-1.8-1.6h-49.8C733.8-128,733.8-128,733.7-128z"/>
<path class="st5" d="M778.2-79.4V-8c0,1-0.8,1.8-1.8,1.8H772c-1,0-1.8-0.8-1.8-1.8v-71.5H778.2z"/>
<path class="st6" d="M782.6-53.1v5.7c0,1-0.8,1.8-1.8,1.8h-13.3c-1,0-1.8-0.8-1.8-1.8v-5.7H782.6z"/>
<path class="st7" d="M738.1-128c-1,0.1-1.7,0.9-1.6,1.9l4.6,74.6c0.1,0.9,0.8,1.6,1.8,1.6H790l-4.7-76.5c-0.1-0.9-0.8-1.6-1.8-1.6
	h-45.4C738.2-128,738.2-128,738.1-128z"/>
<path class="st4" d="M739.3-49.9h80.5c1,0,1.8-0.8,1.8-1.8v-5.3c0-1-0.8-1.8-1.8-1.8h-80.5V-49.9z"/>
<path class="st6" d="M782.6-7.5v-5.7c0-1-0.8-1.8-1.8-1.8h-13.3c-1,0-1.8,0.8-1.8,1.8v5.7H782.6z"/>
<path class="st8" d="M795.3-4.7c0,1.7-1.4,3.1-3.1,3.1h-36.1c-1.7,0-3.1-1.4-3.1-3.1c0-1.7,1.4-3.1,3.1-3.1h36.1
	C793.9-7.8,795.3-6.4,795.3-4.7z"/>
<path class="st9" d="M756.2-177.4l-1.3,19.1H772c1.8-3,1.8-5.7,0.1-8.2c-0.9-1.4-1.7-3.1-2.2-5.2c2.5-1.6,4.8-5.9,4.8-11v-7.4
	c0-6.4-5.3-11.6-11.9-11.6s-11.9,5.2-11.9,11.6c0.2,1.5,0.5,3.2,0.8,5.1c-1.1,1-1.5,2.6-1,4.2c0.6,1.6,2.1,2.7,3.8,2.7
	C754.6-178.1,756-177.5,756.2-177.4z"/>
<path class="st10" d="M771.1-183.7c1,0.2,1.5,0.5,1.5,1.2c0,0.6-0.6,1.2-1.7,1.9c-0.2,0.1-0.5,0.1-0.6-0.2c-0.1-0.2-0.1-0.5,0.2-0.6
	c0.9-0.5,1.3-0.9,1.3-1.1c0-0.1-0.3-0.2-1.2-0.4c-0.2,0-0.4-0.2-0.4-0.4v-3.4c0-0.2,0.2-0.4,0.4-0.4c0.2,0,0.4,0.2,0.4,0.4V-183.7z"
	/>
<path class="st10" d="M765.3-180.2c0.2,0,0.5,0.1,0.5,0.4c0.2,1.4,1.1,2,3,1.8c0.2,0,0.5,0.1,0.5,0.4c0,0.2-0.1,0.5-0.4,0.5
	c-2.3,0.3-3.7-0.5-4-2.5C764.9-179.9,765.1-180.2,765.3-180.2z"/>
<path class="st11" d="M765.8-190.1c-0.1-0.4-1.1-0.3-2.2,0.2c-1.1,0.5-1.9,1.2-1.8,1.5c0.1,0.4,1.1,0.3,2.2-0.2
	C765.1-189,765.9-189.7,765.8-190.1z M775.1-188.4c0.1-0.4-0.8-0.9-2.1-1.2c-1.2-0.3-2.3-0.3-2.3,0.1c-0.1,0.4,0.8,0.9,2.1,1.2
	C774-188,775-188,775.1-188.4z M766.7-185.7c0-0.4-0.3-0.7-0.7-0.7c-0.4,0-0.7,0.3-0.7,0.7c0,0.4,0.3,0.7,0.7,0.7
	C766.4-185,766.7-185.3,766.7-185.7z M773.8-185.7c0-0.4-0.3-0.7-0.7-0.7c-0.4,0-0.7,0.3-0.7,0.7c0,0.4,0.3,0.7,0.7,0.7
	C773.5-185,773.8-185.3,773.8-185.7z M756.7-183.5c0.7-0.1,1.2-2.2,1.4-6.3c0.4,0,0.9-0.2,1.4-0.8c0.6-0.6,1.1-1.7,1.5-3.4
	c7,1.1,12.1,1.1,15.4,0c6.2-2.2,9.7-5.7,8.5-8.2c-0.8-1.6-3.7-2.1-8.8-1.3c1.9-2.8,1-4.1-2.7-4c-3.2,0.1-11.1,4-15.5,4.3
	c-2.9,0.2-4.6,1.8-5,4.6c-1.8,0.8-2.8,2.6-2.9,5.6c-0.1,1.9,0.3,4.6,1.5,8.1c0.8-0.8,1.6-0.6,1.8-0.5
	C754.9-184.9,755.7-183.3,756.7-183.5z"/>
<path class="st10" d="M755.7-181.9c-0.2,0.2-0.4,0.2-0.6,0c-1-1-1.6-0.9-2,0.2c-0.1,0.2-0.4,0.3-0.6,0.2c-0.2-0.1-0.3-0.3-0.2-0.6
	c0.7-1.7,2-1.9,3.5-0.5C755.9-182.3,755.9-182,755.7-181.9z"/>
<path class="st10" d="M769.8-171.7c0.1,0.2,0.1,0.5-0.1,0.6c-1.3,1-2.5,1.4-3.6,1.2c-1-0.2-3.2-1.2-6.6-3c-0.2-0.1-0.3-0.4-0.2-0.6
	c0.1-0.2,0.4-0.3,0.6-0.2c3.3,1.7,5.5,2.7,6.4,2.9c0.8,0.2,1.8-0.2,2.9-1C769.4-172,769.6-171.9,769.8-171.7z"/>
<path class="st9" d="M828.1-28.7c0.9,7.1,1.8,14.8,2.3,23.1l6.4,0.4c1.9-11.4,3.3-19.7,4.1-24.7C846.9-67.9,825.7-47.3,828.1-28.7z
	 M805.3-29.3c1.2,7.1,2.3,14.8,3.1,23l6.4,0.2c1.5-11.5,2.6-19.8,3.2-24.8C822.8-69.1,802.3-47.8,805.3-29.3z"/>
<path class="st12" d="M825.5-74.1c-2.2,19.1,0.6,16.5,3.2,60.1c2.1,1,4.1,1.5,6.1,1.4c2-0.1,3.8-0.8,5.4-2.1
	c5.7-49.1,5.9-75.5,0.7-79c-5.2-3.5-25.7-4-61.3-1.4c-22.8-4-34-3-33.5,2.9c0.5,6,0.1,33.2,25.8,33.2c12.3,0,21-1.2,28.7-3.5
	c-1.1,11.7,2.8,20.1,5.7,48.9c2.3,0.8,4.1,1.2,5.5,1.2c1.4,0,2.8-0.4,4.2-1.2c3.7-27.1,5.5-46.4,4.9-57.9
	C822.4-72.2,823.8-73.1,825.5-74.1z"/>
<path class="st12" d="M806.7-1.3h20.9c0.5-1,0.1-1.8-1.1-2.5c-1.2-0.7-5.1-2.4-11.6-5.2c-0.3,1-1,1.5-2.1,1.5
	c-1.6,0-5.4-2.4-6.2-1.6C806.2-8.5,806.2-5.9,806.7-1.3z M829.2-1.3h20.9c0.5-1,0.1-1.8-1.1-2.5c-1.2-0.7-5.1-2.4-11.6-5.2
	c-0.3,1-1,1.5-2.1,1.5c-1.6,0-5.4-2.4-6.2-1.6C828.6-8.5,828.6-5.9,829.2-1.3z"/>
<path class="st11" d="M820.8-67.1c-0.2,0-0.4-0.2-0.4-0.5c0.6-6.2,0.9-10.7,0.9-13.6c0-2.5-7-5-20.8-7c-0.2,0-0.4-0.3-0.4-0.5
	c0-0.2,0.3-0.4,0.5-0.4c14.4,2.1,21.5,4.6,21.5,7.9c0,2.9-0.3,7.5-0.9,13.7C821.3-67.3,821.1-67.1,820.8-67.1z"/>
<path class="st9" d="M796-119.5c-1,0.3-0.3,5.8,1,5.1c0.5-0.3,1.8-0.5,3.9-0.6c1.5,1.8,3.1,3.1,4.8,3.9c2.6,1.2,3.9,1.9,4.3,1.4
	c0.4-0.5-3.2-2.9-2.7-2.7c1.5,0.5,4.9,2.1,5.3,1.4c0.3-0.5-1.2-1.6-4.5-3.4c4,1.3,6.1,1.7,6.2,1.1c0.2-0.9-4.7-2.8-5.2-3.2
	c0.7-0.2,5,0.9,4.9-0.3c0-0.6-2.7-1.7-8-3.2c2.4-2.2,3.3-3.3,2.5-3.4c-0.8-0.1-3.6,1-7.3,3C798.9-120.2,797.2-119.8,796-119.5z
	 M841.2-157.3l3.6-5c2.8-0.4,6.5-0.5,8.2-1.2c1.7-0.7,6.7-4.2,6-4.9c-0.9-0.9-5.2,0.6-7.8,1.1c-1.8,0.4-2.2-0.4-3.2-0.2
	c1.3-3.1,1.5-4.5,0.8-4.2c-0.7,0.2-2.2,1.4-5.3,4.6c-1.6,1-3.7,3.4-6.2,7.1L841.2-157.3z"/>
<path class="st13" d="M815.7-126.7c4.6,0.1,14.3-11.2,29.2-33.7c-2.3-3.9-4.2-5-5.7-3.5c-12.4,13.2-21.1,15.4-23.5,22.6
	c-6.1-6.1-23.9-17.8-32.5-21.8c-0.1-0.1-0.3-0.1-0.5-0.2c-1.6-0.7-2.9-1.1-3.7-1.1c-1.2-0.3-3.4-0.7-6.6-1.2c0.1,0.8-1.9-3.5-2-2.9
	c-0.3,1.7-0.3,6.9-1.8,7.4c-1.5,0.5-10-5.1-12.6-6.7c-1.1-0.7-0.3,0.7-0.7,2.2c-6.1,2.1-10.4,3.7-13.1,4.8c-0.6,0.2-1.3,0.5-2,0.9
	c-0.4,0.2-0.7,0.4-0.9,0.5c-0.2,0.1-0.4,0.3-0.6,0.4c-0.7,0.4-1.4,0.9-2.1,1.5c-5.8,4.3,7,43.9,9.2,50.7c0.2,0.7,0.9,1.1,1.9,1.4
	c-1,7.4-2.9,15.7-1.2,16.9c4.2,3,30.7,4.7,31.7,0c2.1,3,14.2-1.2,15.1-3.2c2.5-6.1-0.5-10.8-2.3-20.2c2.8-0.7,5.6-1.3,8.3-1.9
	c0.9-4.5,0.3-6.6-1.9-6.5c-2.4,0.1-4.9,0.2-7.2,0.2c0-5,0.7-11,0.8-17.2C801.3-131.7,812.3-126.8,815.7-126.7z"/>
<path class="st11" d="M798.8-114.4c0.8-4,0.2-5.8-1.5-5.7c-6,0.3-11.4,0.2-20.1-0.3c-11.7-0.7-14.6-0.7-17.3,0.3
	c-0.3,0.1-0.6-0.1-0.6-0.4c-0.5-5.3-1.2-10.4-2.1-15.2c0-0.2,0.1-0.5,0.3-0.5c0.2,0,0.5,0.1,0.5,0.4c0.9,4.6,1.6,9.6,2,14.7
	c2.7-0.8,5.9-0.8,17.1-0.1c8.6,0.5,14,0.6,20,0.3c2.6-0.1,3.3,2.4,2.3,7.1c0,0.2-0.2,0.3-0.3,0.4c-0.5,0.1-2.1,0.5-2.2,0.5
	c-0.9,0.2-1.6,0.4-2.3,0.5c-1.7,0.4-3.2,0.7-4.6,1.1c-2,0.5-3.8,0.9-5.6,1.3c-25.3,5.7-38,7.3-39.3,3.4c-0.1-0.2,0.1-0.5,0.3-0.6
	c0.2-0.1,0.5,0.1,0.6,0.3c0.5,1.6,4.8,1.9,12.4,1c6.4-0.8,14.7-2.4,25.9-4.9c1.8-0.4,3.6-0.8,5.6-1.3c1.4-0.3,2.9-0.7,4.6-1.1
	c0.7-0.2,1.4-0.3,2.3-0.5C796.9-114,798.1-114.2,798.8-114.4z"/>
<path class="st11" d="M790.3-141.2c0.1,3.5,0,6.7-0.3,12.4l-0.1,1c0,0.4,0,0.7-0.1,1c0,0.3,0.2,0.5,0.4,0.5c0.2,0,0.4-0.2,0.5-0.4
	c0-0.3,0-0.6,0.1-1l0.1-1c0.3-5.8,0.4-8.9,0.3-12.5c-0.2-7.3-1.5-13.1-4.3-18.1c-0.1-0.2-0.4-0.3-0.6-0.2c-0.2,0.1-0.3,0.4-0.2,0.6
	C788.8-154,790-148.3,790.3-141.2z M791.5-107.4c0.2,0.9,1.2,4.4,1.4,5.3c0.5,1.8,0.7,3.2,0.8,4.4c0,0.3,0.2,0.4,0.5,0.4
	c0.2,0,0.4-0.2,0.4-0.5c-0.1-1.3-0.4-2.7-0.8-4.6c-0.2-0.8-1.2-4.4-1.4-5.3c-0.1-0.2-0.1-0.5-0.2-0.7c-0.1-0.2-0.3-0.4-0.5-0.3
	c-0.2,0.1-0.4,0.3-0.3,0.6C791.4-107.9,791.4-107.7,791.5-107.4z"/>
<path class="st11" d="M795.6-112.5c-0.2,0-0.5-0.1-0.5-0.4l-0.6-4.5c0-0.2,0.1-0.5,0.4-0.5c0.2,0,0.5,0.1,0.5,0.4l0.6,4.5
	C796-112.8,795.8-112.5,795.6-112.5z"/>
<path class="st11" d="M842.9-157c-0.2,0.2-0.4,0.2-0.6,0.1l-2.8-2.4c-0.2-0.2-0.2-0.4-0.1-0.6c0.2-0.2,0.4-0.2,0.6-0.1l2.8,2.4
	C843.1-157.4,843.1-157.2,842.9-157z"/>
<path class="st11" d="M778.2-108.7c0-0.3-0.2-0.5-0.4-0.4c-0.2,0-0.4,0.2-0.4,0.5c0.1,3.5,0.1,10.1,0.2,19.6c0,0.3,0.2,0.5,0.4,0.4
	c0.2,0,0.4-0.2,0.4-0.5C778.3-98.7,778.3-105.2,778.2-108.7z M776.4-140.4c-1.2-5.7-3.4-12.4-6.7-20c-0.1-0.2-0.4-0.3-0.6-0.2
	c-0.2,0.1-0.3,0.4-0.2,0.6c3.2,7.5,5.4,14.1,6.6,19.8c0.6,3.1,1.1,9.6,1.5,19.5c0,0.3,0.2,0.4,0.5,0.4c0.2,0,0.4-0.2,0.4-0.5
	C777.6-130.7,777.1-137.3,776.4-140.4z"/>
<path class="st12" d="M780.7-135.5c-1.3-5.3-4.1-12.3-8.7-21.1l0.7-4.6l-1.1-0.5l-2.2,1.5l-4,0.6l4.7,3.9c2.5,9.8,3.8,17.4,4,22.8
	c0.1,3.3,0.1,7.4-0.2,12.3l9.4,0.3C782.4-126.9,781.6-131.9,780.7-135.5z M784.6-110.6l-10,2l4.8,6.5l5.2-8.3
	C784.6-110.5,784.6-110.6,784.6-110.6L784.6-110.6z"/>
<path class="st11" d="M765.1-159.3l-3.4,5.2c-0.2,0.3-0.6,0.3-0.8,0l-6.2-11.8c-0.1-0.1-0.1-0.2,0-0.4l0.6-1.6
	c0.1-0.2,0.3-0.4,0.6-0.3c0.2,0.1,0.3,0.3,0.3,0.6l-0.5,1.4l5.8,11l3.1-4.7c0.1-0.1,0.2-0.2,0.3-0.2l4.5-0.4c0.2,0,0.5,0.2,0.5,0.4
	c0,0.2-0.2,0.5-0.4,0.5L765.1-159.3z"/>
<path class="st11" d="M774.9-160.7l-4.5-7.6c-0.1-0.2-0.1-0.5,0.1-0.6c0.2-0.1,0.5-0.1,0.6,0.1l5.3,8.9c0.2,0.4-0.2,0.8-0.6,0.6
	l-4.2-2.1l-2.1,1.5c-0.2,0.1-0.5,0.1-0.6-0.1c-0.1-0.2-0.1-0.5,0.1-0.6l2.3-1.6c0.1-0.1,0.3-0.1,0.4,0L774.9-160.7z"/>
<path class="st11" d="M760.2-135.9l0.5,2c0.1,0.2-0.1,0.5-0.3,0.5c-0.2,0.1-0.5-0.1-0.5-0.3l-0.6-2.4c-0.1-0.2,0.1-0.5,0.3-0.5
	l9.6-3.1c0.3-0.1,0.5,0.1,0.6,0.4l1.4,7.9c0,0.1,0,0.2,0,0.3l-3.2,6c-0.1,0.2-0.3,0.3-0.5,0.2l-5.6-2.3c-0.1-0.1-0.2-0.2-0.3-0.3
	l-0.9-3.6c-0.1-0.2,0.1-0.5,0.3-0.6c0.2-0.1,0.5,0.1,0.5,0.3l0.9,3.4l5,2.1l2.9-5.5l-1.3-7.3L760.2-135.9z"/>
<path class="st8" d="M871.8-94.6c0-1,0.8-1.8,1.8-1.8h2.6c0.8,0,1.6,0.6,1.7,1.4l16.9,91.3c0,0.1,0,0.2,0,0.3c0,1-0.8,1.8-1.8,1.8
	h-2.6c-0.8,0-1.6-0.6-1.7-1.4l-16.9-91.3C871.8-94.4,871.8-94.5,871.8-94.6z"/>
<path class="st8" d="M849.8-94.6c0-1,0.8-1.8,1.8-1.8h2.6c0.8,0,1.6,0.6,1.7,1.4l16.9,91.3c0,0.1,0,0.2,0,0.3c0,1-0.8,1.8-1.8,1.8
	h-2.6c-0.8,0-1.6-0.6-1.7-1.4l-16.9-91.3C849.8-94.4,849.8-94.5,849.8-94.6z"/>
<path class="st8" d="M703-94.6c0-1-0.8-1.8-1.8-1.8h-2.6c-0.8,0-1.6,0.6-1.7,1.4L680-3.7c0,0.1,0,0.2,0,0.3c0,1,0.8,1.8,1.8,1.8h2.6
	c0.8,0,1.6-0.6,1.7-1.4l17-91.3C703-94.4,703-94.5,703-94.6z"/>
<path class="st8" d="M729.4-94.6c0-1-0.8-1.8-1.8-1.8h-2.6c-0.8,0-1.6,0.6-1.7,1.4l-17,91.3c0,0.1,0,0.2,0,0.3c0,1,0.8,1.8,1.8,1.8
	h2.6c0.8,0,1.6-0.6,1.7-1.4l16.9-91.3C729.4-94.4,729.4-94.5,729.4-94.6z"/>
<path class="st14" d="M895.2-92.4H679.6V-103h215.6V-92.4z"/>
<path class="st9" d="M1080.8-30.5c-0.9,7.1-1.8,14.8-2.3,23l-6.4,0.4c-1.9-11.4-3.3-19.6-4.1-24.6
	C1061.9-69.6,1083.2-49,1080.8-30.5z M1112.4-31.1c-1.2,7.1-2.3,14.7-3.1,22.9l-6.4,0.2c-1.5-11.5-2.6-19.7-3.2-24.7
	C1094.9-70.8,1115.4-49.5,1112.4-31.1z"/>
<path class="st12" d="M1083.2-75.7c4.2,17.2-0.6,16.6-3.2,60.3c-2.1,1-4.1,1.5-6.1,1.4c-2-0.1-3.8-0.8-5.4-2.1
	c-5.7-49.2-5.9-75.6-0.7-79.1c5.2-3.5,25.7-4,61.4-1.4c22.9-4,34-3,33.6,2.9c-0.5,6-0.1,33.3-25.8,33.3c-7.8,0-14.2-0.5-19.7-1.4
	c0.5,10.8-3.1,19.8-5.9,46.9c-2.3,0.8-4.1,1.2-5.5,1.2c-1.4,0-2.8-0.4-4.2-1.2c-3.3-23.9-4.8-41.7-4.7-53.4
	C1092.6-70.4,1088.2-72.8,1083.2-75.7z"/>
<path class="st11" d="M1096.4-70.7c-0.1,0.2,0,0.5,0.2,0.6c7.9,4.4,12.5,6.5,18.6,7.9c0.2,0.1,0.5-0.1,0.5-0.3s-0.1-0.5-0.3-0.5
	c-6-1.4-10.5-3.5-18.4-7.9C1096.7-71,1096.5-70.9,1096.4-70.7z"/>
<path class="st12" d="M1110.9-2.9h-20.9c-0.5-1-0.1-1.8,1.1-2.5c1.2-0.7,5.1-2.4,11.6-5.2c0.3,1,1,1.5,2.1,1.5
	c1.6,0,5.4-2.4,6.2-1.6C1111.4-10.1,1111.4-7.5,1110.9-2.9z M1079.6-2.9h-20.9c-0.5-1-0.1-1.8,1.1-2.5c1.2-0.7,5.1-2.4,11.6-5.2
	c0.3,1,1,1.5,2.1,1.5c1.6,0,5.4-2.4,6.2-1.6C1080.2-10.1,1080.2-7.5,1079.6-2.9z"/>
<path class="st9" d="M1140.3-169.1c-3.2-0.3-4-5.4-4-11.8v-7.4c0-6.4,5.3-11.6,11.9-11.6c6.6,0,11.9,5.2,11.9,11.6
	c-1,2.6-1.7,5.5-2.2,8.6c-0.2,1.2-1.1,2.4-2.5,3.6c2.1,9.6,3.2,16.4,3.4,20.4c-3.3,5.4-14.3,3.4-17.2,0.1c-2.9-3.3-0.6-7.3-0.1-8.3
	c0.2-0.5,0.2-2.3,0-5.3C1141-169.1,1140.6-169.1,1140.3-169.1z"/>
<path class="st10" d="M1142.2-166.8c0.1-1.9,0.1-3.2,0.1-4.1c0-0.4,0-0.7,0-0.9c0,0,0-0.1,0-0.1c0,0,0,0,0-0.1c0-0.1,0-0.1-0.2-0.3
	c-0.5,0-0.5,0-0.6,0.1c0,0.1,0,0.1-0.1,0.1c0,0,0,0.1,0,0.1c-0.1,0.5-0.1,2.2-0.1,5C1141.3-166.2,1142.2-166.2,1142.2-166.8z"/>
<path class="st15" d="M1161-191c-0.1-2.9-1.1-4.8-2.9-5.6c-0.4-2.8-2-4.4-5-4.6c-4.4-0.4-18.2,1.4-20.5,2.6c-2.3,1.2-4.2,4.4,2,6.5
	c0.7,0.2,1.5,0.4,2.4,0.6c2.1,0.3,1.7,4.3,1.6,7c-0.1,0.7-2.6,8-2.6,8.4c0,0.2,0,9.3,1.6,9.7c1.1,0.3,2.4,0.1,3.9-0.4
	c-0.1-2.4-0.1-3.7,0-3.9c0-0.1-1.4-4.9-2.1-8.1c-0.3-1.6-0.2-2.9-0.1-2.9c0.3-1.4,0.6-4.5,4-3.1c3.4,1.5,2.1,8.9,3.2,10.5
	c0.7,1.1,3.9,1.2,9.5,0.4C1159.4-182.4,1161.1-188.1,1161-191z"/>
<path class="st10" d="M1140.1-181.5c0.2,0.2,0.4,0.2,0.6,0c1-1,1.6-0.9,2,0.2c0.1,0.2,0.3,0.3,0.6,0.2c0.2-0.1,0.3-0.3,0.2-0.6
	c-0.7-1.7-2-1.9-3.5-0.5C1139.9-182,1139.9-181.7,1140.1-181.5z"/>
<path class="st9" d="M1078.2-97.4c-1.3,0.7-3.7-0.5-5.2,0.1c-2.5,1-3.9,3.7-4.4,3.7c-2.2-0.1,1.9-7,4.2-8.9c2.3-1.9,3.3-1.1,7.2-1.5
	c1.3-0.2,4.7-1.2,10.1-3l0,5.7l-8.5,1.5C1081.3-99.9,1079.7-98.1,1078.2-97.4z"/>
<path class="st16" d="M1141.4-164.1c-0.2,3.1,12.5,3.8,16.1,0.4c8.1,3,12.8,4.9,14.2,5.8c1.8,1.2,2.9,2.4,3.4,3.8
	c4.2,8.2,3,46.4-0.7,51c-1.2,1.5-5.3,2.3-10.5,2.7c1,6.3,2.1,12.3,0.6,13.4c-6.8,5-13.9,8.5-25.6,5.2c-11.7-3.3-23.5-15.6-22.6-17.9
	c1.1-3,4.6-4.1,5.5-10.7c0-0.2,0-0.3,0.1-0.5c-0.3,0.2-0.5,0.4-0.8,0.5c-0.3,0.2-21.9,10.2-39.6,11.1c-1.9-4-2.5-6.9-0.9-7.7
	c11.8-6.5,17.5-11.2,26.9-14.2c2.7-3.7,16.4-38,20.6-40c0.1,0,0.2-0.1,0.3-0.1C1130.5-162.8,1134.8-163.7,1141.4-164.1z M1163.6-115
	C1163.6-115,1163.6-115.1,1163.6-115C1163.7-115.1,1163.6-115.1,1163.6-115C1163.6-115.1,1163.6-115.1,1163.6-115z"/>
<path class="st11" d="M1121.5-110.1c0.1,0.2,0.4,0.3,0.6,0.2c1.6-1,2.6-2,3.1-3.2c0.8-2,5.7-18.4,7-24.1c0.1-0.2-0.1-0.5-0.3-0.5
	c-0.2-0.1-0.5,0.1-0.5,0.3c-1.3,5.7-6.1,22-6.9,24c-0.4,1-1.3,1.9-2.8,2.8C1121.5-110.6,1121.4-110.3,1121.5-110.1z"/>
<path class="st11" d="M1164.7-96.6c-2.2-10-1.8-17.7,1.1-23c3-5.4,5.5-11.3,7.6-17.6c0.1-0.2,0-0.5-0.3-0.6c-0.2-0.1-0.5,0-0.6,0.3
	c-2.1,6.3-4.6,12.1-7.5,17.5c-3,5.5-3.4,13.4-1.1,23.6l0,0c1.5,4.4,1.5,7.6,0.1,9.6c-1.4,2-7.1,4-17,5.9c-0.2,0-0.4,0.3-0.4,0.5
	c0,0.2,0.3,0.4,0.5,0.4c10.1-1.9,15.9-3.9,17.5-6.2C1166.3-88.5,1166.3-92,1164.7-96.6z"/>
<path class="st11" d="M1086.8-100c0.2-0.1,0.3-0.4,0.2-0.6l-2.2-5.8c-0.1-0.2-0.3-0.3-0.6-0.3c-0.2,0.1-0.3,0.4-0.2,0.6l2.2,5.8
	C1086.3-100,1086.6-99.9,1086.8-100z"/>
<path class="st4" d="M1163.8-55.8h-71.7c-1,0-1.8-0.8-1.8-1.8v-5.3c0-1,0.8-1.8,1.8-1.8h71.7V-55.8z"/>
<path class="st5" d="M1140.8-81v71.5c0,1-0.8,1.8-1.8,1.8h-4.5c-1,0-1.8-0.8-1.8-1.8V-81H1140.8z"/>
<path class="st6" d="M1145.2-59v5.7c0,1-0.8,1.8-1.8,1.8h-13.3c-1,0-1.8-0.8-1.8-1.8V-59H1145.2z"/>
<path class="st6" d="M1145.2-9v-5.7c0-1-0.8-1.8-1.8-1.8h-13.3c-1,0-1.8,0.8-1.8,1.8V-9H1145.2z"/>
<path class="st4" d="M1182.5-133.9c1,0.1,1.7,0.9,1.6,1.9l-4.6,74.6c-0.1,0.9-0.8,1.6-1.8,1.6h-49.8c0,0-0.1,0-0.1,0
	c-1-0.1-1.7-0.9-1.6-1.9l4.6-74.6c0.1-0.9,0.8-1.6,1.8-1.6h49.8C1182.5-133.9,1182.5-133.9,1182.5-133.9z"/>
<path class="st7" d="M1182.5-133.9c1,0.1,1.7,0.9,1.6,1.9l-4.6,74.6c-0.1,0.9-0.8,1.6-1.8,1.6h-47.2l4.7-76.5
	c0.1-0.9,0.8-1.6,1.8-1.6h45.4C1182.5-133.9,1182.5-133.9,1182.5-133.9z"/>
<path class="st8" d="M1157.9-6.2c0,1.7-1.4,3.1-3.1,3.1h-36.1c-1.7,0-3.1-1.4-3.1-3.1c0-1.7,1.4-3.1,3.1-3.1h36.1
	C1156.5-9.3,1157.9-7.9,1157.9-6.2z"/>
<path class="st9" d="M980.9-30.5c-0.9,7.1-1.8,14.8-2.3,23l-6.4,0.4c-1.9-11.4-3.3-19.6-4.1-24.6C962-69.6,983.3-49,980.9-30.5z
	 M1012.5-31.1c-1.2,7.1-2.3,14.7-3.1,22.9l-6.5,0.2c-1.5-11.5-2.6-19.7-3.2-24.7C995-70.8,1015.6-49.5,1012.5-31.1z"/>
<path class="st17" d="M983.3-75.7c4.2,17.2-0.6,16.6-3.2,60.3c-2.1,1-4.1,1.5-6.1,1.4c-2-0.1-3.8-0.8-5.4-2.1
	c-5.7-49.2-5.9-75.6-0.7-79.1c5.2-3.5,25.7-4,61.4-1.4c22.9-4,34-3,33.6,2.9c-0.5,6-0.1,33.3-25.8,33.3c-7.8,0-14.2-0.5-19.7-1.4
	c0.5,10.8-3.1,19.8-5.9,46.9c-2.3,0.8-4.1,1.2-5.5,1.2c-1.4,0-2.8-0.4-4.2-1.2c-3.3-23.9-4.8-41.7-4.7-53.4
	C992.7-70.4,988.3-72.8,983.3-75.7z"/>
<path class="st11" d="M996.5-70.7c-0.1,0.2,0,0.5,0.2,0.6c7.9,4.4,12.5,6.5,18.6,7.9c0.2,0.1,0.5-0.1,0.5-0.3
	c0.1-0.2-0.1-0.5-0.3-0.5c-6-1.4-10.5-3.5-18.4-7.9C996.9-71,996.6-70.9,996.5-70.7z"/>
<path class="st12" d="M1011-2.9H990c-0.5-1-0.1-1.8,1.1-2.5c1.2-0.7,5.1-2.4,11.6-5.2c0.3,1,1,1.5,2.1,1.5c1.6,0,5.4-2.4,6.2-1.6
	C1011.5-10.1,1011.5-7.5,1011-2.9z M979.7-2.9h-20.9c-0.5-1-0.1-1.8,1.1-2.5c1.2-0.7,5.1-2.4,11.6-5.2c0.3,1,1,1.5,2.1,1.5
	c1.6,0,5.4-2.4,6.2-1.6C980.3-10.1,980.3-7.5,979.7-2.9z"/>
<path class="st9" d="M989-158.6l-3.5,3.4l-2.7-6.7c-2.2,0.5-4.3,0.5-6.1,0c-2.8-0.7-4.2-1-4.2-1.6c0-0.6,4.3-0.2,3.7-0.4
	c-1.5-0.6-5.1-1.5-5-2.3c0-0.5,1.9-0.5,5.6,0.2c-3.9-1.5-5.8-2.5-5.5-3.1c0.4-0.8,5.4,0.8,6,0.8c-0.4-0.6-4.4-2.5-3.7-3.3
	c0.4-0.4,3.1,0.4,8.2,2.5c-0.6-3.3-0.6-4.7,0.1-4.3c0.7,0.4,1.9,2.5,3.6,6.4L989-158.6z"/>
<path class="st18" d="M1041.5-164.1c-0.2,3.1,12.5,3.8,16.1,0.4c5.4,2.4,8.9,4,10.3,4.9c3.2,2.1,4,4.3,3.9,7.2
	c3.1,11.6,1.8,44.2-1.6,48.5c-1,1.2-3.9,2-7.7,2.4c2.2,5.9,4.4,11.7,2.2,13.7c-6.5,6-13.9,8.5-25.6,5.2
	c-11.7-3.3-23.5-15.6-22.6-17.9c1.1-3,4.6-4.1,5.5-10.7c0.7-4.7,0.6-10.9,0.8-17.8c-8.2,8-17,15.2-20.3,15.9
	c-5.1,1.2-12.3-24.7-19.4-47c3.2-3.1,5.4-3.7,6.4-1.7c7.8,15.1,14.9,17.7,16.2,24c6.5-8.3,16.4-19.2,22-23.5
	C1029.1-162.4,1033.7-163.6,1041.5-164.1z"/>
<path class="st11" d="M1022.7-128.3c0.2,0.2,0.4,0.2,0.6,0l3.8-4c0.2-0.2,0.2-0.5,0-0.6c-0.2-0.2-0.5-0.2-0.6,0l-3.8,4
	C1022.6-128.8,1022.6-128.5,1022.7-128.3z"/>
<path class="st11" d="M1064-96.3c1.5,4.4,1.4,7.5,0,9.6c-1.4,2-7.1,4-17,5.9c-0.2,0-0.4,0.3-0.4,0.5c0,0.2,0.3,0.4,0.5,0.4
	c10.1-1.9,15.9-3.9,17.5-6.2c1.6-2.3,1.6-5.8,0.1-10.4l0-0.1c-5.1-10-6.2-17.6-3.3-22.9c1.2-2.2,2.5-4.4,4.1-6.7c1-1.5,2-4.1,3-7.6
	c0.1-0.2-0.1-0.5-0.3-0.6c-0.2-0.1-0.5,0.1-0.5,0.3c-1,3.5-2,5.9-2.9,7.4c-1.5,2.3-2.9,4.6-4.1,6.8
	C1057.7-114.5,1058.8-106.6,1064-96.3z"/>
<path class="st9" d="M1060.2-188.3c-1,2.6-1.7,5.5-2.2,8.6c-0.2,1.5-2.1,3.2-4.5,4.7c2.4,6.1,4.2,11.1,5.4,14.9
	c-3.3,5.4-14.3,3.4-17.2,0.1c-2.9-3.3-0.6-2.9-0.1-3.9c0.3-0.5,0.2-2.4-0.1-5.6c-0.6,0.2-1,0.3-1.2,0.3c-0.8,0-4-5.4-4-11.8v-7.4
	c0-6.4,5.3-11.6,11.9-11.6C1054.9-199.9,1060.2-194.7,1060.2-188.3z"/>
<path class="st10" d="M1042.3-166.8c0.1-1.9,0.1-3.2,0.1-4.1c0-0.4,0-0.7,0-0.9c0,0,0-0.1,0-0.1c0,0,0,0,0-0.1c0-0.1,0-0.1-0.2-0.3
	c-0.5,0-0.5,0-0.6,0.1c0,0.1,0,0.1-0.1,0.1c0,0,0,0.1,0,0.1c-0.1,0.5-0.1,2.2-0.1,5C1041.5-166.2,1042.3-166.2,1042.3-166.8z"/>
<path class="st15" d="M1071-175.3c-8-8.8-7.2-16.9-9.1-19.7c-1.3-1.9-2.7-2.8-4.3-2.7c-0.8-1.7-1.7-2.7-2.8-3.3
	c-8.5-4.2-17.3-4.3-20.3-0.3c-3,4,1.7,9.6,2.6,9.7c3.2,0.5,0.7,9.3,1.8,9.5c1,0.2,1-4.3,4.5-2.8c3.4,1.5,2.1,14.5-1.1,16.4
	c-3.1,1.9-8.4,4.9-4.5,16.2c3.9,11.3,34.9,29.1,50.3,10.3C1103.4-160.8,1075.7-170.1,1071-175.3z"/>
<path class="st10" d="M1040.2-181.5c0.2,0.2,0.4,0.2,0.6,0c1-1,1.6-0.9,2,0.2c0.1,0.2,0.3,0.3,0.6,0.2c0.2-0.1,0.3-0.3,0.2-0.6
	c-0.7-1.7-2-1.9-3.5-0.5C1040-182,1040-181.7,1040.2-181.5z"/>
<path class="st14" d="M1072.7-55.8H1001c-1,0-1.8-0.8-1.8-1.8v-5.3c0-1,0.8-1.8,1.8-1.8h71.7V-55.8z"/>
<path class="st5" d="M1045.3-81v71.5c0,1-0.8,1.8-1.8,1.8h-4.5c-1,0-1.8-0.8-1.8-1.8V-81H1045.3z"/>
<path class="st6" d="M1049.7-59v5.7c0,1-0.8,1.8-1.8,1.8h-13.3c-1,0-1.8-0.8-1.8-1.8V-59H1049.7z"/>
<path class="st6" d="M1049.7-9v-5.7c0-1-0.8-1.8-1.8-1.8h-13.3c-1,0-1.8,0.8-1.8,1.8V-9H1049.7z"/>
<path class="st14" d="M1087.1-133.9c1,0.1,1.7,0.9,1.6,1.9l-4.6,74.6c-0.1,0.9-0.8,1.6-1.8,1.6h-49.8c0,0-0.1,0-0.1,0
	c-1-0.1-1.7-0.9-1.6-1.9l4.6-74.6c0.1-0.9,0.8-1.6,1.8-1.6h49.8C1087-133.9,1087-133.9,1087.1-133.9z"/>
<path class="st5" d="M1087.1-133.9c1,0.1,1.7,0.9,1.6,1.9l-4.6,74.6c-0.1,0.9-0.8,1.6-1.8,1.6h-47.2l4.7-76.5
	c0.1-0.9,0.8-1.6,1.8-1.6h45.4C1087-133.9,1087-133.9,1087.1-133.9z"/>
<path class="st8" d="M1062.4-6.2c0,1.7-1.4,3.1-3.1,3.1h-36.1c-1.7,0-3.1-1.4-3.1-3.1c0-1.7,1.4-3.1,3.1-3.1h36.1
	C1061-9.3,1062.4-7.9,1062.4-6.2z"/>
<path class="st2" d="M806.9-224.1c30.6,50.3,78.9,56.8,99.2,53.8"/>
<path class="st19" d="M990.2-322.4v119.5c0,1.8-1.5,3.3-3.3,3.3H814.5c-1.8,0-3.3-1.5-3.3-3.3v-119.5c0-1.8,1.5-3.3,3.3-3.3h172.4
	C988.7-325.7,990.2-324.2,990.2-322.4z"/>
<path class="st20" d="M983.6-317.8v110.3c0,0.7-0.6,1.3-1.3,1.3H819.1c-0.7,0-1.3-0.6-1.3-1.3v-110.3c0-0.7,0.6-1.3,1.3-1.3h163.2
	C983-319.1,983.6-318.5,983.6-317.8z"/>
<path class="st14" d="M865.7-229.8c0-4.3-3.5-7.8-7.9-7.8c-4.3,0-7.9,3.5-7.9,7.8c0,4.3,3.5,7.8,7.9,7.8
	C862.2-221.9,865.7-225.4,865.7-229.8z"/>
<path class="st20" d="M858.6-228.5l-3.6-4.2c-0.3-0.4-0.9-0.4-1.3-0.1c-0.4,0.3-0.5,0.9-0.1,1.3l4.1,4.9c0.3,0.4,0.9,0.4,1.3,0.2
	l3.1-2.1c0.4-0.3,0.5-0.9,0.3-1.3c-0.3-0.4-0.9-0.5-1.3-0.3L858.6-228.5z"/>
<path class="st18" d="M920.5-302.7v21.9c0,0.7-0.6,1.3-1.3,1.3h-34.1c-0.7,0-1.3-0.6-1.3-1.3v-21.9c0-0.7,0.6-1.3,1.3-1.3h34.1
	C920-304,920.5-303.5,920.5-302.7z"/>
<path class="st14" d="M951.1-263.4v11.8c0,0.7-0.6,1.3-1.3,1.3h-18.4c-0.7,0-1.3-0.6-1.3-1.3v-11.8c0-0.7,0.6-1.3,1.3-1.3h18.4
	C950.5-264.8,951.1-264.2,951.1-263.4z"/>
<path class="st21" d="M947.8-259.5c0,0.5-0.4,1-1,1h-10.5c-0.5,0-1-0.4-1-1s0.4-1,1-1h10.5C947.4-260.5,947.8-260.1,947.8-259.5z"/>
<path class="st21" d="M947.8-255.6c0,0.5-0.4,1-1,1h-7.2c-0.5,0-1-0.4-1-1c0-0.5,0.4-1,1-1h7.2C947.4-256.6,947.8-256.1,947.8-255.6
	z"/>
<path class="st14" d="M923.5-263.4v11.8c0,0.7-0.6,1.3-1.3,1.3h-18.4c-0.7,0-1.3-0.6-1.3-1.3v-11.8c0-0.7,0.6-1.3,1.3-1.3h18.4
	C922.9-264.8,923.5-264.2,923.5-263.4z"/>
<path class="st13" d="M938.3-240.5v23.2c0,0.7-0.6,1.3-1.3,1.3h-46.6c-0.7,0-1.3-0.6-1.3-1.3v-23.2c0-0.7,0.6-1.3,1.3-1.3H937
	C937.7-241.8,938.3-241.2,938.3-240.5z"/>
<path class="st21" d="M931.7-236.3c0,0.7-0.6,1.3-1.3,1.3h-19.7c-0.7,0-1.3-0.6-1.3-1.3c0-0.7,0.6-1.3,1.3-1.3h19.7
	C931.1-237.6,931.7-237,931.7-236.3z"/>
<path class="st21" d="M931.7-224.5c0,0.7-0.6,1.3-1.3,1.3h-23c-0.7,0-1.3-0.6-1.3-1.3c0-0.7,0.6-1.3,1.3-1.3h23
	C931.1-225.8,931.7-225.2,931.7-224.5z"/>
<path class="st21" d="M931.7-230.4c0,0.7-0.6,1.3-1.3,1.3h-30.9c-0.7,0-1.3-0.6-1.3-1.3c0-0.7,0.6-1.3,1.3-1.3h30.9
	C931.1-231.7,931.7-231.1,931.7-230.4z"/>
<path class="st21" d="M918.9-259.5c0,0.5-0.4,1-1,1h-10.5c-0.5,0-1-0.4-1-1s0.4-1,1-1h10.5C918.5-260.5,918.9-260.1,918.9-259.5z"/>
<path class="st21" d="M918.9-255.6c0,0.5-0.4,1-1,1h-7.2c-0.5,0-1-0.4-1-1c0-0.5,0.4-1,1-1h7.2C918.5-256.6,918.9-256.1,918.9-255.6
	z"/>
<path class="st7" d="M973.7-302.4c0,0.9-0.7,1.6-1.6,1.6h-19c-0.9,0-1.6-0.7-1.6-1.6c0-0.9,0.7-1.6,1.6-1.6h19
	C973-304,973.7-303.3,973.7-302.4z"/>
<path class="st7" d="M973.7-295.5c0,0.9-0.7,1.6-1.6,1.6H932c-0.9,0-1.6-0.7-1.6-1.6s0.7-1.6,1.6-1.6h40.1
	C973-297.2,973.7-296.4,973.7-295.5z"/>
<path class="st21" d="M914-297.8c0,0.7-0.6,1.3-1.3,1.3h-9.9c-0.7,0-1.3-0.6-1.3-1.3c0-0.7,0.6-1.3,1.3-1.3h9.9
	C913.4-299.1,914-298.5,914-297.8z"/>
<path class="st21" d="M914-286c0,0.7-0.6,1.3-1.3,1.3h-13.1c-0.7,0-1.3-0.6-1.3-1.3c0-0.7,0.6-1.3,1.3-1.3h13.1
	C913.4-287.3,914-286.8,914-286z"/>
<path class="st21" d="M914-291.9c0,0.7-0.6,1.3-1.3,1.3h-21c-0.7,0-1.3-0.6-1.3-1.3s0.6-1.3,1.3-1.3h21
	C913.4-293.2,914-292.7,914-291.9z"/>
<path class="st7" d="M973.7-288.3c0,0.9-0.7,1.6-1.6,1.6h-26.9c-0.9,0-1.6-0.7-1.6-1.6c0-0.9,0.7-1.6,1.6-1.6h26.9
	C973-290,973.7-289.2,973.7-288.3z"/>
<path class="st7" d="M871-283.1c0,0.9-0.7,1.6-1.6,1.6h-19c-0.9,0-1.6-0.7-1.6-1.6c0-0.9,0.7-1.6,1.6-1.6h19
	C870.2-284.7,871-284,871-283.1z"/>
<path class="st7" d="M871-276.2c0,0.9-0.7,1.6-1.6,1.6h-40.1c-0.9,0-1.6-0.7-1.6-1.6c0-0.9,0.7-1.6,1.6-1.6h40.1
	C870.2-277.9,871-277.1,871-276.2z"/>
<path class="st7" d="M871-269c0,0.9-0.7,1.6-1.6,1.6h-26.9c-0.9,0-1.6-0.7-1.6-1.6c0-0.9,0.7-1.6,1.6-1.6h26.9
	C870.2-270.6,871-269.9,871-269z"/>
<path class="st7" d="M871-261.8c0,0.9-0.7,1.6-1.6,1.6h-33.5c-0.9,0-1.6-0.7-1.6-1.6s0.7-1.6,1.6-1.6h33.5
	C870.2-263.4,871-262.7,871-261.8z"/>
<path class="st6" d="M884.4-258.2v-17.4c0-0.4-0.3-0.7-0.7-0.7c-0.4,0-0.7,0.3-0.7,0.7v18c0,0.4,0.3,0.7,0.7,0.7h11.1
	c0.4,0,0.7-0.3,0.7-0.7c0-0.4-0.3-0.7-0.7-0.7H884.4z"/>
<path class="st6" d="M944.5-229.6c-0.4,0-0.7,0.3-0.7,0.7s0.3,0.7,0.7,0.7h22.7c0.4,0,0.7-0.3,0.7-0.7v-28.7c0-0.4-0.3-0.7-0.7-0.7
	H957c-0.4,0-0.7,0.3-0.7,0.7c0,0.4,0.3,0.7,0.7,0.7h9.5v27.3H944.5z"/>
<path class="st6" d="M884.4-229.7h-14.8c-0.4,0-0.7-0.3-0.7-0.7s0.3-0.7,0.7-0.7h14.8c0.4,0,0.7,0.3,0.7,0.7
	S884.8-229.7,884.4-229.7z"/>
<path class="st3" d="M1086.3-264.8v28.8c0,6.8-5.5,12.3-12.3,12.3h-49c-6.8,0-12.3-5.5-12.3-12.3v-28.8c0-6.8,5.5-12.3,12.3-12.3h49
	C1080.8-277.1,1086.3-271.6,1086.3-264.8z"/>
<path class="st3" d="M802.3-240.3v20.2c0,4.4-3.6,7.9-7.9,7.9h-34.6c-4.4,0-7.9-3.6-7.9-7.9v-20.2c0-4.4,3.6-7.9,7.9-7.9h34.6
	C798.7-248.2,802.3-244.7,802.3-240.3z"/>
<path class="st3" d="M959.4-184.1v21.6c0,4.4-3.6,7.9-7.9,7.9h-34.6c-4.4,0-7.9-3.6-7.9-7.9v-21.6c0-4.4,3.6-7.9,7.9-7.9h34.6
	C955.9-192,959.4-188.5,959.4-184.1z"/>
<path class="st3" d="M1177.1-241.7v20.2c0,4.4-3.6,7.9-7.9,7.9h-34.6c-4.4,0-7.9-3.6-7.9-7.9v-20.2c0-4.4,3.6-7.9,7.9-7.9h34.6
	C1173.6-249.7,1177.1-246.1,1177.1-241.7z"/>
<path class="st20" d="M1103.5-300.8c0.5,0.5,1.2,0.7,2,0.7c1,0,1.8-0.3,2.4-1c0.5-0.6,0.8-1.6,0.8-2.8h4.2c0,2.1-0.5,3.7-1.6,5
	c-1.1,1.2-2.6,2-4.6,2.2v3h-2.3v-3c-1.8-0.2-3.2-0.8-4.3-1.9c-1-1.1-1.5-2.5-1.5-4.2c0-0.9,0.1-1.7,0.4-2.4c0.3-0.7,0.7-1.3,1.2-1.8
	c0.5-0.5,1.1-1,1.9-1.5c0.7-0.4,1.7-0.9,2.9-1.4c1.2-0.5,2-1,2.4-1.4c0.4-0.5,0.6-1.1,0.6-1.8c0-0.8-0.2-1.5-0.7-1.9
	c-0.4-0.5-1.1-0.7-1.9-0.7c-0.8,0-1.5,0.3-1.9,0.9c-0.5,0.6-0.7,1.5-0.7,2.7h-4.2c0-2,0.5-3.6,1.5-4.8c1-1.2,2.3-2,4-2.2v-3.3h2.3
	v3.2c1.7,0.2,3.1,0.8,4.2,1.9c1.1,1.1,1.6,2.5,1.6,4.2c0,1-0.2,1.8-0.5,2.6c-0.3,0.7-0.7,1.3-1.3,1.9c-0.6,0.5-1.2,1-2,1.4
	c-0.8,0.4-1.7,0.8-2.7,1.2c-1.1,0.4-1.8,0.9-2.2,1.4c-0.4,0.5-0.7,1.1-0.7,2C1102.8-301.9,1103-301.3,1103.5-300.8z"/>
<path class="st22" d="M1074.8-257.5l-8,21.5c-0.4,1.1-1.7,1.7-2.8,1.3l-12-4.5c-1.1-0.4-1.7-1.7-1.3-2.8l8-21.5
	c0.4-1.1,1.7-1.7,2.8-1.3l12,4.5C1074.7-259.9,1075.2-258.6,1074.8-257.5z"/>
<line class="st3" x1="1060.4" y1="-260.9" x2="1072" y2="-256.6"/>
<line class="st3" x1="1063.7" y1="-252.2" x2="1069.5" y2="-250.1"/>
<line class="st3" x1="1055.5" y1="-247.8" x2="1067.1" y2="-243.5"/>
<line class="st3" x1="1059.6" y1="-258.8" x2="1071.2" y2="-254.4"/>
<line class="st3" x1="1062.9" y1="-250.1" x2="1068.7" y2="-247.9"/>
<line class="st3" x1="1054.7" y1="-245.7" x2="1066.3" y2="-241.3"/>
<line class="st3" x1="1058.7" y1="-256.6" x2="1070.3" y2="-252.3"/>
<line class="st3" x1="1062.1" y1="-247.9" x2="1067.9" y2="-245.7"/>
<line class="st3" x1="1053.9" y1="-243.5" x2="1065.5" y2="-239.2"/>
<path class="st22" d="M1058.6-268.9v34.1c0,1.2-1,2.2-2.2,2.2h-20.1c-1.2,0-2.2-1-2.2-2.2v-34.1c0-1.2,1-2.2,2.2-2.2h20.1
	C1057.6-271.1,1058.6-270.1,1058.6-268.9z"/>
<line class="st3" x1="1037.7" y1="-265" x2="1055" y2="-265"/>
<line class="st3" x1="1046.4" y1="-255.3" x2="1055" y2="-255.3"/>
<line class="st3" x1="1037.7" y1="-245.6" x2="1055" y2="-245.6"/>
<line class="st3" x1="1037.7" y1="-261.8" x2="1055" y2="-261.8"/>
<line class="st3" x1="1046.4" y1="-252.1" x2="1055" y2="-252.1"/>
<line class="st3" x1="1037.7" y1="-242.4" x2="1055" y2="-242.4"/>
<line class="st3" x1="1037.7" y1="-258.5" x2="1055" y2="-258.5"/>
<line class="st3" x1="1046.4" y1="-248.8" x2="1055" y2="-248.8"/>
<line class="st3" x1="1037.7" y1="-239.2" x2="1055" y2="-239.2"/>
<path class="st22" d="M1032.5-254.9l10.8,20.2c0.6,1.1,0.2,2.4-0.9,2.9l-11.3,6c-1.1,0.6-2.4,0.2-2.9-0.9l-10.8-20.2
	c-0.6-1.1-0.2-2.4,0.9-2.9l11.3-6C1030.6-256.4,1031.9-256,1032.5-254.9z"/>
<line class="st3" x1="1020.3" y1="-246.4" x2="1031.3" y2="-252.2"/>
<line class="st3" x1="1029.1" y1="-243.1" x2="1034.5" y2="-246"/>
<line class="st3" x1="1026.9" y1="-234.1" x2="1037.8" y2="-239.9"/>
<line class="st3" x1="1021.4" y1="-244.3" x2="1032.4" y2="-250.1"/>
<line class="st3" x1="1030.2" y1="-241.1" x2="1035.6" y2="-244"/>
<line class="st3" x1="1028" y1="-232" x2="1038.9" y2="-237.8"/>
<line class="st3" x1="1022.5" y1="-242.3" x2="1033.5" y2="-248.1"/>
<line class="st3" x1="1031.3" y1="-239" x2="1036.7" y2="-241.9"/>
<line class="st3" x1="1029.1" y1="-229.9" x2="1040" y2="-235.8"/>
<rect x="941.4" y="-184.1" class="st20" width="5.8" height="24.5"/>
<rect x="934.2" y="-176.9" class="st20" width="5.8" height="17.3"/>
<rect x="927" y="-171.1" class="st20" width="5.8" height="11.5"/>
<rect x="919.8" y="-166.8" class="st20" width="4.3" height="7.2"/>
<path class="st3" d="M788.4-307.7c5.8,0,10.6,4.7,10.6,10.6c0,5.8-4.7,10.6-10.6,10.6c-5.8,0-10.6-4.7-10.6-10.6
	C777.9-303,782.6-307.7,788.4-307.7z"/>
<path class="st3" d="M777.9-296.4L777.9-296.4L777.9-296.4L777.9-296.4L777.9-296.4L777.9-296.4L777.9-296.4h0.1h0h0h0h0h0h0h0h0h0
	h0h0h0h0h0h0h0h0h0h0h0h0h0h0h0h0h0h0h0h0h0h0h0h0h0h0h0h0h0h0h0h0h0h0h0h0h0h0h0h0h0h0h0h0h0h0h0h0h0h0h0h0h0h0h0h0h0h0h0h0h0h0h0
	h0h0h0h0h0h0h0h0h0h0h0h0h0h0h0h0h0h0h0h0h0h0h0h0h0h0h0h0h0h0h0h0h0h0h0h0h0h0h0h0h0h0h0h0h0h0h0h0h0h0h0h0h0h0h0h0h0h0h0h0h0h0h0
	h0h0h0h0h0h0h0h0h0h0h0h0h0h0h0h0h0h0h0h0h0h0h0h0h0h0h0h0h0h0h0h0h0h0h0h0h0h0h0h0h0h0h0h0h0h0h0h0h0h0h0h0h0h0h0h0h0h0h0h0h0h0h0
	h0h0h0h0h0h0h0h0h0h0h0h0h0h0h0h0h0h0h0h0h0h0h0h0h0h0h0h0h0h0h0h0h0h0h0h0h0h0h0h0h0h0h0h0h0h0h0h0h0h0h0h0h0h0h0h0h0h0h0h0h0h0h0
	h0h0h0h0h0h0h0h0h0h0h0h0h0h0h0h0h0h0h0h0h0h0h0h0h0h0h0h0h0h0h0h0h0h0h0h0h0h0h0h0h0h0h0h0h0h0h0h0h0h0h0h0h0h0h0h0h0h0h0h0h0h0h0
	h0h0h0h0h0h0h0h0h0h0h0h0h0h0h0h0h0h0h0h0h0h0h0h0h0h0h0h0h0h0h0h0h0h0h0h0h0h0h0h0h0h0h0h0h0h0h0h0h0h0h0h0h0h0h0h0h0h0h0h0h0h0h0
	h0h0h0h0h0h0h0h0h0h0h0h0h0h0h0h0h0h0h0h0h0h0h0h0h0h0h0h0h0h0h0h0h0h0h0h0h0h0h0h0h0h0h0h0h0h0h0h0h0h0h0h0h0h0h0h0h0h0h0h0h0h0h0
	h0h0l5.6,5.9l1.4,1.5c-1.8,1.5-4.2,2.4-6.7,2.4C782.8-286.5,778.3-290.9,777.9-296.4z"/>
<path class="st3" d="M787.7-307.7L787.7-307.7L787.7-307.7L787.7-307.7L787.7-307.7L787.7-307.7v0.1v0v0v0v0v0v0v0v0v0v0v0v0v0v0v0
	v0v0v0v0v0v0v0v0v0v0v0v0v0v0v0v0v0v0v0v0v0v0v0v0v0v0v0v0v0v0v0v0v0v0v0v0v0v0v0v0v0v0v0v0v0v0v0v0v0v0v0v0v0v0v0v0v0v0v0v0v0v0v0
	v0v0v0v0v0v0v0v0v0v0v0v0v0v0v0v0v0v0v0v0v0v0v0v0v0v0v0v0v0v0v0v0v0v0v0v0v0v0v0v0v0v0v0v0v0v0v0v0v0v0v0v0v0v0v0v0v0v0v0v0v0v0v0
	v0v0v0v0v0v0v0v0v0v0v0v0v0v0v0v0v0v0v0v0v0v0v0v0v0v0v0v0v0v0v0v0v0v0v0v0v0v0v0v0v0v0v0v0v0v0v0v0v0v0v0v0v0v0v0v0v0v0v0v0v0v0v0
	v0v0v0v0v0v0v0v0v0v0v0v0v0v0v0v0v0v0v0v0v0v0v0v0v0v0v0v0v0v0v0v0v0v0v0v0v0v0v0v0v0v0v0v0v0v0v0v0v0v0v0v0v0v0v0v0v0v0v0v0v0v0v0
	v0v0v0v0v0v0v0v0v0v0v0v0v0v0v0v0v0v0v0v0v0v0v0v0v0v0v0v0v0v0v0v0v0v0v0v0v0v0v0v0v0v0v0v0v0v0v0v0v0v0v0v0v0v0v0v0v0v0v0v0v0v0v0
	v0v0v0v0v0v0v0v0v0v0v0v0v0v0v0v0v0v0v0v0v0v0v0v0v0v0v0v0v0v0v0v0v0v0v0v0v0v0v0v0v0v0v0v0v0v0v0v0v0v0v0v0v0v0v0v0v0v0v0v0v0v0v0
	v0v0v0v0v0v0v0v0v0v0v0v0v0v0v0v0v0v0v0v0v0v0v0v0v0v0v0v0v0v0v0v0v0v0v0v0v0v0v0v0v0v0v0v0v0v0v0v0v0v0v0v0v0
	c-4.5,0.1-7.8,0.1-9.8,0C778.2-303.1,782.4-307.3,787.7-307.7L787.7-307.7z"/>
<path class="st8" d="M921.5-25.3c0-37-4.3-57.9-13-63l-0.6,1.1c8.2,4.7,12.4,25.4,12.4,61.9H921.5z"/>
<path class="st8" d="M922.7-25.3c0.4-37.5,3.4-61.3,9-71.2l-1.1-0.6c-5.7,10.2-8.8,34.1-9.2,71.8L922.7-25.3z"/>
<path class="st8" d="M922.5-33.3c9.8-11.7,22.1-9.8,22.6-2.4c0.5,7.3-6.9,2-22.1,10.3c-0.5,0.3-1,0.6-1.5,0.9c0,0,0,0,0,0l0,0l0,0
	c0,0,0,0,0,0c-0.3-0.2-0.7-0.4-1-0.6c-0.5-0.3-1-0.6-1.5-0.8c-0.2-0.1-0.3-0.2-0.4-0.2l0,0c-13.8-7-20.5-2.3-20.1-9.4
	c0.5-7.5,12.7-9.5,22.5,2.5c0.2,0.3,0.5,0.6,0.7,1C922-32.6,922.3-33,922.5-33.3z"/>
<path class="st14" d="M921.5-27.1c5.1-6.1,13.4-12.2,20.8-13.3c1.6,1,2.7,2.7,2.8,4.7c0,0.2,0,0.4,0,0.6c-5.4,0.2-13.2,3.3-23.6,9.2
	c-9.5-5-17.2-8-23-9.3c0-0.1,0-0.3,0-0.4c0.1-2.2,1.3-3.9,3-4.9C909.6-38.7,917.2-34.1,921.5-27.1z"/>
<path class="st8" d="M917.8-34.4c-10.9-9.3-17.7-6.3-16.1-12.1c1.7-5.8,11.9-5.3,17.8,5.9c0.6,1.2,1.3,3,2,5.4
	c0.7-2.3,1.3-4,1.9-5.1c5.9-10.8,16.2-11.3,17.8-5.7c1.7,5.7-5.2,2.7-16.1,11.7c-1.2,1-2.3,2.1-3.3,3.3c-0.1,0.2-0.2,0.2-0.3,0.2
	c-0.1,0-0.3-0.1-0.4-0.3C920.1-32.2,919-33.3,917.8-34.4z"/>
<path class="st14" d="M921.5-30.7c-4.6-7.6-11.2-12.9-19.7-15.8c0.6-1.8,1.9-3,3.7-3.4c6.6,3.5,12.3,11.4,16,18.6
	c2.6-6.1,8.5-14.5,14.6-18.2c2.4,0,4.3,1.2,5,3.1C933.6-44.4,927.1-39.2,921.5-30.7z"/>
<path class="st5" d="M913.9-0.4c-1.5,0-2.9-1-3.4-2.4l-8.1-23c-0.3-0.9,0.2-2,1.1-2.3c0.2-0.1,0.4-0.1,0.6-0.1h36.1
	c1,0,1.8,0.8,1.8,1.8c0,0.2,0,0.4-0.1,0.6l-8.1,23c-0.5,1.5-1.9,2.4-3.4,2.4H913.9z"/>
<path class="st14" d="M902.8-21.7l-1.6-4.2c-0.4-0.9,0.1-2,1.1-2.3c0.2-0.1,0.4-0.1,0.6-0.1h38.8c1,0,1.8,0.8,1.8,1.8
	c0,0.3-0.1,0.5-0.2,0.7l-1.8,4.1H902.8z"/>
<path class="st14" d="M910.6-88.9c0-2-1.6-3.6-3.6-3.6c-2,0-3.6,1.6-3.6,3.6c0,2,1.6,3.6,3.6,3.6C909-85.3,910.6-86.9,910.6-88.9z"
	/>
<path class="st14" d="M935.4-98c0-2-1.6-3.6-3.6-3.6c-2,0-3.6,1.6-3.6,3.6c0,2,1.6,3.6,3.6,3.6C933.8-94.4,935.4-96,935.4-98z"/>
<path class="st14" d="M909.5-80.6c-0.2-0.5,0.4-1.2,1.3-1.6c0.9-0.4,1.8-0.4,2,0.1s-0.4,1.2-1.3,1.6
	C910.7-80.1,909.8-80.1,909.5-80.6z"/>
<path class="st14" d="M912.5-75.9c-0.2-0.5,0.5-1.1,1.4-1.5c0.9-0.3,1.9-0.2,2,0.3c0.2,0.5-0.5,1.1-1.4,1.5
	C913.6-75.3,912.7-75.4,912.5-75.9z"/>
<path class="st14" d="M911.3-85c-0.2-0.5,0.4-1.1,1.4-1.5c0.9-0.4,1.8-0.3,2,0.2c0.2,0.5-0.4,1.1-1.4,1.5
	C912.4-84.4,911.5-84.5,911.3-85z"/>
<path class="st14" d="M913.7-80.7c-0.2-0.5,0.4-1.1,1.3-1.5c0.9-0.4,1.8-0.3,2,0.2c0.2,0.5-0.4,1.1-1.3,1.5
	C914.8-80.1,913.9-80.2,913.7-80.7z"/>
<path class="st14" d="M925.2-92.8c0.1-0.5,1-0.6,2-0.4c1,0.3,1.6,0.9,1.5,1.4c-0.1,0.5-1,0.6-2,0.4
	C925.7-91.7,925.1-92.3,925.2-92.8z"/>
<path class="st14" d="M928.2-89.1c0.1-0.5,1-0.6,2-0.4c1,0.3,1.6,0.9,1.5,1.4c-0.1,0.5-1,0.7-2,0.4C928.8-88,928.1-88.7,928.2-89.1z
	"/>
<path class="st14" d="M929.4-93.1c0.1-0.3,0.7-0.4,1.3-0.2c0.6,0.2,1.1,0.6,1,0.9c-0.1,0.3-0.7,0.4-1.3,0.2
	C929.7-92.4,929.3-92.8,929.4-93.1z"/>
<path class="st14" d="M924-87.3c0.1-0.5,1-0.6,2-0.4c1,0.3,1.6,0.9,1.5,1.4c-0.1,0.5-1,0.6-2,0.4C924.5-86.2,923.8-86.8,924-87.3z"
	/>
<path class="st14" d="M926.4-83.7c0.1-0.5,1-0.7,2-0.4c1,0.3,1.6,0.9,1.5,1.4c-0.1,0.5-1,0.7-2,0.4
	C926.9-82.6,926.3-83.2,926.4-83.7z"/>
<path class="st6" d="M1176.5-31c0.1,0.2-0.1,0.5-0.3,0.5c-0.2,0.1-0.5-0.1-0.5-0.3"/>
<path class="st7" d="M1204.8-20.1l-0.9,4.6h-37.1l-0.8-4.6H1204.8z"/>
<g id="Group_12_Copy">
	<path id="Path_51" class="st23" d="M1184.6-48.7l6.5-32.6c0.8-4.1,0.1-8.5-2.1-12.1c-2.1-3.5-5.9-5.4-10-5.1l-0.6,0.1
		c-4,0.3-7.3,3-8.4,6.7c-1.2,4-1,8.4,0.8,12.2L1184.6-48.7z"/>
	<path id="Path_96" class="st24" d="M1181.7-84.5c0,0,4.4,52,5.9,64.9"/>
</g>
<g id="Group_12_Copy_2">
	<path id="Path_51_x5F_2" class="st23" d="M1199.1-62.2l-6.5-32.6c-0.8-4.1-0.1-8.5,2.1-12.1c2.1-3.5,5.9-5.4,10-5.1h0.6
		c4,0.3,7.3,3,8.4,6.7c1.2,4,1,8.4-0.8,12.2L1199.1-62.2z"/>
	<path id="Path_98" class="st24" d="M1202.6-100.4c0,0-5.2,57.1-6.3,70.5"/>
</g>
<g id="Group_12_Copy_3">
	<path id="Path_51_x5F_3" class="st23" d="M1186.2-79.4l-13.1-30.5c-1.7-4-1.9-8.3-0.5-12.3c1.3-3.9,4.6-6.6,8.7-7.1l0.6-0.1
		c4-0.5,7.7,1.4,9.7,4.8c2.1,3.7,2.7,8,1.8,12.1L1186.2-79.4z"/>
	<path id="Path_95" class="st24" d="M1183.1-117.9c0,0,6.3,75.8,7.6,96.8"/>
</g>
<g id="Group_12">
	<path id="Path_51_x5F_4" class="st23" d="M1202.4-40.9l2.8-28.1c0.4-3.7,2.1-6.9,4.7-9.4c2.6-2.3,6.2-3,9.4-1.7l0.5,0.2
		c3.1,1.2,5.1,4.2,5.1,7.6c0,3.6-1.3,7-3.7,9.7L1202.4-40.9z"/>
	<path id="Path_98_x5F_2" class="st24" d="M1215.5-73c0,0-21.7,53-26.7,65.6"/>
</g>
<g id="Group_12_Copy_4">
	<path id="Path_51_x5F_5" class="st23" d="M1180.5-40.9l-2.8-28.1c-0.4-3.7-2.1-6.9-4.7-9.4c-2.6-2.3-6.2-3-9.4-1.7l-0.5,0.2
		c-3.1,1.2-5.1,4.2-5.1,7.6c0,3.6,1.3,7,3.7,9.7L1180.5-40.9z"/>
	<path id="Path_97" class="st24" d="M1167.6-72.1c0,0,18.5,41.6,20.1,52.8"/>
</g>
<g id="Group_11">
	<path id="Rectangle_4" class="st23" d="M1171.7-34.5h38.5V5h-38.5V-34.5z"/>
	<path id="Path_43" class="st6" d="M1171.9-29c3.3-3,6.3-2.5,9.3,1.5c5.2,7,11.9,9.8,17.2,6.1c-0.4,0.3,5.2-3.9,6.4-4.2
		c1.5-0.6,3-0.5,5.2,0.4l0.2-0.6c-2.5-1-4-1.1-5.7-0.4c-1.2,0.5-7,4.6-6.5,4.3c-5.1,3.5-11.4,0.8-16.4-6c-3.2-4.1-6.6-4.7-10.2-1.6
		L1171.9-29z"/>
	<path id="Path_43_Copy" class="st6" d="M1171.9-23c3.3-3,6.3-2.5,9.3,1.5c4.7,6.3,10.6,7.7,16.4,3.9c2-1.3,3.1-0.8,4.5,1.5
		c0.2,0.3,0.9,1.5,1.1,1.7c2,3.2,4,4.5,7.1,4l-0.1-0.6c-3,0.4-4.6-0.8-6.5-3.9c-0.1-0.2-0.9-1.4-1.1-1.7c-1.7-2.6-3.1-3.3-5.3-1.7
		c-5.5,3.7-11.1,2.4-15.6-3.8c-3.2-4.1-6.6-4.7-10.2-1.6L1171.9-23z"/>
	<path id="Path_44" class="st6" d="M1171.9-11.4c5.3-3.9,10.8-3.6,16.4,1c5.8,4.6,13.2,5.4,22,2.3l-0.2-0.6
		c-8.6,3.2-15.8,2.4-21.4-2.2c-5.8-4.7-11.7-5-17.2-1L1171.9-11.4z"/>
	<path id="Path_45" class="st6" d="M1210.2-23.8c-4.4-0.5-6.4,1-5.7,4.5c0.6,3.5,2.6,5.1,5.7,5.1v-0.6c-2.9,0-4.5-1.6-5.1-4.6
		c-0.6-3.1,1.1-4.2,5.1-3.8V-23.8z"/>
	<path id="Path_46" class="st6" d="M1171.8-20.7c2.7-1.3,3.9-1,3.9,0.7c0,1.9-1.4,3.7-4.1,5.4l0.3,0.5c3-1.9,4.4-3.9,4.4-5.9
		c0-2.3-1.7-2.7-4.7-1.2L1171.8-20.7z"/>
	<path id="Path_47" class="st6" d="M1171.9-6.8c3.7-3.7,6.9-3.5,10,0.5c5.5,7.2,10.1,10.3,14.5,9.1c1.9-0.5,2.3-1.5,2.1-3.2
		c0-0.1,0-0.2,0-0.3c-0.2-1-0.2-1.4,0.1-1.8c0.3-0.5,1.2-0.8,2.9-0.8c4.4,0,7.3,1,8.6,3l0.5-0.3c-1.5-2.2-4.4-3.2-9.1-3.2
		c-1.8,0-2.9,0.3-3.4,1c-0.4,0.5-0.4,1-0.2,2.2c0,0.1,0,0.2,0,0.3c0.2,1.5-0.1,2.1-1.7,2.5c-4.1,1.1-8.4-1.9-13.8-8.9
		c-3.3-4.2-6.9-4.3-10.9-0.5L1171.9-6.8z"/>
	<path id="Path_48" class="st6" d="M1181.9-34.3c4.3,7.5,13.8,9,28.3,4.6l-0.2-0.6c-14.3,4.3-23.5,2.9-27.7-4.3L1181.9-34.3z"/>
	<path id="Path_49" class="st6" d="M1171.8-3.2c5-2.8,10-0.1,15.1,8.4l0.5-0.3c-5.2-8.7-10.6-11.6-15.9-8.6L1171.8-3.2z"/>
</g>
</svg>
