<?xml version="1.0" encoding="utf-8"?>
<!-- Generator: Adobe Illustrator 19.0.0, SVG Export Plug-In . SVG Version: 6.00 Build 0)  -->
<svg version="1.1" id="Layer_1" xmlns="http://www.w3.org/2000/svg" xmlns:xlink="http://www.w3.org/1999/xlink" x="0px" y="0px"
	 width="647.5px" height="425.4px" viewBox="626.5 -402.4 647.5 425.4" style="enable-background:new 626.5 -402.4 647.5 425.4;"
	 xml:space="preserve">
<style type="text/css">
	.st0{fill:none;stroke:#5F4CA4;}
	.st1{fill:#D7D6F2;}
	.st2{fill:#5F4CA4;}
	.st3{fill:#FFFFFF;}
	.st4{fill:none;stroke:#FFFFFF;}
	.st5{fill:#16A286;}
	.st6{fill:none;stroke:#111B2A;}
	.st7{fill:#D7D6F2;stroke:#111B2A;}
	.st8{fill:#FFFFFF;stroke:#111B2A;}
	.st9{fill:#111B2A;}
	.st10{fill:#9F9FCE;}
	.st11{fill:none;stroke:#111B2A;stroke-width:2;stroke-linecap:round;}
	.st12{fill:#F7B036;}
	.st13{fill:#86D7FF;}
	.st14{fill:#CCEEFF;}
	.st15{fill:#00A7FF;}
	.st16{fill:#60C9FF;}
	.st17{fill:#A1E0FF;}
</style>
<g id="Group_16">
	<path id="Rectangle_Copy_93" class="st0" d="M1154.6-97.5H727.8l-27.1-282.7h426.8L1154.6-97.5z"/>
	<path id="Rectangle" class="st1" d="M1167.3-113.8H740.5l-27.1-282.7h426.8L1167.3-113.8z"/>
	<path id="Rectangle_2" class="st2" d="M757.1-164.6h118.7l-6.3-56.2H750.8L757.1-164.6z"/>
	<path id="Rectangle_Copy_90" class="st2" d="M889.4-199.9h118.7l-6.3-56.2H883.1L889.4-199.9z"/>
	<path id="Rectangle_Copy_92" class="st3" d="M897.6-131h118.7l-6.3-56.2H891.2L897.6-131z"/>
	<path id="Rectangle_Copy_91" class="st4" d="M1025.4-199.9h118.7l-6.3-56.2H1019L1025.4-199.9z"/>
	<path id="Rectangle_Copy_94" class="st4" d="M1032.6-132.9h118.7l-5.4-49.8h-118.7L1032.6-132.9z"/>
	<path id="Rectangle_Copy_95" class="st4" d="M760.8-132.9h118.7l-1.8-18.1H758.9L760.8-132.9z"/>
	<path id="Rectangle_Copy_31" class="st4" d="M1129.6-344.9H738l-2-18.1h391.5L1129.6-344.9z"/>
	<g id="Group_51">
		<g id="Group_45">
			<g id="Group_17_Copy_2">
				<path id="Rectangle_Copy_32" class="st4" d="M845.3-255.6H833l-0.9-8.7h12.3L845.3-255.6z"/>
				<path id="Rectangle_3" class="st4" d="M851.4-251.9h-83.7l-1.7-16.2h83.7L851.4-251.9z"/>
				<path id="Path_53" class="st4" d="M793.7-263.7h32.8"/>
				<path id="Path_53_Copy" class="st4" d="M775-258.7h51.6"/>
			</g>
			<g id="Group_17">
				<path id="Rectangle_Copy_32_x5F_2" class="st4" d="M840.3-303.1H828l-0.9-8.7h12.3L840.3-303.1z"/>
				<path id="Rectangle_4_1_" class="st4" d="M846.4-299.3h-83.7l-1.7-16.2h83.7L846.4-299.3z"/>
				<path id="Path_53_x5F_2" class="st4" d="M788.7-311.2h32.8"/>
				<path id="Path_53_Copy_x5F_2" class="st4" d="M770-306.2h51.6"/>
			</g>
			<g id="Group_17_Copy">
				<path id="Rectangle_Copy_32_x5F_3" class="st4" d="M842.8-279.4h-12.3l-0.9-8.7h12.3L842.8-279.4z"/>
				<path id="Rectangle_5" class="st4" d="M848.9-275.6h-83.7l-1.7-16.2h83.7L848.9-275.6z"/>
				<path id="Path_53_x5F_3" class="st4" d="M791.2-287.5h32.8"/>
				<path id="Path_53_Copy_x5F_3" class="st4" d="M772.5-282.5h51.6"/>
			</g>
		</g>
	</g>
	<path id="Rectangle_6" class="st5" d="M1137.7-271.5h-119.5l-6.6-59.8h119.5L1137.7-271.5z"/>
	<path id="Rectangle_Copy_30" class="st4" d="M1001.8-271.5H882.2l-6.6-59.8h119.5L1001.8-271.5z"/>
	<path id="Rectangle_Copy_31_x5F_2" class="st4" d="M869.5-235.3H749.9l-10.2-96.1h119.5L869.5-235.3z"/>
	<path id="Path_52" class="st6" d="M714.3-380.5h427"/>
	<path id="Oval" class="st6" d="M1133.4-390.4c-0.5-1.4-1.9-2.2-3.1-1.8c-1.2,0.4-1.7,1.9-1.2,3.3s1.9,2.2,3.1,1.8
		C1133.4-387.5,1134-389,1133.4-390.4z"/>
	<path id="Oval_Copy_2" class="st6" d="M1124.4-390.4c-0.5-1.4-1.9-2.2-3.1-1.8c-1.2,0.4-1.7,1.9-1.2,3.3s1.9,2.2,3.1,1.8
		C1124.4-387.5,1124.9-389,1124.4-390.4z"/>
	<path id="Oval_Copy_3" class="st6" d="M1115.3-390.4c-0.5-1.4-1.9-2.2-3.1-1.8s-1.7,1.9-1.2,3.3c0.5,1.4,1.9,2.2,3.1,1.8
		C1115.3-387.5,1115.8-389,1115.3-390.4z"/>
</g>
<path id="Rectangle_7" class="st7" d="M1185.7,23H740.8L686.5,3.1h444.9L1185.7,23z"/>
<g id="man">
	<g id="Group_2">
		<path id="Path_15" class="st8" d="M1114.8-7.8l1.2,10.9c0,0,1.8,4.5,6.3,4.5s7.4-4.5,7.4-4.5l-0.9-9.6L1114.8-7.8z"/>
		<path id="Path_16" class="st9" d="M1123.8,5.7c-3.6,0.7-8-3.7-8-3.7l-14.3,10.3h29.8L1129.7,2C1129.7,2,1127.4,5,1123.8,5.7z"/>
	</g>
	<g id="Group_2_Copy_2">
		<path id="Path_15_x5F_2" class="st8" d="M1066.4-7.8l-1.1,10.9c0,0,1.8,4.5,6.3,4.5c4.5,0,7.4-4.5,7.4-4.5l1.4-9.6L1066.4-7.8z"/>
		<path id="Path_16_x5F_2" class="st9" d="M1073.1,5.7c-3.6,0.7-8-3.7-8-3.7l-14.3,10.3h29.8L1078.9,2C1078.9,2,1076.6,5,1073.1,5.7
			z"/>
	</g>
	<path id="Path_99" class="st8" d="M1126.2-229.5l1.7,9c1.7,9,0.3,18.4-4.2,26.4l-22,45.2c0,0-3.2,6.6-7.4,9.4
		c-4.3,2.8-11.6,3.3-14.7,0.2c-2.2,1.5-6.4-0.3-6.4-0.3l11.3-10.8l-3.4-3.2c3.6-2.3,11.6-2.1,11.6-2.1l17.7-56.6l-1.6-14.9
		L1126.2-229.5z"/>
	<path id="Rectangle_Copy_88" class="st10" d="M1086.4-186.7l-121.7,12.8l-8.3-50.5l121.7-12.8L1086.4-186.7z"/>
	<path id="Path_37" class="st8" d="M1078.7-199l-5.3,35.8l-8.2,158.1h22.4l15.2-112.3l8.7,112.3h25.3c0,0-6.6-146.3-6.6-161.5
		s-6.5-32.4-6.5-32.4H1078.7z"/>
	<g id="Group_37">
		<g id="Group_10">
			<path id="Path_32" class="st9" d="M1073.1-308.5c0,0-7.6-8.2,2.1-16.1c9.7-7.9,29-3.1,29.7,3.8c5.2-2,7.2,5.8,5.5,12.1
				c-1.7,6.3-7.2,25.6-9.1,25.8C1099.4-282.7,1073.1-308.5,1073.1-308.5z"/>
			<path id="Path" class="st8" d="M1079.4-306.9c3.4,4.2,8.5,4,11,5.1c0.7,0.3,0.5,8.1,2.2,8.1c1.8,0.1,1.3-4,1.3-4l1.9-2.2
				c1.9-2.2,5.3-1.8,6.7,0.7c1.3,2.3,0.1,5.2-2.4,5.9l-2.5,0.7c0.5,4.5,3.6,9.7,3.6,9.7l4.3,21.4l-16,2.3l-3.3-17.6l-3.3,0.3
				c-3.7,0.4-7.1-2.1-7.8-5.7l-1.4-6.8c0,0-1.4,0-2.3-0.9c-0.9-0.9,1.3-3.5,1.3-3.5s0.9-2.4,0-10.3c-0.8-7.8,2.8-11.9,2.8-11.9
				S1076-311.1,1079.4-306.9z"/>
			<path id="Path_8" class="st9" d="M1086.6-277.2c0.9-0.1,3.3-1.8,3.3-1.8l-2.9,5.6C1087-273.3,1085.7-277.1,1086.6-277.2z"/>
			<path id="Path_9" class="st6" d="M1097.4-295c2-1.1,0.9-3.9,0.9-3.9"/>
			<path id="Oval_2" class="st9" d="M1077.2-299.3c-0.1-0.6-0.5-1.1-0.9-1c-0.4,0-0.7,0.6-0.6,1.2c0.1,0.6,0.5,1.1,0.9,1
				C1076.9-298.1,1077.2-298.7,1077.2-299.3z"/>
			<path id="Path_21" class="st11" d="M1074.5-302.5c1.5-1.5,3.8-0.4,3.8-0.4"/>
			<path id="Path_23" class="st9" d="M1079.1-287.7c-0.6,2.5-3.1,3.4-3.1,3.4l-0.7-3L1079.1-287.7z"/>
		</g>
		<path id="Rectangle_8" class="st5" d="M1092.3-196.6l-121.7,12.8l-8.3-50.5l121.7-12.8L1092.3-196.6z"/>
		<path id="Path_4" class="st8" d="M1107.3-221.3l20.8-4.5l-6.2-29.5c-1.1-5.4-6.3-8.9-11.7-8c-5.7,0.9-9.5,6.3-8.5,12L1107.3-221.3
			z"/>
		<path id="Path_2" class="st8" d="M1086.1-266.4l-5.8,7c-2.9,3.5-4.5,7.9-4.6,12.4l-0.4,23.2l3.3,31.1l40.5-5.3
			c11.7-1.5,4.3-29.1,4.3-29.1s2.7-25.8-3.5-33c-6.2-7.1-24.1-7.4-24.1-7.4L1086.1-266.4z"/>
		<path id="Path_10" class="st9" d="M1076.4-208.8l1.2,14l-1.2,7.1c5.6-3.7,9.6-9.4,11.1-16l8.6-38.8L1076.4-208.8z"/>
		<path id="Rectangle_9" class="st8" d="M1107.3-266.3l-23.4,2.5c-0.3-3.3,2.1-6.3,5.4-6.6l16.3-1.7c0.6-0.1,1.2,0.4,1.2,1
			L1107.3-266.3z"/>
		<path id="Path_99_x5F_2" class="st8" d="M1083.1-218.9l-4.9,12.9c-2.1,5.4-6,10-11.1,12.8c-3,1.7-6.3,2.7-9.7,3l-56.7,5.5
			c0,0-6.1,3.9-11.2,4.1c-5.1,0.2-11.1,2.5-12.2-1.6c-2.7,0.1-3.8-1.7-3.8-1.7l13.3-10.6l-6.5,0.8c-0.9,0.1-1.6-0.6-1.6-1.4
			c0-0.6,0.4-1.2,1-1.4l6.8-2.3c4.8-1.8,10,4,10,4l64.1-17.6l6.4-13.1L1083.1-218.9z"/>
		<path id="Path_100" class="st6" d="M1065.7-209.6l-5.4-3.1"/>
		<path id="Path_4_x5F_2" class="st8" d="M1065.1-225.4l19.5,8.6l12.3-27.5c2.2-5,0.2-10.9-4.7-13.3c-5.1-2.6-11.4-0.5-13.9,4.7
			L1065.1-225.4z"/>
		<path id="Path_102" class="st6" d="M983-185.7l-5.6,3.6"/>
		<path id="Path_102_Copy" class="st6" d="M986.5-183.7l-6.3,3.6"/>
	</g>
	<path id="Path_39" class="st6" d="M1115.1-5.1l-10-126.9"/>
	<path id="Path_40" class="st6" d="M1067.9-5.1l17.2-188.5"/>
	<path id="Path_41" class="st9" d="M1108.6-153.6l-6.2,36.6l2.6,24.9l6.5-62.5L1108.6-153.6z"/>
	<path id="Path_38" class="st6" d="M1120.5-163.7c-3.1,7.7-12.1,10.1-12.1,10.1l-6,36.1"/>
</g>
<g id="woman_2">
	<g id="woman">
		<path id="Rectangle_Copy_89" class="st10" d="M867.7-256.1h118.7l-6.3-56.2H861.3L867.7-256.1z"/>
		<path id="Path_14" class="st8" d="M834.6-218l7.2,0.8c9.5,1.1,18.5-4.7,21.3-13.9l9.3-29.7c0,0,6.7-7.4,7-9.9
			c0.7-5.4-4-15.6-9.1-12.2c-1.7,1.1-7.5,17.9-7.5,17.9L845-231.5l-5.1-0.9L834.6-218z"/>
		<path id="Rectangle_10" class="st8" d="M874-265.2h118.7l-6.3-56.2H867.7L874-265.2z"/>
		<g id="Group_81">
			<path id="Path_17_Copy_7" class="st6" d="M883.1-307.3h63.4"/>
			<path id="Path_17_Copy_8" class="st6" d="M910.3-300.9h36.2"/>
			<path id="Path_17_Copy_11" class="st6" d="M893.1-293.7h54.4"/>
			<path id="Rectangle_Copy_37" class="st12" d="M979.1-296h-20.3l-1.5-14.5h20.3L979.1-296z"/>
		</g>
		<path id="Path_2_1_" class="st9" d="M814-295.5c-2,3.1-3.2,7-3.2,11.1c0,10.7,8,19.4,17.9,19.4c9.9,0,18.8-16.5,18.8-17.2
			c7.9-5.2,8.4-19-1.6-18.8c-3.3-3-8.4-5-14.2-5C822.8-305.9,815.5-301.4,814-295.5z"/>
		<path id="Path_3" class="st8" d="M843.6-286c-3.9,5.7-12,6.9-12,6.9l-1.9-1.8c-1.9-1.8-5.1-1.1-6.1,1.3c-0.9,2.2,0.4,4.7,2.8,5.2
			l2.3,0.4c0,4.1-2.4,9.2-2.4,9.2l-1.9,19.9l14.7,0.6l1.3-16.4c4.9,0.2,9.1-3.3,9.7-8.1l0.5-4.2c0,0,1.3-0.1,2-1.1
			c0.7-0.9-1.5-3.1-1.5-3.1s-1-2.2-1-9.4c0-7.2-3.7-10.6-3.7-10.6S847.5-291.6,843.6-286z"/>
		<path id="Oval_3" class="st9" d="M794.4-295.5c0-5.8,4.5-10.4,10.1-10.4s10.1,4.7,10.1,10.4c0,5.8-4.5,10.4-10.1,10.4
			S794.4-289.7,794.4-295.5z"/>
		<path id="Path_4_x5F_3" class="st8" d="M836.4-213.9l-17,9.8l-14-24c-2.5-4.4-1.2-9.9,3-12.7c4.4-2.9,10.4-1.5,13.2,3L836.4-213.9
			z"/>
		<path id="Path_2_x5F_2" class="st8" d="M839-250c0,0,17.3,16.8,19.7,25.5c2.4,8.7-5.8,12.5-5.8,12.5v28.8h-36.7
			c-3.2-4.1,0-10.5,0-10.5l-5.4-21.8c0,0-6.4-23.1-0.8-26.7c6.2-6.6,20.2-7.8,20.2-7.8H839z"/>
		<g id="Group_2_x5F_2">
			<path id="Path_15_x5F_3" class="st8" d="M843-8.8l-1.1,10.6c0,0-1.7,4.4-6.1,4.4c-4.4,0-7.2-4.4-7.2-4.4l0.9-9.3L843-8.8z"/>
			<path id="Path_16_x5F_3" class="st9" d="M834.2,4.3c3.5,0.7,7.8-3.6,7.8-3.6l13.8,10h-28.9l1.7-10C828.5,0.8,830.8,3.6,834.2,4.3
				z"/>
		</g>
		<g id="Group_2_Copy">
			<path id="Path_15_x5F_4" class="st8" d="M799.8-11.9l-3.5,10.1c0,0-2.7,3.9-6.9,2.9c-4.3-1-6-5.9-6-5.9l2.9-8.8L799.8-11.9z"/>
			<path id="Path_16_x5F_4" class="st9" d="M788.3-1.1c3.2,1.4,8.4-1.7,8.4-1.7s3,7,5.4,9.7c4.6,1.1,5.5,3.8,5.5,3.8l-7.7-0.3
				l-20.1-6.9l3.9-9.4C783.6-5.9,785.1-2.6,788.3-1.1z"/>
		</g>
		<path id="Path_3_1_" class="st8" d="M852.8-185.8c0,0,4.2,53.6,2.5,73.8C853.6-91.9,843-8.1,843-8.1c-9.9,2.7-21.5,0-21.5,0
			l6.3-72.2v-13.3c0,0-2.9,10.9-6.3,22.6c-3.4,11.7-22.2,62.9-22.2,62.9c-11,0-19.6-5.5-19.6-5.5l19.6-75.2c0,0,1-30.2,2.8-54.6
			c1.8-24.4,13.7-40.6,13.7-40.6L852.8-185.8z"/>
		<path id="Path_10_x5F_2" class="st9" d="M852.9-210.2l0.4,19.6l-7.5-7L832-238.8L852.9-210.2z"/>
		<path id="Rectangle_11" class="st8" d="M819.7-247.8h21.6c0-2.9-2.3-5.2-5.2-5.2h-15.3c-0.6,0-1,0.5-1,1V-247.8z"/>
		<g id="Group_30">
			<g id="Group">
				<g id="Path_4_1_">
					<path class="st3" d="M907.6-265l-36,46.8l-8-7.2l-9.6,15.5l10.6,8.8c3.7,3,8.6,3.9,13.1,2.2c4.6-1.7,8.4-5.1,10.5-9.6
						l22.2-45.8c6.8-2.3,11.5-5.9,14-10.7"/>
					<path class="st6" d="M907.6-265l-36,46.8l-8-7.2l0,0l-9.6,15.5l10.6,8.8c3.7,3,8.6,3.9,13.1,2.2l0,0c4.6-1.7,8.4-5.1,10.5-9.6
						l22.2-45.8c6.8-2.3,11.5-5.9,14-10.7"/>
				</g>
			</g>
			<path id="Path_4_x5F_4" class="st8" d="M867.6-223.2L854-209.1l-20-19.3c-3.6-3.5-3.9-9.2-0.6-13c3.5-4,9.6-4.3,13.5-0.8
				L867.6-223.2z"/>
		</g>
		<path id="Path_8_x5F_2" class="st9" d="M840.4-261l-3.6-1l3.3,4.7L840.4-261z"/>
		<path id="Path_9_x5F_2" class="st6" d="M828.5-276.3c-2.3-0.8-1.4-3.2-1.4-3.2"/>
		<path id="Path_11" class="st6" d="M812.1-144.2c3.7,5,10,7.8,10,7.8l5.5,30.2v12.5"/>
		<path id="Path_12" class="st6" d="M840.6-7.8l9.4-97.9c0.3-3.1,0.4-6.2,0.2-9.4l-4.3-70.8"/>
		<path id="Path_13" class="st6" d="M796.8-7.8c0,0,19.9-62.8,24.1-79.6c4.2-16.8,3.1-38.4,3.1-38.4"/>
		<path id="Path_20" class="st9" d="M827.7-93.7v-13.8l-4.9-24.7l1.4,50.9L827.7-93.7z"/>
		<path id="Oval_4" class="st9" d="M846.5-281.7c0-0.6,0.3-1.1,0.7-1.1c0.4,0,0.7,0.5,0.7,1.1c0,0.6-0.3,1.1-0.7,1.1
			C846.8-280.6,846.5-281.1,846.5-281.7z"/>
		<path id="Path_21_x5F_2" class="st11" d="M848.6-285.1c-1.4-1.4-3.4,0-3.4,0"/>
		<path id="Path_22" class="st4" d="M828.5-280.6l16.5-2.2"/>
		<path id="Oval_5" class="st6" d="M845-282.1c0-3.3,1.5-6,3.4-6c1.9,0,3.4,2.7,3.4,6c0,3.3-1.5,6-3.4,6
			C846.5-276.1,845-278.8,845-282.1z"/>
		<path id="Path_23_x5F_2" class="st9" d="M845.8-271.7c0.8,2.4,3.4,3,3.4,3l0.4-3H845.8z"/>
		<g id="Path_161">
			<path class="st3" d="M864.6-269.8c3.3-11,5.7-13,5.7-13l8.5-7c0.9-0.7,2.3-0.6,2.9,0.4c0.5,0.8,0.5,1.8-0.2,2.5l-6,6.3
				c3.3,7.9-3.4,12.6-3.4,12.6"/>
			<path class="st6" d="M864.6-269.8c3.3-11,5.7-13,5.7-13l8.5-7c0.9-0.7,2.3-0.6,2.9,0.4l0,0c0.5,0.8,0.5,1.8-0.2,2.5l-6,6.3
				c3.3,7.9-3.4,12.6-3.4,12.6"/>
		</g>
		<g id="Path_162">
			<path class="st3" d="M910.9-262.5c1.8-4.5,7.5-4.6,7.5-4.6l6.6-7.6c0.4-0.4,1-0.6,1.6-0.5c1,0.2,1.6,1.3,1.2,2.3l-3.6,8.4
				c0,0-2.4,4.5-6.4,6.6"/>
			<path class="st6" d="M910.9-262.5c1.8-4.5,7.5-4.6,7.5-4.6l6.6-7.6c0.4-0.4,1-0.6,1.6-0.5l0,0c1,0.2,1.6,1.3,1.2,2.3l-3.6,8.4
				c0,0-2.4,4.5-6.4,6.6"/>
		</g>
	</g>
</g>
<g>
	<path class="st13" d="M1181.1-108.8c4.7-1.4,9.6,1.2,11,5.9l3,9.7l-1.4,8.3l2.9-3.5L1208-51c1.4,4.7-1.2,9.6-5.9,11
		c-4.7,1.4-9.6-1.2-11-5.9l-4.8-15.7l7.1,1.8l-9.7-10.2l-7.4-24.1l4,0.1l-5.1-3.7l0,0C1173.8-102.4,1176.4-107.3,1181.1-108.8z"/>
	<path class="st14" d="M1202.1-70.1l3.9,12.8c-3,0.1-5.8-1.9-6.8-4.9C1198.3-65.2,1199.6-68.4,1202.1-70.1z M1180-82.1l-3.7-12
		l4,0.1l-2.4-1.8c3.2-0.3,6.3,1.7,7.3,4.9c1.1,3.7-0.9,7.5-4.6,8.7C1180.4-82.2,1180.2-82.1,1180-82.1z"/>
	<path class="st15" d="M1184.6-95.3c-0.1-0.3,0.1-0.6,0.4-0.7c0.3-0.1,0.6,0.1,0.7,0.4l23.3,76.1c0.1,0.3-0.1,0.6-0.4,0.7
		c-0.3,0.1-0.6-0.1-0.7-0.4L1184.6-95.3z"/>
	<path class="st16" d="M1212.4-142.1h2.4c5.9,0,10.7,4.8,10.7,10.7v18.3l-6.6,8.8l6.6-2.5v56.1c0,5.9-4.8,10.7-10.7,10.7h-2.4
		c-5.9,0-10.7-4.8-10.7-10.7v-28.4l6.6,3.8l-6.6-11.3v-41.6l4,2.5l-4-5v-0.7C1201.8-137.4,1206.5-142.1,1212.4-142.1z"/>
	<path class="st13" d="M1225.5-66.3v15.6c0,1-0.1,1.9-0.4,2.9c-4.3-1-7.5-4.7-7.5-9.2C1217.6-61.6,1221-65.4,1225.5-66.3z
		 M1201.8-98.6v-15.1c1.7-1.2,3.7-1.9,5.9-1.9c5.5,0,9.9,4.2,9.9,9.5c0,5.2-4.4,9.5-9.9,9.5C1205.5-96.8,1203.4-97.5,1201.8-98.6z"
		/>
	<path class="st15" d="M1212.4-127v108.4c0,0.7,0.5,1.2,1.2,1.2s1.2-0.5,1.2-1.2V-127c0-0.7-0.5-1.2-1.2-1.2
		S1212.4-127.7,1212.4-127z"/>
	<path class="st17" d="M1260.9-115.4c4.7,1.3,7.5,6.1,6.2,10.8l-2.9,11l-7.8,9.7l5.5-1.1l-11.1,41.5c-1.3,4.7-6.1,7.5-10.8,6.2
		c-4.7-1.3-7.5-6.1-6.2-10.8l3.9-14.6l3,3.4l-1-10.7l10.5-39C1251.3-113.8,1256.2-116.6,1260.9-115.4z"/>
	<path class="st13" d="M1255-59.4l-2.6,9.8c-1.2,0.5-2.6,0.6-4,0.2c-3.4-0.9-5.4-4.4-4.5-7.7c0.9-3.4,4.4-5.4,7.7-4.5
		C1253.1-61.3,1254.2-60.5,1255-59.4z M1245.6-92.5l2.1-7.7c0.6-0.1,1.3-0.1,1.9,0.1c2.4,0.6,3.7,3.1,3.1,5.4
		c-0.6,2.4-3.1,3.8-5.4,3.1C1246.7-91.7,1246.1-92.1,1245.6-92.5z"/>
	<path class="st15" d="M1257.2-103.9c0.1-0.3,0.4-0.5,0.7-0.4c0.3,0.1,0.5,0.4,0.4,0.7L1235-16.5c-0.1,0.3-0.4,0.5-0.7,0.4
		c-0.3-0.1-0.5-0.4-0.4-0.7L1257.2-103.9z"/>
	<path class="st15" d="M1237.9-32.1c0.9-1.2,2.4-2,4-2c2.8,0,5,2.1,5,4.8s-2.2,4.8-5,4.8c-2.2,0-4-1.3-4.7-3.1c-0.9,1.2-2.4,2-4,2
		s-3.1-0.8-4-2c-0.7,1.8-2.5,3.1-4.7,3.1c-2.5,0-4.6-1.8-4.9-4c-0.9,1-2.3,1.7-3.8,1.7s-2.9-0.6-3.8-1.7c-0.4,2.3-2.4,4-4.9,4
		c-1.6,0-3-0.7-3.9-1.8c-0.7,0.4-1.5,0.6-2.4,0.6c-2.8,0-5-2.1-5-4.8c0-2.6,2.2-4.8,5-4.8c1.6,0,3,0.7,3.9,1.8
		c0.7-0.4,1.5-0.6,2.4-0.6c1.5,0,2.9,0.6,3.8,1.7c0.4-2.3,2.4-4,4.9-4s4.6,1.8,4.9,4c0.9-1,2.3-1.7,3.8-1.7c1.7,0,3.1,0.8,4,2
		c0.7-1.8,2.5-3.1,4.7-3.1C1235.4-35.2,1237.2-33.9,1237.9-32.1z"/>
	<path class="st15" d="M1227.4-28.1c-0.9-44.5,7-84.4,23.6-119.7c0.1-0.3,0-0.7-0.3-0.8c-0.3-0.1-0.7,0-0.8,0.3
		c-16.7,35.5-24.6,75.5-23.8,120.3c0,0.3,0.3,0.6,0.6,0.6C1227.1-27.5,1227.4-27.8,1227.4-28.1z"/>
	<path class="st13" d="M1189.9-30.5h63L1244,23h-44.1L1189.9-30.5z"/>
	<path class="st14" d="M1248.1-1.9l-1,6.2h-50.7l-1.2-6.2H1248.1z"/>
	<path class="st16" d="M1183.9-30.5h74.8l-3.7,11.9h-67.4L1183.9-30.5z"/>
	<path class="st13" d="M1245.4-138.6c0,0-2.6-3.5-5.2-3.5c-2.6,0-3.2-2.3-2.6-3.5c1.3-2.3,3.9-1.2,5.2,0
		C1247.1-141.7,1245.4-138.6,1245.4-138.6z"/>
	<path class="st13" d="M1246.4-134.2c0,0,0-3.8,5.6-5.7c1.7-0.6,4.5-0.6,4.5,2.2c0,1.4-1.7,3.4-3.9,2.3
		C1250.3-136.5,1246.4-134.2,1246.4-134.2z"/>
	<path class="st13" d="M1251.6-145.3c0,0,0.1-3.1,4.5-4.8c1.3-0.5,3.6-0.6,3.5,1.7c0,1.2-1.4,2.9-3.1,2
		C1254.7-147.3,1251.6-145.3,1251.6-145.3z"/>
	<path class="st13" d="M1247.9-146.9c0,0-1.3-3.5-3.2-3.9s-2-2.5-1.3-3.5c1.4-1.9,3.1-0.5,3.8,0.7
		C1249.7-149.5,1247.9-146.9,1247.9-146.9z"/>
	<path class="st13" d="M1250.5-150.5c1.3-6.5,3.3-9.2,6-8.1C1259.1-157.5,1257.1-154.8,1250.5-150.5z"/>
</g>
<path class="st13" d="M671.7-18.4c0-60.8,7-95.3,20.7-103.1l-1-1.8c-14.6,8.3-21.7,43.2-21.7,104.8H671.7z"/>
<path class="st13" d="M669.7-18.4C669-81.2,663.9-121,654.4-138l-1.8,1c9.3,16.6,14.3,56.2,15,118.6L669.7-18.4z"/>
<path class="st13" d="M669.3-29.8c0.4-0.6,0.8-1.1,1.2-1.6c16.3-19.9,36.6-16.6,37.4-4.2c0.8,11.9-10.4,4.1-33.4,15.7l0,0
	c-0.2,0.1-0.4,0.2-0.7,0.3c-0.8,0.4-1.7,0.9-2.5,1.4c-0.6,0.3-1.1,0.6-1.6,1c0,0,0,0,0,0l0,0l0,0c0,0,0,0,0,0
	c-0.8-0.5-1.7-1-2.6-1.5c-25.3-13.9-37.6-4.9-36.8-17.1c0.8-12.2,21.3-15.5,37.6,4.1C668.4-31.1,668.9-30.5,669.3-29.8z"/>
<path class="st16" d="M702.9-43.7c2.9,1.7,4.8,4.6,5,8.2c0,0.2,0,0.5,0,0.7c-9.8,2.1-22.6,7.2-38.4,15.5
	c-17.3-9.8-30.5-14.9-39.4-15.3c0-0.3,0-0.7,0-1c0.2-3.4,2-6.1,4.7-7.8c12.3,1.8,26.1,12,34.6,22.2
	C676.8-33.1,689.4-40.8,702.9-43.7z"/>
<path class="st13" d="M670.3-27.9c-0.2,0.3-0.4,0.5-0.6,0.5c-0.2,0-0.4-0.1-0.6-0.4c-1.7-1.9-3.5-3.7-5.6-5.4
	c-18.1-15.1-29.5-10.1-26.8-19.5c2.8-9.4,19.8-8.6,29.7,9.5c1,1.9,2.1,4.7,3.2,8.5c1.1-4,2.2-7,3.3-9c9.9-18.6,26.9-19.5,29.7-9.8
	c2.8,9.7-8.7,4.6-26.8,20.2C673.7-31.7,671.9-29.9,670.3-27.9z"/>
<path class="st16" d="M637-53.6c1.3-3.3,4.5-5.1,8.4-5.2c10.2,6.2,19.9,20.1,24.2,30.3c6-12.1,15.6-25.1,26.6-31
	c3,0.7,5.3,2.7,6.2,5.6c-14.2,4.9-25.1,13.7-32.8,26.4C660.3-41.5,649.4-50.2,637-53.6z"/>
<path class="st17" d="M655,23c-2.6,0-4.9-1.6-5.7-4l-13.5-38.4c-0.1-0.3-0.2-0.7-0.2-1c0-1.7,1.4-3,3-3h60.1c0.3,0,0.7,0.1,1,0.2
	c1.6,0.6,2.4,2.3,1.9,3.9L688,19c-0.9,2.4-3.1,4-5.7,4H655z"/>
<path class="st16" d="M636.3-12.3l-3.1-6.8c-0.2-0.4-0.3-0.8-0.3-1.2c0-1.7,1.4-3,3-3h64.7c0.4,0,0.7,0.1,1.1,0.2
	c1.6,0.6,2.4,2.3,1.8,3.9l-2.6,7H636.3z"/>
<path class="st16" d="M693.9-118.3c3.3,0,6.1-2.7,6.1-6.1c0-3.3-2.7-6.1-6.1-6.1s-6.1,2.7-6.1,6.1
	C687.8-121,690.5-118.3,693.9-118.3z"/>
<path class="st16" d="M652.5-133.5c3.3,0,6.1-2.7,6.1-6.1c0-3.3-2.7-6.1-6.1-6.1c-3.3,0-6.1,2.7-6.1,6.1
	C646.4-136.2,649.1-133.5,652.5-133.5z"/>
<path class="st16" d="M686.2-110.4c-1.5-0.7-2.5-1.9-2.1-2.7c0.4-0.8,1.9-0.8,3.4-0.1c1.5,0.7,2.5,1.9,2.1,2.7
	C689.2-109.7,687.7-109.7,686.2-110.4z"/>
<path class="st16" d="M681.3-102.2c-1.6-0.5-2.6-1.6-2.4-2.4c0.3-0.8,1.8-1,3.4-0.4c1.6,0.5,2.6,1.6,2.4,2.4
	C684.4-101.9,682.9-101.7,681.3-102.2z"/>
<path class="st16" d="M683.2-117.4c-1.6-0.6-2.6-1.7-2.3-2.5s1.8-0.9,3.4-0.3c1.6,0.6,2.6,1.7,2.3,2.5
	C686.3-117,684.8-116.8,683.2-117.4z"/>
<path class="st16" d="M679.2-110.3c-1.6-0.6-2.6-1.8-2.2-2.5c0.3-0.8,1.8-0.9,3.4-0.3c1.6,0.6,2.6,1.8,2.2,2.5
	C682.2-109.8,680.7-109.7,679.2-110.3z"/>
<path class="st16" d="M661-128.5c-1.6,0.5-3.1,0.2-3.3-0.6c-0.2-0.8,0.9-1.8,2.5-2.3c1.6-0.5,3.1-0.2,3.3,0.6
	C663.7-130,662.6-128.9,661-128.5z"/>
<path class="st16" d="M655.9-122.4c-1.6,0.5-3.1,0.2-3.3-0.6c-0.2-0.8,0.9-1.8,2.5-2.3c1.6-0.5,3.1-0.2,3.3,0.6
	C658.7-123.9,657.5-122.9,655.9-122.4z"/>
<path class="st16" d="M654.9-129.8c-1.1,0.3-2.1,0.1-2.2-0.4c-0.2-0.5,0.6-1.2,1.7-1.5c1.1-0.3,2.1-0.1,2.2,0.4
	C656.7-130.7,656-130.1,654.9-129.8z"/>
<path class="st16" d="M663-119.4c-1.6,0.5-3.1,0.2-3.3-0.6c-0.2-0.8,0.9-1.8,2.5-2.3c1.6-0.5,3.1-0.2,3.3,0.6
	C665.7-120.9,664.6-119.8,663-119.4z"/>
<path class="st16" d="M659-113.3c-1.6,0.5-3.1,0.2-3.3-0.6c-0.2-0.8,0.9-1.8,2.5-2.3c1.6-0.5,3.1-0.2,3.3,0.6
	C661.7-114.8,660.6-113.8,659-113.3z"/>
</svg>
