<?xml version="1.0" encoding="utf-8"?>
<!-- Generator: Adobe Illustrator 19.0.0, SVG Export Plug-In . SVG Version: 6.00 Build 0)  -->
<svg version="1.1" id="Layer_1" xmlns="http://www.w3.org/2000/svg" xmlns:xlink="http://www.w3.org/1999/xlink" x="0px" y="0px"
	 width="647.5px" height="425.4px" viewBox="626.5 -402.4 647.5 425.4" style="enable-background:new 626.5 -402.4 647.5 425.4;"
	 xml:space="preserve">
<style type="text/css">
	.st0{fill:#FFD392;}
	.st1{fill:none;stroke:#EFA9CD;stroke-miterlimit:10;}
	.st2{opacity:0.61;}
	.st3{fill:#C0D1F9;}
	.st4{fill:#361E77;}
	.st5{fill:none;stroke:#361979;stroke-miterlimit:10;}
	.st6{fill:#B4CFEF;stroke:#361979;stroke-miterlimit:10;}
	.st7{fill:#5F4CA4;}
	.st8{fill:#FFFFFF;}
	.st9{fill:#3B2E7C;}
	.st10{fill:#EBF2FF;stroke:#361979;stroke-miterlimit:10;}
	.st11{opacity:0.64;fill:#8CA4D3;enable-background:new    ;}
	.st12{fill:none;stroke:#361979;stroke-linecap:round;stroke-linejoin:round;}
	.st13{fill:none;stroke:#361979;stroke-linecap:round;stroke-linejoin:round;stroke-dasharray:5.939,5.939;}
	.st14{fill:none;stroke:#361979;stroke-linecap:round;stroke-linejoin:round;stroke-dasharray:5.9984,5.9984;}
	.st15{fill:#8CA4D3;}
	.st16{opacity:0.5;fill:#C0D1F9;enable-background:new    ;}
	.st17{fill:none;stroke:#C0D1F9;stroke-miterlimit:10;stroke-dasharray:6;}
	.st18{fill:#A4B8E0;}
	.st19{fill:#FFFFFF;stroke:#361979;stroke-miterlimit:10;}
	.st20{opacity:0.54;}
	.st21{fill:#FFFFFF;stroke:#361979;stroke-linecap:round;stroke-linejoin:round;stroke-miterlimit:10;stroke-dasharray:6;}
	.st22{fill:#D7D6F2;}
	.st23{fill:#FFFFFF;stroke:#111B2A;}
	.st24{fill:none;stroke:#111B2A;}
	.st25{fill:#111B2A;}
	.st26{fill:none;stroke:#111B2A;stroke-width:2;stroke-linecap:round;}
	.st27{fill:none;stroke:#FFFFFF;}
	.st28{fill:#86D7FF;}
	.st29{fill:#CCEEFF;}
	.st30{fill:#00A7FF;}
	.st31{fill:#60C9FF;}
	.st32{fill:#A1E0FF;}
</style>
<g>
	<g>
		<polygon class="st0" points="1122.5,-347.9 1070.7,-347.9 1073.6,-358.4 1125.3,-358.4 		"/>
		<polygon class="st1" points="1118.4,-333.1 1066.6,-333.1 1069.5,-343.6 1121.3,-343.6 		"/>
		<polygon class="st1" points="1114.3,-318.3 1062.5,-318.3 1065.4,-328.8 1117.2,-328.8 		"/>
	</g>
	<g class="st2">
		<polygon class="st3" points="779.3,-28.8 754.8,-28.8 778.6,-121.9 803.2,-121.9 		"/>
		<polygon class="st3" points="811.8,-28.8 787.1,-28.8 814.8,-136.6 839.4,-136.6 		"/>
		<polygon class="st3" points="844.7,-28.8 820.2,-28.8 853.7,-159.5 878.2,-159.5 		"/>
	</g>
	<g>
		<g>
			<path class="st4" d="M827.4-222.8c0.1-0.2,0.2-0.5,0.6-0.5l63,0.4c0.2,0,0.5,0.2,0.4,0.5c0,0.2-0.2,0.5-0.6,0.5l-63-0.4
				C827.5-222.2,827.4-222.4,827.4-222.8C827.4-222.6,827.4-222.8,827.4-222.8z"/>
		</g>
		<g>
			<path class="st4" d="M822.5-222.8c0.4-1.7,2-3,3.6-3c0.7,0,1.4,0.4,1.8,1s0.5,1.3,0.4,2.2c-0.4,1.7-2,3-3.6,3
				c-0.7,0-1.4-0.4-1.8-1C822.5-221.2,822.3-221.9,822.5-222.8z M827.3-222.8c0.1-0.5,0.1-1-0.2-1.3c-0.2-0.4-0.7-0.6-1.2-0.6
				c-1.1,0-2.2,1-2.5,2c-0.1,0.5-0.1,1,0.2,1.3c0.2,0.4,0.7,0.6,1.2,0.6C825.9-220.7,827-221.6,827.3-222.8z"/>
		</g>
		<g>
			<path class="st4" d="M828.9-152.8c0.1-0.2,0.2-0.5,0.6-0.5l43.8,0.2c0.2,0,0.5,0.2,0.4,0.5c0,0.2-0.2,0.5-0.6,0.5l-43.8-0.2
				C829.2-152.2,828.9-152.4,828.9-152.8L828.9-152.8z"/>
		</g>
		<g>
			<path class="st4" d="M824.1-152.8c0.2-1,1-1.9,1.9-2.5c0.8-0.5,1.7-0.6,2.4-0.4c0.6,0.2,1.2,0.7,1.3,1.3c0.5,1.4-0.4,3.2-1.8,4.2
				l0,0l0,0l0,0c-0.8,0.5-1.7,0.6-2.4,0.4c-0.6-0.2-1.2-0.7-1.3-1.3C824-151.7,824-152.2,824.1-152.8z M828.8-152.8
				c0.1-0.4,0.1-0.7,0-1.1c-0.1-0.4-0.5-0.7-0.8-0.8c-0.5-0.1-1.1,0-1.6,0.2c-1.1,0.6-1.7,1.8-1.3,2.8c0.1,0.4,0.5,0.7,0.8,0.8
				c0.5,0.1,1.1,0,1.6-0.2l0,0C828.2-151.5,828.7-152.1,828.8-152.8z"/>
		</g>
		<g>
			<path class="st4" d="M842.2-95.7c0.2-1,1-1.9,1.9-2.5c0.8-0.5,1.7-0.6,2.4-0.4c0.6,0.2,1.2,0.7,1.3,1.3c0.5,1.4-0.4,3.2-1.8,4.2
				l0,0l0,0l0,0c-0.8,0.5-1.7,0.6-2.4,0.4c-0.6-0.2-1.2-0.7-1.3-1.3C842-94.6,842-95.2,842.2-95.7z M847-95.7c0.1-0.4,0.1-0.7,0-1.1
				c-0.1-0.4-0.5-0.7-0.8-0.8c-0.5-0.1-1.1,0-1.6,0.2c-1.1,0.6-1.7,1.8-1.3,2.8c0.1,0.4,0.5,0.7,0.8,0.8c0.5,0.1,1.1,0,1.6-0.2l0,0
				C846.3-94.4,846.7-95.1,847-95.7z"/>
		</g>
		<g>
			<path class="st4" d="M798.6-162.4c0.4-1.7,2-3,3.6-3c0.7,0,1.4,0.4,1.8,1c0.4,0.6,0.5,1.3,0.4,2.2c-0.4,1.7-2,3-3.6,3l0,0
				c-0.7,0-1.4-0.4-1.8-1C798.5-160.8,798.4-161.6,798.6-162.4z M803.5-162.4c0.1-0.5,0.1-1-0.2-1.3c-0.2-0.4-0.7-0.6-1.2-0.6
				c-1.1,0-2.2,1-2.5,2c-0.1,0.5-0.1,1,0.2,1.3c0.2,0.4,0.7,0.6,1.2,0.6l0,0C802-160.4,803.1-161.3,803.5-162.4z"/>
		</g>
		<g>
			<path class="st4" d="M826.4-196.1c0.4-1.7,2-3,3.6-3c0.7,0,1.4,0.4,1.8,1c0.4,0.6,0.5,1.3,0.4,2.2c-0.4,1.7-2,3-3.6,3l0,0
				c-0.7,0-1.4-0.4-1.8-1C826.3-194.4,826.3-195.2,826.4-196.1z M831.2-196c0.1-0.5,0.1-1-0.2-1.3c-0.2-0.4-0.7-0.6-1.2-0.6
				c-1.1,0-2.2,1-2.5,2c-0.1,0.5-0.1,1,0.2,1.3c0.2,0.4,0.7,0.6,1.2,0.6C829.8-193.9,831-194.9,831.2-196z"/>
		</g>
		<g>
			<path class="st4" d="M837.5-210.9c0.4-1.7,2-3,3.6-3c0.7,0,1.4,0.4,1.8,1s0.5,1.3,0.4,2.2c-0.4,1.7-2,3-3.6,3
				c-0.7,0-1.4-0.4-1.8-1C837.4-209.3,837.2-210.1,837.5-210.9z M842.2-210.9c0.1-0.5,0.1-1-0.2-1.3c-0.2-0.4-0.7-0.6-1.2-0.6
				c-1.1,0-2.2,1-2.5,2c-0.1,0.5-0.1,1,0.2,1.3c0.2,0.4,0.7,0.6,1.2,0.6l0,0C840.8-208.8,841.9-209.8,842.2-210.9z"/>
		</g>
		<g>
			<path class="st4" d="M792.2-133.6c0.4-1.7,2-3,3.6-3c0.7,0,1.4,0.4,1.8,1s0.5,1.3,0.4,2.2c-0.4,1.7-2,3-3.6,3l0,0
				c-0.7,0-1.4-0.4-1.8-1C792-132,791.9-132.7,792.2-133.6z M797-133.6c0.1-0.5,0.1-1-0.2-1.3c-0.2-0.4-0.7-0.6-1.2-0.6
				c-1.1,0-2.2,1-2.5,2c-0.1,0.5-0.1,1,0.2,1.3c0.2,0.4,0.7,0.6,1.2,0.6l0,0C795.5-131.5,796.6-132.4,797-133.6z"/>
		</g>
		<g>
			<path class="st4" d="M803.6-162.4c0.1-0.2,0.2-0.5,0.6-0.5h8.2l9.4-7.8c0.1-0.1,0.2-0.1,0.4-0.1l56.1,0.2c0.2,0,0.5,0.2,0.4,0.5
				c0,0.2-0.2,0.5-0.6,0.5l-55.9-0.2l-9.4,7.8c-0.1,0.1-0.2,0.1-0.4,0.1h-8.4C803.7-161.8,803.5-162.1,803.6-162.4
				C803.5-162.4,803.6-162.4,803.6-162.4z"/>
		</g>
		<g>
			<path class="st4" d="M797.1-133.6c0.1-0.2,0.2-0.5,0.6-0.5l35,0.2c0.1,0,0.2,0.1,0.4,0.1l8.4,12.1l24.4,0.1
				c0.2,0,0.5,0.2,0.4,0.5c0,0.2-0.2,0.5-0.6,0.5l-24.5-0.1c-0.1,0-0.2-0.1-0.4-0.1l-8.4-12.1l-34.9-0.2
				C797.2-133,797-133.2,797.1-133.6L797.1-133.6z"/>
		</g>
		<g>
			<path class="st4" d="M847-95.6c0.1-0.2,0.2-0.5,0.5-0.5l11.5-0.1c0.2,0,0.5,0.2,0.4,0.5c0,0.2-0.2,0.5-0.6,0.5l-11.5,0.1
				C847.1-95,847-95.2,847-95.6C847-95.4,847-95.6,847-95.6z"/>
		</g>
		<g>
			<path class="st4" d="M842.3-210.9c0.1-0.2,0.2-0.5,0.6-0.5h10.6c0.1,0,0.2,0.1,0.4,0.1l10.3,14.8h20.2c0.2,0,0.5,0.2,0.4,0.5
				c0,0.2-0.2,0.5-0.6,0.5h-20.4c-0.1,0-0.2-0.1-0.4-0.1L853-210.4h-10.3C842.5-210.3,842.3-210.5,842.3-210.9L842.3-210.9z"/>
		</g>
		<g>
			<path class="st4" d="M831.3-196c0.1-0.2,0.2-0.5,0.6-0.5l32,0.1c0.2,0,0.5,0.2,0.4,0.5c0,0.2-0.2,0.5-0.6,0.5l-32-0.1
				C831.5-195.5,831.3-195.6,831.3-196L831.3-196z"/>
		</g>
	</g>
	<line class="st5" x1="745" y1="-31" x2="1231.2" y2="-31"/>
	<path class="st6" d="M1141.1-31.4H868.5c-4.4,0-6.9-4.6-5.5-10.3l65-267.1c1.4-5.7,6.1-10.3,10.6-10.3h272.7
		c4.4,0,6.9,4.6,5.5,10.3l-65,267.1C1150.3-35.9,1145.6-31.4,1141.1-31.4z"/>
	<g>
		<polygon class="st7" points="797.6,-189.8 738.7,-189.8 767,-279.5 839.6,-279.5 815.7,-203.9 		"/>
		<g>
			<path class="st8" d="M824.9-258.7h-54.5c-0.7,0-1.1-0.5-0.8-1.2l0,0c0.2-0.6,1-1.2,1.6-1.2h54.5c0.7,0,1.1,0.5,0.8,1.2l0,0
				C826.2-259.2,825.5-258.7,824.9-258.7z"/>
			<path class="st8" d="M820.9-246h-54.5c-0.7,0-1.1-0.5-0.8-1.2l0,0c0.2-0.6,1-1.2,1.6-1.2h54.5c0.7,0,1.1,0.5,0.8,1.2l0,0
				C822.2-246.6,821.5-246,820.9-246z"/>
			<path class="st8" d="M803.2-233.3h-40.9c-0.7,0-1.1-0.5-0.8-1.2l0,0c0.2-0.6,1-1.2,1.6-1.2h40.9c0.7,0,1.1,0.5,0.8,1.2l0,0
				C804.7-233.8,803.9-233.3,803.2-233.3z"/>
			<path class="st8" d="M812.8-220.7h-54.5c-0.7,0-1.1-0.5-0.8-1.2l0,0c0.2-0.6,1-1.2,1.6-1.2h54.5c0.7,0,1.1,0.5,0.8,1.2l0,0
				C814.2-221.2,813.4-220.7,812.8-220.7z"/>
			<path class="st8" d="M782.2-208h-27.8c-0.7,0-1.1-0.5-0.8-1.2l0,0c0.2-0.6,1-1.2,1.6-1.2h27.8c0.7,0,1.1,0.5,0.8,1.2l0,0
				C783.6-208.6,782.9-208,782.2-208z"/>
		</g>
		<polygon class="st9" points="797.6,-189.8 802,-203.9 815.7,-203.9 		"/>
		<line class="st5" x1="763.8" y1="-270.1" x2="836.4" y2="-270.1"/>
	</g>
	<path class="st10" d="M1123.7-31.4H851.1c-4.4,0-6.9-4.6-5.5-10.3l65-267.1c1.4-5.7,6.1-10.3,10.6-10.3h272.7
		c4.4,0,6.9,4.6,5.5,10.3l-65,267.1C1132.9-35.9,1128.2-31.4,1123.7-31.4z"/>
	<g>
		<line class="st5" x1="906.1" y1="-290.1" x2="1193.8" y2="-290.1"/>
		<g>
			<path class="st8" d="M1140.1-155.4h-93.3c-2.2,0-3.5-2.3-2.8-5.2l20.2-82.9c0.7-2.9,3-5.2,5.3-5.2h93.3c2.2,0,3.5,2.3,2.8,5.2
				l-20.2,82.9C1144.6-157.8,1142.3-155.4,1140.1-155.4z"/>
			<polygon class="st0" points="1128.5,-204.1 1098,-231.7 1084.6,-176.5 			"/>
		</g>
		<polygon class="st11" points="928.8,-263.9 880.2,-263.9 883.6,-278.3 932.3,-278.3 		"/>
		<polygon class="st11" points="997.4,-263.9 948.8,-263.9 952.3,-278.3 1001,-278.3 		"/>
		<polygon class="st11" points="1066,-263.9 1017.3,-263.9 1020.9,-278.3 1069.5,-278.3 		"/>
		<polygon class="st11" points="1134.5,-263.9 1086,-263.9 1089.5,-278.3 1138.1,-278.3 		"/>
		<g>
			<line class="st5" x1="909.1" y1="-237.5" x2="1043.8" y2="-237.5"/>
			<line class="st5" x1="903.2" y1="-213.3" x2="959" y2="-213.3"/>
			<line class="st5" x1="897.3" y1="-189" x2="1004.3" y2="-189"/>
			<line class="st5" x1="891.5" y1="-164.7" x2="930.3" y2="-164.7"/>
		</g>
		<g>
			<polygon class="st8" points="1023.2,-54.3 866.1,-54.3 886.5,-138.4 1043.7,-138.4 			"/>
			<g>
				<polyline class="st12" points="1024.1,-57.8 1023.2,-54.3 1019.6,-54.3 				"/>
				<line class="st13" x1="1012.5" y1="-54.3" x2="873.3" y2="-54.3"/>
				<polyline class="st12" points="869.7,-54.3 866.1,-54.3 866.9,-57.8 				"/>
				<line class="st14" x1="868.6" y1="-64.8" x2="884.8" y2="-131.4"/>
				<polyline class="st12" points="885.7,-134.9 886.5,-138.4 890.1,-138.4 				"/>
				<line class="st13" x1="897.3" y1="-138.4" x2="1036.6" y2="-138.4"/>
				<polyline class="st12" points="1040,-138.4 1043.7,-138.4 1042.8,-134.9 				"/>
				<line class="st14" x1="1041.1" y1="-127.9" x2="1024.9" y2="-61.3"/>
			</g>
		</g>
		<polygon class="st11" points="1066.6,-116.7 1050.1,-116.7 1055.3,-137.8 1071.7,-137.8 		"/>
		<polygon class="st11" points="1059.5,-85.8 1043.2,-85.8 1048.3,-106.9 1064.7,-106.9 		"/>
		<polygon class="st11" points="1052.5,-54.9 1036.2,-54.9 1041.2,-76 1057.7,-76 		"/>
		<path class="st15" d="M1135.6-131.2h-50.7c-1.1,0-1.8-1.2-1.4-2.6l0,0c0.4-1.4,1.6-2.6,2.6-2.6h50.7c1.1,0,1.8,1.2,1.4,2.6l0,0
			C1137.9-132.4,1136.7-131.2,1135.6-131.2z"/>
		<path class="st15" d="M1128.9-102.3h-50.7c-1.1,0-1.8-1.2-1.4-2.6l0,0c0.4-1.4,1.6-2.6,2.6-2.6h50.7c1.1,0,1.8,1.2,1.4,2.6l0,0
			C1131.2-103.5,1130-102.3,1128.9-102.3z"/>
		<path class="st15" d="M1120.6-69.5h-50.7c-1.1,0-1.8-1.2-1.4-2.6l0,0c0.4-1.4,1.6-2.6,2.6-2.6h50.7c1.1,0,1.8,1.2,1.4,2.6l0,0
			C1122.9-70.6,1121.7-69.5,1120.6-69.5z"/>
	</g>
	<g>
		<path class="st16" d="M1016.7-353.9l-50.3-0.4c-2.6,0-4.7-2.5-4.1-5l8.7-37.9c0.4-1.7,1.9-2.9,3.7-2.9l50.3,0.4
			c2.6,0,4.7,2.5,4.1,5l-8.7,37.9C1020.1-355.1,1018.5-353.9,1016.7-353.9z"/>
		<g>
			<path class="st0" d="M998.3-391.4c-5,0-9.9,1.3-14.9,4c-2.2,1.2-4.3,2.6-6.3,4.2c-0.2,0.2-0.6,0.4-0.8,0.6
				c-0.4,0.2-0.5,0.6-0.2,0.8c0.5,0.7,1.1,1.4,1.6,2.2c0.1,0.2,0.5,0.2,0.8,0c0.6-0.4,1.1-0.8,1.7-1.2c3.7-2.9,7.7-4.7,11.9-5.7
				c1.3-0.2,2.8-0.5,4.1-0.5c3.4-0.1,6.4,0.6,8.8,2.2c1.8,1.1,3.2,2.6,4.2,4.6c0.1,0.2,0.2,0.5,0.4,0.7c0.1,0.2,0.5,0.2,0.8,0
				c1.1-0.7,2-1.4,3.1-2.2c0.4-0.2,0.5-0.6,0.4-0.8c-0.6-1.1-1.2-2-1.9-3c-1.3-1.7-3-3-4.9-4c-1.7-0.8-3.6-1.4-5.8-1.7
				C1000.1-391.3,999.2-391.4,998.3-391.4z"/>
			<path class="st0" d="M995.4-383.6c-4,0-7.8,1.2-11.7,3.4c-1.6,0.8-3,1.9-4.6,3.1c-0.4,0.4-0.5,0.6-0.4,1c0.5,0.7,1,1.4,1.3,2.2
				c0.2,0.2,0.5,0.2,1,0c1.2-0.8,2.4-1.8,3.7-2.5c2.4-1.3,4.7-2.2,7.1-2.5c3.7-0.5,6.6,0.6,8.7,2.8c0.6,0.7,1.1,1.4,1.6,2.3
				c0.2,0.5,0.6,0.5,1.1,0c0.8-0.6,1.8-1.3,2.6-1.9c0.6-0.4,0.7-0.7,0.4-1.1c-0.6-1.1-1.3-2-2.2-2.9c-1.8-1.8-4.2-3-7.2-3.4
				c-0.2,0-0.4,0-0.6,0C996.2-383.6,995.8-383.6,995.4-383.6z"/>
			<path class="st0" d="M992.4-375.8c-2.5,0.1-5,1-7.6,2.5c-0.8,0.5-1.6,1.1-2.3,1.7c-0.4,0.2-0.5,0.6-0.4,0.8
				c0.5,0.7,1,1.4,1.4,2.3c0.1,0.2,0.5,0.2,0.8,0c0.7-0.5,1.4-1.1,2.2-1.6c1.3-0.8,2.8-1.3,4.1-1.3c1.4,0,2.5,0.6,3.2,1.4
				c0.4,0.4,0.6,0.8,0.8,1.3c0.2,0.4,0.5,0.4,1,0c1-0.7,1.9-1.4,2.9-2c0.5-0.4,0.6-0.6,0.4-1c-0.5-0.8-1-1.7-1.7-2.3
				c-1.1-1-2.4-1.6-4.1-1.8C993.2-375.7,992.8-375.8,992.4-375.8z"/>
			<path class="st0" d="M989.7-368.1c-1.8,0-3.7,1.4-4.4,3.2c-0.6,1.8,0.2,3.2,2,3.2c1.8,0,3.7-1.4,4.4-3.2
				C992.3-366.7,991.5-368.1,989.7-368.1z"/>
		</g>
	</g>
	<polyline class="st17" points="803.5,-282.5 835.4,-380.2 963.8,-380.2 	"/>
	
		<ellipse transform="matrix(-0.4595 -0.8882 0.8882 -0.4595 1429.8149 299.334)" class="st3" cx="806" cy="-285.4" rx="6.3" ry="8.2"/>
	
		<ellipse transform="matrix(-0.4595 -0.8882 0.8882 -0.4595 1745.1777 304.6849)" class="st3" cx="965.3" cy="-378.7" rx="3.7" ry="4.9"/>
	<g>
		<g>
			<path class="st18" d="M1171.6-30.7h-4.3c-3.8,0-6.1-3.1-4.9-6.9l17.4-56.4h18.4l-17.4,56.4C1179.6-33.8,1175.5-30.7,1171.6-30.7z
				"/>
		</g>
		<g>
			<path class="st19" d="M1165.1-30.7h-4.3c-3.8,0-6.1-3.1-4.9-6.9l17.4-56.4h18.4l-17.4,56.4C1173.1-33.8,1168.9-30.7,1165.1-30.7z
				"/>
		</g>
		<g>
			
				<ellipse transform="matrix(-0.6177 -0.7864 0.7864 -0.6177 2030.4907 731.0666)" class="st8" cx="1192.9" cy="-128" rx="38.5" ry="52.2"/>
			<path class="st4" d="M1179.4-83.2c-12.1,0-22.2-4.6-28.4-12.9c-6.3-8.5-7.7-20-4-32.1c7.6-24.6,34.4-44.6,59.6-44.6
				c12.1,0,22.2,4.6,28.4,12.9c6.3,8.5,7.7,20,4,32.1l-0.6-0.1l0.6,0.1C1231.3-103.3,1204.6-83.2,1179.4-83.2z M1206.7-171.5
				c-24.8,0-51,19.6-58.4,43.8c-3.6,11.8-2.3,22.7,3.7,31c5.9,7.9,15.6,12.4,27.4,12.4c24.8,0,51-19.6,58.4-43.8
				c3.6-11.8,2.3-22.7-3.7-31C1228.2-167.1,1218.4-171.5,1206.7-171.5z"/>
		</g>
		<g class="st20">
			
				<ellipse transform="matrix(-0.6177 -0.7864 0.7864 -0.6177 2030.4907 731.0666)" class="st3" cx="1192.9" cy="-128" rx="30.2" ry="40.9"/>
		</g>
	</g>
	<g>
		
			<ellipse transform="matrix(-0.5733 -0.8193 0.8193 -0.5733 1615.0282 98.0388)" class="st21" cx="833" cy="-371.5" rx="27.3" ry="32.3"/>
	</g>
	<g>
		<g>
			<path class="st4" d="M827-58.4h55.4c5.9,0,11.7-4.8,12.9-10.6l0,0c1.2-5.9-2.5-10.6-8.3-10.6h-55.4c-5.9,0-11.7,4.8-12.9,10.6
				l0,0C817.4-63.1,821.1-58.4,827-58.4z"/>
		</g>
		<g>
			<path class="st0" d="M828.1-64.3c-1.1-4.2-1.7-8.2,1.9-12.5c0,0,0-0.1,0.1-0.1l0.7-0.6c1-0.7,0.7-1.7,0.1-2.2h55.4
				c6.3,0,10.1,4.8,8.8,10.6c-1.3,5.9-7.5,10.6-13.6,10.6h-53C828.8-60.5,828.7-62.3,828.1-64.3z"/>
		</g>
		<g>
			
				<ellipse transform="matrix(-0.6684 -0.7438 0.7438 -0.6684 1434.4353 501.7385)" class="st8" cx="829.1" cy="-68.9" rx="9.1" ry="11.3"/>
		</g>
		<g>
			<path class="st4" d="M819.7-61.1c-1.8-2.2-2.3-5-1.7-8.1c1.3-6.1,7.3-11.1,13.5-11.1h55.4c3,0,5.5,1.2,7.2,3.2
				c1.8,2.2,2.3,5,1.7,8.1c-1.3,6.1-7.3,11.1-13.5,11.1H827C824-57.8,821.5-58.9,819.7-61.1z M831.6-79c-5.5,0-11.1,4.6-12.3,10.1
				c-0.6,2.6-0.1,5.2,1.4,7.1c1.4,1.8,3.7,2.8,6.3,2.8h55.4c5.5,0,11.1-4.6,12.3-10.1c0.6-2.6,0.1-5.2-1.4-7.1
				c-1.4-1.8-3.7-2.8-6.3-2.8H831.6z"/>
		</g>
	</g>
	<g>
		<g>
			<path class="st0" d="M830.3-371.5l20-11.9c-0.2-0.1-0.6-0.2-1-0.2l-26-0.4L830.3-371.5z"/>
		</g>
		<g>
			<path class="st0" d="M829.7-369.4l-7.9-14.1c-0.4,0.2-0.6,0.6-0.7,1l-5.5,19.1c-0.4,1.3,0.6,2.5,1.9,2.5l26.1,0.4
				c1,0,1.8-0.6,2-1.4l5.5-19.1c0.1-0.4,0.1-0.8,0-1.2L829.7-369.4z"/>
		</g>
	</g>
</g>
<path id="Rectangle_7" class="st22" d="M1274,23H626.5L659-0.2l553.6,0L1274,23z"/>
<g id="woman_2">
	<g id="woman">
		<path id="Path_14" class="st23" d="M711.1-165.5l5.4,0.6c7.1,0.8,13.9-3.5,16-10.4l7-22.3c0,0,5-5.6,5.2-7.5c0.5-4-3-11.7-6.8-9.2
			c-1.3,0.8-5.6,13.5-5.6,13.5l-13.4,25.1l-3.9-0.7L711.1-165.5z"/>
		<g id="Group_81">
			<path id="Path_17_Copy_7_2_" class="st24" d="M795.1-232.6"/>
			<path id="Path_17_Copy_7_1_" class="st24" d="M747.5-232.6"/>
			<path id="Path_17_Copy_8_2_" class="st24" d="M795.1-227.8"/>
			<path id="Path_17_Copy_8_1_" class="st24" d="M767.9-227.8"/>
			<path id="Path_17_Copy_11_2_" class="st24" d="M795.8-222.3"/>
			<path id="Path_17_Copy_11_1_" class="st24" d="M755-222.3"/>
		</g>
		<path id="Path_2_1_" class="st25" d="M695.6-223.7c-1.5,2.4-2.4,5.3-2.4,8.4c0,8,6,14.5,13.4,14.5c7.4,0,14.1-12.4,14.1-12.9
			c5.9-3.9,6.3-14.3-1.2-14.2c-2.5-2.3-6.3-3.7-10.7-3.7C702.2-231.5,696.7-228.1,695.6-223.7z"/>
		<path id="Path_3" class="st23" d="M717.8-216.5c-2.9,4.3-9,5.2-9,5.2l-1.5-1.4c-1.4-1.4-3.8-0.9-4.6,1c-0.7,1.7,0.3,3.6,2.1,3.9
			l1.7,0.3c0,3.1-1.8,6.9-1.8,6.9l-1.4,15l11,0.5l1-12.3c3.6,0.2,6.8-2.5,7.3-6.1l0.4-3.1c0,0,1-0.1,1.5-0.8
			c0.5-0.7-1.2-2.3-1.2-2.3s-0.8-1.6-0.8-7s-2.8-8-2.8-8S720.7-220.8,717.8-216.5z"/>
		<path id="Oval_3" class="st25" d="M680.9-223.7c0-4.3,3.4-7.8,7.5-7.8c4.2,0,7.5,3.5,7.5,7.8c0,4.3-3.4,7.8-7.5,7.8
			C684.2-215.9,680.9-219.4,680.9-223.7z"/>
		<path id="Path_4_x5F_3" class="st23" d="M712.4-162.4l-12.8,7.3l-10.5-18c-1.9-3.3-0.9-7.5,2.3-9.5c3.3-2.2,7.8-1.1,9.9,2.2
			L712.4-162.4z"/>
		<path id="Path_2_x5F_2" class="st23" d="M714.4-189.6c0,0,13,12.6,14.8,19.1c1.8,6.5-4.4,9.4-4.4,9.4v21.6h-27.6
			c-2.4-3.1,0-7.9,0-7.9l-4-16.4c0,0-4.8-17.4-0.6-20c4.7-5,15.2-5.9,15.2-5.9H714.4z"/>
		<g id="Group_2_x5F_2">
			<path id="Path_15_x5F_3" class="st23" d="M717.4-8.4l-0.8,8c0,0-1.3,3.3-4.6,3.3c-3.3,0-5.4-3.3-5.4-3.3l0.7-7L717.4-8.4z"/>
			<path id="Path_16_x5F_3" class="st25" d="M710.8,1.5c2.6,0.5,5.8-2.7,5.8-2.7L727,6.3h-21.7l1.2-7.5
				C706.5-1.2,708.2,0.9,710.8,1.5z"/>
		</g>
		<g id="Group_2_Copy">
			<path id="Path_15_x5F_4" class="st23" d="M684.9-10.7l-2.6,7.6c0,0-2,2.9-5.2,2.2c-3.2-0.7-4.5-4.4-4.5-4.4l2.2-6.6L684.9-10.7z"
				/>
			<path id="Path_16_x5F_4" class="st25" d="M676.3-2.6c2.4,1.1,6.3-1.3,6.3-1.3s2.2,5.3,4,7.3c3.5,0.8,4.1,2.9,4.1,2.9L684.9,6
				l-15.1-5.2l2.9-7C672.7-6.2,673.9-3.7,676.3-2.6z"/>
		</g>
		<path id="Path_3_1_" class="st23" d="M724.8-141.3c0,0,3.1,40.3,1.8,55.4c-1.3,15.1-9.3,78.1-9.3,78.1c-7.4,2-16.2,0-16.2,0
			l4.7-54.2v-10c0,0-2.2,8.2-4.7,17c-2.5,8.8-16.6,47.2-16.6,47.2c-8.3,0-14.8-4.1-14.8-4.1l14.8-56.5c0,0,0.7-22.7,2.1-41
			c1.4-18.3,10.3-30.5,10.3-30.5L724.8-141.3z"/>
		<path id="Path_10_x5F_2" class="st25" d="M724.8-159.7l0.3,14.8l-5.6-5.2l-10.4-31L724.8-159.7z"/>
		<path id="Rectangle_11" class="st23" d="M699.9-187.9h16.2c0-2.2-1.8-3.9-3.9-3.9h-11.5c-0.4,0-0.8,0.3-0.8,0.8V-187.9z"/>
		<g id="Group_30">
			<g id="Group">
				<g id="Path_4_1_">
					<path class="st8" d="M765.9-200.8l-27.1,35.1l-6-5.4l-7.2,11.6l7.9,6.6c2.7,2.3,6.5,2.9,9.8,1.7c3.5-1.3,6.3-3.9,7.9-7.2
						l16.7-34.4c5.1-1.8,8.6-4.4,10.5-8"/>
					<path class="st24" d="M765.9-200.8l-27.1,35.1l-6-5.4l0,0l-7.2,11.6l7.9,6.6c2.7,2.3,6.5,2.9,9.8,1.7l0,0
						c3.5-1.3,6.3-3.9,7.9-7.2l16.7-34.4c5.1-1.8,8.6-4.4,10.5-8"/>
				</g>
			</g>
			<path id="Path_4_x5F_4" class="st23" d="M735.9-169.4l-10.3,10.6l-15.1-14.5c-2.7-2.6-2.9-6.9-0.4-9.8c2.6-3,7.2-3.2,10.1-0.6
				L735.9-169.4z"/>
		</g>
		<path id="Path_8_x5F_2" class="st25" d="M715.4-197.8l-2.7-0.8l2.5,3.5L715.4-197.8z"/>
		<path id="Path_9_x5F_2" class="st24" d="M706.5-209.3c-1.7-0.6-1.1-2.4-1.1-2.4"/>
		<path id="Path_11" class="st24" d="M694.2-110c2.8,3.8,7.5,5.9,7.5,5.9l4.1,22.6v9.4"/>
		<path id="Path_12" class="st24" d="M715.6-7.6l7-73.5c0.2-2.3,0.3-4.7,0.1-7l-3.3-53.1"/>
		<path id="Path_13" class="st24" d="M682.7-7.6c0,0,14.9-47.2,18.1-59.8c3.2-12.6,2.3-28.9,2.3-28.9"/>
		<path id="Path_20" class="st25" d="M705.9-72.2v-10.4l-3.7-18.6l1.1,38.2L705.9-72.2z"/>
		<path id="Oval_4" class="st25" d="M720-213.3c0-0.5,0.3-0.8,0.6-0.8c0.3,0,0.6,0.4,0.6,0.8c0,0.5-0.3,0.8-0.6,0.8
			C720.2-212.5,720-212.9,720-213.3z"/>
		<path id="Path_21_x5F_2" class="st26" d="M721.6-215.9c-1.1-1-2.5,0-2.5,0"/>
		<path id="Path_22" class="st27" d="M706.5-212.5l12.4-1.7"/>
		<path id="Oval_5" class="st24" d="M718.9-213.6c0-2.5,1.1-4.5,2.5-4.5c1.4,0,2.5,2,2.5,4.5c0,2.5-1.1,4.5-2.5,4.5
			C720-209.2,718.9-211.2,718.9-213.6z"/>
		<path id="Path_23_x5F_2" class="st25" d="M719.5-205.8c0.6,1.8,2.5,2.2,2.5,2.2l0.3-2.2H719.5z"/>
		<g id="Path_161">
			<path class="st8" d="M733.6-204.4c2.5-8.2,4.3-9.8,4.3-9.8l6.4-5.2c0.7-0.6,1.7-0.4,2.2,0.3c0.4,0.6,0.3,1.4-0.2,1.9l-4.5,4.7
				c2.5,5.9-2.5,9.5-2.5,9.5"/>
			<path class="st24" d="M733.6-204.4c2.5-8.2,4.3-9.8,4.3-9.8l6.4-5.2c0.7-0.6,1.7-0.4,2.2,0.3l0,0c0.4,0.6,0.3,1.4-0.2,1.9
				l-4.5,4.7c2.5,5.9-2.5,9.5-2.5,9.5"/>
		</g>
		<g id="Path_162">
			<path class="st8" d="M768.4-198.9c1.4-3.4,5.7-3.5,5.7-3.5l5-5.7c0.3-0.3,0.7-0.5,1.2-0.4c0.8,0.1,1.2,1,0.9,1.7l-2.7,6.3
				c0,0-1.8,3.4-4.8,4.9"/>
			<path class="st24" d="M768.4-198.9c1.4-3.4,5.7-3.5,5.7-3.5l5-5.7c0.3-0.3,0.7-0.5,1.2-0.4l0,0c0.8,0.1,1.2,1,0.9,1.7l-2.7,6.3
				c0,0-1.8,3.4-4.8,4.9"/>
		</g>
	</g>
</g>
<g>
	<path class="st28" d="M1220.4-46.5c2.4-0.7,4.9,0.6,5.7,3l1.5,5l-0.7,4.3l1.5-1.8l5.9,19.3c0.7,2.4-0.6,4.9-3,5.7
		c-2.4,0.7-4.9-0.6-5.7-3l-2.5-8.1l3.7,0.9l-5-5.3l-3.8-12.4l2.1,0.1l-2.6-1.9l0,0C1216.6-43.2,1218-45.8,1220.4-46.5z"/>
	<path class="st29" d="M1231.2-26.5l2,6.6c-1.6,0-3-1-3.5-2.5C1229.3-24.1,1229.9-25.7,1231.2-26.5z M1219.8-32.7l-1.9-6.2l2.1,0.1
		l-1.2-0.9c1.7-0.2,3.3,0.9,3.8,2.5c0.6,1.9-0.5,3.9-2.4,4.5C1220.1-32.8,1220-32.8,1219.8-32.7z"/>
	<path class="st30" d="M1222.2-39.6c0-0.2,0-0.3,0.2-0.4c0.2,0,0.3,0,0.4,0.2l12,39.2c0,0.2,0,0.3-0.2,0.4c-0.2,0-0.3,0-0.4-0.2
		L1222.2-39.6z"/>
	<path class="st31" d="M1236.6-63.7h1.2c3,0,5.5,2.5,5.5,5.5v9.4l-3.4,4.5l3.4-1.3v28.9c0,3-2.5,5.5-5.5,5.5h-1.2
		c-3,0-5.5-2.5-5.5-5.5v-14.6l3.4,1.9l-3.4-5.8v-21.4l2,1.3l-2-2.6v-0.3C1231.1-61.2,1233.5-63.7,1236.6-63.7z"/>
	<path class="st28" d="M1243.3-24.6v8c0,0.5-0.1,1-0.2,1.5c-2.2-0.5-3.9-2.4-3.9-4.7C1239.2-22.2,1241-24.2,1243.3-24.6z
		 M1231.1-41.3v-7.8c0.9-0.6,1.9-1,3.1-1c2.8,0,5.1,2.2,5.1,4.9c0,2.7-2.3,4.9-5.1,4.9C1233-40.3,1231.9-40.7,1231.1-41.3z"/>
	<path class="st30" d="M1236.6-55.9V0c0,0.3,0.3,0.6,0.6,0.6c0.3,0,0.6-0.3,0.6-0.6v-55.9c0-0.3-0.3-0.6-0.6-0.6
		C1236.8-56.5,1236.6-56.2,1236.6-55.9z"/>
	<path class="st32" d="M1261.5-49.9c2.4,0.7,3.9,3.1,3.2,5.6l-1.5,5.7l-4,5l2.8-0.6l-5.7,21.4c-0.6,2.4-3.1,3.9-5.6,3.2
		c-2.4-0.7-3.9-3.1-3.2-5.6l2-7.5l1.5,1.8l-0.5-5.5l5.4-20.1C1256.6-49.1,1259.1-50.6,1261.5-49.9z"/>
	<path class="st28" d="M1258.5-21.1l-1.3,5c-0.6,0.3-1.3,0.3-2.1,0.1c-1.7-0.5-2.8-2.2-2.3-4c0.5-1.7,2.2-2.8,4-2.3
		C1257.5-22,1258.1-21.6,1258.5-21.1z M1253.7-38.1l1.1-4c0.3-0.1,0.7,0,1,0c1.2,0.3,1.9,1.6,1.6,2.8c-0.3,1.2-1.6,1.9-2.8,1.6
		C1254.2-37.7,1253.9-37.9,1253.7-38.1z"/>
	<path class="st30" d="M1259.6-44c0-0.2,0.2-0.3,0.4-0.2c0.2,0,0.3,0.2,0.2,0.4l-12,44.9c0,0.2-0.2,0.3-0.4,0.2
		c-0.2,0-0.3-0.2-0.2-0.4L1259.6-44z"/>
	<path class="st30" d="M1249.7-7c0.5-0.6,1.2-1,2.1-1c1.4,0,2.6,1.1,2.6,2.4s-1.2,2.4-2.6,2.4c-1.1,0-2.1-0.7-2.4-1.6
		c-0.5,0.6-1.2,1-2.1,1c-0.9,0-1.6-0.4-2.1-1c-0.4,0.9-1.3,1.6-2.4,1.6c-1.3,0-2.4-0.9-2.5-2.1c-0.5,0.5-1.2,0.9-2,0.9
		c-0.8,0-1.5-0.3-2-0.9c-0.2,1.2-1.3,2.1-2.5,2.1c-0.8,0-1.5-0.4-2-0.9c-0.4,0.2-0.8,0.3-1.2,0.3c-1.4,0-2.6-1.1-2.6-2.4
		s1.2-2.4,2.6-2.4c0.8,0,1.5,0.4,2,0.9c0.4-0.2,0.8-0.3,1.2-0.3c0.8,0,1.5,0.3,2,0.9c0.2-1.2,1.3-2.1,2.5-2.1c1.3,0,2.4,0.9,2.5,2.1
		c0.5-0.5,1.2-0.9,2-0.9c0.9,0,1.6,0.4,2.1,1c0.4-0.9,1.3-1.6,2.4-1.6C1248.4-8.6,1249.3-7.9,1249.7-7z"/>
	<path class="st30" d="M1244.3-4.9c-0.5-23,3.6-43.5,12.2-61.7c0.1-0.2,0-0.3-0.1-0.4c-0.2-0.1-0.3,0-0.4,0.1
		c-8.6,18.3-12.7,38.9-12.2,62c0,0.2,0.1,0.3,0.3,0.3C1244.1-4.6,1244.3-4.7,1244.3-4.9z"/>
	<path class="st28" d="M1224.9-6.1h32.5l-4.5,27.6h-22.7L1224.9-6.1z"/>
	<path class="st29" d="M1255,8.6l-0.5,3.2h-26.1l-0.6-3.2H1255z"/>
	<path class="st31" d="M1221.9-6.1h38.6l-1.9,6.1h-34.7L1221.9-6.1z"/>
	<path class="st28" d="M1253.5-61.9c0,0-1.3-1.8-2.7-1.8s-1.7-1.2-1.3-1.8c0.7-1.2,2-0.6,2.7,0C1254.4-63.5,1253.5-61.9,1253.5-61.9
		z"/>
	<path class="st28" d="M1254-59.6c0,0,0-1.9,2.9-2.9c0.9-0.3,2.3-0.3,2.3,1.1c0,0.7-0.9,1.8-2,1.2C1256.1-60.8,1254-59.6,1254-59.6z
		"/>
	<path class="st28" d="M1256.7-65.3c0,0,0.1-1.6,2.3-2.5c0.7-0.3,1.8-0.3,1.8,0.9c0,0.6-0.7,1.5-1.6,1
		C1258.4-66.3,1256.7-65.3,1256.7-65.3z"/>
	<path class="st28" d="M1254.8-66.2c0,0-0.7-1.8-1.7-2c-1-0.2-1-1.3-0.7-1.8c0.7-1,1.6-0.2,2,0.4
		C1255.8-67.5,1254.8-66.2,1254.8-66.2z"/>
	<path class="st28" d="M1256.2-68c0.7-3.3,1.7-4.7,3.1-4.2S1259.6-70.2,1256.2-68z"/>
</g>
</svg>
