<?xml version="1.0" encoding="utf-8"?>
<!-- Generator: Adobe Illustrator 19.0.0, SVG Export Plug-In . SVG Version: 6.00 Build 0)  -->
<svg version="1.1" id="Layer_1" xmlns="http://www.w3.org/2000/svg" xmlns:xlink="http://www.w3.org/1999/xlink" x="0px" y="0px"
	 width="647.5px" height="425.4px" viewBox="313 -201.4 647.5 425.4" style="enable-background:new 313 -201.4 647.5 425.4;"
	 xml:space="preserve">
<style type="text/css">
	.st0{fill:#D8D6EB;}
	.st1{fill:#F3F3F3;}
	.st2{opacity:0.4;fill:none;stroke:#9E9EA2;stroke-width:2;stroke-miterlimit:10;stroke-dasharray:12;enable-background:new    ;}
	.st3{fill:#FFFFFF;stroke:#C8CCCA;stroke-miterlimit:10;}
	.st4{fill:#E9B080;}
	.st5{fill:#FFFFFF;stroke:#D9D9E2;stroke-miterlimit:10;}
	.st6{fill:#F8C015;}
	.st7{fill:#A2CA3A;}
	.st8{fill:#F58020;}
	.st9{fill:#FFFFFF;}
	.st10{fill:#C9C9C9;}
	.st11{fill:#EF4727;}
	.st12{fill:#7ECDC7;}
	.st13{fill:url(#SVGID_1_);}
	.st14{fill:url(#SVGID_2_);}
	.st15{opacity:0.5;fill:#CBDBF1;enable-background:new    ;}
	.st16{fill:#3765B0;}
	.st17{fill:#4270B7;}
	.st18{fill:url(#SVGID_3_);}
	.st19{fill:url(#SVGID_4_);}
	.st20{fill:#BCD3EE;}
	.st21{fill:#C5D9F0;}
	.st22{fill:#CEDEF2;}
	.st23{fill:#B0CBEB;}
	.st24{fill:url(#SVGID_5_);}
	.st25{fill:url(#SVGID_6_);}
	.st26{fill:#D43827;}
	.st27{fill:url(#SVGID_7_);}
	.st28{fill:#2B5CAA;}
	.st29{fill:url(#SVGID_8_);}
	.st30{opacity:0.2;fill:#1285BB;enable-background:new    ;}
	.st31{opacity:0.5;fill:#1751A4;enable-background:new    ;}
	.st32{fill:#4987C7;}
	.st33{fill:#FEF4F8;}
	.st34{fill:url(#SVGID_9_);}
	.st35{fill:#4CB8E9;}
	.st36{fill:#EF3B24;}
	.st37{fill:url(#SVGID_10_);}
	.st38{fill:#FEF5F5;}
	.st39{fill:url(#SVGID_11_);}
	.st40{fill:url(#SVGID_12_);}
	.st41{fill:#F8ABAB;}
	.st42{fill:#3E5DAA;}
	.st43{fill:#F69B9B;}
	.st44{fill:url(#SVGID_13_);}
	.st45{fill:url(#SVGID_14_);}
</style>
<ellipse class="st0" cx="565.8" cy="179.2" rx="246" ry="16.2"/>
<g>
	<polygon class="st1" points="549.8,224 630.3,224 630.3,219.3 569.6,219.3 	"/>
	<rect x="486" y="-191" class="st1" width="159" height="372.6"/>
	<rect x="491.8" y="-29.6" class="st2" width="146.4" height="42.6"/>
	<rect x="493" y="23.3" class="st2" width="146.4" height="42.6"/>
	<rect x="492.3" y="-184.5" class="st3" width="146.4" height="93.8"/>
	<g>
		<path class="st4" d="M579.8-148.2h-69.7c-1.1,0-2-0.9-2-2l0,0c0-1.1,0.9-2,2-2h69.7c1.1,0,2,0.9,2,2l0,0
			C581.9-149.1,580.9-148.2,579.8-148.2z"/>
		<path class="st4" d="M608.2-134.8h-60.9c-1.1,0-2-0.9-2-2l0,0c0-1.1,0.9-2,2-2h60.9c1.1,0,2,0.9,2,2l0,0
			C610.2-135.7,609.3-134.8,608.2-134.8z"/>
		<path class="st4" d="M587.4-124.2H547c-0.9,0-1.6-0.7-1.6-1.6v-0.7c0-0.9,0.7-1.6,1.6-1.6h40.4c0.9,0,1.6,0.7,1.6,1.6v0.7
			C589-124.9,588.3-124.2,587.4-124.2z"/>
		<path class="st4" d="M534.3-134.8H531c-0.3,0-0.5-0.2-0.5-0.5v-2.9c0-0.3,0.2-0.5,0.5-0.5h3.3c0.3,0,0.5,0.2,0.5,0.5v2.9
			C534.8-135,534.6-134.8,534.3-134.8z"/>
		<path class="st4" d="M534.3-124.3H531c-0.3,0-0.5-0.2-0.5-0.5v-2.9c0-0.3,0.2-0.5,0.5-0.5h3.3c0.3,0,0.5,0.2,0.5,0.5v2.9
			C534.8-124.5,534.6-124.3,534.3-124.3z"/>
	</g>
	<rect x="325.5" y="-191.4" class="st5" width="158.9" height="372.9"/>
	<g>
		<g>
			<rect x="851.2" y="-65.8" class="st6" width="10.3" height="1.9"/>
			<rect x="855.3" y="-70" class="st6" width="1.9" height="10.3"/>
		</g>
		<g>
			
				<rect x="864.6" y="-127.9" transform="matrix(0.7071 -0.7071 0.7071 0.7071 345.2751 581.3448)" class="st7" width="19.5" height="3.7"/>
			
				<rect x="864.6" y="-127.9" transform="matrix(0.7071 0.7071 -0.7071 0.7071 166.9367 -655.2161)" class="st7" width="19.5" height="3.7"/>
		</g>
		<path class="st8" d="M943.3-84.2c-8,10.4,3.9,22.2,14.3,14.3C965.6-80.4,953.8-92.2,943.3-84.2z M945.8-72.4
			c-5.2-6.8,2.4-14.5,9.3-9.4C960.3-75,952.7-67.3,945.8-72.4z"/>
		<g>
			
				<rect x="352.8" y="-65.3" transform="matrix(0.7071 -0.7071 0.7071 0.7071 151.0238 237.7473)" class="st7" width="19.5" height="3.7"/>
			
				<rect x="352.8" y="-65.3" transform="matrix(0.7071 0.7071 -0.7071 0.7071 61.3279 -274.901)" class="st7" width="19.5" height="3.7"/>
		</g>
		<path class="st8" d="M335.6-23.7c0,5.4,4.4,9.7,9.7,9.7s9.7-4.4,9.7-9.7s-4.4-9.7-9.7-9.7C339.9-33.4,335.6-29.1,335.6-23.7z
			 M338.9-23.7c0-3.5,2.8-6.4,6.4-6.4c3.5,0,6.4,2.8,6.4,6.4c0,3.5-2.8,6.4-6.4,6.4C341.8-17.3,338.9-20.2,338.9-23.7z"/>
	</g>
	<rect x="492.5" y="-82.2" class="st3" width="146.4" height="42.6"/>
	<g>
		<circle class="st9" cx="518.5" cy="-62.3" r="10.7"/>
		<g>
			<path class="st4" d="M592-64h-52c-0.9,0-1.7-0.8-1.7-1.7l0,0c0-0.9,0.8-1.7,1.7-1.7h52c0.9,0,1.7,0.8,1.7,1.7l0,0
				C593.7-64.8,592.9-64,592-64z"/>
			<path class="st4" d="M574.2-55h-34.5c-0.8,0-1.4-0.6-1.4-1.4V-57c0-0.8,0.6-1.4,1.4-1.4h34.5c0.8,0,1.4,0.6,1.4,1.4v0.6
				C575.6-55.6,574.9-55,574.2-55z"/>
			<circle class="st4" cx="518.1" cy="-64" r="4.6"/>
			<path class="st4" d="M526.2-55.8c0,2.5-4.6,4.3-7.1,4.3c-4.3,0-8.5-1.7-8.5-4.3c0-2.5,5.3-3.6,7.8-3.6
				C521-59.4,526.2-58.4,526.2-55.8z"/>
		</g>
	</g>
	<rect x="646.4" y="-190.3" class="st1" width="159" height="372.6"/>
	<rect x="652.3" y="-28.9" class="st2" width="146.4" height="42.6"/>
	<rect x="652.8" y="-183.7" class="st3" width="146.4" height="93.8"/>
	<g>
		<path class="st10" d="M740.3-147.4h-69.7c-1.1,0-2-0.9-2-2l0,0c0-1.1,0.9-2,2-2h69.7c1.1,0,2,0.9,2,2l0,0
			C742.3-148.3,741.4-147.4,740.3-147.4z"/>
		<path class="st10" d="M768.7-134h-60.9c-1.1,0-2-0.9-2-2l0,0c0-1.1,0.9-2,2-2h60.9c1.1,0,2,0.9,2,2l0,0
			C770.6-134.9,769.7-134,768.7-134z"/>
		<path class="st10" d="M747.8-123.5h-40.4c-0.9,0-1.6-0.7-1.6-1.6v-0.7c0-0.9,0.7-1.6,1.6-1.6h40.4c0.9,0,1.6,0.7,1.6,1.6v0.7
			C749.5-124.2,748.7-123.5,747.8-123.5z"/>
		<path class="st10" d="M694.8-134h-3.3c-0.3,0-0.5-0.2-0.5-0.5v-2.9c0-0.3,0.2-0.5,0.5-0.5h3.3c0.3,0,0.5,0.2,0.5,0.5v2.9
			C695.3-134.3,695-134,694.8-134z"/>
		<path class="st10" d="M694.8-123.6h-3.3c-0.3,0-0.5-0.2-0.5-0.5v-2.9c0-0.3,0.2-0.5,0.5-0.5h3.3c0.3,0,0.5,0.2,0.5,0.5v2.9
			C695.3-123.8,695-123.6,694.8-123.6z"/>
	</g>
	<rect x="652.9" y="-81.5" class="st3" width="146.4" height="42.6"/>
	<g>
		<circle class="st9" cx="678.9" cy="-61.6" r="10.7"/>
		<g>
			<path class="st10" d="M752.4-63.3h-52c-0.9,0-1.7-0.8-1.7-1.7l0,0c0-0.9,0.8-1.7,1.7-1.7h52c0.9,0,1.7,0.8,1.7,1.7l0,0
				C754.1-64,753.3-63.3,752.4-63.3z"/>
			<path class="st10" d="M734.6-54.2h-34.5c-0.8,0-1.4-0.6-1.4-1.4v-0.6c0-0.8,0.6-1.4,1.4-1.4h34.5c0.8,0,1.4,0.6,1.4,1.4v0.6
				C736-54.9,735.4-54.2,734.6-54.2z"/>
			<circle class="st10" cx="678.5" cy="-63.3" r="4.6"/>
			<path class="st10" d="M686.7-55.1c0,2.5-4.6,4.3-7.1,4.3c-4.3,0-8.5-1.7-8.5-4.3c0-2.5,5.3-3.6,7.8-3.6S686.7-57.6,686.7-55.1z"
				/>
		</g>
	</g>
	<rect x="331.3" y="105.8" class="st3" width="146.4" height="42.6"/>
	<g>
		<circle class="st9" cx="357.3" cy="125.7" r="10.7"/>
		<g>
			<path class="st10" d="M430.8,124h-52c-0.9,0-1.7-0.8-1.7-1.7l0,0c0-0.9,0.8-1.7,1.7-1.7h52c0.9,0,1.7,0.8,1.7,1.7l0,0
				C432.5,123.3,431.7,124,430.8,124z"/>
			<path class="st10" d="M413,133.1h-34.5c-0.8,0-1.4-0.6-1.4-1.4v-0.6c0-0.8,0.6-1.4,1.4-1.4H413c0.8,0,1.4,0.6,1.4,1.4v0.6
				C414.4,132.4,413.8,133.1,413,133.1z"/>
			<circle class="st10" cx="356.9" cy="124" r="4.6"/>
			<path class="st10" d="M365.1,132.2c0,2.5-4.6,4.3-7.1,4.3c-4.3,0-8.5-1.7-8.5-4.3c0-2.6,5.3-3.6,7.8-3.6
				C359.8,128.6,365.1,129.6,365.1,132.2z"/>
		</g>
	</g>
	<rect x="331.3" y="55.1" class="st3" width="146.4" height="42.6"/>
	<g>
		<circle class="st9" cx="357.3" cy="75" r="10.7"/>
		<g>
			<path class="st10" d="M430.8,73.3h-52c-0.9,0-1.7-0.8-1.7-1.7l0,0c0-0.9,0.8-1.7,1.7-1.7h52c0.9,0,1.7,0.8,1.7,1.7l0,0
				C432.5,72.5,431.7,73.3,430.8,73.3z"/>
			<path class="st10" d="M413,82.3h-34.5c-0.8,0-1.4-0.6-1.4-1.4v-0.6c0-0.8,0.6-1.4,1.4-1.4H413c0.8,0,1.4,0.6,1.4,1.4v0.6
				C414.4,81.7,413.8,82.3,413,82.3z"/>
			<circle class="st10" cx="356.9" cy="73.3" r="4.6"/>
			<path class="st10" d="M365.1,81.5c0,2.5-4.6,4.3-7.1,4.3c-4.3,0-8.5-1.7-8.5-4.3c0-2.5,5.3-3.6,7.8-3.6
				C359.8,77.9,365.1,78.9,365.1,81.5z"/>
		</g>
	</g>
	<rect x="331.3" y="7.3" class="st3" width="146.4" height="42.6"/>
	<g>
		<circle class="st9" cx="357.3" cy="27.2" r="10.7"/>
		<g>
			<path class="st10" d="M430.8,25.5h-52c-0.9,0-1.7-0.8-1.7-1.7l0,0c0-0.9,0.8-1.7,1.7-1.7h52c0.9,0,1.7,0.8,1.7,1.7l0,0
				C432.5,24.8,431.7,25.5,430.8,25.5z"/>
			<path class="st10" d="M413,34.6h-34.5c-0.8,0-1.4-0.6-1.4-1.4v-0.6c0-0.8,0.6-1.4,1.4-1.4H413c0.8,0,1.4,0.6,1.4,1.4v0.6
				C414.4,33.9,413.8,34.6,413,34.6z"/>
			<circle class="st10" cx="356.9" cy="25.5" r="4.6"/>
			<path class="st10" d="M365.1,33.7c0,2.5-4.6,4.3-7.1,4.3c-4.3,0-8.5-1.7-8.5-4.3c0-2.5,5.3-3.6,7.8-3.6
				C359.8,30.1,365.1,31.1,365.1,33.7z"/>
		</g>
	</g>
	<rect x="331.3" y="-41.2" class="st3" width="146.4" height="42.6"/>
	<g>
		<circle class="st9" cx="357.3" cy="-21.3" r="10.7"/>
		<g>
			<path class="st10" d="M430.8-23h-52c-0.9,0-1.7-0.8-1.7-1.7l0,0c0-0.9,0.8-1.7,1.7-1.7h52c0.9,0,1.7,0.8,1.7,1.7l0,0
				C432.5-23.7,431.7-23,430.8-23z"/>
			<path class="st10" d="M413-13.9h-34.5c-0.8,0-1.4-0.6-1.4-1.4v-0.6c0-0.8,0.6-1.4,1.4-1.4H413c0.8,0,1.4,0.6,1.4,1.4v0.6
				C414.4-14.6,413.8-13.9,413-13.9z"/>
			<circle class="st10" cx="356.9" cy="-23" r="4.6"/>
			<path class="st10" d="M365.1-14.8c0,2.5-4.6,4.3-7.1,4.3c-4.3,0-8.5-1.7-8.5-4.3c0-2.5,5.3-3.6,7.8-3.6
				C359.8-18.4,365.1-17.4,365.1-14.8z"/>
		</g>
	</g>
	<rect x="331.3" y="-89.7" class="st3" width="146.4" height="42.6"/>
	<g>
		<circle class="st9" cx="357.3" cy="-69.8" r="10.7"/>
		<g>
			<path class="st10" d="M430.8-71.5h-52c-0.9,0-1.7-0.8-1.7-1.7l0,0c0-0.9,0.8-1.7,1.7-1.7h52c0.9,0,1.7,0.8,1.7,1.7l0,0
				C432.5-72.2,431.7-71.5,430.8-71.5z"/>
			<path class="st10" d="M413-62.4h-34.5c-0.8,0-1.4-0.6-1.4-1.4v-0.6c0-0.8,0.6-1.4,1.4-1.4H413c0.8,0,1.4,0.6,1.4,1.4v0.6
				C414.4-63.1,413.8-62.4,413-62.4z"/>
			<circle class="st10" cx="356.9" cy="-71.5" r="4.6"/>
			<path class="st10" d="M365.1-63.3c0,2.5-4.6,4.3-7.1,4.3c-4.3,0-8.5-1.7-8.5-4.3c0-2.5,5.3-3.6,7.8-3.6
				C359.8-66.9,365.1-65.9,365.1-63.3z"/>
		</g>
	</g>
	<g>
		<rect x="333.1" y="-167.9" class="st11" width="37.6" height="8.8"/>
		<rect x="368.2" y="-150.3" class="st6" width="52.6" height="8.8"/>
		<rect x="358.1" y="-132.8" class="st7" width="77.7" height="8.8"/>
		<rect x="398.2" y="-124" class="st12" width="77.7" height="8.8"/>
	</g>
</g>
<g>
	
		<linearGradient id="SVGID_1_" gradientUnits="userSpaceOnUse" x1="830.5253" y1="-146.4072" x2="951.4126" y2="-146.4072" gradientTransform="matrix(1 0 0 -1 0 23.2)">
		<stop  offset="0" style="stop-color:#F2F6FC"/>
		<stop  offset="0.34" style="stop-color:#F1F6FC"/>
		<stop  offset="0.47" style="stop-color:#EAF0F9"/>
		<stop  offset="0.56" style="stop-color:#DFE7F5"/>
		<stop  offset="0.61" style="stop-color:#D3DEF1"/>
		<stop  offset="0.8" style="stop-color:#D1DCF0"/>
		<stop  offset="0.87" style="stop-color:#CBD6EE"/>
		<stop  offset="0.92" style="stop-color:#BFCCE9"/>
		<stop  offset="0.95" style="stop-color:#ADBEE2"/>
		<stop  offset="0.99" style="stop-color:#98ADD9"/>
		<stop  offset="1" style="stop-color:#8DA2D3"/>
	</linearGradient>
	<path class="st13" d="M828.7,126.4v50.4c0,1.4,0.9,2.8,2.7,3.9l51.2,30.4c3.6,2.1,9.5,2.1,13.1,0l51.2-30.4
		c1.8-1.1,2.7-2.5,2.7-3.9v-50.4H828.7z"/>
	
		<linearGradient id="SVGID_2_" gradientUnits="userSpaceOnUse" x1="828.7343" y1="-103.2425" x2="949.6601" y2="-103.2425" gradientTransform="matrix(1 0 0 -1 0 23.2)">
		<stop  offset="0" style="stop-color:#F6F7FB"/>
		<stop  offset="1" style="stop-color:#FFFFFF"/>
	</linearGradient>
	<path class="st14" d="M831.4,130.3l51.2,30.4c3.6,2.1,9.5,2.1,13.1,0l51.2-30.4c3.6-2.1,3.6-5.6,0-7.8l-51.2-30.4
		c-3.6-2.1-9.5-2.1-13.1,0l-51.2,30.4C827.8,124.7,827.8,128.2,831.4,130.3z"/>
	<path class="st9" d="M947.3,130.1l-51.2,30.4c-3.6,2.1-9.5,2.1-13.1,0l-51.2-30.4c-3.3-2-3.6-5.1-0.8-7.3c-3.2,2.2-3,5.4,0.4,7.5
		l51.2,30.4c3.6,2.1,9.5,2.1,13.1,0l51.2-30.4c0.3-0.2,0.5-0.3,0.8-0.5C947.6,129.9,947.4,130,947.3,130.1z"/>
	<path class="st15" d="M905.4,115.5c0,0,2.1,5,1.6,7.6s-3.7,4.8-3,5.3c0.7,0.5,4.9,2.6,2.7,3.8c-2.2,1.2-39.2,22.8-39.2,22.8
		s2.7,0.9,3.8,5.6c1.1,4.7-0.7,15.8,0.5,20c1.1,4.2,4.9,11.6,3.6,13.8s-6.2,8.8-7.8,11.3c-1.6,2.5-6.6,6-8.7,3.3
		c-2.1-2.6,7.3-16.8,7.1-18.6c-0.1-1.1-65.9,31.7-65.9,31.7l-2.4-4l65.7-38.4c0,0-11.4-25.8-11-32.3
		C852.5,140.9,905.4,115.5,905.4,115.5L905.4,115.5z"/>
	<path class="st16" d="M803.5,206.2c-0.7,0.8-1.2,1.5-1.5,2c-1.5,2.2-4.8,7.4-6.7,9.2c-1.9,1.9-4,1.4-4,3c0,1.6,3.2,3.2,6.4,2.7
		c3-0.5,6.8-5.4,8.9-7.5c2.1-2.1,7-1.2,10.3-3.5c2.2-1.5,1.7-4.1,0.9-5.9L803.5,206.2z"/>
	<path class="st17" d="M817.3,198.1c-0.7,3.3-0.8,4.1-0.3,5.1c0.5,1.1,3.3,5.5,0,7.8c-3.3,2.3-8.2,1.4-10.3,3.5
		c-2.1,2.1-5.9,7-8.9,7.5c-3.2,0.5-6.4,0-6.4-1.6c0-1.6,2.1-2.2,4-4.1s5.2-7.1,6.7-9.2c1.5-2.2,8.7-11.2,9.7-12.7
		C812.8,192.9,818,194.8,817.3,198.1L817.3,198.1z"/>
	
		<linearGradient id="SVGID_3_" gradientUnits="userSpaceOnUse" x1="808.1445" y1="-186.8018" x2="803.1208" y2="-179.7045" gradientTransform="matrix(1 0 0 -1 0 23.2)">
		<stop  offset="0" style="stop-color:#E89493"/>
		<stop  offset="7.000000e-002" style="stop-color:#EA9A99"/>
		<stop  offset="0.43" style="stop-color:#ECB5B3"/>
		<stop  offset="0.75" style="stop-color:#EDC5C2"/>
		<stop  offset="1" style="stop-color:#EECAC9"/>
	</linearGradient>
	<path class="st18" d="M816.6,201.7c0,0-1.2,4.1-3.4,5.4s-6.4,2.6-8.3,4.5c-1.9,2-6.2,6.2-8.5,5.5s2.3-4.2,4.4-8.3
		c2.1-4.1,6.2-7.7,9-11.9C812.8,192.7,817.3,195.4,816.6,201.7L816.6,201.7z"/>
	<path class="st16" d="M863.4,193.1c-0.7,1.5-1.4,2.7-1.8,3.4c-1.6,3.3-0.9,4.6-2.9,7.8c-1.7,2.8-4.1,4.7-4.1,5.5
		c0,2.1,4.9,4.4,8.5,2.5c2.4-1.3,6.5-7.8,7-10c0.5-2.2,2.4-3.6,3.7-6.1c0.5-1,0.5-2.1,0.1-3.1L863.4,193.1z"/>
	<path class="st17" d="M869,184.3c0.8,1.8,1.8,3.4,2.9,5c0.9,1,3,3.7,1.8,6.2c-1.2,2.5-3.1,3.9-3.7,6.1c-0.5,2.2-4.6,8.8-7,10
		c-3.6,1.9-8.5,0.2-8.5-1.9c0-0.9,2.4-3.3,4.1-6.1c2-3.2,1.3-4.6,2.9-7.8c0.9-1.7,3.8-6.1,3-10.4C863.7,181.2,869,184.3,869,184.3z"
		/>
	
		<linearGradient id="SVGID_4_" gradientUnits="userSpaceOnUse" x1="868.6923" y1="-178.3581" x2="862.1636" y2="-169.1404" gradientTransform="matrix(1 0 0 -1 0 23.2)">
		<stop  offset="0" style="stop-color:#E89493"/>
		<stop  offset="7.000000e-002" style="stop-color:#EA9A99"/>
		<stop  offset="0.43" style="stop-color:#ECB5B3"/>
		<stop  offset="0.75" style="stop-color:#EDC5C2"/>
		<stop  offset="1" style="stop-color:#EECAC9"/>
	</linearGradient>
	<path class="st19" d="M871,188.1c0,0,1.7,4.3,0.7,6.5c-1.1,2.2-3.7,4.3-5,6.7c-1.3,2.4-2.6,6.1-5.5,5.4c-2.9-0.8-1.3-2.9-0.7-5.4
		c0.6-2.5,1.5-4.9,2.7-7.1c1-1.7,2.3-5.8,2.6-6.5C866.1,186.9,871,188.1,871,188.1z"/>
	<path class="st20" d="M888.6,117.7l-52.1,39.7c-2.6,2.1-6.5,1.7-8.6-1c-2-2.5-1.7-6.1,0.6-8.3l46.7-45.9c4-4,10.5-3.9,14.5,0.1
		s3.9,10.5-0.1,14.5C889.2,117.2,888.9,117.5,888.6,117.7z"/>
	<circle class="st21" cx="887" cy="115.5" r="16.7"/>
	<path class="st22" d="M901.2,128.7l-41.5,28.3c-2.8,1.9-6.6,1.2-8.5-1.6c-1.7-2.5-1.4-5.9,0.8-8l36.3-34.7
		c4.1-3.9,10.6-3.8,14.5,0.3s3.8,10.6-0.3,14.5C902.1,128,901.6,128.3,901.2,128.7z"/>
	<path class="st20" d="M835,172.1c-2.9,8.1-15.8,24.2-17.8,28.1c-2.1,4.2-10,1.7-8.2-2.6c4.2-9.9,14.6-43.3,18.7-48.2
		c1.8-2.1,7.1-2.9,8.8,2C838.4,156.7,836.5,167.9,835,172.1L835,172.1z"/>
	<path class="st22" d="M868.4,160.5c1.6,6.2,1.3,23.4,2.7,27.6c0.6,1.8-5.8,4-6.7,0.8c-3-10.8-14.4-32.9-14.2-37.2
		c0.2-4.8,4.3-6.1,8.6-3.2C863.2,151.5,867.3,156.1,868.4,160.5z"/>
	<path class="st23" d="M885.4,58.6l-19.5,31.3c-1.3,2.2-4.2,3-6.4,1.7c-2.2-1.3-3-4.2-1.7-6.4l17.5-32.5c1.5-2.9,5-4.1,7.9-2.6
		s4.1,5,2.6,7.9c0,0.1-0.1,0.2-0.1,0.3C885.5,58.4,885.4,58.5,885.4,58.6L885.4,58.6z"/>
	
		<linearGradient id="SVGID_5_" gradientUnits="userSpaceOnUse" x1="912.0076" y1="-86.5699" x2="870.2737" y2="-35.538" gradientTransform="matrix(1 0 0 -1 0 23.2)">
		<stop  offset="0" style="stop-color:#4B5EAB"/>
		<stop  offset="0.18" style="stop-color:#4C5FAB"/>
		<stop  offset="0.35" style="stop-color:#4F63AD"/>
		<stop  offset="0.5" style="stop-color:#536BB2"/>
		<stop  offset="0.65" style="stop-color:#617DBE"/>
		<stop  offset="0.79" style="stop-color:#76A0D5"/>
		<stop  offset="0.93" style="stop-color:#85CAF0"/>
		<stop  offset="1" style="stop-color:#95D9F2"/>
	</linearGradient>
	<path class="st24" d="M905.5,121.9c0.9-6.3-0.9-20.6-0.8-22.2c0-1.6,9.5-34.5,8-38.8c-0.7-2.1-4-5.2-19.9-10.1
		c-9.9-3.1-14-1.6-15.3,0.5c-0.3,0.5-1.2,4.5-2.7,8.4s-3.7,7.6-3.8,8.5c-0.2,3.3,4,16.3,4,16.3l2.3,12.2c0,0-5.2,6.4-6.9,11.3
		c-0.8,2.2,8.7,9.8,16.9,12.9C899.4,125.3,905.2,123.4,905.5,121.9L905.5,121.9z"/>
	<path class="st22" d="M896.6,59.2c-0.8,2.8-8.4,11.4-11.5,10.3c-3.1-1.1-2.4-9.2-1.1-12.7S897.5,56.4,896.6,59.2z"/>
	
		<linearGradient id="SVGID_6_" gradientUnits="userSpaceOnUse" x1="830.2685" y1="-108.925" x2="830.3554" y2="-93.4864" gradientTransform="matrix(0.9717 0.2362 0.2362 -0.9717 100.7897 -254.9853)">
		<stop  offset="0" style="stop-color:#EF4523"/>
		<stop  offset="1" style="stop-color:#F15A22"/>
	</linearGradient>
	<path class="st25" d="M883.2,30.9c-0.5,1.2-1.1,2.3-1.9,3.3c-0.8,1-4.2,2.6-5,3.9c-0.6,1-1.3,2.6,1.2,4.9c-0.1,1.3,0.5,2.6,1.6,3.5
		c3.3,1.2,6.8,1.8,10.3,1.9c0,0,0.4-4.9,0.6-11C890.1,33,883.2,30.9,883.2,30.9L883.2,30.9z"/>
	<path class="st26" d="M887.7,30.3c-0.5,1.2-1.1,2.3-1.9,3.3c-0.8,1-4.2,2.6-5,3.9c-0.6,1-1.3,2.6,1.2,4.9c-0.1,1.3,0.5,2.6,1.6,3.5
		c3.3,1.2,6.8,1.8,10.3,1.9c0,0,0.3-4.9,0.6-11C894.7,32.4,887.7,30.3,887.7,30.3L887.7,30.3z"/>
	
		<linearGradient id="SVGID_7_" gradientUnits="userSpaceOnUse" x1="847.6136" y1="-29.9798" x2="847.6136" y2="-49.9605" gradientTransform="matrix(0.9984 -5.704129e-002 -5.704129e-002 -0.9984 44.5884 51.8611)">
		<stop  offset="0" style="stop-color:#E8605A"/>
		<stop  offset="1" style="stop-color:#EECAC9"/>
	</linearGradient>
	<path class="st27" d="M887.6,38.4L887.6,38.4c1.8,7,2,7.5,0.1,15.7l0.1,7l0.4,0.1l11.9-7.1c0-0.2-0.1-0.3-0.1-0.5
		c-2.8-8.1-2.7-8.6-1.7-15.8v-0.1c0-0.3,0.1-0.7,0-1c-0.2-3-2.7-5.3-5.7-5.1c-3,0.2-5.3,2.7-5.1,5.7
		C887.4,37.7,887.5,38.1,887.6,38.4L887.6,38.4z"/>
	<path class="st28" d="M864.1,113.6l9.2,31.2c0.1,0.4,0.3,0.8,0.5,1.2c0.1,0.1,0.1,0.2,0.2,0.3c0.2,0.3,0.5,0.6,0.8,0.9
		c0.1,0.1,0.2,0.1,0.3,0.2c0.3,0.2,0.5,0.3,0.8,0.5c1.5,0.7,3.2,0.6,4.6-0.2l24-13.8c0.2-0.1,0.4-0.4,0.4-0.6c0-0.1,0-0.9,0-1
		c0-0.1-0.2,0.4-0.4,0.3l-43.7-25.7c-0.2-0.1-0.5-0.1-0.8,0l-3.7,2.2l-21,12.1c-1.3,0.8-2.9,0.9-4.3,0.3c-0.5-0.2-1-0.5-1.4-0.8
		c-0.8-0.6-1.3-1.5-1.6-2.4l-8.2-27.9L864.1,113.6z"/>
	
		<linearGradient id="SVGID_8_" gradientUnits="userSpaceOnUse" x1="881.5099" y1="-120.2034" x2="831.5349" y2="-59.0774" gradientTransform="matrix(1 0 0 -1 0 23.2)">
		<stop  offset="0" style="stop-color:#95D9F2"/>
		<stop  offset="0.14" style="stop-color:#7EBDE8"/>
		<stop  offset="0.3" style="stop-color:#6F99D0"/>
		<stop  offset="0.46" style="stop-color:#5D7FC0"/>
		<stop  offset="0.62" style="stop-color:#5070B6"/>
		<stop  offset="0.8" style="stop-color:#4E6AB2"/>
		<stop  offset="1" style="stop-color:#4C69B1"/>
	</linearGradient>
	<path class="st29" d="M819.9,89.5l8.2,27.9c0.3,0.9,0.8,1.8,1.6,2.4c0.4,0.3,0.9,0.6,1.4,0.8c1.4,0.6,3,0.4,4.3-0.3l21-12.1
		l3.7-2.2c0.2-0.1,0.5-0.1,0.8,0l43.7,25.7c0.4,0.2,0.5,0.7,0.3,1c-0.1,0.1-0.2,0.2-0.3,0.3l-24,13.8c-1.4,0.8-3.1,0.9-4.6,0.2
		c-0.3-0.1-0.6-0.3-0.8-0.5c-0.1-0.1-0.2-0.1-0.3-0.2c-0.3-0.3-0.6-0.6-0.8-0.9c-0.1-0.1-0.2-0.2-0.2-0.3c-0.2-0.4-0.4-0.8-0.5-1.2
		l-12.8-29.4L819.9,89.5z"/>
	<path class="st30" d="M869.3,119.3l9.1,5.3c0.4,0.2,0.8,0.2,1.2,0l5.5-3.2c0.2-0.1,0.3-0.3,0.2-0.5c0-0.1-0.1-0.1-0.2-0.2l-9.1-5.3
		c-0.4-0.2-0.8-0.2-1.2,0l-5.5,3.2c-0.2,0.1-0.3,0.3-0.2,0.5C869.1,119.2,869.2,119.3,869.3,119.3L869.3,119.3z"/>
	<path class="st31" d="M885.1,120.8l-9.1-5.3c-0.4-0.2-0.8-0.2-1.2,0l-5.5,3.2c-0.1,0.1-0.2,0.2-0.2,0.3c0-0.2,0-0.3,0.2-0.4
		l5.5-3.2c0.4-0.2,0.8-0.2,1.2,0l9.1,5.3c0.2,0.1,0.3,0.2,0.2,0.4C885.3,121,885.3,120.9,885.1,120.8z"/>
	<path class="st32" d="M845.3,124.2l-2.2-1.3c-0.1,0-0.1-0.1-0.1-0.2c0-0.1,0.1-0.1,0.1-0.1l0.7-0.4c0.2-0.1,0.4-0.1,0.6,0l2.2,1.3
		c0.1,0,0.1,0.1,0.1,0.2c0,0.1-0.1,0.1-0.1,0.1l-0.7,0.4C845.7,124.3,845.5,124.3,845.3,124.2z M849.2,126.2l0.7-0.4
		c0.1,0,0.1-0.1,0.1-0.2c0-0.1-0.1-0.1-0.1-0.1l-2.2-1.3c-0.2-0.1-0.4-0.1-0.6,0l-0.7,0.4c-0.1,0-0.1,0.1-0.1,0.2
		c0,0.1,0.1,0.1,0.1,0.1l2.2,1.3C848.9,126.3,849.1,126.3,849.2,126.2z M852.6,128.2l0.7-0.4c0.2-0.1,0.2-0.2,0-0.3l-2.2-1.3
		c-0.2-0.1-0.4-0.1-0.6,0l-0.7,0.4c-0.2,0.1-0.2,0.2,0,0.3l2.2,1.3C852.3,128.2,852.5,128.2,852.6,128.2z M856,130.1l0.7-0.4
		c0.1,0,0.1-0.1,0.1-0.2c0-0.1-0.1-0.1-0.1-0.1l-2.2-1.3c-0.2-0.1-0.4-0.1-0.6,0l-0.7,0.4c-0.1,0-0.1,0.1-0.1,0.2
		c0,0.1,0.1,0.1,0.1,0.1l2.2,1.3C855.6,130.2,855.8,130.2,856,130.1z M859.4,132.1l0.7-0.4c0.1,0,0.1-0.1,0.1-0.2
		c0-0.1-0.1-0.1-0.1-0.1l-2.2-1.3c-0.2-0.1-0.4-0.1-0.6,0l-0.7,0.4c-0.1,0-0.1,0.1-0.1,0.2c0,0.1,0.1,0.1,0.1,0.1l2.2,1.3
		C859,132.2,859.2,132.2,859.4,132.1L859.4,132.1z M862.8,134l0.7-0.4c0.2-0.1,0.2-0.2,0-0.3l-2.2-1.3c-0.2-0.1-0.4-0.1-0.6,0
		l-0.7,0.4c-0.1,0.1-0.1,0.2,0,0.3l2.2,1.3C862.4,134.1,862.6,134.1,862.8,134z M866.2,136l0.7-0.4c0.1,0,0.1-0.1,0.1-0.2
		c0-0.1-0.1-0.1-0.1-0.1l-2.2-1.3c-0.2-0.1-0.4-0.1-0.6,0l-0.7,0.4c-0.1,0-0.1,0.1-0.1,0.2c0,0.1,0.1,0.1,0.1,0.1l2.2,1.3
		C865.8,136.1,866,136.1,866.2,136z M869.6,137.9l0.7-0.4c0.2-0.1,0.2-0.2,0-0.3l-2.2-1.3c-0.2-0.1-0.4-0.1-0.6,0l-0.7,0.4
		c-0.2,0.1-0.2,0.2,0,0.3l2.2,1.3C869.2,138,869.4,138,869.6,137.9z M873,139.9l0.7-0.4c0.2-0.1,0.2-0.2,0-0.3l-2.2-1.3
		c-0.2-0.1-0.4-0.1-0.6,0l-0.7,0.4c-0.2,0.1-0.2,0.2,0,0.3l2.2,1.3C872.6,140,872.8,140,873,139.9z M876.4,141.9l0.7-0.4
		c0.1,0,0.1-0.1,0.1-0.2c0-0.1-0.1-0.1-0.1-0.1l-2.2-1.3c-0.2-0.1-0.4-0.1-0.6,0l-0.7,0.4c-0.1,0-0.1,0.1-0.1,0.2
		c0,0.1,0.1,0.1,0.1,0.1l2.2,1.3C876,141.9,876.2,141.9,876.4,141.9z M879.8,143.8l0.7-0.4c0.2-0.1,0.2-0.2,0-0.3l-2.2-1.3
		c-0.2-0.1-0.4-0.1-0.6,0l-0.7,0.4c-0.2,0.1-0.2,0.2,0,0.3l2.2,1.3C879.4,143.9,879.6,143.9,879.8,143.8z M842.5,122.3l0.7-0.4
		c0.2-0.1,0.2-0.2,0-0.3l-2.2-1.3c-0.2-0.1-0.4-0.1-0.6,0l-0.7,0.4c-0.2,0.1-0.2,0.2,0,0.3l2.2,1.3
		C842.1,122.4,842.3,122.4,842.5,122.3z M857.4,129.3l2.2-1.3c0.1,0,0.1-0.1,0-0.2l-2.2-1.3c-0.1,0-0.2,0-0.3,0l-2.2,1.3
		c-0.1,0-0.1,0.1,0,0.2l2.2,1.3C857.2,129.3,857.3,129.3,857.4,129.3z M860.2,130.9l2.2-1.3c0.1,0,0.1-0.1,0-0.2l-2.2-1.3
		c-0.1,0-0.2,0-0.3,0l-2.2,1.3c-0.1,0-0.1,0.1,0,0.2l2.2,1.3C860,131,860.1,131,860.2,130.9L860.2,130.9z M862.9,132.5l2.2-1.3
		c0.1,0,0.1-0.1,0-0.2l-2.2-1.3c-0.1,0-0.2,0-0.3,0l-2.2,1.3c-0.1,0-0.1,0.1,0,0.2l2.2,1.3C862.8,132.6,862.9,132.6,862.9,132.5
		L862.9,132.5z M865.7,134.1l2.2-1.3c0.1,0,0.1-0.1,0-0.2l-2.2-1.3c-0.1,0-0.2,0-0.3,0l-2.2,1.3c-0.1,0-0.1,0.1,0,0.2l2.2,1.3
		C865.5,134.2,865.7,134.2,865.7,134.1L865.7,134.1z M868.5,135.7l2.2-1.3c0.1,0,0.1-0.1,0-0.2l-2.2-1.2c-0.1,0-0.2,0-0.3,0
		l-2.2,1.3c-0.1,0-0.1,0.1,0,0.2l2.2,1.3C868.3,135.8,868.4,135.8,868.5,135.7L868.5,135.7z M871.3,137.3l2.2-1.3c0,0,0.1-0.1,0-0.1
		c0,0,0,0,0,0l-2.2-1.3c-0.1,0-0.2,0-0.3,0l-2.2,1.3c0,0-0.1,0.1,0,0.1c0,0,0,0,0,0l2.2,1.3C871.1,137.4,871.2,137.4,871.3,137.3
		L871.3,137.3z M874,138.9l2.2-1.3c0.1,0,0.1-0.1,0-0.2l-2.2-1.3c-0.1,0-0.2,0-0.3,0l-2.2,1.3c-0.1,0-0.1,0.1,0,0.2l2.2,1.3
		C873.9,139,874,139,874,138.9L874,138.9z M876.8,140.5l2.2-1.3c0.1,0,0.1-0.1,0-0.2l-2.2-1.3c-0.1,0-0.2,0-0.3,0l-2.2,1.3
		c-0.1,0-0.1,0.1,0,0.2l2.2,1.3C876.6,140.5,876.8,140.5,876.8,140.5L876.8,140.5z M881.1,143l2.2-1.3c0.1,0,0.1-0.1,0-0.2l-3.7-2.2
		c-0.1,0-0.2,0-0.3,0l-2.2,1.3c-0.1,0-0.1,0.1,0,0.2l3.7,2.2C880.9,143.1,881.1,143.1,881.1,143L881.1,143z M863,119.7l2.2-1.3
		c0,0,0.1-0.1,0-0.1c0,0,0,0,0,0L863,117c-0.1,0-0.2,0-0.3,0l-2.2,1.3c-0.1,0-0.1,0.1,0,0.2l2.2,1.3
		C862.8,119.7,862.9,119.7,863,119.7L863,119.7z M865.7,121.3l2.2-1.3c0.1,0,0.1-0.1,0-0.2l-2.2-1.3c-0.1,0-0.2,0-0.3,0l-2.2,1.3
		c-0.1,0-0.1,0.1,0,0.2l2.2,1.3C865.6,121.3,865.7,121.3,865.7,121.3L865.7,121.3z M868.5,122.9l2.2-1.3c0,0,0.1-0.1,0-0.1
		c0,0,0,0,0,0l-2.2-1.3c-0.1,0-0.2,0-0.3,0l-2.2,1.3c0,0-0.1,0.1,0,0.1c0,0,0,0,0,0l2.2,1.3C868.3,122.9,868.4,122.9,868.5,122.9
		L868.5,122.9z M885.2,132.5l2.2-1.3c0.1,0,0.1-0.1,0-0.2l-2.2-1.3c-0.1,0-0.2,0-0.3,0l-2.2,1.3c-0.1,0-0.1,0.1,0,0.2l2.2,1.3
		C885,132.5,885.1,132.5,885.2,132.5L885.2,132.5z M887.9,134.1l2.2-1.3c0,0,0.1-0.1,0-0.1c0,0,0,0,0,0l-2.2-1.3c-0.1,0-0.2,0-0.3,0
		l-2.2,1.3c0,0-0.1,0.1,0,0.1c0,0,0,0,0,0l2.2,1.3C887.8,134.1,887.9,134.1,887.9,134.1L887.9,134.1z M892.3,136.6l2.2-1.3
		c0.1,0,0.1-0.1,0-0.2l-3.7-2.1c-0.1,0-0.2,0-0.3,0l-2.2,1.3c-0.1,0-0.1,0.1,0,0.2l3.7,2.2C892.1,136.7,892.2,136.7,892.3,136.6
		L892.3,136.6z M883.7,138.7l-2.2,1.3c-0.1,0-0.1,0.1,0,0.2l2.2,1.3c0.1,0,0.2,0,0.3,0l2.2-1.3c0.1,0,0.1-0.1,0-0.2l-2.2-1.3
		C883.9,138.7,883.7,138.7,883.7,138.7L883.7,138.7z M880.9,137.1l-2.2,1.3c-0.1,0-0.1,0.1,0,0.2l2.2,1.3c0.1,0,0.2,0,0.3,0l2.2-1.3
		c0.1,0,0.1-0.1,0-0.2l-2.2-1.3C881.1,137.1,881,137.1,880.9,137.1L880.9,137.1z M878.1,135.5l-2.2,1.3c-0.1,0-0.1,0.1,0,0.2
		l2.2,1.3c0.1,0,0.2,0,0.3,0l2.2-1.3c0,0,0.1-0.1,0-0.1c0,0,0,0,0,0l-2.2-1.3C878.3,135.5,878.2,135.5,878.1,135.5L878.1,135.5z
		 M875.3,133.9l-2.2,1.3c0,0-0.1,0.1-0.1,0.1c0,0,0,0,0.1,0.1l2.2,1.3c0.1,0,0.2,0,0.3,0l2.2-1.3c0,0,0.1-0.1,0.1-0.1
		c0,0,0,0-0.1-0.1l-2.2-1.3C875.5,133.9,875.4,133.9,875.3,133.9L875.3,133.9z M872.6,132.3l-2.2,1.3c0,0-0.1,0.1,0,0.1c0,0,0,0,0,0
		l2.2,1.3c0.1,0,0.2,0,0.3,0l2.2-1.3c0.1,0,0.1-0.1,0-0.2l-2.2-1.3C872.7,132.3,872.6,132.3,872.6,132.3L872.6,132.3z M869.8,130.7
		l-2.2,1.3c-0.1,0-0.1,0.1,0,0.2l2.2,1.3c0.1,0,0.2,0,0.3,0l2.2-1.3c0.1,0,0.1-0.1,0-0.2l-2.2-1.3
		C870,130.7,869.9,130.7,869.8,130.7L869.8,130.7z M867,129.1l-2.2,1.3c-0.1,0-0.1,0.1,0,0.2l2.2,1.3c0.1,0,0.2,0,0.3,0l2.2-1.3
		c0.1,0,0.1-0.1,0-0.2l-2.2-1.3C867.2,129.1,867.1,129.1,867,129.1L867,129.1z M864.2,127.5l-2.2,1.3c-0.1,0-0.1,0.1,0,0.2l2.2,1.3
		c0.1,0,0.2,0,0.3,0l2.2-1.3c0.1,0,0.1-0.1,0-0.2l-2.2-1.3C864.5,127.4,864.3,127.4,864.2,127.5L864.2,127.5z M861.5,125.9l-2.2,1.3
		c-0.1,0-0.1,0.1,0,0.2l2.2,1.3c0.1,0,0.2,0,0.3,0l2.2-1.3c0.1,0,0.1-0.1,0-0.2l-2.2-1.3C861.6,125.8,861.5,125.9,861.5,125.9
		L861.5,125.9z M858.7,124.3l-2.2,1.3c-0.1,0-0.1,0.1,0,0.2l2.2,1.3c0.1,0,0.2,0,0.3,0l2.2-1.3c0,0,0.1-0.1,0-0.1c0,0,0,0,0,0
		l-2.2-1.3C858.9,124.2,858.8,124.2,858.7,124.3L858.7,124.3z M862.7,123.4l-2.2,1.3c-0.1,0-0.1,0.1,0,0.2l2.2,1.3
		c0.1,0,0.2,0,0.3,0l2.2-1.3c0.1,0,0.1-0.1,0-0.2l-2.2-1.3C862.9,123.4,862.8,123.4,862.7,123.4L862.7,123.4z M865.5,125l-2.2,1.3
		c-0.1,0-0.1,0.1,0,0.2l2.2,1.3c0.1,0,0.2,0,0.3,0l2.2-1.3c0.1,0,0.1-0.1,0-0.2l-2.2-1.2C865.7,125,865.6,125,865.5,125L865.5,125z
		 M868.2,126.6l-2.2,1.3c-0.1,0-0.1,0.1,0,0.2l2.2,1.3c0.1,0,0.2,0,0.3,0l2.2-1.3c0.1,0,0.1-0.1,0-0.2l-2.2-1.3
		C868.4,126.6,868.3,126.6,868.2,126.6L868.2,126.6z M871,128.2l-2.2,1.3c-0.1,0-0.1,0.1,0,0.2l2.2,1.3c0.1,0,0.2,0,0.3,0l2.2-1.3
		c0.1,0,0.1-0.1,0-0.2l-2.2-1.3C871.2,128.2,871.1,128.2,871,128.2L871,128.2z M873.8,129.8l-2.2,1.3c-0.1,0-0.1,0.1,0,0.2l2.2,1.3
		c0.1,0,0.2,0,0.3,0l2.2-1.3c0.1,0,0.1-0.1,0-0.2l-2.2-1.3C874,129.8,873.9,129.8,873.8,129.8L873.8,129.8z M876.6,131.4l-2.2,1.3
		c0,0-0.1,0.1,0,0.1c0,0,0,0,0,0l2.2,1.3c0.1,0,0.2,0,0.3,0l2.2-1.3c0.1,0,0.1-0.1,0-0.2l-2.2-1.3
		C876.8,131.4,876.6,131.4,876.6,131.4L876.6,131.4z M879.3,133l-2.2,1.3c-0.1,0-0.1,0.1,0,0.2l2.2,1.3c0.1,0,0.2,0,0.3,0l2.2-1.3
		c0.1,0,0.1-0.1,0-0.2l-2.2-1.3C879.5,133,879.4,133,879.3,133L879.3,133z M882.1,134.6l-2.2,1.3c-0.1,0-0.1,0.1,0,0.2l2.2,1.3
		c0.1,0,0.2,0,0.3,0l2.2-1.3c0,0,0.1-0.1,0-0.1c0,0,0,0,0,0l-2.2-1.3C882.3,134.6,882.2,134.6,882.1,134.6L882.1,134.6z
		 M884.9,136.2l-2.2,1.3c-0.1,0-0.1,0.1,0,0.2l3.7,2.2c0.1,0,0.2,0,0.3,0l2.2-1.3c0.1,0,0.1-0.1,0-0.2l-3.7-2.2
		C885.1,136.2,885,136.2,884.9,136.2L884.9,136.2z M859.9,121.8l-2.2,1.3c-0.1,0-0.1,0.1,0,0.2l2.2,1.3c0.1,0,0.2,0,0.3,0l2.2-1.3
		c0.1,0,0.1-0.1,0-0.2l-2.2-1.3C860.1,121.8,860,121.8,859.9,121.8L859.9,121.8z M848.8,118.6l-2.2,1.3c-0.1,0-0.1,0.1,0,0.2
		l2.2,1.3c0.1,0,0.2,0,0.3,0l2.2-1.3c0.1,0,0.1-0.1,0-0.2l-2.2-1.3C849,118.5,848.9,118.6,848.8,118.6L848.8,118.6z M851.6,120.2
		l-2.2,1.3c0,0-0.1,0.1,0,0.1c0,0,0,0,0,0l2.2,1.3c0.1,0,0.2,0,0.3,0l2.2-1.3c0,0,0.1-0.1,0-0.1c0,0,0,0,0,0l-2.2-1.3
		C851.8,120.2,851.7,120.2,851.6,120.2L851.6,120.2z M846,117l-2.2,1.3c-0.1,0-0.1,0.1,0,0.2l2.2,1.3c0.1,0,0.2,0,0.3,0l2.2-1.3
		c0.1,0,0.1-0.1,0-0.2l-2.2-1.3C846.2,117,846.1,117,846,117z M846,120.2l-2.2,1.3c-0.1,0-0.1,0.1,0,0.2l2.2,1.3c0.1,0,0.2,0,0.3,0
		l2.2-1.3c0.1,0,0.1-0.1,0-0.2l-2.2-1.3C846.2,120.2,846.1,120.2,846,120.2z M857.1,113.8l-1,0.6c-0.1,0-0.1,0.1,0,0.2l2.2,1.3
		c0.1,0,0.2,0,0.3,0l1-0.6c0.1,0,0.1-0.1,0-0.2l-2.2-1.3C857.3,113.8,857.2,113.8,857.1,113.8L857.1,113.8z M859.9,115.4l-1,0.5
		c-0.1,0-0.1,0.1,0,0.2l2.2,1.3c0.1,0,0.2,0,0.3,0l1-0.5c0.1,0,0.1-0.1,0-0.2l-2.2-1.3C860.1,115.4,860,115.4,859.9,115.4
		L859.9,115.4z M854.3,112.2l-1,0.5c-0.1,0-0.1,0.1,0,0.2l2.2,1.3c0.1,0,0.2,0,0.3,0l0.9-0.5c0.1,0,0.1-0.1,0-0.2l-2.2-1.3
		C854.5,112.2,854.5,112.2,854.3,112.2L854.3,112.2z M855.6,114.7l-0.9,0.6c-0.1,0-0.1,0.1,0,0.2l2.2,1.3c0.1,0,0.2,0,0.3,0l1-0.5
		c0,0,0.1-0.1,0-0.1c0,0,0,0,0,0l-2.2-1.3C855.8,114.6,855.7,114.6,855.6,114.7L855.6,114.7z M848.8,121.8l-2.2,1.3
		c-0.1,0-0.1,0.1,0,0.2l2.2,1.3c0.1,0,0.2,0,0.3,0l2.2-1.3c0.1,0,0.1-0.1,0-0.2l-2.2-1.3C849,121.8,848.9,121.8,848.8,121.8
		L848.8,121.8z M843.2,118.6l-2.2,1.3c-0.1,0-0.1,0.1,0,0.2l2.2,1.3c0.1,0,0.2,0,0.3,0l2.2-1.3c0.1,0,0.1-0.1,0-0.2l-2.2-1.3
		C843.4,118.6,843.4,118.6,843.2,118.6L843.2,118.6z M856.2,125.4l2.2-1.3c0.1,0,0.1-0.1,0-0.2l-1.3-0.7c-0.1,0-0.1-0.1,0-0.2
		l2.5-1.4c0.1,0,0.1-0.1,0-0.2l-2.2-1.3c-0.1,0-0.2,0-0.3,0l-2.6,1.5l-2.3,1.3c-0.1,0-0.1,0.1,0,0.2l3.7,2.2
		C856,125.4,856.1,125.4,856.2,125.4L856.2,125.4z M859.9,118.6l-2.2,1.3c-0.1,0-0.1,0.1,0,0.2l5.8,3.3c0.1,0,0.2,0,0.3,0l2.2-1.3
		c0.1,0,0.1-0.1,0-0.2l-5.8-3.3C860.1,118.6,860,118.6,859.9,118.6L859.9,118.6z M868.9,123.8l-2.2,1.3c-0.1,0-0.1,0.1,0,0.2
		l2.2,1.3c0.1,0,0.2,0,0.3,0l2.2-1.3c0.1,0,0.1-0.1,0-0.2l-2.2-1.3C869.1,123.8,869,123.8,868.9,123.8L868.9,123.8z M871.7,125.4
		l-2.2,1.3c-0.1,0-0.1,0.1,0,0.2l2.2,1.3c0.1,0,0.2,0,0.3,0l2.2-1.3c0.1,0,0.1-0.1,0-0.2l-2.2-1.3
		C871.9,125.4,871.8,125.4,871.7,125.4L871.7,125.4z M874.5,127l-2.2,1.3c0,0-0.1,0.1,0,0.1c0,0,0,0,0,0l2.2,1.3c0.1,0,0.2,0,0.3,0
		l2.2-1.3c0,0,0.1-0.1,0-0.1c0,0,0,0,0,0l-2.1-1.2C874.7,127,874.6,127,874.5,127L874.5,127z M877.2,128.6l-2.2,1.3
		c-0.1,0-0.1,0.1,0,0.2l2.2,1.3c0.1,0,0.2,0,0.3,0l2.2-1.3c0.1,0,0.1-0.1,0-0.2l-2.2-1.3C877.4,128.6,877.3,128.6,877.2,128.6
		L877.2,128.6z M880,130.2l-2.2,1.3c-0.1,0-0.1,0.1,0,0.2l2.2,1.3c0.1,0,0.2,0,0.3,0l2.2-1.3c0.1,0,0.1-0.1,0-0.2l-2.2-1.3
		C880.2,130.2,880.1,130.2,880,130.2L880,130.2z M882.8,131.8l-2.2,1.2c-0.1,0-0.1,0.1,0,0.2l2.2,1.3c0.1,0,0.2,0,0.3,0l2.2-1.3
		c0.1,0,0.1-0.1,0-0.2l-2.2-1.3C883,131.8,882.9,131.8,882.8,131.8L882.8,131.8z M885.6,133.4l-2.2,1.3c-0.1,0-0.1,0.1,0,0.2
		l2.2,1.3c0.1,0,0.2,0,0.3,0l2.2-1.3c0.1,0,0.1-0.1,0-0.2l-2.2-1.3C885.8,133.4,885.7,133.4,885.6,133.4L885.6,133.4z M888.3,135
		l-2.2,1.3c-0.1,0-0.1,0.1,0,0.2l3,1.8c0.1,0,0.2,0,0.3,0l2.2-1.3c0.1,0,0.1-0.1,0-0.2l-3-1.8C888.5,135,888.4,135,888.3,135
		L888.3,135z M866.3,122.3l-2.2,1.3c-0.1,0-0.1,0.1,0,0.2l2.2,1.3c0.1,0,0.2,0,0.3,0l2.2-1.3c0.1,0,0.1-0.1,0-0.2l-2.2-1.3
		C866.5,122.2,866.3,122.2,866.3,122.3z M854.6,127.7l2.2-1.3c0.1,0,0.1-0.1,0-0.2l-5-2.9c-0.1,0-0.2,0-0.3,0l-2.2,1.3
		c-0.1,0-0.1,0.1,0,0.2l5,2.9C854.5,127.7,854.6,127.7,854.6,127.7z M882.4,130.9l2.2-1.3c0.1,0,0.1-0.1,0-0.2l-13.3-7.7
		c-0.1,0-0.2,0-0.3,0l-2.2,1.3c-0.1,0-0.1,0.1,0,0.2l13.3,7.7C882.2,130.9,882.3,130.9,882.4,130.9L882.4,130.9z"/>
	<path class="st33" d="M845.3,123.8l-2.2-1.3c-0.2-0.1-0.2-0.2,0-0.3l0.7-0.4c0.2-0.1,0.4-0.1,0.6,0l2.2,1.3c0.2,0.1,0.2,0.2,0,0.3
		l-0.7,0.4C845.7,123.9,845.5,123.9,845.3,123.8z M849.2,125.8l0.7-0.4c0.1,0,0.1-0.1,0.1-0.2c0-0.1-0.1-0.1-0.1-0.1l-2.2-1.3
		c-0.2-0.1-0.4-0.1-0.6,0l-0.7,0.4c-0.1,0-0.1,0.1-0.1,0.2c0,0.1,0.1,0.1,0.1,0.1l2.2,1.3C848.9,125.9,849.1,125.9,849.2,125.8z
		 M852.6,127.8l0.7-0.4c0.2-0.1,0.2-0.2,0-0.3l-2.2-1.3c-0.2-0.1-0.4-0.1-0.6,0l-0.7,0.4c-0.2,0.1-0.2,0.2,0,0.3l2.2,1.3
		C852.3,127.8,852.5,127.8,852.6,127.8z M856,129.7l0.7-0.4c0.1,0,0.1-0.1,0.1-0.2c0-0.1-0.1-0.1-0.1-0.1l-2.2-1.3
		c-0.2-0.1-0.4-0.1-0.6,0l-0.7,0.4c-0.1,0-0.1,0.1-0.1,0.2c0,0.1,0.1,0.1,0.1,0.1l2.2,1.3C855.6,129.8,855.8,129.8,856,129.7z
		 M859.4,131.7l0.7-0.4c0.1,0,0.1-0.1,0.1-0.2c0-0.1-0.1-0.1-0.1-0.1l-2.2-1.3c-0.2-0.1-0.4-0.1-0.6,0l-0.7,0.4
		c-0.1,0-0.1,0.1-0.1,0.2c0,0.1,0.1,0.1,0.1,0.1l2.2,1.3C859,131.8,859.2,131.8,859.4,131.7L859.4,131.7z M862.8,133.6l0.7-0.4
		c0.2-0.1,0.2-0.2,0-0.3l-2.2-1.3c-0.2-0.1-0.4-0.1-0.6,0L860,132c-0.1,0.1-0.1,0.2,0,0.3l2.2,1.3
		C862.4,133.7,862.6,133.7,862.8,133.6z M866.2,135.6l0.7-0.4c0.1,0,0.1-0.1,0.1-0.2c0-0.1-0.1-0.1-0.1-0.1l-2.2-1.3
		c-0.2-0.1-0.4-0.1-0.6,0l-0.7,0.4c-0.1,0-0.1,0.1-0.1,0.2c0,0.1,0.1,0.1,0.1,0.1l2.2,1.3C865.8,135.7,866,135.7,866.2,135.6z
		 M869.6,137.5l0.7-0.4c0.2-0.1,0.2-0.2,0-0.3l-2.2-1.3c-0.2-0.1-0.4-0.1-0.6,0l-0.7,0.4c-0.2,0.1-0.2,0.2,0,0.3l2.2,1.3
		C869.2,137.6,869.4,137.6,869.6,137.5z M873,139.5l0.7-0.4c0.2-0.1,0.2-0.2,0-0.3l-2.2-1.3c-0.2-0.1-0.4-0.1-0.6,0l-0.7,0.4
		c-0.2,0.1-0.2,0.2,0,0.3l2.2,1.3C872.6,139.6,872.8,139.6,873,139.5z M876.4,141.4l0.7-0.4c0.1,0,0.1-0.1,0.1-0.2
		c0-0.1-0.1-0.1-0.1-0.1l-2.2-1.3c-0.2-0.1-0.4-0.1-0.6,0l-0.7,0.4c-0.1,0-0.1,0.1-0.1,0.2c0,0.1,0.1,0.1,0.1,0.1l2.2,1.3
		C876,141.5,876.2,141.5,876.4,141.4z M879.8,143.4l0.7-0.4c0.2-0.1,0.2-0.2,0-0.3l-2.2-1.3c-0.2-0.1-0.4-0.1-0.6,0l-0.7,0.4
		c-0.2,0.1-0.2,0.2,0,0.3l2.2,1.3C879.4,143.5,879.6,143.5,879.8,143.4z M842.5,121.9l0.7-0.4c0.2-0.1,0.2-0.2,0-0.3l-2.2-1.3
		c-0.2-0.1-0.4-0.1-0.6,0l-0.7,0.4c-0.2,0.1-0.2,0.2,0,0.3l2.2,1.3C842.1,122,842.3,122,842.5,121.9z M857.4,128.9l2.2-1.3
		c0.1,0,0.1-0.1,0-0.2l-2.2-1.3c-0.1,0-0.2,0-0.3,0l-2.2,1.3c-0.1,0-0.1,0.1,0,0.2l2.2,1.3C857.2,128.9,857.3,128.9,857.4,128.9z
		 M860.2,130.5l2.2-1.3c0.1,0,0.1-0.1,0-0.2l-2.2-1.3c-0.1,0-0.2,0-0.3,0l-2.2,1.3c-0.1,0-0.1,0.1,0,0.2l2.2,1.3
		C860,130.6,860.1,130.6,860.2,130.5L860.2,130.5z M862.9,132.1l2.2-1.3c0.1,0,0.1-0.1,0-0.2l-2.2-1.3c-0.1,0-0.2,0-0.3,0l-2.2,1.3
		c-0.1,0-0.1,0.1,0,0.2l2.2,1.3C862.8,132.2,862.9,132.2,862.9,132.1L862.9,132.1z M865.7,133.7l2.2-1.3c0.1,0,0.1-0.1,0-0.2
		l-2.2-1.2c-0.1,0-0.2,0-0.3,0l-2.2,1.3c-0.1,0-0.1,0.1,0,0.2l2.2,1.3C865.6,133.8,865.7,133.8,865.7,133.7L865.7,133.7z
		 M868.5,135.3l2.2-1.3c0,0,0.1-0.1,0.1-0.1c0,0,0,0-0.1-0.1l-2.2-1.3c-0.1,0-0.2,0-0.3,0l-2.2,1.3c0,0-0.1,0.1-0.1,0.1
		c0,0,0,0,0.1,0.1l2.2,1.3C868.3,135.4,868.4,135.4,868.5,135.3L868.5,135.3z M871.3,136.9l2.2-1.3c0,0,0.1-0.1,0-0.1c0,0,0,0,0,0
		l-2.2-1.3c-0.1,0-0.2,0-0.3,0l-2.2,1.3c0,0-0.1,0.1,0,0.1c0,0,0,0,0,0l2.2,1.3C871.1,137,871.2,137,871.3,136.9L871.3,136.9z
		 M874,138.5l2.2-1.3c0.1,0,0.1-0.1,0-0.2l-2.2-1.3c-0.1,0-0.2,0-0.3,0l-2.2,1.2c-0.1,0-0.1,0.1,0,0.2l2.2,1.3
		C873.9,138.5,874,138.5,874,138.5L874,138.5z M876.8,140.1l2.2-1.3c0.1,0,0.1-0.1,0-0.2l-2.2-1.3c-0.1,0-0.2,0-0.3,0l-2.2,1.3
		c-0.1,0-0.1,0.1,0,0.2l2.2,1.3C876.6,140.2,876.7,140.2,876.8,140.1L876.8,140.1z M881.1,142.6l2.2-1.3c0.1,0,0.1-0.1,0-0.2
		l-3.7-2.2c-0.1,0-0.2,0-0.3,0l-2.2,1.3c-0.1,0-0.1,0.1,0,0.2l3.7,2.2C880.9,142.7,881.1,142.7,881.1,142.6L881.1,142.6z
		 M862.9,119.3l2.2-1.3c0,0,0.1-0.1,0-0.1c0,0,0,0,0,0l-2.2-1.3c-0.1,0-0.2,0-0.3,0l-2.2,1.3c-0.1,0-0.1,0.1,0,0.2l2.2,1.3
		C862.8,119.3,862.9,119.3,862.9,119.3L862.9,119.3z M865.7,120.9l2.2-1.3c0.1,0,0.1-0.1,0-0.2l-2.2-1.3c-0.1,0-0.2,0-0.3,0
		l-2.2,1.3c-0.1,0-0.1,0.1,0,0.2l2.2,1.3C865.5,120.9,865.7,120.9,865.7,120.9L865.7,120.9z M868.5,122.5l2.2-1.3c0,0,0.1-0.1,0-0.1
		c0,0,0,0,0,0l-2.2-1.3c-0.1,0-0.2,0-0.3,0l-2.2,1.3c0,0-0.1,0.1,0,0.1c0,0,0,0,0,0l2.2,1.3C868.3,122.5,868.4,122.5,868.5,122.5
		L868.5,122.5z M885.1,132.1l2.2-1.3c0.1,0,0.1-0.1,0-0.2l-2.2-1.3c-0.1,0-0.2,0-0.3,0l-2.2,1.3c-0.1,0-0.1,0.1,0,0.2l2.2,1.3
		C885,132.2,885.1,132.2,885.1,132.1L885.1,132.1z M887.9,133.7l2.2-1.3c0,0,0.1-0.1,0-0.1c0,0,0,0,0,0l-2.2-1.2c-0.1,0-0.2,0-0.3,0
		l-2.2,1.2c0,0-0.1,0.1,0,0.1c0,0,0,0,0,0l2.2,1.3C887.8,133.7,887.9,133.8,887.9,133.7L887.9,133.7z M892.2,136.2l2.2-1.3
		c0.1,0,0.1-0.1,0-0.2l-3.7-2.2c-0.1,0-0.2,0-0.3,0l-2.2,1.3c-0.1,0-0.1,0.1,0,0.2l3.7,2.2C892,136.2,892.2,136.2,892.2,136.2
		L892.2,136.2z M883.6,138.3l-2.1,1.3c-0.1,0-0.1,0.1,0,0.2l2.2,1.3c0.1,0,0.2,0,0.3,0l2.2-1.3c0.1,0,0.1-0.1,0-0.2l-2.2-1.3
		C883.9,138.3,883.7,138.3,883.6,138.3L883.6,138.3z M880.9,136.7l-2.2,1.3c-0.1,0-0.1,0.1,0,0.2l2.2,1.3c0.1,0,0.2,0,0.3,0l2.2-1.3
		c0.1,0,0.1-0.1,0-0.2l-2.2-1.3C881.1,136.7,881,136.7,880.9,136.7L880.9,136.7z M878.1,135.1l-2.2,1.3c-0.1,0-0.1,0.1,0,0.2
		l2.2,1.3c0.1,0,0.2,0,0.3,0l2.2-1.3c0,0,0.1-0.1,0-0.1c0,0,0,0,0,0l-2.2-1.3C878.3,135.1,878.2,135.1,878.1,135.1L878.1,135.1z
		 M875.3,133.5l-2.2,1.3c0,0-0.1,0.1-0.1,0.1c0,0,0,0,0.1,0.1l2.2,1.3c0.1,0,0.2,0,0.3,0l2.2-1.3c0,0,0.1-0.1,0.1-0.1
		c0,0,0,0-0.1-0.1l-2.2-1.3C875.5,133.5,875.4,133.5,875.3,133.5L875.3,133.5z M872.5,131.9l-2.2,1.3c0,0-0.1,0.1,0,0.1c0,0,0,0,0,0
		l2.2,1.3c0.1,0,0.2,0,0.3,0l2.2-1.3c0.1,0,0.1-0.1,0-0.2l-2.2-1.3C872.7,131.9,872.6,131.9,872.5,131.9L872.5,131.9z M869.8,130.3
		l-2.2,1.3c-0.1,0-0.1,0.1,0,0.2l2.2,1.3c0.1,0,0.2,0,0.3,0l2.2-1.3c0.1,0,0.1-0.1,0-0.2l-2.2-1.3
		C870,130.2,869.9,130.3,869.8,130.3L869.8,130.3z M867,128.7l-2.2,1.3c-0.1,0-0.1,0.1,0,0.2l2.2,1.3c0.1,0,0.2,0,0.3,0l2.2-1.3
		c0.1,0,0.1-0.1,0-0.2l-2.2-1.3C867.2,128.7,867.1,128.7,867,128.7L867,128.7z M864.2,127.1l-2.1,1.3c-0.1,0-0.1,0.1,0,0.2l2.2,1.3
		c0.1,0,0.2,0,0.3,0l2.2-1.3c0.1,0,0.1-0.1,0-0.2l-2.2-1.3C864.5,127,864.3,127,864.2,127.1L864.2,127.1z M861.4,125.5l-2.2,1.3
		c-0.1,0-0.1,0.1,0,0.2l2.2,1.3c0.1,0,0.2,0,0.3,0l2.2-1.3c0.1,0,0.1-0.1,0-0.2l-2.2-1.3C861.6,125.5,861.5,125.5,861.4,125.5
		L861.4,125.5z M858.7,123.9l-2.2,1.3c-0.1,0-0.1,0.1,0,0.2l2.2,1.3c0.1,0,0.2,0,0.3,0l2.2-1.3c0,0,0.1-0.1,0-0.1c0,0,0,0,0,0
		l-2.2-1.3C858.9,123.9,858.8,123.9,858.7,123.9L858.7,123.9z M862.7,123l-2.2,1.3c-0.1,0-0.1,0.1,0,0.2l2.2,1.3c0.1,0,0.2,0,0.3,0
		l2.2-1.3c0,0,0.1-0.1,0-0.1c0,0,0,0,0,0L863,123C862.9,123,862.8,123,862.7,123L862.7,123z M865.4,124.6l-2.2,1.3
		c-0.1,0-0.1,0.1,0,0.2l2.2,1.3c0.1,0,0.2,0,0.3,0l2.2-1.3c0.1,0,0.1-0.1,0-0.2l-2.2-1.3C865.6,124.6,865.6,124.6,865.4,124.6
		L865.4,124.6z M868.2,126.2l-2.2,1.3c-0.1,0-0.1,0.1,0,0.2l2.2,1.3c0.1,0,0.2,0,0.3,0l2.2-1.3c0.1,0,0.1-0.1,0-0.2l-2.2-1.3
		C868.4,126.2,868.3,126.2,868.2,126.2L868.2,126.2z M871,127.8l-2.2,1.3c-0.1,0-0.1,0.1,0,0.2l2.2,1.3c0.1,0,0.2,0,0.3,0l2.2-1.3
		c0.1,0,0.1-0.1,0-0.2l-2.2-1.3C871.2,127.8,871.1,127.8,871,127.8L871,127.8z M873.8,129.4l-2.2,1.3c-0.1,0-0.1,0.1,0,0.2l2.2,1.3
		c0.1,0,0.2,0,0.3,0l2.2-1.3c0.1,0,0.1-0.1,0-0.2l-2.2-1.3C874,129.4,873.9,129.4,873.8,129.4L873.8,129.4z M876.5,131l-2.2,1.3
		c0,0-0.1,0.1,0,0.1c0,0,0,0,0,0l2.2,1.3c0.1,0,0.2,0,0.3,0l2.2-1.3c0.1,0,0.1-0.1,0-0.2l-2.2-1.2C876.8,131,876.6,131,876.5,131
		L876.5,131z M879.3,132.6l-2.2,1.3c0,0-0.1,0.1-0.1,0.1c0,0,0,0,0.1,0.1l2.2,1.3c0.1,0,0.2,0,0.3,0l2.2-1.3c0,0,0.1-0.1,0.1-0.1
		c0,0,0,0-0.1-0.1l-2.2-1.3C879.5,132.6,879.4,132.6,879.3,132.6L879.3,132.6z M882.1,134.2l-2.2,1.3c-0.1,0-0.1,0.1,0,0.2l2.2,1.3
		c0.1,0,0.2,0,0.3,0l2.2-1.3c0,0,0.1-0.1,0-0.1c0,0,0,0,0,0l-2.2-1.3C882.3,134.2,882.2,134.2,882.1,134.2L882.1,134.2z
		 M884.9,135.8l-2.2,1.3c-0.1,0-0.1,0.1,0,0.2l3.7,2.2c0.1,0,0.2,0,0.3,0l2.2-1.3c0.1,0,0.1-0.1,0-0.2l-3.7-2.2
		C885.1,135.8,885,135.8,884.9,135.8L884.9,135.8z M859.9,121.4l-2.2,1.3c-0.1,0-0.1,0.1,0,0.2l2.2,1.3c0.1,0,0.2,0,0.3,0l2.2-1.3
		c0.1,0,0.1-0.1,0-0.2l-2.2-1.3C860.1,121.4,860,121.4,859.9,121.4L859.9,121.4z M848.8,118.2l-2.2,1.3c-0.1,0-0.1,0.1,0,0.2
		l2.2,1.3c0.1,0,0.2,0,0.3,0l2.2-1.3c0.1,0,0.1-0.1,0-0.2l-2.2-1.3C849,118.2,848.9,118.2,848.8,118.2L848.8,118.2z M851.6,119.8
		l-2.2,1.3c0,0-0.1,0.1,0,0.1c0,0,0,0,0,0l2.2,1.3c0.1,0,0.2,0,0.3,0l2.2-1.3c0,0,0.1-0.1,0-0.1c0,0,0,0,0,0l-2.2-1.3
		C851.8,119.8,851.7,119.8,851.6,119.8L851.6,119.8z M846,116.6l-2.2,1.3c-0.1,0-0.1,0.1,0,0.2l2.2,1.3c0.1,0,0.2,0,0.3,0l2.2-1.3
		c0.1,0,0.1-0.1,0-0.2l-2.2-1.3C846.2,116.6,846.1,116.6,846,116.6z M846,119.8l-2.2,1.3c-0.1,0-0.1,0.1,0,0.2l2.2,1.3
		c0.1,0,0.2,0,0.3,0l2.2-1.3c0.1,0,0.1-0.1,0-0.2l-2.2-1.3C846.2,119.8,846.1,119.8,846,119.8z M857.1,113.4l-1,0.6
		c-0.1,0-0.1,0.1,0,0.2l2.2,1.3c0.1,0,0.2,0,0.3,0l1-0.6c0.1,0,0.1-0.1,0-0.2l-2.2-1.3C857.3,113.4,857.2,113.4,857.1,113.4
		L857.1,113.4z M859.9,115l-1,0.5c-0.1,0-0.1,0.1,0,0.2l2.2,1.3c0.1,0,0.2,0,0.3,0l1-0.5c0.1,0,0.1-0.1,0-0.2l-2.2-1.3
		C860.1,114.9,860,114.9,859.9,115L859.9,115z M854.3,111.8l-1,0.5c-0.1,0-0.1,0.1,0,0.2l2.2,1.3c0.1,0,0.2,0,0.3,0l0.9-0.5
		c0.1,0,0.1-0.1,0-0.2l-2.2-1.3C854.5,111.8,854.5,111.8,854.3,111.8L854.3,111.8z M855.6,114.3l-0.9,0.6c-0.1,0-0.1,0.1,0,0.2
		l2.2,1.3c0.1,0,0.2,0,0.3,0l1-0.5c0,0,0.1-0.1,0-0.1c0,0,0,0,0,0l-2.2-1.3C855.8,114.2,855.7,114.2,855.6,114.3L855.6,114.3z
		 M848.8,121.4l-2.2,1.3c-0.1,0-0.1,0.1,0,0.2l2.2,1.3c0.1,0,0.2,0,0.3,0l2.2-1.3c0.1,0,0.1-0.1,0-0.2l-2.2-1.3
		C849,121.4,848.9,121.4,848.8,121.4L848.8,121.4z M843.2,118.2l-2.2,1.3c-0.1,0-0.1,0.1,0,0.2l2.2,1.3c0.1,0,0.2,0,0.3,0l2.2-1.3
		c0.1,0,0.1-0.1,0-0.2l-2.2-1.3C843.4,118.2,843.4,118.2,843.2,118.2L843.2,118.2z M856.2,125l2.2-1.3c0.1,0,0.1-0.1,0-0.2l-1.3-0.7
		c-0.1,0-0.1-0.1,0-0.2l2.5-1.4c0.1,0,0.1-0.1,0-0.2l-2.2-1.3c-0.1,0-0.2,0-0.3,0l-2.6,1.5l-2.3,1.3c-0.1,0-0.1,0.1,0,0.2l3.7,2.2
		C856,125,856.1,125,856.2,125L856.2,125z M859.9,118.2l-2.2,1.3c-0.1,0-0.1,0.1,0,0.2l5.8,3.3c0.1,0,0.2,0,0.3,0l2.2-1.3
		c0.1,0,0.1-0.1,0-0.2l-5.8-3.3C860.1,118.2,860,118.2,859.9,118.2L859.9,118.2z M868.9,123.4l-2.2,1.3c-0.1,0-0.1,0.1,0,0.2
		l2.2,1.3c0.1,0,0.2,0,0.3,0l2.2-1.3c0.1,0,0.1-0.1,0-0.2l-2.2-1.3C869.1,123.4,869,123.4,868.9,123.4L868.9,123.4z M871.7,125
		l-2.2,1.3c-0.1,0-0.1,0.1,0,0.2l2.2,1.3c0.1,0,0.2,0,0.3,0l2.2-1.3c0.1,0,0.1-0.1,0-0.2L872,125C871.9,125,871.8,125,871.7,125
		L871.7,125z M874.5,126.6l-2.2,1.3c0,0-0.1,0.1,0,0.1c0,0,0,0,0,0l2.2,1.3c0.1,0,0.2,0,0.3,0l2.2-1.3c0,0,0.1-0.1,0-0.1
		c0,0,0,0,0,0l-2.1-1.3C874.7,126.6,874.6,126.6,874.5,126.6L874.5,126.6z M877.2,128.2l-2.2,1.3c-0.1,0-0.1,0.1,0,0.2l2.2,1.3
		c0.1,0,0.2,0,0.3,0l2.2-1.3c0,0,0.1-0.1,0.1-0.1c0,0,0,0-0.1-0.1l-2.2-1.3C877.4,128.2,877.3,128.2,877.2,128.2L877.2,128.2z
		 M880,129.8l-2.2,1.3c-0.1,0-0.1,0.1,0,0.2l2.2,1.3c0.1,0,0.2,0,0.3,0l2.2-1.3c0.1,0,0.1-0.1,0-0.2l-2.2-1.3
		C880.2,129.8,880.1,129.8,880,129.8L880,129.8z M882.8,131.4l-2.2,1.3c-0.1,0-0.1,0.1,0,0.2l2.2,1.3c0.1,0,0.2,0,0.3,0l2.2-1.3
		c0.1,0,0.1-0.1,0-0.2l-2.2-1.3C883,131.4,882.9,131.4,882.8,131.4L882.8,131.4z M885.6,133l-2.2,1.3c-0.1,0-0.1,0.1,0,0.2l2.2,1.3
		c0.1,0,0.2,0,0.3,0l2.2-1.3c0.1,0,0.1-0.1,0-0.2l-2.2-1.2C885.8,133,885.7,133,885.6,133L885.6,133z M888.3,134.6l-2.2,1.3
		c-0.1,0-0.1,0.1,0,0.2l3,1.8c0.1,0,0.2,0,0.3,0l2.2-1.3c0.1,0,0.1-0.1,0-0.2l-3-1.8C888.5,134.6,888.4,134.6,888.3,134.6
		L888.3,134.6z M866.3,121.9l-2.2,1.3c-0.1,0-0.1,0.1,0,0.2l2.2,1.3c0.1,0,0.2,0,0.3,0l2.2-1.3c0.1,0,0.1-0.1,0-0.2l-2.2-1.3
		C866.5,121.8,866.3,121.8,866.3,121.9z M854.6,127.3l2.2-1.3c0.1,0,0.1-0.1,0-0.2l-5-2.8c-0.1,0-0.2,0-0.3,0l-2.2,1.3
		c0,0-0.1,0.1,0,0.1c0,0,0,0,0,0l5,2.9C854.5,127.4,854.6,127.3,854.6,127.3z M882.4,130.5l2.2-1.3c0.1,0,0.1-0.1,0-0.2l-13.3-7.7
		c-0.1,0-0.2,0-0.3,0l-2.2,1.3c-0.1,0-0.1,0.1,0,0.2l13.3,7.7C882.2,130.5,882.3,130.5,882.4,130.5z"/>
	<path class="st28" d="M875.1,146.6l1.1,1.5c0,0-0.8-0.4-1.3-0.6c-0.7-0.3-43.8-26.8-43.8-26.8l-1.4-0.8c-0.8-0.6-1.3-1.5-1.6-2.4
		l-9.4-29.7c0,0,1-1,1.4-0.7l36.2,21.3l7.1,4.2c0.4,0.2,0.6,0.6,0.8,1l9,30.5c0.1,0.4,0.3,0.8,0.5,1.2c0.1,0.1,0.1,0.2,0.2,0.3
		c0.2,0.3,0.5,0.6,0.8,0.9C874.9,146.4,875,146.5,875.1,146.6L875.1,146.6z"/>
	
		<linearGradient id="SVGID_9_" gradientUnits="userSpaceOnUse" x1="868.4586" y1="-120.9945" x2="821.8883" y2="-64.0426" gradientTransform="matrix(1 0 0 -1 0 23.2)">
		<stop  offset="0" style="stop-color:#4C69B1"/>
		<stop  offset="0.2" style="stop-color:#4E6AB2"/>
		<stop  offset="0.38" style="stop-color:#5070B6"/>
		<stop  offset="0.54" style="stop-color:#5D7FC0"/>
		<stop  offset="0.7" style="stop-color:#6F99D0"/>
		<stop  offset="0.86" style="stop-color:#7EBDE8"/>
		<stop  offset="1" style="stop-color:#95D9F2"/>
	</linearGradient>
	<path class="st34" d="M874.5,147.1l-44-25.9l-1.4-0.8c-0.8-0.6-1.3-1.5-1.6-2.4l-8.8-29.8c-0.1-0.3,0-0.6,0.3-0.7
		c0.2-0.1,0.3,0,0.5,0l36.2,21.3l7.1,4.2c0.4,0.2,0.6,0.6,0.8,1l9,30.5c0.1,0.4,0.3,0.8,0.5,1.2c0.1,0.1,0.1,0.2,0.2,0.3
		c0.2,0.3,0.5,0.6,0.8,0.9C874.3,147,874.4,147.1,874.5,147.1L874.5,147.1z"/>
	<path class="st35" d="M839.2,112c0-2.3,1.6-3.3,3.7-2.1c2.2,1.4,3.5,3.8,3.7,6.3c0,2.3-1.6,3.3-3.7,2.1
		C840.7,117,839.4,114.6,839.2,112z"/>
	<path class="st9" d="M898.2,47.8c0,0-4.1,8.6-10,13.5c-0.9,0.7,6.3,5.9,8,4.5c1.7-1.4,4.4-10.5,4.4-11.8c0-1.6-0.5-2-1.2-3
		C898.8,49.9,898.4,48.9,898.2,47.8z"/>
	<path class="st9" d="M888.8,49.1c-0.4,2.3-0.7,4.7-0.8,7c-0.1,2.6,0.2,5,0.2,5.3c-0.2,0.7-7.7,2.1-7.8-0.7S888.8,49.1,888.8,49.1
		L888.8,49.1z"/>
	<path class="st36" d="M882.2,33.6c-0.4-0.5-0.7-1-1-1.5c-0.5-1-0.8-2.1-0.8-3.3c0.1-3.5,0.3-5.1,3-5.4c1.1-0.1,3-0.8,3.2-0.2
		c0.3,0.8-1.3,2.9-1.5,3.9C884.7,28.7,882.2,33.6,882.2,33.6L882.2,33.6z"/>
	
		<linearGradient id="SVGID_10_" gradientUnits="userSpaceOnUse" x1="902.5092" y1="-10.1177" x2="882.796" y2="-8.8535" gradientTransform="matrix(1 0 0 -1 0 23.2)">
		<stop  offset="0" style="stop-color:#E89493"/>
		<stop  offset="7.000000e-002" style="stop-color:#EA9A99"/>
		<stop  offset="0.43" style="stop-color:#ECB5B3"/>
		<stop  offset="0.75" style="stop-color:#EDC5C2"/>
		<stop  offset="1" style="stop-color:#EECAC9"/>
	</linearGradient>
	<path class="st37" d="M890.8,44.1c-3.8,1.5-4.8,1.7-5.7,1c-1.1-0.8-2.6-5.6-2.9-7.1c-0.3-1.6-0.6-3.1-0.1-3.9
		c0.5-0.9,0.8-1.9,0.9-2.9c0.1-1,0.1-2,0.1-3c0.3-4,2.7-7.2,5.9-8.2c4.1-1.3,10.6-0.1,13.4,4c2.7,4.1-0.2,9.5-1.2,11.2
		C900.3,36.8,893.7,43,890.8,44.1z"/>
	<path class="st38" d="M886.2,45.1c-1.1-0.8-2.6-5.6-2.9-7.1c-0.3-1.6-0.6-3.1-0.1-3.9c0.5-0.9,0.8-1.9,0.9-2.9c0.1-1,0.2-2,0.1-3
		c0.3-4,2.7-7.2,5.9-8.2c1-0.3,2-0.4,3-0.5c-1.4-0.1-2.7,0.1-4,0.5c-3.1,1-5.5,4.1-5.9,8.2c0,1,0,2-0.1,3c-0.1,1-0.4,2-0.9,2.9
		c-0.5,0.9-0.2,2.4,0.1,3.9c0.3,1.6,1.8,6.3,2.9,7.1c0.5,0.4,1.1,0.5,1.7,0.3C886.6,45.4,886.4,45.3,886.2,45.1L886.2,45.1z"/>
	
		<linearGradient id="SVGID_11_" gradientUnits="userSpaceOnUse" x1="896.0706" y1="-4.5871" x2="882.7189" y2="-0.4799" gradientTransform="matrix(1 0 0 -1 0 23.2)">
		<stop  offset="0" style="stop-color:#F15A22"/>
		<stop  offset="0.42" style="stop-color:#F17322"/>
		<stop  offset="1" style="stop-color:#F29C1F"/>
	</linearGradient>
	<path class="st39" d="M901.9,22.2c0,0-5.3,2.4-9.1,2.5c-3.9,0.2-8.3-1.8-10.2-1.1s-2.7,5.8-1.4,8.4c0,0-2.4-4.4-0.9-7.7
		s5.8-4.1,6.5-4.4c0.7-0.3,2.7-2,6.9-1.6C896.8,18.8,899.6,20.1,901.9,22.2L901.9,22.2z"/>
	
		<linearGradient id="SVGID_12_" gradientUnits="userSpaceOnUse" x1="900.7813" y1="-24.708" x2="900.9217" y2="0.216" gradientTransform="matrix(1 0 0 -1 0 23.2)">
		<stop  offset="0" style="stop-color:#EF4523"/>
		<stop  offset="1" style="stop-color:#F15A22"/>
	</linearGradient>
	<path class="st40" d="M910.4,43c0.5-2.9-3.1-4.1-3.9-4.9c-0.8-0.8-2-1.8-1.4-4.3s1.4-9.2-3.2-11.5l-7.2,2.3c0,0-1.5,2.4,0.2,4.5
		s2.3,2.5,2.2,3.9v0.3v0.3c-0.1,1.1-0.3,1.9,0.5,2.9c0,0-0.1,0.3-0.1,0.4c1.2,6.5-2.3,11.4-6.5,10.5c0,0,2.4,1.4,3.8,0.4
		c1.7,1.7,4.2,2.3,6.5,1.6c2.1-0.5,2.4-1.7,4.1-1.9C907.2,47.2,909.9,45.9,910.4,43L910.4,43z"/>
	<path class="st41" d="M896.2,38.3c-1.5-2.4,1.6-7.1,4.3-5.2C903.2,34.9,897.7,40.7,896.2,38.3z"/>
	<path class="st42" d="M901.9,63.9c0,0-3.4,8.5-3.4,12.3c0,4,0.9,6.6,1.6,12.2c0.7,5.7,1.2,8.4-0.7,13.2c-1.9,4.7-7.9,10.1-6.3,12.4
		c1.5,2.3,2.2,0.1,4.9-2c2.7-2.2,4.6,3.2,3.3,7.4c-0.4,1.5-1.2,2.9-2.2,4.1c4.2,0.3,6.3-0.8,6.4-1.7c0.9-6.3-0.9-20.6-0.8-22.2
		c0-1.3,6.2-22.8,7.8-33.4C912.8,58.7,906.4,56.2,901.9,63.9z"/>
	<path class="st22" d="M913.3,64.8L911,99.8c-0.1,2.6-2.2,4.6-4.8,4.5c-2.6-0.1-4.6-2.2-4.5-4.8l0,0l-0.1-35c0-3.3,2.6-5.9,5.9-5.9
		c3.3,0,5.9,2.6,5.9,5.9C913.3,64.6,913.3,64.7,913.3,64.8L913.3,64.8z"/>
	<path class="st43" d="M874.8,116.5c0,0-4.6,0.4-5.2,0.4c-0.6,0-0.7,1.4,1,1.8c1.7,0.3,4.9,0.5,4.9,0.5L874.8,116.5z"/>
	
		<linearGradient id="SVGID_13_" gradientUnits="userSpaceOnUse" x1="892.6302" y1="-93.2973" x2="886.6099" y2="-84.802" gradientTransform="matrix(1 0 0 -1 0 23.2)">
		<stop  offset="0" style="stop-color:#E89493"/>
		<stop  offset="7.000000e-002" style="stop-color:#EA9A99"/>
		<stop  offset="0.43" style="stop-color:#ECB5B3"/>
		<stop  offset="0.75" style="stop-color:#EDC5C2"/>
		<stop  offset="1" style="stop-color:#EECAC9"/>
	</linearGradient>
	<path class="st44" d="M909.6,97.3c-1.4-1.4-4-1.5-7.3,0.9c-1.4,1-7.6,7.4-13.1,12.6c-0.4,0.4-0.8,0.8-1.2,1.1
		c-0.4,0.4-4.7,4.1-5.4,4.7l-0.1,0.1c-0.1,0-6.1-1.1-6.8-1.2c-0.6,0-5.2,1.9-5.5,2.1c-0.3,0.1-2,4.7-2.2,5.1c-0.2,0.5,0.7,1,1.1,0.5
		c0.4-0.5,2.2-4.1,2.2-4.1l2.7-1c0,0-2.8,2.2-3,2.4c-0.2,0.2-1.5,5.9-1.6,6.3c-0.1,0.3,0.8,0.8,1.3,0.2c0.4-0.6,2.1-5.4,2.1-5.4
		l3.3-2.2c0,0-2.8,2.8-3,3s0.1,3.8,0.1,4.4c0,0.6,1.2,0.7,1.3-0.2l0.3-3.3l3.1-2.8c0,0-1.5,2.1-1.6,2.3c-0.1,0.2-0.4,2.4-0.5,2.8
		c-0.1,0.4,1,0.7,1.2,0.1c0.2-0.6,0.7-2,0.7-2c0.6-0.5,1.2-1,1.8-1.4c0.2,0,2,0.8,3.2,0.5c0.7-0.2,2.4-1.3,3.8-2.3l0.7-0.5v0
		c5.2-3,13.8-8.2,17.3-11.6C911.4,102,911.2,98.9,909.6,97.3L909.6,97.3z"/>
	<path class="st22" d="M910,96.9c-0.8-0.8-1.8-1.2-2.9-1.2c-1.5,0-3.3,0.7-5.1,2c-0.9,0.7-16.3,15.7-14.1,14
		c2.4-1.9,6.7,3.4,4.3,6.1c-0.5,0.6,9.4-6.3,12.3-8.8c4-3.4,6.6-7,6.6-9.4C911.1,98.6,910.7,97.6,910,96.9L910,96.9z"/>
	
		<linearGradient id="SVGID_14_" gradientUnits="userSpaceOnUse" x1="842.4833" y1="-49.962" x2="850.6375" y2="-42.3497" gradientTransform="matrix(1 0 0 -1 0 23.2)">
		<stop  offset="0" style="stop-color:#E89493"/>
		<stop  offset="7.000000e-002" style="stop-color:#EA9A99"/>
		<stop  offset="0.43" style="stop-color:#ECB5B3"/>
		<stop  offset="0.75" style="stop-color:#EDC5C2"/>
		<stop  offset="1" style="stop-color:#EECAC9"/>
	</linearGradient>
	<path class="st45" d="M863.5,83.9c-0.9-1.5-7-8-12-13.7c-2.8-3.3-5.2-6.4-6.4-8l-0.4-0.9c0,0-0.5-3.8-0.9-4.7
		c-0.5-0.9-2.3-1.4-2.8-2.2c-0.5-0.7-1.9-3.1-2.6-4c-0.3-0.4-0.8-0.5-1.2-0.2c-0.3,0.2-0.4,0.6-0.3,1c0.3,0.8,0.7,1.5,1.2,2.2
		c0.5,0.7,1.3,2,1.3,2c-1.4-0.2-2.7-0.4-4-0.7c-1.2-0.4-2.5-0.9-3.6-1.4c-0.1-0.1-3.2-3.2-3.7-3.5c-0.5-0.3-0.9,0.2-0.5,0.8
		c0.4,0.6,1.7,2.2,1.7,2.2s-2.5-2.3-2.7-2.5c-0.3-0.2-0.8,0.3-0.4,0.8c0.4,0.5,2.5,3.2,2.5,3.2s-2.3-1.4-2.6-1.7s-0.8,0.3-0.3,0.8
		l3.2,3.2L833,59l-2.3-0.1c0,0-3-1.3-3.3-1.4c-0.4-0.1-0.9,0.5-0.3,0.8c0.5,0.3,3.8,1.9,3.8,1.9l9.3,3.5c0.1,0.3,8.3,16.7,13,22.1
		c6.1,7.1,9.2,7,11,5.4C865.5,89.9,865.7,87.4,863.5,83.9L863.5,83.9z"/>
	<path class="st22" d="M863.9,83.6c-0.6-0.9-13.1-15.1-12.1-13.4s-4.6,6.7-7,3.8c-1-1.3,5.5,9.6,7.8,12.2c3.8,4.4,6.8,6.5,9.2,6.5
		c1,0,1.9-0.4,2.6-1C866.3,90,866.1,87,863.9,83.6z"/>
	<path class="st22" d="M895.1,83.6l-9.2-4.2c-0.8-0.4-1.4-1.2-1.5-2.1l-0.4-4.4c-0.1-0.8,0.5-1.2,1.2-0.9l9.2,4.2
		c0.8,0.4,1.4,1.2,1.5,2.1l0.4,4.4C896.4,83.6,895.9,83.9,895.1,83.6L895.1,83.6z"/>
	<path class="st9" d="M898.9,38.8c0,0.5-0.4,0.9-0.9,0.9s-0.9-0.4-0.9-0.9s0.4-0.9,0.9-0.9l0,0C898.5,38,898.9,38.4,898.9,38.8z"/>
</g>
</svg>
