<?xml version="1.0" encoding="utf-8"?>
<!-- Generator: Adobe Illustrator 19.0.0, SVG Export Plug-In . SVG Version: 6.00 Build 0)  -->
<svg version="1.1" id="Layer_1" xmlns="http://www.w3.org/2000/svg" xmlns:xlink="http://www.w3.org/1999/xlink" x="0px" y="0px"
	 width="647.5px" height="425.4px" viewBox="313 -201.4 647.5 425.4" style="enable-background:new 313 -201.4 647.5 425.4;"
	 xml:space="preserve">
<style type="text/css">
	.st0{fill:none;stroke:#BABED7;stroke-width:0.79;stroke-miterlimit:10;}
	.st1{fill:#DFE2F2;}
	.st2{fill:#A9AED7;}
	.st3{fill:#4350A2;}
	.st4{fill:#FFFFFF;}
	.st5{fill:#E8E8E8;}
	.st6{fill:none;stroke:#6C8BC6;stroke-linecap:round;stroke-linejoin:round;stroke-dasharray:2.837;}
	.st7{fill:#604DA0;}
	.st8{fill:#6E65AA;}
	.st9{fill:#B5BFE2;}
	.st10{fill:none;stroke:#5160AB;stroke-width:0.896;stroke-miterlimit:10;}
	.st11{fill:none;stroke:#5160AB;stroke-width:1.672;stroke-linecap:round;stroke-linejoin:round;}
	.st12{fill:#BDBCDC;}
	.st13{fill:#F1F4FA;}
	.st14{fill:#7E7E7E;}
	.st15{fill:#616161;}
	.st16{fill:#C9C9C9;}
	.st17{fill:#281616;}
	.st18{fill:#142E53;}
	.st19{fill:#072635;}
	.st20{fill:#E69290;}
	.st21{fill:#C7E5F1;}
	.st22{fill:#CC6463;}
	.st23{fill:none;stroke:#FFFFFF;stroke-width:0.501;stroke-miterlimit:10;}
	.st24{opacity:0.5;}
	.st25{fill:none;stroke:#CC6463;stroke-width:0.724;stroke-miterlimit:10;}
	.st26{fill:#396085;}
	.st27{fill:#E59292;}
	.st28{fill:#010101;}
	.st29{fill:#5279BC;}
	.st30{fill:#6791CB;}
	.st31{fill:none;stroke:#010101;stroke-width:1.065;stroke-miterlimit:10;}
	.st32{fill:none;stroke:#FFFFFF;stroke-width:0.896;stroke-miterlimit:10;}
	.st33{fill:#FFFFFF;stroke:#5160AB;stroke-width:0.896;stroke-miterlimit:10;}
	.st34{fill:none;stroke:#5160AB;stroke-width:1.672;stroke-miterlimit:10;}
	.st35{fill:none;stroke:#5160AB;stroke-width:1.672;stroke-linecap:round;stroke-miterlimit:10;}
	.st36{fill:#796BB0;}
	.st37{fill:none;stroke:#FFFFFF;stroke-width:0.896;stroke-linecap:round;stroke-miterlimit:10;}
	.st38{fill:#766EAA;}
	.st39{fill:#7F71B4;}
	.st40{fill:none;stroke:#DFE2F2;stroke-width:0.79;stroke-miterlimit:10;}
	.st41{fill:#CDCCCC;}
	.st42{fill:none;stroke:#FFFFFF;stroke-width:2;stroke-linecap:round;stroke-miterlimit:10;}
	.st43{fill:none;stroke:#DFE2F2;stroke-linecap:round;stroke-miterlimit:10;}
	.st44{fill:#272727;}
	.st45{fill:#7E7E7E;stroke:#F7F8F8;stroke-miterlimit:10;}
	.st46{fill:#B6C0E2;}
	.st47{fill:none;stroke:#D7D6D6;stroke-width:1.114;stroke-linecap:round;stroke-miterlimit:10;}
	.st48{fill:#147A61;}
	.st49{fill:#19A387;}
	.st50{fill:none;stroke:#F7F8F8;}
</style>
<g id="Group_13689" transform="translate(-647.746 -179.999)">
	<g id="Group_13625" transform="translate(648.303 180.475)">
		<g id="Group_13572" transform="translate(128.192 19.731)">
			<g id="Group_13565" transform="translate(71.91 47.445)">
				<path id="Path_5637" class="st0" d="M315.4-166.6v-11.9c0-1.2-0.9-2.1-2.1-2.1c0,0,0,0,0,0h-3.1c-0.9,0-1.7-0.6-1.9-1.5
					c-1-4.5-2.8-8.9-5.3-12.8c-0.5-0.8-0.4-1.8,0.3-2.4l2.1-2.1c0.8-0.8,0.8-2.2,0-3c0,0,0,0,0,0l-8.4-8.4c-0.8-0.8-2.2-0.8-3,0
					c0,0,0,0,0,0l-2.1,2.1c-0.7,0.6-1.7,0.7-2.4,0.3c-4-2.5-8.3-4.3-12.8-5.3c-0.9-0.2-1.5-1-1.5-1.9v-3c0-1.2-0.9-2.1-2.1-2.1l0,0
					h-11.9c-1.2,0-2.1,0.9-2.1,2.1l0,0v3c0,0.9-0.6,1.7-1.5,1.9c-4.5,1-8.9,2.8-12.8,5.3c-0.8,0.5-1.8,0.4-2.4-0.3l-2.1-2.1
					c-0.8-0.8-2.2-0.8-3,0c0,0,0,0,0,0l-8.4,8.4c-0.8,0.8-0.8,2.2,0,3c0,0,0,0,0,0l2.1,2.1c0.6,0.7,0.7,1.7,0.3,2.4
					c-2.5,4-4.2,8.3-5.3,12.8c-0.2,0.9-1,1.5-1.9,1.5h-3.1c-1.2,0-2.1,0.9-2.1,2.1c0,0,0,0,0,0v11.9c0,1.2,0.9,2.1,2.1,2.1h3.1
					c0.9,0,1.7,0.6,1.9,1.5c1,4.5,2.8,8.9,5.3,12.8c0.5,0.8,0.4,1.8-0.3,2.4l-2.1,2.1c-0.8,0.8-0.8,2.2,0,3c0,0,0,0,0,0l8.4,8.4
					c0.8,0.8,2.2,0.8,3,0c0,0,0,0,0,0l2.1-2.2c0.7-0.6,1.7-0.7,2.4-0.3c4,2.5,8.3,4.2,12.8,5.3c0.9,0.2,1.5,1,1.5,1.9v3.1
					c0,1.2,0.9,2.1,2.1,2.1c0,0,0,0,0,0h11.9c1.2,0,2.1-0.9,2.1-2.1c0,0,0,0,0,0v-3.1c0-0.9,0.6-1.7,1.5-1.9c4.5-1,8.9-2.8,12.8-5.3
					c0.8-0.5,1.8-0.4,2.4,0.3l2.2,2.2c0.8,0.8,2.2,0.8,3,0c0,0,0,0,0,0l8.4-8.4c0.8-0.8,0.8-2.2,0-3c0,0,0,0,0,0l-2.1-2.1
					c-0.6-0.7-0.7-1.7-0.3-2.4c2.5-4,4.2-8.3,5.3-12.8c0.2-0.9,1-1.5,1.9-1.5h3.1C314.4-164.5,315.4-165.5,315.4-166.6
					C315.4-166.6,315.4-166.6,315.4-166.6z M267.2-139.1c-18.5,0-33.5-15-33.5-33.4c0-18.5,15-33.5,33.4-33.5s33.5,15,33.5,33.4
					C300.6-154.1,285.7-139.1,267.2-139.1C267.2-139.1,267.2-139.1,267.2-139.1L267.2-139.1z"/>
				<path id="Path_5638" class="st1" d="M370-126.5v-8.1c0-0.8-0.6-1.4-1.4-1.4l0,0h-2.1c-0.6,0-1.1-0.4-1.3-1
					c-0.7-3.1-1.9-6-3.6-8.7c-0.3-0.5-0.3-1.2,0.2-1.7l1.5-1.5c0.6-0.6,0.6-1.5,0-2l-5.7-5.7c-0.6-0.6-1.5-0.6-2,0c0,0,0,0,0,0
					l-1.5,1.5c-0.4,0.4-1.1,0.5-1.7,0.2c-2.7-1.7-5.6-2.9-8.7-3.6c-0.6-0.1-1-0.7-1-1.3v-2.1c0-0.8-0.6-1.4-1.4-1.4c0,0,0,0,0,0
					h-8.1c-0.8,0-1.4,0.6-1.4,1.4c0,0,0,0,0,0v2.1c0,0.6-0.4,1.1-1,1.3c-3.1,0.7-6.1,1.9-8.7,3.6c-0.5,0.3-1.2,0.3-1.7-0.2l-1.5-1.5
					c-0.6-0.6-1.5-0.6-2,0l-5.7,5.7c-0.6,0.6-0.6,1.5,0,2l1.5,1.5c0.4,0.4,0.5,1.1,0.2,1.7c-1.7,2.7-2.9,5.6-3.6,8.7
					c-0.1,0.6-0.7,1-1.3,1h-2.1c-0.8,0-1.4,0.6-1.4,1.4c0,0,0,0,0,0v8.1c0,0.8,0.6,1.4,1.4,1.4c0,0,0,0,0,0h2.1c0.6,0,1.1,0.4,1.3,1
					c0.7,3.1,1.9,6,3.6,8.7c0.3,0.5,0.3,1.2-0.2,1.7l-1.5,1.5c-0.6,0.6-0.6,1.5,0,2l5.7,5.7c0.6,0.6,1.5,0.6,2,0l1.5-1.5
					c0.4-0.4,1.1-0.5,1.7-0.2c2.7,1.7,5.6,2.9,8.7,3.6c0.6,0.1,1,0.7,1,1.3v2.1c0,0.8,0.6,1.4,1.4,1.4l0,0h8.1
					c0.8,0,1.4-0.6,1.4-1.4c0,0,0,0,0,0v-2.1c0-0.6,0.4-1.1,1-1.3c3.1-0.7,6-1.9,8.7-3.6c0.5-0.3,1.2-0.3,1.7,0.2l1.5,1.5
					c0.6,0.6,1.5,0.6,2,0c0,0,0,0,0,0l5.7-5.7c0.6-0.6,0.6-1.5,0-2l-1.5-1.5c-0.4-0.4-0.5-1.1-0.2-1.7c1.7-2.7,2.9-5.6,3.6-8.7
					c0.1-0.6,0.7-1,1.3-1h2.1C369.3-125.1,370-125.7,370-126.5z M337.1-109c-11.9,0-21.5-9.6-21.5-21.5s9.6-21.5,21.5-21.5
					c11.9,0,21.5,9.6,21.5,21.5c0,0,0,0,0,0C358.6-118.7,349-109,337.1-109C337.1-109,337.1-109,337.1-109z"/>
			</g>
			<g id="Group_13566" transform="translate(14.707)">
				<ellipse id="Ellipse_1848" class="st2" cx="274.9" cy="131.1" rx="3.9" ry="3.9"/>
				<ellipse id="Ellipse_1849" class="st2" cx="800" cy="24" rx="3.9" ry="3.9"/>
				<ellipse id="Ellipse_1850" class="st2" cx="792.2" cy="-115.9" rx="3.9" ry="3.9"/>
				<circle id="Ellipse_1851" class="st2" cx="651.2" cy="-163.5" r="2.5"/>
				<path id="Path_5639" class="st2" d="M290.2-196.3c0,1.4-1.1,2.5-2.5,2.5s-2.5-1.1-2.5-2.5c0-1.4,1.1-2.5,2.5-2.5l0,0
					C289.1-198.7,290.2-197.6,290.2-196.3z"/>
				<path id="Path_5640" class="st2" d="M344.7-44.8c0,1.4-1.1,2.5-2.5,2.5s-2.5-1.1-2.5-2.5s1.1-2.5,2.5-2.5l0,0
					C343.6-47.3,344.7-46.2,344.7-44.8z"/>
				<path id="Path_5641" class="st2" d="M254.5,135.1c0,1.4-1.1,2.5-2.5,2.5c-1.4,0-2.5-1.1-2.5-2.5c0-1.4,1.1-2.5,2.5-2.5
					c0,0,0,0,0,0C253.4,132.6,254.5,133.7,254.5,135.1z"/>
				<ellipse id="Ellipse_1854" class="st2" cx="357.8" cy="-206.9" rx="3.9" ry="3.9"/>
				<path id="Path_5642" class="st2" d="M628.3-28.6c0,2.9-2.3,5.2-5.2,5.2c-2.9,0-5.2-2.3-5.2-5.2c0-2.9,2.3-5.2,5.2-5.2
					C625.9-33.8,628.3-31.5,628.3-28.6C628.3-28.6,628.3-28.6,628.3-28.6z"/>
				<path id="Path_5643" class="st2" d="M241.4-93.5c0,2.9-2.3,5.2-5.2,5.2c-2.9,0-5.2-2.3-5.2-5.2c0-2.9,2.3-5.2,5.2-5.2
					c0,0,0,0,0,0C239.1-98.7,241.4-96.4,241.4-93.5z"/>
			</g>
			<g id="Group_13569" transform="translate(700.474 400.304)">
				<g id="Group_13568">
					<path id="Rectangle_4194" class="st1" d="M88.1-294.6h7.1c0.3,0,0.5,0.2,0.5,0.5v7.1c0,0.3-0.2,0.5-0.5,0.5h-7.1
						c-0.3,0-0.5-0.2-0.5-0.5v-7.1C87.5-294.3,87.8-294.6,88.1-294.6z"/>
					<path id="Rectangle_4195" class="st1" d="M98.9-294.6h7.1c0.3,0,0.5,0.2,0.5,0.5v7.1c0,0.3-0.2,0.5-0.5,0.5h-7.1
						c-0.3,0-0.5-0.2-0.5-0.5v-7.1C98.4-294.3,98.7-294.6,98.9-294.6z"/>
					<path id="Rectangle_4196" class="st1" d="M109.8-294.6h7.1c0.3,0,0.5,0.2,0.5,0.5v7.1c0,0.3-0.2,0.5-0.5,0.5h-7.1
						c-0.3,0-0.5-0.2-0.5-0.5v-7.1C109.3-294.3,109.5-294.6,109.8-294.6z"/>
				</g>
			</g>
			<g id="Group_13571" transform="translate(64.567 394.668)">
				<g id="Group_13570">
					<path id="Rectangle_4197" class="st1" d="M221-293.4h7.1c0.3,0,0.5,0.2,0.5,0.5v7.1c0,0.3-0.2,0.5-0.5,0.5H221
						c-0.3,0-0.5-0.2-0.5-0.5v-7.1C220.5-293.2,220.8-293.4,221-293.4z"/>
					<path id="Rectangle_4198" class="st1" d="M231.9-293.4h7.1c0.3,0,0.5,0.2,0.5,0.5v7.1c0,0.3-0.2,0.5-0.5,0.5h-7.1
						c-0.3,0-0.5-0.2-0.5-0.5v-7.1C231.4-293.2,231.6-293.4,231.9-293.4z"/>
					<path id="Rectangle_4199" class="st1" d="M242.8-293.4h7.1c0.3,0,0.5,0.2,0.5,0.5v7.1c0,0.3-0.2,0.5-0.5,0.5h-7.1
						c-0.3,0-0.5-0.2-0.5-0.5v-7.1C242.3-293.2,242.5-293.4,242.8-293.4z"/>
				</g>
			</g>
		</g>
		<g id="Group_13581" transform="translate(345.583 9.776)">
			<g id="Group_13573">
				<path id="Rectangle_4200" class="st3" d="M205.4-208.8h172.3c9.3,0,16.9,7.6,16.9,16.9v364.3c0,9.3-7.6,16.9-16.9,16.9H205.4
					c-9.3,0-16.9-7.6-16.9-16.9v-364.3C188.6-201.2,196.1-208.8,205.4-208.8z"/>
				<path id="Rectangle_4201" class="st4" d="M207.2-205.3H376c8.2,0,14.8,6.6,14.8,14.8v359.3c0,8.2-6.6,14.8-14.8,14.8H207.2
					c-8.2,0-14.8-6.6-14.8-14.8v-359.3C192.4-198.7,199-205.3,207.2-205.3z"/>
				<path id="Path_5644" class="st5" d="M382.1-184.3v345.2c0,8.1-6.6,14.7-14.7,14.7c0,0,0,0,0,0H215.8c-8.1,0-14.7-6.6-14.7-14.7
					l0,0v-345.2c0-8.1,6.6-14.7,14.7-14.7c0,0,0,0,0,0h25.3c1.4,0,2.7,0.8,3.3,2l2.7,5.4c1.2,2.5,3.7,4,6.5,4h76.1
					c2.8,0,5.3-1.6,6.5-4l2.7-5.4c0.6-1.3,1.9-2,3.3-2h25.3C375.5-199,382.1-192.4,382.1-184.3z"/>
				<path id="Path_5645" class="st1" d="M323.5-193.8h-61.3c-1.4,0-2.6-1.2-2.6-2.6c0,0,0,0,0,0l0,0c0-1.4,1.2-2.6,2.6-2.6
					c0,0,0,0,0,0h61.3c1.4,0,2.6,1.2,2.6,2.6l0,0C326.1-195,324.9-193.8,323.5-193.8z"/>
			</g>
			<path id="Rectangle_4202" class="st6" d="M218.6,96h142.5c3.7,0,6.6,3,6.6,6.6v54.3c0,3.7-3,6.6-6.6,6.6H218.6
				c-3.7,0-6.6-3-6.6-6.6v-54.3C211.9,99,214.9,96,218.6,96z"/>
			<path id="Rectangle_4203" class="st6" d="M281.2-49.6h72.1c2.6,0,4.8,2.1,4.8,4.8V-7c0,2.6-2.1,4.8-4.8,4.8h-72.1
				c-2.6,0-4.8-2.1-4.8-4.8v-37.9C276.5-47.5,278.6-49.6,281.2-49.6z"/>
			<g id="Group_13577" transform="translate(29.566 267.864)">
				<path id="Rectangle_4204" class="st7" d="M193.7-258.7h145c3.1,0,5.7,2.5,5.7,5.7v64.2c0,3.1-2.5,5.7-5.7,5.7h-145
					c-3.1,0-5.7-2.5-5.7-5.7V-253C188.1-256.1,190.6-258.7,193.7-258.7z"/>
				<path id="Path_5646" class="st8" d="M338.1-256.5v59c0,4.6-3.7,8.3-8.3,8.3c0,0,0,0,0,0H190.7c-4.6,0-8.3-3.7-8.3-8.3
					c0,0,0,0,0,0v-59c0-4.6,3.7-8.3,8.3-8.3h139.1C334.4-264.8,338.1-261.1,338.1-256.5z"/>
				<path id="Rectangle_4205" class="st4" d="M193.4-247.6H238c2.1,0,3.8,1.7,3.8,3.8v44.5c0,2.1-1.7,3.8-3.8,3.8h-44.5
					c-2.1,0-3.8-1.7-3.8-3.8v-44.5C189.6-245.9,191.3-247.6,193.4-247.6z"/>
				<g id="Group_13574" transform="translate(81.561 25.626)">
					<path id="Path_5647" class="st9" d="M203.2-266.6h-36.1c-1,0-1.8-0.8-1.8-1.8c0,0,0,0,0,0l0,0c0-1,0.8-1.8,1.8-1.8c0,0,0,0,0,0
						h36.1c1,0,1.8,0.8,1.8,1.8l0,0C205-267.4,204.2-266.6,203.2-266.6z"/>
					<path id="Path_5648" class="st9" d="M186.7-259.5h-19.6c-1,0-1.8-0.8-1.8-1.8c0,0,0,0,0,0l0,0c0-1,0.8-1.8,1.8-1.8h19.6
						c1,0,1.8,0.8,1.8,1.8l0,0C188.5-260.3,187.7-259.5,186.7-259.5C186.7-259.5,186.7-259.5,186.7-259.5z"/>
					<path id="Path_5649" class="st9" d="M247.1-259.5H194c-1,0-1.8-0.8-1.8-1.8c0,0,0,0,0,0l0,0c0-1,0.8-1.8,1.8-1.8h53.2
						c1,0,1.8,0.8,1.8,1.8l0,0C248.9-260.3,248.1-259.5,247.1-259.5z"/>
					<path id="Path_5650" class="st9" d="M197.5-252.4h-30.4c-1,0-1.8-0.8-1.8-1.8c0,0,0,0,0,0l0,0c0-1,0.8-1.8,1.8-1.8c0,0,0,0,0,0
						h30.4c1,0,1.8,0.8,1.8,1.8c0,0,0,0,0,0l0,0C199.3-253.2,198.5-252.4,197.5-252.4z"/>
					<path id="Path_5651" class="st9" d="M223.3-252.4h-19.1c-1,0-1.8-0.8-1.8-1.8c0,0,0,0,0,0l0,0c0-1,0.8-1.8,1.8-1.8c0,0,0,0,0,0
						h19.1c1,0,1.8,0.8,1.8,1.8c0,0,0,0,0,0l0,0C225.1-253.2,224.3-252.4,223.3-252.4z"/>
					<path id="Path_5652" class="st9" d="M247.1-252.4h-17.6c-1,0-1.8-0.8-1.8-1.8l0,0c0-1,0.8-1.8,1.8-1.8c0,0,0,0,0,0h17.6
						c1,0,1.8,0.8,1.8,1.8c0,0,0,0,0,0l0,0C248.9-253.2,248.1-252.4,247.1-252.4z"/>
					<path id="Path_5653" class="st9" d="M247.1-245.3h-80c-1,0-1.8-0.8-1.8-1.8c0,0,0,0,0,0l0,0c0-1,0.8-1.8,1.8-1.8c0,0,0,0,0,0
						h80c1,0,1.8,0.8,1.8,1.8c0,0,0,0,0,0l0,0C248.9-246.1,248.1-245.3,247.1-245.3C247.1-245.3,247.1-245.3,247.1-245.3z"/>
					<path id="Path_5654" class="st9" d="M211.2-238.2h-44c-1,0-1.8-0.8-1.8-1.8c0,0,0,0,0,0l0,0c0-1,0.8-1.8,1.8-1.8c0,0,0,0,0,0
						h44c1,0,1.8,0.8,1.8,1.8c0,0,0,0,0,0l0,0C212.9-239,212.1-238.2,211.2-238.2C211.2-238.2,211.2-238.2,211.2-238.2z"/>
					<path id="Path_5655" class="st9" d="M247.1-238.2h-28.9c-1,0-1.8-0.8-1.8-1.8c0,0,0,0,0,0l0,0c0-1,0.8-1.8,1.8-1.8c0,0,0,0,0,0
						h28.9c1,0,1.8,0.8,1.8,1.8c0,0,0,0,0,0l0,0C248.9-239,248.1-238.2,247.1-238.2C247.1-238.2,247.1-238.2,247.1-238.2z"/>
					<path id="Path_5656" class="st9" d="M193-231.1h-25.9c-1,0-1.8-0.8-1.8-1.8c0,0,0,0,0,0l0,0c0-1,0.8-1.8,1.8-1.8c0,0,0,0,0,0
						H193c1,0,1.8,0.8,1.8,1.8c0,0,0,0,0,0l0,0C194.8-231.9,194-231.1,193-231.1C193-231.1,193-231.1,193-231.1z"/>
					<path id="Path_5657" class="st9" d="M225.9-231.1H200c-1,0-1.8-0.8-1.8-1.8c0,0,0,0,0,0l0,0c0-1,0.8-1.8,1.8-1.8c0,0,0,0,0,0
						h25.9c1,0,1.8,0.8,1.8,1.8c0,0,0,0,0,0l0,0C227.6-231.9,226.8-231.1,225.9-231.1C225.9-231.1,225.9-231.1,225.9-231.1z"/>
					<path id="Path_5658" class="st9" d="M247.1-231.1h-15c-1,0-1.8-0.8-1.8-1.8c0,0,0,0,0,0l0,0c0-1,0.8-1.8,1.8-1.8c0,0,0,0,0,0
						h15c1,0,1.8,0.8,1.8,1.8l0,0C248.9-231.9,248.1-231.1,247.1-231.1C247.1-231.1,247.1-231.1,247.1-231.1z"/>
					<path id="Path_5659" class="st9" d="M203.2-224h-36.1c-1,0-1.8-0.8-1.8-1.8l0,0c0-1,0.8-1.8,1.8-1.8c0,0,0,0,0,0h36.1
						c1,0,1.8,0.8,1.8,1.8l0,0C205-224.8,204.2-224,203.2-224z"/>
					<path id="Path_5660" class="st9" d="M247.1-266.6H211c-1,0-1.8-0.8-1.8-1.8c0,0,0,0,0,0l0,0c0-1,0.8-1.8,1.8-1.8c0,0,0,0,0,0
						h36.1c1,0,1.8,0.8,1.8,1.8c0,0,0,0,0,0l0,0C248.9-267.4,248.1-266.6,247.1-266.6C247.1-266.6,247.1-266.6,247.1-266.6z"/>
				</g>
				<g id="Group_13576">
					<path id="Path_5661" class="st7" d="M338.1-256.5v2.5H182.4v-2.5c0-4.6,3.7-8.3,8.3-8.3h139.1
						C334.4-264.8,338.1-261.1,338.1-256.5z"/>
					<g id="Group_13575" transform="translate(154.935 4.635)">
						<path id="Path_5662" class="st1" d="M153.8-263.8c0,1.1-0.9,1.9-1.9,1.9c-1.1,0-1.9-0.9-1.9-1.9c0-1.1,0.9-1.9,1.9-1.9
							c0,0,0,0,0,0C153-265.8,153.8-264.9,153.8-263.8z"/>
						<path id="Path_5663" class="st1" d="M163.7-263.8c0,1.1-0.9,1.9-1.9,1.9c-1.1,0-1.9-0.9-1.9-1.9c0-1.1,0.9-1.9,1.9-1.9
							c0,0,0,0,0,0C162.8-265.8,163.7-264.9,163.7-263.8z"/>
						<path id="Path_5664" class="st1" d="M173.6-263.8c0,1.1-0.9,1.9-1.9,1.9c-1.1,0-1.9-0.9-1.9-1.9c0-1.1,0.9-1.9,1.9-1.9
							c0,0,0,0,0,0C172.7-265.8,173.6-264.9,173.6-263.8z"/>
					</g>
				</g>
			</g>
			<g id="Group_13579" transform="translate(41.094 201.306)">
				<path id="Rectangle_4206" class="st10" d="M185.6-250.9h36.1c3.1,0,5.7,2.5,5.7,5.7v36.1c0,3.1-2.5,5.7-5.7,5.7h-36.1
					c-3.1,0-5.7-2.5-5.7-5.7v-36.1C180-248.3,182.5-250.9,185.6-250.9z"/>
				<g id="Group_13578" transform="translate(11.978 21.289)">
					<path id="Path_5665" class="st11" d="M184.3-255.3l-6.8,6.8l6.9,6.9"/>
					<path id="Path_5666" class="st11" d="M199.1-255.3l6.8,6.8l-6.9,6.9"/>
					<line id="Line_133" class="st11" x1="194.9" y1="-255.3" x2="188.5" y2="-241.6"/>
				</g>
			</g>
			<g id="Group_13580" transform="translate(29.566 43.106)">
				<path id="Rectangle_4207" class="st12" d="M188.8-217.8h142.8c3.6,0,6.5,2.9,6.5,6.5v102.4c0,3.6-2.9,6.5-6.5,6.5H188.8
					c-3.6,0-6.5-2.9-6.5-6.5v-102.4C182.4-214.9,185.3-217.8,188.8-217.8z"/>
				<ellipse id="Ellipse_1855" class="st13" cx="306.6" cy="-187.3" rx="22.6" ry="22.6"/>
				<path id="Path_5667" class="st4" d="M273.9-102.5h-82.1c-5.2,0-9.5-4.2-9.5-9.5v-15.2l35.9-62.2c1.3-2.3,4.3-3.1,6.7-1.8
					c0.7,0.4,1.4,1,1.8,1.8l27.1,47l20.1,34.9C274.9-105.9,274.9-104,273.9-102.5z"/>
				<path id="Path_5668" class="st13" d="M309.3-102.5h-78.5l23-39.9l12.4-21.5c1.2-2.1,3.9-2.8,6-1.6c0.7,0.4,1.2,0.9,1.6,1.6
					L309.3-102.5z"/>
			</g>
		</g>
		<g id="Group_13591" transform="translate(573.195 205.553)">
			<g id="Group_13583" transform="translate(82.818 219.624)">
				<rect id="Rectangle_4208" x="123.6" y="-295.6" class="st14" width="60.5" height="90.9"/>
				<rect id="Rectangle_4209" x="184.2" y="-295.6" class="st15" width="23.2" height="90.9"/>
				<g id="Group_13582" transform="translate(80.709 4.416)">
					<rect id="Rectangle_4210" x="106.8" y="-296.6" class="st16" width="17" height="2.9"/>
					<rect id="Rectangle_4211" x="106.8" y="-290.3" class="st16" width="17" height="2.9"/>
					<rect id="Rectangle_4212" x="106.8" y="-284.1" class="st16" width="17" height="2.9"/>
					<rect id="Rectangle_4213" x="106.8" y="-277.9" class="st16" width="17" height="2.9"/>
					<rect id="Rectangle_4214" x="106.8" y="-271.6" class="st16" width="17" height="2.9"/>
					<rect id="Rectangle_4215" x="106.8" y="-265.4" class="st16" width="17" height="2.9"/>
					<rect id="Rectangle_4216" x="106.8" y="-259.2" class="st16" width="17" height="2.9"/>
					<rect id="Rectangle_4217" x="106.8" y="-252.9" class="st16" width="17" height="2.9"/>
					<rect id="Rectangle_4218" x="106.8" y="-246.7" class="st16" width="17" height="2.9"/>
					<rect id="Rectangle_4219" x="106.8" y="-240.5" class="st16" width="17" height="2.9"/>
					<rect id="Rectangle_4220" x="106.8" y="-234.2" class="st16" width="17" height="2.9"/>
					<rect id="Rectangle_4221" x="106.8" y="-228" class="st16" width="17" height="2.9"/>
					<rect id="Rectangle_4222" x="106.8" y="-221.7" class="st16" width="17" height="2.9"/>
					<rect id="Rectangle_4223" x="106.8" y="-215.5" class="st16" width="17" height="2.9"/>
				</g>
			</g>
			<g id="Group_13590">
				<path id="Path_5669" class="st17" d="M196.6,14.9h30.8c0,0,1.7-5.5-2-12.3c0,0-2.5,2-9.9,0.6c-1.6,1.4-3.4,2.6-5.2,3.7
					C208.1,8,195.8,10.4,196.6,14.9z"/>
				<path id="Path_5670" class="st18" d="M198.8-71.8c2,11.9,11.2,52,15.1,75.6c7.2,0.6,10.7-0.2,12.5-0.6c-0.4-8.3-1.1-28-1-36.7
					c0.1-14.6,0.8-34-5.6-44.6l-21.7,1.7c0.1,1.1,0.3,2.1,0.4,2.7C198.5-72.9,198.7-72.4,198.8-71.8z"/>
				<path id="Path_5671" class="st17" d="M141,14.9h30.8c0,0,1.7-5.5-2-12.3c0,0-2.5,2-9.9,0.6c-1.6,1.4-3.4,2.6-5.2,3.7
					C152.5,8,140.2,10.4,141,14.9z"/>
				<path id="Path_5672" class="st19" d="M159,3.2c4,1.1,8.1,1.4,12.1,1.1c1.6-9.5,4.2-30.5,6.5-40.3c3.6-15.3,7.1-36.3,4.7-43.7
					L161-85.2C161-84.5,159.2-20.2,159,3.2z"/>
				<path id="Path_5673" class="st19" d="M243.8-107L243.8-107c-0.4-4.2-0.9-7.3-0.9-7.3l-23.8,5.8l-20.2,4.6
					c-7.5,1.7-16.6,3.7-24.6,5.5c-9,2-14.9,8.8-13,17.8l2.2,10.9c12.5-0.2,71.5-5.8,76.5-8.4C245.8-80.9,247.5-91.1,243.8-107z"/>
				<path id="Path_5674" class="st18" d="M279.4-107L279.4-107c-0.4-3-1.3-6-2.5-8.7l-22.3,7.3l-20.2,4.6
					c-7.5,1.7-16.6,3.7-24.6,5.5c-9,2-14.9,8.8-13,17.8l2.2,10.9c12.5-0.2,65-2,76.5-8.4C281.3-81.1,283.1-91.1,279.4-107z"/>
				<g id="Group_13584" transform="translate(46.447 134.583)">
					<path id="Path_5675" class="st20" d="M166.3-275.7c0,0,10.6-4.8,13.5,0c1.6,2.6,0.5,7.5-3.1,9.5c-3.6,2-24,10.7-43.2,15.5
						c-0.6-1.9-1.3-3.7-2.1-5.5c6-2.6,11.8-5.9,17.2-9.6C154.1-269.7,160-273,166.3-275.7L166.3-275.7z"/>
				</g>
				<path id="Path_5676" class="st20" d="M215.4-174.2l-9.1,36.2c0,0,0.9,9.2,10.2,4.7c9.2-4.5,15.4-33.4,15.4-33.4L215.4-174.2z"/>
				<path id="Path_5677" class="st4" d="M230.7-153.9c-1.1-0.3-2.2-0.6-3.2-0.9c-1.1-0.3-2.1-0.6-3-1c-8.6-3-13.3-6.5-13.3-6.5
					c2.7-11.8,6-19.7,8.9-24.9c0.1-0.1,0.2-0.3,0.2-0.4l0.2-0.4c1.6-2.6,3.8-4.8,6.3-6.6c0.3-0.2,0.5-0.3,0.8-0.5l1.1,18.9l0.2,1.9
					L230.7-153.9z"/>
				<path id="Path_5678" class="st21" d="M230.7-153.9c-1.1-0.3-2.2-0.6-3.2-0.9c-1.1-0.3-2.1-0.6-3-1c1.8-12.7,3.4-20.7,3.4-20.7
					l0.9,2.3L230.7-153.9z"/>
				<path id="Path_5679" class="st4" d="M284.2-186.6c-0.2,5.6-1.2,14.6-2.1,23.6c-0.3,2.9-0.5,5.7-0.7,8.5
					c-0.2,1.7-2.8,11-2.9,12.6c-0.5,7.9-4.3,13.8-0.7,25.8c0.6,1.8,1,3.7,1.1,5.5c0,0.8-1.1,1.7-1.5,1.9c-1.5,0.9-4.6,1.5-8.2,2h0
					c-7.6,0.8-15.2,1.1-22.8,1c-7.9,0-19.7-1.3-21.2-3.2c-1.4-1.8-0.1-4.5,0.5-8.1c2.9-16.5,1.9-25.1,1.7-37c0-0.3,0-0.6,0-0.9
					c-0.3-18.3-1.5-34-0.7-39.7c0.3-0.2,0.5-0.3,0.8-0.5c1.3-0.9,2.5-1.6,3.7-2.3c0.1-0.1,0.2-0.1,0.4-0.2c0.4-0.2,0.7-0.4,1.1-0.6
					c0.1-0.1,0.3-0.1,0.4-0.2c2.9-1.3,5.8-2.5,8.8-3.5c0.3-0.1,0.5-0.2,0.8-0.2c2.1-0.1,4.4-0.2,6.8-0.1c2.1,0.1,5.4,0.3,9,0.8h0
					c4,0.5,8,1.2,11.9,2.2c0,0,0,0,0.1,0c0.7,0.2,4.9,1.8,9.4,6.6C281.6-190.7,283-188.8,284.2-186.6z"/>
				<path id="Path_5680" class="st21" d="M277.9-116.1c0.6,1.8,1,3.7,1.1,5.5c0,0.8-1.1,1.7-1.5,1.9c-1.5,0.9-4.6,1.5-8.2,2
					c1.5-0.2,4.1-2.6,4.1-4.7c0-1.5-2-11.7-1.4-18.3c0.5-6.6,1.6-17.1-0.4-25.4c-2.1-8.4-4-19.4-4-19.4l11.5,6.9
					c0,0,1.5,2.1,3.1,4.6c-0.3,2.9-0.5,5.7-0.7,8.5C281.3-152.8,274.2-128.1,277.9-116.1z"/>
				<g id="Group_13588" transform="translate(102.391)">
					<path id="Path_5681" class="st18" d="M125-235.1c0,0,1,12,5,12.8c4,0.8,3-4.3,3-4.3l-0.6-5.7L125-235.1z"/>
					<path id="Path_5682" class="st20" d="M143.3-191.6c-7.8-0.9-4.9-8.5-3.8-10.3c0.3-0.1,1.6-0.5,1.7-0.6c0,0,0,0,0,0
						c0.3-0.2,0.5-0.6,0.6-0.9c0.8-2,0.4-6,0.4-6.2v-0.7c0.1-0.5,0.3-0.9,0.4-1.4l4.1-3.2l8.7-6.8c0,0-2.3,11.4-0.5,18.6
						c0.1,0.7,0.6,1.3,1.1,1.7c0,0,0,0,0,0c0.3,0.2,0.6,0.3,0.9,0.3C159.1-200,156.1-190,143.3-191.6z"/>
					<path id="Path_5683" class="st22" d="M150.2-214.4c0,0-0.1,7.6-8.3,11.1c0.8-2,0.4-6,0.4-6.2l3.5-2.7L150.2-214.4z"/>
					<path id="Path_5684" class="st20" d="M126.9-233.4c0,0,1.8,24.9,8.5,27.1c0,0,8.6,0.8,14.7-7.5c1.8-2.4,4-2.9,4.8-5.8
						c1.2-4.7,2.9-13.3,0.7-18.5C152.6-245.6,127.2-251.5,126.9-233.4z"/>
					<path id="Path_5685" class="st18" d="M155.7-242.3c-0.1-4.5-4.7-6.2-4.7-6.2c-4.6-2.1-14.1-1.2-23.8,1
						c-2.3,0.5-5.2-0.9-6.8,0.2c-1.9,1.3,0,7.5,0,7.5c3.8,11.4,17.7,7.7,21.8,6.3c1,2.9,0.9,7,3.3,9.1c1.4,1.2,3.9,1.2,6.3,0.8
						c0.3,0.6,1.5,1.1,1.7,1.9c0.8,2.7,0.7,6.8,0.6,10.1l1.2-0.6C155.6-213.1,167.8-241.9,155.7-242.3z"/>
					<g id="Group_13585" transform="translate(10.502 25.156)">
						<path id="Path_5686" class="st23" d="M123.3-250.2c0.4,2.1-0.7,4-2.3,4.2c-1.6,0.3-3.2-1.2-3.6-3.3s0.7-4,2.3-4.2
							C121.3-253.7,122.9-252.2,123.3-250.2z"/>
						<path id="Path_5687" class="st23" d="M131.4-251.7c0.4,2.1-0.7,4-2.3,4.2c-1.6,0.3-3.2-1.2-3.6-3.3c-0.4-2.1,0.7-4,2.3-4.2
							C129.5-255.2,131.1-253.8,131.4-251.7z"/>
						<path id="Path_5688" class="st23" d="M123.3-250.2c0,0,0.4-0.6,2.2-0.4"/>
						<line id="Line_134" class="st23" x1="131.5" y1="-251.2" x2="138.4" y2="-252.3"/>
					</g>
					<g id="Group_13586" transform="translate(35.278 26.42)">
						<path id="Path_5689" class="st20" d="M114.2-244.7c4.8,1.8,6.3-10,1.7-10.5c-3.4-0.4-3.6,4.4-3.6,4.4S111.4-245.8,114.2-244.7
							z"/>
					</g>
					<g id="Group_13587" transform="translate(37.74 28.697)" class="st24">
						<path id="Path_5690" class="st25" d="M113.3-255.7c0,0-2.8,1.5-1,6.1"/>
						<path id="Path_5691" class="st25" d="M114-253.5c-1.1,0-2,0.7-2.3,1.7"/>
					</g>
				</g>
				<path id="Path_5692" class="st20" d="M297.9-136.4L297.9-136.4c-2.1,2.5-10.1,4.2-13.9,0.9c-1.2-1.1-2.6-3.9-3.9-7.4
					c-3.4-9-6.6-22.5-6.6-22.5l17.9-9.1c0,0,2.3,10.3,4.3,20.1c0,0,0,0.1,0.1,0.3c0.6,3.1,1.2,6.2,1.7,8.9c0,0.1,0,0.1,0,0.2
					C297.9-142.2,298.1-139.3,297.9-136.4z"/>
				<path id="Path_5693" class="st4" d="M266.7-177.9c1.7,7.2,7.2,20.8,7.2,20.8c3.8,0.6,8.9-0.1,13.1-1.6c3.1-1.2,6-3.1,8.4-5.4
					c0,0-3.6-10.1-6.8-17.4c-2.9-6.5-4.6-9-5.9-10.3c-2.1-2.1-4.5-3.9-7.1-5.3L266.7-177.9z"/>
				<path id="Path_5694" class="st4" d="M289.3-173.3l-10.5-4.5l-8.3-21.3c0,0,1.5,0.5,3.5,1.3h0c0,0,0.1,0,0.3,0.1
					c0.1,0,0.1,0,0.2,0.1c1.8,0.8,8.7,4.9,13.5,19.7l0.1,0.4c0.5,1.7,0.9,3.1,1.1,3.8c0,0.1,0,0.1,0.1,0.2
					C289.2-173.5,289.2-173.3,289.3-173.3z"/>
				<g id="Group_13589" transform="translate(113.579 120.133)">
					<path id="Path_5695" class="st20" d="M184.3-256.5L184.3-256.5c-0.2,1.3-0.5,2.3-1.2,2.6c-0.1,0.1-1.6,0.9-1.7,1
						c-3.6,2.2-7.3,4.1-11.1,5.7c-12.7,5.3-25.6,9.9-38.7,13.9c-0.7-1.9-1.5-3.7-2.4-5.4c5.9-2.9,11.5-6.3,16.8-10.3
						c8.3-6.4,20.3-14.1,20.3-14.1l3-3.6c0,0,10.8-9.9,12.5-7.9c0,0,0,0.1,0.1,0.3c0.3,1,1.1,4.8,1.7,8.9c0,0.1,0,0.1,0,0.2
						C184.3-262.3,184.5-259.4,184.3-256.5z"/>
					<path id="Path_5696" class="st20" d="M130.6-239.3c-1.3,0.7-2.8,1-4.3,0.8c-1.2-0.2-1.7-0.7-2.5-0.9c-1.5-0.2-3-0.5-4.4-1
						c-1.2-0.6-1.6-0.6-1.6,0.5c0,1.2,2.3,2.2,2.9,2.5c0.6,0.4,1.1,0.9,1.5,1.5c0.1,0.1-3.8,2.2-4.9,1.8c-0.2,0.5-0.2,1-0.1,1.5
						c0.2,0.5,1,0.7,1,1c0.1,0.3-0.2,0.8,0,1.2c0.2,0.4,0.9,0.4,1.2,1.1c0.3,0.7,0,0.7,0.2,1.4c0.2,0.7,1.1,0.8,1.3,1.2
						c0.2,0.4,0.1,0.8,0.5,1s3.9-0.9,5.2-1.4c1.3-0.5,4.7-5.5,8.5-7.1L130.6-239.3z"/>
				</g>
				<path id="Path_5697" class="st26" d="M262-97.2h-27.2v-2.7H262c0.7,0,1.3,0.6,1.3,1.3c0,0,0,0,0,0l0,0
					C263.3-97.8,262.8-97.2,262-97.2z"/>
				<path id="Path_5698" class="st26" d="M247.3-97.2h-68.1c-0.8,0-1.5-0.5-1.7-1.3l-13.9-50.2c-0.3-0.9,0.3-1.9,1.2-2.1
					c0.2,0,0.3-0.1,0.5-0.1H231c1.5,0,2.9,1,3.3,2.5l13.9,50c0.1,0.5-0.2,1-0.7,1.2C247.5-97.2,247.4-97.2,247.3-97.2z"/>
				<path id="Path_5699" class="st7" d="M244.8-97.2h-68.1c-0.8,0-1.5-0.5-1.8-1.3L161-148.7c-0.3-0.9,0.3-1.9,1.2-2.1
					c0.2,0,0.3-0.1,0.5-0.1h65.9c1.5,0,2.9,1,3.3,2.5l13.9,50c0.1,0.5-0.2,1-0.7,1.2C245-97.2,244.9-97.2,244.8-97.2z"/>
			</g>
		</g>
		<g id="Group_13592" transform="translate(196.72 287.795)">
			<path id="Path_5700" class="st27" d="M351.4-211.9l7.9-8.1c0,0,0.3-3.6,0.7-4.4s1.5-3.6,2.1-3.9c0.5-0.2,1.1-0.2,1.7,0
				c0.5-0.2,1-0.3,1.6-0.4c0.5,0.1,1,0.2,1.4,0.4c0,0,1.2-0.1,1.7-0.1c0.2,0,0.5,0,0.6,0.1c0.9-1,1.8-2,2.8-2.9
				c0.9-0.7,2.3-2.1,2.7-2.1c0.4,0,0.6,0.7,0.3,1.4c-0.4,0.7-0.9,1.4-1.5,1.9l-3.6,5.4c0.3-0.1,0.6-0.3,0.9-0.5
				c0.3-0.2,2.5-2.3,2.7-2.3c0.1-0.1,1.1-0.7,1.7-0.1c0.6,0.7-3.8,5.9-4.5,6.5s-4.7,2.7-4.7,2.7s-4.2,7.6-4.6,8.1
				C360.9-209.4,351.4-211.9,351.4-211.9z"/>
			<path id="Path_5701" class="st27" d="M358.8-249.2c0,0-4.4,25.5-8.6,26.1c0,0-16.6,0.7-20.2-19.4c-3.2-17.4,9.6-21.1,15.6-19.8
				C351.6-261,360.1-260.1,358.8-249.2z"/>
			<path id="Path_5702" class="st27" d="M344.2-227.2c0,0-2.3,3.1-3.1,10.7c-4.5,0.5-9.1-0.3-13.3-2.3c2.2-7.2,3.5-14.7,3.8-22.3"/>
			<path id="Path_5703" class="st18" d="M339.5-266.6c-9,2-8.3,7.6-8.3,7.6c-4.2,1-5.1,2.8-5.1,10.6c0,7.8,2.9,17.2,4.4,18
				c1.6,0.8,10.4,0.8,11.1,0.5c0.7-0.3,3.8-7.4,3.1-8.7c-0.7-1.3,0-6.2,2.1-6.4c2.1-0.2,1.7,3,1.7,3l1.7-0.4l1.3-3.2
				c12,0.7,15-12.9,15-12.9C363.7-260.3,348.6-268.6,339.5-266.6z"/>
			<path id="Path_5704" class="st20" d="M239.1-93.8l9.1,1.3l-3,10.7l-9.9-2.5c0,0-4-5.5,2.1-9.5C237.9-94,238.5-94,239.1-93.8z"/>
			<path id="Path_5705" class="st28" d="M307.4-121.2l-13.5-40.8c0,0-4.1-1.5-6.2,0c0,0-14,7.6-12.6,29.1
				c1.1,16.2,4.6,33.8,5.9,40.9l-36-1.3c-2.7,3.5-3.2,8.1-1.6,12.1c0,0,45.2,12.2,51.6,13.3c5.2,0.9,10.8,1.6,13.6-0.7
				C313.5-72.8,307.4-121.2,307.4-121.2z"/>
			<path id="Path_5706" class="st20" d="M281.7-93.8l9.1,1.3l-3,10.7l-9.9-2.5c0,0-4-5.5,2.1-9.5C280.5-94,281.1-94,281.7-93.8z"/>
			<path id="Path_5707" class="st29" d="M278.3-88.2c-0.2,2.1,1.6,4,1.3,4.5c-0.3,0.5-6.5,10.8-6.5,10.8s4.6,2,3.9,4.9h-11.8
				c0,0-3.1-2.8-3-6.7c0.6-3,1.6-5.9,2.9-8.6c2.1-4,6.9-13.2,6.9-13.2c1.3-0.4,2.7-0.3,3.9,0.1c2,0.6,3.9,1.5,5.7,2.5
				C281.7-93.8,278.8-93.4,278.3-88.2z"/>
			<path id="Path_5708" class="st18" d="M372.5-77.3c-2.9-10.8-30.2-57.1-39.5-69.6c-19-8.2-39.2-15.2-39.2-15.2
				c-8.4,2-12.5,18.9-7.7,30.1c3.3,7.7,23.9,27.1,36.6,38.5l-35.1,0c0,0-4.1,6.2-0.4,12c0,0,58.4,13.3,63.5,14
				c5.1,0.7,16.6,0,16.6,0S375-68.2,372.5-77.3z"/>
			<path id="Path_5709" class="st29" d="M235.7-88.2c-0.2,2.1,1.6,4,1.3,4.5c-0.3,0.5-6.5,10.8-6.5,10.8s4.6,2,3.9,4.9h-11.8
				c0,0-3.1-2.8-3-6.7c0.6-3,1.6-5.9,2.9-8.6c2.1-4,6.9-13.2,6.9-13.2c1.3-0.4,2.7-0.3,3.9,0.1c2,0.6,3.9,1.5,5.7,2.5
				C239.1-93.8,236.2-93.4,235.7-88.2z"/>
			<path id="Path_5710" class="st27" d="M416.5-219.8l-18.8,33.1l-13.5-13.4L373-183.5l3.2,1.6l-1.2,1c0,0,26,12.7,29.1,9.9
				c3.1-2.8,17.6-44.9,17.6-44.9L416.5-219.8z"/>
			<path id="Path_5711" class="st29" d="M386.6-198c0,0-3.6,15-10.7,22.1l-18.2-6.9c0,0-8.4,14.2-16.7,25.1
				c-3.2,4.2-4.2,10.1-8,10.9c-0.2-0.1-0.5-0.2-0.7-0.2c-10.1-3-25,0.2-37.3-4.4c-13.6-5.1-11-7.9-11-7.9s8.2-14.9,12.9-30.6
				c1.8-6.1,3.3-12.2,4.5-18.4c1.7-8.9,8.9-15.8,17.9-17.1c0.1,0,0.2,0,0.3,0c10.3-1.3,37.3,1.9,42.5,4.1
				C367.5-219.1,386.6-198,386.6-198z"/>
			<path id="Path_5712" class="st30" d="M357.7-182.8c0,0-8.4,14.2-16.7,25.1c-3.2,4.2-4.2,10.1-8,10.9c1.6-0.6,4.3-9.2,5.3-11.1
				c1-1.9,2.5-3.9,5.8-10.6s7.8-16.7,7.8-16.7L357.7-182.8z"/>
			<path id="Path_5713" class="st31" d="M322.7-93.4c6.1-0.1,12.3,0.8,18.1,2.6"/>
			<path id="Path_5714" class="st27" d="M430.5-231.9c-0.3,0-2.2,1.5-3.2,2.3l1.1-2.1c0.7-0.7,1.3-1.4,1.9-2.1
				c0.5-0.8,0.2-1.5-0.2-1.5c-0.3,0-2,1.3-3,2.1l0.2-0.4c0.7-0.7,1.3-1.4,1.9-2.1c0.5-0.8,0.2-1.5-0.2-1.5c-0.4,0-3.7,2.7-3.7,2.7
				l-1.6,2.1l1.2-2.3c0.4-0.5,0.8-1,1.1-1.6c0.4-0.8,0.1-1.1-0.1-1.4c-0.2-0.3-2.4,1.4-3,2c-0.9,1.2-1.7,2.4-2.5,3.7l-1.8,3.8
				c-0.1-1.1-0.3-3-0.4-4.2c-0.2-1.7-1.8-2.1-1.8-1.3c-0.1,0.8-0.9,5-0.7,7.2c0.2,2.2,0.6,3.7,0.7,5c0.1,1.3-1.2,3.8-1.2,3.8
				s5.2,3.3,6.1,2.3c1.3-1.4,2.5-3,3.6-4.6c0.8-1.5,1.5-3,2-4.6l1.6-3.5c0.7-0.7,1.3-1.4,1.9-2.1C431.2-231.1,431-231.9,430.5-231.9
				z"/>
		</g>
		<g id="Group_13594" transform="translate(756.826 198.711)">
			<path id="Path_5715" class="st32" d="M171.1-248.3h-61.4c-3.9,0-7.1,3.2-7.1,7.1l0,0v14.5c0,3.6,2.7,6.6,6.2,7.1
				c0.5,0.1,0.9,0.5,0.9,1v7.9c0,0.3,0.2,0.5,0.5,0.5c0.1,0,0.3-0.1,0.4-0.2l6.3-8.7c0.2-0.3,0.5-0.4,0.8-0.4h53.5
				c3.9,0,7.1-3.2,7.1-7.1l0,0v-14.5C178.2-245.1,175.1-248.3,171.1-248.3z"/>
			<g id="Group_13593" transform="translate(14.994 15.191)">
				<path id="Path_5716" class="st32" d="M104.1-249.1c0,1.3-1.1,2.3-2.3,2.3c-1.3,0-2.3-1.1-2.3-2.3s1.1-2.3,2.3-2.3
					C103.1-251.5,104.1-250.4,104.1-249.1C104.1-249.1,104.1-249.1,104.1-249.1z"/>
				<path id="Path_5717" class="st32" d="M115.9-249.1c0,1.3-1.1,2.3-2.3,2.3c-1.3,0-2.3-1.1-2.3-2.3c0-1.3,1.1-2.3,2.3-2.3
					c0,0,0,0,0,0C114.9-251.5,115.9-250.4,115.9-249.1C115.9-249.1,115.9-249.1,115.9-249.1z"/>
				<path id="Path_5718" class="st32" d="M127.8-249.1c0,1.3-1.1,2.3-2.3,2.3c-1.3,0-2.3-1.1-2.3-2.3c0-1.3,1.1-2.3,2.3-2.3
					C126.7-251.5,127.8-250.4,127.8-249.1C127.8-249.1,127.8-249.1,127.8-249.1z"/>
				<path id="Path_5719" class="st32" d="M139.6-249.1c0,1.3-1.1,2.3-2.3,2.3c-1.3,0-2.3-1.1-2.3-2.3s1.1-2.3,2.3-2.3
					C138.5-251.5,139.6-250.4,139.6-249.1C139.6-249.1,139.6-249.1,139.6-249.1z"/>
				<path id="Path_5720" class="st32" d="M151.4-249.1c0,1.3-1.1,2.3-2.3,2.3c-1.3,0-2.3-1.1-2.3-2.3c0-1.3,1.1-2.3,2.3-2.3
					c0,0,0,0,0,0C150.3-251.5,151.4-250.4,151.4-249.1C151.4-249.1,151.4-249.1,151.4-249.1z"/>
			</g>
		</g>
		<g id="Group_13596" transform="translate(220.782 279.149)">
			<path id="Path_5721" class="st32" d="M221.8-265.1h61.4c3.9,0,7.1,3.2,7.1,7.1v14.5c0,3.6-2.7,6.6-6.2,7.1
				c-0.5,0.1-0.9,0.5-0.9,1v7.9c0,0.3-0.2,0.5-0.5,0.5c-0.1,0-0.3-0.1-0.4-0.2l-6.3-8.7c-0.2-0.3-0.5-0.4-0.8-0.4h-53.5
				c-3.9,0-7.1-3.2-7.1-7.1l0,0V-258C214.7-261.9,217.9-265.1,221.8-265.1z"/>
			<g id="Group_13595" transform="translate(14.994 15.191)">
				<path id="Path_5722" class="st32" d="M258.8-265.9c0,1.3,1.1,2.3,2.3,2.3s2.3-1.1,2.3-2.3s-1.1-2.3-2.3-2.3c0,0,0,0,0,0
					C259.8-268.3,258.8-267.2,258.8-265.9z"/>
				<path id="Path_5723" class="st32" d="M247-265.9c0,1.3,1.1,2.3,2.3,2.3s2.3-1.1,2.3-2.3c0-1.3-1.1-2.3-2.3-2.3c0,0,0,0,0,0
					C248-268.3,247-267.2,247-265.9z"/>
				<path id="Path_5724" class="st32" d="M235.2-265.9c0,1.3,1.1,2.3,2.3,2.3s2.3-1.1,2.3-2.3s-1.1-2.3-2.3-2.3c0,0,0,0,0,0
					C236.2-268.3,235.2-267.2,235.2-265.9z"/>
				<path id="Path_5725" class="st32" d="M223.3-265.9c0,1.3,1.1,2.3,2.3,2.3c1.3,0,2.3-1.1,2.3-2.3c0-1.3-1.1-2.3-2.3-2.3
					c0,0,0,0,0,0C224.4-268.3,223.3-267.2,223.3-265.9z"/>
				<path id="Path_5726" class="st32" d="M211.5-265.9c0,1.3,1.1,2.3,2.3,2.3c1.3,0,2.3-1.1,2.3-2.3c0-1.3-1.1-2.3-2.3-2.3
					c0,0,0,0,0,0C212.6-268.3,211.5-267.2,211.5-265.9C211.5-265.9,211.5-265.9,211.5-265.9z"/>
			</g>
		</g>
		<g id="Group_13598" transform="translate(543.153 128.11)">
			<path id="Path_5727" class="st33" d="M270.4-211.2h-112c-6.2,0-11.2-5-11.2-11.2l0,0c0-6.2,5-11.2,11.2-11.2h112
				c6.2,0,11.2,5,11.2,11.2l0,0C281.6-216.2,276.6-211.2,270.4-211.2z"/>
			<g id="Group_13597" transform="translate(138.586 5.644)">
				<path id="Path_5728" class="st34" d="M130.2-228.8c0,3.3-2.7,5.9-5.9,5.9c-3.3,0-5.9-2.7-5.9-5.9c0-3.3,2.7-5.9,5.9-5.9
					C127.5-234.7,130.2-232,130.2-228.8C130.2-228.8,130.2-228.8,130.2-228.8z"/>
				<line id="Line_135" class="st35" x1="128.4" y1="-224.6" x2="131.7" y2="-221.3"/>
			</g>
		</g>
		<g id="Group_13621" transform="translate(124.782 0)">
			<g id="Group_13599" transform="translate(302.134 482.671)">
				<path id="Rectangle_4224" class="st7" d="M186-307.7h33.8c3.4,0,6.1,2.7,6.1,6.1v33.8c0,3.4-2.7,6.1-6.1,6.1H186
					c-3.4,0-6.1-2.7-6.1-6.1v-33.8C179.9-304.9,182.7-307.7,186-307.7z"/>
				<path id="Rectangle_4225" class="st36" d="M177.7-307.7h33.8c3.4,0,6.1,2.7,6.1,6.1v33.8c0,3.4-2.7,6.1-6.1,6.1h-33.8
					c-3.4,0-6.1-2.7-6.1-6.1v-33.8C171.6-304.9,174.3-307.7,177.7-307.7z"/>
				<path id="Path_5729" class="st4" d="M189.1-293.3l13.2,7.6c0.6,0.3,0.8,1.1,0.4,1.7c-0.1,0.2-0.3,0.3-0.4,0.4l-13.2,7.6
					c-0.6,0.3-1.3,0.1-1.7-0.4c-0.1-0.2-0.2-0.4-0.2-0.6v-15.2c0-0.7,0.5-1.2,1.2-1.2C188.7-293.5,188.9-293.5,189.1-293.3z"/>
			</g>
			<g id="Group_13601" transform="translate(488.652 168.173)">
				<path id="Path_5732" class="st13" d="M158-238.3h-23.6c-1,0-1.8-0.8-1.8-1.8l0,0c0-1,0.8-1.8,1.8-1.8H158c1,0,1.8,0.8,1.8,1.8
					l0,0l0,0C159.8-239.1,159-238.4,158-238.3z"/>
				<path id="Path_5733" class="st13" d="M181.6-238.3h-17.1c-1,0-1.8-0.8-1.8-1.8l0,0l0,0c0-1,0.8-1.8,1.8-1.8h17.1
					c1,0,1.8,0.8,1.8,1.8l0,0l0,0C183.4-239.1,182.6-238.4,181.6-238.3C181.6-238.3,181.6-238.3,181.6-238.3z"/>
				<path id="Path_5734" class="st13" d="M144.4-230.5h-10c-1,0-1.8-0.8-1.8-1.8c0,0,0,0,0,0l0,0c0-1,0.8-1.8,1.8-1.8h10
					c1,0,1.8,0.8,1.8,1.8l0,0C146.1-231.3,145.4-230.5,144.4-230.5z"/>
				<path id="Path_5735" class="st13" d="M181.6-230.5h-31.3c-1,0-1.8-0.8-1.8-1.8l0,0l0,0c0-1,0.8-1.8,1.8-1.8h31.3
					c1,0,1.8,0.8,1.8,1.8l0,0l0,0C183.4-231.3,182.6-230.5,181.6-230.5C181.6-230.5,181.6-230.5,181.6-230.5z"/>
				<path id="Path_5736" class="st13" d="M165.5-222.7h-31.2c-1,0-1.8-0.8-1.8-1.8l0,0c0-1,0.8-1.8,1.8-1.8h31.2
					c1,0,1.8,0.8,1.8,1.8l0,0C167.3-223.5,166.5-222.7,165.5-222.7z"/>
				<path id="Path_5737" class="st13" d="M181.6-222.7h-10c-1,0-1.8-0.8-1.8-1.8c0,0,0,0,0,0l0,0c0-1,0.8-1.8,1.8-1.8h10
					c1,0,1.8,0.8,1.8,1.8l0,0l0,0C183.4-223.5,182.6-222.7,181.6-222.7C181.6-222.7,181.6-222.7,181.6-222.7z"/>
			</g>
			<g id="Group_13605" transform="translate(43.196 327.275)">
				<path id="Rectangle_4228" class="st7" d="M228.7-275.2h85.4c1.7,0,3,1.4,3,3v44.5c0,1.7-1.4,3-3,3h-85.4c-1.7,0-3-1.4-3-3v-44.5
					C225.7-273.8,227.1-275.2,228.7-275.2z"/>
				<line id="Line_136" class="st37" x1="229.6" y1="-268.3" x2="313.2" y2="-268.3"/>
				<circle id="Ellipse_1856" class="st4" cx="311" cy="-271.8" r="1"/>
				<circle id="Ellipse_1857" class="st4" cx="305.7" cy="-271.8" r="1"/>
				<circle id="Ellipse_1858" class="st4" cx="300.5" cy="-271.8" r="1"/>
				<g id="Group_13604" transform="translate(4.912 13.691)">
					<g id="Group_13602">
						<path id="Path_5738" class="st38" d="M240.3-275.2h-14.2c-0.8,0-1.4-0.6-1.4-1.4l0,0l0,0c0-0.8,0.6-1.4,1.4-1.4h14.2
							c0.8,0,1.4,0.6,1.4,1.4l0,0C241.7-275.9,241-275.2,240.3-275.2C240.3-275.2,240.3-275.2,240.3-275.2z"/>
						<path id="Path_5739" class="st38" d="M240.3-268.8h-14.2c-0.8,0-1.4-0.6-1.4-1.4l0,0l0,0c0-0.8,0.6-1.4,1.4-1.4c0,0,0,0,0,0
							h14.2c0.8,0,1.4,0.6,1.4,1.4l0,0l0,0C241.7-269.4,241-268.8,240.3-268.8C240.3-268.8,240.3-268.8,240.3-268.8z"/>
						<path id="Path_5740" class="st38" d="M240.3-262.3h-14.2c-0.8,0-1.4-0.6-1.4-1.4l0,0c0-0.8,0.6-1.4,1.4-1.4c0,0,0,0,0,0h14.2
							c0.8,0,1.4,0.6,1.4,1.4l0,0l0,0C241.7-262.9,241-262.3,240.3-262.3z"/>
						<path id="Path_5741" class="st38" d="M240.3-255.8h-14.2c-0.8,0-1.4-0.6-1.4-1.4l0,0c0-0.8,0.6-1.4,1.4-1.4h14.2
							c0.8,0,1.4,0.6,1.4,1.4l0,0C241.7-256.5,241-255.8,240.3-255.8C240.3-255.8,240.3-255.8,240.3-255.8z"/>
						<path id="Path_5742" class="st38" d="M240.3-249.4h-14.2c-0.8,0-1.4-0.6-1.4-1.4l0,0l0,0c0-0.8,0.6-1.4,1.4-1.4c0,0,0,0,0,0
							h14.2c0.8,0,1.4,0.6,1.4,1.4l0,0l0,0C241.7-250,241-249.4,240.3-249.4C240.3-249.4,240.3-249.4,240.3-249.4z"/>
						<path id="Path_5743" class="st38" d="M240.3-242.9h-14.2c-0.8,0-1.4-0.6-1.4-1.4l0,0c0-0.8,0.6-1.4,1.4-1.4c0,0,0,0,0,0h14.2
							c0.8,0,1.4,0.6,1.4,1.4l0,0l0,0C241.7-243.5,241-242.9,240.3-242.9z"/>
					</g>
					<g id="Group_13603" transform="translate(24.882)">
						<path id="Path_5744" class="st39" d="M282-275.2h-61.2c-0.8,0-1.4-0.6-1.4-1.4l0,0l0,0c0-0.8,0.6-1.4,1.4-1.4H282
							c0.8,0,1.4,0.6,1.4,1.4l0,0C283.4-275.9,282.8-275.2,282-275.2z"/>
						<path id="Path_5745" class="st39" d="M282-268.8h-61.2c-0.8,0-1.4-0.6-1.4-1.4l0,0l0,0c0-0.8,0.6-1.4,1.4-1.4c0,0,0,0,0,0H282
							c0.8,0,1.4,0.6,1.4,1.4l0,0C283.4-269.4,282.8-268.8,282-268.8z"/>
						<path id="Path_5746" class="st39" d="M282-262.3h-61.2c-0.8,0-1.4-0.6-1.4-1.4l0,0c0-0.8,0.6-1.4,1.4-1.4c0,0,0,0,0,0H282
							c0.8,0,1.4,0.6,1.4,1.4l0,0C283.4-262.9,282.8-262.3,282-262.3C282-262.3,282-262.3,282-262.3z"/>
						<path id="Path_5747" class="st39" d="M282-255.8h-61.2c-0.8,0-1.4-0.6-1.4-1.4l0,0c0-0.8,0.6-1.4,1.4-1.4H282
							c0.8,0,1.4,0.6,1.4,1.4l0,0C283.4-256.5,282.8-255.8,282-255.8C282-255.8,282-255.8,282-255.8z"/>
						<path id="Path_5748" class="st39" d="M282-249.4h-61.2c-0.8,0-1.4-0.6-1.4-1.4l0,0l0,0c0-0.8,0.6-1.4,1.4-1.4c0,0,0,0,0,0H282
							c0.8,0,1.4,0.6,1.4,1.4l0,0C283.4-250,282.8-249.4,282-249.4z"/>
						<path id="Path_5749" class="st39" d="M282-242.9h-61.2c-0.8,0-1.4-0.6-1.4-1.4l0,0c0-0.8,0.6-1.4,1.4-1.4c0,0,0,0,0,0H282
							c0.8,0,1.4,0.6,1.4,1.4l0,0C283.4-243.5,282.8-242.9,282-242.9C282-242.9,282-242.9,282-242.9z"/>
					</g>
				</g>
			</g>
			<g id="Group_13609" transform="translate(580.393 0)">
				<ellipse id="Ellipse_1859" class="st40" cx="158.7" cy="-161.4" rx="37.6" ry="37.6"/>
				<circle id="Ellipse_1860" class="st41" cx="158.7" cy="-161.4" r="32.7"/>
				<path id="Path_5750" class="st4" d="M161.7-161.4c0,1.6-1.3,3-3,3c-1.6,0-3-1.3-3-3c0-1.6,1.3-3,3-3
					C160.4-164.4,161.7-163,161.7-161.4C161.7-161.4,161.7-161.4,161.7-161.4z"/>
				<path id="Path_5751" class="st4" d="M158.4-162L158.4-162c-0.4,0.2-1,0.1-1.3-0.4l-9.6-17.4c-0.2-0.4-0.1-1,0.4-1.3l0,0
					c0.4-0.2,1-0.1,1.3,0.4l9.6,17.4C159-162.8,158.9-162.2,158.4-162z"/>
				<path id="Path_5752" class="st4" d="M159.2-160.9L159.2-160.9c0.4-0.4,1-0.4,1.3,0c0,0,0,0,0,0l8.3,8.3c0.4,0.4,0.4,1,0,1.3l0,0
					c-0.4,0.4-1,0.4-1.3,0c0,0,0,0,0,0l-8.3-8.3C158.8-159.9,158.8-160.5,159.2-160.9z"/>
				<g id="Group_13606" transform="translate(19.488 19.488)">
					<line id="Line_137" class="st42" x1="139.4" y1="-207" x2="139.4" y2="-210.8"/>
					<line id="Line_138" class="st42" x1="165.4" y1="-180.7" x2="169.2" y2="-180.7"/>
					<line id="Line_139" class="st42" x1="139" y1="-154.7" x2="139" y2="-150.9"/>
					<line id="Line_140" class="st42" x1="113.1" y1="-181.1" x2="109.3" y2="-181.1"/>
				</g>
				<g id="Group_13607" transform="translate(24.434 24.434)" class="st24">
					<line id="Line_141" class="st43" x1="121.4" y1="-208.6" x2="119.5" y2="-211.8"/>
					<line id="Line_142" class="st43" x1="157.1" y1="-198.7" x2="160.3" y2="-200.6"/>
					<line id="Line_143" class="st43" x1="147.2" y1="-163" x2="149.1" y2="-159.8"/>
					<line id="Line_144" class="st43" x1="111.5" y1="-172.9" x2="108.3" y2="-171"/>
				</g>
				<g id="Group_13608" transform="translate(24.687 24.687)" class="st24">
					<line id="Line_145" class="st43" x1="111.5" y1="-199.3" x2="108.2" y2="-201.2"/>
					<line id="Line_146" class="st43" x1="147.3" y1="-208.6" x2="149.2" y2="-211.9"/>
					<line id="Line_147" class="st43" x1="156.6" y1="-172.8" x2="159.9" y2="-170.9"/>
					<line id="Line_148" class="st43" x1="120.8" y1="-163.5" x2="118.9" y2="-160.2"/>
				</g>
			</g>
			<g id="Group_13612" transform="translate(0 209.572)">
				<path id="Rectangle_4229" class="st44" d="M247.2-245.1h48.3c4.2,0,7.6,3.4,7.6,7.6v48.3c0,4.2-3.4,7.6-7.6,7.6h-48.3
					c-4.2,0-7.6-3.4-7.6-7.6v-48.3C239.7-241.7,243-245.1,247.2-245.1z"/>
				<path id="Rectangle_4230" class="st45" d="M240.8-250.6h51.3c3.3,0,6.1,2.7,6.1,6.1v51.3c0,3.3-2.7,6.1-6.1,6.1h-51.3
					c-3.3,0-6.1-2.7-6.1-6.1v-51.3C234.7-247.8,237.5-250.6,240.8-250.6z"/>
				<g id="Group_13611" transform="translate(22.308 12.655)">
					<g id="Group_13610">
						<path id="Path_5754" class="st14" d="M247.7-231.7c0-2-1.6-3.5-3.5-3.5s-3.5,1.6-3.5,3.5c0,1.3,0.7,2.4,1.8,3.1
							c0.3,0.1,0.4,0.4,0.3,0.7l-0.6,2.3c-0.3,1.1,0.4,2.3,1.5,2.6s2.3-0.4,2.6-1.5c0.1-0.4,0.1-0.7,0-1.1l-0.6-2.2
							c-0.1-0.3,0.1-0.6,0.3-0.7C247-229.3,247.7-230.4,247.7-231.7z"/>
					</g>
				</g>
			</g>
			<g id="Group_13620" transform="translate(113.96 237.024)">
				<path id="Path_5761" class="st13" d="M227-253.1h-14.5c-0.9,0-1.6-0.7-1.6-1.6c0,0,0,0,0,0l0,0c0-0.9,0.7-1.6,1.6-1.6H227
					c0.9,0,1.6,0.7,1.6,1.6c0,0,0,0,0,0l0,0C228.5-253.8,227.8-253.1,227-253.1z"/>
				<path id="Path_5762" class="st13" d="M241.5-246.1h-29c-0.9,0-1.6-0.7-1.6-1.6c0,0,0,0,0,0l0,0c0-0.9,0.7-1.6,1.6-1.6l0,0h29
					c0.9,0,1.6,0.7,1.6,1.6c0,0,0,0,0,0l0,0C243.1-246.8,242.4-246.1,241.5-246.1C241.5-246.1,241.5-246.1,241.5-246.1z"/>
				<path id="Path_5763" class="st13" d="M215.9-239h-3.4c-0.9,0-1.6-0.7-1.6-1.6c0,0,0,0,0,0l0,0c0-0.9,0.7-1.6,1.6-1.6
					c0,0,0,0,0,0h3.4c0.9,0,1.6,0.7,1.6,1.6c0,0,0,0,0,0l0,0C217.5-239.8,216.8-239,215.9-239z"/>
				<path id="Path_5764" class="st13" d="M241.5-239h-20.2c-0.9,0-1.6-0.7-1.6-1.6c0,0,0,0,0,0l0,0c0-0.9,0.7-1.6,1.6-1.6
					c0,0,0,0,0,0h20.2c0.9,0,1.6,0.7,1.6,1.6c0,0,0,0,0,0l0,0C243.1-239.8,242.4-239,241.5-239C241.5-239,241.5-239,241.5-239z"/>
				<path id="Path_5765" class="st13" d="M241.5-253.1h-8.8c-0.9,0-1.6-0.7-1.6-1.6l0,0c0-0.9,0.7-1.6,1.6-1.6h8.8
					c0.9,0,1.6,0.7,1.6,1.6c0,0,0,0,0,0l0,0C243.1-253.8,242.4-253.1,241.5-253.1C241.5-253.1,241.5-253.1,241.5-253.1z"/>
			</g>
		</g>
		<g id="Group_13624" transform="translate(79.312 382.839)">
			<path id="Path_5767" class="st1" d="M279.3-225.9c-0.3-1.5-0.2-3.1,0.1-4.5c2.1-8,1.9-16.5-0.5-24.5
				c-5.4-16.9-27.3-31.8-27.3-31.8s5.9,24.9,10.8,35.5c3.6,7.8,9.8,16.6,13.3,21.3c1,1.3,1.6,2.8,1.9,4.4c2.1,11.5,3.1,23.3,3,35
				l1.6,0.1C282.5-202.4,281.5-214.3,279.3-225.9z"/>
			<path id="Path_5768" class="st46" d="M296.8-241.8c4.3-13.8,6.4-30,6.4-30s-19.6,16.2-21.3,28.8c-0.8,5.9-0.3,11.8,1.3,17.5
				c0.5,1.5,0.6,3.2,0.5,4.8c-1.2,10.9-1.4,21.9-0.4,32.8l1.5-0.2c-0.9-10.3-0.8-20.6,0.2-30.8c0.2-2.4,1.2-4.7,2.7-6.5
				C291.7-230.3,294.8-235.9,296.8-241.8z"/>
			<path id="Path_5769" class="st1" d="M316.8-272.4c0,0-21.2,7.9-26.7,25.1c-2.5,8.2-2.7,17-0.5,25.3c0.4,1.4,0.4,2.9,0,4.3
				c-5,19.9-5,40.5-5,40.8h1.7c0-0.3,0.1-20.4,4.9-39.9c0.5-1.9,1.3-3.8,2.5-5.4c3.6-4.9,9.8-13.6,13.3-21.3
				C311.9-254.4,316.8-272.4,316.8-272.4z"/>
			<path id="Path_5770" class="st46" d="M279.4-199.5c-0.5-6.6-2.2-13.1-4.9-19.2c-0.5-1.1-0.6-2.3-0.5-3.5
				c0.4-3.4,0.2-6.9-0.5-10.3c-1.7-8.5-13-26.8-29.3-27.9c0,0,5.6,9,8.5,16.6c3.7,9.6,8.9,19.6,17.6,23.4c1.5,0.7,2.7,1.9,3.4,3.5
				c2.3,5.6,3.8,11.5,4.2,17.5L279.4-199.5z"/>
			<g id="Group_13623" transform="translate(21.639 98.844)">
				<g id="Group_13622">
					<path id="Path_5771" class="st1" d="M246.7-261.2h26.9l7-42.7c0.3-1.7-0.9-3.3-2.6-3.6c-0.2,0-0.3,0-0.5,0h-34.7
						c-1.7,0-3.1,1.4-3.1,3.1c0,0.2,0,0.3,0,0.5L246.7-261.2z"/>
				</g>
			</g>
		</g>
		<path id="Line_149_2_" class="st47" d="M1013.5,221.3"/>
		<path id="Line_149_1_" class="st47" d="M260.8,221.3"/>
	</g>
	<g id="Group_13686" transform="translate(-22 -5.754)">
		<circle id="Ellipse_1861" class="st48" cx="1139.7" cy="84.3" r="32.4"/>
		<g id="Ellipse_1862" transform="translate(889 271.754)">
			<circle class="st49" cx="247.5" cy="-192.2" r="32.4"/>
			<circle class="st50" cx="247.5" cy="-192.2" r="32"/>
		</g>
	</g>
</g>
<path class="st4" d="M482.3-117.5c-0.3-0.3-0.7-0.5-1.2-0.5h-28.6c-0.9,0-1.6,0.7-1.6,1.6c0,0,0,0.1,0,0.1l2.5,27.9
	c0.1,0.7,0.5,1.3,1.2,1.4l11.8,3.3c0.1,0,0.3,0.1,0.4,0.1c0.1,0,0.3,0,0.4-0.1l11.8-3.3c0.7-0.2,1.1-0.8,1.2-1.4l2.5-27.9
	C482.8-116.7,482.6-117.2,482.3-117.5z M477.1-89.8l-10.3,2.9l-10.3-2.9l-2.2-25h25L477.1-89.8z M459.9-100h11.3l-0.5,5.4l-4.2,1.5
	l-5.2-1.9c-0.9-0.3-1.8,0.1-2.1,1c-0.3,0.9,0.1,1.8,1,2.1c0,0,0,0,0,0l5.7,2c0.4,0.1,0.7,0.1,1.1,0l5.7-2c0.6-0.2,1-0.8,1.1-1.4
	l0.8-8.2c0.1-0.9-0.6-1.7-1.5-1.8c-0.1,0-0.1,0-0.2,0h-11.6l-0.5-4.9h12.9c0.9,0,1.6-0.7,1.6-1.6s-0.7-1.6-1.6-1.6h-14.8
	c-0.9,0-1.6,0.7-1.6,1.6c0,0.1,0,0.1,0,0.2l0.8,8.2C458.4-100.6,459.1-100,459.9-100z"/>
<g transform="translate(-226.336 -216.265)">
	<g>
		<path class="st4" d="M633.6,196.2l-3,32.2l-12.5,3.4l-12.5-3.4l-3-32.2H633.6 M635.5,194.5h-34.7l3.3,35.3l14.1,3.8l14.1-3.8
			L635.5,194.5L635.5,194.5z"/>
	</g>
	<path class="st4" d="M610.1,189.3v-2.1h3.1v-2.3h-5.4v6.5h5.4v-2.1H610.1z M618.7,187.2h2.1v-2.3h-5.4v2.3c0.7,0.7,1.1,1.1,2.1,2.1
		c-0.6,0-2.1,0-2.1,0v2.1h5.4v-2.1L618.7,187.2z M626.3,187.2h2.1v-2.3h-5.4v2.3c0.7,0.7,1.1,1.1,2.1,2.1c-0.6,0-2.1,0-2.1,0v2.1
		h5.4v-2.1L626.3,187.2z"/>
	<path class="st4" d="M618.1,206.1l-10.1,4.2l0.3,4.2l9.8-4.2l10.4-4.4l0.4-4.3L618.1,206.1L618.1,206.1z"/>
	<path class="st4" d="M608,210.3l0.3,4.2l9.8-4.2v-4.2L608,210.3z"/>
	<path class="st4" d="M629,201.6l-10.8,4.5v4.2l10.4-4.4L629,201.6z"/>
	<path class="st4" d="M608,210.3l0.3,4.2l15,0l-0.3,5.6l-4.9,1.4l-4.7-1.2l-0.3-3.4h-4.4l0.6,6.7l8.9,2.6l8.9-2.6l1.1-13.2
		L608,210.3z"/>
	<path class="st4" d="M618.1,210.3H608l0.3,4.2l9.8,0V210.3z M618.1,221.5L618.1,221.5l-4.8-1.2l-0.3-3.4h-4.4l0.6,6.7l8.9,2.6
		L618.1,221.5z"/>
	<path class="st4" d="M607.1,201.6H629l-0.4,4.3h-20.9L607.1,201.6z"/>
	<path class="st4" d="M618.1,201.6h-11l0.5,4.3h10.5L618.1,201.6z"/>
</g>
<g>
	<path class="st4" d="M453-126.2h2.2v2.2h2v-2.2h2.2v6.6h-2.2v-2.2h-2v2.2H453V-126.2z M462.3-124.1h-1.9v-2.2h6.1v2.2h-1.9v4.4
		h-2.2L462.3-124.1L462.3-124.1L462.3-124.1z M467.3-126.2h2.3l1.4,2.3l1.4-2.3h2.3v6.6h-2.2v-3.3l-1.5,2.3h0l-1.5-2.3v3.3h-2.1
		L467.3-126.2z M475.8-126.2h2.2v4.4h3.1v2.2h-5.3V-126.2z"/>
</g>
</svg>
