<?xml version="1.0" encoding="utf-8"?>
<!-- Generator: Adobe Illustrator 19.0.0, SVG Export Plug-In . SVG Version: 6.00 Build 0)  -->
<svg version="1.1" id="Layer_1" xmlns="http://www.w3.org/2000/svg" xmlns:xlink="http://www.w3.org/1999/xlink" x="0px" y="0px"
	 width="647.5px" height="425.4px" viewBox="313 -201.4 647.5 425.4" style="enable-background:new 313 -201.4 647.5 425.4;"
	 xml:space="preserve">
<style type="text/css">
	.st0{fill:#F8F8F8;}
	.st1{fill:#A5B7E8;}
	.st2{fill:#B8C8F5;}
	.st3{fill:#8AA0DE;}
	.st4{fill:#6D86CF;}
	.st5{fill:#B6C2FF;}
	.st6{fill:#8693F2;}
	.st7{fill:#6A7FDB;}
	.st8{fill:#FFFFFF;stroke:#8693F2;stroke-miterlimit:10;}
	.st9{fill:none;stroke:#8693F2;stroke-miterlimit:10;}
	.st10{fill:#E6E8FC;}
	.st11{fill:none;stroke:#277EF1;stroke-width:1.5;stroke-miterlimit:10;}
	.st12{fill:#277EF1;}
	.st13{fill:#FFFFFF;}
	.st14{opacity:0.75;fill:#E0EBFC;enable-background:new    ;}
	.st15{opacity:0.75;fill:#F5F6FF;enable-background:new    ;}
	.st16{fill:#F5F6FF;}
	.st17{opacity:0.75;}
	.st18{fill:none;}
	.st19{fill:#0B0C0C;}
	.st20{fill:url(#SVGID_1_);}
	.st21{fill:#3F3A6B;}
	.st22{fill:url(#SVGID_2_);}
	.st23{fill:#49437B;}
	.st24{fill:url(#SVGID_3_);}
	.st25{fill:url(#SVGID_4_);}
	.st26{fill:url(#SVGID_5_);}
	.st27{fill:url(#SVGID_6_);}
	.st28{fill:url(#SVGID_7_);}
	.st29{fill:url(#SVGID_8_);}
	.st30{fill:url(#SVGID_9_);}
	.st31{fill:#506BD8;}
	.st32{fill:#91B3FA;}
	.st33{fill:#BDD0FB;}
	.st34{fill:#7D97F4;}
	.st35{fill:none;stroke:#C2D9F9;stroke-miterlimit:10;}
	.st36{fill:#6282DD;}
	.st37{fill:#F99746;}
	.st38{fill:#E58638;}
	.st39{fill:#F7A491;}
	.st40{fill:#DD513A;}
	.st41{fill:#184655;}
	.st42{fill:#0E2E35;}
	.st43{fill:#F47458;}
	.st44{fill:#1F1C37;}
	.st45{fill:#F7B6B0;}
	.st46{fill:#1777AA;}
	.st47{fill:#42A1CD;}
	.st48{fill:#FFA171;}
	.st49{fill:#EF8A3F;}
	.st50{fill:#E39E98;}
	.st51{fill:#1DDFFF;}
	.st52{fill:#5882D6;}
	.st53{fill:#6ABFFF;}
	.st54{fill:#FF5F5F;}
	.st55{fill:url(#SVGID_10_);}
	.st56{fill:url(#SVGID_11_);}
	.st57{fill:url(#SVGID_12_);}
	.st58{fill:url(#SVGID_13_);}
	.st59{fill:url(#SVGID_14_);}
	.st60{fill:url(#SVGID_15_);}
	.st61{fill:url(#SVGID_16_);}
	.st62{fill:url(#SVGID_17_);}
	.st63{fill:url(#SVGID_18_);}
	.st64{fill:url(#SVGID_19_);}
	.st65{fill:url(#SVGID_20_);}
	.st66{fill:url(#SVGID_21_);}
	.st67{fill:url(#SVGID_22_);}
	.st68{fill:url(#SVGID_23_);}
	.st69{fill:url(#SVGID_24_);}
	.st70{fill:url(#SVGID_25_);}
	.st71{fill:url(#SVGID_26_);}
	.st72{fill:url(#SVGID_27_);}
	.st73{fill:url(#SVGID_28_);}
	.st74{fill:url(#SVGID_29_);}
	.st75{fill:url(#SVGID_30_);}
	.st76{fill:url(#SVGID_31_);}
	.st77{fill:url(#SVGID_32_);}
	.st78{fill:url(#SVGID_33_);}
	.st79{fill:url(#SVGID_34_);}
	.st80{fill:url(#SVGID_35_);}
	.st81{fill:url(#SVGID_36_);}
	.st82{fill:url(#SVGID_37_);}
	.st83{fill:url(#SVGID_38_);}
	.st84{fill:url(#SVGID_39_);}
	.st85{fill:url(#SVGID_40_);}
	.st86{fill:url(#SVGID_41_);}
	.st87{fill:url(#SVGID_42_);}
	.st88{fill:url(#SVGID_43_);}
	.st89{fill:url(#SVGID_44_);}
	.st90{fill:url(#SVGID_45_);}
	.st91{fill:url(#SVGID_46_);}
	.st92{fill:url(#SVGID_47_);}
	.st93{fill:url(#SVGID_48_);}
	.st94{fill:url(#SVGID_49_);}
	.st95{fill:url(#SVGID_50_);}
	.st96{fill:#86D7FF;}
	.st97{fill:#CCEEFF;}
	.st98{fill:#00A7FF;}
	.st99{fill:#60C9FF;}
	.st100{fill:#A1E0FF;}
</style>
<g>
	<path class="st0" d="M642-169.9c24.4,0,48.1,4.8,70.3,14.2c21.5,9.1,40.8,22.1,57.4,38.7c16.6,16.6,29.6,35.9,38.7,57.4
		c9.4,22.3,14.2,45.9,14.2,70.3s-4.8,48.1-14.2,70.3c-9.1,21.5-22.1,40.8-38.7,57.4c-16.6,16.6-35.9,29.6-57.4,38.7
		c-22.3,9.4-45.9,14.2-70.3,14.2c-24.4,0-48.1-4.8-70.3-14.2c-21.5-9.1-40.8-22.1-57.4-38.7c-16.6-16.6-29.6-35.9-38.7-57.4
		c-9.4-22.3-14.2-45.9-14.2-70.3s4.8-48.1,14.2-70.3c9.1-21.5,22.1-40.8,38.7-57.4c16.6-16.6,35.9-29.6,57.4-38.7
		C593.9-165.1,617.6-169.9,642-169.9 M642-201.4c-117.2,0-212.2,95-212.2,212.2C429.8,128,524.8,223,642,223
		c117.2,0,212.2-95,212.2-212.2C854.2-106.4,759.2-201.4,642-201.4L642-201.4z"/>
</g>
<g>
	<path class="st0" d="M642-108.4c32,0,62.2,12.5,84.8,35.1c22.7,22.7,35.1,52.8,35.1,84.8s-12.5,62.2-35.1,84.8S674,131.5,642,131.5
		c-32,0-62.2-12.5-84.8-35.1C534.5,73.7,522,43.6,522,11.6s12.5-62.2,35.1-84.8C579.8-95.9,609.9-108.4,642-108.4 M642-139.9
		c-83.6,0-151.5,67.8-151.5,151.5S558.3,163,642,163S793.4,95.2,793.4,11.6S725.6-139.9,642-139.9L642-139.9z"/>
</g>
<g>
	<rect x="476.7" y="188.2" class="st1" width="2.9" height="21.2"/>
	<path class="st2" d="M461.5,162.4c-6.2-20.7-3.4-55.2-3.1-58.2c0.4-3.7-2.3-5.2-3.2-4.4c-1,0.8-4.7,17-4.6,31.7
		c0.1,14.7,4.8,34.2,6.6,36C459.1,169.4,463,167.7,461.5,162.4z"/>
	<path class="st3" d="M490.1,169.5c0,0-0.4,1.2-0.8,2.8c-0.4,1.5-2.3,2.8-4.2,2.8h-14c-1.9,0-3.7-1.2-4.2-2.8
		c-0.4-1.5-0.8-2.8-0.8-2.8H490.1z"/>
	<path class="st1" d="M500.2,170.9c0,0,0-0.8,0-2c0-1.2-5.1-4.2-9.1-5.3c-4-1.1-13.8-2.4-20-1.7c-6.3,0.7-11.7,0.1-13-0.3
		c-1.4-0.4-2.4,3.5-1.7,5.2c0.7,1.7,2,4.8,3.7,4.8c1.5,0,33.4-0.1,39.2,0C499.9,171.6,500.1,171.2,500.2,170.9z"/>
	<path class="st4" d="M470,175l2.2,9.9c0.4,1.8,2.5,3.3,4.6,3.3h2.8c2.1,0,4.2-1.5,4.6-3.3l2.2-9.9H470z"/>
	<path class="st4" d="M474.6,213.9l0.9-4.3c0.2-0.8,1.1-1.5,2-1.5h1.2c0.9,0,1.8,0.7,2,1.5l0.9,4.3H474.6z"/>
	<path class="st3" d="M456.3,216.7c0-1.6,1.6-2.8,3.5-2.8h36.7c1.9,0,3.5,1.3,3.5,2.8H456.3z"/>
</g>
<g>
	<path class="st5" d="M671,102.3h-58.5c0,0,2.4,37.3-9.2,37.3c3.7,0,73.1,0,76.8,0C668.6,139.6,671,102.3,671,102.3z"/>
	<path class="st6" d="M611.9,124.7l59-11.9c-0.1-5.9,0.2-10.4,0.2-10.4h-58.5C612.6,102.3,613.3,114.3,611.9,124.7z"/>
	<path class="st7" d="M753.8,113.6h-224c-2.9,0-5.3-2.4-5.3-5.3V-35.1c0-2.9,2.4-5.3,5.3-5.3h224c2.9,0,5.3,2.4,5.3,5.3v143.4
		C759.2,111.2,756.8,113.6,753.8,113.6z"/>
	<path class="st8" d="M750.1,108.1H533.5c-1.4,0-2.5-1.1-2.5-2.5V-32.5c0-1.4,1.1-2.5,2.5-2.5h216.6c1.4,0,2.5,1.1,2.5,2.5v138.1
		C752.6,107,751.5,108.1,750.1,108.1z"/>
	<line class="st9" x1="531.1" y1="-16.9" x2="752.6" y2="-16.9"/>
	<path class="st10" d="M726-22.6H573.4c-2.1,0-3.8-1.7-3.8-3.8l0,0c0-2.1,1.7-3.8,3.8-3.8H726c2.1,0,3.8,1.7,3.8,3.8l0,0
		C729.7-24.2,728.1-22.6,726-22.6z"/>
	<g>
		<circle class="st8" cx="539.9" cy="-26.2" r="2"/>
		<circle class="st8" cx="549.3" cy="-26.2" r="2"/>
		<circle class="st8" cx="558.8" cy="-26.2" r="2"/>
	</g>
	<g>
		<g>
			<path class="st11" d="M703.6,34.9H580c-4.7,0-8.5-3.8-8.5-8.5l0,0c0-4.7,3.8-8.5,8.5-8.5h123.7c4.7,0,8.5,3.8,8.5,8.5l0,0
				C712.1,31.1,708.3,34.9,703.6,34.9z"/>
			<path class="st12" d="M703.6,18h-14.2v17h14.2c4.7,0,8.5-3.8,8.5-8.5l0,0C712.1,21.7,708.3,18,703.6,18z"/>
		</g>
		<path class="st13" d="M706.1,30.5l-2.8-2.8c0.6-0.8,0.9-1.7,0.9-2.6c0-2.4-2-4.4-4.4-4.4c-2.4,0-4.4,2-4.4,4.4
			c0,2.4,2,4.4,4.4,4.4c0.7,0,1.4-0.2,2-0.5l2.9,2.9c0.2,0.2,0.4,0.3,0.7,0.3c0.3,0,0.5-0.1,0.7-0.3c0.2-0.2,0.3-0.4,0.3-0.7
			C706.4,31,706.3,30.7,706.1,30.5z M702.9,25.1c0,1.7-1.4,3.2-3.2,3.2c-1.7,0-3.2-1.4-3.2-3.2c0-1.7,1.4-3.2,3.2-3.2
			C701.5,21.9,702.9,23.3,702.9,25.1z"/>
		<path class="st14" d="M615.6,30.1h-35.4c-2,0-3.7-1.6-3.7-3.6l0,0c0-2,1.6-3.7,3.7-3.7h35.4c2,0,3.7,1.6,3.7,3.7l0,0
			C619.2,28.4,617.6,30.1,615.6,30.1z"/>
	</g>
	<rect x="593" y="138.5" class="st5" width="97.7" height="5.4"/>
	<g>
		<g>
			<path class="st14" d="M625.2,53.6h-23.9c-2.3,0-4.1-1.8-4.1-4.1l0,0c0-2.3,1.8-4.1,4.1-4.1h23.9c2.3,0,4.1,1.8,4.1,4.1l0,0
				C629.3,51.8,627.5,53.6,625.2,53.6z"/>
			<line class="st11" x1="601.6" y1="50.6" x2="624.9" y2="50.6"/>
		</g>
		<g>
			<path class="st14" d="M682.4,53.6h-42.5c-2.3,0-4.1-1.8-4.1-4.1l0,0c0-2.3,1.8-4.1,4.1-4.1h42.5c2.3,0,4.1,1.8,4.1,4.1l0,0
				C686.4,51.8,684.6,53.6,682.4,53.6z"/>
			<line class="st11" x1="644.7" y1="50.6" x2="677.5" y2="50.6"/>
		</g>
	</g>
	<line class="st9" x1="709.2" y1="-10.1" x2="718.1" y2="-10.1"/>
	<line class="st9" x1="722.5" y1="-10.1" x2="731.4" y2="-10.1"/>
	<g>
		<rect x="734.7" y="-12.5" class="st15" width="1.2" height="1.2"/>
		<rect x="736.3" y="-12.5" class="st15" width="1.2" height="1.2"/>
		<rect x="738" y="-12.5" class="st15" width="1.2" height="1.2"/>
		<rect x="734.7" y="-10.7" class="st15" width="1.2" height="1.2"/>
		<rect x="736.3" y="-10.7" class="st15" width="1.2" height="1.2"/>
		<rect x="738" y="-10.7" class="st15" width="1.2" height="1.2"/>
		<rect x="734.7" y="-8.9" class="st15" width="1.2" height="1.2"/>
		<rect x="736.3" y="-8.9" class="st15" width="1.2" height="1.2"/>
		<rect x="738" y="-8.9" class="st15" width="1.2" height="1.2"/>
	</g>
	<circle class="st16" cx="744.2" cy="-10.1" r="3.1"/>
	<g>
		<circle class="st6" cx="746.4" cy="-30.1" r="0.8"/>
		<circle class="st6" cx="746.4" cy="-26.3" r="0.8"/>
		<circle class="st6" cx="746.4" cy="-22.6" r="0.8"/>
	</g>
	<line class="st9" x1="677.5" y1="138.8" x2="627.6" y2="138.8"/>
	<line class="st9" x1="621.9" y1="138.8" x2="605.6" y2="138.8"/>
	<g>
		<path class="st16" d="M664.3,94.2H549.6c-1.9,0-3.5-1.6-3.5-3.5v-79c0-1.9,1.6-3.5,3.5-3.5h114.8c1.9,0,3.5,1.6,3.5,3.5v79
			C667.9,92.6,666.3,94.2,664.3,94.2z"/>
		<path class="st8" d="M657.2,89.8H542.5c-1.9,0-3.5-1.6-3.5-3.5v-79c0-1.9,1.6-3.5,3.5-3.5h114.8c1.9,0,3.5,1.6,3.5,3.5v79
			C660.8,88.2,659.2,89.8,657.2,89.8z"/>
		<path class="st6" d="M657.4,3.7H542.3c-1.8,0-3.3,1.5-3.3,3.3v5.5h121.8V7.1C660.8,5.2,659.3,3.7,657.4,3.7z"/>
		<g>
			<path class="st16" d="M648.7,64.8h-96.6c-0.9,0-1.6-0.7-1.6-1.6l0,0c0-0.9,0.7-1.6,1.6-1.6h96.6c0.9,0,1.6,0.7,1.6,1.6l0,0
				C650.3,64.1,649.6,64.8,648.7,64.8z"/>
			<path class="st16" d="M648.7,70.6h-96.6c-0.9,0-1.6-0.7-1.6-1.6l0,0c0-0.9,0.7-1.6,1.6-1.6h96.6c0.9,0,1.6,0.7,1.6,1.6l0,0
				C650.3,69.8,649.6,70.6,648.7,70.6z"/>
			<path class="st16" d="M648.7,76.3h-96.6c-0.9,0-1.6-0.7-1.6-1.6l0,0c0-0.9,0.7-1.6,1.6-1.6h96.6c0.9,0,1.6,0.7,1.6,1.6l0,0
				C650.3,75.5,649.6,76.3,648.7,76.3z"/>
			<path class="st16" d="M648.7,82h-96.6c-0.9,0-1.6-0.7-1.6-1.6l0,0c0-0.9,0.7-1.6,1.6-1.6h96.6c0.9,0,1.6,0.7,1.6,1.6l0,0
				C650.3,81.2,649.6,82,648.7,82z"/>
			<path class="st16" d="M648.7,59.1h-96.6c-0.9,0-1.6-0.7-1.6-1.6l0,0c0-0.9,0.7-1.6,1.6-1.6h96.6c0.9,0,1.6,0.7,1.6,1.6l0,0
				C650.3,58.4,649.6,59.1,648.7,59.1z"/>
		</g>
		<g>
			<g id="XMLID_64_" class="st17">
				<path class="st5" d="M573.4,24.2c-2.4-3.5-6.4-5.9-11-5.9v13.2L573.4,24.2z"/>
			</g>
			<path class="st10" d="M572.5,26.2l-11,7.3V20.3c-7.3,0-13.2,5.9-13.2,13.2s5.9,13.2,13.2,13.2c7.3,0,13.2-5.9,13.2-13.2
				C574.7,30.7,573.9,28.2,572.5,26.2z"/>
			<path class="st10" d="M638.2,20.3v13.2l-10.5,8l0,0c2.4,3.2,6.2,5.2,10.5,5.2c7.3,0,13.2-5.9,13.2-13.2
				C651.3,26.2,645.5,20.3,638.2,20.3z"/>
			<path class="st5" d="M609.8,40.7c1.7-2.2,2.7-5,2.7-8c0-7.3-5.9-13.1-13.2-13.1v13.1L609.8,40.7z"/>
			<path class="st10" d="M608.3,41.4l-10.4-8V20.3c-7.3,0-13.1,5.9-13.1,13.2s5.9,13.2,13.1,13.2C602.2,46.6,605.9,44.6,608.3,41.4
				C608.3,41.4,608.3,41.4,608.3,41.4z"/>
			<path class="st5" d="M623.8,32.7c0,3,1,5.7,2.7,8l10.5-8V19.6C629.7,19.6,623.8,25.5,623.8,32.7z"/>
		</g>
	</g>
</g>
<g>
	<g>
		<polygon class="st1" points="769.4,113.3 770.5,120.2 770.5,120.2 774.6,144.7 775,147.5 780.2,179.1 780.6,181.9 785.6,212.2 
			787.9,212.2 771.7,112.8 770.5,113 769.5,113.3 		"/>
		<polygon class="st1" points="790.5,212.2 792.8,212.2 807.9,120.2 807.9,120.2 809,113.3 807.9,113 806.8,112.8 		"/>
		<polyline class="st4" points="755.5,212.2 760.4,181.9 760.9,179.1 766.1,147.5 766.5,144.7 770.5,120.2 770.5,120.2 771.7,113.3 
			770.5,113 769.4,112.8 753.1,212.2 755.5,212.2 		"/>
		<polygon class="st1" points="806.8,113.3 807.9,120.2 807.9,120.2 822.9,212.2 825.3,212.2 809,112.8 807.9,113 		"/>
		<rect x="759.5" y="179.1" class="st1" width="59.4" height="2.8"/>
		<rect x="764.9" y="144.7" class="st1" width="48.1" height="2.8"/>
		<polygon class="st4" points="753.1,212.2 755.5,212.2 760.4,181.9 780.6,181.9 780.2,179.1 760.9,179.1 766.1,147.5 775,147.5 
			774.6,144.7 766.5,144.7 770.5,120.2 770.5,120.2 769.5,113.3 769.4,112.8 		"/>
		<polygon class="st1" points="809,112.8 806.8,112.8 808.4,115.5 		"/>
		<polygon class="st4" points="771.7,112.8 769.4,112.8 771.2,116 		"/>
		<line class="st18" x1="755.5" y1="212.2" x2="755.5" y2="212.2"/>
	</g>
</g>
<g>
	<g>
		<path class="st19" d="M523.3,211.3c-5.7,0-8.2-0.5-9.4-0.9c0.2,0.9,1.1,1.7,2.1,1.7h20.2c0.7,0,1.1-0.7,0.9-1.2
			C534.8,211,530,211.3,523.3,211.3z"/>
		<path class="st19" d="M537.1,210.8c0-0.1-0.1-0.2-0.2-0.3c-1.5-2-4.6-5-8.8-5c-6.2,0.1-8.3,0.8-13.1,0l-1.1,3.7
			c-0.1,0.4-0.1,0.8,0,1.1c1.1,0.4,3.7,0.9,9.4,0.9C530,211.3,534.8,211,537.1,210.8z"/>
	</g>
	
		<linearGradient id="SVGID_1_" gradientUnits="userSpaceOnUse" x1="515.0727" y1="-181.0296" x2="521.3672" y2="-181.0296" gradientTransform="matrix(1 0 0 -1 0 23.2)">
		<stop  offset="0" style="stop-color:#FF928E"/>
		<stop  offset="1" style="stop-color:#FEB3B1"/>
	</linearGradient>
	<path class="st20" d="M516.5,201.5l-1.4,4.7c0,0,3.1,1.4,5.8,0.3l0.5-4.1L516.5,201.5z"/>
	<g>
		<path class="st19" d="M558.3,208.4c-4.4,3.6-6.7,4.8-7.9,5.1c0.8,0.6,1.9,0.6,2.7,0l15.7-12.6c0.5-0.4,0.5-1.2,0-1.6
			C567.1,200.9,563.5,204.2,558.3,208.4z"/>
		<path class="st19" d="M568.8,199.3c-0.1-0.1-0.2-0.1-0.3-0.2c-2.4-0.6-6.7-1-10,1.7c-4.7,3.9-6,5.8-10.2,8.2l1.5,3.6
			c0.1,0.4,0.4,0.7,0.7,0.9c1.2-0.4,3.4-1.6,7.9-5.1C563.5,204.2,567.1,200.9,568.8,199.3z"/>
	</g>
	<path class="st21" d="M486.8,147.9c0,0,34.1,2.8,41.2,6.1c7,3.3-5.7,49.5-5.7,49.5s-1.9,0.9-6.2-0.4c0,0,4.4-34.1,1.1-41.5l-37-6
		L486.8,147.9z"/>
	
		<linearGradient id="SVGID_2_" gradientUnits="userSpaceOnUse" x1="544.8899" y1="-181.5589" x2="552.4053" y2="-181.5589" gradientTransform="matrix(1 0 0 -1 0 23.2)">
		<stop  offset="0" style="stop-color:#FF928E"/>
		<stop  offset="1" style="stop-color:#FEB3B1"/>
	</linearGradient>
	<path class="st22" d="M544.9,202.5c0.3,0.3,3.4,6.5,3.4,6.5s3.4-0.7,4.1-2.9l-3.1-5.6L544.9,202.5z"/>
	<path class="st23" d="M466.3,147.6c0,0-1.1,2.7-1.1,6.2c0.1,4.9,4,8.9,8.9,9.2l40.4,1.8c0.9,0,1.6,0.6,1.8,1.5
		c0.9,3.7,5.6,14.9,28.3,37.4c0.6,0.6,1.5,0.7,2.3,0.2l3.2-2c0.3-0.2,0.4-0.7,0.2-1l-23.5-40.1c-1.2-2-3.2-3.5-5.5-4.1l-34.4-8.8
		L466.3,147.6z"/>
	
		<linearGradient id="SVGID_3_" gradientUnits="userSpaceOnUse" x1="503.1433" y1="-75.6526" x2="506.8487" y2="-66.3087" gradientTransform="matrix(1 0 0 -1 0 23.2)">
		<stop  offset="0" style="stop-color:#FF928E"/>
		<stop  offset="1" style="stop-color:#FEB3B1"/>
	</linearGradient>
	<path class="st24" d="M506.1,84.9c0,0-4.3,7.6-8.7,11.4l9.1,5.1c0,0,2.1-8.1,6.7-10.5L506.1,84.9z"/>
	
		<linearGradient id="SVGID_4_" gradientUnits="userSpaceOnUse" x1="494.6959" y1="-108.1804" x2="535.5054" y2="-175.1762" gradientTransform="matrix(1 0 0 -1 0 23.2)">
		<stop  offset="0" style="stop-color:#FE7062"/>
		<stop  offset="1" style="stop-color:#FF928E"/>
	</linearGradient>
	<path class="st25" d="M465.5,147.9c0,0,10.9,2.7,21.3,0c0,0,14.6-19.6,20.2-24.9c0,0,9,14.2,29,16.2l1.1-2.5
		c0,0-15.9-7.3-20.8-18.6c-4.9-11.3-6.9-16.1-11.3-19c-2.8-1.8-4.4-3.1-5.3-3.8c-0.5-0.4-1.1-0.4-1.6-0.1
		C493.3,98,471,113.3,465.5,147.9z"/>
	
		<linearGradient id="SVGID_5_" gradientUnits="userSpaceOnUse" x1="500.5328" y1="-94.0243" x2="506.9477" y2="-94.0243" gradientTransform="matrix(1 0 0 -1 0 23.2)">
		<stop  offset="0" style="stop-color:#E1473D"/>
		<stop  offset="1" style="stop-color:#E9605A"/>
	</linearGradient>
	<path class="st26" d="M506.4,122.5c-0.2,0-0.3-0.1-0.4-0.2c-3.5-4.5-5.4-9.5-5.5-9.7c-0.1-0.3,0-0.6,0.3-0.7c0.3-0.1,0.6,0,0.7,0.3
		c0,0,2,5,5.3,9.4c0.2,0.2,0.1,0.5-0.1,0.7C506.7,122.5,506.5,122.5,506.4,122.5z"/>
	
		<linearGradient id="SVGID_6_" gradientUnits="userSpaceOnUse" x1="534.7988" y1="-111.9909" x2="552.1592" y2="-111.9909" gradientTransform="matrix(1 0 0 -1 0 23.2)">
		<stop  offset="0" style="stop-color:#FF928E"/>
		<stop  offset="1" style="stop-color:#FEB3B1"/>
	</linearGradient>
	<path class="st27" d="M534.8,135.4l2.3-0.6l6.8-1.6c0.8-0.2,1.7,0,2.4,0.4l5.9,3.7l-16.2,0L534.8,135.4z"/>
	<g>
		
			<linearGradient id="SVGID_7_" gradientUnits="userSpaceOnUse" x1="2457.7161" y1="-582.1113" x2="2439.1116" y2="-596.3467" gradientTransform="matrix(0.9914 -0.1306 -0.1306 -0.9914 -1998.1478 -176.2782)">
			<stop  offset="0" style="stop-color:#FF928E"/>
			<stop  offset="1" style="stop-color:#FEB3B1"/>
		</linearGradient>
		<path class="st28" d="M512.9,73.4c0,0,4.2,7,4.9,10.8c0.7,3.9,1.9,6.3-2.5,7.7c-4.4,1.4-8.5-0.4-11-4c0,0-4-5.5-3.6-8.1
			C501.1,77.3,512.9,73.4,512.9,73.4z"/>
		
			<linearGradient id="SVGID_8_" gradientUnits="userSpaceOnUse" x1="2444.647" y1="-570.8758" x2="2461.4917" y2="-592.5633" gradientTransform="matrix(0.9914 -0.1306 -0.1306 -0.9914 -1998.1478 -176.2782)">
			<stop  offset="0" style="stop-color:#09005D"/>
			<stop  offset="1" style="stop-color:#1A0F91"/>
		</linearGradient>
		<path class="st29" d="M505.5,85l0.6-0.1c0,0-3-4.5-1-5.6c1.9-1.1,9.9-3.9,11.3-7c1.3-3-0.7-6.4-3.1-7.1c-0.2,0-0.3,0-0.4,0.2
			l-0.1,0.4c-0.1,0.3-0.5,0.3-0.6,0l0,0c-0.1-0.2-0.4-0.3-0.6,0c-0.4,0.9-1.7,2.5-5.5,3.8c-5.4,1.8-8.8,4.5-8.4,8.3
			c0,0.2-0.2,0.4-0.4,0.3c-0.4-0.2-1.1-0.2-1.9,0.6c-1.4,1.5-0.3,4.7,3.4,7c0.2,0.1,0.2,0.4,0,0.5c-0.6,0.5-1.3,1.5,1.2,2.5
			c2.6,1,4,0.6,4.5,0.4c0.1-0.1,0.2-0.2,0.2-0.3l-0.7-3.4c0-0.2,0.1-0.3,0.3-0.4L505.5,85z"/>
		
			<linearGradient id="SVGID_9_" gradientUnits="userSpaceOnUse" x1="2455.4087" y1="-579.0969" x2="2436.8057" y2="-593.3311" gradientTransform="matrix(0.9914 -0.1306 -0.1306 -0.9914 -1998.1478 -176.2782)">
			<stop  offset="0" style="stop-color:#FF928E"/>
			<stop  offset="1" style="stop-color:#FEB3B1"/>
		</linearGradient>
		<path class="st30" d="M505.7,85.6c0,0-1.9-4.6-3.8-3c-1.9,1.6,1.8,5.2,3.5,5.1L505.7,85.6z"/>
	</g>
</g>
<g>
	<g>
		<path class="st31" d="M528.5,140.5C528.6,140.5,528.6,140.5,528.5,140.5l34.7,0c0.9,0,1.6-0.7,1.5-1.5c0-0.9-0.7-1.6-1.6-1.5
			l-34.7,0c-0.9,0-1.6,0.7-1.5,1.6C527.1,139.7,527.7,140.4,528.5,140.5z"/>
	</g>
	<g>
		<path class="st31" d="M576.7,106.5C576.7,106.5,576.7,106.6,576.7,106.5L562.1,138c-0.4,0.8,0,1.7,0.8,2.1c0.8,0.4,1.7,0,2.1-0.8
			l14.6-31.4c0.4-0.8,0-1.7-0.8-2.1C578,105.5,577.1,105.8,576.7,106.5z"/>
	</g>
</g>
<g>
	<path class="st32" d="M544,143.1c-0.2,0.6-14.6,54.9-18.3,68.6c-0.4,1.6,0.8,3.1,2.4,3.1l0,0c1.1,0,2.1-0.8,2.4-1.9l16.1-65.1
		L544,143.1z"/>
	<path class="st32" d="M551.9,143.1c0.2,0.6,14.6,54.9,18.3,68.6c0.4,1.6-0.8,3.1-2.4,3.1l0,0c-1.1,0-2.1-0.8-2.4-1.9l-16.1-65.1
		L551.9,143.1z"/>
	<path class="st32" d="M552.5,141.3h-9v7.2c0,1,0.8,1.9,1.9,1.9h1.2v16.2c0,0.8,0.6,1.4,1.4,1.4l0,0c0.8,0,1.4-0.6,1.4-1.4v-16.2
		h0.6c1.4,0,2.5-1.1,2.5-2.5V141.3z"/>
	<path class="st33" d="M521.3,139.6h50.3c0.7,0,1.3,0.5,1.5,1.2l0.7,2.8c0.3,1-0.5,2-1.5,1.9l-51.6-0.3c-1,0-1.7-1-1.5-1.9l0.6-2.5
		C520,140,520.6,139.6,521.3,139.6z"/>
</g>
<g id="XMLID_74_">
	<rect id="XMLID_93_" x="669" y="-113.8" class="st34" width="5.4" height="63.8"/>
	<polygon id="XMLID_92_" class="st34" points="639.4,-110.7 589,-40.1 596.6,-40.1 644.7,-108.4 	"/>
	<rect id="XMLID_91_" x="646.3" y="-116" class="st34" width="25.9" height="5.4"/>
	<path id="XMLID_90_" class="st35" d="M665-111c0,20.4-11,19.2-17.3,3.2"/>
	<path id="XMLID_89_" class="st35" d="M656.2-111.8c1.2,18.6-9.9,18.9-10.7,0.8"/>
	<g id="XMLID_84_">
		<g>
			<g id="XMLID_37_">
				<polygon id="XMLID_38_" class="st34" points="693.8,-21.3 697.8,-21.3 697.8,-39.6 674.5,-49.4 678.9,-50 700.7,-41.2 
					700.7,-18.5 693.8,-18.5 				"/>
			</g>
			<g id="XMLID_35_">
				<polygon id="XMLID_36_" class="st34" points="648,-21.3 644.1,-21.3 644.1,-39.6 666.9,-49.1 663,-50 641.2,-41.2 641.2,-18.5 
					648,-18.5 				"/>
			</g>
		</g>
	</g>
	<rect id="XMLID_83_" x="662.1" y="-52.5" class="st34" width="19.1" height="5.2"/>
	<circle id="XMLID_78_" class="st34" cx="672.1" cy="-113.8" r="7.6"/>
	<circle id="XMLID_77_" class="st36" cx="672.1" cy="-113.8" r="3"/>
	<circle id="XMLID_76_" class="st34" cx="644.7" cy="-113.8" r="7.6"/>
	<circle id="XMLID_75_" class="st36" cx="644.7" cy="-113.8" r="3"/>
</g>
<g>
	<path class="st37" d="M579.1-89c0.3,0,1.3,0.3,2.7,2.9c1.8,3.3,4.3,13.4,4.3,13.4l-7.7,2.9l-1-2.1l-1.6-16.2
		C575.8-88.1,579-89,579.1-89z"/>
	<path class="st38" d="M568.9-90.4c2.2,0,7.7,0.6,10.2,1.5c0,0,1.9,16-1.7,28.1c-0.8,2.7,0.7,11.3,0.7,11.3l-22.8-0.3
		c0,0,2.7-20.7,1.7-24c-1-3.3-1-15-1-15s0.2,0,5.1-0.9C563.4-90.2,566.6-90.4,568.9-90.4z"/>
	<path class="st39" d="M566.3-19.9c0,0,0.5,5.8,1.4,7.4s0,4.4-0.1,4.7c0,0.4-2,0.9-5,0.6c-3-0.3-3-1-2.7-2.2c0.2-1.1,1.9-2.6,2-3.7
		c0.1-1.1-0.9-5-0.9-5L566.3-19.9z"/>
	<path class="st21" d="M575.5-54.4c0,0,15.8-0.9,19.3,1.3c3.5,2.1-2.5,12.6-2.5,12.6s-11-0.5-32.4,0.7c-5.1,0.3-5.5-13.3-4.6-14.4
		C556.2-55.3,575.5-54.4,575.5-54.4z"/>
	<path class="st40" d="M562.2-6.7c-3.1-0.3-2.7-1.9-2.5-3c0.2-0.7,1.1-1.6,1.6-2.4c0.3,0.2,0.7,0.6,2.1,1c1.4,0.4,3.3-0.4,4.6-0.9
		c0.4,1.6,0.5,3.7,0.4,4C568.4-7.6,565.4-6.4,562.2-6.7z"/>
	<path class="st23" d="M564-43.1c0.6,4.8,3.7,28.5,3.7,28.5l-7.2,0.9c0,0-8.9-31-8.4-35.7c0.5-4.7,3.8-5.1,3.8-5.1
		S562.3-55.8,564-43.1z"/>
	<path class="st39" d="M555.7-87.1c2.1-0.8,3.2,18.4,3.5,26.4c3.8,0.4,10.4,0,12-0.1c0.8-0.1,2.6-0.7,3.3-0.8
		c0.8-0.1,1.5-0.2,1.9-0.1c0.1,0,4.1,1.6,4.4,2c0.4,0.4,1.5,1.5,1.4,2c-0.2,0.5-2.2-1.3-2.2-1.3l-1-0.5c1.2,1.2,3.5,2.7,3.2,3.3
		c-0.3,0.6-2.4-1-3.9-2.1c1.3,1.1,2.8,3.2,2.5,3.5c-0.3,0.3-2.1-2.1-4-2.8c-0.7-0.3-1.4,0.4-2,0.5c-0.4,0.1-1,0.2-1.4,0.1l-2.1-0.6
		c-0.7,0.1-0.7,0.5-1.4,0.6c-0.8,0.2-2.2,0.4-3.2,0.6c-6.1,1.5-8.1,2.2-10,2.2C550.9-54.2,550.6-85.2,555.7-87.1z"/>
	<path class="st37" d="M551.6-69c-0.4-8.1-0.3-18.1,4.2-19.8c1.8-0.7,5,3.4,4.4,20C557.8-68.7,554.2-68.5,551.6-69z"/>
	<path class="st39" d="M588.2-14.3c0,0-1,1.8-0.2,3.4s5.1,3.8,5.6,4.7c0.4,0.8,0.3,1.4,0.3,1.4L581-8l1-3.9l1.2-2.7L588.2-14.3z"/>
	<path class="st40" d="M588.6-10.1c0,0-3.6,0.6-5-0.5c-1.4-1.1-1.3-1.3-1.9-1.2c-0.3,0.1-0.9,1.7-1.2,2.7c-0.2,0.6,0.2,1.2,0.8,1.3
		l13.3,3.3c1,0.2,1.7-0.4,1-1.2c-0.5-0.6-1.1-1-1.4-1.3C593.3-7.8,588.6-10.1,588.6-10.1z"/>
	<path class="st23" d="M586.9-50.7c1-2.1,3.3-4.9,7.4-3.3c3.9,1.6,4.9,5.5,3.7,9.6c-1.2,4-9.3,27.8-9.6,31l-6.4,0
		c0,0,1.2-18.8,1.5-23.3C583.7-41,585.2-47,586.9-50.7z"/>
	<path class="st41" d="M597.4-72.5h-21.6c-0.6,0-1.1,0.3-1.3,0.9l-6.6,16.2H556c-0.3,0-0.6,0.3-0.6,0.6l0,0c0,0.3,0.3,0.6,0.6,0.6
		h33.8c0.9,0,1.8-0.5,2.2-1.4l6.7-14.9C599.1-71.5,598.4-72.5,597.4-72.5z"/>
	
		<ellipse transform="matrix(0.1967 -0.9805 0.9805 0.1967 531.6971 522.3719)" class="st13" cx="584.6" cy="-63.3" rx="1.3" ry="1.2"/>
	<g>
		<path class="st42" d="M574.1-110c-0.6-0.2-1.3-0.5-1.9-0.8c-0.7-0.3-1.6-0.7-2.2-0.8c-1.2-0.2-3.3-0.1-4.4,1.2
			c-1.4,1.5-3.9,0.3-3.4,8.4c0.6,9.1,5.7,8.1,5.8,8c0.1-0.2,4.5-5.9,4.5-5.9s1.5,3.4,1.5,3.2C574-96.7,581.9-107.3,574.1-110z"/>
		<path class="st39" d="M570.2-93.3l0.4,3.3c0,0,1,4.7-0.3,5.6c-1.3,0.9-5.4-5.7-5.4-5.7l0.4-8.3L570.2-93.3z"/>
		<path class="st43" d="M565.3-95.8c1,2.8,3.5,4.6,5.3,5.2l-0.4-2.8l-4.8-5.1L565.3-95.8z"/>
		<path class="st39" d="M569.9-107.5c2.7-0.4,5.1,1.7,5,4.4c0,1.2-0.1,2.6-0.4,4.2c-0.6,3.8-3.2,7.1-4.9,6.8c-1.7-0.3-6-3.5-5.2-8.9
			C565-104.3,567.1-107,569.9-107.5z"/>
		
			<ellipse transform="matrix(0.1716 -0.9852 0.9852 0.1716 566.7047 472.7589)" class="st39" cx="564.5" cy="-100.6" rx="1.5" ry="1.2"/>
		<path class="st42" d="M564.7-102.1c0,0,2.1,0.5,2.8-0.8c0.8-1.3,3.5-4.2,7-3c3.5,1.2-3.1-2.9-3.3-2.9c-0.3,0-3.6,0-3.6,0
			s-2.6,2.1-2.7,2.3c-0.1,0.2-0.8,2.8-0.8,2.8L564.7-102.1z"/>
	</g>
	<path class="st13" d="M568.5-96.6l3.7,0.7c0,0-0.4,1.4-2,1.1C568.2-95,568.5-96.6,568.5-96.6z"/>
</g>
<g>
	<path class="st44" d="M785.4-0.8l-0.5-1.9c0,0-3.2-1.7,0.6-5.3c3.6-3.4,13.5-0.4,15.9,5.3c2.4,5.7,3,9.6,10.7,12.5
		c7.7,3,9.7,9.8,5.9,18c-3.8,8.2,3.5,11.7-1.4,15.8c-4.9,4.1-10.6,3.1-13.1-1.8c-2.6-4.9-6.4-15.1-10-20.3
		C789.7,16.4,785.4-0.8,785.4-0.8z"/>
	<g>
		<polygon class="st45" points="782.6,136.4 782.4,140.2 777.5,140.2 777,136.4 		"/>
		<path class="st44" d="M782.4,140.2c0,0,0.6,5.1,0,5.5c-0.6,0.4-12.9,0-12.9,0s-1.3-0.4-0.4-1.5c0.8-1,7.7-2.9,8.4-4H782.4z"/>
	</g>
	<g>
		<polygon class="st45" points="808.8,134.4 810,138.5 805.2,139.5 803.9,135.8 		"/>
		<path class="st44" d="M810,138.5c0,0,1.8,4.7,1.1,5.4c-0.9,0.7-2.4,0.3-4.4,0.7c-2,0.3-3.8,0.9-4.5,1c-2.1,0.3-3.8,0.2-3.8,0.2
			s-1.3-0.2-0.7-1.4c0.3-0.5,1.7-0.7,3-1.5c1.7-0.9,4.2-2.7,4.4-3.4L810,138.5z"/>
	</g>
	<path class="st46" d="M772.6,59.1c0,0-4.2,19.6-1.5,41.1c2.8,21.5,5.9,39.3,5.9,39.3l5.9-0.5c0,0,2.1-54.4,2.3-57.8s-0.9-23-0.9-23
		L772.6,59.1z"/>
	<path class="st47" d="M780.1,61.8c0,0,4.9,26.9,10.8,44.5c5.9,17.6,13.4,31.9,13.4,31.9l5.7-1.3c0,0-6.7-24.6-8-41.3
		c-1.3-16.7-4.8-33.2-6.9-37.3C793,54.2,780.1,61.8,780.1,61.8z"/>
	<path class="st38" d="M786.3,16.4c0,0-6.7,0.3-11.6,4.9s-11.2,8.7-12.4,8.5c-1.3-0.1-14.9-4.6-14.9-4.6l-1.6,3.9
		c0,0,10.3,5.2,14.9,6.6c4.7,1.4,19.4-9.1,16.5-5.7c-2.1,2.4-3.4,8-1.5,11c1.9,3-3.7,18.7-3.7,18.7s1.2,2.7,9.9,2.6
		c8.7-0.1,12.9-3,13.7-2.8c0.8,0.2-3.5-8.1-1.4-15c2.1-6.8,5.1-11.2,5.8-15c0.7-3.9,2.7-7.5,2.7-7.5S802.5,17.8,786.3,16.4z"/>
	<path class="st45" d="M784.9-2.7c0,0-4.8,12.8,1.5,14.9c0,0-1.2,5.3-0.7,5.9c0.5,0.6,4.2,3.2,8.2-0.7c0,0-1.3-6,0-7.3
		c1.3-1.3,3.2-2.3,3.5-4.3c0.3-2-1.6-1.4-2.2-1.1c-0.6,0.3-2.6-1.6-4.1-4.9C789.7-3.5,785.6-4.8,784.9-2.7z"/>
	<path class="st45" d="M747.4,25.3c0,0-4.2-1.9-6.6-2.5c-2.5-0.7-2.6,0.3-2.4,0.5c0.3,0.2,3.5,0.8,3.1,2s-0.9,3.1,4.3,3.9
		L747.4,25.3z"/>
	<polygon class="st48" points="785.7,52.4 772.4,52.4 765.7,31.6 779,31.6 	"/>
	<path class="st45" d="M785.4,46.5c0,0-2.2,0.7-3.9,1c-1.7,0.3-3.9,0.1-3.8,1.2c0.1,1.1,3.7,2.5,7.7,1.7L785.4,46.5L785.4,46.5z"/>
	<g>
		<path class="st49" d="M797.5,25c0,0-3.5,11-3.3,19.6c0,0,2.8-7.9,5.2-12.9C801.9,26.6,797.5,25,797.5,25z"/>
	</g>
	<path class="st37" d="M785.4,46.5v3.9c0,0,19.5,2.2,21.6-3.2s-1.9-26.6-6-26.9c-4-0.3-5.9,8.7-0.3,23.6L785.4,46.5z"/>
	<path class="st50" d="M786.4,12.2c0,0,3.1,0.1,4.8-0.8c1.7-1,1.8,1.6-5.2,2.7L786.4,12.2z"/>
</g>
<g>
	<path class="st51" d="M524.7-92.5h-45.4c-2.7,0-5-2.2-5-5v-22.7c0-2.7,2.2-5,5-5h45.4c2.7,0,5,2.2,5,5v22.7
		C529.7-94.7,527.5-92.5,524.7-92.5z"/>
	<g>
		<g>
			<circle class="st13" cx="489.5" cy="-108.8" r="9.9"/>
		</g>
	</g>
	<path class="st52" d="M491.2-108.8c0.6-0.5,1-1.2,1-2.1c0-1.5-1.2-2.6-2.6-2.6c-1.5,0-2.6,1.2-2.6,2.6c0,0.8,0.4,1.6,1,2.1
		c-2,0.7-3.4,2.5-3.4,4.7h10C494.5-106.3,493.1-108.1,491.2-108.8z"/>
	<path class="st13" d="M513.6-114.4h-9.1c-0.6,0-1.1-0.5-1.1-1.1c0-0.6,0.5-1.1,1.1-1.1h9.1c0.6,0,1.1,0.5,1.1,1.1
		C514.7-114.9,514.2-114.4,513.6-114.4z"/>
	<path class="st13" d="M522-114.4h-3.3c-0.6,0-1.1-0.5-1.1-1.1c0-0.6,0.5-1.1,1.1-1.1h3.3c0.6,0,1.1,0.5,1.1,1.1
		C523-114.9,522.5-114.4,522-114.4z"/>
	<path class="st13" d="M522-107.8h-12.5c-0.6,0-1.1-0.5-1.1-1.1c0-0.6,0.5-1.1,1.1-1.1H522c0.6,0,1.1,0.5,1.1,1.1
		C523-108.3,522.5-107.8,522-107.8z"/>
	<path class="st13" d="M522-101.1h-2.5c-0.6,0-1.1-0.5-1.1-1.1c0-0.6,0.5-1.1,1.1-1.1h2.5c0.6,0,1.1,0.5,1.1,1.1
		C523-101.6,522.5-101.1,522-101.1z"/>
</g>
<g>
	<path class="st53" d="M772.3-97.5c-4.2,0-7.6,3.4-7.6,7.6v22.8v3.3c0,2.6,3.1,3.9,5,2.1l4.6-4.5c0.6-0.5,1.3-0.8,2.1-0.8h30.7
		c4.2,0,7.6-3.4,7.6-7.6v-15.2c0-4.2-3.4-7.6-7.6-7.6H772.3z"/>
	<circle class="st13" cx="782.1" cy="-82.4" r="2.3"/>
	<circle class="st13" cx="791.1" cy="-82.4" r="2.3"/>
	<circle class="st13" cx="800.2" cy="-82.4" r="2.3"/>
</g>
<path class="st54" d="M672.7-155.3H650c-3,0-5.4-2.4-5.4-5.4v-14.4c0-3,2.4-5.4,5.4-5.4h22.7c3,0,5.4,2.4,5.4,5.4v14.4
	C678.1-157.7,675.7-155.3,672.7-155.3z"/>
<polygon class="st13" points="658.9,-173 658.9,-162.9 666.2,-167.9 "/>
<g>
	
		<linearGradient id="SVGID_10_" gradientUnits="userSpaceOnUse" x1="626.001" y1="-5.2418" x2="720.3524" y2="-5.2418" gradientTransform="matrix(1 0 0 -1 0 23.2)">
		<stop  offset="0" style="stop-color:#2E719D"/>
		<stop  offset="1" style="stop-color:#2E3C84"/>
	</linearGradient>
	<path class="st55" d="M720.4-14.5V78H626v-92.4c0-3.6,3-6.6,6.6-6.6h81.2C717.4-21.1,720.4-18.1,720.4-14.5z"/>
	<path class="st7" d="M720.4-14.5v6.6H626v-6.6c0-3.6,3-6.6,6.6-6.6h81.2C717.4-21.1,720.4-18.1,720.4-14.5z"/>
	
		<linearGradient id="SVGID_11_" gradientUnits="userSpaceOnUse" x1="712.2057" y1="37.691" x2="715.2427" y2="37.691" gradientTransform="matrix(1 0 0 -1 0 23.2)">
		<stop  offset="0" style="stop-color:#EEFBF4"/>
		<stop  offset="1" style="stop-color:#D0D9F2"/>
	</linearGradient>
	<circle class="st56" cx="713.7" cy="-14.5" r="1.5"/>
	
		<linearGradient id="SVGID_12_" gradientUnits="userSpaceOnUse" x1="706.514" y1="37.691" x2="709.5494" y2="37.691" gradientTransform="matrix(1 0 0 -1 0 23.2)">
		<stop  offset="0" style="stop-color:#2E719D"/>
		<stop  offset="1" style="stop-color:#2E3C84"/>
	</linearGradient>
	<circle class="st57" cx="708" cy="-14.5" r="1.5"/>
	
		<linearGradient id="SVGID_13_" gradientUnits="userSpaceOnUse" x1="700.8215" y1="37.691" x2="703.8569" y2="37.691" gradientTransform="matrix(1 0 0 -1 0 23.2)">
		<stop  offset="0" style="stop-color:#2E719D"/>
		<stop  offset="1" style="stop-color:#2E3C84"/>
	</linearGradient>
	<circle class="st58" cx="702.3" cy="-14.5" r="1.5"/>
	
		<linearGradient id="SVGID_14_" gradientUnits="userSpaceOnUse" x1="633.0336" y1="37.6906" x2="661.1163" y2="37.6906" gradientTransform="matrix(1 0 0 -1 0 23.2)">
		<stop  offset="0" style="stop-color:#2E719D"/>
		<stop  offset="1" style="stop-color:#2E3C84"/>
	</linearGradient>
	<path class="st59" d="M661.1-14.5c0,0.8-0.7,1.5-1.5,1.5h-25c-0.8,0-1.5-0.7-1.5-1.5l0,0c0-0.8,0.7-1.5,1.5-1.5h25
		C660.4-16,661.1-15.3,661.1-14.5L661.1-14.5z"/>
	<g>
		<g>
			
				<linearGradient id="SVGID_15_" gradientUnits="userSpaceOnUse" x1="634.6459" y1="23.7181" x2="637.8973" y2="23.7181" gradientTransform="matrix(1 0 0 -1 0 23.2)">
				<stop  offset="0" style="stop-color:#EEFBF4"/>
				<stop  offset="1" style="stop-color:#D0D9F2"/>
			</linearGradient>
			<path class="st60" d="M637.1,0.3h-1.7c-0.4,0-0.8-0.4-0.8-0.8s0.4-0.8,0.8-0.8h1.7c0.4,0,0.8,0.4,0.8,0.8S637.5,0.3,637.1,0.3z"
				/>
		</g>
		<g>
			
				<linearGradient id="SVGID_16_" gradientUnits="userSpaceOnUse" x1="634.6459" y1="17.3667" x2="637.8973" y2="17.3667" gradientTransform="matrix(1 0 0 -1 0 23.2)">
				<stop  offset="0" style="stop-color:#EEFBF4"/>
				<stop  offset="1" style="stop-color:#D0D9F2"/>
			</linearGradient>
			<path class="st61" d="M637.1,6.6h-1.7c-0.4,0-0.8-0.4-0.8-0.8S635,5,635.4,5h1.7c0.4,0,0.8,0.4,0.8,0.8S637.5,6.6,637.1,6.6z"/>
		</g>
		<g>
			
				<linearGradient id="SVGID_17_" gradientUnits="userSpaceOnUse" x1="634.6459" y1="11.0149" x2="637.8973" y2="11.0149" gradientTransform="matrix(1 0 0 -1 0 23.2)">
				<stop  offset="0" style="stop-color:#EEFBF4"/>
				<stop  offset="1" style="stop-color:#D0D9F2"/>
			</linearGradient>
			<path class="st62" d="M637.1,13h-1.7c-0.4,0-0.8-0.4-0.8-0.8s0.4-0.8,0.8-0.8h1.7c0.4,0,0.8,0.4,0.8,0.8S637.5,13,637.1,13z"/>
		</g>
		<g>
			
				<linearGradient id="SVGID_18_" gradientUnits="userSpaceOnUse" x1="634.6459" y1="4.6632" x2="637.8973" y2="4.6632" gradientTransform="matrix(1 0 0 -1 0 23.2)">
				<stop  offset="0" style="stop-color:#EEFBF4"/>
				<stop  offset="1" style="stop-color:#D0D9F2"/>
			</linearGradient>
			<path class="st63" d="M637.1,19.3h-1.7c-0.4,0-0.8-0.4-0.8-0.8c0-0.4,0.4-0.8,0.8-0.8h1.7c0.4,0,0.8,0.4,0.8,0.8
				C637.9,19,637.5,19.3,637.1,19.3z"/>
		</g>
		<g>
			
				<linearGradient id="SVGID_19_" gradientUnits="userSpaceOnUse" x1="634.6459" y1="-1.6878" x2="637.8973" y2="-1.6878" gradientTransform="matrix(1 0 0 -1 0 23.2)">
				<stop  offset="0" style="stop-color:#EEFBF4"/>
				<stop  offset="1" style="stop-color:#D0D9F2"/>
			</linearGradient>
			<path class="st64" d="M637.1,25.7h-1.7c-0.4,0-0.8-0.4-0.8-0.8c0-0.4,0.4-0.8,0.8-0.8h1.7c0.4,0,0.8,0.4,0.8,0.8
				C637.9,25.3,637.5,25.7,637.1,25.7z"/>
		</g>
		<g>
			
				<linearGradient id="SVGID_20_" gradientUnits="userSpaceOnUse" x1="634.6459" y1="-8.0392" x2="637.8973" y2="-8.0392" gradientTransform="matrix(1 0 0 -1 0 23.2)">
				<stop  offset="0" style="stop-color:#EEFBF4"/>
				<stop  offset="1" style="stop-color:#D0D9F2"/>
			</linearGradient>
			<path class="st65" d="M637.1,32h-1.7c-0.4,0-0.8-0.4-0.8-0.8c0-0.4,0.4-0.8,0.8-0.8h1.7c0.4,0,0.8,0.4,0.8,0.8
				C637.9,31.7,637.5,32,637.1,32z"/>
		</g>
		<g>
			
				<linearGradient id="SVGID_21_" gradientUnits="userSpaceOnUse" x1="634.6459" y1="-14.3914" x2="637.8973" y2="-14.3914" gradientTransform="matrix(1 0 0 -1 0 23.2)">
				<stop  offset="0" style="stop-color:#EEFBF4"/>
				<stop  offset="1" style="stop-color:#D0D9F2"/>
			</linearGradient>
			<path class="st66" d="M637.1,38.4h-1.7c-0.4,0-0.8-0.4-0.8-0.8c0-0.4,0.4-0.8,0.8-0.8h1.7c0.4,0,0.8,0.4,0.8,0.8
				C637.9,38,637.5,38.4,637.1,38.4z"/>
		</g>
		<g>
			
				<linearGradient id="SVGID_22_" gradientUnits="userSpaceOnUse" x1="634.6459" y1="-20.7428" x2="637.8973" y2="-20.7428" gradientTransform="matrix(1 0 0 -1 0 23.2)">
				<stop  offset="0" style="stop-color:#EEFBF4"/>
				<stop  offset="1" style="stop-color:#D0D9F2"/>
			</linearGradient>
			<path class="st67" d="M637.1,44.7h-1.7c-0.4,0-0.8-0.4-0.8-0.8c0-0.4,0.4-0.8,0.8-0.8h1.7c0.4,0,0.8,0.4,0.8,0.8
				C637.9,44.4,637.5,44.7,637.1,44.7z"/>
		</g>
		<g>
			
				<linearGradient id="SVGID_23_" gradientUnits="userSpaceOnUse" x1="634.6459" y1="-27.0934" x2="637.8973" y2="-27.0934" gradientTransform="matrix(1 0 0 -1 0 23.2)">
				<stop  offset="0" style="stop-color:#EEFBF4"/>
				<stop  offset="1" style="stop-color:#D0D9F2"/>
			</linearGradient>
			<path class="st68" d="M637.1,51.1h-1.7c-0.4,0-0.8-0.4-0.8-0.8s0.4-0.8,0.8-0.8h1.7c0.4,0,0.8,0.4,0.8,0.8
				C637.9,50.7,637.5,51.1,637.1,51.1z"/>
		</g>
		<g>
			
				<linearGradient id="SVGID_24_" gradientUnits="userSpaceOnUse" x1="634.6459" y1="-33.4452" x2="637.8973" y2="-33.4452" gradientTransform="matrix(1 0 0 -1 0 23.2)">
				<stop  offset="0" style="stop-color:#EEFBF4"/>
				<stop  offset="1" style="stop-color:#D0D9F2"/>
			</linearGradient>
			<path class="st69" d="M637.1,57.4h-1.7c-0.4,0-0.8-0.4-0.8-0.8s0.4-0.8,0.8-0.8h1.7c0.4,0,0.8,0.4,0.8,0.8S637.5,57.4,637.1,57.4
				z"/>
		</g>
		<g>
			
				<linearGradient id="SVGID_25_" gradientUnits="userSpaceOnUse" x1="634.6459" y1="-39.797" x2="637.8973" y2="-39.797" gradientTransform="matrix(1 0 0 -1 0 23.2)">
				<stop  offset="0" style="stop-color:#EEFBF4"/>
				<stop  offset="1" style="stop-color:#D0D9F2"/>
			</linearGradient>
			<path class="st70" d="M637.1,63.8h-1.7c-0.4,0-0.8-0.4-0.8-0.8c0-0.4,0.4-0.8,0.8-0.8h1.7c0.4,0,0.8,0.4,0.8,0.8
				C637.9,63.4,637.5,63.8,637.1,63.8z"/>
		</g>
		<g>
			
				<linearGradient id="SVGID_26_" gradientUnits="userSpaceOnUse" x1="634.6459" y1="-46.1484" x2="637.8973" y2="-46.1484" gradientTransform="matrix(1 0 0 -1 0 23.2)">
				<stop  offset="0" style="stop-color:#EEFBF4"/>
				<stop  offset="1" style="stop-color:#D0D9F2"/>
			</linearGradient>
			<path class="st71" d="M637.1,70.1h-1.7c-0.4,0-0.8-0.4-0.8-0.8c0-0.4,0.4-0.8,0.8-0.8h1.7c0.4,0,0.8,0.4,0.8,0.8
				C637.9,69.8,637.5,70.1,637.1,70.1z"/>
		</g>
		<g>
			
				<linearGradient id="SVGID_27_" gradientUnits="userSpaceOnUse" x1="643.5944" y1="23.7181" x2="659.351" y2="23.7181" gradientTransform="matrix(1 0 0 -1 0 23.2)">
				<stop  offset="0" style="stop-color:#EEFBF4"/>
				<stop  offset="1" style="stop-color:#D0D9F2"/>
			</linearGradient>
			<path class="st72" d="M658.6,0.3h-14.2c-0.4,0-0.8-0.4-0.8-0.8s0.4-0.8,0.8-0.8h14.2c0.4,0,0.8,0.4,0.8,0.8S659,0.3,658.6,0.3z"
				/>
		</g>
		<g>
			
				<linearGradient id="SVGID_28_" gradientUnits="userSpaceOnUse" x1="660.5096" y1="23.7185" x2="676.2671" y2="23.7185" gradientTransform="matrix(1 0 0 -1 0 23.2)">
				<stop  offset="0" style="stop-color:#5EB4FA"/>
				<stop  offset="1" style="stop-color:#4677F1"/>
			</linearGradient>
			<path class="st73" d="M661.3,0.3c-0.4,0-0.8-0.4-0.8-0.8c0-0.4,0.4-0.8,0.8-0.8l14.2,0c0.4,0,0.8,0.4,0.8,0.8
				c0,0.4-0.4,0.8-0.8,0.8H661.3z"/>
		</g>
		<g>
			
				<linearGradient id="SVGID_29_" gradientUnits="userSpaceOnUse" x1="647.9944" y1="17.3667" x2="668.4272" y2="17.3667" gradientTransform="matrix(1 0 0 -1 0 23.2)">
				<stop  offset="0" style="stop-color:#FDD46F"/>
				<stop  offset="1" style="stop-color:#FDAE4F"/>
			</linearGradient>
			<path class="st74" d="M667.6,6.6h-18.8c-0.4,0-0.8-0.4-0.8-0.8s0.4-0.8,0.8-0.8h18.8c0.4,0,0.8,0.4,0.8,0.8S668.1,6.6,667.6,6.6z
				"/>
		</g>
		<g>
			
				<linearGradient id="SVGID_30_" gradientUnits="userSpaceOnUse" x1="669.8611" y1="17.3667" x2="680.2558" y2="17.3667" gradientTransform="matrix(1 0 0 -1 0 23.2)">
				<stop  offset="0" style="stop-color:#EEFBF4"/>
				<stop  offset="1" style="stop-color:#D0D9F2"/>
			</linearGradient>
			<path class="st75" d="M679.5,6.6h-8.8c-0.4,0-0.8-0.4-0.8-0.8s0.4-0.8,0.8-0.8h8.8c0.4,0,0.8,0.4,0.8,0.8S679.9,6.6,679.5,6.6z"
				/>
		</g>
		<g>
			
				<linearGradient id="SVGID_31_" gradientUnits="userSpaceOnUse" x1="681.1384" y1="17.3667" x2="691.5316" y2="17.3667" gradientTransform="matrix(1 0 0 -1 0 23.2)">
				<stop  offset="0" style="stop-color:#5EB4FA"/>
				<stop  offset="1" style="stop-color:#4677F1"/>
			</linearGradient>
			<path class="st76" d="M690.7,6.6h-8.8c-0.4,0-0.8-0.4-0.8-0.8s0.4-0.8,0.8-0.8h8.8c0.4,0,0.8,0.4,0.8,0.8S691.2,6.6,690.7,6.6z"
				/>
		</g>
		<g>
			
				<linearGradient id="SVGID_32_" gradientUnits="userSpaceOnUse" x1="651.6995" y1="11.0149" x2="663.8895" y2="11.0149" gradientTransform="matrix(1 0 0 -1 0 23.2)">
				<stop  offset="0" style="stop-color:#EEFBF4"/>
				<stop  offset="1" style="stop-color:#D0D9F2"/>
			</linearGradient>
			<path class="st77" d="M663.1,13h-10.6c-0.4,0-0.8-0.4-0.8-0.8s0.4-0.8,0.8-0.8h10.6c0.4,0,0.8,0.4,0.8,0.8S663.5,13,663.1,13z"/>
		</g>
		<g>
			
				<linearGradient id="SVGID_33_" gradientUnits="userSpaceOnUse" x1="651.6995" y1="4.6632" x2="672.6912" y2="4.6632" gradientTransform="matrix(1 0 0 -1 0 23.2)">
				<stop  offset="0" style="stop-color:#EEFBF4"/>
				<stop  offset="1" style="stop-color:#D0D9F2"/>
			</linearGradient>
			<path class="st78" d="M671.9,19.3h-19.4c-0.4,0-0.8-0.4-0.8-0.8c0-0.4,0.4-0.8,0.8-0.8h19.4c0.4,0,0.8,0.4,0.8,0.8
				C672.7,19,672.3,19.3,671.9,19.3z"/>
		</g>
		<g>
			
				<linearGradient id="SVGID_34_" gradientUnits="userSpaceOnUse" x1="673.7122" y1="4.6636" x2="687.8189" y2="4.6636" gradientTransform="matrix(1 0 0 -1 0 23.2)">
				<stop  offset="0" style="stop-color:#FDD46F"/>
				<stop  offset="1" style="stop-color:#FDAE4F"/>
			</linearGradient>
			<path class="st79" d="M687,19.3h-12.5c-0.4,0-0.8-0.4-0.8-0.8c0-0.4,0.4-0.8,0.8-0.8H687c0.4,0,0.8,0.4,0.8,0.8
				C687.8,19,687.5,19.3,687,19.3z"/>
		</g>
		<g>
			
				<linearGradient id="SVGID_35_" gradientUnits="userSpaceOnUse" x1="688.7015" y1="4.6636" x2="710.2352" y2="4.6636" gradientTransform="matrix(1 0 0 -1 0 23.2)">
				<stop  offset="0" style="stop-color:#5EB4FA"/>
				<stop  offset="1" style="stop-color:#4677F1"/>
			</linearGradient>
			<path class="st80" d="M709.4,19.3h-19.9c-0.4,0-0.8-0.4-0.8-0.8c0-0.4,0.4-0.8,0.8-0.8h19.9c0.4,0,0.8,0.4,0.8,0.8
				C710.2,19,709.9,19.3,709.4,19.3z"/>
		</g>
		<g>
			
				<linearGradient id="SVGID_36_" gradientUnits="userSpaceOnUse" x1="657.0714" y1="-1.6878" x2="673.1133" y2="-1.6878" gradientTransform="matrix(1 0 0 -1 0 23.2)">
				<stop  offset="0" style="stop-color:#FDD46F"/>
				<stop  offset="1" style="stop-color:#FDAE4F"/>
			</linearGradient>
			<path class="st81" d="M672.3,25.7h-14.4c-0.4,0-0.8-0.4-0.8-0.8c0-0.4,0.4-0.8,0.8-0.8h14.4c0.4,0,0.8,0.4,0.8,0.8
				C673.1,25.3,672.8,25.7,672.3,25.7z"/>
		</g>
		<g>
			
				<linearGradient id="SVGID_37_" gradientUnits="userSpaceOnUse" x1="673.5653" y1="-1.6878" x2="689.6064" y2="-1.6878" gradientTransform="matrix(1 0 0 -1 0 23.2)">
				<stop  offset="0" style="stop-color:#EEFBF4"/>
				<stop  offset="1" style="stop-color:#D0D9F2"/>
			</linearGradient>
			<path class="st82" d="M688.8,25.7h-14.4c-0.4,0-0.8-0.4-0.8-0.8c0-0.4,0.4-0.8,0.8-0.8h14.4c0.4,0,0.8,0.4,0.8,0.8
				C689.6,25.3,689.3,25.7,688.8,25.7z"/>
		</g>
		<g>
			
				<linearGradient id="SVGID_38_" gradientUnits="userSpaceOnUse" x1="651.6995" y1="-8.0392" x2="661.001" y2="-8.0392" gradientTransform="matrix(1 0 0 -1 0 23.2)">
				<stop  offset="0" style="stop-color:#EEFBF4"/>
				<stop  offset="1" style="stop-color:#D0D9F2"/>
			</linearGradient>
			<path class="st83" d="M660.2,32h-7.7c-0.4,0-0.8-0.4-0.8-0.8c0-0.4,0.4-0.8,0.8-0.8h7.7c0.4,0,0.8,0.4,0.8,0.8
				C661,31.7,660.6,32,660.2,32z"/>
		</g>
		<g>
			
				<linearGradient id="SVGID_39_" gradientUnits="userSpaceOnUse" x1="661.739" y1="-8.0392" x2="671.0413" y2="-8.0392" gradientTransform="matrix(1 0 0 -1 0 23.2)">
				<stop  offset="0" style="stop-color:#EEFBF4"/>
				<stop  offset="1" style="stop-color:#D0D9F2"/>
			</linearGradient>
			<path class="st84" d="M670.2,32h-7.7c-0.4,0-0.8-0.4-0.8-0.8c0-0.4,0.4-0.8,0.8-0.8h7.7c0.4,0,0.8,0.4,0.8,0.8
				C671,31.7,670.7,32,670.2,32z"/>
		</g>
		<g>
			
				<linearGradient id="SVGID_40_" gradientUnits="userSpaceOnUse" x1="671.7778" y1="-8.0392" x2="694.4202" y2="-8.0392" gradientTransform="matrix(1 0 0 -1 0 23.2)">
				<stop  offset="0" style="stop-color:#5EB4FA"/>
				<stop  offset="1" style="stop-color:#4677F1"/>
			</linearGradient>
			<path class="st85" d="M693.6,32h-21.1c-0.4,0-0.8-0.4-0.8-0.8c0-0.4,0.4-0.8,0.8-0.8h21.1c0.4,0,0.8,0.4,0.8,0.8
				C694.4,31.7,694.1,32,693.6,32z"/>
		</g>
		<g>
			
				<linearGradient id="SVGID_41_" gradientUnits="userSpaceOnUse" x1="695.2943" y1="-8.0392" x2="704.5973" y2="-8.0392" gradientTransform="matrix(1 0 0 -1 0 23.2)">
				<stop  offset="0" style="stop-color:#FDD46F"/>
				<stop  offset="1" style="stop-color:#FDAE4F"/>
			</linearGradient>
			<path class="st86" d="M703.8,32h-7.7c-0.4,0-0.8-0.4-0.8-0.8c0-0.4,0.4-0.8,0.8-0.8h7.7c0.4,0,0.8,0.4,0.8,0.8
				C704.6,31.7,704.2,32,703.8,32z"/>
		</g>
		<g>
			
				<linearGradient id="SVGID_42_" gradientUnits="userSpaceOnUse" x1="657.0714" y1="-14.3914" x2="672.2875" y2="-14.3914" gradientTransform="matrix(1 0 0 -1 0 23.2)">
				<stop  offset="0" style="stop-color:#5EB4FA"/>
				<stop  offset="1" style="stop-color:#4677F1"/>
			</linearGradient>
			<path class="st87" d="M671.5,38.4h-13.6c-0.4,0-0.8-0.4-0.8-0.8c0-0.4,0.4-0.8,0.8-0.8h13.6c0.4,0,0.8,0.4,0.8,0.8
				C672.3,38,671.9,38.4,671.5,38.4z"/>
		</g>
		<g>
			
				<linearGradient id="SVGID_43_" gradientUnits="userSpaceOnUse" x1="657.0714" y1="-20.7428" x2="683.0144" y2="-20.7428" gradientTransform="matrix(1 0 0 -1 0 23.2)">
				<stop  offset="0" style="stop-color:#EEFBF4"/>
				<stop  offset="1" style="stop-color:#D0D9F2"/>
			</linearGradient>
			<path class="st88" d="M682.2,44.7h-24.4c-0.4,0-0.8-0.4-0.8-0.8c0-0.4,0.4-0.8,0.8-0.8h24.4c0.4,0,0.8,0.4,0.8,0.8
				C683,44.4,682.7,44.7,682.2,44.7z"/>
		</g>
		<g>
			
				<linearGradient id="SVGID_44_" gradientUnits="userSpaceOnUse" x1="683.6234" y1="-20.7428" x2="698.9678" y2="-20.7428" gradientTransform="matrix(1 0 0 -1 0 23.2)">
				<stop  offset="0" style="stop-color:#FDD46F"/>
				<stop  offset="1" style="stop-color:#FDAE4F"/>
			</linearGradient>
			<path class="st89" d="M698.2,44.7h-13.8c-0.4,0-0.8-0.4-0.8-0.8c0-0.4,0.4-0.8,0.8-0.8h13.8c0.4,0,0.8,0.4,0.8,0.8
				C699,44.4,698.6,44.7,698.2,44.7z"/>
		</g>
		<g>
			
				<linearGradient id="SVGID_45_" gradientUnits="userSpaceOnUse" x1="651.6995" y1="-27.0934" x2="667.1901" y2="-27.0934" gradientTransform="matrix(1 0 0 -1 0 23.2)">
				<stop  offset="0" style="stop-color:#5EB4FA"/>
				<stop  offset="1" style="stop-color:#4677F1"/>
			</linearGradient>
			<path class="st90" d="M666.4,51.1h-13.9c-0.4,0-0.8-0.4-0.8-0.8s0.4-0.8,0.8-0.8h13.9c0.4,0,0.8,0.4,0.8,0.8
				C667.2,50.7,666.8,51.1,666.4,51.1z"/>
		</g>
		<g>
			
				<linearGradient id="SVGID_46_" gradientUnits="userSpaceOnUse" x1="657.0714" y1="-33.4452" x2="667.6122" y2="-33.4452" gradientTransform="matrix(1 0 0 -1 0 23.2)">
				<stop  offset="0" style="stop-color:#FDD46F"/>
				<stop  offset="1" style="stop-color:#FDAE4F"/>
			</linearGradient>
			<path class="st91" d="M666.8,57.4h-8.9c-0.4,0-0.8-0.4-0.8-0.8s0.4-0.8,0.8-0.8h8.9c0.4,0,0.8,0.4,0.8,0.8S667.3,57.4,666.8,57.4
				z"/>
		</g>
		<g>
			
				<linearGradient id="SVGID_47_" gradientUnits="userSpaceOnUse" x1="668.4864" y1="-33.4452" x2="684.9304" y2="-33.4452" gradientTransform="matrix(1 0 0 -1 0 23.2)">
				<stop  offset="0" style="stop-color:#EEFBF4"/>
				<stop  offset="1" style="stop-color:#D0D9F2"/>
			</linearGradient>
			<path class="st92" d="M684.1,57.4h-14.9c-0.4,0-0.8-0.4-0.8-0.8s0.4-0.8,0.8-0.8h14.9c0.4,0,0.8,0.4,0.8,0.8
				S684.6,57.4,684.1,57.4z"/>
		</g>
		<g>
			
				<linearGradient id="SVGID_48_" gradientUnits="userSpaceOnUse" x1="647.9945" y1="-39.797" x2="659.0858" y2="-39.797" gradientTransform="matrix(1 0 0 -1 0 23.2)">
				<stop  offset="0" style="stop-color:#EEFBF4"/>
				<stop  offset="1" style="stop-color:#D0D9F2"/>
			</linearGradient>
			<path class="st93" d="M658.3,63.8h-9.5c-0.4,0-0.8-0.4-0.8-0.8c0-0.4,0.4-0.8,0.8-0.8h9.5c0.4,0,0.8,0.4,0.8,0.8
				C659.1,63.4,658.7,63.8,658.3,63.8z"/>
		</g>
		<g>
			
				<linearGradient id="SVGID_49_" gradientUnits="userSpaceOnUse" x1="660.0783" y1="-39.797" x2="683.6841" y2="-39.797" gradientTransform="matrix(1 0 0 -1 0 23.2)">
				<stop  offset="0" style="stop-color:#5EB4FA"/>
				<stop  offset="1" style="stop-color:#4677F1"/>
			</linearGradient>
			<path class="st94" d="M682.9,63.8h-22c-0.4,0-0.8-0.4-0.8-0.8c0-0.4,0.4-0.8,0.8-0.8h22c0.4,0,0.8,0.4,0.8,0.8
				C683.7,63.4,683.3,63.8,682.9,63.8z"/>
		</g>
		<g>
			
				<linearGradient id="SVGID_50_" gradientUnits="userSpaceOnUse" x1="651.6995" y1="-46.1484" x2="668.5656" y2="-46.1484" gradientTransform="matrix(1 0 0 -1 0 23.2)">
				<stop  offset="0" style="stop-color:#EEFBF4"/>
				<stop  offset="1" style="stop-color:#D0D9F2"/>
			</linearGradient>
			<path class="st95" d="M667.8,70.1h-15.3c-0.4,0-0.8-0.4-0.8-0.8c0-0.4,0.4-0.8,0.8-0.8h15.3c0.4,0,0.8,0.4,0.8,0.8
				C668.6,69.8,668.2,70.1,667.8,70.1z"/>
		</g>
	</g>
</g>
<g>
	<path class="st96" d="M886.6,126.5c3.4-1,7,0.9,8.2,4.3l2.2,7.2l-1,6.2l2.2-2.6l8.5,27.7c1,3.4-0.9,7-4.3,8.2c-3.4,1-7-0.9-8.2-4.3
		l-3.6-11.6l5.3,1.3l-7.2-7.6l-5.4-17.8l3,0.1l-3.7-2.7l0,0C881.2,131.2,883.2,127.5,886.6,126.5z"/>
	<path class="st97" d="M902.1,155.2l2.9,9.5c-2.3,0-4.3-1.4-5-3.6C899.4,158.6,900.3,156.3,902.1,155.2z M885.8,146.3l-2.7-8.9
		l3,0.1l-1.7-1.3c2.4-0.3,4.7,1.3,5.4,3.6c0.9,2.7-0.7,5.6-3.4,6.5C886.2,146.1,886.1,146.1,885.8,146.3z"/>
	<path class="st98" d="M889.2,136.4c0-0.3,0-0.4,0.3-0.6c0.3,0,0.4,0,0.6,0.3l17.2,56.2c0,0.3,0,0.4-0.3,0.6c-0.3,0-0.4,0-0.6-0.3
		L889.2,136.4z"/>
	<path class="st99" d="M909.9,101.8h1.7c4.3,0,7.9,3.6,7.9,7.9v13.5l-4.9,6.5l4.9-1.9v41.4c0,4.3-3.6,7.9-7.9,7.9h-1.7
		c-4.3,0-7.9-3.6-7.9-7.9v-20.9l4.9,2.7l-4.9-8.3V112l2.9,1.9l-2.9-3.7v-0.4C902,105.4,905.4,101.8,909.9,101.8z"/>
	<path class="st96" d="M919.5,157.9v11.5c0,0.7-0.1,1.4-0.3,2.2c-3.2-0.7-5.6-3.4-5.6-6.7C913.6,161.3,916.2,158.5,919.5,157.9z
		 M902,133.9v-11.2c1.3-0.9,2.7-1.4,4.4-1.4c4,0,7.3,3.2,7.3,7c0,3.9-3.3,7-7.3,7C904.7,135.4,903.1,134.8,902,133.9z"/>
	<path class="st98" d="M909.9,113v80.2c0,0.4,0.4,0.9,0.9,0.9c0.4,0,0.9-0.4,0.9-0.9V113c0-0.4-0.4-0.9-0.9-0.9
		C910.2,112.1,909.9,112.6,909.9,113z"/>
	<path class="st100" d="M945.6,121.6c3.4,1,5.6,4.4,4.6,8l-2.2,8.2l-5.7,7.2l4-0.9l-8.2,30.7c-0.9,3.4-4.4,5.6-8,4.6
		c-3.4-1-5.6-4.4-4.6-8l2.9-10.8l2.2,2.6l-0.7-7.9l7.7-28.8C938.6,122.7,942.2,120.6,945.6,121.6z"/>
	<path class="st96" d="M941.3,162.9l-1.9,7.2c-0.9,0.4-1.9,0.4-3,0.1c-2.4-0.7-4-3.2-3.3-5.7c0.7-2.4,3.2-4,5.7-3.3
		C939.9,161.6,940.7,162.2,941.3,162.9z M934.4,138.5l1.6-5.7c0.4-0.1,1,0,1.4,0c1.7,0.4,2.7,2.3,2.3,4c-0.4,1.7-2.3,2.7-4,2.3
		C935.1,139.1,934.7,138.8,934.4,138.5z"/>
	<path class="st98" d="M942.9,130.1c0-0.3,0.3-0.4,0.6-0.3c0.3,0,0.4,0.3,0.3,0.6l-17.2,64.4c0,0.3-0.3,0.4-0.6,0.3
		c-0.3,0-0.4-0.3-0.3-0.6L942.9,130.1z"/>
	<path class="st98" d="M928.7,183.1c0.7-0.9,1.7-1.4,3-1.4c2,0,3.7,1.6,3.7,3.4s-1.7,3.4-3.7,3.4c-1.6,0-3-1-3.4-2.3
		c-0.7,0.9-1.7,1.4-3,1.4c-1.3,0-2.3-0.6-3-1.4c-0.6,1.3-1.9,2.3-3.4,2.3c-1.9,0-3.4-1.3-3.6-3c-0.7,0.7-1.7,1.3-2.9,1.3
		c-1.1,0-2.2-0.4-2.9-1.3c-0.3,1.7-1.9,3-3.6,3c-1.1,0-2.2-0.6-2.9-1.3c-0.6,0.3-1.1,0.4-1.7,0.4c-2,0-3.7-1.6-3.7-3.4
		s1.7-3.4,3.7-3.4c1.1,0,2.2,0.6,2.9,1.3c0.6-0.3,1.1-0.4,1.7-0.4c1.1,0,2.2,0.4,2.9,1.3c0.3-1.7,1.9-3,3.6-3c1.9,0,3.4,1.3,3.6,3
		c0.7-0.7,1.7-1.3,2.9-1.3c1.3,0,2.3,0.6,3,1.4c0.6-1.3,1.9-2.3,3.4-2.3C926.8,180.8,928.1,181.8,928.7,183.1z"/>
	<path class="st98" d="M920.9,186.1c-0.7-33,5.2-62.4,17.5-88.5c0.1-0.3,0-0.4-0.1-0.6c-0.3-0.1-0.4,0-0.6,0.1
		c-12.3,26.2-18.2,55.8-17.5,88.9c0,0.3,0.1,0.4,0.4,0.4C920.6,186.6,920.9,186.4,920.9,186.1z"/>
	<path class="st96" d="M893.1,184.4h46.6l-6.5,39.6h-32.6L893.1,184.4z"/>
	<path class="st97" d="M936.3,205.5l-0.7,4.6h-37.4l-0.9-4.6H936.3z"/>
	<path class="st99" d="M888.8,184.4h55.4l-2.7,8.7h-49.8L888.8,184.4z"/>
	<path class="st96" d="M934.1,104.4c0,0-1.9-2.6-3.9-2.6c-2,0-2.4-1.7-1.9-2.6c1-1.7,2.9-0.9,3.9,0
		C935.4,102.1,934.1,104.4,934.1,104.4z"/>
	<path class="st96" d="M934.8,107.7c0,0,0-2.7,4.2-4.2c1.3-0.4,3.3-0.4,3.3,1.6c0,1-1.3,2.6-2.9,1.7
		C937.9,106,934.8,107.7,934.8,107.7z"/>
	<path class="st96" d="M938.7,99.5c0,0,0.1-2.3,3.3-3.6c1-0.4,2.6-0.4,2.6,1.3c0,0.9-1,2.2-2.3,1.4
		C941.1,98.1,938.7,99.5,938.7,99.5z"/>
	<path class="st96" d="M936,98.2c0,0-1-2.6-2.4-2.9c-1.4-0.3-1.4-1.9-1-2.6c1-1.4,2.3-0.3,2.9,0.6C937.4,96.4,936,98.2,936,98.2z"/>
	<path class="st96" d="M938,95.6c1-4.7,2.4-6.7,4.4-6S942.9,92.5,938,95.6z"/>
</g>
<path class="st96" d="M348.8,189.3c0-50.9,5.9-79.8,17.3-86.4l-0.8-1.5c-12.2,7-18.2,36.2-18.2,87.8L348.8,189.3L348.8,189.3z"/>
<path class="st96" d="M347.1,189.3c-0.6-52.6-4.9-85.9-12.8-100.2l-1.5,0.8c7.8,13.9,12,47.1,12.6,99.3H347.1z"/>
<path class="st96" d="M346.8,179.8c0.3-0.5,0.7-0.9,1-1.3c13.7-16.7,30.7-13.9,31.3-3.5c0.7,10-8.7,3.4-28,13.2l0,0
	c-0.2,0.1-0.3,0.2-0.6,0.3c-0.7,0.3-1.4,0.8-2.1,1.2c-0.5,0.3-0.9,0.5-1.3,0.8l0,0l0,0l0,0l0,0c-0.7-0.4-1.4-0.8-2.2-1.3
	c-21.2-11.6-31.5-4.1-30.8-14.3c0.7-10.2,17.8-13,31.5,3.4C346,178.7,346.4,179.2,346.8,179.8z"/>
<path class="st99" d="M374.9,168.1c2.4,1.4,4,3.9,4.2,6.9c0,0.2,0,0.4,0,0.6c-8.2,1.8-18.9,6-32.2,13c-14.5-8.2-25.5-12.5-33-12.8
	c0-0.3,0-0.6,0-0.8c0.2-2.8,1.7-5.1,3.9-6.5c10.3,1.5,21.9,10.1,29,18.6C353,177,363.6,170.6,374.9,168.1z"/>
<path class="st96" d="M347.6,181.4c-0.2,0.3-0.3,0.4-0.5,0.4c-0.2,0-0.3-0.1-0.5-0.3c-1.4-1.6-2.9-3.1-4.7-4.5
	c-15.2-12.6-24.7-8.5-22.4-16.3c2.3-7.9,16.6-7.2,24.9,8c0.8,1.6,1.8,3.9,2.7,7.1c0.9-3.4,1.8-5.9,2.8-7.5
	c8.3-15.6,22.5-16.3,24.9-8.2c2.3,8.1-7.3,3.9-22.4,16.9C350.5,178.2,348.9,179.7,347.6,181.4z"/>
<path class="st99" d="M319.7,159.8c1.1-2.8,3.8-4.3,7-4.4c8.5,5.2,16.7,16.8,20.3,25.4c5-10.1,13.1-21,22.3-26
	c2.5,0.6,4.4,2.3,5.2,4.7c-11.9,4.1-21,11.5-27.5,22.1C339.2,170,330.1,162.7,319.7,159.8z"/>
<path class="st100" d="M334.8,224c-2.2,0-4.1-1.3-4.8-3.4l-11.3-32.2c-0.1-0.3-0.2-0.6-0.2-0.8c0-1.4,1.2-2.5,2.5-2.5h50.3
	c0.3,0,0.6,0.1,0.8,0.2c1.3,0.5,2,1.9,1.6,3.3l-11.4,32.1c-0.8,2-2.6,3.4-4.8,3.4H334.8z"/>
<path class="st99" d="M319.1,194.4l-2.6-5.7c-0.2-0.3-0.3-0.7-0.3-1c0-1.4,1.2-2.5,2.5-2.5H373c0.3,0,0.6,0.1,0.9,0.2
	c1.3,0.5,2,1.9,1.5,3.3l-2.2,5.9L319.1,194.4L319.1,194.4z"/>
<path class="st99" d="M367.4,105.6c2.8,0,5.1-2.3,5.1-5.1c0-2.8-2.3-5.1-5.1-5.1s-5.1,2.3-5.1,5.1
	C362.3,103.4,364.5,105.6,367.4,105.6z"/>
<path class="st99" d="M332.7,92.9c2.8,0,5.1-2.3,5.1-5.1c0-2.8-2.3-5.1-5.1-5.1c-2.8,0-5.1,2.3-5.1,5.1
	C327.6,90.7,329.8,92.9,332.7,92.9z"/>
<path class="st99" d="M360.9,112.3c-1.3-0.6-2.1-1.6-1.8-2.3s1.6-0.7,2.8-0.1c1.3,0.6,2.1,1.6,1.8,2.3S362.2,112.9,360.9,112.3z"/>
<path class="st99" d="M356.8,119.1c-1.3-0.4-2.2-1.3-2-2c0.3-0.7,1.5-0.8,2.8-0.3c1.3,0.4,2.2,1.3,2,2
	C359.4,119.4,358.2,119.6,356.8,119.1z"/>
<path class="st99" d="M358.4,106.4c-1.3-0.5-2.2-1.4-1.9-2.1c0.3-0.7,1.5-0.8,2.8-0.3c1.3,0.5,2.2,1.4,1.9,2.1
	C361,106.7,359.7,106.9,358.4,106.4z"/>
<path class="st99" d="M355.1,112.4c-1.3-0.5-2.2-1.5-1.8-2.1c0.3-0.7,1.5-0.8,2.8-0.3c1.3,0.5,2.2,1.5,1.8,2.1
	C357.6,112.8,356.3,112.9,355.1,112.4z"/>
<path class="st99" d="M339.8,97.1c-1.3,0.4-2.6,0.2-2.8-0.5c-0.2-0.7,0.8-1.5,2.1-1.9s2.6-0.2,2.8,0.5
	C342.1,95.8,341.2,96.8,339.8,97.1z"/>
<path class="st99" d="M335.5,102.2c-1.3,0.4-2.6,0.2-2.8-0.5c-0.2-0.7,0.8-1.5,2.1-1.9c1.3-0.4,2.6-0.2,2.8,0.5
	C337.9,101,336.9,101.8,335.5,102.2z"/>
<path class="st99" d="M334.7,96c-0.9,0.3-1.8,0.1-1.8-0.3c-0.2-0.4,0.5-1,1.4-1.3c0.9-0.3,1.8-0.1,1.8,0.3
	C336.2,95.3,335.6,95.8,334.7,96z"/>
<path class="st99" d="M341.5,104.7c-1.3,0.4-2.6,0.2-2.8-0.5c-0.2-0.7,0.8-1.5,2.1-1.9c1.3-0.4,2.6-0.2,2.8,0.5
	C343.7,103.5,342.8,104.4,341.5,104.7z"/>
<path class="st99" d="M338.1,109.8c-1.3,0.4-2.6,0.2-2.8-0.5c-0.2-0.7,0.8-1.5,2.1-1.9c1.3-0.4,2.6-0.2,2.8,0.5
	C340.4,108.6,339.5,109.4,338.1,109.8z"/>
</svg>
