<?xml version="1.0" encoding="utf-8"?>
<!-- Generator: Adobe Illustrator 19.0.0, SVG Export Plug-In . SVG Version: 6.00 Build 0)  -->
<svg version="1.1" id="Layer_1" xmlns="http://www.w3.org/2000/svg" xmlns:xlink="http://www.w3.org/1999/xlink" x="0px" y="0px"
	 width="647.5px" height="425.4px" viewBox="313 -201.4 647.5 425.4" style="enable-background:new 313 -201.4 647.5 425.4;"
	 xml:space="preserve">
<style type="text/css">
	.st0{fill:#E0E0E0;}
	.st1{fill:#F5F5F5;}
	.st2{fill:#455A64;}
	.st3{fill:#263238;}
	.st4{fill:#FFFFFF;}
	.st5{fill:#FF725E;}
	.st6{opacity:0.2;}
	.st7{fill:#FFBE9D;}
	.st8{fill:#EB996E;}
	.st9{opacity:0.6;}
	.st10{fill:#FAFAFA;}
</style>
<g id="freepik--background-complete--inject-41">
	<path class="st0" d="M916.3-38.9c1.9-1.2,4-2.1,6.2-2.7l1.3-6.2l10.4-0.2l1.5,6.1c2.2,0.5,4.3,1.4,6.3,2.5l5.3-3.4l7.5,7.2
		l-3.2,5.4c1.2,1.9,2.1,4,2.7,6.2l6.2,1.3l0.2,10.4l-6.1,1.5c-0.5,2.2-1.4,4.3-2.5,6.3l3.4,5.3l-7.2,7.5L942.8,5
		c-1.9,1.2-4,2.1-6.2,2.7l-1.3,6.2l-10.4,0.2l-1.5-6.1c-2.2-0.5-4.3-1.4-6.3-2.5l-5.3,3.5l-7.5-7.2l3.3-5.4c-1.2-1.9-2.1-4-2.7-6.2
		l-6.2-1.3l-0.2-10.4l6.1-1.5c0.5-2.2,1.4-4.3,2.5-6.3l-3.4-5.3l7.2-7.5L916.3-38.9L916.3-38.9z M921.8-25
		c-4.3,4.4-4.2,11.5,0.2,15.8c4.4,4.3,11.5,4.2,15.8-0.2c4.3-4.4,4.2-11.5-0.2-15.8c0,0,0,0,0,0C933.2-29.5,926.1-29.5,921.8-25
		C921.8-25,921.8-25,921.8-25L921.8-25z"/>
	<path class="st0" d="M921.8-25c0.6-0.7,1.3-1.4,2.1-1.9c3.7-2.4,8.5-2.4,12.2,0c1.7,1.1,3.1,2.7,4,4.5c0.5,1,0.8,2,1,3.1
		c0.2,1.1,0.2,2.3,0.1,3.4c-0.7,5-4.5,8.9-9.4,9.8c-1.1,0.2-2.3,0.2-3.4,0.1c-1.1-0.1-2.2-0.5-3.2-0.9c-1.9-0.8-3.5-2.2-4.6-3.8
		c-1-1.5-1.7-3.1-1.9-4.9c-0.4-2.5,0.1-5.1,1.5-7.3C920.6-23.8,921.1-24.5,921.8-25c-0.5,0.7-1.1,1.5-1.5,2.3
		c-1.2,2.2-1.6,4.7-1.2,7.1c0.3,1.7,0.9,3.3,1.9,4.6c1.1,1.6,2.7,2.8,4.5,3.6c2,0.9,4.1,1.1,6.3,0.8c4.7-0.8,8.3-4.5,8.9-9.3
		c0.2-1.1,0.2-2.2,0-3.2c-0.2-1-0.5-2-0.9-3c-1.6-3.3-4.8-5.6-8.5-6.1c-2.5-0.3-5,0.2-7.1,1.5C923.3-26.2,922.5-25.6,921.8-25z"/>
	<path class="st0" d="M916.3-38.9l-0.4-0.2l-1-0.6l-4.1-2.4h0.1l-7.2,7.5v-0.2c1.1,1.6,2.2,3.3,3.5,5.2l0.1,0.1l-0.1,0.1
		c-1.1,2-1.9,4.1-2.4,6.3v0.1h-0.1l-6.1,1.5l0.2-0.2c0.1,3.3,0.1,6.7,0.2,10.4l-0.2-0.2l6.2,1.3h0.2l0,0.2c0.6,2.2,1.5,4.2,2.7,6.1
		l0.1,0.1l-0.1,0.1l-3.2,5.4l0-0.4l7.5,7.2h-0.4l5.3-3.5l0.2-0.1l0.2,0.1c2,1.1,4.1,1.9,6.2,2.4l0.2,0l0,0.2c0.5,1.9,1,4,1.5,6.1
		l-0.3-0.2l10.4-0.2l-0.3,0.3c0.4-2,0.8-4,1.3-6.2V7.4l0.2-0.1c2.2-0.6,4.2-1.5,6.1-2.7l0,0l0.2-0.1l0.2,0.1l5.4,3.3L947.9,8
		l7.2-7.5v0.4l-3.4-5.3l-0.1-0.2l0.1-0.2c1.1-2,1.9-4.1,2.5-6.2v-0.2h0.2l6.1-1.5l-0.2,0.3c-0.1-3.5-0.1-7-0.2-10.4l0.2,0.3
		l-6.1-1.3h-0.2v-0.2c-0.6-2.2-1.5-4.2-2.7-6.2l-0.2-0.2l0.1-0.1l3.3-5.4v0.3l-7.5-7.2h0.3c-1.9,1.2-3.6,2.3-5.3,3.4l-0.1,0.1
		l-0.1-0.1c-2-1.1-4.1-1.9-6.2-2.5h-0.1v-0.1l-1.5-6.1l0.2,0.1l-10.4,0.1l0.1-0.1c-0.5,2.5-0.9,4.5-1.3,6.1v0.1h-0.1
		c-1.6,0.5-3.2,1.1-4.8,1.9l-1.1,0.6L916.3-38.9c0.1,0,0.2-0.1,0.3-0.2c0.2-0.1,0.6-0.4,1.1-0.6c1.5-0.8,3.1-1.5,4.7-1.9l-0.1,0.1
		c0.3-1.7,0.7-3.7,1.2-6.2v-0.1h0.1l10.4-0.2h0.2v0.1c0.5,1.9,0.9,3.9,1.5,6.1l-0.1-0.1c2.2,0.5,4.4,1.4,6.4,2.5h-0.2l5.2-3.5
		l0.2-0.1l0.1,0.1l7.5,7.2l0.2,0.1l-0.1,0.2l-3.2,5.4v-0.3c1.2,2,2.1,4.1,2.8,6.3l-0.2-0.2l6.2,1.3h0.2v0.2
		c0.1,3.4,0.1,6.8,0.2,10.4v0.2l-0.2,0.1l-6.1,1.5l0.2-0.2c-0.5,2.2-1.4,4.4-2.5,6.4v-0.3l3.4,5.2l0.1,0.2L955.6,1
		c-2.4,2.5-4.8,5-7.2,7.5l-0.2,0.2L948,8.6l-5.4-3.3h0.3c-2,1.2-4.1,2.1-6.3,2.7l0.2-0.2c-0.4,2.1-0.9,4.2-1.3,6.2l-0.1,0.2h-0.2
		l-10.4,0.2h-0.2l-0.1-0.2c-0.5-2.1-1-4.2-1.5-6.1l0.2,0.2c-2.2-0.5-4.4-1.4-6.4-2.5h0.3L912,9.1l-0.2,0.1l-0.2-0.2l-7.5-7.2
		L904,1.7l0.1-0.2l3.3-5.4v0.3c-1.2-2-2.1-4.1-2.7-6.3l0.2,0.2l-6.2-1.3h-0.2v-0.2c-0.1-3.7-0.1-7.1-0.2-10.4v-0.3h0.2l6.1-1.5
		l-0.1,0.1c0.6-2.2,1.4-4.4,2.5-6.3v0.2l-3.4-5.3l-0.1-0.1l0.1-0.1l7.3-7.4l0.1-0.1h0.1c1.7,1.1,3,1.9,4,2.5l1,0.6
		C916.1-39,916.2-39,916.3-38.9z"/>
	<path class="st0" d="M867.9-134.8c0.8-0.5,1.6-0.8,2.5-1.1l0.5-2.5l4.2-0.1l0.6,2.5c0.9,0.2,1.7,0.6,2.5,1l2.1-1.4l3,2.9l-1.3,2.2
		c0.5,0.8,0.8,1.6,1.1,2.5l2.5,0.5l0.1,4.2l-2.5,0.6c-0.2,0.9-0.6,1.7-1,2.5l1.4,2.1l-2.9,3l-2.2-1.3c-0.8,0.5-1.6,0.8-2.5,1.1
		l-0.5,2.5l-4.2,0.1l-0.6-2.5c-0.9-0.2-1.7-0.6-2.5-1l-2.1,1.4l-3-2.9l1.3-2.2c-0.5-0.8-0.8-1.6-1.1-2.5l-2.5-0.5l-0.1-4.2l2.5-0.6
		c0.2-0.9,0.6-1.7,1-2.5l-1.4-2.1l2.9-3L867.9-134.8L867.9-134.8z M870.1-129.2c-1.7,1.8-1.7,4.6,0.1,6.4c1.8,1.7,4.6,1.7,6.4-0.1
		c1.7-1.8,1.7-4.6-0.1-6.4c0,0,0,0,0,0C874.7-131,871.9-131,870.1-129.2L870.1-129.2z"/>
	<path class="st0" d="M870.1-129.2c0.2-0.3,0.5-0.5,0.8-0.7c0.9-0.6,1.9-0.8,2.9-0.7c0.7,0.1,1.4,0.3,2,0.7c0.7,0.5,1.2,1.1,1.6,1.9
		c0.2,0.4,0.3,0.8,0.4,1.3c0.1,0.5,0.1,0.9,0,1.4c-0.3,2-1.8,3.6-3.8,3.9c-0.5,0.1-0.9,0.1-1.4,0c-0.4-0.1-0.9-0.2-1.3-0.4
		c-1.4-0.6-2.4-2-2.6-3.5c-0.1-1,0.1-2.1,0.6-3C869.6-128.6,869.8-128.9,870.1-129.2c0,0-0.3,0.3-0.6,0.9c-0.5,0.9-0.7,1.9-0.5,2.9
		c0.1,0.7,0.4,1.3,0.8,1.9c0.5,0.6,1.1,1.1,1.8,1.5c0.4,0.2,0.8,0.3,1.2,0.3c0.4,0.1,0.9,0.1,1.3,0c1.9-0.3,3.3-1.8,3.6-3.7
		c0.1-0.4,0.1-0.9,0-1.3c-0.1-0.4-0.2-0.8-0.4-1.2c-0.3-0.7-0.9-1.3-1.5-1.7c-0.6-0.4-1.2-0.6-1.9-0.7c-1-0.1-2,0.1-2.9,0.6
		C870.4-129.5,870.2-129.1,870.1-129.2z"/>
	<path class="st0" d="M867.9-134.8c0,0,0,0-0.1-0.1l-0.4-0.2l-1.6-0.9l0,0l-2.9,3v-0.1c0.4,0.6,0.9,1.4,1.4,2.1v0l0,0
		c-0.4,0.8-0.8,1.6-1,2.5l0,0h0l-2.5,0.6l0.1-0.1c0,1.3,0,2.7,0.1,4.2l-0.1-0.1l2.5,0.5h0.1v0.1c0.3,0.9,0.6,1.7,1.1,2.5v0.1v0.1
		c-0.4,0.7-0.9,1.4-1.3,2.2v-0.1l3,2.9H866l2.1-1.4h0.1h0.1c0.8,0.4,1.6,0.8,2.5,1h0.1v0.1l0.6,2.5l-0.1-0.1l4.2-0.1l-0.1,0.1
		c0.2-0.8,0.3-1.6,0.5-2.5v-0.1h0.1c0.9-0.2,1.7-0.6,2.5-1.1l0,0h0.1h0.1l2.2,1.3h-0.2l2.9-3v0.2c-0.5-0.7-0.9-1.4-1.4-2.1v-0.1
		v-0.1c0.4-0.8,0.8-1.6,1-2.5v-0.1h0.1l2.5-0.6l-0.1,0.1c0-1.4,0-2.8-0.1-4.2l0.1,0.1l-2.5-0.5H883v-0.1c-0.3-0.9-0.6-1.7-1.1-2.5
		v-0.1v-0.1l1.3-2.2v0.1l-3-2.9h0.1l-2.1,1.4h0l0,0c-0.8-0.4-1.6-0.8-2.5-1h-0.1l0,0c-0.2-0.9-0.4-1.7-0.6-2.5l0.1,0.1l-4.2,0.1
		l0.1,0c-0.2,1-0.4,1.9-0.5,2.5l0,0l0,0c-0.7,0.2-1.3,0.4-1.9,0.7l-0.5,0.2C868-134.8,867.9-134.7,867.9-134.8l0.2-0.1
		c0.1-0.1,0.2-0.1,0.4-0.2c0.6-0.3,1.2-0.6,1.9-0.8l0,0c0.1-0.7,0.3-1.5,0.5-2.5l0,0h0l4.2-0.1h0.1v0.1c0.2,0.8,0.4,1.6,0.6,2.5
		l-0.1-0.1c0.9,0.2,1.8,0.6,2.6,1h-0.1c0.7-0.4,1.4-0.9,2.1-1.4h0.1l0.1,0.1l3,2.9l0.1,0.1v0.1l-1.3,2.2v-0.1
		c0.5,0.8,0.9,1.6,1.1,2.5l-0.1-0.1l2.5,0.5h0.1v0.1c0,1.4,0.1,2.8,0.1,4.2v0.1h-0.1l-2.5,0.6l0.1-0.1c-0.2,0.9-0.6,1.8-1,2.6v-0.1
		l1.4,2.1l0.1,0.1l-0.1,0.1l-2.9,3l-0.1,0.1h-0.1l-2.2-1.3h0.1c-0.8,0.5-1.6,0.8-2.5,1.1l0.1-0.1c-0.2,0.9-0.4,1.7-0.5,2.5v0.1h-0.1
		l-4.2,0.1h-0.1v-0.1c-0.2-0.9-0.4-1.7-0.6-2.5l0.1,0.1c-0.9-0.2-1.8-0.6-2.6-1h0.1l-2.1,1.4l-0.1,0.1l-0.1-0.1l-3-2.9l-0.1-0.1
		v-0.1c0.5-0.8,0.9-1.5,1.3-2.2v0.1c-0.5-0.8-0.8-1.6-1.1-2.5l0.1,0.1l-2.5-0.5h-0.1v-0.1c0-1.5,0-2.9-0.1-4.2v-0.1h0.1l2.5-0.6
		l-0.1,0.1c0.2-0.9,0.5-1.8,0.9-2.6v0.1l-1.4-2.1v0l0,0l2.9-3l0,0l0,0l1.6,1l0.4,0.3L867.9-134.8z"/>
	<path class="st1" d="M835.3-97.5c1.3-0.8,2.6-1.3,4-1.7l0.8-4l6.7-0.1l0.9,3.9c1.4,0.3,2.8,0.9,4.1,1.6l3.4-2.2l4.8,4.6l-2.1,3.5
		c0.8,1.3,1.3,2.6,1.7,4l4,0.8l0.1,6.7l-3.9,0.9c-0.3,1.4-0.9,2.8-1.6,4.1l2.2,3.4l-4.6,4.8l-3.5-2.1c-1.3,0.8-2.6,1.3-4,1.7l-0.8,4
		l-6.7,0.1l-0.9-3.9c-1.4-0.3-2.8-0.9-4.1-1.6l-3.4,2.2l-4.8-4.6l2.1-3.5c-0.8-1.3-1.3-2.6-1.7-4l-4-0.8l-0.1-6.7l3.9-0.9
		c0.3-1.4,0.9-2.8,1.6-4.1l-2.2-3.4l4.6-4.8L835.3-97.5L835.3-97.5z M838.9-88.6c-2.8,2.9-2.7,7.4,0.2,10.2
		c2.9,2.8,7.4,2.7,10.2-0.2c2.8-2.9,2.7-7.4-0.2-10.2C846.2-91.5,841.7-91.5,838.9-88.6C838.9-88.6,838.9-88.6,838.9-88.6z"/>
	<path class="st1" d="M838.9-88.6c0.4-0.5,0.8-0.9,1.3-1.2c1.4-0.9,3-1.3,4.7-1.1c1.1,0.1,2.2,0.5,3.2,1.1c1.1,0.7,2,1.7,2.6,2.9
		c0.3,0.6,0.5,1.3,0.7,2c0.1,0.7,0.1,1.5,0,2.2c-0.2,1.6-0.9,3-2,4.1c-1.1,1.1-2.5,1.9-4.1,2.1c-0.7,0.1-1.5,0.1-2.2,0
		c-0.7-0.1-1.4-0.3-2-0.6c-2.3-1-3.9-3.1-4.2-5.6c-0.2-1.6,0.1-3.3,0.9-4.7C838-87.8,838.4-88.2,838.9-88.6c-0.1,0-0.5,0.4-1,1.4
		c-0.8,1.4-1.1,3-0.8,4.6c0.2,1.1,0.6,2.1,1.2,3c0.7,1,1.7,1.8,2.9,2.3c0.6,0.3,1.3,0.5,1.9,0.5c0.7,0.1,1.4,0.1,2.1,0
		c3-0.5,5.3-2.9,5.7-5.9c0.2-1.4,0-2.8-0.6-4c-1-2.2-3.1-3.6-5.5-3.9c-1.6-0.2-3.2,0.1-4.6,0.9C839.8-89.3,839.3-89,838.9-88.6z"/>
	<path class="st1" d="M835.3-97.5c-0.1,0-0.2-0.1-0.2-0.1l-0.7-0.4l-2.6-1.5h0.1l-4.6,4.8v-0.2l2.2,3.4v0.1v0.1
		c-0.7,1.3-1.2,2.6-1.6,4v0.1h-0.1l-3.9,1l0.1-0.1c0,2.1,0.1,4.3,0.1,6.7l-0.1-0.2l4,0.8h0.1v0.1c0.4,1.4,1,2.7,1.7,4l0.1,0.1
		l-0.1,0.1l-2.1,3.5v-0.2l4.8,4.6h-0.2l3.4-2.2l0.1-0.1l0.1,0.1c1.3,0.7,2.6,1.2,4,1.6h0.1v0.1c0.3,1.2,0.6,2.6,0.9,3.9l-0.2-0.1
		l6.7-0.1l-0.2,0.2c0.3-1.2,0.5-2.6,0.8-4v-0.1h0.1c1.4-0.4,2.7-1,4-1.7l0,0l0.1-0.1l0.1,0.1l3.5,2.1h-0.2l4.6-4.8v0.3
		c-0.7-1.1-1.5-2.3-2.2-3.4l-0.1-0.1l0.1-0.1c0.7-1.3,1.2-2.6,1.6-4v-0.1h0.1l3.9-0.9l-0.1,0.2c0-2.3-0.1-4.5-0.1-6.7l0.1,0.2
		l-4-0.8h-0.1v-0.1c-0.4-1.4-1-2.7-1.7-4l-0.1-0.1l0.1-0.1l2.1-3.5v0.2c-1.7-1.6-3.3-3.2-4.8-4.6h0.2l-3.3,2.2l-0.1,0h-0.1
		c-1.3-0.7-2.6-1.2-4-1.6h-0.1v-0.1c-0.4-1.4-0.7-2.7-0.9-3.9l0.1,0.1l-6.7,0.1l0.1-0.1c-0.3,1.6-0.6,2.9-0.9,4l0,0l0,0
		c-1.1,0.3-2.1,0.7-3.1,1.2l-0.7,0.4C835.6-97.6,835.5-97.5,835.3-97.5l0.3-0.1c0.2-0.1,0.4-0.2,0.7-0.4c1-0.5,2-0.9,3.1-1.2v0.1
		l0.7-4v-0.1h0.1l6.7-0.1h0.1v0.1c0.3,1.2,0.6,2.5,1,3.9l-0.1-0.1c1.4,0.3,2.8,0.9,4.1,1.6h-0.1l3.4-2.2l0.1-0.1l0.1,0.1
		c1.5,1.5,3.1,3,4.8,4.6l0.1,0.1l-0.1,0.1c-0.7,1.1-1.4,2.3-2.1,3.5V-92c0.8,1.3,1.4,2.6,1.8,4.1l-0.1-0.1l4,0.8h0.1v0.1
		c0,2.2,0.1,4.4,0.1,6.7v0.2h-0.2l-3.9,1l0.1-0.1c-0.4,1.4-0.9,2.8-1.6,4.1v-0.2c0.7,1.1,1.5,2.2,2.2,3.4l0.1,0.1l-0.1,0.1L856-67
		l-0.1,0.1l-0.1-0.1l-3.5-2.1h0.2c-1.3,0.8-2.6,1.4-4.1,1.8l0.1-0.2c-0.3,1.4-0.6,2.7-0.8,4v0.2h-0.2l-6.7,0.1h-0.2v-0.1
		c-0.3-1.4-0.7-2.7-0.9-3.9l0.1,0.1c-1.4-0.4-2.8-0.9-4.1-1.6h0.2l-3.4,2.2l-0.1,0.1l-0.1-0.1l-4.8-4.6l-0.1-0.1l0.1-0.1l2.1-3.5
		v0.2c-0.8-1.3-1.4-2.6-1.8-4.1l0.1,0.1l-4-0.8H824v-0.1c0-2.4-0.1-4.6-0.1-6.7v-0.1h0.1l3.9-0.9l-0.1,0.1c0.4-1.4,0.9-2.8,1.6-4.1
		v0.1c-0.8-1.2-1.5-2.4-2.2-3.4v-0.1l-0.1-0.2l4.7-4.8l0,0l0,0l2.5,1.6l0.7,0.4L835.3-97.5z"/>
	<path class="st0" d="M810.3,177.9L810.3,177.9l-3.1-12.5c-4.5-1.1-8.8-2.8-12.9-5.1l-10.7,7l0,0l-15.3-14.8l0,0l6.6-11
		c-2.4-4-4.3-8.2-5.6-12.7l-12.6-2.6l0,0l-0.4-21.3l0,0l12.5-3.1c1.1-4.5,2.8-8.8,5.1-12.9l-7-10.7l0,0l14.8-15.3l0,0l11,6.7
		c4-2.4,8.2-4.2,12.7-5.5l2.6-12.6l0,0l21.3-0.4l0,0l3.1,12.5c4.5,1.1,8.8,2.8,12.9,5.1l10.7-7l0,0l15.3,14.8l0,0l-6.6,11
		c2.4,4,4.3,8.2,5.6,12.7l12.6,2.6l0,0l0.4,21.3l0,0l-12.5,3c-1.1,4.5-2.8,8.8-5.1,12.9l7,10.7l0,0l-14.8,15.3l0,0l-11-6.6
		c-4,2.4-8.2,4.2-12.7,5.5l-2.6,12.6l0,0L810.3,177.9z M794.3,160.3L794.3,160.3c4,2.3,8.4,4,12.9,5.1l0,0l0,0l3.1,12.4l21.2-0.4
		l2.6-12.6l0,0c4.5-1.3,8.7-3.1,12.7-5.6l0,0l11,6.7l14.7-15.3l-7-10.7l0,0c2.3-4,4-8.4,5.1-12.9l0,0l0,0l12.5-3.1l-0.4-21.2
		l-12.6-2.6l0,0c-1.3-4.5-3.1-8.7-5.6-12.7l0,0l6.6-11l-15.2-14.7l-10.7,7l0,0c-4-2.3-8.4-4-12.9-5.1l0,0l0,0l-3.1-12.4l-21.2,0.4
		l-2.6,12.6l0,0c-4.5,1.3-8.7,3.1-12.7,5.6l0,0l-11-6.7l-14.7,15.3l7,10.7l0,0c-2.3,4-4,8.4-5.1,12.9l0,0l0,0l-12.4,3.1l0.4,21.2
		l12.6,2.6l0,0c1.3,4.5,3.1,8.7,5.6,12.7l0,0l-6.6,11l15.2,14.8L794.3,160.3z M820.4,136.7c-12.6,0-22.8-10.2-22.8-22.8
		c0-5.9,2.3-11.6,6.4-15.9l0,0c2.1-2.2,4.6-4,7.5-5.1c2.7-1.2,5.6-1.8,8.5-1.9h0.4c12.6,0,22.8,10.2,22.8,22.8
		c0,2.8-0.5,5.6-1.5,8.2c-2.2,5.7-6.7,10.3-12.3,12.8c-2.7,1.2-5.6,1.8-8.5,1.9L820.4,136.7z M820.4,91.2H820
		c-6,0.1-11.8,2.6-16,6.9c-4.2,4.3-6.5,10.2-6.4,16.2c0.1,2.9,0.7,5.8,1.9,8.5c3.6,8.4,11.8,13.8,20.9,13.8h0.4
		c12.6-0.3,22.5-10.8,22.1-23.4C842.7,101.1,832.7,91.3,820.4,91.2L820.4,91.2z"/>
	<path class="st0" d="M804.1,98.1c1.2-1.5,2.6-2.7,4.2-3.7c4.4-2.9,9.7-4.1,14.9-3.5c3.6,0.4,7.1,1.6,10.1,3.6
		c3.5,2.3,6.3,5.5,8.2,9.2c2,4.2,2.8,8.8,2.2,13.4c-1.3,10.1-9.1,18.2-19.2,19.9c-2.3,0.4-4.7,0.5-7,0.1c-2.2-0.3-4.4-0.9-6.5-1.9
		c-3.8-1.7-7.1-4.4-9.5-7.8c-5.2-7.4-5.6-17.2-0.9-25C801.5,100.8,802.7,99.3,804.1,98.1c0.1,0.1-1.4,1.5-3.1,4.6
		c-2.5,4.4-3.3,9.6-2.5,14.6c1.2,7.5,6.1,13.8,13,16.8c1.9,0.9,4,1.5,6.1,1.7c2.2,0.3,4.4,0.3,6.6-0.1c9.5-1.6,16.9-9.2,18.2-18.8
		c0.6-4.3-0.1-8.8-2-12.7c-3.3-6.8-9.8-11.5-17.3-12.4c-5-0.6-10.1,0.4-14.5,3C805.5,96.6,804.2,98.2,804.1,98.1z"/>
	<path class="st0" d="M792.7,69.8c-0.2-0.1-0.5-0.2-0.7-0.4l-2.1-1.2l-8.3-4.9h0.3l-14.7,15.4v-0.4l7.1,10.7l0.1,0.2l-0.1,0.2
		c-2.2,4-3.9,8.4-5,12.9l-0.1,0.2l-0.2,0.1l-12.5,3.1l0.4-0.5c0.1,6.7,0.3,13.8,0.4,21.2l-0.4-0.5l12.6,2.6l0.3,0.1l0.1,0.3
		c1.3,4.4,3.1,8.6,5.5,12.5l0.2,0.3l-0.2,0.3l-6.6,10.9l-0.1-0.7L784,167l-0.7-0.1l10.7-7.1l0.3-0.2l0.3,0.2c4,2.2,8.3,3.9,12.7,5
		l0.4,0.1l0.1,0.4c0.9,3.9,2,8.2,3.1,12.5l-0.6-0.5l21.3-0.4l-0.6,0.5c0.8-4,1.7-8.3,2.6-12.6l0.1-0.4l0.4-0.1
		c4.4-1.3,8.6-3.1,12.5-5.5l0,0l0.3-0.2l0.3,0.2l11,6.7l-0.8,0.1l14.8-15.3l-0.1,0.8l-7-10.7l-0.2-0.3l0.2-0.3c2.2-4,3.9-8.3,5-12.7
		l0.1-0.4l0.4-0.1l12.4-3.1l-0.5,0.6c-0.1-7.2-0.2-14.3-0.4-21.2l0.5,0.6l-12.6-2.6l-0.4-0.1l-0.1-0.3c-1.2-4.4-3.1-8.6-5.4-12.5
		l-0.2-0.3l0.2-0.3l6.7-11l0.1,0.7l-15.2-14.8l0.6,0.1l-10.8,7l-0.2,0.1l-0.2-0.1c-4-2.2-8.3-3.9-12.8-5l-0.3-0.1l-0.1-0.2
		c-1.1-4.5-2.1-8.6-3-12.5l0.4,0.3L808,52l0.3-0.2c-1.1,5-2,9.1-2.7,12.5v0.1h-0.1c-3.3,0.9-6.6,2.2-9.7,3.7l-2.3,1.2
		C793.2,69.5,793,69.7,792.7,69.8c0.2-0.2,0.4-0.4,0.7-0.5c0.5-0.3,1.2-0.7,2.2-1.3c3.1-1.7,6.3-3,9.7-4l-0.1,0.2
		c0.7-3.4,1.5-7.6,2.5-12.6v-0.2h0.2l21.3-0.5h0.3l0.1,0.3c0.9,3.9,2,7.9,3.1,12.5l-0.3-0.3c4.5,1.1,8.9,2.8,13,5.1H845l10.7-7.1
		l0.3-0.2l0.3,0.3l15.3,14.7l0.3,0.3l-0.2,0.4l-6.7,11v-0.6c2.4,4,4.3,8.3,5.6,12.8l-0.4-0.4l12.6,2.6l0.5,0.1v0.5
		c0.1,6.9,0.3,14,0.4,21.2v0.5l-0.5,0.1l-12.5,3.1l0.5-0.5c-1.1,4.6-2.8,8.9-5.1,13v-0.7l7,10.7l0.3,0.4l-0.4,0.4l-14.7,15.3
		l-0.4,0.4l-0.5-0.3l-10.8-6.7h0.7c-4,2.4-8.3,4.3-12.8,5.6l0.5-0.5c-0.9,4.3-1.8,8.6-2.6,12.6l-0.1,0.5h-0.5l-21.2,0.4h-0.5
		l-0.1-0.5c-1.1-4.3-2.1-8.6-3-12.5l0.5,0.5c-4.6-1.1-8.9-2.9-13-5.1h0.6l-10.8,7.1l-0.4,0.3l-0.4-0.3l-15.3-14.7l-0.3-0.3l0.2-0.4
		l6.7-11v0.6c-2.4-4-4.3-8.3-5.6-12.8l0.4,0.4l-12.5-2.7l-0.4-0.1v-0.4c-0.1-7.5-0.2-14.6-0.3-21.3v-0.4l0.4-0.1l12.5-3l-0.3,0.3
		c1.1-4.5,2.9-8.9,5.1-13v0.4l-7-10.8l-0.1-0.2l0.2-0.2c6-6.2,11-11.3,14.8-15.2l0.1-0.1l0.1,0.1l8.1,5l2.1,1.3
		C792.3,69.4,792.5,69.6,792.7,69.8z"/>
	<path class="st0" d="M446.3-149.2c2.1-1.3,4.3-2.2,6.7-2.9l1.4-6.7l11.2-0.2l1.6,6.6c2.4,0.6,4.7,1.5,6.8,2.7l5.7-3.7l8.1,7.8
		l-3.5,5.8c1.3,2.1,2.2,4.3,2.9,6.7l6.6,1.4l0.2,11.2l-6.6,1.6c-0.6,2.4-1.5,4.7-2.7,6.8l3.7,5.7l-7.8,8.1l-5.8-3.5
		c-2.1,1.3-4.3,2.2-6.7,2.9l-1.4,6.6l-11.2,0.2l-1.6-6.6c-2.4-0.6-4.7-1.5-6.8-2.7l-5.7,3.7l-8.1-7.8l3.5-5.8
		c-1.3-2.1-2.2-4.3-2.9-6.7l-6.7-1.4l-0.2-11.2l6.6-1.6c0.6-2.4,1.5-4.7,2.7-6.8l-3.7-5.7l7.8-8.1L446.3-149.2L446.3-149.2z
		 M452.3-134.3c-4.6,4.8-4.5,12.4,0.3,17c4.8,4.6,12.4,4.5,17-0.3c4.6-4.8,4.5-12.4-0.3-17c0,0,0,0,0,0
		C464.5-139.2,456.9-139,452.3-134.3z"/>
	<path class="st0" d="M452.3-134.3c0.6-0.8,1.4-1.4,2.2-2c2.3-1.5,5.1-2.2,7.8-1.9c1.9,0.2,3.7,0.8,5.3,1.9c1.8,1.2,3.3,2.9,4.3,4.9
		c1.1,2.2,1.5,4.7,1.2,7.1c-0.7,5.4-4.8,9.6-10.2,10.5c-2.4,0.4-4.9,0.1-7.1-0.9c-2-0.9-3.7-2.3-5-4.1c-1.1-1.6-1.8-3.4-2.1-5.3
		c-0.4-2.7,0.2-5.5,1.6-7.9C450.9-132.9,451.5-133.7,452.3-134.3c0,0-0.8,0.7-1.7,2.4c-1.3,2.3-1.8,5-1.3,7.7
		c0.6,3.9,3.2,7.3,6.9,8.9c2.1,0.9,4.5,1.2,6.7,0.8c5-0.9,8.9-4.9,9.6-9.9c0.2-1.2,0.2-2.3,0-3.5c-0.2-1.1-0.5-2.2-1-3.2
		c-1.7-3.6-5.2-6-9.1-6.5c-2.7-0.3-5.3,0.2-7.6,1.6C453-135,452.4-134.2,452.3-134.3z"/>
	<path class="st0" d="M446.3-149.2c-0.1-0.1-0.3-0.1-0.4-0.2l-1.1-0.6l-4.4-2.6h0.1l-7.7,8.1v-0.2l3.7,5.6l0.1,0.1l-0.1,0.1
		c-1.2,2.1-2.1,4.4-2.6,6.7v0.1h-0.1l-6.6,1.6l0.2-0.2c0.1,3.5,0.1,7.3,0.2,11.2l-0.2-0.3l6.6,1.4h0.2l0,0.2
		c0.7,2.3,1.6,4.6,2.9,6.6l0.1,0.2l-0.1,0.2c-1.1,1.8-2.3,3.8-3.5,5.8l0-0.4l8.1,7.8h-0.4l5.7-3.7l0.2-0.1l0.2,0.1
		c2.1,1.2,4.4,2.1,6.7,2.6h0.2v0.2c0.5,2.1,1.1,4.3,1.6,6.6l-0.3-0.2l11.2-0.2l-0.3,0.3c0.4-2.1,0.9-4.3,1.4-6.6v-0.2l0.2-0.1
		c2.3-0.7,4.5-1.6,6.6-2.9l0,0l0.2-0.1l0.2,0.1l5.8,3.5l-0.4,0.1l7.8-8.1l0,0.4l-3.7-5.7l-0.1-0.2l0.1-0.2c1.2-2.1,2.1-4.4,2.6-6.7
		l0-0.2h0.2l6.6-1.6l-0.2,0.3c-0.1-3.8-0.1-7.6-0.2-11.2l0.2,0.3l-6.6-1.4h-0.2l-0.1-0.2c-0.7-2.3-1.6-4.6-2.9-6.6l-0.1-0.1l0.1-0.2
		c1.2-2,2.4-3.9,3.5-5.8v0.4c-2.8-2.8-5.5-5.3-8-7.8h0.3l-5.7,3.7l-0.1,0.1l-0.1-0.1c-2.1-1.2-4.3-2.1-6.6-2.7H467v-0.1
		c-0.6-2.4-1.1-4.5-1.6-6.6l0.2,0.2l-11.2,0.1l0.1-0.1c-0.6,2.6-1,4.8-1.4,6.6v0.1h-0.1c-1.8,0.5-3.5,1.2-5.1,2l-1.2,0.6
		C446.6-149.3,446.5-149.2,446.3-149.2c0.2-0.1,0.3-0.1,0.4-0.2c0.3-0.2,0.6-0.4,1.2-0.7c1.6-0.9,3.3-1.6,5.1-2.1l-0.1,0.1
		c0.4-1.9,0.8-4,1.3-6.6v-0.1h0.1l11.2-0.2h0.2v0.2c0.5,2,1,4.2,1.6,6.6l-0.2-0.2c2.4,0.6,4.7,1.5,6.9,2.7h-0.3l5.7-3.7l0.2-0.1
		l0.1,0.1l8.1,7.7l0.2,0.2l-0.1,0.2c-1.1,1.9-2.3,3.8-3.5,5.8v-0.3c1.3,2.1,2.3,4.4,3,6.8l-0.2-0.2l6.6,1.4l0.2,0v0.3
		c0.1,3.6,0.1,7.4,0.2,11.2v0.3l-0.3,0.1l-6.6,1.6l0.2-0.2c-0.6,2.4-1.5,4.7-2.7,6.9v-0.4l3.7,5.7l0.1,0.2l-0.2,0.2l-7.8,8.1
		l-0.2,0.2l-0.2-0.1l-5.8-3.5h0.4c-2.1,1.3-4.4,2.3-6.8,2.9l0.2-0.3l-1.4,6.6l-0.1,0.3h-0.3l-11.2,0.2h-0.3l-0.1-0.3
		c-0.6-2.3-1.1-4.5-1.6-6.6l0.2,0.2c-2.4-0.6-4.7-1.5-6.9-2.7h0.3l-5.7,3.7l-0.2,0.1l-0.2-0.2l-8-7.8l-0.2-0.2l0.1-0.2
		c1.2-2,2.4-4,3.5-5.8v0.3c-1.3-2.1-2.3-4.4-2.9-6.8l0.2,0.2l-6.6-1.4h-0.2v-0.2c-0.1-3.9-0.1-7.7-0.2-11.2v-0.2h0.2l6.6-1.6
		l-0.2,0.2c0.6-2.4,1.5-4.7,2.7-6.8v0.2c-1.3-2-2.6-4-3.7-5.7l-0.1-0.1l0.1-0.1l7.8-8l0.1-0.1h0.1l4.3,2.7l1.1,0.7
		C446.1-149.3,446.2-149.3,446.3-149.2z"/>
	<path class="st0" d="M334.6-23c1.5-0.9,3.1-1.6,4.8-2.1l1-4.8l8.1-0.1l1.2,4.7c1.7,0.4,3.4,1.1,4.9,1.9l4.1-2.7l5.8,5.6l-2.5,4.2
		c0.9,1.5,1.6,3.1,2.1,4.8l4.8,1l0.1,8.1l-4.7,1.2c-0.4,1.7-1.1,3.4-1.9,4.9l2.7,4.1l-5.6,5.8l-4.1-2.5c-1.5,0.9-3.1,1.6-4.8,2.1
		l-1,4.8l-8.1,0.1l-1.2-4.8c-1.7-0.4-3.4-1.1-4.9-1.9l-4,2.7l-5.8-5.6l2.5-4.2c-0.9-1.5-1.6-3.1-2.1-4.8L321-1.4l-0.1-8.1l4.8-1.2
		c0.4-1.7,1.1-3.4,1.9-4.9l-2.7-4.1l5.6-5.8L334.6-23L334.6-23z M338.9-12.2c-3.3,3.4-3.2,8.9,0.2,12.3c3.4,3.3,8.9,3.2,12.3-0.2
		c3.3-3.4,3.2-8.9-0.2-12.3C347.7-15.8,342.2-15.7,338.9-12.2C338.9-12.2,338.9-12.2,338.9-12.2z"/>
	<path class="st0" d="M338.9-12.2c0.5-0.6,1-1,1.6-1.4c1.7-1.1,3.7-1.6,5.7-1.3c3,0.3,5.6,2.2,6.9,4.9c0.8,1.6,1.1,3.4,0.8,5.1
		c-0.2,1.9-1.1,3.6-2.4,5c-1.3,1.4-3,2.3-4.9,2.6c-1.7,0.3-3.5,0.1-5.1-0.7c-1.4-0.6-2.7-1.7-3.6-3c-2-2.8-2.1-6.5-0.4-9.5
		C337.9-11.2,338.4-11.8,338.9-12.2c0,0-0.5,0.6-1.2,1.8c-0.9,1.7-1.2,3.6-0.9,5.6c0.5,2.8,2.3,5.3,5,6.4c0.7,0.3,1.5,0.6,2.3,0.6
		c0.8,0.1,1.7,0.1,2.5-0.1c1.8-0.3,3.4-1.2,4.6-2.4c1.2-1.3,2-2.9,2.3-4.7c0.2-1.7,0-3.3-0.8-4.8c-1.2-2.6-3.7-4.4-6.6-4.7
		c-1.9-0.3-3.9,0.1-5.6,1.1C339.5-12.8,338.9-12.2,338.9-12.2z"/>
	<path class="st0" d="M334.6-23c-0.1,0-0.2-0.1-0.3-0.1l-0.8-0.5l-3.1-1.9h0.1l-5.6,5.8v-0.2l2.7,4.1v0.1v0.1
		c-0.8,1.5-1.5,3.2-1.9,4.8v0.1h-0.1l-4.7,1.2l0.1-0.2c0,2.5,0.1,5.2,0.2,8.1L321-1.7l4.8,1h0.1v0.1c0.5,1.7,1.2,3.3,2.1,4.8
		l0.1,0.1L328,4.4l-2.5,4.2V8.3l5.8,5.6H331c1.3-0.8,2.7-1.7,4.1-2.7l0.1-0.1l0.1,0.1c1.5,0.8,3.1,1.5,4.8,1.9h0.1v0.1
		c0.4,1.5,0.8,3.1,1.2,4.7l-0.2-0.2l8.1-0.1l-0.2,0.2c0.3-1.5,0.7-3.1,1-4.8v-0.1h0.1c1.7-0.5,3.3-1.2,4.8-2.1l0,0l0.1-0.1l0.1,0.1
		c1.4,0.8,2.8,1.7,4.2,2.5h-0.3l5.6-5.8v0.3L362,3.8L362,3.7l0.1-0.1c0.8-1.5,1.5-3.1,1.9-4.8v-0.1h0.1l4.7-1.2l-0.2,0.2
		c0-2.8-0.1-5.5-0.1-8.1l0.2,0.2l-4.8-1h-0.1v-0.1c-0.5-1.7-1.2-3.3-2.1-4.8l0-0.1l0.1-0.1l2.5-4.2v0.3l-5.8-5.6h0.2l-4.1,2.7
		l-0.1,0.1l-0.1-0.1c-1.5-0.8-3.1-1.5-4.8-1.9h-0.1v-0.1c-0.4-1.7-0.8-3.3-1.1-4.7l0.1,0.1l-8.1,0.1l0.1-0.1c-0.4,1.9-0.7,3.5-1,4.8
		v0.1h-0.1c-1.3,0.4-2.5,0.8-3.7,1.4l-0.9,0.5C334.8-23.1,334.7-23,334.6-23l0.3-0.2c0.2-0.1,0.5-0.3,0.9-0.5
		c1.2-0.6,2.4-1.1,3.7-1.5l-0.1,0.1c0.3-1.3,0.6-2.9,1-4.8V-30h0.1l8.1-0.2h0.1v0.1l1.2,4.7l-0.1-0.1c1.7,0.4,3.4,1.1,5,1.9h-0.2
		l4.1-2.7l0.1-0.1l0.1,0.1l5.8,5.6l0.1,0.1l-0.1,0.1c-0.8,1.4-1.7,2.8-2.5,4.2v-0.2c0.9,1.5,1.6,3.2,2.1,4.9l-0.2-0.2l4.8,1h0.2v0.2
		c0,2.6,0.1,5.3,0.1,8.1v0.2l-0.2,0L364.2-1l0.2-0.2c-0.4,1.7-1.1,3.4-1.9,5V3.6c0.9,1.4,1.8,2.7,2.7,4.1l0.1,0.2L365.1,8
		c-1.9,1.9-3.7,3.8-5.6,5.8l-0.1,0.1l-0.2-0.1c-1.4-0.8-2.8-1.7-4.2-2.5h0.3c-1.5,0.9-3.2,1.6-4.9,2.1l0.2-0.2
		c-0.3,1.6-0.7,3.3-1,4.8v0.2h-0.2l-8.1,0.1h-0.2v-0.2l-1.2-4.7l0.2,0.2c-1.7-0.4-3.4-1.1-5-2h0.2l-4.1,2.7l-0.2,0.1l-0.1-0.1
		l-5.8-5.6L325,8.5l0.1-0.1l2.5-4.2v0.2c-0.9-1.5-1.6-3.2-2.1-4.9l0.2,0.1l-4.8-1h-0.2v-0.1c0-2.8-0.1-5.6-0.1-8.1v-0.1h0.1l4.7-1.1
		l-0.1,0.1c0.4-1.7,1.1-3.4,2-4.9v0.1l-2.7-4.2l-0.1-0.1l0.1-0.1l5.6-5.8l0,0h0.1l3.1,1.9l0.8,0.5L334.6-23z"/>
	<path class="st1" d="M406.1-193.4c1.3-0.8,2.6-1.3,4-1.7l0.8-4l6.7-0.1l0.9,3.9c1.4,0.3,2.8,0.9,4.1,1.6l3.4-2.2l4.8,4.6l-2.1,3.5
		c0.8,1.3,1.3,2.6,1.7,4l4,0.8l0.1,6.7l-3.9,0.9c-0.3,1.4-0.9,2.8-1.6,4.1l2.2,3.4l-4.6,4.8l-3.5-2.1c-1.2,0.8-2.6,1.4-4,1.8l-0.8,4
		l-6.7,0.1l-0.9-3.9c-1.4-0.4-2.8-0.9-4.1-1.6l-3.4,2.2l-4.8-4.6l2.1-3.5c-0.8-1.3-1.3-2.6-1.7-4l-4-0.8l-0.1-6.7l3.9-0.9
		c0.3-1.4,0.9-2.8,1.6-4.1l-2.2-3.4l4.6-4.8L406.1-193.4z M409.7-184.5c-2.8,2.9-2.7,7.4,0.2,10.2c2.9,2.8,7.4,2.7,10.2-0.2
		c2.8-2.9,2.7-7.4-0.2-10.2C417-187.4,412.5-187.3,409.7-184.5L409.7-184.5z"/>
	<path class="st1" d="M409.7-184.5c0.4-0.5,0.8-0.9,1.3-1.2c1.4-0.9,3-1.3,4.7-1.1c2.5,0.3,4.7,1.8,5.8,4c0.3,0.6,0.5,1.3,0.7,2
		c0.1,0.7,0.1,1.5,0,2.2c-0.4,3.2-2.9,5.8-6.1,6.3c-0.7,0.1-1.5,0.1-2.2,0c-0.7-0.1-1.4-0.3-2-0.6c-1.2-0.5-2.2-1.4-3-2.4
		c-0.7-0.9-1.1-2-1.2-3.1c-0.3-1.6,0.1-3.3,0.9-4.7C408.9-183.6,409.2-184.1,409.7-184.5c0,0-0.4,0.5-1,1.5
		c-1.9,3.4-0.7,7.7,2.7,9.6c0.2,0.1,0.4,0.2,0.6,0.3c0.6,0.3,1.3,0.5,1.9,0.5c0.7,0.1,1.4,0.1,2.1,0c1.5-0.2,2.8-1,3.8-2
		c1-1.1,1.7-2.4,1.9-3.9c0.2-1.4,0-2.8-0.6-4c-1.7-3.5-5.9-5-9.5-3.3c-0.2,0.1-0.3,0.2-0.5,0.3C410.2-185,409.7-184.5,409.7-184.5z"
		/>
	<path class="st1" d="M406.1-193.4c-0.1,0-0.2-0.1-0.2-0.1l-0.7-0.4l-2.6-1.5h0.1l-4.6,4.8v-0.1l2.3,3.3v0.1v0.1
		c-0.7,1.3-1.2,2.6-1.6,4v0.1h-0.1l-3.9,1l0.1-0.1c0,2.1,0.1,4.3,0.1,6.7l-0.1-0.2l4,0.8h0.1v0.1c0.4,1.4,1,2.7,1.7,4l0.1,0.1
		l-0.1,0.1l-2.1,3.5v-0.2l4.8,4.6h-0.2l3.4-2.2l0.1-0.1l0.1,0.1c1.2,0.7,2.6,1.3,4,1.7h0.1v0.1c0.3,1.2,0.6,2.6,0.9,3.9l-0.2-0.2
		l6.7-0.1l-0.2,0.2c0.3-1.3,0.5-2.6,0.8-4v-0.1h0.1c1.4-0.4,2.7-1,4-1.7l0,0l0.1-0.1l0.1,0.1l3.5,2.1h-0.3l4.6-4.8v0.2l-2.2-3.4
		l-0.1-0.1l0.1-0.1c0.7-1.3,1.3-2.6,1.7-4v-0.1h0.1l3.9-0.9l-0.1,0.2c0-2.3-0.1-4.5-0.1-6.7l0.2,0.2l-4-0.8h-0.1v-0.1
		c-0.4-1.4-1-2.7-1.7-4l-0.1-0.1l0.1-0.1l2.1-3.5v0.2l-4.8-4.6h0.2l-3.4,2.1l-0.1,0h-0.1c-1.3-0.7-2.6-1.2-4-1.6h-0.1v-0.1
		c-0.3-1.4-0.7-2.7-0.9-3.9l0.1,0.1L411-199l0.1-0.1c-0.3,1.6-0.6,2.9-0.9,4l0,0h0c-1.1,0.3-2.1,0.7-3.1,1.2l-0.7,0.4
		C406.3-193.5,406.2-193.4,406.1-193.4l0.2-0.1c0.2-0.1,0.4-0.2,0.7-0.4c1-0.5,2-0.9,3.1-1.2h0c0.2-1.1,0.5-2.4,0.8-4v-0.1h0.1
		l6.7-0.1h0.1v0.1c0.3,1.2,0.6,2.5,1,3.9l-0.1-0.1c1.4,0.4,2.8,0.9,4.1,1.6h-0.1l3.4-2.2l0.1-0.1l0.1,0.1l4.8,4.6l0.1,0.1l-0.1,0.1
		l-2.1,3.5v-0.2c0.8,1.3,1.4,2.6,1.8,4.1l-0.1-0.1l4,0.8h0.1v0.1c0,2.2,0.1,4.4,0.1,6.7v0.2h-0.2l-3.9,0.9l0.1-0.1
		c-0.4,1.5-0.9,2.9-1.6,4.3v-0.2l2.2,3.4l0.1,0.1l-0.1,0.1l-4.6,4.8l-0.1,0.1l-0.1-0.1l-3.5-2.1h0.2c-1.3,0.8-2.6,1.4-4.1,1.8
		l0.1-0.2c-0.3,1.4-0.6,2.7-0.8,4v0.2h-0.2l-6.7,0.1h-0.2v-0.2c-0.3-1.4-0.7-2.7-0.9-3.9l0.1,0.1c-1.4-0.4-2.8-0.9-4.1-1.6h0.2
		l-3.5,2.3l-0.1,0.1l-0.1-0.1l-4.8-4.6l-0.1-0.1l0.1-0.1c0.7-1.2,1.5-2.4,2.1-3.5v0.2c-0.8-1.3-1.3-2.6-1.8-4.1l0.1,0.1l-4-0.8h-0.1
		v-0.2c0-2.4-0.1-4.6-0.1-6.7v-0.1h0.1l3.9-0.9l-0.1,0.1c0.4-1.4,0.9-2.8,1.6-4.1v0.1l-2.2-3.4v-0.1l0.1-0.1l4.7-4.8l0,0h0l2.5,1.6
		l0.7,0.4L406.1-193.4z"/>
	<path class="st0" d="M370.4-38.2L370.4-38.2l-2.6-10.6c-3.8-0.9-7.5-2.4-10.9-4.3l-9.1,6l0,0l-13-12.6l0,0l5.6-9.3
		c-2-3.4-3.6-7-4.6-10.8l-10.7-2.2l0,0l-0.3-18.1l0,0l10.6-2.6c0.9-3.8,2.4-7.5,4.3-10.9l-6-9.1l0,0l12.5-13l0,0l9.4,5.6
		c3.4-2,7-3.6,10.8-4.7l2.2-10.7l0,0l18.1-0.4l0,0l2.6,10.6c3.8,0.9,7.5,2.4,10.9,4.3l9.1-6l0,0l13,12.5l0,0l-5.6,9.3
		c2,3.4,3.6,7.1,4.6,10.9l10.7,2.2l0,0l0.3,18.1l0,0l-10.6,2.6c-0.9,3.8-2.4,7.5-4.3,10.9l6,9.1l0,0l-12.5,13l0,0l-9.4-5.7
		c-3.4,2-7,3.6-10.8,4.7l-2.2,10.7l0,0L370.4-38.2z M356.9-53.1L356.9-53.1c3.4,1.9,7.1,3.4,10.9,4.3l0,0l2.6,10.6l18.1-0.3
		l2.2-10.7l0,0c3.8-1.1,7.4-2.7,10.7-4.7l0,0l9.3,5.6l12.5-13l-6-9.1l0,0c1.9-3.4,3.4-7.1,4.3-10.9l0,0l0,0l10.6-2.6l-0.3-18
		l-10.6-2.3l0,0c-1.1-3.8-2.6-7.4-4.7-10.8l0,0l0,0l5.6-9.3l-13-12.5l-9.1,6l0,0c-3.4-1.9-7.1-3.4-10.9-4.3l0,0l-2.6-10.6l-18,0.3
		l-2.3,10.6l0,0c-3.8,1.1-7.4,2.6-10.8,4.6l0,0l-9.3-5.6l-12.5,13l6,9.1l0,0c-1.9,3.4-3.4,7.1-4.3,10.9l0,0l-10.6,2.6l0.3,18
		l10.6,2.3l0,0c1.1,3.8,2.6,7.4,4.7,10.8l0,0l-5.6,9.3l13,12.5L356.9-53.1z M379.1-73.2c-10.7-0.1-19.3-8.9-19.2-19.6
		c0.1-10.4,8.4-18.9,18.8-19.2h0.4c10.7,0.1,19.3,8.9,19.2,19.6c-0.1,10.4-8.4,18.9-18.8,19.2H379.1z M365.2-106L365.2-106
		c-7.4,7.7-7.2,19.9,0.5,27.3c3.6,3.5,8.4,5.4,13.4,5.4h0.4c10.7-0.3,19.1-9.2,18.8-19.9c-0.3-10.4-8.7-18.7-19.1-18.8h-0.3
		C373.6-111.8,368.7-109.7,365.2-106L365.2-106z"/>
	<path class="st0" d="M365.2-106c1-1.2,2.2-2.3,3.6-3.2c6.5-4.1,14.8-4.1,21.2,0.1c3,1.9,5.4,4.6,6.9,7.8c0.9,1.7,1.5,3.6,1.8,5.5
		c0.4,2,0.4,4,0.1,6c-1.1,8.6-7.8,15.5-16.3,16.9c-3.9,0.6-7.9,0.1-11.5-1.5c-6.2-2.8-10.5-8.5-11.4-15.1c-0.7-4.4,0.2-8.9,2.5-12.8
		C362.9-103.7,364-104.9,365.2-106c0.1,0.1-1.2,1.3-2.7,3.9c-2.1,3.8-2.8,8.1-2.1,12.4c1,6.4,5.2,11.8,11.1,14.3
		c3.4,1.5,7.2,2,10.9,1.3c8.1-1.4,14.4-7.9,15.4-16c0.3-1.9,0.3-3.8-0.1-5.6c-0.3-1.8-0.8-3.5-1.6-5.2c-2.8-5.8-8.3-9.8-14.7-10.5
		c-4.3-0.6-8.6,0.4-12.4,2.6C366.4-107.2,365.3-105.9,365.2-106z"/>
	<path class="st0" d="M355.5-130.1c-0.2-0.1-0.4-0.2-0.6-0.3l-1.8-1l-7-4.1h0.2l-12.4,13v-0.4l6,9.1l0.1,0.2l-0.1,0.2
		c-1.9,3.4-3.3,7.1-4.2,10.9l-0.1,0.2l-0.2,0.1l-10.6,2.6l0.3-0.4c0.1,5.7,0.2,11.7,0.4,18l-0.4-0.4l10.7,2.2l0.3,0.1l0.1,0.3
		c1.1,3.7,2.6,7.3,4.6,10.7L341-69l-0.1,0.2l-5.6,9.3l-0.1-0.6l13,12.5l-0.6-0.1c2.8-1.9,6-3.9,9.1-6l0.3-0.2l0.3,0.2
		c3.4,1.9,7,3.3,10.8,4.2l0.3,0.1l0.1,0.3l2.6,10.6l-0.5-0.4l18.1-0.3l-0.5,0.4c0.7-3.4,1.5-7,2.2-10.7l0.1-0.3l0.3-0.1
		c3.7-1.1,7.3-2.6,10.7-4.6l0,0l0.3-0.2l0.3,0.2l9.3,5.7l-0.7,0.1l12.5-13l-0.1,0.7l-6-9.1l-0.2-0.3l0.2-0.3c1.9-3.4,3.3-7,4.3-10.8
		l0.1-0.3l0.3-0.1l10.6-2.6l-0.4,0.5c-0.1-6.2-0.2-12.2-0.3-18.1l0.4,0.5l-10.7-2.2l-0.3-0.1l-0.1-0.3c-1.1-3.8-2.6-7.3-4.6-10.7
		l-0.1-0.2l0.1-0.2c2-3.2,3.8-6.3,5.7-9.3l0.1,0.6c-4.6-4.4-8.9-8.6-13-12.6l0.5,0.1l-9.1,5.9l-0.2,0.1l-0.2-0.1
		c-3.4-1.9-7.1-3.4-10.8-4.3l-0.2-0.1l-0.1-0.2c-0.9-3.8-1.8-7.3-2.6-10.6l0.3,0.2l-18.1,0.2l0.2-0.2c-0.9,4.3-1.7,7.8-2.3,10.7v0.1
		h-0.1c-2.8,0.8-5.6,1.9-8.3,3.2l-1.9,1C356-130.3,355.8-130.2,355.5-130.1c0,0,0.2-0.2,0.6-0.4c0.4-0.2,1-0.6,1.9-1.1
		c2.6-1.4,5.4-2.5,8.3-3.3l-0.1,0.1c0.6-2.9,1.3-6.4,2.1-10.7v-0.2h0.2l18-0.4h0.3l0.1,0.3c0.8,3.3,1.7,6.7,2.6,10.6l-0.3-0.3
		c3.9,0.9,7.6,2.4,11.1,4.3H400l9.1-6l0.3-0.2l0.2,0.2l13,12.5l0.3,0.3l-0.2,0.3c-1.9,3-3.7,6.1-5.6,9.3v-0.5
		c2.1,3.4,3.7,7.1,4.8,10.9l-0.4-0.3l10.7,2.2l0.4,0.1v0.4c0.1,5.9,0.2,11.9,0.3,18v0.4l-0.4,0.1l-10.6,2.6l0.4-0.4
		c-0.9,3.9-2.4,7.6-4.3,11.1v-0.6l6,9.1l0.2,0.4l-0.3,0.3l-12.5,13l-0.3,0.3l-0.4-0.2l-9.3-5.7h0.6c-3.4,2.1-7.1,3.7-10.9,4.7
		l0.4-0.4c-0.8,3.7-1.5,7.3-2.2,10.7L389-38h-0.4l-18.1,0.3H370l-0.1-0.4c-0.9-3.7-1.8-7.3-2.6-10.6l0.4,0.4
		c-3.9-1-7.6-2.4-11.1-4.4h0.5l-9.1,6l-0.3,0.2l-0.3-0.3l-13-12.5l-0.3-0.3l0.2-0.3l5.7-9.3v0.5c-2-3.4-3.6-7.1-4.7-10.9l0.4,0.3
		L325-81.6l-0.3-0.1V-82c-0.1-6.3-0.2-12.4-0.3-18v-0.3l0.3-0.1l10.6-2.6l-0.3,0.3c1-3.9,2.4-7.6,4.4-11v0.4l-5.9-9.1l-0.1-0.2
		l0.2-0.2l12.6-13l0.1-0.1l0.1,0.1l6.9,4.3l1.8,1.1C355.2-130.4,355.4-130.2,355.5-130.1z"/>
</g>
<g id="freepik--Device--inject-41">
	<path class="st2" d="M756.2-98.5H391.4c-6.3,0-11.4,5.1-11.4,11.4v257.7c0,6.3,5.1,11.4,11.4,11.4h140c0,0,8.9,27.5-18.7,41.8
		h130.9c0,0-31.2-10.7-23.1-41.8h135.7c6.3,0,11.4-5.1,11.4-11.4V-87.2C767.6-93.4,762.5-98.5,756.2-98.5z"/>
	<path class="st3" d="M578.7,154.9c5,7.1-2.8,14.9-9.9,9.9c-0.2-0.2-0.4-0.4-0.6-0.6c-5-7.1,2.8-14.9,9.9-9.9
		C578.3,154.4,578.5,154.6,578.7,154.9z"/>
	<path class="st4" d="M395.2-93.8h357.2c5,0,9,4,9,9v0v219.7l0,0H386.3l0,0V-84.8C386.3-89.8,390.3-93.8,395.2-93.8z"/>
	<path class="st3" d="M691,182c0,0.1-51.9,0.2-116,0.2s-116-0.1-116-0.2c0-0.1,51.9-0.2,116-0.2S691,181.9,691,182z"/>
	<rect x="394.5" y="-84.4" class="st3" width="358.5" height="219.2"/>
	<path class="st0" d="M422,134.7c-0.2,0-0.3-43.1-0.3-96.2s0.2-96.2,0.3-96.2s0.4,43.1,0.4,96.2S422.2,134.7,422,134.7z"/>
	<path class="st0" d="M422,134.9c-0.1,0-0.1,0-0.2-0.3l0,0c-0.1-0.6-0.1-2.3-0.1-7.5c0-4.8-0.1-11.8-0.1-20.6
		c-0.1-18.2-0.1-42.4-0.1-68.1s0-49.9,0.1-68.1c0-8.8,0.1-15.8,0.1-20.6c0-5.2,0.1-6.9,0.1-7.5l0,0l0,0c0-0.3,0.1-0.3,0.2-0.3
		c0.1,0,0.2,0,0.2,0.3l0,0l0,0c0.1,0.6,0.1,2.3,0.1,7.5c0,4.8,0.1,11.8,0.1,20.6c0.1,18.2,0.1,42.4,0.1,68.1s0,49.9-0.1,68.1
		c0,8.8-0.1,15.8-0.1,20.6c0,5.2-0.1,6.9-0.1,7.5l0,0C422.1,134.9,422.1,134.9,422,134.9z M422-36.6c-0.1,17.7-0.1,44.9-0.1,75.1
		s0.1,57.4,0.1,75.1c0.1-17.7,0.1-44.9,0.1-75.1S422-18.9,422-36.6z"/>
	<path class="st0" d="M414.5-49.7c0,0.2-2.7,0.4-6,0.4s-6-0.2-6-0.4c0-0.2,2.7-0.3,6-0.3S414.5-49.9,414.5-49.7z"/>
	<path class="st0" d="M408.5-49.1c-6.2,0-6.2-0.4-6.2-0.6s0-0.6,6.2-0.6s6.2,0.4,6.2,0.6C414.7-49.4,414.7-49.1,408.5-49.1z
		 M403.9-49.6c1,0.1,2.6,0.1,4.6,0.1c2.1,0,3.7-0.1,4.7-0.1c-1-0.1-2.6-0.1-4.7-0.1C406.4-49.8,404.8-49.7,403.9-49.6L403.9-49.6z"
		/>
	<path class="st0" d="M414.5-37c0,0.2-2.7,0.4-6,0.4s-6-0.2-6-0.4c0-0.2,2.7-0.3,6-0.3S414.5-37.2,414.5-37z"/>
	<path class="st0" d="M408.5-36.4c-6.2,0-6.2-0.4-6.2-0.6s0-0.6,6.2-0.6s6.2,0.4,6.2,0.6C414.7-36.8,414.7-36.4,408.5-36.4z
		 M403.9-37c1,0.1,2.6,0.1,4.6,0.1c2.1,0,3.7-0.1,4.7-0.1c-1-0.1-2.6-0.1-4.7-0.1C406.4-37.1,404.8-37,403.9-37L403.9-37z"/>
	<path class="st0" d="M414.5-24.3c0,0.2-2.7,0.4-6,0.4s-6-0.2-6-0.4s2.7-0.3,6-0.3S414.5-24.5,414.5-24.3z"/>
	<path class="st0" d="M408.5-23.7c-6.2,0-6.2-0.4-6.2-0.6c0-0.2,0-0.6,6.2-0.6s6.2,0.4,6.2,0.6S414.7-23.7,408.5-23.7z M403.9-24.3
		c1,0.1,2.5,0.1,4.6,0.1c2.1,0,3.7-0.1,4.7-0.1c-1-0.1-2.6-0.1-4.7-0.1C406.4-24.4,404.8-24.4,403.9-24.3L403.9-24.3z"/>
	<path class="st0" d="M414.5-11.6c0,0.2-2.7,0.4-6,0.4s-6-0.2-6-0.4s2.7-0.3,6-0.3S414.5-11.8,414.5-11.6z"/>
	<path class="st0" d="M408.5-11.1c-6.2,0-6.2-0.4-6.2-0.6s0-0.6,6.2-0.6s6.2,0.4,6.2,0.6S414.7-11.1,408.5-11.1z M403.9-11.6
		c1,0.1,2.5,0.1,4.6,0.1c2.1,0,3.7-0.1,4.6-0.1c-1-0.1-2.6-0.1-4.6-0.1S404.9-11.7,403.9-11.6L403.9-11.6z"/>
	<path class="st0" d="M414.5,1.1c0,0.2-2.7,0.4-6,0.4s-6-0.2-6-0.4s2.7-0.3,6-0.3S414.5,0.9,414.5,1.1z"/>
	<path class="st0" d="M408.5,1.6c-6.2,0-6.2-0.4-6.2-0.6s0-0.6,6.2-0.6s6.2,0.4,6.2,0.6S414.7,1.6,408.5,1.6z M403.9,1.1
		c1,0.1,2.5,0.1,4.6,0.1c2.1,0,3.7-0.1,4.7-0.1c-1-0.1-2.6-0.1-4.7-0.1C406.4,0.9,404.8,1,403.9,1.1L403.9,1.1z"/>
	<path class="st0" d="M414.5,13.8c0,0.2-2.7,0.4-6,0.4s-6-0.2-6-0.4s2.7-0.3,6-0.3S414.5,13.6,414.5,13.8z"/>
	<path class="st0" d="M408.5,14.3c-6.2,0-6.2-0.4-6.2-0.6c0-0.2,0-0.6,6.2-0.6s6.2,0.4,6.2,0.6S414.7,14.3,408.5,14.3z M403.9,13.8
		c1,0.1,2.5,0.1,4.6,0.1c2.1,0,3.7-0.1,4.7-0.1c-1-0.1-2.6-0.1-4.7-0.1C406.4,13.6,404.8,13.7,403.9,13.8L403.9,13.8z"/>
	<path class="st0" d="M414.5,26.4c0,0.2-2.7,0.4-6,0.4s-6-0.2-6-0.4s2.7-0.3,6-0.3S414.5,26.3,414.5,26.4z"/>
	<path class="st0" d="M408.5,27c-6.2,0-6.2-0.4-6.2-0.6c0-0.2,0-0.6,6.2-0.6s6.2,0.4,6.2,0.6S414.7,27,408.5,27z M403.9,26.4
		c1,0.1,2.6,0.1,4.6,0.1c2.1,0,3.7-0.1,4.7-0.1c-1-0.1-2.6-0.1-4.7-0.1C406.4,26.3,404.8,26.4,403.9,26.4L403.9,26.4z"/>
	<path class="st0" d="M414.5,39.1c0,0.2-2.7,0.3-6,0.3s-6-0.2-6-0.3c0-0.2,2.7-0.4,6-0.4S414.5,38.9,414.5,39.1z"/>
	<path class="st0" d="M408.5,39.7c-6.2,0-6.2-0.4-6.2-0.6c0-0.2,0-0.6,6.2-0.6s6.2,0.4,6.2,0.6C414.7,39.3,414.7,39.7,408.5,39.7z
		 M403.9,39.1c1,0.1,2.5,0.1,4.6,0.1c2.1,0,3.7-0.1,4.7-0.1c-1-0.1-2.6-0.1-4.7-0.1C406.4,39,404.8,39.1,403.9,39.1L403.9,39.1z"/>
	<path class="st0" d="M414.5,51.8c0,0.2-2.7,0.3-6,0.3s-6-0.2-6-0.3s2.7-0.4,6-0.4S414.5,51.6,414.5,51.8z"/>
	<path class="st0" d="M408.5,52.4c-6.2,0-6.2-0.4-6.2-0.6c0-0.2,0-0.6,6.2-0.6s6.2,0.4,6.2,0.6C414.7,52,414.7,52.4,408.5,52.4z
		 M403.9,51.8c1,0.1,2.5,0.1,4.6,0.1c2.1,0,3.7-0.1,4.6-0.1c-1-0.1-2.6-0.1-4.6-0.1S404.9,51.8,403.9,51.8L403.9,51.8z"/>
	<path class="st0" d="M414.5,64.5c0,0.2-2.7,0.3-6,0.3s-6-0.2-6-0.3s2.7-0.4,6-0.4S414.5,64.3,414.5,64.5z"/>
	<path class="st0" d="M408.5,65.1c-6.2,0-6.2-0.4-6.2-0.6s0-0.6,6.2-0.6s6.2,0.4,6.2,0.6C414.7,64.7,414.7,65.1,408.5,65.1z
		 M403.9,64.5c1,0.1,2.6,0.1,4.6,0.1s3.7-0.1,4.6-0.1c-1-0.1-2.6-0.1-4.6-0.1C406.5,64.4,404.9,64.4,403.9,64.5L403.9,64.5z"/>
	<path class="st0" d="M414.5,77.2c0,0.2-2.7,0.3-6,0.3s-6-0.2-6-0.3s2.7-0.4,6-0.4S414.5,77,414.5,77.2z"/>
	<path class="st0" d="M408.5,77.7c-6.2,0-6.2-0.4-6.2-0.6c0-0.2,0-0.6,6.2-0.6s6.2,0.4,6.2,0.6C414.7,77.4,414.7,77.7,408.5,77.7z
		 M403.9,77.2c1,0.1,2.5,0.1,4.6,0.1c2.1,0,3.7-0.1,4.7-0.1c-1-0.1-2.6-0.1-4.7-0.1C406.4,77.1,404.8,77.1,403.9,77.2L403.9,77.2z"
		/>
	<path class="st0" d="M414.5,89.9c0,0.2-2.7,0.3-6,0.3s-6-0.2-6-0.3s2.7-0.4,6-0.4S414.5,89.7,414.5,89.9z"/>
	<path class="st0" d="M408.5,90.4c-6.2,0-6.2-0.4-6.2-0.6s0-0.6,6.2-0.6s6.2,0.4,6.2,0.6S414.7,90.4,408.5,90.4z M403.9,89.9
		c1,0.1,2.5,0.1,4.6,0.1c2.1,0,3.7-0.1,4.6-0.1c-1-0.1-2.6-0.1-4.6-0.1S404.9,89.8,403.9,89.9L403.9,89.9z"/>
	<path class="st0" d="M414.5,102.6c0,0.2-2.7,0.3-6,0.3s-6-0.2-6-0.3s2.7-0.4,6-0.4S414.5,102.4,414.5,102.6z"/>
	<path class="st0" d="M408.5,103.1c-6.2,0-6.2-0.4-6.2-0.6s0-0.6,6.2-0.6s6.2,0.4,6.2,0.6C414.7,102.8,414.7,103.1,408.5,103.1z
		 M403.9,102.6c1,0.1,2.5,0.1,4.6,0.1c2.1,0,3.7-0.1,4.7-0.1c-1-0.1-2.6-0.1-4.7-0.1C406.4,102.4,404.8,102.5,403.9,102.6
		L403.9,102.6z"/>
	<path class="st0" d="M414.5,115.2c0,0.2-2.7,0.3-6,0.3s-6-0.2-6-0.3c0-0.2,2.7-0.4,6-0.4S414.5,115.1,414.5,115.2z"/>
	<path class="st0" d="M408.5,115.8c-6.2,0-6.2-0.4-6.2-0.6s0-0.6,6.2-0.6s6.2,0.4,6.2,0.6S414.7,115.8,408.5,115.8z M403.9,115.2
		c1,0.1,2.5,0.1,4.6,0.1c2.1,0,3.7-0.1,4.7-0.1c-1-0.1-2.6-0.1-4.7-0.1C406.4,115.1,404.8,115.2,403.9,115.2L403.9,115.2z"/>
	<path class="st0" d="M414.5,127.9c0,0.2-2.7,0.3-6,0.3s-6-0.2-6-0.3c0-0.2,2.7-0.4,6-0.4S414.5,127.7,414.5,127.9z"/>
	<path class="st0" d="M408.5,128.5c-6.2,0-6.2-0.4-6.2-0.6c0-0.2,0-0.6,6.2-0.6s6.2,0.4,6.2,0.6
		C414.7,128.1,414.7,128.5,408.5,128.5z M403.9,127.9c1,0.1,2.6,0.1,4.6,0.1c2.1,0,3.7-0.1,4.7-0.1c-1-0.1-2.6-0.1-4.7-0.1
		C406.4,127.8,404.8,127.9,403.9,127.9L403.9,127.9z"/>
	<path class="st5" d="M462.5-50.4c0,0.2-7,0.3-15.5,0.3s-15.5-0.2-15.5-0.3c0-0.2,7-0.4,15.5-0.4S462.5-50.6,462.5-50.4z"/>
	<path class="st5" d="M447-49.9c-4.2,0-8.1,0-11-0.1c-4.8-0.1-4.8-0.2-4.8-0.5s0-0.4,4.8-0.5c2.9-0.1,6.8-0.1,11-0.1s8.1,0,11,0.1
		c4.8,0.1,4.8,0.2,4.8,0.5s0,0.4-4.8,0.5C455.1-49.9,451.2-49.9,447-49.9z M434.9-50.4c2.7,0.1,6.9,0.1,12.1,0.1s9.4-0.1,12.1-0.1
		c-2.7-0.1-6.9-0.1-12.1-0.1S437.6-50.5,434.9-50.4z"/>
	<path class="st5" d="M462.5,127.9c0,0.2-7,0.3-15.5,0.3s-15.5-0.2-15.5-0.3c0-0.2,7-0.4,15.5-0.4S462.5,127.7,462.5,127.9z"/>
	<path class="st5" d="M447,128.5c-4.2,0-8.1,0-11-0.1c-4.8-0.1-4.8-0.2-4.8-0.5c0-0.3,0-0.4,4.8-0.5c2.9-0.1,6.8-0.1,11-0.1
		s8.1,0,11,0.1c4.8,0.1,4.8,0.2,4.8,0.5c0,0.3,0,0.4-4.8,0.5C455.1,128.5,451.2,128.5,447,128.5z M434.9,127.9
		c2.7,0.1,6.9,0.1,12.1,0.1s9.4-0.1,12.1-0.1c-2.7-0.1-6.9-0.1-12.1-0.1S437.6,127.9,434.9,127.9z"/>
	<path class="st5" d="M505.8-24.3c0,0.2-13,0.4-29.1,0.4s-29.1-0.2-29.1-0.4s13-0.3,29.1-0.3S505.8-24.5,505.8-24.3z"/>
	<path class="st5" d="M476.8-23.7c-7.8,0-15.1,0-20.6-0.1c-8.7-0.1-8.7-0.2-8.7-0.5s0-0.4,8.7-0.5c5.5-0.1,12.8-0.1,20.6-0.1
		c7.8,0,15.1,0,20.6,0.1c8.7,0.1,8.7,0.2,8.7,0.5s0,0.4-8.7,0.5C491.8-23.8,484.5-23.7,476.8-23.7z M454.1-24.3
		c5.1,0.1,12.9,0.1,22.7,0.1s17.6,0,22.7-0.1c-5.1-0.1-13-0.1-22.7-0.1S459.2-24.4,454.1-24.3z"/>
	<path class="st0" d="M573.1-24.3c0,0.2-13,0.4-29.1,0.4c-16.1,0-29.1-0.2-29.1-0.4s13-0.3,29.1-0.3
		C560.1-24.6,573.1-24.5,573.1-24.3z"/>
	<path class="st0" d="M544-23.7c-7.8,0-15.1,0-20.6-0.1c-8.7-0.1-8.7-0.2-8.7-0.5s0-0.4,8.7-0.5c5.5-0.1,12.8-0.1,20.6-0.1
		c7.8,0,15.1,0,20.6,0.1c8.7,0.1,8.7,0.2,8.7,0.5s0,0.4-8.7,0.5C559.1-23.8,551.8-23.7,544-23.7z M521.4-24.3
		c5.1,0.1,12.9,0.1,22.7,0.1c9.8,0,17.6,0,22.7-0.1c-5.1-0.1-12.9-0.1-22.7-0.1S526.4-24.4,521.4-24.3z"/>
	<path class="st0" d="M547.4-11.6c0,0.2-19.2,0.4-42.9,0.4s-42.9-0.2-42.9-0.4s19.2-0.3,42.9-0.3C528.2-12,547.4-11.8,547.4-11.6z"
		/>
	<path class="st0" d="M504.5-11.1c-11.5,0-22.2,0-30.3-0.1c-12.8-0.1-12.8-0.2-12.8-0.5s0-0.4,12.8-0.5c8.1-0.1,18.9-0.1,30.3-0.1
		s22.2,0,30.3,0.1c12.8,0.1,12.8,0.2,12.8,0.5s0,0.4-12.8,0.5C526.7-11.1,516-11.1,504.5-11.1z M471.1-11.6c7.4,0.1,19,0.1,33.4,0.1
		s26,0,33.4-0.1c-7.4-0.1-19-0.1-33.4-0.1S478.6-11.7,471.1-11.6z"/>
	<path class="st0" d="M547.4,1.1c0,0.2-19.2,0.4-42.9,0.4s-42.9-0.2-42.9-0.4s19.2-0.3,42.9-0.3C528.2,0.7,547.4,0.9,547.4,1.1z"/>
	<path class="st0" d="M504.5,1.6c-11.4,0-22.2,0-30.3-0.1c-12.8-0.1-12.8-0.2-12.8-0.5s0-0.4,12.8-0.5c8.1-0.1,18.9-0.1,30.3-0.1
		c11.5,0,22.2,0,30.3,0.1c12.8,0.1,12.8,0.2,12.8,0.5s0,0.4-12.8,0.5C526.7,1.6,516,1.6,504.5,1.6z M471.1,1.1
		c7.5,0.1,19,0.1,33.4,0.1c14.4,0,25.9,0,33.4-0.1c-7.4-0.1-19-0.1-33.4-0.1C490.1,0.9,478.6,1,471.1,1.1z"/>
	<path class="st0" d="M606.4,39.1c0,0.2-19.2,0.3-42.9,0.3c-23.7,0-42.9-0.2-42.9-0.3c0-0.2,19.2-0.4,42.9-0.4
		S606.4,38.9,606.4,39.1z"/>
	<path class="st0" d="M563.5,39.7c-11.4,0-22.2,0-30.3-0.1c-12.8-0.1-12.8-0.2-12.8-0.5s0-0.4,12.8-0.5c8.1-0.1,18.9-0.1,30.3-0.1
		c11.5,0,22.2,0,30.3,0.1c12.8,0.1,12.8,0.2,12.8,0.5s0,0.4-12.8,0.5C585.8,39.7,575,39.7,563.5,39.7z M530.2,39.1
		c7.4,0.1,19,0.1,33.4,0.1c14.4,0,25.9,0,33.4-0.1c-7.4-0.1-19-0.1-33.4-0.1S537.6,39.1,530.2,39.1L530.2,39.1z"/>
	<path class="st0" d="M581,13.8c0,0.2-19.2,0.4-42.9,0.4c-23.7,0-42.9-0.2-42.9-0.4s19.2-0.3,42.9-0.3S581,13.6,581,13.8z"/>
	<path class="st0" d="M538.1,14.3c-11.5,0-22.2,0-30.3-0.1C495,14.1,495,14.1,495,13.8s0-0.4,12.8-0.5c8.1-0.1,18.9-0.1,30.3-0.1
		s22.2,0,30.3,0.1c12.8,0.1,12.8,0.2,12.8,0.5s0,0.4-12.8,0.5C560.3,14.3,549.5,14.3,538.1,14.3z M504.7,13.8
		c7.4,0.1,19,0.1,33.4,0.1s25.9,0,33.4-0.1c-7.4-0.1-19-0.1-33.4-0.1S512.1,13.7,504.7,13.8L504.7,13.8z"/>
	<path class="st0" d="M685.7,13.8c0,0.2-19.2,0.4-42.9,0.4c-23.7,0-42.9-0.2-42.9-0.4s19.2-0.3,42.9-0.3
		C666.5,13.4,685.7,13.6,685.7,13.8z"/>
	<path class="st0" d="M642.8,14.3c-11.5,0-22.2,0-30.3-0.1c-12.8-0.1-12.8-0.2-12.8-0.5s0-0.4,12.8-0.5c8.1-0.1,18.9-0.1,30.3-0.1
		c11.4,0,22.2,0,30.3,0.1c12.8,0.1,12.8,0.2,12.8,0.5s0,0.4-12.8,0.5C665.1,14.3,654.3,14.3,642.8,14.3z M609.5,13.8
		c7.4,0.1,19,0.1,33.4,0.1c14.4,0,25.9,0,33.4-0.1c-7.4-0.1-19-0.1-33.4-0.1S616.9,13.7,609.5,13.8L609.5,13.8z"/>
	<path class="st0" d="M649.3-11.6c0,0.2-19.2,0.4-42.9,0.4c-23.7,0-42.9-0.2-42.9-0.4s19.2-0.3,42.9-0.3
		C630.1-12,649.3-11.8,649.3-11.6z"/>
	<path class="st0" d="M606.4-11.1c-11.5,0-22.2,0-30.3-0.1c-12.8-0.1-12.8-0.2-12.8-0.5s0-0.4,12.8-0.5c8.1-0.1,18.9-0.1,30.3-0.1
		s22.2,0,30.3,0.1c12.8,0.1,12.8,0.2,12.8,0.5s0,0.4-12.8,0.5C628.6-11.1,617.9-11.1,606.4-11.1z M573-11.6c7.4,0.1,19,0.1,33.4,0.1
		c14.4,0,25.9,0,33.4-0.1c-7.5-0.1-19-0.1-33.4-0.1S580.5-11.7,573-11.6z"/>
	<path class="st0" d="M708.5,39.1c0,0.2-19.2,0.3-42.9,0.3c-23.7,0-42.9-0.2-42.9-0.3c0-0.2,19.2-0.4,42.9-0.4
		S708.5,38.9,708.5,39.1z"/>
	<path class="st0" d="M665.6,39.7c-11.4,0-22.2,0-30.3-0.1c-12.8-0.1-12.8-0.2-12.8-0.5s0-0.4,12.8-0.5c8.1-0.1,18.9-0.1,30.3-0.1
		s22.2,0,30.3,0.1c12.8,0.1,12.8,0.2,12.8,0.5s0,0.4-12.8,0.5C687.8,39.7,677.1,39.7,665.6,39.7z M632.2,39.1
		c7.5,0.1,19,0.1,33.4,0.1c14.4,0,25.9,0,33.4-0.1c-7.4-0.1-19-0.1-33.4-0.1C651.2,39,639.7,39.1,632.2,39.1L632.2,39.1z"/>
	<path class="st0" d="M696.6,1.1c0,0.2-29.8,0.4-66.6,0.4s-66.6-0.2-66.6-0.4s29.8-0.3,66.6-0.3S696.6,0.9,696.6,1.1z"/>
	<path class="st0" d="M630.1,1.6c-17.8,0-34.5,0-47.1-0.1c-14.6-0.1-18.4-0.1-19.4-0.3h-0.1l0,0c-0.3,0-0.3-0.1-0.3-0.2
		s0-0.1,0.3-0.2l0,0h0.1c1-0.1,4.8-0.2,19.4-0.3c12.6-0.1,29.3-0.1,47.1-0.1c17.8,0,34.5,0,47.1,0.1c14.6,0.1,18.4,0.1,19.4,0.3h0.1
		l0,0c0.3,0,0.3,0.1,0.3,0.2s0,0.1-0.3,0.2l0,0h-0.1c-1,0.1-4.8,0.2-19.4,0.3C664.6,1.6,647.9,1.6,630.1,1.6z M578.2,1.1
		c12.3,0.1,31.1,0.1,51.9,0.1s39.7,0,51.9-0.1C669.8,1,651,0.9,630.1,0.9S590.4,1,578.2,1.1z"/>
	<path class="st0" d="M462.5-37c0,0.2-7,0.4-15.5,0.4s-15.5-0.2-15.5-0.4c0-0.2,7-0.3,15.5-0.3S462.5-37.2,462.5-37z"/>
	<path class="st0" d="M447-36.4c-4.2,0-8.1,0-11-0.1c-4.8-0.1-4.8-0.2-4.8-0.5s0-0.4,4.8-0.5c2.9-0.1,6.8-0.1,11-0.1s8.1,0,11,0.1
		c4.8,0.1,4.8,0.2,4.8,0.5s0,0.4-4.8,0.5C455.1-36.5,451.2-36.4,447-36.4z M434.9-37c2.7,0.1,6.9,0.1,12.1,0.1s9.4,0,12.1-0.1
		c-2.7-0.1-6.9-0.1-12.1-0.1S437.6-37,434.9-37z"/>
	<path class="st0" d="M462.5,115.2c0,0.2-7,0.3-15.5,0.3s-15.5-0.2-15.5-0.3c0-0.2,7-0.4,15.5-0.4S462.5,115.1,462.5,115.2z"/>
	<path class="st0" d="M447,115.8c-4.2,0-8.1,0-11-0.1c-4.8-0.1-4.8-0.2-4.8-0.5c0-0.3,0-0.4,4.8-0.5c2.9-0.1,6.8-0.1,11-0.1
		s8.1,0,11,0.1c4.8,0.1,4.8,0.2,4.8,0.5s0,0.4-4.8,0.5C455.1,115.8,451.2,115.8,447,115.8z M434.9,115.2c2.7,0.1,6.9,0.1,12.1,0.1
		s9.4-0.1,12.1-0.1c-2.7-0.1-6.9-0.1-12.1-0.1S437.6,115.2,434.9,115.2L434.9,115.2z"/>
	<path class="st0" d="M477.9,13.8c0,0.2-7,0.4-15.5,0.4s-15.5-0.2-15.5-0.4s7-0.3,15.5-0.3S477.9,13.6,477.9,13.8z"/>
	<path class="st0" d="M462.4,14.3c-4.2,0-8.1,0-11-0.1c-4.8-0.1-4.8-0.2-4.8-0.5s0-0.4,4.8-0.5c2.9-0.1,6.8-0.1,11-0.1s8.1,0,11,0.1
		c4.8,0.1,4.8,0.2,4.8,0.5c0,0.3,0,0.4-4.8,0.5C470.5,14.3,466.6,14.3,462.4,14.3z M450.3,13.8c2.7,0.1,6.9,0.1,12.1,0.1
		s9.4,0,12.2-0.1c-2.7-0.1-6.9-0.1-12.1-0.1S453,13.7,450.3,13.8z"/>
	<path class="st0" d="M727.1,13.8c0,0.2-7,0.4-15.5,0.4c-8.6,0-15.6-0.2-15.6-0.4s7-0.3,15.6-0.3C720.2,13.4,727.1,13.6,727.1,13.8z
		"/>
	<path class="st0" d="M711.6,14.3c-4.2,0-8.1,0-11-0.1c-4.8-0.1-4.8-0.2-4.8-0.5s0-0.4,4.8-0.5c2.9-0.1,6.8-0.1,11-0.1s8.1,0,11,0.1
		c4.8,0.1,4.8,0.2,4.8,0.5c0,0.3,0,0.4-4.8,0.5C719.6,14.3,715.7,14.3,711.6,14.3z M699.4,13.8c2.7,0.1,6.9,0.1,12.1,0.1
		s9.4,0,12.1-0.1c-2.7-0.1-6.9-0.1-12.1-0.1C706.3,13.6,702.2,13.7,699.4,13.8z"/>
	<path class="st5" d="M505.8,64.4c0,0.2-13,0.4-29.1,0.4s-29.1-0.2-29.1-0.4c0-0.2,13-0.3,29.1-0.3S505.8,64.2,505.8,64.4z"/>
	<path class="st5" d="M476.8,65c-7.8,0-15.1,0-20.6-0.1c-8.7-0.1-8.7-0.2-8.7-0.5c0-0.3,0-0.4,8.7-0.5c5.5-0.1,12.8-0.1,20.6-0.1
		c7.8,0,15.1,0,20.6,0.1c8.7,0.1,8.7,0.2,8.7,0.5s0,0.4-8.7,0.5C491.8,65,484.5,65,476.8,65z M454.1,64.4c5.1,0.1,13,0.1,22.7,0.1
		s17.6-0.1,22.7-0.1c-5.1-0.1-13-0.1-22.7-0.1S459.1,64.3,454.1,64.4L454.1,64.4z"/>
	<path class="st0" d="M573.1,64.4c0,0.2-13,0.4-29.1,0.4c-16.1,0-29.1-0.2-29.1-0.4c0-0.2,13-0.3,29.1-0.3
		C560.1,64.1,573.1,64.2,573.1,64.4z"/>
	<path class="st0" d="M544,65c-7.8,0-15.1,0-20.6-0.1c-8.7-0.1-8.7-0.2-8.7-0.5c0-0.3,0-0.4,8.7-0.5c5.5-0.1,12.8-0.1,20.6-0.1
		c7.8,0,15.1,0,20.6,0.1c8.7,0.1,8.7,0.2,8.7,0.5s0,0.4-8.7,0.5C559.1,65,551.8,65,544,65z M521.3,64.4c5.1,0.1,13,0.1,22.7,0.1
		s17.6-0.1,22.7-0.1c-5.1-0.1-12.9-0.1-22.7-0.1C534.3,64.3,526.4,64.3,521.3,64.4L521.3,64.4z"/>
	<path class="st0" d="M547.4,77.1c0,0.2-19.2,0.4-42.9,0.4s-42.9-0.2-42.9-0.4s19.2-0.3,42.9-0.3C528.2,76.8,547.4,76.9,547.4,77.1z
		"/>
	<path class="st0" d="M504.5,77.7c-11.4,0-22.2,0-30.3-0.1c-12.8-0.1-12.8-0.2-12.8-0.5s0-0.4,12.8-0.5c8.1-0.1,18.9-0.1,30.3-0.1
		c11.5,0,22.2,0,30.3,0.1c12.8,0.1,12.8,0.2,12.8,0.5s0,0.4-12.8,0.5C526.7,77.6,516,77.7,504.5,77.7z M471.1,77.1
		c7.5,0.1,19,0.1,33.4,0.1c14.4,0,25.9,0,33.4-0.1c-7.4-0.1-19-0.1-33.4-0.1C490.1,77,478.6,77,471.1,77.1L471.1,77.1z"/>
	<path class="st0" d="M547.4,89.8c0,0.2-19.2,0.3-42.9,0.3s-42.9-0.2-42.9-0.3s19.2-0.4,42.9-0.4C528.2,89.5,547.4,89.6,547.4,89.8z
		"/>
	<path class="st0" d="M504.5,90.4c-11.5,0-22.2,0-30.3-0.1c-12.8-0.1-12.8-0.2-12.8-0.5s0-0.4,12.8-0.5c8.1-0.1,18.9-0.1,30.3-0.1
		s22.2,0,30.3,0.1c12.8,0.1,12.8,0.2,12.8,0.5s0,0.4-12.8,0.5C526.7,90.3,516,90.4,504.5,90.4z M471.1,89.8c7.4,0.1,19,0.1,33.4,0.1
		s26-0.1,33.4-0.1c-7.4-0.1-19-0.1-33.4-0.1S478.6,89.7,471.1,89.8z"/>
	<path class="st0" d="M581,102.5c0,0.2-19.2,0.3-42.9,0.3c-23.7,0-42.9-0.2-42.9-0.3c0-0.2,19.2-0.4,42.9-0.4S581,102.3,581,102.5z"
		/>
	<path class="st0" d="M538.1,103.1c-11.4,0-22.2,0-30.3-0.1c-12.8-0.1-12.8-0.2-12.8-0.5c0-0.3,0-0.4,12.8-0.5
		c8.1-0.1,18.9-0.1,30.3-0.1s22.2,0,30.3,0.1c12.8,0.1,12.8,0.2,12.8,0.5s0,0.4-12.8,0.5C560.3,103,549.5,103.1,538.1,103.1z
		 M504.7,102.5c7.4,0.1,19,0.1,33.4,0.1s26-0.1,33.4-0.1c-7.4-0.1-19-0.1-33.4-0.1S512.1,102.4,504.7,102.5L504.7,102.5z"/>
	<path class="st0" d="M685.7,102.5c0,0.2-19.2,0.3-42.9,0.3c-23.7,0-42.9-0.2-42.9-0.3c0-0.2,19.2-0.4,42.9-0.4
		C666.5,102.1,685.7,102.3,685.7,102.5z"/>
	<path class="st0" d="M642.8,103.1c-11.4,0-22.2,0-30.3-0.1c-12.8-0.1-12.8-0.2-12.8-0.5c0-0.3,0-0.4,12.8-0.5
		c8.1-0.1,18.9-0.1,30.3-0.1s22.2,0,30.3,0.1c12.8,0.1,12.8,0.2,12.8,0.5s0,0.4-12.8,0.5C665,103,654.3,103.1,642.8,103.1z
		 M609.4,102.5c7.4,0.1,19,0.1,33.4,0.1s26-0.1,33.4-0.1c-7.4-0.1-19-0.1-33.4-0.1C628.4,102.4,616.9,102.4,609.4,102.5z"/>
	<path class="st0" d="M649.3,77.1c0,0.2-19.2,0.4-42.9,0.4c-23.7,0-42.9-0.2-42.9-0.4s19.2-0.3,42.9-0.3
		C630.1,76.8,649.3,76.9,649.3,77.1z"/>
	<path class="st0" d="M606.4,77.7c-11.4,0-22.2,0-30.3-0.1c-12.8-0.1-12.8-0.2-12.8-0.5s0-0.4,12.8-0.5c8.1-0.1,18.9-0.1,30.3-0.1
		s22.2,0,30.3,0.1c12.8,0.1,12.8,0.2,12.8,0.5s0,0.4-12.8,0.5C628.6,77.6,617.9,77.7,606.4,77.7z M573,77.1c7.5,0.1,19,0.1,33.4,0.1
		c14.4,0,25.9,0,33.4-0.1c-7.5-0.1-19-0.1-33.4-0.1C592,77,580.5,77,573,77.1L573,77.1z"/>
	<path class="st0" d="M696.6,89.8c0,0.2-29.8,0.3-66.6,0.3s-66.6-0.2-66.6-0.3s29.8-0.4,66.6-0.4S696.6,89.6,696.6,89.8z"/>
	<path class="st0" d="M630.1,90.4c-17.8,0-34.5,0-47.1-0.1c-14.6-0.1-18.4-0.1-19.4-0.3h-0.1l0,0c-0.3,0-0.3-0.1-0.3-0.2
		c0-0.1,0-0.1,0.3-0.2l0,0h0.1c1-0.1,4.8-0.2,19.4-0.3c12.6-0.1,29.3-0.1,47.1-0.1s34.5,0,47.1,0.1c14.6,0.1,18.4,0.1,19.4,0.3h0.1
		l0,0c0.3,0,0.3,0.1,0.3,0.2c0,0.1,0,0.1-0.3,0.2l0,0h-0.1c-1,0.1-4.8,0.2-19.4,0.3C664.6,90.3,647.9,90.4,630.1,90.4z M578.1,89.8
		c12.3,0.1,31.1,0.1,52,0.1s39.7-0.1,52-0.1c-12.3-0.1-31.1-0.1-52-0.1S590.4,89.7,578.1,89.8z"/>
	<path class="st0" d="M477.9,102.5c0,0.2-7,0.3-15.5,0.3s-15.5-0.2-15.5-0.3c0-0.2,7-0.4,15.5-0.4S477.9,102.3,477.9,102.5z"/>
	<path class="st0" d="M462.4,103.1c-4.2,0-8.1,0-11-0.1c-4.8-0.1-4.8-0.2-4.8-0.5c0-0.3,0-0.4,4.8-0.5c2.9-0.1,6.8-0.1,11-0.1
		s8.1,0,11,0.1c4.8,0.1,4.8,0.2,4.8,0.5c0,0.3,0,0.4-4.8,0.5C470.5,103,466.5,103.1,462.4,103.1z M450.3,102.5
		c2.7,0.1,6.9,0.1,12.1,0.1s9.4-0.1,12.1-0.1c-2.7-0.1-6.9-0.1-12.1-0.1S453,102.4,450.3,102.5L450.3,102.5z"/>
	<path class="st0" d="M727.1,102.5c0,0.2-7,0.3-15.5,0.3c-8.6,0-15.6-0.2-15.6-0.3c0-0.2,7-0.4,15.6-0.4
		C720.2,102.1,727.1,102.3,727.1,102.5z"/>
	<path class="st0" d="M711.6,103.1c-4.2,0-8.1,0-11-0.1c-4.8-0.1-4.8-0.2-4.8-0.5c0-0.3,0-0.4,4.8-0.5c2.9-0.1,6.8-0.1,11-0.1
		s8.1,0,11,0.1c4.8,0.1,4.8,0.2,4.8,0.5c0,0.3,0,0.4-4.8,0.5C719.6,103,715.7,103.1,711.6,103.1z M699.4,102.5
		c2.7,0.1,6.9,0.1,12.1,0.1s9.4-0.1,12.1-0.1c-2.7-0.1-6.9-0.1-12.1-0.1S702.2,102.4,699.4,102.5z"/>
</g>
<g id="freepik--Window--inject-41">
	<rect x="468.3" y="-133.5" class="st4" width="348.8" height="196.8"/>
	<path class="st3" d="M817.1,63.3c0-1.5-0.1-75.9-0.2-196.8l0.2,0.2l-348.7,0.1l0,0l0.2-0.2c0,69.6,0,136.2,0,196.8l-0.2-0.2
		L817.1,63.3l-348.7,0.2h-0.2v-0.2c0-60.6,0-127.2,0-196.8v-0.2h0.3l348.7,0.1h0.2v0.2C817.1-12.6,817.1,61.8,817.1,63.3z"/>
	<path class="st3" d="M817.1-112.6c0,0.1-78.1,0.2-174.5,0.2s-174.5-0.1-174.5-0.2c0-0.1,78.1-0.2,174.5-0.2
		S817.1-112.8,817.1-112.6z"/>
	<path class="st3" d="M484.7-122.5c0,1.5-1.2,2.8-2.8,2.8s-2.8-1.2-2.8-2.8s1.2-2.8,2.8-2.8S484.7-124,484.7-122.5z"/>
	<path class="st3" d="M495.3-122.5c0,1.5-1.2,2.8-2.8,2.8c-1.5,0-2.8-1.2-2.8-2.8s1.2-2.8,2.8-2.8C494-125.3,495.3-124,495.3-122.5z
		"/>
	<path class="st3" d="M505.8-122.5c0,1.5-1.2,2.8-2.8,2.8c-1.5,0-2.8-1.2-2.8-2.8s1.2-2.8,2.8-2.8
		C504.6-125.3,505.8-124,505.8-122.5z"/>
	<path class="st5" d="M755.2-81.2c0,0.1-20.7,0.2-46.3,0.2c-25.6,0-46.3-0.1-46.3-0.2s20.7-0.2,46.3-0.2
		C734.5-81.4,755.2-81.3,755.2-81.2z"/>
	<path class="st3" d="M789.5-58.3c0,0.1-28.8,0.2-64.4,0.2c-35.6,0-64.4-0.1-64.4-0.2c0-0.1,28.8-0.2,64.4-0.2
		C760.7-58.6,789.5-58.4,789.5-58.3z"/>
	<path class="st3" d="M789.5-47.2c0,0.1-28.8,0.2-64.4,0.2c-35.6,0-64.4-0.1-64.4-0.2c0-0.1,28.8-0.2,64.4-0.2
		C760.7-47.5,789.5-47.4,789.5-47.2z"/>
	<path class="st5" d="M706.6-10.3h-36.7c-5.6,0-10.2-4.6-10.2-10.2l0,0c0-5.6,4.6-10.2,10.2-10.2h36.7c5.6,0,10.2,4.6,10.2,10.2l0,0
		C716.8-14.9,712.2-10.3,706.6-10.3z"/>
	
		<rect x="490.2" y="-88.8" transform="matrix(-1 3.490651e-003 -3.490651e-003 -1 1096.259 -92.302)" class="st5" width="115.9" height="87.2"/>
	<polygon class="st5" points="490.4,-1.4 530.7,-55.7 555.9,-21.9 572.9,-40.1 606.4,-1.8 	"/>
	<path class="st5" d="M566.4-62.5c0,5-4.1,9.1-9.1,9.2c-5,0-9.1-4.1-9.2-9.1c0-5,4.1-9.1,9.1-9.2c0,0,0,0,0,0
		C562.3-71.6,566.4-67.5,566.4-62.5z"/>
	<g class="st6">
		<polygon points="490.4,-1.4 530.7,-55.7 555.9,-21.9 572.9,-40.1 606.4,-1.8 		"/>
	</g>
	<g class="st6">
		<path d="M566.4-62.5c0,5-4.1,9.1-9.1,9.2c-5,0-9.1-4.1-9.2-9.1c0-5,4.1-9.1,9.1-9.2c0,0,0,0,0,0C562.3-71.6,566.4-67.5,566.4-62.5
			z"/>
	</g>
	
		<rect x="612.4" y="-88.8" transform="matrix(-1 3.490651e-003 -3.490651e-003 -1 1258.723 -154.1391)" class="st5" width="34.3" height="25.7"/>
	<polygon class="st5" points="612.4,-63.1 624.3,-79.1 631.8,-69.1 636.8,-74.5 646.7,-63.2 	"/>
	<path class="st5" d="M634.9-81.1c0,1.5-1.2,2.7-2.7,2.7s-2.7-1.2-2.7-2.7c0-1.5,1.2-2.7,2.7-2.7C633.7-83.8,634.9-82.6,634.9-81.1
		C634.9-81.1,634.9-81.1,634.9-81.1z"/>
	<g class="st6">
		<polygon points="612.4,-63.1 624.3,-79.1 631.8,-69.1 636.8,-74.5 646.7,-63.2 		"/>
	</g>
	<g class="st6">
		<path d="M634.9-81.1c0,1.5-1.2,2.7-2.7,2.7s-2.7-1.2-2.7-2.7c0-1.5,1.2-2.7,2.7-2.7C633.7-83.8,634.9-82.6,634.9-81.1
			C634.9-81.1,634.9-81.1,634.9-81.1z"/>
	</g>
	
		<rect x="612.4" y="-58" transform="matrix(-1 3.490651e-003 -3.490651e-003 -1 1258.8239 -92.4777)" class="st5" width="34.3" height="25.7"/>
	<polygon class="st5" points="612.4,-32.2 624.3,-48.3 631.8,-38.3 636.8,-43.7 646.7,-32.4 	"/>
	<path class="st5" d="M634.9-50.3c0,1.5-1.2,2.7-2.7,2.7s-2.7-1.2-2.7-2.7c0-1.5,1.2-2.7,2.7-2.7C633.7-53,634.9-51.8,634.9-50.3
		C634.9-50.3,634.9-50.3,634.9-50.3z"/>
	<g class="st6">
		<polygon points="612.4,-32.2 624.3,-48.3 631.8,-38.3 636.8,-43.7 646.7,-32.4 		"/>
	</g>
	<g class="st6">
		<path d="M634.9-50.3c0,1.5-1.2,2.7-2.7,2.7s-2.7-1.2-2.7-2.7c0-1.5,1.2-2.7,2.7-2.7C633.7-53,634.9-51.8,634.9-50.3
			C634.9-50.3,634.9-50.3,634.9-50.3z"/>
	</g>
	
		<rect x="612.4" y="-27" transform="matrix(-1 3.490651e-003 -3.490651e-003 -1 1258.9266 -30.4278)" class="st5" width="34.3" height="25.7"/>
	<polygon class="st5" points="612.4,-1.2 624.3,-17.3 631.8,-7.3 636.8,-12.6 646.7,-1.3 	"/>
	<path class="st5" d="M634.9-19.3c0,1.5-1.2,2.7-2.7,2.7c-1.5,0-2.7-1.2-2.7-2.7c0-1.5,1.2-2.7,2.7-2.7
		C633.7-21.9,634.9-20.7,634.9-19.3z"/>
	<g class="st6">
		<polygon points="612.4,-1.2 624.3,-17.3 631.8,-7.3 636.8,-12.6 646.7,-1.3 		"/>
	</g>
	<g class="st6">
		<path d="M634.9-19.3c0,1.5-1.2,2.7-2.7,2.7c-1.5,0-2.7-1.2-2.7-2.7c0-1.5,1.2-2.7,2.7-2.7C633.7-21.9,634.9-20.7,634.9-19.3z"/>
	</g>
	<circle class="st3" cx="537.8" cy="9.1" r="2.4"/>
	<circle class="st0" cx="548.4" cy="9.1" r="2.4"/>
	<circle class="st0" cx="559" cy="9.1" r="2.4"/>
	<path class="st3" d="M711.4,29.4c0,0.1-50.4,0.2-112.6,0.2s-112.6-0.1-112.6-0.2c0-0.1,50.4-0.2,112.6-0.2S711.4,29.3,711.4,29.4z"
		/>
	<path class="st3" d="M711.4,42.1c0,0.1-50.4,0.2-112.6,0.2s-112.6-0.1-112.6-0.2c0-0.1,50.4-0.2,112.6-0.2S711.4,41.9,711.4,42.1z"
		/>
</g>
<g id="freepik--Character--inject-41">
	<path class="st3" d="M763.1,40.5c-27.8,0-50.4-22.6-50.3-50.5c0-27.8,22.6-50.4,50.5-50.3c10.5,0,20.8,3.3,29.3,9.5l0,0
		c22.6,16.2,27.8,47.7,11.6,70.4C794.6,32.7,779.4,40.5,763.1,40.5L763.1,40.5z M763.2-57c-26,0-47,21-47.1,46.9
		c0,26,21,47,46.9,47.1c26,0,47-21,47.1-46.9c0-15.1-7.2-29.4-19.5-38.2C782.6-53.9,773-57,763.2-57z"/>
	<path class="st3" d="M863.6,53.6L863.6,53.6c-1.9,2.9-5.8,3.7-8.7,1.9l-52.7-34.1c-0.5-0.3-0.6-1-0.3-1.5c0,0,0,0,0,0l4.5-6.9
		c0.3-0.5,1-0.6,1.5-0.3l53.8,32.2c3,1.8,3.9,5.6,2.1,8.6C863.7,53.5,863.6,53.6,863.6,53.6z"/>
	<path class="st2" d="M763.1,37.6c-27.8,0-50.4-22.7-50.3-50.5s22.7-50.4,50.5-50.3c10.5,0,20.8,3.3,29.3,9.5l0,0
		c22.6,16.2,27.8,47.7,11.6,70.4C794.6,29.8,779.4,37.7,763.1,37.6z M763.2-59.8c-26,0-47,21-47,47s21,47,47,47c26,0,47-21,47-47
		c0-15.1-7.3-29.4-19.6-38.2C782.6-56.7,773-59.8,763.2-59.8L763.2-59.8z"/>
	<path class="st2" d="M801.3,18l5.6-8.7l0,0l56,36.1c2.4,1.5,3,4.7,1.5,7l-0.1,0.2c-1.5,2.4-4.7,3-7,1.5L801.3,18L801.3,18z"/>
	<path class="st3" d="M745.9-8.3c-2,0.2-4,0.3-6,0.2h-0.1l0.1-0.1c-1.5,1.3-3.1,2.5-4.8,3.5c1.4-1.4,2.9-2.7,4.5-3.9l0.1-0.1h0.2
		C741.9-8.6,743.9-8.5,745.9-8.3z"/>
	<path class="st3" d="M749.8,3.9c-0.5,0.4-1.1,0.8-1.8,1.1c-1.1,0.6-2.7,1.5-4.4,2.4l-1.1,0.5l0.1-0.1c-0.8,1.8-1.8,3.5-2.8,5.2
		c0.7-1.9,1.5-3.7,2.4-5.4V7.5h0.1l1.1-0.5c1.7-0.9,3.3-1.7,4.5-2.3C748.4,4.4,749.1,4.1,749.8,3.9z"/>
	<path class="st3" d="M775-19.2c0.6-0.4,1.2-0.6,1.9-0.8c1.2-0.5,2.9-1.1,4.7-1.7l0.6-0.2l-0.1,0.1c1.2-1.4,2.3-2.6,3.1-3.4
		c0.4-0.5,0.8-0.9,1.4-1.3c-0.3,0.5-0.7,1.1-1.1,1.5c-0.7,0.9-1.8,2.1-3,3.5l0,0h-0.1l-0.6,0.2c-1.9,0.6-3.5,1.2-4.8,1.6
		C776.4-19.5,775.7-19.3,775-19.2z"/>
	<path class="st3" d="M778.8-8.3c2-0.2,4-0.3,6-0.2h0.2l0.1,0.1c1.6,1.2,3.1,2.5,4.5,3.9c-1.7-1.1-3.3-2.2-4.8-3.5L785-8h-0.1
		C782.9-8,780.8-8,778.8-8.3z"/>
	<path class="st3" d="M775,3.9c0.7,0.2,1.3,0.5,1.9,0.8c1.2,0.6,2.8,1.4,4.5,2.3l1.1,0.5h0.1v0.1c0.9,1.7,1.7,3.6,2.4,5.4
		c-1.1-1.7-2-3.4-2.8-5.2l0.1,0.1l-1.1-0.5c-1.7-0.9-3.3-1.7-4.4-2.4C776.1,4.7,775.5,4.3,775,3.9z"/>
	<circle class="st3" cx="763.7" cy="-27" r="9.8"/>
	<circle class="st5" cx="763.1" cy="-8.3" r="18"/>
	<circle class="st5" cx="763.1" cy="-8.3" r="18"/>
	<path class="st3" d="M757.9-34.8c-0.8-0.5-1.6-1.1-2.2-1.9c-0.7-0.6-1.4-1.4-1.9-2.2c0.8,0.5,1.6,1.1,2.2,1.9
		C756.8-36.3,757.4-35.6,757.9-34.8z"/>
	<path class="st3" d="M769.5-34.6c0.5-0.8,1.1-1.6,1.9-2.2c0.6-0.7,1.4-1.4,2.2-1.9C772.4-37.1,771.1-35.7,769.5-34.6L769.5-34.6z"
		/>
	<path class="st3" d="M763.5,10c-0.1,0-0.2-8.1-0.2-18.2s0.1-18.2,0.2-18.2c0.1,0,0.2,8.1,0.2,18.2S763.6,10,763.5,10z"/>
	<path class="st4" d="M760.5,7.7c-0.3,0-0.6,0-0.9-0.1c-0.9-0.1-1.7-0.4-2.5-0.7c-2.7-1.1-5.1-3-6.7-5.4c-2.1-3.2-3.3-6.9-3.3-10.7
		c0-0.3,0-0.6,0.1-0.9c0.1,0,0.1,1.4,0.5,3.5c0.5,2.8,1.6,5.5,3.2,7.8c1.6,2.3,3.9,4.2,6.5,5.4C758.3,7.1,759.4,7.4,760.5,7.7z"/>
	<path class="st4" d="M748-14.7c0.1,0,0,0.7-0.2,1.6c-0.2,0.8-0.3,1.5-0.5,1.5s-0.2-0.7,0-1.6C747.6-14.1,747.9-14.7,748-14.7z"/>
	<path class="st0" d="M724-7.4c-0.2-0.5-0.3-1-0.4-1.5c-0.2-0.6-0.3-1.2-0.4-1.9c-0.1-0.8-0.2-1.6-0.3-2.4c0-0.5-0.1-0.9-0.1-1.4
		s0-1,0-1.6c0-1.1,0.1-2.2,0.2-3.4c0.6-5.2,2.3-10.3,5-14.8c0.6-1,1.2-1.9,1.9-2.8c0.3-0.4,0.6-0.9,0.9-1.2l0.9-1.1
		c0.5-0.6,1.1-1.2,1.7-1.8c0.4-0.4,0.9-0.9,1.4-1.2c0.4-0.3,0.8-0.7,1.3-0.9c-0.4,0.4-0.7,0.8-1.1,1.1c-0.5,0.4-0.9,0.8-1.3,1.3
		c-0.5,0.5-1.1,1.1-1.7,1.8l-0.9,1.1c-0.3,0.4-0.6,0.8-0.9,1.2c-0.7,0.8-1.2,1.9-1.9,2.8c-1.3,2.2-2.4,4.6-3.2,7
		c-0.8,2.5-1.4,5-1.7,7.6c-0.1,1.2-0.2,2.3-0.2,3.4c0,0.5,0,1,0,1.5c0,0.5,0,0.9,0.1,1.4c0,0.8,0.1,1.6,0.2,2.4
		c0,0.6,0.1,1.2,0.3,1.9C723.8-8.4,723.9-7.9,724-7.4z"/>
	<path class="st7" d="M865.2,17.9L865.2,17.9c-4.4,0.4-8.2-2.9-8.6-7.3c0-0.1,0-0.2,0-0.3c-0.2-4.3-0.3-8.7-0.3-8.7
		s-6.6-0.6-7.1-7.1c-0.5-6.5-0.3-21.6-0.3-21.6l0,0c7.4-3.7,16.2-3.2,23,1.4l-0.3,23V9.6C871.4,13.7,869.3,17.6,865.2,17.9z"/>
	<path class="st8" d="M857.4-10c0,0,0,0.1,0.1,0.3c0.2,0.2,0.4,0.3,0.7,0.4c1-0.1,1.7-0.9,1.7-1.9c0-0.5-0.1-1-0.5-1.4
		c-0.3-0.3-0.6-0.5-1-0.6c-0.7-0.1-1.1,0.1-1,0.2s0.4,0,0.9,0.2c0.7,0.2,1.2,0.9,1.1,1.6c0,0.7-0.5,1.4-1.2,1.5
		C857.6-9.7,857.4-10.1,857.4-10z"/>
	<path class="st7" d="M817.2,31.4c0,0-1.8-4.9-2.7-5.4s-3.2-2.1-4-3.6c-0.5-1-1.2-0.6-1.2-0.6l0,0c-0.3,0.6-0.2,1.4,0.2,1.9l1.4,1.9
		l-8-4.3c-0.2,0.8,0,1.7,0.5,2.3c0.9,1.1,0.6,1,0.6,1s-0.9,0.6-0.4,1.4c0.4,0.6,0.9,1.2,1.3,1.8c-0.4,0.6-0.6,1.3-0.4,2.1
		c-0.2,0.7-0.2,1.4,0,2.1c0.3,1.2,2.5,3.3,2.5,3.3l9.3,5.2l4.6-6.9L817.2,31.4z"/>
	<path class="st8" d="M808.1,24.3c1.5,1,3.1,1.9,4.8,2.6C811.4,25.9,809.8,25,808.1,24.3z"/>
	<path class="st8" d="M803.8,24.3c0.6,0.8,1.3,1.5,2.1,2.1c0.7,0.7,1.5,1.3,2.3,1.9c-0.6-0.8-1.3-1.4-2.1-2.1
		C805.4,25.5,804.6,24.9,803.8,24.3z"/>
	<path class="st8" d="M804.5,27.6c0.3,0.5,0.6,0.9,1,1.3c0.3,0.4,0.7,0.8,1.2,1.1c-0.3-0.5-0.6-0.9-1-1.3
		C805.4,28.3,805,27.9,804.5,27.6z"/>
	<path class="st8" d="M804.4,29.9c-0.1,0.1,0.2,0.4,0.5,0.8c0.3,0.4,0.6,0.7,0.7,0.7c0.1,0-0.1-0.4-0.4-0.9
		C804.8,30.1,804.5,29.8,804.4,29.9z"/>
	<polygon class="st7" points="892.8,175.1 894.9,213.4 881,216.8 878.3,179.3 	"/>
	<polygon class="st5" points="895.3,213.1 897.7,223.5 881.7,223.5 881,216.7 	"/>
	<path class="st3" d="M881.4,222c0.8,0.1,1.6,0.2,2.3,0.1c1.4,0,3.4,0,5.6-0.1l5.6-0.2c0.8,0,1.6-0.1,2.3-0.2
		c-0.8-0.1-1.6-0.2-2.3-0.1c-1.4,0-3.4,0-5.6,0.1l-5.6,0.2C882.9,221.8,882.2,221.8,881.4,222z"/>
	<path class="st3" d="M888.2,215.1c-0.1,2.2,0,4.5,0.5,6.7c0.1-1.1,0.1-2.3,0-3.4C888.6,217.3,888.5,216.2,888.2,215.1z"/>
	<g class="st9">
		<polyline class="st4" points="897.7,223.5 881.7,223.5 881.6,222 897.4,221.6 897.7,223.3 		"/>
	</g>
	<polygon class="st7" points="840.1,193.7 836.8,219.1 824.5,218.3 827.1,195 	"/>
	<path class="st5" d="M824.3,215.5L824.3,215.5c0,0-13.8,4.6-14,7.2l26.4,0.8l0.2-6.9l-0.9,0.2C832.1,217.5,828,217.1,824.3,215.5z"
		/>
	<g class="st9">
		<path class="st4" d="M833.9,217.8c0.5,0.2,0.8,0.7,0.7,1.3c-0.2,0.5-0.7,0.8-1.2,0.7c-0.6-0.2-0.9-0.8-0.7-1.3
			c0.2-0.5,0.8-0.8,1.4-0.6"/>
	</g>
	<g class="st9">
		<path class="st4" d="M836.7,223.5v-2.1l-25.3,0.1c0,0-1.2,0.5-1.1,1.3L836.7,223.5z"/>
	</g>
	<path class="st3" d="M823.9,215.4c0,0.1,0.6,0.2,1.3,0.6s0.9,1,1.1,0.9c0.1-0.1,0-0.8-0.8-1.3C824.7,215.1,823.9,215.2,823.9,215.4
		z"/>
	<path class="st3" d="M821.1,216.4c0,0.1,0.5,0.4,0.9,0.9c0.4,0.6,0.5,1.1,0.7,1.1s0.2-0.7-0.3-1.4S821.1,216.3,821.1,216.4z"/>
	<path class="st3" d="M819.5,219.7c0.1,0,0.3-0.6,0-1.3c-0.3-0.7-0.9-1-0.9-0.9s0.3,0.5,0.5,1.1S819.3,219.7,819.5,219.7z"/>
	<path class="st3" d="M824.2,215.3c0.4,0.1,0.9,0.1,1.3,0c0.5-0.1,0.9-0.2,1.4-0.4c0.3-0.1,0.5-0.2,0.8-0.4c0.2-0.1,0.3-0.2,0.4-0.3
		c0.2-0.2,0.2-0.5,0.1-0.7c-0.1-0.2-0.3-0.3-0.6-0.3c-0.2,0-0.3,0-0.5,0.1c-0.3,0.1-0.6,0.1-0.8,0.3c-0.5,0.2-0.9,0.4-1.2,0.8
		C824.5,214.9,824.2,215.3,824.2,215.3c0.1,0.1,0.4-0.3,1-0.7c0.4-0.3,0.8-0.5,1.2-0.6c0.3-0.1,0.5-0.2,0.8-0.2
		c0.3-0.1,0.5-0.1,0.6,0.1c0.1,0.1,0,0.1,0,0.1c-0.1,0.1-0.2,0.2-0.3,0.2c-0.2,0.1-0.5,0.3-0.7,0.4c-0.4,0.2-0.9,0.3-1.3,0.5
		C825.1,215.1,824.7,215.2,824.2,215.3z"/>
	<path class="st3" d="M824.4,215.5c0,0,0.3-0.4,0.4-1.3c0-0.5,0-1-0.1-1.5c-0.1-0.3-0.2-0.6-0.3-0.8c-0.1-0.4-0.4-0.6-0.8-0.7
		c-0.2,0-0.5,0.1-0.6,0.4c-0.1,0.2-0.1,0.3-0.1,0.5c-0.1,0.8,0,1.6,0.5,2.3c0.5,0.7,1,0.9,1,0.8c-0.3-0.3-0.5-0.6-0.8-1
		c-0.2-0.4-0.3-0.8-0.4-1.2c0-0.3,0-0.5,0-0.8c0-0.3,0.2-0.5,0.3-0.5c0.1,0,0.3,0.2,0.4,0.5c0.1,0.2,0.2,0.5,0.3,0.7
		c0.1,0.4,0.2,0.9,0.2,1.3C824.5,215,824.3,215.5,824.4,215.5z"/>
	<path class="st3" d="M882.6,65.2c0,0,7.1,12.1,8.3,26.4l3.9,118.2l-15.4,3.7L867.6,97.6c0,0-28.4,116.2-29.4,116.2
		s-14.9-2.5-14.9-2.5l21.3-145.5L882.6,65.2z"/>
	<path class="st2" d="M876.8,95.6C876.8,95.6,877,96.4,876.8,95.6C876.8,95.8,876.6,95.2,876.8,95.6c0,0.8,0.2,1.9,0.4,3.3
		c0.5,2.9,1.1,7.1,1.9,12.3c1.6,10.4,3.5,24.8,5.2,40.7c1.6,16,2.6,30.4,3.2,40.9c0.3,5.2,0.5,9.5,0.6,12.4c0.1,1.4,0.1,2.6,0.2,3.4
		c0,0.4,0,0.7,0.1,0.9c0,0.1,0,0.2,0,0.3c0-0.1,0-0.2,0-0.3c0-0.2,0-0.5,0-0.9c0-0.8,0-1.9-0.1-3.4c-0.1-2.9-0.2-7.2-0.5-12.4
		c-0.5-10.5-1.5-25-3.1-41s-3.6-30.3-5.3-40.7c-0.8-5.2-1.5-9.4-2.1-12.3C877.1,97.5,876.9,96.3,876.8,95.6
		C876.7,95.2,876.7,95.8,876.8,95.6L876.8,95.6z"/>
	<path class="st2" d="M852.1,96.4c-0.1,0-4.8,26-10.5,58.1c-5.7,32.1-10.2,58.2-10.1,58.2s4.8-26,10.5-58.1S852.3,96.4,852.1,96.4z"
		/>
	<path class="st2" d="M868.1,97.4c0.1-0.1,0.1-0.2,0.2-0.3l0.4-0.9c0.4-1.1,0.8-2.2,1.1-3.3c1-3.8,1.4-7.7,1.1-11.6
		c-0.1-1.1-0.2-2.2-0.4-3.3c-0.2-1.1-0.5-2.1-0.7-3c-0.5-1.9-1.1-3.6-1.6-5c-0.5-1.4-0.9-2.5-1.2-3.3l-0.4-0.9
		c-0.1-0.2-0.1-0.3-0.2-0.3c0,0.1,0,0.2,0.1,0.3c0.1,0.2,0.2,0.6,0.3,0.9l1.1,3.3c0.5,1.4,1,3.1,1.5,5c0.3,0.9,0.5,1.9,0.7,3
		c0.2,1.1,0.3,2.2,0.4,3.3c0.3,3.9,0,7.7-1,11.5c-0.4,1.4-0.8,2.6-1,3.4C868.4,96.5,868.2,97,868.1,97.4z"/>
	<path class="st2" d="M863.8,77.5c0,0.1,0,0.2,0,0.2c0,0.2,0,0.4,0,0.6c0,0.6-0.1,1.4-0.1,2.3c-0.1,2-0.2,4.9-0.3,8.2l0.1-0.1
		l-5.9,2.4h0.1l-4.8-2.9c-0.1-0.1-0.2-0.1-0.3-0.2l0.1,0.1c-0.4-3.9-0.7-7.6-1-10.8l-0.2,0.2l8.9-0.1l2.5,0h0.7
		C863.6,77.5,863.7,77.5,863.8,77.5c0,0-0.3,0-0.9,0h-2.5l-9-0.1h-0.2v0.2c0.3,3.2,0.6,6.9,0.9,10.8v0.1l0.1,0l0.3,0.2l4.8,2.9
		l0.1,0.1h0.1l5.9-2.5l0.1,0v-0.1c0.1-3.4,0.1-6.3,0.1-8.3c0-0.9,0-1.7,0-2.3C863.7,78.1,863.8,77.8,863.8,77.5z"/>
	<path class="st2" d="M886.1,74.4c0,0.3,0.1,0.5,0.1,0.8l0.3,2.2c0.3,1.9,0.7,4.5,1.2,7.6l0.1-0.2l-4.5,3.3h0.2l-5.5-1.5l-0.3-0.1
		l0.1,0.1l-2.9-9.8l-0.1,0.2l8-1.9l2.3-0.6C885.5,74.5,885.8,74.4,886.1,74.4l-0.8,0.1L883,75l-8.2,1.8h-0.2v0.2
		c0.8,2.9,1.8,6.2,2.8,9.8v0.1h0.1l0.3,0.1l5.5,1.5h0.1l0.1,0l4.5-3.3l0.1-0.1v-0.1c-0.6-3.2-1.1-5.8-1.4-7.7
		c-0.2-0.9-0.3-1.6-0.4-2.1C886.1,74.8,886.1,74.6,886.1,74.4z"/>
	<path class="st2" d="M855,95.1c4.3,1.2,8.7,2.1,13.2,2.9c-2.2-0.7-4.3-1.2-6.6-1.6C859.4,95.8,857.2,95.4,855,95.1z"/>
	<path class="st2" d="M874.1,95.6c0.6,0.1,1.1,0.1,1.7,0c2.7-0.2,5.4-0.9,7.9-1.9c0.5-0.2,1-0.4,1.5-0.7c-0.5,0.1-1.1,0.3-1.6,0.5
		c-1,0.3-2.3,0.7-3.9,1.1s-2.9,0.6-3.9,0.7C875.2,95.4,874.6,95.5,874.1,95.6z"/>
	<polyline class="st5" points="855,7.5 856.7,4 871.4,3.4 873.8,8 855.2,8 	"/>
	<polygon class="st5" points="819.5,32.3 813.9,40.2 830.1,54 835.6,41.2 	"/>
	<polygon class="st5" points="891.3,51.5 877.1,45.9 880.3,34.1 891.9,38.1 	"/>
	<path class="st5" d="M831.2,54.7c-3.5-1.8-4.4-6-2.7-9.5l14.7-31.5c0.3-0.8,0.8-1.5,1.5-2c3.3-3,7.7-4.5,12.2-4.2l15.3-0.4
		c0,0,12,0,16.6,9.5c0.3,0.7,7.3,14.6,11.9,23.7c2,3.9,0.4,8.7-3.5,10.6c-0.3,0.1-0.6,0.3-0.8,0.4l0,0c-3.9,1.4-8.2-0.4-10-4.2
		l-5-11.2l-3.2,16l4.5,13.2l-38,0.5l2.9-17.6l0.9-12.6l-7.7,15.9C839.2,55,834.8,56.5,831.2,54.7C831.2,54.7,831.2,54.7,831.2,54.7
		L831.2,54.7z"/>
	<g class="st6">
		<path d="M876.9,51.7c-2.9,2.2-7.1,1.4-10.7,0.9c-3.6-0.5-6.9-2.3-9.3-5c-1.1-1.2-1.7-2.8-1.7-4.4c0.1-1.6,1.6-3.2,3.2-3
			c1.9,0.2,2.7,2.3,3.6,3.9c3,5.2,8.9,8,14.8,7C876.9,51,877.5,51.3,876.9,51.7z"/>
	</g>
	<g class="st6">
		<path d="M853.5,27c-0.9,7.2-0.5,6.7-2,13.8c-0.7,3.5-1.6,7.2-4.1,9.8l1.2-15.1L853.5,27z"/>
	</g>
	<polygon class="st5" points="882.8,65.2 883.9,62 881,60.2 846.1,57.3 843.7,61.9 844.7,65.7 	"/>
	<path class="st3" d="M881.5,37.5c0.2,0.6,0.5,1.2,0.8,1.8c0.5,1.1,1.3,2.5,2.2,4.1c0.9,1.6,1.9,3,2.5,3.9c0.3,0.5,0.7,1.1,1.2,1.5
		c-0.3-0.6-0.6-1.1-0.9-1.7c-0.6-1-1.5-2.4-2.4-4c-0.9-1.6-1.7-3-2.3-4.1C882.2,38.6,881.9,38.1,881.5,37.5z"/>
	<path class="st3" d="M884.8,43.6c-0.2,1.8,0.3,3.6,1.6,4.9c0.1-0.1-0.5-1-1-2.4C885,44.7,884.9,43.6,884.8,43.6z"/>
	<path class="st3" d="M847.2,11.9c0,0.1,0.6,0.3,1.6,0.9c1.2,0.8,2.3,1.8,3.1,3c0.8,1.2,1.3,2.6,1.5,4c0.2,1.1,0.1,1.8,0.2,1.8
		c0.2-0.6,0.2-1.2,0.1-1.9c-0.1-1.5-0.6-2.9-1.5-4.2c-0.8-1.3-2-2.3-3.3-3C848.4,12.3,847.8,12,847.2,11.9z"/>
	<path class="st3" d="M878.3,52.2c0.1,0,1.9-7.3,3.8-16.3s3.6-16.3,3.5-16.4s-1.9,7.3-3.8,16.3S878.2,52.2,878.3,52.2z"/>
	<path class="st3" d="M827.8,42.8c0.6-0.5,1.2-1,1.7-1.6c0.6-0.5,1.1-1,1.6-1.6C829.7,40.3,828.6,41.4,827.8,42.8z"/>
	<path class="st3" d="M840.6,52c0.2-0.3,0.4-0.6,0.6-0.9c0.4-0.6,0.9-1.6,1.5-2.7c1.2-2.3,2.8-5.5,4.6-9c1.8-3.5,3.4-6.7,4.6-9
		c0.6-1.1,1-2,1.4-2.7c0.2-0.3,0.4-0.7,0.5-1c-0.2,0.3-0.4,0.6-0.6,0.9c-0.4,0.6-0.9,1.5-1.5,2.7c-1.2,2.3-2.9,5.5-4.6,9
		c-1.7,3.5-3.3,6.7-4.5,9.1L841,51C840.9,51.3,840.7,51.6,840.6,52z"/>
	<path class="st3" d="M854.3,42.3c0,0,0,0.1,0,0.2c0,0.2,0.1,0.5,0.1,0.7c0.2,0.9,0.5,1.7,0.9,2.5c1.5,2.5,3.7,4.5,6.4,5.7
		c2.7,1.1,5.5,1.8,8.4,2.1c1.1,0.1,2,0.2,2.6,0.2c0.3,0,0.6,0,0.9,0c-0.3-0.1-0.6-0.1-0.9-0.2l-2.6-0.4c-2.8-0.3-5.6-1.1-8.3-2.2
		c-2.6-1.1-4.8-3.1-6.3-5.5C855,44.5,854.5,43.4,854.3,42.3z"/>
	<path class="st3" d="M861.9,60.7c0,0.1,4.7,0.5,10.5,0.9c5.8,0.4,10.6,0.7,10.6,0.6c0-0.1-4.7-0.5-10.5-0.9
		C866.6,60.9,861.9,60.6,861.9,60.7z"/>
	<path class="st3" d="M855.8,57.9c-0.4,1.1-0.7,2.3-0.8,3.6c-0.2,1.2-0.2,2.4,0,3.7c0.1,0,0.2-1.6,0.4-3.6
		C855.6,60.3,855.7,59.1,855.8,57.9z"/>
	<path class="st3" d="M853.4,55.6c-0.2,0.5-0.3,0.9-0.3,1.4c-0.2,1.2-0.2,2.4-0.1,3.6c0.1,1.2,0.3,2.4,0.6,3.5
		c0.1,0.5,0.3,1,0.5,1.4c0.1,0-0.6-2.2-0.7-4.9S853.5,55.6,853.4,55.6z"/>
	<path class="st3" d="M855,7.7c0,0.1,3.4,0,7.6-0.2c2.5-0.1,5.1-0.3,7.6-0.6c0-0.1-3.4,0-7.6,0.2C858.3,7.4,855,7.6,855,7.7z"/>
	<path class="st3" d="M855.9,7.5c-0.2,0-0.3,0.1-0.5,0.1l-1.4,0.2l-2.2,0.4c-1,0.1-1.9,0.4-2.8,0.9c-1.1,0.5-2.1,1.2-3,2
		c-1,0.9-1.9,2-2.6,3.2c-1.3,2.6-2.6,5.6-4.1,8.7c-2.9,6.1-5.6,11.7-7.5,15.7c-0.9,2-1.7,3.6-2.3,4.8l-0.6,1.3
		c-0.1,0.2-0.1,0.3-0.2,0.4c0-0.2,0.1-0.3,0.2-0.5c0.1-0.3,0.3-0.8,0.6-1.3l2.2-4.8c1.9-4.1,4.5-9.7,7.4-15.8c1.5-3.1,2.8-6,4.1-8.7
		c0.7-1.2,1.6-2.3,2.7-3.3c0.9-0.8,2-1.5,3.1-2c0.9-0.4,1.9-0.7,2.9-0.8c0.9-0.1,1.6-0.3,2.2-0.3s1.1-0.1,1.4-0.1
		C855.5,7.4,855.7,7.5,855.9,7.5z"/>
	<path class="st10" d="M844.7,45.6c0,0-0.1,0-0.2,0l-0.4-0.1c-0.4-0.1-0.9-0.1-1.6-0.3c-1.8-0.3-3.6-0.8-5.2-1.5
		c-1.7-0.7-3.1-1.9-4.3-3.3c-0.5-0.6-0.8-1.3-1-2c0,0,0.1,0.2,0.3,0.5c0.2,0.5,0.5,1,0.9,1.4c1.1,1.4,2.6,2.5,4.2,3.3
		c1.7,0.7,3.4,1.3,5.2,1.6l1.6,0.3l0.4,0.1L844.7,45.6z"/>
	<path class="st10" d="M828.3,37.2c-0.1,0.1-0.3,0.1-0.4,0.1c-0.4,0.1-0.7,0.2-1.1,0.3c-1.2,0.4-2.3,1.1-3.3,1.9
		c-1,0.8-1.9,1.7-2.6,2.8c-0.3,0.4-0.5,0.7-0.6,1c-0.1,0.1-0.1,0.2-0.2,0.4c0-0.1,0.1-0.3,0.2-0.4c0.2-0.4,0.4-0.7,0.6-1
		c1.4-2.2,3.6-3.8,6-4.6c0.4-0.1,0.7-0.2,1.1-0.3C828,37.3,828.1,37.2,828.3,37.2z"/>
	<path class="st10" d="M852.3,28h-0.1h-0.4c-0.4,0-0.9-0.1-1.5-0.2c-1.6-0.3-3.2-0.7-4.7-1.3c-1.5-0.6-3-1.4-4.3-2.3
		c-0.5-0.4-0.9-0.6-1.2-0.9l-0.3-0.3l-0.1-0.1c0,0,0,0,0.1,0.1l0.3,0.2c0.3,0.2,0.7,0.5,1.2,0.8c2.8,1.8,5.8,3,9,3.6
		c0.6,0.1,1.1,0.2,1.5,0.2l0.4,0.1H852.3z"/>
	<path class="st10" d="M884.6,12c0,0-0.5-0.1-1.3-0.1c-1.2-0.1-2.4,0-3.6,0.2c-1.5,0.2-3.3,0.7-5.3,1.1c-2.2,0.5-4.4,0.6-6.6,0.5
		c-2.4-0.1-4.6-0.4-6.6-0.6c-1.8-0.2-3.6-0.3-5.4-0.3c-1.2,0-2.4,0.2-3.6,0.4l-0.9,0.2l-0.3,0.1l0.3-0.1l0.9-0.3
		c1.2-0.2,2.4-0.4,3.6-0.4c1.8,0,3.6,0,5.4,0.2c2,0.2,4.3,0.5,6.6,0.6c2.2,0.1,4.4-0.1,6.6-0.5c2-0.4,3.8-0.9,5.3-1.1
		c1.2-0.2,2.5-0.3,3.7-0.2c0.3,0,0.7,0.1,1,0.1L884.6,12z"/>
	<path class="st10" d="M882.9,30.3h-0.3l-0.9,0.1l-3.3,0.2c-2.8,0.2-6.7,0.5-10.9,0.6c-3.7,0.1-7.3-0.1-10.9-0.7
		c-1.5-0.3-3-0.6-4.4-1.1l0.3,0.1l0.9,0.2c0.7,0.2,1.9,0.5,3.2,0.7c3.6,0.6,7.3,0.8,10.9,0.7c4.3-0.1,8.1-0.4,10.9-0.5l3.3-0.2h0.9
		L882.9,30.3z"/>
	<path class="st10" d="M896.3,32.1c0,0,0,0-0.1,0.1l-0.3,0.3c-0.4,0.4-0.8,0.8-1.2,1.1c-2.7,2.4-5.9,4.1-9.4,5
		c-0.7,0.2-1.2,0.3-1.6,0.3l-0.4,0.1h-0.2h0.1l0.4-0.1c0.4-0.1,0.9-0.2,1.6-0.4c3.5-0.9,6.7-2.6,9.4-5c0.5-0.5,0.9-0.8,1.2-1.1
		l0.3-0.3C896.3,32.1,896.3,32.1,896.3,32.1z"/>
	<path class="st10" d="M890,21c0,0.1-0.1,0.1-0.2,0.2c-0.2,0.2-0.3,0.3-0.5,0.5c-0.6,0.5-1.3,0.9-2,1.2c-0.7,0.3-1.4,0.6-2.2,0.7
		c-0.2,0-0.5,0.1-0.7,0.1c-0.1,0-0.2,0-0.3,0c0,0,0.4-0.1,0.9-0.2c0.7-0.2,1.5-0.4,2.1-0.8c0.7-0.3,1.3-0.7,2-1.2
		C889.7,21.3,890,21,890,21z"/>
	<path class="st10" d="M901.4,43.6c-0.4,0.6-0.9,1.2-1.4,1.7c-0.6,0.5-1.2,1-1.9,1.5c-1.6,1.1-3.5,1.8-5.4,2.2
		c-0.8,0.1-1.6,0.2-2.4,0.2c-0.7,0-1.4,0-2.1-0.2h0.2h0.4c2.3,0.2,4.6-0.2,6.7-1c1.6-0.7,3.1-1.6,4.4-2.8c0.4-0.4,0.8-0.7,1.1-1.1
		L901.4,43.6L901.4,43.6z"/>
	<path class="st10" d="M872.6,4.9h-0.2H872l-1.9-0.1c-1.5,0-3.6,0-6,0.1c-2.3,0.1-4.4,0.4-5.9,0.6l-1.8,0.3L855.9,6h-0.2
		c0,0,0.1,0,0.2,0l0.5-0.1c0.4-0.1,1-0.2,1.8-0.3c2-0.3,4-0.6,6-0.7c2-0.1,4-0.1,6,0c0.8,0,1.4,0.1,1.9,0.1l0.5,0L872.6,4.9z"/>
	<path class="st10" d="M854.3,45.5c-0.1,0-0.2,0-0.3,0c-0.2,0-0.5-0.1-0.7-0.1c-0.8-0.2-1.6-0.4-2.3-0.7c-0.7-0.3-1.5-0.7-2.1-1.2
		c-0.2-0.1-0.4-0.3-0.6-0.4c-0.1-0.1-0.2-0.2-0.2-0.2c0,0,0.3,0.2,0.8,0.5c0.7,0.4,1.4,0.8,2.1,1.1c0.7,0.3,1.5,0.6,2.3,0.7
		C853.7,45.3,854,45.4,854.3,45.5z"/>
	<path class="st10" d="M878.9,48.3h-0.2l-0.6,0.1c-0.5,0.1-1.3,0.1-2.2,0.2c-1.9,0.2-4.5,0.3-7.4,0.4c-2.9,0.1-5.6,0-7.5-0.1
		c-0.9,0-1.7-0.1-2.3-0.1h-0.6h-0.2c0.1,0,0.1,0,0.2,0h0.6l2.3,0.1c1.9,0,4.5,0.1,7.4,0c2.9-0.1,5.6-0.2,7.4-0.4l2.3-0.2l0.6,0
		L878.9,48.3z"/>
	<path class="st10" d="M852.8,62l-0.4,0.1c-0.2,0-0.6,0.1-1,0.2c-1.1,0.1-2.2,0.2-3.3,0.2c-1.1,0-2.2-0.1-3.3-0.3
		c-0.4-0.1-0.7-0.1-1-0.2c-0.1,0-0.2-0.1-0.4-0.1c0.1,0,0.2,0,0.4,0l1,0.1c1.1,0.1,2.2,0.2,3.3,0.2c1.1,0,2.2,0,3.3-0.2l1-0.1
		C852.6,62,852.7,62,852.8,62z"/>
	<path class="st10" d="M855.1,60.5c-0.6-0.5-1.3-0.8-2.1-0.7c0.4-0.2,0.8-0.2,1.2,0C854.6,59.9,854.9,60.1,855.1,60.5z"/>
	<path class="st10" d="M878.1,62.2l-0.2,0.1l-0.7,0.1c-0.6,0.1-1.4,0.2-2.4,0.4c-2.1,0.3-4.9,0.6-8.1,0.8c-3.2,0.1-6.1,0.1-8.2,0
		c-1-0.1-1.9-0.1-2.5-0.2l-0.7-0.1h-0.2c0.1,0,0.2,0,0.2,0h0.7c0.6,0,1.4,0.1,2.5,0.1c2.1,0.1,5,0.1,8.2,0c3.2-0.1,6.1-0.5,8.1-0.7
		c1-0.1,1.9-0.3,2.5-0.4l0.7-0.1C877.9,62.3,878,62.2,878.1,62.2z"/>
	<path class="st3" d="M886.7-13.7c0.7-3.5-1.1-7.1-4.4-8.5c-0.3-0.1-0.6-0.3-0.9-0.5c-0.1-0.2-0.2-0.5-0.2-0.8
		c-0.3-2.2-1.7-4-3.7-4.9c-0.9-0.4-1.9-0.5-2.9-0.4c-0.5-1-1.3-1.9-2.2-2.6c-2.3-1.4-5.2-1.4-7.5,0c-1.5-0.8-3-1.8-4.5-2.5
		c-2.1-1.1-4.7-1.7-6.8-0.6c-1.5,0.8-2.5,2.3-4,3.1c-2.1,1.2-5,0.9-6,4c-0.4,1.1-0.4,2.2,0,3.3c1.4,4.2,6.7,5.9,10.4,4.1
		c0.1,0.7-0.6,2.3,0.1,4.6c0.2,0.7,0.3,1.9,1.5,1.9c1-1.4,2.9-1.9,4.5-1c1.5,1.1,2.1,3.1,1.3,4.7c-0.7,1.2-1.8,2.1-3.2,2.4
		c-1.2,0.3-2,1.3-2,2.5C856-4.6,856-4.3,856-3.9c-1.2-1-3,0.2-3.7,1.6c-1,1.7-1.3,3.7-1,5.6c1.1,0.4,2.1,0.8,3.1,1.3
		c3.2,1.6,6.7,2.4,10.3,2.2c3.6-0.2,7.1-0.6,10.6-1.4c-0.1-0.8-0.2-1.7-0.4-2.5c0.8,0.4,1.1,1.3,1.9,1.7c1,0.6,2.2,0.2,3.3-0.2
		c3.2-1.2,6.7-2.8,7.9-6c-1-0.3-1.7-1.3-1.6-2.4c1.3,0.4,2.9,0.7,3.8-0.2c0.3-0.4,0.6-0.8,0.7-1.2c0.8-1.9,1.6-3.7,2.4-5.6
		C891.6-12.6,889.2-13.6,886.7-13.7z"/>
	<path class="st2" d="M858-15.3c-2.4-2.3-3.4-5.8-2.5-9.1c0,1.6,0.1,3.2,0.5,4.8C856.5-18.1,857.2-16.6,858-15.3z"/>
	<path class="st2" d="M856.4,5.4c0,0-0.2-0.2-0.4-0.7c-0.3-0.7-0.4-1.5-0.4-2.3c0-0.5,0.1-1.1,0.3-1.6c0.2-0.6,0.4-1.2,0.7-1.7
		c0.8-1.2,1.8-2.2,3.1-2.8c0.7-0.3,1.5-0.4,2.2-0.2c0.4,0.1,0.7,0.3,0.8,0.2c0.1-0.1,0.3-0.4,0.4-0.6c0.3-1,0.3-2.1-0.1-3.1
		c-0.2-0.7-0.6-1.3-1.1-1.9c-0.4-0.4-0.6-0.5-0.6-0.5c0.3,0.1,0.5,0.2,0.7,0.4c0.6,0.5,1.1,1.1,1.3,1.9c0.5,1.1,0.5,2.3,0.2,3.4
		c-0.1,0.4-0.3,0.7-0.7,0.9c-0.2,0.1-0.4,0.1-0.6,0c-0.2-0.1-0.3-0.1-0.5-0.1c-0.6-0.1-1.3-0.1-1.9,0.2c-1.2,0.6-2.2,1.5-3,2.6
		c-0.6,0.9-0.9,2-1,3.1c-0.1,0.7,0,1.5,0.2,2.2C856.3,4.9,856.3,5.1,856.4,5.4z"/>
	<path class="st2" d="M880.1,3.7c0.2-0.3,0.4-0.7,0.6-1c0.4-1,0.5-2.1,0.3-3.2c-0.2-1.6-0.8-3.2-1.7-4.6c-1.2-1.7-3.1-2.7-5.1-2.8
		h-0.3v-0.3c0.1-0.7,0.1-1.4,0.1-2.1c0-0.7-0.3-1.4-0.7-2c-0.9-1-2.3-1.1-3.6-1.3c-1.3-0.2-2.5-0.7-3.6-1.5
		c-0.9-0.7-1.8-1.5-2.5-2.4c-0.6-0.8-1.2-1.6-1.7-2.5c-0.7-1.3-1.1-2.7-1.2-4.2c0-0.4,0-0.8,0.1-1.2c0-0.1,0.1-0.3,0.2-0.4
		c-0.1,0.5-0.1,1-0.1,1.6c0.2,1.4,0.6,2.8,1.3,4.1c1,1.9,2.4,3.5,4.2,4.7c1,0.7,2.2,1.2,3.4,1.4c0.6,0.1,1.3,0.2,2,0.4
		c0.7,0.2,1.4,0.6,1.9,1.1c0.5,0.6,0.8,1.4,0.8,2.2c0,0.7,0,1.5-0.1,2.2l-0.2-0.3c2.2,0.1,4.3,1.2,5.5,3.1c0.9,1.4,1.5,3.1,1.7,4.8
		c0.2,1.1,0,2.3-0.4,3.3c-0.1,0.3-0.3,0.5-0.5,0.7C880.2,3.7,880.1,3.7,880.1,3.7z"/>
	<path class="st2" d="M890.7-4.8c-0.1-1.1-0.4-2.1-0.9-3.1c-0.6-1.1-1.4-2-2.5-2.6c-1.3-0.8-2.9-1.1-4.4-0.9h-0.3v-0.3
		c0.2-1.4,0-2.9-0.4-4.3c-0.5-1.5-1.6-2.7-3-3.3c-0.6-0.3-1.3-0.3-2-0.2c-0.3,0-0.7,0.2-1,0.2c-0.4,0.1-0.8,0-1.2-0.3
		c-0.2-0.3-0.4-0.6-0.5-1c-0.1-0.3-0.2-0.6-0.3-0.9c-0.2-0.6-0.4-1.2-0.6-1.9c-0.5-1.1-1-2.1-1.7-3.1c-0.5-0.8-1.3-1.5-2.3-1.9
		c-1.3-0.6-2.8-0.8-4.3-0.6c-0.5,0.1-1,0.4-1.4,0.7c0.1-0.1,0.2-0.2,0.3-0.3c0.1-0.1,0.3-0.2,0.4-0.3c0.2-0.1,0.4-0.2,0.7-0.2
		c1.5-0.3,3.1-0.1,4.5,0.5c0.5,0.2,0.9,0.4,1.3,0.7c0.5,0.3,0.8,0.8,1.1,1.2c0.7,1,1.3,2,1.8,3.1c0.2,0.6,0.5,1.2,0.7,1.9l0.3,0.9
		c0.1,0.3,0.2,0.6,0.4,0.8c0.4,0.4,1.1,0.1,1.8,0c0.8-0.1,1.5,0,2.2,0.3c1.6,0.7,2.8,2,3.3,3.6c0.4,1.4,0.6,3,0.4,4.5l-0.2-0.2
		c1.6-0.2,3.3,0.2,4.7,1c1.8,1.1,2.9,3,3.2,5.1C890.7-5.3,890.7-5,890.7-4.8z"/>
	<path class="st2" d="M844.1-24.4c0,0-0.3-0.2-0.4-0.8c0-0.8,0.2-1.6,0.8-2.2c0.7-0.9,1.7-1.6,2.9-2c0.7-0.2,1.4-0.3,2.1-0.2
		c0.3,0.1,0.6,0.1,0.9,0c0.2-0.1,0.4-0.4,0.7-0.7c0.5-0.6,1.2-1,1.9-1.2c0.7-0.2,1.4-0.3,2.1-0.2c1.2,0,2.3,0.4,3.3,1
		c0.7,0.4,1.2,1.1,1.4,1.9c0.1,0.5,0.1,0.9,0,0.9c0,0,0-0.3-0.2-0.8c-0.3-0.7-0.8-1.3-1.4-1.6c-1-0.5-2.1-0.8-3.2-0.8
		c-1.3-0.1-2.7,0.3-3.6,1.3c-0.2,0.3-0.5,0.6-0.9,0.8c-0.4,0.1-0.8,0.1-1.2,0c-0.6-0.1-1.3,0-1.9,0.2c-1.1,0.3-2,0.9-2.8,1.7
		c-0.5,0.5-0.8,1.2-0.8,2C843.9-24.9,844-24.6,844.1-24.4z"/>
	<path class="st2" d="M859.9-33.3c0-0.1,0.4,0,0.7,0.4c0.5,0.5,0.7,1.2,0.8,1.9c0.1,0.7,0.1,1.3-0.2,2c-0.2,0.5-0.5,0.7-0.5,0.7
		s0.1-0.3,0.2-0.8c0.1-0.6,0.1-1.2,0-1.9c-0.1-0.6-0.3-1.2-0.6-1.7C860.1-33.1,859.8-33.3,859.9-33.3z"/>
</g>
<g id="freepik--Plant--inject-41">
	<rect x="342.6" y="177.3" class="st3" width="55" height="7.6"/>
	<path class="st3" d="M397.7,184.9h-55.2v-7.7h55.2V184.9z M342.7,184.7h54.8v-7.4h-54.8V184.7z"/>
	<polygon class="st3" points="347.7,182.3 355.6,221.3 384.9,221.3 392.6,184.8 	"/>
	<polygon class="st2" points="347.7,217.7 351.9,223.5 387.5,223.5 392.6,217.7 	"/>
	<path class="st3" d="M368.1,183.4c-0.1,0-0.2-18.1-0.3-40.4c-0.1-22.3,0-40.4,0.1-40.4c0.1,0,0.2,18.1,0.3,40.4
		C368.2,165.4,368.2,183.4,368.1,183.4z"/>
	<path class="st3" d="M380.3,138.2c0,0.1-0.1,0.3-0.1,0.4c-0.1,0.3-0.3,0.7-0.5,1.2l-0.4,0.8l-0.4,1c-0.1,0.4-0.3,0.8-0.4,1.2
		s-0.3,0.9-0.4,1.4c-0.7,2.2-1.2,4.5-1.5,6.7c-0.4,2.8-0.7,5.6-0.9,8.4c-0.2,5.1-0.1,10.3,0.4,15.4c0.2,2,0.4,3.6,0.5,4.6
		c0.1,0.5,0.1,0.9,0.1,1.3c0,0.1,0,0.3,0,0.4c-0.1-0.1-0.1-0.3-0.1-0.4c-0.1-0.3-0.1-0.7-0.2-1.3c-0.2-1.1-0.4-2.7-0.6-4.6
		c-0.6-5.1-0.8-10.3-0.5-15.4c0.2-2.8,0.5-5.7,0.9-8.5c0.4-2.3,0.9-4.5,1.6-6.8c0.2-0.5,0.3-0.9,0.4-1.3c0.2-0.4,0.3-0.8,0.5-1.2
		c0.1-0.4,0.3-0.7,0.4-1c0.1-0.3,0.3-0.6,0.4-0.8l0.6-1.1C380.1,138.4,380.2,138.3,380.3,138.2z"/>
	<path class="st3" d="M378.9,123.6c0,0.2-0.1,0.4-0.2,0.6c-0.1,0.4-0.3,1-0.6,1.7c-0.1,0.4-0.3,0.8-0.4,1.2l-0.4,1.5
		c-0.3,1-0.7,2.2-1,3.6c-0.2,0.7-0.4,1.4-0.5,2.1c-0.2,0.7-0.3,1.5-0.5,2.3c-0.4,1.6-0.7,3.3-1,5.1c-0.6,3.6-1.1,7.6-1.5,11.8
		c-0.4,4.2-0.5,8.2-0.5,11.8c-0.1,3.6,0,6.9,0.2,9.7c0,1.4,0.1,2.6,0.2,3.7c0.1,1.1,0.1,2,0.2,2.8c0.1,0.7,0.1,1.3,0.1,1.8
		s0,0.6,0,0.6c-0.1-0.2-0.1-0.4-0.1-0.6c0-0.4-0.1-1-0.2-1.8c-0.1-0.7-0.2-1.7-0.3-2.8s-0.2-2.3-0.3-3.7c-0.2-2.8-0.3-6-0.3-9.7
		c0-3.7,0.2-7.7,0.5-11.9s0.9-8.2,1.5-11.8c0.4-1.8,0.7-3.5,1.1-5.1c0.2-0.8,0.4-1.6,0.5-2.3l0.6-2.1c0.3-1.3,0.7-2.5,1.1-3.6
		l0.5-1.5l0.5-1.2l0.6-1.7C378.8,123.8,378.9,123.6,378.9,123.6z"/>
	<path class="st3" d="M364.6,186.6c0-0.1,0-0.1,0-0.2c0-0.2,0-0.4-0.1-0.6c0-0.6-0.1-1.4-0.2-2.4c-0.1-2.1-0.3-5.1-0.5-8.8
		c-0.5-7.4-1.2-17.7-2.4-29c-0.6-5.7-1.4-11-2.1-15.9c-0.4-2.4-0.8-4.7-1.2-6.9c-0.4-2.1-0.8-4.2-1.2-6s-0.8-3.5-1.1-4.9
		c-0.3-1.5-0.6-2.7-0.9-3.7c-0.3-1-0.4-1.8-0.6-2.3l-0.1-0.6c0-0.1,0-0.1,0-0.2c0,0.1,0.1,0.1,0.1,0.2l0.2,0.6l0.6,2.3
		c0.3,1,0.6,2.2,0.9,3.7c0.3,1.5,0.8,3.1,1.1,4.9c0.4,1.8,0.8,3.8,1.2,6c0.4,2.2,0.8,4.5,1.2,6.9c0.8,4.9,1.5,10.2,2.2,15.9
		c1.2,11.3,1.9,21.6,2.3,29c0.2,3.7,0.3,6.7,0.4,8.8c0,1,0.1,1.9,0.1,2.4c0,0.2,0,0.5,0,0.6C364.6,186.5,364.6,186.6,364.6,186.6z"
		/>
	<path class="st5" d="M367.6,111.4c-0.2-2.6-2.8-4.5-5.4-4.5c-2.6,0.1-5,1.4-6.5,3.6c-1.5,2.1-2.6,4.5-3.1,7
		c-1.9,6-2.5,12.3-1.9,18.6c0.7,6.2,3.3,12.4,7.7,16.8c0.7,0.7,1.7,1.4,2.7,1.2c0.5-0.2,1-0.5,1.4-0.9c8.9-8.1,13.8-19.7,13.5-31.7
		c-0.1-2.4-0.4-4.8-1.7-6.8C372.9,112.7,369.9,110.6,367.6,111.4"/>
	<path class="st5" d="M348.4,90.8l-3.6,6.6c-0.1,0.1-0.2,0.3-0.4,0.3c-0.2,0-0.3-0.2-0.4-0.3l-9.6-14.7l2.2-1.2L348.4,90.8z"/>
	<g class="st6">
		<path d="M348.4,90.8l-3.6,6.6c-0.1,0.1-0.2,0.3-0.4,0.3c-0.2,0-0.3-0.2-0.4-0.3l-9.6-14.7l2.2-1.2L348.4,90.8z"/>
	</g>
	<path class="st5" d="M367.8,102.7l-32.7-19.3c-0.4-0.2-0.6-0.4-0.8-0.8c0-0.5,0.2-1,0.6-1.3c4.6-4.7,10.9-7.2,17.5-6.9
		c6.5,0.5,12.4,4.2,15.7,9.8C371.3,89.9,371.4,97.3,367.8,102.7"/>
	<path class="st3" d="M339.8,77.2l0.4-0.1c0.3,0,0.7-0.1,1.2-0.1c1.5,0,3,0.1,4.5,0.4c2.2,0.4,4.4,1,6.5,2c2.5,1.1,4.9,2.6,6.9,4.5
		c3.7,3.4,6.4,7.8,7.8,12.7c0.4,1.5,0.7,3,0.8,4.5c0,0.3,0,0.6,0,0.9c0,0.3-0.1,0.5-0.2,0.7c0.1-0.5,0.1-1.1,0-1.6
		c-0.2-1.5-0.5-3-0.9-4.4c-2.8-9.8-10.9-17.2-20.9-19c-1.5-0.3-3-0.4-4.5-0.5C340.4,77.2,339.8,77.3,339.8,77.2z"/>
	<path class="st3" d="M363.4,89.4c-0.5,0.3-1.1,0.6-1.7,0.7c-1,0.4-2.5,0.9-4.1,1.5s-3.1,0.9-4.2,1.2c-0.6,0.2-1.2,0.3-1.8,0.3
		c0.6-0.3,1.1-0.4,1.7-0.6l4.2-1.3l4.2-1.4C362.2,89.6,362.8,89.5,363.4,89.4z"/>
	<path class="st3" d="M358.3,75.5c0.5,2.4,0.5,4.9,0.2,7.3C358.2,80.4,358.2,78,358.3,75.5z"/>
	<path class="st3" d="M334.9,83c0.8-0.4,1.6-0.6,2.4-0.8c1.5-0.5,3.6-1,5.9-1.6c2.3-0.6,4.4-1,5.9-1.2c0.8-0.2,1.6-0.3,2.5-0.3
		c-0.8,0.3-1.6,0.5-2.4,0.6c-1.5,0.3-3.6,0.8-5.9,1.4s-4.4,1.1-5.9,1.5C336.5,82.7,335.7,82.9,334.9,83z"/>
	<path class="st5" d="M354,105.8c-2.8-2.1-5.8-2.6-9.3-2.4c-3.5,0.2-7,1.1-10.2,2.6c-5.5,2.4-10.7,6-14,11c-3.3,5-4.4,11.7-2,17.2
		c0.2,0.6,0.6,1.1,1.1,1.4c0.6,0.2,1.3,0.1,1.9-0.1c6.3-2,12.6-4.1,18.3-7.3c5.8-3.2,11-7.7,14.1-13.5c0.8-1.4,1.3-2.9,1.5-4.5
		C355.7,108.6,355.1,107,354,105.8"/>
	<path class="st3" d="M354.1,105.1c-0.1,0.1-0.3,0.1-0.5,0.2l-1.3,0.5l-0.9,0.3c-0.4,0.1-0.7,0.3-1.1,0.4c-0.8,0.3-1.7,0.6-2.7,1.1
		l-1.5,0.7c-0.5,0.2-1.1,0.5-1.6,0.8c-1.1,0.6-2.3,1.3-3.5,2c-2.6,1.6-5.1,3.5-7.4,5.5c-2.3,2.1-4.4,4.3-6.4,6.7
		c-0.9,1.1-1.7,2.2-2.4,3.2c-0.4,0.5-0.7,1-1,1.5l-0.9,1.4c-0.6,0.9-1,1.8-1.4,2.5c-0.2,0.4-0.4,0.7-0.6,1.1
		c-0.2,0.3-0.3,0.6-0.4,0.9c-0.3,0.5-0.5,0.9-0.6,1.2c-0.1,0.1-0.1,0.3-0.2,0.4c0-0.2,0.1-0.3,0.2-0.5c0.1-0.3,0.3-0.7,0.6-1.3
		l0.4-0.9c0.2-0.3,0.3-0.7,0.5-1.1c0.4-0.8,0.8-1.6,1.4-2.6l0.9-1.5c0.3-0.5,0.7-1,1-1.5c0.7-1.1,1.5-2.1,2.4-3.3
		c3.9-4.9,8.6-9,13.9-12.3c1.2-0.7,2.4-1.4,3.5-2c0.6-0.3,1.1-0.6,1.6-0.8l1.6-0.7c1-0.5,1.9-0.8,2.7-1.1c0.4-0.1,0.8-0.3,1.1-0.4
		l0.9-0.3l1.3-0.4C353.8,105.2,353.9,105.2,354.1,105.1z"/>
	<path class="st3" d="M332.1,117c-2.2,0.9-4.5,1.6-6.8,2.2c-2.3,0.7-4.6,1.4-6.9,1.9c2.2-0.9,4.5-1.6,6.8-2.2
		C327.5,118.1,329.8,117.5,332.1,117z"/>
	<path class="st3" d="M331.8,132.1c-0.1-0.7-0.2-1.4-0.1-2.1c0-1.3,0-3.1,0-5.2s0.2-3.8,0.3-5.1c0-0.7,0.1-1.4,0.3-2.1
		c0.1,0.7,0.1,1.4,0,2.1c0,1.4-0.1,3.2-0.2,5.1c-0.1,1.9-0.1,3.7-0.1,5.1C332,130.7,331.9,131.4,331.8,132.1z"/>
	<path class="st3" d="M344.8,125.5c-0.1,0-0.5-3.7-0.8-8.3c-0.3-4.6-0.5-8.3-0.4-8.3c0.1,0,0.4,3.7,0.8,8.3S344.9,125.5,344.8,125.5
		z"/>
	<path class="st3" d="M328.7,108.6c0.7-0.1,1.5-0.1,2.2-0.1c1.4,0,3.2,0.1,5.3,0.1c2.1,0.1,3.9,0.1,5.3,0.2c0.7,0,1.5,0.1,2.2,0.2
		c-0.7,0.1-1.5,0.1-2.2,0.1c-1.4,0-3.2,0-5.3-0.1s-3.9-0.1-5.3-0.2C330.1,108.8,329.4,108.8,328.7,108.6z"/>
	<path class="st3" d="M359.7,153.6c0-0.1-0.1-0.3,0-0.4c0-0.3,0-0.7-0.1-1.3c0-1.1-0.1-2.7,0-4.6c0.1-2,0.2-4.3,0.4-6.9
		s0.6-5.4,1.1-8.3c0.5-2.9,1.2-5.7,1.9-8.2c0.7-2.5,1.4-4.7,2-6.6c0.7-1.9,1.2-3.3,1.6-4.3l0.5-1.2c0-0.1,0.1-0.3,0.2-0.4
		c0,0.1-0.1,0.3-0.1,0.4l-0.4,1.2c-0.4,1-0.9,2.5-1.5,4.4c-0.6,1.9-1.3,4.1-2,6.6c-0.7,2.5-1.3,5.3-1.9,8.2
		c-0.6,2.9-0.9,5.7-1.2,8.3c-0.2,2.6-0.4,4.9-0.5,6.8c-0.1,1.9-0.1,3.5-0.1,4.6c0,0.5,0,0.9,0,1.2
		C359.8,153.4,359.7,153.5,359.7,153.6z"/>
	<path class="st3" d="M361.4,132.2c-0.4,0.5-0.8,1-1.3,1.4c-0.8,0.8-2,2-3.4,3.2s-2.7,2.2-3.6,3c-0.5,0.4-1,0.8-1.6,1.1
		c0.4-0.5,0.9-0.9,1.4-1.3l3.5-3.1l3.5-3.1C360.4,133,360.9,132.6,361.4,132.2z"/>
	<path class="st3" d="M371.8,140.6c-0.5-0.6-1-1.2-1.4-1.9l-3.2-4.7l-3.3-4.6c-0.5-0.6-0.9-1.3-1.3-2c0.6,0.6,1.1,1.2,1.5,1.8
		c0.9,1.2,2.1,2.8,3.4,4.6c1.3,1.9,2.4,3.5,3.1,4.8C371.1,139.2,371.5,139.9,371.8,140.6z"/>
	<path class="st3" d="M366.4,114.4c0.1,0.1-3.4,2.4-7.7,5.2c-4.3,2.8-7.8,4.9-7.9,4.8c-0.1-0.1,3.4-2.4,7.7-5.2
		C362.8,116.4,366.3,114.3,366.4,114.4z"/>
	<path class="st3" d="M376.1,124.8c-1.8-1.5-3.6-3.1-5.2-4.8c-1.7-1.6-3.4-3.3-4.9-5.1c1.8,1.5,3.5,3.1,5.2,4.8
		C372.9,121.3,374.5,123,376.1,124.8z"/>
	<path class="st5" d="M378.5,124.6l3-0.2c2.1-0.2,4.1-0.8,6-1.9c0.9-0.5,1.8-1,2.8-1.4c3.6-1.5,7.7-1.2,11.6-1.4
		c6.4-0.3,12.7-1.9,18.5-4.7c0.3-0.2,0.6-0.4,0.8-0.7c0.6-1.1-0.5-2.1-1.5-2.7c-5-3.1-10-6.2-15.7-7.7c-5.6-1.5-12-1.3-16.8,2
		C381.5,109.8,379.4,117.8,378.5,124.6"/>
	<path class="st3" d="M421.2,113.9c-0.2-0.1-0.3-0.1-0.5-0.2l-1.4-0.7c-1.2-0.6-3-1.6-5.2-2.6c-2.6-1.3-5.2-2.3-8-3.1
		c-3.4-1-6.9-1.3-10.4-0.8c-3.5,0.4-6.8,1.8-9.4,4.1c-2.1,1.9-3.8,4.3-4.9,6.9c-0.8,1.8-1.5,3.6-2.1,5.4c-0.2,0.6-0.4,1.1-0.5,1.5
		c-0.1,0.2-0.1,0.3-0.2,0.5c0-0.2,0.1-0.4,0.1-0.5c0.1-0.4,0.3-0.9,0.5-1.5c0.6-1.9,1.3-3.7,2-5.5c1.1-2.7,2.8-5.1,4.9-7.1
		c2.7-2.3,6.1-3.8,9.6-4.2c3.5-0.4,7.1-0.1,10.5,0.9c2.8,0.8,5.5,1.9,8,3.2c2.2,1.1,3.9,2.1,5.1,2.8l1.4,0.8
		C420.9,113.7,421.1,113.8,421.2,113.9z"/>
	<path class="st3" d="M414.1,117.7c-0.1,0.1-3.9-2.4-8.6-5.6c-4.7-3.1-8.5-5.8-8.4-5.9c0.1-0.1,3.9,2.4,8.6,5.6
		S414.2,117.6,414.1,117.7z"/>
	<path class="st3" d="M410,106.1c-0.9,0.3-1.8,0.5-2.8,0.5c-1,0.2-1.9,0.2-2.9,0c0.9-0.2,1.9-0.3,2.8-0.3
		C408.1,106.1,409.1,106.1,410,106.1z"/>
	<path class="st3" d="M393.1,103.8c-0.3,0.7-0.7,1.4-1.3,2c-0.4,0.7-1,1.3-1.6,1.9c0.3-0.7,0.7-1.4,1.3-2
		C392,105,392.5,104.4,393.1,103.8z"/>
	<path class="st3" d="M396.6,120c-0.7-0.3-1.3-0.6-1.9-1c-1.1-0.7-2.6-1.7-4.2-2.8s-3-2.3-4.1-3.1c-0.6-0.4-1.1-0.9-1.6-1.4
		c0.6,0.3,1.2,0.7,1.8,1.2l4.1,3c1.6,1.2,3.1,2.2,4.1,2.9C395.5,119.1,396,119.5,396.6,120z"/>
	<path class="st5" d="M382.8,137.2c-2.8-0.7-6.2,2-6.7,4.8s0.5,5.8,1.7,8.4c2.7,5.9,6.7,11.1,11.6,15.2c5,4.1,11.3,6.4,17.8,6.6
		c-1.2-5.6,0.3-11.3-0.4-16.9c-1.2-10.2-9.3-18.1-19.5-19.2C385.6,135.8,383.5,135.5,382.8,137.2"/>
	<path class="st3" d="M407.3,172.2c-0.1,0-0.3-0.1-0.4-0.2c-0.4-0.2-0.7-0.4-1-0.7c-1.2-1-2.1-2.3-2.8-3.7c-0.4-0.9-0.9-1.9-1.4-2.9
		c-0.5-1-1-2.2-1.5-3.3c-0.5-1.2-1.2-2.4-1.9-3.6c-0.8-1.2-1.6-2.4-2.6-3.5c-1.9-2.3-4-4.2-5.8-6.1c-1.6-1.6-3.1-3.4-4.4-5.3
		c-0.9-1.3-1.6-2.7-2.1-4.1c-0.1-0.4-0.3-0.8-0.4-1.2c0-0.1-0.1-0.3-0.1-0.4c0,0,0.2,0.6,0.6,1.6c0.6,1.4,1.3,2.8,2.2,4
		c1.3,1.8,2.8,3.6,4.4,5.2c1.9,1.9,3.9,3.8,5.8,6.1c1,1.1,1.8,2.3,2.6,3.5c0.7,1.2,1.3,2.4,1.9,3.6c0.5,1.2,1,2.3,1.5,3.4
		c0.5,1.1,0.9,2,1.4,2.9c0.6,1.4,1.5,2.7,2.6,3.7C406.7,171.9,407.3,172.1,407.3,172.2z"/>
	<path class="st3" d="M392.7,167.6c0-0.6,0.1-1.3,0.3-1.9c0.2-1.2,0.6-2.8,1.1-4.5s1-3.3,1.4-4.4c0.2-0.6,0.4-1.2,0.8-1.7
		c-0.1,0.6-0.3,1.3-0.5,1.9c-0.3,1.1-0.8,2.7-1.3,4.4c-0.5,1.7-0.9,3.3-1.2,4.4C393.1,166.4,392.9,167,392.7,167.6z"/>
	<path class="st3" d="M406.7,154c-0.7-0.1-1.3-0.2-2-0.5c-1.2-0.3-2.9-0.7-4.7-1.2s-3.6-0.7-4.8-1c-0.7-0.1-1.3-0.2-2-0.4
		c0.7,0,1.4,0,2,0.2c1.2,0.2,3,0.4,4.8,0.9s3.5,0.9,4.7,1.3C405.5,153.5,406.1,153.7,406.7,154z"/>
	<path class="st3" d="M382.3,158c0-0.7,0.1-1.5,0.3-2.2c0.2-1.3,0.6-3.2,1.2-5.2c0.5-2,1.1-3.8,1.5-5.1c0.2-0.7,0.5-1.4,0.8-2.1
		c-0.1,0.7-0.3,1.4-0.5,2.1c-0.4,1.3-0.9,3.1-1.4,5.1c-0.5,2-0.9,3.8-1.3,5.2C382.7,156.5,382.5,157.3,382.3,158z"/>
	<path class="st3" d="M400.3,142.2c0,0.1-3.5-0.2-7.8-0.6c-4.3-0.5-7.8-0.9-7.8-1c0-0.1,3.5,0.2,7.8,0.6
		C395.1,141.4,397.7,141.7,400.3,142.2z"/>
	<path class="st2" d="M397.7,184.8c0,0.1-12.3,0.2-27.6,0.2c-15.2,0-27.6-0.1-27.6-0.2c0-0.1,12.4-0.2,27.6-0.2
		C385.3,184.6,397.7,184.7,397.7,184.8z"/>
	<path class="st2" d="M389.1,200.7c0,0.1-8.3,0.2-18.6,0.2c-10.3,0-18.6-0.1-18.6-0.2c0-0.1,8.3-0.2,18.6-0.2
		S389.1,200.6,389.1,200.7z"/>
	<path class="st2" d="M388.8,202.9c0,0.1-8.2,0.2-18.3,0.2c-10.1,0-18.3-0.1-18.3-0.2c0-0.1,8.2-0.2,18.3-0.2
		C380.6,202.8,388.8,202.8,388.8,202.9z"/>
	<path class="st2" d="M389.4,198.8c0,0.1-8.6,0.2-19.2,0.2c-10.6,0-19.2-0.1-19.2-0.2c0-0.1,8.6-0.2,19.2-0.2
		S389.4,198.7,389.4,198.8z"/>
</g>
<g id="freepik--speech-bubble--inject-41">
	<path class="st4" d="M876.5-37.7l5.1-11.7c-10-13-7.7-31.7,5.3-41.7c13-10,31.7-7.7,41.7,5.3s7.7,31.7-5.3,41.7
		c-9.8,7.6-23.2,8.3-33.8,1.8l0,0L876.5-37.7z"/>
	<path class="st3" d="M876.5-37.7l13-4.7v0.2l0,0l-0.6-0.7l0.8,0.5c4.4,2.7,9.5,4.2,14.7,4.3c1.5,0,3.1-0.1,4.6-0.3
		c0.8-0.1,1.6-0.2,2.4-0.4l2.4-0.6c7.2-2.2,13.2-7.1,17-13.7c2.1-3.6,3.3-7.6,3.7-11.8c0.4-4.4-0.2-8.8-1.7-13
		c-1.6-4.3-4.2-8.2-7.5-11.3c-3.4-3.2-7.6-5.5-12.1-6.8c-4.3-1.2-8.9-1.4-13.3-0.6c-4.2,0.8-8.2,2.4-11.6,4.9
		c-6.2,4.4-10.6,11-12.1,18.5c-0.6,3.2-0.7,6.4-0.3,9.6c0.7,5.1,2.7,10,5.8,14.1v0.1v0.1L876.5-37.7c0.3-0.7,1.8-4.3,5-11.7v0.1
		c-3.2-4.1-5.3-9-6-14.2c-0.4-3.2-0.3-6.5,0.3-9.8c0.7-3.6,2.1-7.1,4-10.2c2.1-3.4,4.9-6.3,8.2-8.7c3.5-2.5,7.5-4.1,11.8-4.9
		c4.5-0.8,9.1-0.6,13.5,0.6c4.6,1.3,8.8,3.7,12.3,6.9c3.4,3.2,6,7.1,7.6,11.5c1.6,4.2,2.2,8.6,1.8,13.1c-0.4,4.2-1.7,8.3-3.8,12
		c-3.8,6.6-9.9,11.6-17.2,13.8l-2.5,0.6c-0.8,0.2-1.6,0.3-2.4,0.4c-1.6,0.2-3.1,0.3-4.7,0.3c-5.2-0.2-10.4-1.7-14.8-4.5l0.1-0.2l0,0
		l0.1,0.1l-0.2,0.1L876.5-37.7z"/>
	<path class="st5" d="M915.9-58.5l1-1.4l5.2,3.7c0.8-2.5-0.3-5.2-2.7-6.5c-1.6-1.1-3.7-1.2-5.4-0.2L900-74c0.5-2-0.2-4-1.9-5.2
		c-1.9-1.8-4.8-2-7-0.5l5.1,3.7l-0.9,1.3l0,0l-1,1.4l-5.2-3.7c-0.8,2.5,0.4,5.2,2.7,6.5c1.6,1.1,3.7,1.2,5.4,0.2l0,0l14.1,11.1
		c-0.5,2,0.2,4.1,1.9,5.3c1.9,1.8,4.8,2,7,0.5l-5.1-3.7L915.9-58.5L915.9-58.5z"/>
</g>
<g id="freepik--Floor--inject-41">
	<path class="st3" d="M944.4,223.8c0,0.1-142,0.2-317.1,0.2s-317.2-0.1-317.2-0.2s142-0.2,317.2-0.2S944.4,223.6,944.4,223.8z"/>
</g>
</svg>
