<?xml version="1.0" encoding="utf-8"?>
<!-- Generator: Adobe Illustrator 19.0.0, SVG Export Plug-In . SVG Version: 6.00 Build 0)  -->
<svg version="1.1" id="Layer_1" xmlns="http://www.w3.org/2000/svg" xmlns:xlink="http://www.w3.org/1999/xlink" x="0px" y="0px"
	 width="647.5px" height="425.4px" viewBox="313 -201.4 647.5 425.4" style="enable-background:new 313 -201.4 647.5 425.4;"
	 xml:space="preserve">
<style type="text/css">
	.st0{opacity:0.3;}
	.st1{fill:#5F4CA4;}
	.st2{opacity:0.7;fill:#FFFFFF;enable-background:new    ;}
	.st3{fill:none;stroke:#263238;stroke-miterlimit:10;}
	.st4{fill:#263238;}
	.st5{fill:#FFFFFF;stroke:#263238;stroke-linecap:round;stroke-linejoin:round;}
	.st6{fill:#5F4CA4;stroke:#263238;stroke-miterlimit:10;}
	.st7{opacity:0.33;}
	.st8{fill:none;stroke:#263238;stroke-linecap:round;stroke-linejoin:round;}
	.st9{fill:#263238;stroke:#263238;stroke-miterlimit:10;}
	.st10{fill:#FFFFFF;stroke:#263238;stroke-miterlimit:10;}
	.st11{fill:#263238;stroke:#263238;stroke-linecap:round;stroke-linejoin:round;}
	.st12{fill:#5F4CA4;stroke:#263238;stroke-linecap:round;stroke-linejoin:round;}
	.st13{fill:none;stroke:#4C4C4C;stroke-linecap:round;stroke-linejoin:round;}
	.st14{fill:#4C4C4C;stroke:#263238;stroke-linecap:round;stroke-linejoin:round;}
	.st15{fill:#B5B5B5;stroke:#263238;stroke-linecap:round;stroke-linejoin:round;}
	.st16{fill:#FFFFFF;}
	.st17{fill:#FFFFFF;stroke:#263238;stroke-width:0.75;stroke-linecap:round;stroke-linejoin:round;}
	.st18{fill:#808080;stroke:#263238;stroke-linecap:round;stroke-linejoin:round;}
</style>
<g id="freepik--background-simple--inject-145" class="st0">
	<path class="st1" d="M412.3,61.7c0,0,19.6,80.2,99.2,122.4s175,30.2,252.6,22.4S891.5,146.1,886.8,80
		C882,13.9,819.5,4.7,772.2-63.4S722.7-156.2,646-190.1s-175.9,11.5-214.6,98.2S412.3,61.7,412.3,61.7z"/>
	<path class="st2" d="M412.3,61.7c0,0,19.6,80.2,99.2,122.4s175,30.2,252.6,22.4S891.5,146.1,886.8,80
		C882,13.9,819.5,4.7,772.2-63.4S722.7-156.2,646-190.1s-175.9,11.5-214.6,98.2S412.3,61.7,412.3,61.7z"/>
</g>
<g id="freepik--Wall--inject-145">
	<line class="st3" x1="450.7" y1="-159.2" x2="450.7" y2="198.9"/>
	<line class="st3" x1="450.7" y1="-173.1" x2="450.7" y2="-166.2"/>
	<line class="st3" x1="581.1" y1="-173.1" x2="581.1" y2="198.9"/>
	<line class="st3" x1="711.5" y1="-173.1" x2="711.5" y2="198.9"/>
	<line class="st3" x1="842" y1="-120" x2="842" y2="198.9"/>
	<line class="st3" x1="842" y1="-173.1" x2="842" y2="-129"/>
</g>
<g id="freepik--Board--inject-145">
	<rect x="474.4" y="-122.2" class="st4" width="298.7" height="177"/>
	<rect x="476" y="-117.2" class="st5" width="295.3" height="166.9"/>
	<rect x="471" y="-125.2" class="st4" width="303.7" height="9.5"/>
	<circle class="st5" cx="627" cy="-133.9" r="8.5"/>
	<path class="st6" d="M631.5-133.9c0,2.5-2,4.5-4.5,4.5c-2.5,0-4.5-2-4.5-4.5c0-2.5,2-4.5,4.5-4.5c0,0,0,0,0,0
		C629.5-138.4,631.5-136.4,631.5-133.9z"/>
</g>
<g id="freepik--Graphics--inject-145">
	<polyline class="st3" points="529.7,-8.8 493.2,-8.8 493.2,-45.8 555.2,-45.8 555.2,-8.8 536.6,-8.8 	"/>
	<rect x="542.1" y="8.9" class="st3" width="49.5" height="29.5"/>
	<polyline class="st3" points="646.4,-45.8 652.6,-45.8 652.6,-8.8 590.5,-8.8 590.5,-45.8 640.4,-45.8 	"/>
	<polyline class="st3" points="595.7,-99.9 668.5,-99.9 668.5,-62.9 574.6,-62.9 574.6,-99.9 588.8,-99.9 	"/>
	<rect x="687.3" y="-45.8" class="st3" width="62.1" height="37"/>
	<path class="st3" d="M569.5-81.7c0,0-32.9,4.6-52.3,32.5"/>
	<line class="st3" x1="548.4" y1="-4.8" x2="552.8" y2="7.9"/>
	<line class="st3" x1="593.4" y1="-5.9" x2="589.4" y2="6"/>
	<polyline class="st3" points="548,3.7 552.8,7.9 554,2.3 	"/>
	<polyline class="st3" points="587.4,2.3 589.2,7 594.3,4 	"/>
	<polyline class="st3" points="518.1,-54.9 517.2,-49.2 523.5,-53.1 	"/>
	<line class="st3" x1="654.4" y1="-28.2" x2="685.5" y2="-28.2"/>
	<polyline class="st3" points="678.9,-32.1 685.8,-28.2 679.5,-24.4 	"/>
	<line class="st3" x1="556.3" y1="-28.2" x2="587.4" y2="-28.2"/>
	<polyline class="st3" points="580.8,-32.1 587.7,-28.2 581.4,-24.4 	"/>
	<line class="st3" x1="621.3" y1="-59.9" x2="621.3" y2="-50.4"/>
	<polyline class="st3" points="625.2,-57 621.3,-50.1 617.5,-56.4 	"/>
	<line class="st3" x1="685.2" y1="-17.1" x2="655.3" y2="-17.1"/>
	<polyline class="st3" points="661.6,-21 655,-17.1 661.1,-13.2 	"/>
	<line class="st3" x1="594" y1="-88.3" x2="650.2" y2="-88.3"/>
	<line class="st3" x1="594" y1="-83" x2="650.2" y2="-83"/>
	<line class="st3" x1="594" y1="-77.6" x2="650.2" y2="-77.6"/>
	<line class="st3" x1="498.9" y1="-32.1" x2="549.5" y2="-32.1"/>
	<line class="st3" x1="498.9" y1="-26.7" x2="549.5" y2="-26.7"/>
	<line class="st3" x1="498.9" y1="-21.4" x2="549.5" y2="-21.4"/>
	<line class="st3" x1="597" y1="-32.1" x2="647.5" y2="-32.1"/>
	<line class="st3" x1="597" y1="-26.7" x2="647.5" y2="-26.7"/>
	<line class="st3" x1="597" y1="-21.4" x2="647.5" y2="-21.4"/>
	<line class="st3" x1="691.5" y1="-32.1" x2="742" y2="-32.1"/>
	<line class="st3" x1="691.5" y1="-26.7" x2="742" y2="-26.7"/>
	<line class="st3" x1="691.5" y1="-21.4" x2="742" y2="-21.4"/>
	<line class="st3" x1="548.6" y1="19" x2="587.2" y2="19"/>
	<line class="st3" x1="548.6" y1="24.4" x2="587.2" y2="24.4"/>
	<line class="st3" x1="548.6" y1="29.8" x2="587.2" y2="29.8"/>
	<path class="st1" d="M719.6-83.6c-0.3,0-0.5-0.2-0.5-0.5c0-0.2,0.1-0.3,0.2-0.4l0.4-0.2l-0.1,0.1c-0.3,0.1-0.6,0-0.7-0.3
		c-0.1-0.2,0-0.5,0.2-0.6l2-1.3l-1.8,1c-0.3,0.1-0.6,0-0.7-0.2c-0.1-0.2,0-0.5,0.2-0.6l3.7-2.4l-3.5,2c-0.2,0.1-0.5,0.1-0.7-0.2
		c-0.1-0.2-0.1-0.5,0.2-0.7l5.7-3.8l-5.6,3.2c-0.2,0.1-0.5,0.1-0.7-0.2c-0.2-0.2-0.1-0.5,0.1-0.7c0,0,0,0,0,0l8.6-6.1l-8.6,4.9
		c-0.2,0.1-0.5,0.1-0.7-0.2c-0.1-0.2-0.1-0.5,0.1-0.7l6.1-4.3l-6,3.5c-0.2,0.1-0.5,0.1-0.7-0.2c-0.1-0.2-0.1-0.5,0.1-0.7l3.5-2.3
		l-3.3,1.9c-0.2,0.1-0.5,0.1-0.7-0.2c-0.1-0.2-0.1-0.5,0.2-0.7l2.2-1.5l-2,1.2c-0.3,0.1-0.6,0-0.7-0.2c-0.1-0.2,0-0.5,0.1-0.6l6-4.4
		l-5.9,3.4c-0.2,0.1-0.6,0-0.7-0.2c-0.1-0.2-0.1-0.5,0.1-0.6l5.3-4.1l-5.3,3c-0.2,0.1-0.5,0.1-0.7-0.2c-0.1-0.2-0.1-0.5,0.1-0.7
		l2.6-1.9l-2.4,1.4c-0.2,0.1-0.5,0.1-0.7-0.2c-0.1-0.2-0.1-0.5,0.1-0.7l2.1-1.6l-1.9,1.1c-0.2,0.1-0.5,0.1-0.7-0.2
		c-0.1-0.2-0.1-0.5,0.1-0.7l1-0.8l-0.8,0.5c-0.2,0.1-0.5,0.1-0.6-0.1c-0.1-0.2-0.1-0.5,0-0.6l1.6-2l-1.5,0.8c-0.2,0.1-0.4,0.1-0.6,0
		c-0.2-0.1-0.2-0.3-0.2-0.5l0.2-0.6c-0.2,0-0.3-0.1-0.4-0.3c-0.1-0.2,0-0.6,0.2-0.7l0.7-0.4c0.2-0.1,0.6,0,0.7,0.2
		c0.1,0.1,0.1,0.2,0.1,0.4l-0.1,0.5l2.7-1.6c0.2-0.1,0.6,0,0.7,0.2c0.1,0.2,0.1,0.4,0,0.6l-1.6,2l4.8-2.8c0.2-0.1,0.5-0.1,0.7,0.2
		c0.1,0.2,0.1,0.5-0.1,0.7l-1,0.8l2.6-1.5c0.2-0.1,0.6,0,0.7,0.2c0.1,0.2,0.1,0.5-0.1,0.6l-2.1,1.6l3.5-2c0.2-0.1,0.5-0.1,0.7,0.2
		c0.1,0.2,0.1,0.5-0.1,0.7l-2.6,1.9l3.9-2.3c0.2-0.2,0.5-0.1,0.7,0.1c0.2,0.2,0.1,0.5-0.1,0.7l-5.3,4.1l7-4.1
		c0.2-0.1,0.5-0.1,0.7,0.2c0.1,0.2,0.1,0.5-0.1,0.7l-6,4.4l7.4-4.3c0.2-0.1,0.5-0.1,0.7,0.2c0.1,0.2,0.1,0.5-0.1,0.7l-2.3,1.5
		l2.9-1.7c0.3-0.1,0.6,0,0.7,0.2c0.1,0.2,0,0.5-0.1,0.6l-3.5,2.3l4.1-2.4c0.3-0.1,0.6,0,0.7,0.2c0.1,0.2,0,0.5-0.1,0.6l-6.1,4.3l7-4
		c0.3-0.1,0.6,0,0.7,0.2c0.1,0.2,0,0.5-0.1,0.6l-8.6,6.1l9.5-5.5c0.2-0.1,0.5-0.1,0.7,0.2c0.2,0.2,0.1,0.5-0.1,0.7c0,0,0,0,0,0
		l-5.7,3.8l6.2-3.6c0.3-0.1,0.6,0,0.7,0.2c0.1,0.2,0,0.5-0.2,0.6l-3.7,2.4l3.9-2.3c0.2-0.1,0.5-0.1,0.7,0.2c0.1,0.2,0.1,0.5-0.1,0.7
		c0,0,0,0,0,0l-2,1.3l2.1-1.2c0.2-0.1,0.5-0.1,0.7,0.2c0.1,0.2,0.1,0.5-0.2,0.7l-0.4,0.2l0.4-0.3c0.3-0.1,0.6,0,0.7,0.2
		c0.1,0.2,0,0.5-0.1,0.6l-5.9,4.2l6.1-3.5c0.2-0.1,0.5-0.1,0.7,0.2c0.1,0.2,0.1,0.5-0.1,0.7L741-94l0,0c0.2-0.1,0.6-0.1,0.7,0.2
		c0.1,0.2,0.1,0.5-0.1,0.7l-1.1,0.8l1.1-0.6c0.2-0.1,0.5-0.1,0.7,0.2c0.1,0.2,0.1,0.4-0.1,0.6l-1.9,2.2l1.9-1.1
		c0.2-0.1,0.4-0.1,0.6,0.1c0.2,0.1,0.2,0.4,0.1,0.6l-0.2,0.5c0.2,0,0.4,0.1,0.5,0.3c0.1,0.2,0.1,0.6-0.2,0.7l-1.1,0.6
		c-0.2,0.1-0.5,0.1-0.7-0.2c-0.1-0.1-0.1-0.3,0-0.5l0.2-0.4l-3.2,1.9c-0.2,0.1-0.6,0-0.7-0.2c-0.1-0.2-0.1-0.4,0.1-0.6l1.9-2.2
		l-7.5,4.3c-0.2,0.1-0.5,0.1-0.7-0.2c-0.2-0.2-0.1-0.5,0.1-0.7c0,0,0,0,0,0l1.1-0.8l-4.2,2.4c-0.2,0.1-0.5,0.1-0.7-0.2
		c-0.1-0.2-0.1-0.5,0.2-0.7l0.1-0.1l-2.8,1.6c-0.2,0.1-0.5,0.1-0.7-0.2c-0.2-0.2-0.1-0.5,0.1-0.7c0,0,0,0,0,0l5.9-4.2l-10.5,6.1
		C719.8-83.7,719.7-83.7,719.6-83.6z"/>
	<path class="st3" d="M703.9-69.3c-4.7-4-7.4-9.8-7.4-15.9c0-12.1,10.5-21.8,23.4-21.8s23.4,9.8,23.4,21.8s-10.5,21.8-23.4,21.8
		c-3.4,0-6.7-0.7-9.8-2"/>
	<line class="st3" x1="675.8" y1="-90" x2="690.6" y2="-90"/>
	<line class="st3" x1="675.8" y1="-84.9" x2="690.6" y2="-84.9"/>
	<line class="st3" x1="675.8" y1="-79.8" x2="690.6" y2="-79.8"/>
	<line class="st3" x1="497.4" y1="-3.2" x2="523.4" y2="-3.2"/>
	<line class="st3" x1="497.4" y1="1.9" x2="523.4" y2="1.9"/>
	<line class="st3" x1="492" y1="-69.4" x2="518" y2="-69.4"/>
	<line class="st3" x1="497.4" y1="7" x2="523.4" y2="7"/>
	<line class="st3" x1="497.4" y1="17.7" x2="523.4" y2="17.7"/>
	<line class="st3" x1="497.4" y1="22.8" x2="523.4" y2="22.8"/>
	<line class="st3" x1="497.4" y1="27.9" x2="523.4" y2="27.9"/>
	<polyline class="st3" points="713.6,-106.6 719.9,-83.7 743,-89 	"/>
	<polyline class="st3" points="492.3,-100.7 492.3,-75.3 533.1,-75.3 	"/>
	<rect x="496.5" y="-97.2" class="st6" width="8.5" height="22"/>
	<rect x="518.1" y="-92.2" class="st6" width="8.5" height="16.9"/>
	<rect x="507.3" y="-104.2" class="st6" width="8.5" height="28.9"/>
</g>
<g id="freepik--Plants--inject-145" class="st7">
	<path class="st1" d="M364.2,73.8c0,0,0-4.3-6-10.2s-9.8-9.4-9.8-9.4s-3,9.8,2.6,15.8c4.1,4.2,8.5,8.1,13.2,11.5V73.8z"/>
	<path class="st1" d="M355.6,100.5c0,0,0-4.3-6-10.2c-6-6-9.8-9.4-9.8-9.4s-3,9.8,2.6,15.8c4.1,4.2,8.6,8.1,13.3,11.5L355.6,100.5z"
		/>
	<path class="st1" d="M363.9,81c0,0,0.5-4.3,7-9.6c6.6-5.3,10.8-8.3,10.8-8.3s1.9,10.1-4.2,15.5c-4.5,3.8-9.3,7.1-14.4,10.1
		L363.9,81z"/>
	<path class="st1" d="M353.4,112.6c0,0,0.9-4.2,8-8.8s11.6-7.2,11.6-7.2s0.9,10.2-5.8,14.9c-4.9,3.3-10,6.1-15.3,8.5L353.4,112.6z"
		/>
	<path class="st1" d="M355.3,146.9c0,0,0-4.3,6-10.2c6-6,9.8-9.4,9.8-9.4s3,9.8-2.6,15.8c-4.1,4.2-8.5,8.1-13.3,11.5L355.3,146.9z"
		/>
	<path class="st1" d="M355.3,155.3c0,0,0.6-4.2-4.5-11s-8.4-10.7-8.4-10.7s-4.4,9.3,0.3,16c3.4,4.7,7.3,9.2,11.5,13.3L355.3,155.3z"
		/>
	<path class="st1" d="M349.4,180.2c0,0,0-4.3,6-10.2c6-6,9.8-9.4,9.8-9.4s3,9.8-2.6,15.8c-4.1,4.2-8.5,8.1-13.3,11.5L349.4,180.2z"
		/>
	<path class="st1" d="M353.3,202.7c0,0-1.1-4.1,3.2-11.4s7.2-11.6,7.2-11.6s5.4,8.8,1.5,16c-2.9,5.1-6.2,10-9.9,14.5L353.3,202.7z"
		/>
	<path class="st8" d="M364.8,72.6c-0.3,4.5-0.8,8.9-1.6,13.3c-2.4,12.3-8.3,20.1-10.6,31.1c-2.4,11,4.4,25.3,2.6,39.4
		c-1.8,14.2-7.3,22.1-5.8,31.5c1.6,9.5,9.9,35.1,9.9,35.1"/>
	<line class="st8" x1="363.8" y1="83.9" x2="370.3" y2="78.9"/>
	<line class="st8" x1="364.1" y1="78.2" x2="361.4" y2="73.4"/>
	<path class="st8" d="M352.9,116.6c0,0,5.4-4.1,11-8.1"/>
	<path class="st8" d="M355.6,108.1c0,0-4.5-8.8-9.6-14.7"/>
	<path class="st8" d="M355.6,153c3.1-5.7,7-10.9,11.5-15.5"/>
	<path class="st8" d="M354.5,159c-1.6-3.9-3.6-7.6-5.9-11.1c-3.2-4.6-3.6-5.2-3.6-5.2"/>
	<path class="st8" d="M349.4,188.1c1.4-3.4,3-6.7,4.9-9.8c1.9-2.9,4-5.7,6.3-8.2"/>
	<path class="st8" d="M355.3,210.2c-0.3-3.2,0.2-6.5,1.6-9.5c2.3-4.3,4.8-10.1,5.9-12.3"/>
	<path class="st1" d="M325.1,130.9c0,0-0.5-2.7,2.6-7.1c3.1-4.4,5.1-7,5.1-7s2.9,5.8,0.1,10.2c-2.1,3.1-4.5,6-7.1,8.7L325.1,130.9z"
		/>
	<path class="st1" d="M333.4,146.7c0,0-0.5-2.7,2.6-7.1c3.1-4.4,5.1-7,5.1-7s2.9,5.8,0.1,10.2c-2.1,3.1-4.5,6-7.1,8.7L333.4,146.7z"
		/>
	<path class="st1" d="M326.1,135.4c0,0-0.7-2.6-5.5-5.2c-4.7-2.6-7.7-4.1-7.7-4.1s-0.1,6.5,4.3,9.2c3.2,1.9,6.6,3.5,10.1,4.9
		L326.1,135.4z"/>
	<path class="st1" d="M336.1,154c0,0-1-2.5-6-4.6s-8-3.2-8-3.2s0.6,6.5,5.3,8.7c3.4,1.5,6.9,2.7,10.6,3.6L336.1,154z"/>
	<path class="st1" d="M338.6,175.8c0,0-0.5-2.7-4.9-5.8c-4.4-3.1-7.2-4.8-7.2-4.8s-0.8,6.5,3.3,9.6c3,2.2,6.2,4.1,9.5,5.8
		L338.6,175.8z"/>
	<path class="st1" d="M339.6,181c0,0-0.8-2.6,1.6-7.4c2.4-4.8,4.1-7.6,4.1-7.6s3.7,5.4,1.6,10.1c-1.6,3.4-3.6,6.6-5.7,9.6L339.6,181
		z"/>
	<path class="st1" d="M347.1,202.7c0,0,0.3-2.7,4.5-6.1c4.2-3.4,6.9-5.2,6.9-5.2s1.2,6.4-2.8,9.8c-2.9,2.4-6,4.5-9.2,6.3
		L347.1,202.7z"/>
	<path class="st1" d="M346,196c0,0-0.4-2.7-4.9-5.7s-7.2-4.8-7.2-4.8s-0.8,6.5,3.3,9.6c3,2.2,6.2,4.1,9.6,5.8L346,196z"/>
	<path class="st1" d="M345.9,210.6c0,0,0.2-2.7-3.2-6.8s-5.7-6.5-5.7-6.5s-2.4,6.1,0.8,10.2c2.4,2.9,5,5.6,7.8,8L345.9,210.6z"/>
	<path class="st8" d="M324.6,130.2c0.7,2.8,1.5,5.5,2.5,8.2c2.8,7.4,7.4,11.7,10.1,18.4c2.7,6.7,0,16.4,2.6,25c2.6,8.7,7,13,7,19.1
		c0,6.1-2.4,23-2.4,23"/>
	<line class="st8" x1="326.4" y1="137.2" x2="321.8" y2="134.8"/>
	<line class="st8" x1="325.6" y1="133.6" x2="326.8" y2="130.3"/>
	<path class="st8" d="M336.8,156.5c0,0-3.8-2-7.7-3.9"/>
	<path class="st8" d="M334.3,151.5c1.1-3.6,2.6-7,4.4-10.2"/>
	<path class="st8" d="M339.1,179.6c-2.6-3.2-5.6-6.1-8.9-8.4"/>
	<path class="st8" d="M340.4,183.3c0.6-2.6,1.4-5.1,2.5-7.6c1.5-3.3,1.7-3.7,1.7-3.7"/>
	<path class="st8" d="M346.6,205.6c1.5-1.8,3.1-3.6,4.9-5.1c1.2-0.9,2.2-1.8,3.3-2.8"/>
	<path class="st8" d="M346.8,200.9c-1.2-2-2.6-3.9-4.1-5.6c-1.5-1.6-3.1-3.1-4.8-4.5"/>
	<path class="st8" d="M345.5,215.4c-0.2-2.1-0.9-4.1-2-5.8c-1.9-2.5-4.1-5.8-5-7.1"/>
</g>
<g id="freepik--Plants--inject-145_1_" class="st7">
	<path class="st1" d="M942.8,75.5c0,0,0-4.3-6-10.2c-6-6-9.8-9.4-9.8-9.4s-3,9.8,2.6,15.8c4.1,4.2,8.5,8.1,13.2,11.5V75.5z"/>
	<path class="st1" d="M934.1,102.2c0,0,0-4.3-6-10.2c-6-6-9.8-9.4-9.8-9.4s-3,9.8,2.6,15.8c4.1,4.2,8.6,8.1,13.3,11.5L934.1,102.2z"
		/>
	<path class="st1" d="M942.4,82.8c0,0,0.5-4.3,7-9.6c6.6-5.3,10.8-8.3,10.8-8.3s1.9,10.1-4.2,15.5c-4.5,3.8-9.3,7.1-14.4,10.1
		L942.4,82.8z"/>
	<path class="st1" d="M931.9,114.3c0,0,0.9-4.2,8-8.8s11.6-7.2,11.6-7.2s0.9,10.2-5.8,14.9c-4.9,3.3-10,6.1-15.3,8.5L931.9,114.3z"
		/>
	<path class="st1" d="M933.9,148.7c0,0,0-4.3,6-10.2c6-6,9.8-9.4,9.8-9.4s3,9.8-2.6,15.8c-4.1,4.2-8.5,8.1-13.3,11.5L933.9,148.7z"
		/>
	<path class="st1" d="M933.8,157.1c0,0,0.6-4.2-4.5-11s-8.4-10.7-8.4-10.7s-4.4,9.3,0.3,16c3.4,4.7,7.3,9.2,11.5,13.3L933.8,157.1z"
		/>
	<path class="st1" d="M927.9,181.9c0,0,0-4.3,6-10.2c6-6,9.8-9.4,9.8-9.4s3,9.8-2.6,15.8c-4.1,4.2-8.5,8.1-13.3,11.5L927.9,181.9z"
		/>
	<path class="st1" d="M931.9,204.5c0,0-1.1-4.1,3.2-11.4c4.3-7.3,7.2-11.6,7.2-11.6s5.4,8.8,1.5,16c-2.9,5.1-6.2,10-9.9,14.5
		L931.9,204.5z"/>
	<path class="st8" d="M943.3,74.3c-0.3,4.5-0.8,8.9-1.6,13.3c-2.4,12.3-8.3,20.1-10.6,31.1s4.4,25.3,2.6,39.4
		c-1.8,14.2-7.3,22.1-5.8,31.5c1.6,9.5,9.9,35.1,9.9,35.1"/>
	<line class="st8" x1="942.4" y1="85.6" x2="948.8" y2="80.7"/>
	<line class="st8" x1="942.6" y1="79.9" x2="939.9" y2="75.1"/>
	<path class="st8" d="M931.4,118.3c0,0,5.4-4.1,11-8.1"/>
	<path class="st8" d="M934.1,109.9c0,0-4.5-8.8-9.6-14.7"/>
	<path class="st8" d="M934.1,154.7c3.1-5.7,7-10.9,11.5-15.5"/>
	<path class="st8" d="M933.1,160.7c-1.6-3.9-3.6-7.6-5.9-11.1c-3.2-4.6-3.6-5.2-3.6-5.2"/>
	<path class="st8" d="M927.9,189.8c1.4-3.4,3-6.7,4.9-9.8c1.9-2.9,4-5.7,6.3-8.2"/>
	<path class="st8" d="M933.8,211.9c-0.3-3.2,0.2-6.5,1.6-9.5c2.3-4.3,4.8-10.1,5.9-12.3"/>
	<path class="st1" d="M903.6,132.6c0,0-0.5-2.7,2.6-7.1c3.1-4.4,5.1-7,5.1-7s2.9,5.8,0.1,10.2c-2.1,3.1-4.5,6-7.1,8.7L903.6,132.6z"
		/>
	<path class="st1" d="M911.9,148.4c0,0-0.5-2.7,2.6-7.1c3.1-4.4,5.1-7,5.1-7s2.9,5.8,0.1,10.2c-2.1,3.1-4.5,6-7.1,8.7L911.9,148.4z"
		/>
	<path class="st1" d="M904.6,137.1c0,0-0.7-2.6-5.5-5.2c-4.7-2.6-7.7-4.1-7.7-4.1s-0.1,6.5,4.3,9.2c3.2,1.9,6.6,3.5,10.1,4.9
		L904.6,137.1z"/>
	<path class="st1" d="M914.6,155.7c0,0-1-2.5-6-4.6s-8-3.2-8-3.2s0.6,6.5,5.3,8.7c3.4,1.5,6.9,2.7,10.6,3.6L914.6,155.7z"/>
	<path class="st1" d="M917.1,177.5c0,0-0.5-2.7-4.9-5.8c-4.4-3.1-7.2-4.8-7.2-4.8s-0.8,6.5,3.3,9.6c3,2.2,6.2,4.1,9.5,5.8
		L917.1,177.5z"/>
	<path class="st1" d="M918.1,182.8c0,0-0.8-2.6,1.6-7.4c2.4-4.8,4.1-7.6,4.1-7.6s3.7,5.4,1.6,10.1c-1.6,3.4-3.6,6.6-5.7,9.6
		L918.1,182.8z"/>
	<path class="st1" d="M925.6,204.4c0,0,0.3-2.7,4.5-6.1c4.2-3.4,6.9-5.2,6.9-5.2s1.2,6.4-2.8,9.8c-2.9,2.4-6,4.5-9.2,6.3
		L925.6,204.4z"/>
	<path class="st1" d="M924.5,197.7c0,0-0.4-2.7-4.9-5.7c-4.4-3.1-7.2-4.8-7.2-4.8s-0.8,6.5,3.3,9.6c3,2.2,6.2,4.1,9.6,5.8
		L924.5,197.7z"/>
	<path class="st1" d="M924.4,212.3c0,0,0.2-2.7-3.2-6.8s-5.7-6.5-5.7-6.5s-2.4,6.1,0.8,10.2c2.4,2.9,5,5.6,7.8,8L924.4,212.3z"/>
	<path class="st8" d="M903.1,132c0.7,2.8,1.5,5.5,2.5,8.2c2.8,7.4,7.4,11.7,10.1,18.4s0,16.4,2.6,25c2.6,8.7,7,13,7,19.1
		c0,6.1-2.4,23-2.4,23"/>
	<line class="st8" x1="905" y1="138.9" x2="900.4" y2="136.5"/>
	<line class="st8" x1="904.2" y1="135.3" x2="905.3" y2="132"/>
	<path class="st8" d="M915.4,158.2c0,0-3.8-2-7.7-3.9"/>
	<path class="st8" d="M912.8,153.2c1.1-3.6,2.6-7,4.4-10.2"/>
	<path class="st8" d="M917.6,181.4c-2.6-3.2-5.6-6.1-8.9-8.4"/>
	<path class="st8" d="M919,185c0.6-2.6,1.4-5.1,2.5-7.6c1.5-3.3,1.7-3.7,1.7-3.7"/>
	<path class="st8" d="M925.1,207.3c1.5-1.8,3.1-3.6,4.9-5.1c1.2-0.9,2.2-1.8,3.3-2.8"/>
	<path class="st8" d="M925.3,202.6c-1.2-2-2.6-3.9-4.1-5.6c-1.5-1.6-3.1-3.1-4.8-4.5"/>
	<path class="st8" d="M924.1,217.2c-0.2-2.1-0.9-4.1-2-5.8c-1.9-2.5-4.1-5.8-5-7.1"/>
</g>
<g id="freepik--Clock--inject-145">
	<circle class="st9" cx="829.3" cy="-68.9" r="37.1"/>
	<circle class="st10" cx="829.2" cy="-68.9" r="31.5"/>
	<polyline class="st3" points="839,-89.1 829.2,-68.9 843.2,-68.9 	"/>
	<path class="st6" d="M832.8-68.9c0,2-1.6,3.5-3.5,3.5c-2,0-3.5-1.6-3.5-3.5c0-2,1.6-3.5,3.5-3.5c0,0,0,0,0,0
		C831.2-72.4,832.8-70.9,832.8-68.9C832.8-68.9,832.8-68.9,832.8-68.9z"/>
</g>
<g id="freepik--characters-3--inject-145">
	<path class="st5" d="M628.6,27l-4.8-6.9c0,0,0.9-11.1-0.1-12.9c-1.1-1.7-18.3-3.8-19.3-2.5s2.6,2.5,2.6,2.5s-2.5,1.1-2.2,2.3
		c0.4,1.8,3.5,2,3.5,2s-2.5,1.7-2.2,2.8c0.2,0.9,2.7,1.5,2.7,1.5s-2.5,1.1-0.5,2.6c2.1,1.5,3.8,3,3.8,3s-1.4,3.1,2.4,5.7
		s10.6,7.5,10.6,7.5L628.6,27z"/>
	<path class="st11" d="M605.1,0l-3.8-0.3v1.2l3.1,1.7C604.5,1.7,604.8,0.9,605.1,0z"/>
	<path class="st5" d="M620.1,7.8c-0.2,0-0.3,0-0.5-0.1l-15.1-4.8c-0.8-0.2-1.3-1-1.1-1.9s1-1.3,1.9-1.1c0,0,0.1,0,0.1,0l15.1,4.8
		c0.8,0.3,1.2,1.1,1,1.9C621.3,7.3,620.7,7.7,620.1,7.8L620.1,7.8z"/>
	<path class="st11" d="M628,10.7c-0.2,0-0.5,0-0.7-0.1l-7.8-2.5c-1.1-0.2-1.9-1.2-1.7-2.3c0.2-1.1,1.2-1.9,2.3-1.7
		c0.2,0,0.4,0.1,0.7,0.2l7.8,2.5c1.1,0.3,1.6,1.5,1.3,2.5C629.6,10.1,628.8,10.7,628,10.7z"/>
	<path class="st5" d="M621.7,13c-0.7-2-1.5-4-2.5-6c-1.1-2-3.1-3.7-4-5.7c-0.8-2-3,1.1-2.2,2.6s2.6,3.7,2.7,4.7s0.3,1.8-0.9,5.1
		c-1.2,3.4-1.8,7.2,0.8,9.8"/>
	<line class="st8" x1="607.1" y1="7.1" x2="615.7" y2="8.6"/>
	<path class="st8" d="M608.4,11.5c1-0.3,6.5,2.2,6.5,2.2"/>
	<line class="st8" x1="609" y1="15.8" x2="613.4" y2="17.3"/>
	<path class="st12" d="M689.2,13.6c0,0-2.6-1.5-3.7,2.6S681,27.4,679.5,29s-16,15.9-16,15.9s-6.2-4.9-7.7-3.1
		c-0.6,0.9-1.5,1.6-2.5,2l-24.8-19.5l-9.2,13.9c0,0,33.8,30.8,36.6,31.8s4.8,0.6,5.8,0.1c1-0.5,19.5-14.5,19.5-14.5
		s11.3-36.5,12.3-37.8C694.5,16.6,689.2,13.6,689.2,13.6z"/>
	<path class="st12" d="M655.8,45c0,0,5,5.8,5,13.2"/>
	<path class="st12" d="M663.9,47.3c0,0,1.5,3.9-0.8,12.4"/>
	<path class="st11" d="M700.2-31.4c0,0-11-7.2-9.7-14s25.9-12.3,40-7.7c14.1,4.6,17,25.7,15.1,38.8s-3,42.8-3,42.8l-48,1.4
		c0,0,4.5-34.9,5.4-45.9S700.2-31.4,700.2-31.4z"/>
	<path class="st11" d="M675.7,160.7c1,10.4,3,56.3,4.1,63.2h49.9c-0.1-7.8-0.2-60.8,0.9-65.1c1.4-5.4,3.4-23.5,1.2-33.8
		c-2.2-10.4-4.9-15.3-4.9-15.3l-51.8-0.1l0.2,4.2C675.3,113.8,674.3,145.9,675.7,160.7z"/>
	<path class="st13" d="M686.8,129.4c2,1.4,4.1,2.4,4.1,4.4c1,18.2,5.1,69.3,6.5,87.7"/>
	<path class="st5" d="M701.6,12.9l25.3,0.9c0,0-20.3,31.3-20.1,48.5c0.2,17.2,3.6,52.8,3.6,52.8s-11.1,8.8-22.6,7.2
		c-1.2-0.2-1.9-10.5-1.9-10.5s-0.7,10-1.6,9.9c-6.4-1.2-8.9-7.8-8.9-7.8l1.3-34.4c0,0,0-22.6,2.5-29.1c2.5-6.5,19.5-35.3,19.5-35.3
		L701.6,12.9z"/>
	<path class="st8" d="M700.6,32.9c0,0-7.8,16.3-10.7,25.8c-2.9,9.5-4.1,53.1-4.1,53.1"/>
	<path class="st12" d="M723.9,13.6c0,0-17.7,26.5-21.2,36c-3.4,9.5-5.7,46-5.3,61.5c0.5,15.5,5.3,32.5,5.3,32.5
		c14.4,2.3,29.1,1.3,43.1-3c0,0-6.2-27.4-9.2-36.5c-1.9-5.9-3.3-11.9-4.2-18.1c0,0,20.4-65,20.4-66c0-1-0.4-2-2.4-2.6
		S723.9,13.6,723.9,13.6z"/>
	<polyline class="st12" points="707.6,114.9 733.9,112.8 734.3,117 723.1,118.4 	"/>
	<path class="st12" d="M701.4,16.3c0,0-21.1,37.4-21.6,44.1c-0.5,6.8-3.6,37.8-5.3,47.7c-1.7,9.8-9.3,28.9-9.3,28.9
		s-1.9-8.4-1.4-12.1s8.7-24.9,9.6-29.6c0.9-4.7,2-21.6,1.8-29c-0.2-7.4-0.7-12.8,0.8-18.2c1.5-5.4,13.1-34.4,13.1-34.4l16.8-0.8
		L701.4,16.3z"/>
	<polygon class="st5" points="696.8,13.2 693.3,29.3 702.3,22.3 	"/>
	<polygon class="st5" points="707.6,5.4 696.8,13.2 700.9,23.8 700.6,32.9 712.8,14.7 	"/>
	<path class="st5" d="M706.9,1.2c0,0-2,15.1-2.7,19.1s-3.7,12.6-3.7,12.6s19.2-18.6,20.2-20.1c1-1.5,4.3-16.4,4.3-16.4
		S712.7,1,706.9,1.2z"/>
	<path class="st11" d="M706.4,5.4C709,7,711,7,714,6.6c3-0.5,7.2-3.3,9.9-5.6c0.6-2.6,1-4.6,1-4.6S712.7,1,706.9,1.2
		C706.9,1.2,706.7,2.9,706.4,5.4z"/>
	<path class="st5" d="M713.1-44.5l-14.2,11.2c0,0-1.4,10.8-2,18.3c-0.6,6.3,1.9,12.4,6.7,16.5c4.1,3.6,6.4,3.8,10.3,3.2
		c4-0.6,9.9-5.3,12-7.4c2.2-2.1,6.3-8.2,6.3-8.2s3.3,0.7,4.2-0.9c0.5-0.7,0.9-1.5,1.2-2.3c0,0-13.5-7.6-19-17.2
		S713.1-44.5,713.1-44.5z"/>
	<path class="st8" d="M708.7-24.6c-0.2,1.6-0.7,3.1-1.4,4.5c-1,1.5-4.7,2.4-2.6,4.1c1.6,1.1,3.4,1.6,5.3,1.6"/>
	<path class="st8" d="M704.6-11.5c0,0,7.6,3.3,12.5-1.1"/>
	<path class="st8" d="M707.1-10.3c0,0,1.1,4.2,3.6,3.4c2.5-0.8,4.6-4.1,4.6-4.1C712.6-10.6,709.9-10.4,707.1-10.3z"/>
	<path class="st4" d="M718.2-22.7c0,1.1-0.4,2-1,2c-0.6,0-1.1-0.9-1.2-2c0-1.1,0.4-2,1-2S718.2-23.8,718.2-22.7z"/>
	<path class="st4" d="M706.3-24.1c0,1.1-0.4,2-1,2c-0.6,0-1.1-0.9-1.2-2c0-1.1,0.4-2,1-2S706.3-25.2,706.3-24.1z"/>
	<path class="st8" d="M702.3-28.7c1.5-1.6,4-1.6,5.6-0.1c0.1,0.1,0.1,0.1,0.2,0.2"/>
	<path class="st8" d="M713.8-28c0,0,5.7-2.2,8.1,2.8"/>
	<polygon class="st5" points="710.7,17.6 700.6,32.9 715.4,24.9 	"/>
	<polygon class="st5" points="727.5,4.3 710.7,17.6 715.6,31.4 731.8,12.7 	"/>
	<path class="st5" d="M707,82.9c-2.3-0.6-4.4-1.6-6.5-2.8c-3.8-2.3-7.8-1.5-11.2-1.4c-3.4,0.1-5.7,0.8-5.3,2.2
		c0.4,1.3,3.7,1.2,4.8,1.2s2.7,1.6,2.7,1.6l-8.4,2c0,0-2.6,1.8-0.6,3.7c2.1,2,2.5,1.5,2.5,1.5s3.2,5,6.6,5.2
		c3.4,0.2,17.1-3.2,17.1-3.2L707,82.9z"/>
	<path class="st12" d="M730.9,44.2c0.4,2,2.6,32.1,2.6,32.1l-27.8,6.5l1.5,15.8c0,0,49.7-5.9,50.6-8.9c0.9-3.1-2.3-55.9-2-58.9
		c0.3-3,4.3-13.3-7.8-13.3"/>
	<path class="st12" d="M735.5,39.2c0,0,8.1-10.5,17-10.1"/>
	<path class="st12" d="M735.5,43c0,0,7-3.9,13.9-3.9"/>
</g>
<g id="freepik--character-1--inject-145">
	<path class="st14" d="M425.1,223.8v-59.2c0-1-0.8-1.8-1.8-1.8c0,0,0,0,0,0h-7.3c-1,0-1.8,0.8-1.8,1.8v59.2L425.1,223.8z"/>
	<path class="st11" d="M416.1,223.8v-59.2c0-1-0.8-1.8-1.8-1.8H407c-1,0-1.8,0.8-1.8,1.8l0,0v59.2L416.1,223.8z"/>
	<path class="st11" d="M420.2,223.8h129.5c-0.9-2.3-2.4-4.3-4.4-5.7c-5.9-3.7-61.8-12.4-61.8-12.4l-58.1-0.9l-2.8,0.9
		c0,0-3.1,4.3-2.8,6.5C419.9,213.3,420,218.6,420.2,223.8z"/>
	<path class="st5" d="M472.9,93.6c0,0-13.6,7.7-18.2,12s-12.4,18.5-13,27.2c-0.6,8.6-7.4,41.7-7.4,41.7s-13.9,27.2-11.7,31.2
		c2.2,4,59.3,0,60.9,0c1.5,0-1.5-17-1.5-17s21.6-33.4,22.5-42.3s-5.6-33.4-6.8-38.9C496.3,101.9,475.7,92.3,472.9,93.6z"/>
	<path class="st8" d="M462.3,140.8c0,0,10.8,10.2,15.3,13.7"/>
	<path class="st8" d="M457.2,148.7c0,0,19.9,6.8,25,7.4"/>
	<path class="st5" d="M515.2,59c0,0,1.5,11.4,1.2,14.8s-3.4,15.1-4.3,17.6c-0.9,2.5-1.9,5.2-5.2,4.9c-2-0.2-3.9-0.8-5.6-1.9
		l-3.4,11.4l-23.5-13.6l3.1-6.1c0,0-3.4-5.6-4.3-14.8c-0.9-9.3,4.3-19.8,11.1-23.8s18.5-2.5,21.9,0.3S515.2,59,515.2,59z"/>
	<path class="st5" d="M473.2,87.7c1.2,0.3,27.8,12.4,28.1,15.5c0.3,3.1,1.5,12.7,1.5,12.7c-5.5-4.7-11.4-8.8-17.6-12.4
		c-5-2.6-9.7-5.6-14.2-9L473.2,87.7z"/>
	<path class="st12" d="M496.7,33.6c0,0,8-3.4,14.5-1.9c6.5,1.5,9,9,9,15.1s-3.4,13.6-4.6,13.9c-1.2,0.3-4.3-14.5-10.2-18.8
		C502,39.6,499.1,36.8,496.7,33.6z"/>
	<path class="st12" d="M486.8,35.5c0,0,12.7-6.8,23.8,2.8s7.4,19.2,4.9,22.6c-2.5,3.4-2.5,9.9-4.3,11.1c-1.9,1.2-2.2-4.9-4.3-6.1
		s-1.9,3.4-4.3,9.5c-2.5,6.1-13.6,15.1-19.4,14.5c-5.8-0.6-13-7.2-17-20.7s-1.2-28.1,6.1-32.7C476.7,33.7,482.1,33.3,486.8,35.5z"/>
	<path class="st8" d="M511.4,41.3c0,0,2.5,7.1-3.8,15c-6.3,7.9-14.7,12.3-21,8.5c-6.3-3.8-6.6-8.2-6.6-8.2"/>
	<path class="st8" d="M469.9,57.9c0,0-1.4,21.3,11.5,23.5c12.8,2.2,19.9-11.3,19.9-11.3"/>
	<ellipse class="st12" cx="474" cy="45.4" rx="12.8" ry="13"/>
	<path class="st8" d="M471.3,43.5c0,0,1.6-8.5,6.3-9.6"/>
	<path class="st8" d="M470.7,44.6c0,0,9.3-3.3,13.6,0.3"/>
	<path class="st8" d="M470.2,46.2c0,0-4.1,2.7-2.7,9"/>
	<path class="st5" d="M508.7,72.9c0,0-0.9-9.3-3.7-9c-2.8,0.3-1.5,14.2,0,16.4c0.4,0.9,1.5,1.3,2.4,0.8c0.2-0.1,0.5-0.3,0.6-0.5"/>
	<polygon class="st15" points="769.9,211.3 483,211.3 492.6,186.9 705.3,186.9 	"/>
	<rect x="486.1" y="216.1" class="st11" width="279.8" height="7.7"/>
	<rect x="483" y="211.3" class="st14" width="286.9" height="9"/>
	<polygon class="st16" points="591,190 599.4,203.1 532,203.1 538.6,190 	"/>
	<polygon class="st16" points="578.4,194 586.7,207.1 519.3,207.1 525.9,194 	"/>
	<path class="st5" d="M496.4,121.7l12.9,60.2l50.4,7.1c0,0,15.1-6.1,16.4-6.1s3.4,3.7,4.3,4.9c0.9,1.2,2.5,3.1,3.1,4
		c0.6,1,0.9,5.6,0,6.8c-0.9,1.2-2.8,4.6-4.6,4.3s0-5.2,0-5.2s-10.8,4.3-14.2,4.3c-3.4,0-10.2-3.1-10.2-3.1s-57.3,6.4-60.8,5.2
		c-2.8-0.9-5.2-2.9-6.5-5.6c-1.2-2.5-21-68.6-21-68.6"/>
	<path class="st5" d="M580.4,187.8c-0.9-1.2-3.1-4.9-4.3-4.9c-1.3,0-16.4,6.1-16.4,6.1l-28.7-4.1c1.9,5.2,2.3,10.8,1.4,16.3
		c12-1.2,22.1-2.4,22.1-2.4s6.8,3.1,10.2,3.1c3.4,0,14.2-4.2,14.2-4.2s-1.9,4.9,0,5.2c1.9,0.3,3.7-3.1,4.6-4.3
		c0.9-1.3,0.6-5.9,0-6.8C582.9,190.9,581.3,189,580.4,187.8z"/>
	<line class="st8" x1="397.6" y1="223.8" x2="886.8" y2="223.8"/>
</g>
<g id="freepik--Device--inject-145">
	<polygon class="st5" points="666.3,203.6 720.7,203.6 720.7,201.8 639.7,189.7 641.7,191.4 	"/>
	<polygon class="st5" points="666.3,201.8 720.7,201.8 691.9,190 641.7,189.7 	"/>
	<polygon class="st17" points="675.1,192.4 680.2,192.4 677.6,191.3 672.6,191.3 	"/>
	<polygon class="st17" points="685.5,196.7 688.1,197.8 693.2,197.8 690.6,196.7 	"/>
	<polygon class="st17" points="694.9,195.1 689.3,195.1 690.8,195.7 696.4,195.7 	"/>
	<polygon class="st17" points="683.1,195.7 688.2,195.7 686.7,195.1 681.6,195.1 	"/>
	<polygon class="st17" points="686.9,194.1 692.5,194.1 690.9,193.4 685.3,193.4 	"/>
	<polygon class="st17" points="667.4,192.4 672.5,192.4 670.1,191.4 665.1,191.4 	"/>
	<polygon class="st17" points="677.6,193.4 679.1,194.1 684.2,194.1 682.7,193.4 	"/>
	<polygon class="st17" points="702.6,200.6 708.4,200.6 704,198.8 698.3,198.8 	"/>
	<polygon class="st17" points="690.5,198.8 694.8,200.6 699.9,200.6 695.6,198.8 	"/>
	<polygon class="st17" points="682.8,198.8 687.1,200.6 692.2,200.6 687.9,198.8 	"/>
	<polygon class="st17" points="680.2,198.8 670.2,198.8 673.8,200.6 684.5,200.6 	"/>
	<polygon class="st17" points="682.9,192.4 688.4,192.4 685.6,191.2 680.2,191.3 	"/>
	<polygon class="st17" points="693.2,196.7 695.8,197.8 701.6,197.8 698.9,196.7 	"/>
	<polygon class="st17" points="685.5,197.8 682.8,196.7 677.8,196.7 680.4,197.8 	"/>
	<polygon class="st17" points="664.8,192.4 662.5,191.4 655.7,191.5 657.5,192.4 	"/>
	<polygon class="st17" points="678.9,195.1 673.8,195.1 675.3,195.7 680.4,195.7 	"/>
	<polygon class="st17" points="669.8,193.4 671.4,194.1 676.5,194.1 674.9,193.4 	"/>
	<polygon class="st17" points="672.7,195.7 671.2,195.1 662.8,195.1 664,195.7 	"/>
	<polygon class="st17" points="660.8,194.1 668.8,194.1 667.2,193.4 659.5,193.4 	"/>
	<polygon class="st17" points="675.1,196.7 666,196.7 668.2,197.8 677.7,197.8 	"/>
	<polygon class="st5" points="666.3,201.8 664.3,201.8 626.7,147.6 628.6,147 653.2,147 	"/>
	<polygon class="st5" points="664.3,201.8 639.7,189.7 626.6,147 651.2,147 	"/>
</g>
<g id="freepik--characters-2--inject-145">
	<path class="st11" d="M879.5,223.8v-65.7c0-1-0.8-1.8-1.8-1.8c0,0,0,0,0,0h-24c-1,0-1.8,0.8-1.8,1.8c0,0,0,0,0,0v65.7H879.5z"/>
	<path class="st14" d="M870.8,223.8v-65.7c0-1-0.8-1.8-1.7-1.8c0,0,0,0,0,0h-23.9c-1,0-1.8,0.8-1.8,1.7c0,0,0,0,0,0v65.7H870.8z"/>
	<path class="st12" d="M774.9,119c0,0-10.6,7-11.9,11.4c-1.3,4.3-9.2,29-10,30.8c-0.8,1.9-7.3,11.9-7.3,11.9l-34.6,1.6
		c0,0-15.7-3.5-17.1-3.5s-14.9,8.9-16,11.4c-1.1,2.4-3.5,6-2.4,6.8c1.1,0.8,2.7-0.5,2.7-0.5s0.5,3.8,7.3,2.4
		c6.8-1.4,13.5-6.2,13.5-6.2s8.4,4.1,11.6,3.2l0.3-0.1v3.6c0,0,45.7,2.4,47.6,1.9c1.9-0.5,11.9-12.7,11.9-12.7l11.6-62.8
		C782.2,118.2,781.6,112.2,774.9,119z"/>
	<path class="st14" d="M711.8,175.7l-0.7-0.9H711c0,0-15.7-3.5-17.1-3.5c-1.4,0-14.9,8.9-16,11.4c-1.1,2.4-3.5,6-2.4,6.8
		c1.1,0.8,2.7-0.5,2.7-0.5s0.5,3.8,7.3,2.4c6.8-1.4,13.5-6.2,13.5-6.2s8.4,4.1,11.6,3.2l0.3-0.1v3.6L711.8,175.7z"/>
	<path class="st12" d="M776.2,223.8h1.1c-0.8-2-1.6-3.8-1.9-4.7c-0.9-2.9-11.3-40.4-12.4-45.9s-0.6-13.3,2.3-24.3s9.6-29.9,9.6-29.9
		l-9.6,13.4c0,0-8.1,31.2-8.1,35.2c0,4,4,24.5,8.1,34.7C767.6,208.2,772.5,217.2,776.2,223.8z"/>
	<path class="st5" d="M779.2,111.4c0,0-10,15.7-12.7,26.5s-4.9,20.3-4.9,30c0,9.7,10.8,37.3,12.4,40.9s19.2,4.6,24.6-12.2
		s7.8-65.2,4.6-76.3S786,104.1,779.2,111.4z"/>
	<path class="st18" d="M776.4,109.1c-0.7,1-9.7,6-9.7,6l-0.3,9.3l2.7-5l4.2,12.4l4.5-23L776.4,109.1z"/>
	<path class="st12" d="M777.4,223.8H851c-2.4-6.5-11.8-31.6-12.1-32.7c-0.3-1.3-8-60.6-16-71.6s-26.6-15-30.6-12.7
		c0,0-13.3,27-18.3,39.6c-5,12.7-8.3,37.6-8.3,41.3s7,26.6,7,26.6L777.4,223.8z"/>
	<polyline class="st8" points="830.4,204 798.6,213.5 800.6,217.5 818.2,212.1 	"/>
	<path class="st5" d="M760.6,62.3c0,0-2.6,7.9-2.6,9.5c0,1.2,0,2.4,0.1,3.6c0,0.6-0.1,1.3-0.5,1.9c-0.5,0.9-6.5,6.6-5.8,7.8
		c0.7,1.2,4.8,5.7,4.8,5.7s2.9,13.8,6.8,15.4s9.3,0.6,9.3,0.6l2,5.4l24.2-7.9l-0.4-7.9c0,0,2.4-14.2-0.4-24.3S771.3,50.8,760.6,62.3
		z"/>
	<path class="st4" d="M761.4,78.5c-0.3,1.2-0.9,2-1.3,1.9s-0.6-1.2-0.3-2.3s0.9-2,1.3-1.9C761.6,76.3,761.7,77.3,761.4,78.5z"/>
	<path class="st5" d="M759.7,73.1c2-0.6,4.2,0.6,4.7,2.7c0,0,0,0,0,0"/>
	<path class="st5" d="M757.3,92.7c0,0,2.7,2.7,7.4,1"/>
	<path class="st11" d="M775.5,42.9c-1.6-3.8-4.9-6.6-9-7.4c-6.9-1.3-11.8,8.3-10.1,12c1.7,3.7,2.5,4.5-0.8,4.7
		c-3.3,0.2-9.7,8.8-4.1,14.1c5.6,5.3,12.3-2.3,12.7,0.4c0.3,2.7-0.6,5.1,2.7,5.2c3.2,0.1,8.6-0.2,7.7,1.9s-1,7,2,7.7
		c3.1,0.7,5-3.1,7.2-2.5c2.2,0.5,5.1,7.4,3.2,11.3c-1.9,3.8-3.2,3.8-3.4,4.7c-0.2,0.9,5.8,7.3,11.9,6.1c6.2-1.1,14.2-3.1,15.1-9.8
		c0.9-6.6-1-8.1,1.5-10.4c2.6-2.3,5-3.1,4.3-6.8c-0.7-3.8-3.1-5-2.3-8.1c0.8-3.1-2.3-17.3-15.6-23.4S775.5,42.9,775.5,42.9z"/>
	<polygon class="st5" points="801.5,96.8 771.1,114.5 773.2,131.8 805.8,106 	"/>
	<path class="st5" d="M721.8,179.1c0,0-6.1-2.3-10-3.4c-6.7-1.9-12.9-4.8-15.3-4.1c-2.3,0.7-13.7,8.5-13.7,8.5s-4,9.7-3.7,11
		c0.3,1.3,2.8-0.8,2.8-0.8s-1.4,1.8-0.1,3.2c1.3,1.3,2.7-1.3,2.7-1.3s-0.3,3.3,1.7,3c1.1,0,2-0.8,2.2-1.8c0,0,0.1,1.8,1.8,1.8
		c1.7,0,5.3-7,5.3-7l6.3,0.3c0,0,5,2.7,8,3s6.7-1.7,6.7-1.7l4,1l3.3-9.7L721.8,179.1z"/>
	<path class="st8" d="M681.9,190.2c0,0,3.4-8.2,3.9-8.7c0.5-0.5,7.4-4.4,7.4-4.4"/>
	<path class="st8" d="M684.5,192c0,0,4.1-8.3,4.5-8.8c0.4-0.4,5.6-3,5.6-3"/>
	<path class="st8" d="M688.3,193.2c0,0,3.9-7.6,4.6-8s2.4-1.4,2.4-1.4"/>
	<path class="st12" d="M810,118.8c0,0-21,13.6-20.6,19c0.3,5.3,2,5.3,2,5.3l-10.7,40c0,0-3.3-2.7-3.7,0.7l-0.3,3.3l-55.6-9.3
		l-5.7,14c0,0,23,9,39,14.6c16,5.7,32.6,12,34.3,9c1.7-3,34.6-52.3,36.7-55.9c2-3.7,2-10.3,2-10.3"/>
	<path class="st8" d="M791.4,143.1c0,0,6.3-13,21.6-14"/>
</g>
</svg>
