<?xml version="1.0" encoding="utf-8"?>
<!-- Generator: Adobe Illustrator 19.0.0, SVG Export Plug-In . SVG Version: 6.00 Build 0)  -->
<svg version="1.1" id="Layer_1" xmlns="http://www.w3.org/2000/svg" xmlns:xlink="http://www.w3.org/1999/xlink" x="0px" y="0px"
	 width="647.5px" height="425.4px" viewBox="313 -201.4 647.5 425.4" style="enable-background:new 313 -201.4 647.5 425.4;"
	 xml:space="preserve">
<style type="text/css">
	.st0{fill:#F5F5F5;}
	.st1{fill:#263238;}
	.st2{fill:#FFFFFF;}
	.st3{fill:#E0E0E0;}
	.st4{fill:#5F4CA4;}
	.st5{fill:#FAFAFA;}
	.st6{opacity:0.3;}
	.st7{fill:#455A64;}
	.st8{opacity:0.2;}
	.st9{fill:#FFBE9D;}
	.st10{opacity:0.5;}
	.st11{fill:#EB996E;}
	.st12{opacity:0.1;}
	.st13{opacity:0.4;}
	.st14{fill:#8E4842;}
	.st15{fill:#B2655F;}
</style>
<g id="freepik--background-simple--inject-201">
	<path class="st0" d="M328.3,10.5l1.7,2.9c14.6,24.1,41.1,38.7,69,36.9c3.6-0.2,7.2-0.7,10.7-1.4c25.4-5.4,47.4-24.6,56.6-49.2
		c5.4-14.5,6.9-31.1,17.1-42.6c13.3-14.9,35.8-15.4,55.7-14.8c19.8,0.6,42.4,0.1,55.6-14.9c8.3-9.4,10.9-22.7,10.2-35.3
		c-1.8-33.3-24.9-63-54.4-77.8c-29.5-14.8-64.2-16.1-96.5-9.6c-45.2,9.1-88.2,34.1-114,72.8S307.6-31.2,328.3,10.5z"/>
	<path class="st0" d="M934.8-22.1L933-25c-14.6-24.1-41.1-38.6-69-36.9c-3.6,0.2-7.2,0.7-10.7,1.5C828-55,806-35.8,796.8-11.2
		c-5.4,14.4-6.9,31.1-17.1,42.5c-13.3,14.9-35.8,15.4-55.7,14.8c-19.8-0.6-42.4-0.1-55.6,14.9c-8.3,9.4-10.9,22.7-10.2,35.3
		c1.8,33.3,24.9,63,54.4,77.8c29.5,14.8,64.2,16.1,96.4,9.6c45.2-9.1,88.2-34.1,114-72.8C948.9,72.2,955.5,19.6,934.8-22.1z"/>
</g>
<g id="freepik--Floor--inject-201">
	<path class="st1" d="M959.2,223.7c0,0.1-141.7,0.2-316.3,0.2s-316.4-0.1-316.4-0.2s141.6-0.2,316.4-0.2S959.2,223.6,959.2,223.7z"
		/>
</g>
<g id="freepik--Screen--inject-201">
	<polygon class="st2" points="798.5,-176 515.8,-176 515.8,87.8 641.7,87.8 641.7,111.1 662.3,87.8 798.5,87.8 	"/>
	<rect x="515.4" y="-176" class="st3" width="283.5" height="19.1"/>
	<path class="st2" d="M530.6-165.8c0,2.3-1.9,4.1-4.2,4.1c-2.3,0-4.1-1.9-4.1-4.2c0-2.3,1.9-4.1,4.2-4.1
		C528.8-170,530.6-168.1,530.6-165.8C530.6-165.8,530.6-165.8,530.6-165.8z"/>
	<path class="st2" d="M542.6-165.8c0,2.3-1.9,4.1-4.2,4.1c-2.3,0-4.1-1.9-4.1-4.2c0-2.3,1.9-4.1,4.2-4.1
		C540.8-170,542.6-168.1,542.6-165.8C542.6-165.8,542.6-165.8,542.6-165.8z"/>
	<path class="st2" d="M554.6-165.8c0,2.3-1.9,4.2-4.2,4.2c-2.3,0-4.2-1.9-4.2-4.2c0-2.3,1.9-4.2,4.2-4.2
		C552.7-170,554.6-168.1,554.6-165.8C554.6-165.8,554.6-165.8,554.6-165.8z"/>
	<path class="st1" d="M798.5,88c0-1.7-0.1-104.9-0.2-264l0.2,0.2H515.8l0.2-0.2v16.6c0,89,0,173.1,0,247.4l-0.2-0.2h125.8h0.2V88
		c0,8.2,0,15.7,0,23.1l-0.3-0.1l20.6-22.7l0,0h0.1L798.5,88l-136.2,0.5l0.1-0.1l-20.6,22.7l-0.3,0.3v-0.4c0-7.3,0-14.9,0-23.1
		l0.2,0.2H515.9h-0.2V88c0-74.3,0-158.5,0-247.4v-16.7h0.2h282.7h0.2v0.2C798.6-16.9,798.5,86.3,798.5,88z"/>
	<rect x="531.2" y="-118.6" class="st3" width="43.4" height="6.1"/>
	<path class="st1" d="M617.9-97c0,0.1-19.4,0.2-43.3,0.2s-43.3-0.1-43.3-0.2s19.4-0.2,43.3-0.2S617.9-97.1,617.9-97z"/>
	<path class="st1" d="M592-71.4c0,0.1-13.6,0.3-30.3,0.3s-30.3-0.1-30.3-0.3s13.6-0.2,30.3-0.2C578.4-71.6,592-71.5,592-71.4z"/>
	<path class="st1" d="M617.9-85.2c0,0.1-19.4,0.2-43.3,0.2s-43.3-0.1-43.3-0.2s19.4-0.2,43.3-0.2S617.9-85.3,617.9-85.2z"/>
	<path class="st4" d="M649.8,52.6h-34.9V17.7h34.9V52.6z M615.8,51.7h33.1V18.6h-33.1V51.7z"/>
	<path class="st4" d="M584.1,52.6h-34.9V17.7h34.9V52.6z M550.1,51.7h33.1V18.6h-33.1V51.7z"/>
	<path class="st1" d="M585.6,60.4c0,0.1-8.5,0.2-18.9,0.2s-18.9-0.1-18.9-0.2c0-0.1,8.5-0.2,18.9-0.2S585.6,60.2,585.6,60.4z"/>
	<path class="st1" d="M582.3,68.1c0,0.1-7.3,0.2-16.4,0.2s-16.4-0.1-16.4-0.2s7.3-0.2,16.4-0.2C575,67.9,582.3,68,582.3,68.1z"/>
	<path class="st1" d="M652.2,60.4c0,0.1-8.5,0.2-18.9,0.2s-18.9-0.1-18.9-0.2c0-0.1,8.5-0.2,18.9-0.2S652.2,60.2,652.2,60.4z"/>
	<path class="st1" d="M648.9,68.1c0,0.1-7.3,0.2-16.4,0.2c-9.1,0-16.4-0.1-16.4-0.2s7.3-0.2,16.4-0.2
		C641.6,67.9,648.9,68,648.9,68.1z"/>
	<path class="st4" d="M649.3,18.2c0.1,0.1-7.4,7.8-16.8,17.2c-9.4,9.4-17.1,17-17.2,16.8c-0.1-0.1,7.4-7.8,16.8-17.2
		C641.5,25.6,649.2,18.1,649.3,18.2z"/>
	<path class="st4" d="M647.5,52.4c-0.1-0.1-0.2-0.2-0.3-0.3l-0.8-1.1c-0.7-0.9-1.7-2.3-3-3.9c-2.5-3.3-6.2-7.7-10.5-12.3
		c-4.3-4.6-8.4-8.6-11.5-11.4c-1.5-1.4-2.8-2.5-3.6-3.3l-1-0.9c-0.2-0.2-0.3-0.3-0.3-0.3c0.1,0.1,0.3,0.2,0.4,0.3l1.1,0.8
		c0.9,0.7,2.2,1.8,3.7,3.2c3.1,2.7,7.3,6.7,11.6,11.4c3.7,4,7.1,8.1,10.4,12.5c1.2,1.7,2.2,3,2.9,4l0.7,1.1
		C647.5,52.2,647.6,52.4,647.5,52.4z"/>
	<path class="st4" d="M582.9,20.2c0.1,0.1-7.4,7.3-16.6,16.1s-16.9,15.8-17,15.7c-0.1-0.1,7.4-7.3,16.7-16.1S582.8,20.1,582.9,20.2z
		"/>
	<path class="st4" d="M582.5,52c0,0-0.1-0.1-0.3-0.3l-0.9-1.1c-0.7-0.9-1.8-2.2-3.1-3.8c-2.7-3.2-6.5-7.6-11-12.1s-8.8-8.4-12-11.2
		c-1.6-1.4-2.9-2.4-3.8-3.2l-1-0.9c-0.1-0.1-0.2-0.2-0.3-0.3c0,0,0.1,0.1,0.4,0.3l1.1,0.8c0.9,0.7,2.3,1.7,3.9,3.1
		c4.2,3.5,8.3,7.2,12.1,11.1c3.8,3.9,7.5,8,10.9,12.2c1.3,1.6,2.3,3,3,3.9l0.8,1.1C582.4,51.7,582.5,51.9,582.5,52z"/>
	<path class="st4" d="M772.7,52.1h-35V17.2h34.9L772.7,52.1z M738.7,51.2h33.1V18.1h-33.1L738.7,51.2z"/>
	<path class="st4" d="M711.7,52.1h-34.9V17.2h34.9V52.1z M677.7,51.2h33V18.1h-33.1L677.7,51.2z"/>
	<path class="st1" d="M713.1,59.8c0,0.1-8.5,0.2-18.9,0.2c-10.4,0-18.9-0.1-18.9-0.2c0-0.1,8.5-0.2,18.9-0.2
		C704.6,59.6,713.1,59.7,713.1,59.8z"/>
	<path class="st1" d="M709.8,67.6c0,0.1-7.3,0.2-16.4,0.2S677,67.7,677,67.6c0-0.1,7.3-0.2,16.4-0.2S709.8,67.4,709.8,67.6z"/>
	<path class="st1" d="M775.1,59.8c0,0.1-8.5,0.2-18.9,0.2s-18.9-0.1-18.9-0.2c0-0.1,8.5-0.2,18.9-0.2S775.1,59.7,775.1,59.8z"/>
	<path class="st1" d="M771.8,67.6c0,0.1-7.3,0.2-16.4,0.2S739,67.7,739,67.6c0-0.1,7.3-0.2,16.4-0.2S771.8,67.4,771.8,67.6z"/>
	<path class="st4" d="M772.2,17.7c0.1,0.1-7.4,7.8-16.8,17.2s-17.1,16.9-17.2,16.8c-0.1-0.1,7.4-7.8,16.8-17.2
		S772.1,17.6,772.2,17.7z"/>
	<path class="st4" d="M770.4,51.9c-0.1-0.1-0.2-0.2-0.3-0.3l-0.8-1.1c-0.7-0.9-1.7-2.3-3-3.9c-2.6-3.3-6.2-7.7-10.5-12.3
		s-8.4-8.6-11.5-11.4c-1.5-1.4-2.8-2.5-3.6-3.3l-1-0.9c-0.2-0.2-0.3-0.3-0.3-0.3c0.1,0.1,0.3,0.2,0.4,0.3l1.1,0.8
		c0.9,0.7,2.2,1.9,3.7,3.2c3.1,2.8,7.3,6.7,11.6,11.4c3.7,4,7.1,8.1,10.4,12.5c1.2,1.7,2.2,3,2.9,4c0.3,0.4,0.5,0.8,0.7,1.1
		C770.4,51.7,770.5,51.8,770.4,51.9z"/>
	<path class="st4" d="M710.5,19.7c0.1,0.1-7.4,7.3-16.6,16.1c-9.3,8.8-16.9,15.8-17,15.7s7.4-7.3,16.7-16.1S710.4,19.6,710.5,19.7z"
		/>
	<path class="st4" d="M710.1,51.5c-0.1-0.1-0.2-0.2-0.3-0.3c-0.2-0.3-0.5-0.6-0.9-1c-0.7-0.9-1.8-2.2-3.1-3.8
		c-2.7-3.2-6.5-7.6-11-12.1s-8.8-8.4-12-11.2c-1.6-1.4-2.9-2.4-3.8-3.2l-1-0.9c-0.1-0.1-0.2-0.2-0.3-0.3c0,0,0.1,0.1,0.4,0.3
		l1.1,0.8c0.9,0.7,2.3,1.7,3.9,3.1c8.4,7,16.1,14.8,23,23.3c1.3,1.6,2.3,3,3,3.9l0.8,1.1C710,51.4,710.1,51.5,710.1,51.5z"/>
	<path class="st4" d="M770.9-20.9H652.5v-118.3h118.3V-20.9z M653.5-21.8H770v-116.5H653.5V-21.8z"/>
	<path class="st4" d="M765.4-26.4H657.7V-134h107.7V-26.4z M658.7-27.3h105.8v-105.8H658.7V-27.3z"/>
	<polygon class="st4" points="660.2,-27.8 659.4,-28.4 691.1,-70.5 713,-58.3 740.8,-100.4 741.5,-99.9 713.3,-57.1 691.3,-69.3 	
		"/>
	<path class="st4" d="M708-88.3c-7.8,0-14.2-6.4-14.2-14.2c0-7.8,6.4-14.2,14.2-14.2c7.8,0,14.2,6.4,14.2,14.2c0,0,0,0,0,0
		C722.1-94.7,715.8-88.3,708-88.3z M708-115.8c-7.3,0-13.3,5.9-13.3,13.3c0,7.3,5.9,13.3,13.3,13.3c7.3,0,13.3-5.9,13.3-13.3
		C721.2-109.8,715.3-115.8,708-115.8z"/>
	<rect x="690.3" y="-70.8" class="st4" width="1.7" height="1.7"/>
	<rect x="712.2" y="-58.7" class="st4" width="1.7" height="1.7"/>
	<rect x="740.3" y="-100.8" class="st4" width="1.7" height="1.7"/>
	<rect x="707.1" y="-89.7" class="st4" width="1.7" height="1.7"/>
	<rect x="707.1" y="-117.2" class="st4" width="1.7" height="1.7"/>
	<rect x="720.9" y="-103.4" class="st4" width="1.7" height="1.7"/>
	<rect x="693.3" y="-103.4" class="st4" width="1.7" height="1.7"/>
	<rect x="658.9" y="-29" class="st4" width="1.7" height="1.7"/>
	<path class="st4" d="M741.2-81.1c-0.1,0-0.2-8-0.2-17.9s0.1-18,0.2-18c0.1,0,0.2,8,0.2,18S741.3-81.1,741.2-81.1z"/>
	<path class="st4" d="M741.8-117c0,0.4-0.3,0.7-0.6,0.7c-0.4,0-0.7-0.3-0.7-0.6c0,0,0,0,0,0c0-0.4,0.3-0.7,0.7-0.6
		C741.5-117.6,741.8-117.3,741.8-117z"/>
	<circle class="st4" cx="741.2" cy="-80.7" r="0.7"/>
	<path class="st3" d="M786.7,0.5c0,0.1-48.4,0.2-108,0.2c-59.6,0-108-0.1-108-0.2s48.4-0.3,108-0.3C738.4,0.2,786.7,0.4,786.7,0.5z"
		/>
</g>
<g id="freepik--Images--inject-201">
	<polygon class="st5" points="820,140 821.5,210.4 745,211.4 743.5,141 	"/>
	<path class="st1" d="M820,140h-0.4h-1.1l-4.2,0.1l-15.7,0.3l-55.2,0.9l0.2-0.2c0.5,21,1,45,1.6,70.4l0,0l-0.2-0.3l76.5-1l-0.2,0.2
		c-0.4-21.2-0.8-38.8-1-51.1c-0.1-6.1-0.2-11-0.3-14.3c0-1.6,0-2.9-0.1-3.8C819.9,140.4,820,139.9,820,140c0,0,0,0.4,0,1.2
		s0.1,2.1,0.1,3.7c0.1,3.3,0.2,8.1,0.4,14.2c0.3,12.3,0.7,29.9,1.2,51.2v0.2h-0.2l-76.5,1.1h-0.2v-0.3l0,0
		c-0.5-25.4-1-49.4-1.4-70.4v-0.2h0.2l55.4-0.7l15.6-0.2h4.1L820,140L820,140z"/>
	<polygon class="st4" points="747.5,207.9 818.7,206.9 817.3,145.4 746.2,146.4 	"/>
	<g class="st6">
		<polygon points="747.5,207.9 771.5,169.3 787.5,193 797.6,180.1 818.7,206.9 		"/>
	</g>
	<g class="st6">
		<path d="M793.4,164.8c0.1,3.6-2.4,6.5-5.5,6.5c-3.1,0-5.7-2.8-5.7-6.4c-0.1-3.6,2.4-6.5,5.5-6.5
			C790.7,158.4,793.3,161.2,793.4,164.8z"/>
	</g>
	<polygon class="st5" points="800.8,133.4 802.4,203.8 725.9,204.9 724.3,134.5 	"/>
	<path class="st1" d="M800.8,133.4h-0.4h-1.1l-4.2,0.1l-15.7,0.3l-55.2,0.9l0.2-0.2c0.5,21,1,45,1.6,70.4l0,0l-0.2-0.3l76.5-1
		l-0.2,0.2c-0.4-21.2-0.8-38.8-1-51.1c-0.1-6.1-0.2-11-0.3-14.3c0-1.6,0-2.9-0.1-3.8C800.8,133.8,800.8,133.4,800.8,133.4
		c0,0,0,0.4,0.1,1.2c0.1,0.8,0.1,2.1,0.1,3.7c0.1,3.3,0.2,8.1,0.4,14.2c0.3,12.3,0.7,29.9,1.2,51.2v0.2h-0.2l-76.5,1.1h-0.2v-0.3
		l0,0c-0.5-25.4-1.1-49.4-1.5-70.4v-0.2h0.2l55.4-0.7l15.6-0.2h4.1L800.8,133.4L800.8,133.4z"/>
	<polygon class="st7" points="728.4,200.4 799.5,199.4 798.2,137.9 727.1,138.9 	"/>
	<polygon class="st7" points="728.4,200.4 752.4,161.8 768.3,185.5 778.5,172.6 799.5,199.4 	"/>
	<path class="st7" d="M774.2,156.8c0.1,3.6-2.4,6.5-5.5,6.5s-5.7-2.8-5.7-6.4c-0.1-3.6,2.4-6.5,5.5-6.5S774.2,153.3,774.2,156.8z"/>
	<g class="st6">
		<polygon points="728.4,200.4 752.4,161.8 768.3,185.5 778.5,172.6 799.5,199.4 		"/>
	</g>
	<g class="st6">
		<path d="M774.2,156.8c0.1,3.6-2.4,6.5-5.5,6.5s-5.7-2.8-5.7-6.4c-0.1-3.6,2.4-6.5,5.5-6.5S774.2,153.3,774.2,156.8z"/>
	</g>
	<polygon class="st5" points="792.5,124.5 794.1,194.9 717.6,195.9 716,125.5 	"/>
	<path class="st1" d="M792.5,124.5h-0.4h-1.1l-4.2,0.1l-15.7,0.3l-55.2,0.9l0.2-0.2c0.5,21,1,45,1.6,70.4l0,0l-0.2-0.3l76.5-1
		l-0.2,0.2c-0.4-21.2-0.8-38.8-1-51.1c-0.1-6.1-0.2-11-0.3-14.3c0-1.6,0-2.9-0.1-3.8C792.5,124.9,792.5,124.4,792.5,124.5
		c0,0,0,0.4,0,1.2s0.1,2.1,0.1,3.7c0.1,3.3,0.2,8.1,0.4,14.2c0.3,12.3,0.7,29.9,1.2,51.2v0.2H794l-76.5,1.1h-0.2v-0.3l0,0
		c-0.5-25.4-1.1-49.4-1.5-70.4v-0.2h0.2l55.4-0.7l15.6-0.2h4.1L792.5,124.5L792.5,124.5z"/>
	<polygon class="st4" points="720.1,192.4 791.2,191.4 789.9,129.9 718.8,130.9 	"/>
	<g class="st6">
		<polygon points="720.1,192.4 744.1,153.8 760,177.5 770.2,164.6 791.2,191.4 		"/>
	</g>
	<g class="st6">
		<path d="M765.9,149.3c0.1,3.6-2.4,6.5-5.5,6.5s-5.7-2.8-5.7-6.4s2.4-6.5,5.5-6.5C763.3,142.9,765.9,145.7,765.9,149.3z"/>
	</g>
	<polygon class="st5" points="783.6,133.5 785.3,203.9 702.6,205 700.9,134.6 	"/>
	<path class="st1" d="M783.6,133.5h-0.4h-1.2l-4.5,0.1l-16.9,0.3l-59.7,0.9l0.2-0.2c0.5,21,1.1,45,1.7,70.4l0,0l-0.3-0.3l82.7-1
		l-0.2,0.2c-0.5-21.2-0.8-38.8-1.1-51.1c-0.1-6.1-0.2-11-0.3-14.3c0-1.6-0.1-2.9-0.1-3.7C783.6,134,783.6,133.5,783.6,133.5
		c0,0,0,0.4,0,1.2s0.1,2.1,0.1,3.7c0.1,3.3,0.2,8.1,0.4,14.2c0.3,12.3,0.8,29.9,1.3,51.2v0.2h-0.2l-82.7,1.1h-0.2V205l0,0
		c-0.6-25.4-1.2-49.4-1.6-70.4v-0.2h0.2l59.8-0.7l16.9-0.2h4.5L783.6,133.5L783.6,133.5z"/>
	<polygon class="st4" points="705.3,200.5 782.2,199.5 780.8,138 703.9,139 	"/>
	<g class="st6">
		<polygon points="705.3,200.5 731.3,161.9 748.5,185.7 759.5,172.7 782.2,199.5 		"/>
	</g>
	<g class="st6">
		<path d="M754.9,156.9c0.2,3.4-2.4,6.3-5.8,6.5c0,0,0,0-0.1,0c-3.5-0.1-6.2-2.9-6.2-6.4c-0.2-3.4,2.4-6.3,5.8-6.5c0,0,0,0,0.1,0
			C752.1,150.7,754.9,153.5,754.9,156.9z"/>
	</g>
	<rect x="744.8" y="175.7" class="st1" width="77.9" height="47.8"/>
	<rect x="697.2" y="175.7" class="st7" width="85.4" height="47.8"/>
</g>
<g id="freepik--character-3--inject-201">
	<path class="st4" d="M845,18.9l-1.1-0.3c-5,2.1-8.4,7.1-10.1,12.2c-1.8,5.2-2.2,10.7-3.2,16.1c-1,5.4-2.8,10.8-6.5,14.8
		c2.5,2.1,5.1,4,7.8,5.7c0.9,0.6,1.9,1,2.9,1.1c1.7,0.1,3.1-1.1,4.3-2.4c5.7-6.1,6.4-17,7-25.3S847.3,26.9,845,18.9z"/>
	<g class="st8">
		<path d="M840.9,22c0,0-12.3,43.2-11.5,43.7s3.2,2.1,3.2,2.1l11.3-45.1L840.9,22z"/>
	</g>
	<path class="st4" d="M849.1,11.5c-0.2-1.7-1.6-3.1-3.3-3.3c-1.7-0.1-3.4,0.6-4.5,2c-1.1,1.3-1.7,3-1.9,4.6
		c-0.4,2.4-0.1,5.1,1.9,6.5c1.6,1,3.6,1,5.2-0.1c1.5-1.1,2.5-2.7,2.9-4.5c0.3-1.8,0.2-3.7-0.2-5.4"/>
	<path class="st1" d="M844.9,18.6c-0.3-0.4-0.5-1-0.6-1.5c-0.6-2.6-0.1-5.3,1.5-7.5c0.6-0.8,1.1-1.2,1.1-1.2s-0.3,0.5-0.8,1.3
		c-0.6,1.1-1.1,2.3-1.4,3.5c-0.2,1.2-0.3,2.5-0.1,3.7C844.8,17.5,844.9,18.1,844.9,18.6z"/>
	<path class="st1" d="M843.1,22.6c0,0.1-0.2,0.2-0.7,0.2c-0.6,0-1.2-0.2-1.7-0.6c-0.5-0.4-0.8-0.9-0.9-1.5c-0.1-0.4,0-0.7,0.1-0.7
		c0.1,0,0.2,1.1,1.1,1.9S843.1,22.5,843.1,22.6z"/>
	<polygon class="st9" points="907.9,-36.9 917.2,-16.9 896.6,-28.7 	"/>
	<polygon class="st5" points="740.8,-100.4 768.7,-63.7 780.7,-66.9 786.8,-63.5 797.2,-82.7 790.9,-86 786.3,-97.8 	"/>
	<path class="st1" d="M740.8-100.4l45.5,2.4h0.1v0.1l4.6,11.8l-0.1-0.1l6.3,3.3l0.1,0.1l-0.1,0.1c-1.7,3.2-3.5,6.5-5.3,9.8l-5.1,9.4
		l-0.1,0.1l-0.1-0.1l-6-3.4h0.1l-12,3.2h-0.1l-0.1-0.1L740.8-100.4l28,36.6l-0.2,0l12-3.2h0.1h0.1l6.1,3.4l-0.2,0.1l5.1-9.4l5.3-9.8
		l0.1,0.2l-6.3-3.3l0,0v0l-4.6-11.8l0.1,0.1L740.8-100.4z"/>
	<path class="st1" d="M774.3-89.7c3.2,1.7,4.4,5.7,2.8,8.9c0,0,0,0.1-0.1,0.1c-1.8,3.3-5.8,4.5-9.1,2.8c-3.2-1.7-4.4-5.7-2.8-8.9
		c0,0,0-0.1,0.1-0.1C766.9-90.2,771-91.4,774.3-89.7z"/>
	<path class="st1" d="M740.8-100.4c0-0.1,6.9,3.3,15.3,7.5c8.4,4.2,15.1,7.7,15.1,7.8s-6.9-3.3-15.3-7.5
		C747.6-96.8,740.8-100.3,740.8-100.4z"/>
	<path class="st4" d="M958.7,11.9L958.7,11.9c-2.8,5.2-9.2,7.2-14.5,4.5L792.6-61l10.2-18.8L954.3-2.4c5.1,2.6,7.1,9,4.5,14.1
		C958.8,11.8,958.7,11.9,958.7,11.9z"/>
	<polygon class="st4" points="804.7,-80.8 792.7,-58.7 785,-62.7 797,-84.8 	"/>
	<g class="st6">
		<polygon points="793.5,-60.2 803.7,-79 806.5,-77.5 794.5,-59.7 		"/>
	</g>
	<g class="st10">
		<polygon class="st2" points="788.3,-68.8 799.4,-71.6 801.2,-74.4 789.7,-71.5 		"/>
	</g>
	<g class="st8">
		<path d="M897.3-30.8c4.7,7.2,4.9,16.4,0.6,23.8L897.3-30.8z"/>
	</g>
	<path class="st1" d="M869.3,206.2c0.1,0.2,1-0.1,2.1-0.1c1.1,0.1,2,0.4,2.1,0.2c0.1-0.2-0.8-0.9-2.1-0.9
		C870.1,205.3,869.2,206,869.3,206.2z"/>
	<path class="st1" d="M866.8,190.7c0.2,0.1,0.8-0.6,1.9-1.1c1.1-0.5,1.9-0.7,1.9-0.9c0-0.2-1.1-0.4-2.3,0.3
		C867.1,189.7,866.6,190.7,866.8,190.7z"/>
	<path class="st4" d="M868.5,190.2l1.2,21c0,0-21,8.3-21.1,12.2l40.9-0.9l-0.5-32.9L868.5,190.2z"/>
	<path class="st3" d="M882.3,209.2c0.8,0.2,1.3,1,1.2,1.9c-0.2,0.8-1,1.4-1.9,1.2c-0.9-0.2-1.4-1.1-1.3-2c0.3-0.8,1.2-1.3,2.1-1"/>
	<path class="st1" d="M889.5,223.6v-4.4l-39.4,2.1c0,0-1.8,0.8-1.6,2.1L889.5,223.6z"/>
	<path class="st1" d="M869,211c0,0.2,1,0.3,2,0.9c1,0.7,1.5,1.5,1.7,1.4c0.2-0.1-0.1-1.2-1.4-2S869,210.8,869,211z"/>
	<path class="st1" d="M864.8,212.9c0,0.2,0.8,0.5,1.5,1.3c0.7,0.8,0.9,1.7,1.1,1.7s0.3-1.1-0.6-2.2
		C865.9,212.7,864.8,212.7,864.8,212.9z"/>
	<path class="st1" d="M862.5,218c0.2,0,0.4-0.9-0.1-2c-0.5-1.1-1.5-1.5-1.6-1.3s0.5,0.7,0.9,1.6C862.1,217.2,862.3,218,862.5,218z"
		/>
	<path class="st1" d="M896.5,3.9c0,0,9.3,16,10.6,30.4c1.2,13-7,27.9-7,27.9l-14.2,53.4l4.2,91.4l-22.7,1.2l-13.1-104.8l4-97.5
		L896.5,3.9z"/>
	<path class="st4" d="M858.1,177.2l11.5,17.7c0,0-14.1,17.6-12.3,21.1l35-21l-16.7-28.3L858.1,177.2z"/>
	<path class="st3" d="M879.6,186.9c0.8-0.2,1.7,0.2,2,1c0.2,0.8-0.2,1.7-1,2c-0.9,0.2-1.8-0.3-2.1-1.1c-0.2-0.9,0.4-1.7,1.3-1.9"/>
	<path class="st1" d="M892.4,194.9l-1.8-2.8l-32.9,21.2c0,0-1.2,1.6-0.3,2.6L892.4,194.9z"/>
	<path class="st1" d="M869,195.1c0.1,0.2,1-0.3,2.2-0.2c1.2,0,2.1,0.5,2.2,0.3c0.1-0.2-0.7-1-2.1-1S868.8,194.9,869,195.1z"/>
	<path class="st1" d="M866.2,198.8c0.1,0.2,1,0,2,0.4c1,0.4,1.6,1,1.9,0.9c0.2-0.1-0.3-1.1-1.6-1.6
		C867.2,198.1,866.1,198.6,866.2,198.8z"/>
	<path class="st1" d="M866.8,204.4c0.2-0.1-0.1-1.1-1.1-1.7s-2-0.6-2-0.4c0,0.2,0.8,0.4,1.6,0.9
		C866.1,203.8,866.6,204.5,866.8,204.4z"/>
	<path class="st1" d="M847.2,10.4c0,0-27.6,99.3-21.7,110.5s36.4,73,36.4,73l25.6-14.1l-29.2-68.3l22.2-48.9c0,0,10.6-9.3,14.8-22.3
		s-3-34.4-3-34.4h-44.4L847.2,10.4z"/>
	<path class="st7" d="M896.5,26.6c0,0,0.1,0.3,0.2,0.8s0.2,1.3,0.4,2.3c0.4,2.9,0.6,5.8,0.6,8.7c0,2.1-0.3,4.2-0.7,6.2
		c-0.2,1.2-0.6,2.3-1,3.4c-0.5,1.2-1.1,2.3-1.8,3.4c-3.2,5.1-8,9.1-13.6,11.4l0.1-0.1l-22.2,48.9v-0.2l1.3,3
		c10.9,25.5,20.8,48.6,27.9,65.4l0.1,0.2l-0.1,0.1l-18.8,10.2l-5.1,2.8l-1.4,0.7c-0.2,0.1-0.3,0.2-0.5,0.2l0.5-0.2l1.3-0.8l5.1-2.8
		l18.7-10.4l-0.1,0.2c-7.2-16.7-17.1-39.8-28-65.3l-1.3-3l0-0.1l0-0.1l22.2-48.8v-0.1h0.1c5.5-2.2,10.2-6.1,13.4-11.1
		c0.7-1.1,1.3-2.2,1.8-3.3c0.4-1.1,0.8-2.2,1-3.4c0.4-2,0.7-4.1,0.7-6.2c0.1-2.9-0.1-5.8-0.4-8.7c-0.1-1-0.2-1.8-0.3-2.3
		S896.5,26.6,896.5,26.6z"/>
	<path class="st7" d="M858.3,28.2c0.2,0,0.3-0.1,0.5-0.1l1.6-0.1l6-0.4l21.3-1.3h0.3v0.3c0,6.3,0,13.3,0,20.7v0.1l-0.1,0.1
		c-1,0.9-2.1,1.8-3.2,2.7l-10.9,9.3l-0.1,0.1l-0.1-0.1l-14.2-7.1l-0.1-0.1v-0.1c-0.3-7.3-0.5-13.3-0.6-17.6
		c-0.1-2.1-0.1-3.7-0.1-4.9c0-0.5,0-0.9,0-1.3C858.2,28.6,858.2,28.4,858.3,28.2c0.1-0.1,0.3-0.1,0.4,0.1c0.1,0.1,0.1,0.3,0,0.4
		c-0.1,0.1-0.2,0.1-0.4,0c0,0.3,0,0.8,0.1,1.3c0.1,1.2,0.1,2.8,0.3,4.9c0.2,4.2,0.5,10.2,0.9,17.4l-0.1-0.2l14.2,7h-0.3l10.9-9.3
		c1.1-0.9,2.2-1.9,3.2-2.7l-0.1,0.2c0-7.4,0-14.5,0-20.7l0.3,0.2l-21.1,1.1l-6,0.3l-1.6,0.1C858.5,28.2,858.3,28.2,858.3,28.2z"/>
	<path class="st7" d="M887.4,30.5c-0.4,0.1-0.7,0.2-1.1,0.2c-0.7,0.1-1.8,0.3-3.1,0.4c-2.6,0.3-6.3,0.7-10.3,0.9
		c-4,0.3-7.7,0.3-10.4,0.4c-1.3,0-2.4,0-3.1,0c-0.4,0-0.8,0-1.2-0.1c0.4-0.1,0.8-0.1,1.1-0.1l3.1-0.1c2.7-0.1,6.3-0.3,10.3-0.5
		c4-0.3,7.7-0.5,10.3-0.8l3.1-0.3C886.7,30.5,887.1,30.4,887.4,30.5z"/>
	<path class="st7" d="M847.9-40.2c-2.4,5.6-3.4,11.7-2.9,17.8c0.4,3.9,2.7,13.8,2.7,13.8l-0.3,19c0,0,50.4-3.8,50.3-3.9
		c0-0.1,0.5-23.9,0.1-40.6c-0.5-16.7-7.8-34-7.8-34s-6.7-3.9-11.7-3.4s-26.1,2.8-26.1,2.8L847.9-40.2z"/>
	<path class="st7" d="M851.3-68.2c0,0-8.4,1.2-16.2,13.5c-8.1,12.7-11.8,17.9-11.8,17.9l23,15c0,0,12.7-19.1,14.2-23.2
		C862.2-49.1,863.9-68.5,851.3-68.2z"/>
	<path class="st7" d="M885-69.4c0,0,7.3,2.9,10.2,7.5c2,3,13.9,24.1,13.9,24.1l-13.8,9.6l-10.4-29.3L885-69.4z"/>
	<g class="st8">
		<path d="M844.5-19.1l2.7,1.2c0,0,12.6-16.6,13-26l-13.8,21.4l-2.3-1.2L844.5-19.1z"/>
	</g>
	<path class="st1" d="M895.9-54.6c0.1,0.2,0.1,0.3,0.1,0.5l0.2,1.4c0.2,1.2,0.4,2.9,0.6,5c0.5,4.2,0.9,10.1,1.3,16.6
		c0.4,6.5,0.4,12.4,0.5,16.7c0,2.1,0,3.9,0,5c0,0.6,0,1,0,1.4c0,0.2,0,0.3,0,0.5c0-0.2,0-0.3,0-0.5c0-0.4,0-0.8-0.1-1.4
		c0-1.3-0.1-3-0.1-5c-0.1-4.3-0.3-10.1-0.6-16.6s-0.8-12.4-1.2-16.6c-0.2-2.1-0.4-3.7-0.5-5c0-0.5-0.1-1-0.1-1.4
		C895.9-54.3,895.9-54.5,895.9-54.6z"/>
	<path class="st1" d="M892.2-92.8c-1.1-5.4-3.3-10.4-4.9-15.6c-2-6.1-3.5-12.8-8.4-16.8c-3.2-2.7-7.4-3.8-11.6-4.6
		c-3.7-0.8-7.6-1.3-11.3-0.6c-1.9,0.4-3.6,1.1-5.5,1.6c-2.1,0.5-4.4,0.7-6.4,1.6c-4.1,1.9-6.2,6.6-6.9,11.2
		c-0.6,4.5-0.1,9.1-0.8,13.6c-0.3,2.2-0.9,4.3-1.4,6.4c-1.9,4.1-4,8.2-3.7,12.6c0.2,3.2,1.7,6.2,2.4,9.3c0.7,3.1,0.4,6.9-2.1,8.8
		c1.9,1.7,4.8,1.6,6.5-0.2c0.7-0.8,1.1-1.8,1.2-2.8c0.3,0.5,0.8,0.8,1.3,1.1c1.3,0.5,2.7,0.6,4.1,0.3c4-0.4,8.2-0.8,11.7-2.8
		l19.6-1.7c5.1,2.1,11.2-0.8,14.1-5.4C893.1-81.5,893.3-87.4,892.2-92.8z"/>
	<path class="st1" d="M852.4-126.3c-1.9,0.4-3.9,0.1-5.8,0.6c-2.7,0.8-4.7,3.1-5.7,5.8c-0.9,2.7-1.4,5.5-1.4,8.3l-0.5,7.5
		c-0.1,1.6-0.3,3.2-0.7,4.8c-0.5,1.7-1.9,6.4-1.9,8.6c-0.4,6.2,1.6,12.3,5.6,17c1.7,2,9.8,2,12.4,2.5c1.1-1,4-1,5.1-2
		c0.2-0.2-8.2-6.6-8.1-6.8c0.1-0.4,0.1-0.8-0.1-1.2c-5-14.7-4-30.7,2.5-44.7"/>
	<path class="st9" d="M875.1-68.8l2.9-46.1l0,0c0-2-1.5-3.7-3.4-3.9l-20.5-5.2c-6.6-0.7-11,7.4-11.4,13.9
		c-0.5,7.3-0.8,16.3,0.1,21.7C844.6-77.4,853-76,853-76l0.7,7.4c0,0,5.3-0.9,9.3-1.4C871.6-70.9,875.1-68.8,875.1-68.8z"/>
	<path class="st1" d="M845.3-101.9c0,0.8,0.6,1.4,1.3,1.4c0.7,0.1,1.4-0.5,1.5-1.2c0,0,0,0,0,0c0-0.8-0.6-1.4-1.4-1.4
		C846-103.3,845.3-102.7,845.3-101.9C845.3-101.9,845.3-101.9,845.3-101.9z"/>
	<path class="st1" d="M845.3-105.2c0.2,0.2,1.2-0.6,2.8-0.6c1.5,0,2.6,0.8,2.8,0.6c0.2-0.2-0.1-0.4-0.6-0.8
		c-0.7-0.5-1.4-0.7-2.2-0.7c-0.8,0-1.6,0.2-2.2,0.7C845.4-105.6,845.2-105.2,845.3-105.2z"/>
	<path class="st1" d="M859.2-101.7c0,0.8,0.6,1.4,1.3,1.4c0.7,0.1,1.4-0.5,1.5-1.2c0,0,0,0,0,0c0-0.8-0.6-1.4-1.4-1.4
		C859.9-103.1,859.3-102.5,859.2-101.7C859.2-101.8,859.2-101.8,859.2-101.7z"/>
	<path class="st1" d="M860.2-105.2c0.2,0.2,1.2-0.6,2.8-0.6c1.5,0,2.6,0.8,2.8,0.6c0.2-0.2-0.1-0.4-0.6-0.8
		c-0.7-0.5-1.4-0.7-2.2-0.7c-0.8,0-1.6,0.2-2.2,0.7C860.3-105.6,860.1-105.2,860.2-105.2z"/>
	<path class="st1" d="M854.7-93.9c-0.8-0.3-1.6-0.4-2.5-0.5c-0.4,0-0.8-0.1-0.8-0.4c0-0.4,0.1-0.8,0.3-1.1c0.4-0.9,0.8-1.9,1.2-2.9
		c1.6-4.2,2.8-7.6,2.6-7.7c-0.2-0.1-1.6,3.3-3.2,7.4c-0.4,1-0.8,2-1.1,3c-0.2,0.5-0.3,1-0.2,1.5c0.1,0.3,0.4,0.5,0.6,0.6
		c0.2,0.1,0.4,0.1,0.7,0.1C853-93.9,853.9-93.8,854.7-93.9z"/>
	<path class="st11" d="M853-76c5.4,0.1,10.7-1.2,15.4-3.9c0,0-4,8.4-15,7.3L853-76z"/>
	<path class="st11" d="M859.8-90.7c-0.5-0.6-1.2-1-2-1.1c-1.1-0.1-2.1,0.3-2.8,1.2l-0.1,0.1c-0.1,0.2-0.1,0.5,0,0.7
		c0.1,0.2,0.3,0.4,0.5,0.5c0.6,0.6,1.4,1,2.2,1.3c0.8,0.3,1.7,0.1,2.3-0.6C860.4-89.3,860.3-90.1,859.8-90.7z"/>
	<path class="st1" d="M859.1-92.9c-0.2,0-0.3,1.6-1.7,2.8c-1.4,1.2-3.2,1-3.2,1.2c0,0.2,0.4,0.3,1.1,0.3c1,0,1.9-0.3,2.7-0.9
		c0.7-0.6,1.2-1.4,1.3-2.4C859.4-92.5,859.3-92.9,859.1-92.9z"/>
	<path class="st1" d="M859.3-110.6c0.1,0.4,1.7,0.2,3.4,0.4c1.8,0.2,3.2,0.7,3.5,0.3c0.1-0.2-0.1-0.6-0.7-0.9
		c-0.8-0.5-1.6-0.8-2.6-0.9c-0.9-0.1-1.8,0-2.7,0.3C859.5-111.1,859.2-110.8,859.3-110.6z"/>
	<path class="st1" d="M845.3-110c0.3,0.3,1.3,0,2.6,0c1.3,0,2.3,0.2,2.6-0.1c0.1-0.2-0.1-0.5-0.5-0.8c-1.3-0.8-2.9-0.8-4.1,0.1
		C845.3-110.5,845.2-110.1,845.3-110z"/>
	<path class="st7" d="M836-66.4c-0.1-0.2-0.2-0.4-0.2-0.6c-0.1-0.4-0.3-1.1-0.5-1.9c-0.5-2.4-0.7-4.8-0.7-7.2
		c0-3.6,0.5-7.1,1.5-10.6c1-3.9,2.6-8,3.3-12.6s0.5-9,1.1-13c0.6-4,1.8-7.6,3.7-10c1.5-1.9,3.6-3.4,5.9-4.1c0.9-0.3,1.7-0.4,2.6-0.3
		c-0.9,0.1-1.7,0.2-2.6,0.5c-2.3,0.8-4.2,2.2-5.7,4.1c-2,2.9-3.2,6.3-3.5,9.8c-0.5,4-0.3,8.4-1,13s-2.3,8.8-3.4,12.6
		c-1,3.4-1.6,6.9-1.6,10.4c0,2.4,0.1,4.8,0.6,7.1c0.1,0.8,0.3,1.5,0.4,1.9C835.9-66.8,836-66.6,836-66.4z"/>
	<path class="st1" d="M851-124.8c0.2-0.6,0.6-1.2,1.1-1.5c3.4-2.5,7.7-3.4,11.9-2.7c4.1,0.8,8.1,2.5,11.4,5c3,2.1,5.8,4.6,7.4,7.9
		c1,2.4,1.6,4.9,1.8,7.5c0.9,6.3,2.6,12.7,2.5,19.1c0,2.5,0.4,6.7,0,9.7c-0.4,3.3-3.6,7.3-6.9,8l-7.3,0.7c0,0,3.9-13.6,3.6-18.5
		c-0.3-4.3-0.2-9-0.7-13.3c0-0.3-0.1-0.6-0.3-0.9c-0.3-0.3-0.6-0.6-1-0.8l-4.5-2.3c-1.5-0.7-2.9-1.5-4.3-2.4c-1.5-0.9-2.9-1.9-4.3-3
		c-2-1.7-3.8-3-5.7-4.7c-1.4-1.3-2.6-2.7-3.6-4.3c-1-1.3-1.3-3-1-4.6"/>
	<path class="st9" d="M875.4-99.9c0.1-1.8,1.6-3.1,3.3-3.1c0.5,0,0.9,0.1,1.3,0.3c1.1,0.6,2,1.9,1.9,4.4c-0.3,6.6-6.9,5-6.9,4.8
		C875.1-93.6,875.3-97.2,875.4-99.9z"/>
	<path class="st11" d="M877.3-95.8c0,0,0.1,0.1,0.3,0.2c0.3,0.1,0.6,0.1,0.9,0.1c0.9-0.5,1.4-1.5,1.4-2.5c0-0.6,0-1.1-0.3-1.7
		c-0.1-0.4-0.4-0.8-0.8-0.9c-0.3-0.1-0.6,0-0.7,0.3c-0.1,0.2-0.1,0.3-0.1,0.3s-0.1-0.1-0.1-0.4c0-0.2,0.1-0.3,0.3-0.4
		c0.2-0.1,0.4-0.2,0.6-0.1c0.5,0.1,1,0.5,1.2,1.1c0.3,0.6,0.4,1.2,0.3,1.9c-0.1,1.3-0.8,2.5-1.8,2.8c-0.4,0.1-0.7,0-1-0.2
		C877.3-95.7,877.2-95.8,877.3-95.8z"/>
	<path class="st7" d="M886.4-110.3c-1.4-1.1-3-2-4.6-2.8c-1.8-0.8-3.7-1.4-5.6-1.9c-2.1-0.6-4.5-1.1-7-1.9
		c-4.2-1.3-8.1-3.4-11.6-6.1c-1-0.8-2-1.7-3-2.7c-0.3-0.3-0.7-0.7-0.9-1.1c0.4,0.3,0.8,0.6,1.1,0.9c0.7,0.6,1.7,1.5,3.1,2.5
		c3.5,2.6,7.4,4.6,11.5,5.9c2.4,0.8,4.8,1.3,7,1.9c1.9,0.5,3.8,1.2,5.6,2c1.2,0.6,2.3,1.3,3.4,2.1c0.3,0.2,0.5,0.5,0.8,0.7
		C886.3-110.4,886.4-110.3,886.4-110.3z"/>
	<path class="st1" d="M883.6-118.9c2.5,8.2,6.7,15.7,9.2,21.6c1.2,2.7,2.9,6,3.4,8.9c0.6,3.2-0.8,6.4-1.5,9.6c-0.8,3.2-0.7,7.1,2,9
		c-3.6,2.8-8,4.4-12.5,4.5c-0.8,0.1-1.7-0.1-2.4-0.5c-0.7-0.5-0.9-1.4-0.4-2.1c0,0,0-0.1,0.1-0.1c-3.6,3.7-9.4,4.3-13.8,1.4
		c-0.3-3.5-0.5-7.4,1.4-10.3c1.6-2.4,4.5-3.9,5.5-6.6c0.6-1.6-0.2-3.6,0.1-5.3c0.3-1.7,1.4-4,1.9-4.2l0,0c4.1,0.4,7.9-2.2,8.9-6.2
		l0.1-0.5L883.6-118.9z"/>
	<path class="st7" d="M882-71.5c0.1-0.2,0.2-0.5,0.3-0.7l1-1.9c1.3-2.3,2.3-4.7,3.2-7.2c1.3-3.7,1.9-7.6,1.7-11.4
		c-0.2-4.8-2.1-9.3-5.3-12.8c-3.5-3.7-8-5.8-11.9-7.6c-3.6-1.5-7.1-3.3-10.5-5.2c-2.3-1.4-4.3-3.1-6.1-5.1c-0.5-0.5-0.9-1.1-1.3-1.7
		c-0.1-0.2-0.3-0.4-0.4-0.7c0.1,0,0.6,0.9,1.8,2.3c1.8,1.9,3.8,3.6,6.1,4.9c3.4,1.9,6.9,3.6,10.5,5.1c4,1.9,8.5,4,12.1,7.7
		c3.3,3.6,5.2,8.3,5.4,13.2c0.2,3.9-0.4,7.9-1.8,11.6c-0.9,2.5-2,4.9-3.4,7.2c-0.5,0.8-0.9,1.4-1.1,1.9
		C882.3-71.9,882.1-71.7,882-71.5z"/>
	<path class="st1" d="M861.6-46.3c-0.1,0,0.6-1.2,1-3.2c1.3-5.3-0.4-11-4.5-14.7c-1.5-1.4-2.7-2-2.7-2.1c0.3,0.1,0.6,0.2,0.8,0.4
		c0.7,0.4,1.4,0.9,2,1.4c4.3,3.7,6.1,9.5,4.6,15c-0.2,0.8-0.5,1.6-0.9,2.3C861.9-46.8,861.7-46.5,861.6-46.3z"/>
	<path class="st4" d="M844,18.5l21.6,0.5c1,0,1.8,0.9,1.8,1.9c-0.4,10.7-2.4,63.9,2,64.7c4.9,0.9,10.1-8.4,17.3-5.2
		s15.8,6.9,19.8,2.8c4-4.1,7.3-51.2-8.8-77l-51.1,2.9L844,18.5z"/>
	<path class="st1" d="M870.6,12.6c-0.4,0-0.7,0-1.1,0l-2.9-0.1c-2.4,0-5.8,0-9.5,0.2c-3.7,0.2-7,0.7-9.4,1.1l-2.8,0.5
		c-0.3,0.1-0.7,0.1-1.1,0.1c0.3-0.1,0.7-0.2,1-0.3c0.7-0.2,1.6-0.4,2.8-0.6c6.3-1.2,12.7-1.6,19-1.3c1.2,0.1,2.2,0.1,2.9,0.2
		C869.9,12.5,870.3,12.6,870.6,12.6z"/>
	<path class="st1" d="M881.5,18.6c-0.5,0-1-0.1-1.5-0.2c-0.9-0.2-2.3-0.4-4.1-0.7c-3.4-0.6-8.2-1.3-13.5-1.7
		c-5.3-0.4-10.1-0.5-13.6-0.4c-1.7,0-3.2,0.1-4.1,0.1c-0.5,0-1,0-1.5,0c0.5-0.1,1-0.2,1.5-0.2c0.9-0.1,2.4-0.2,4.1-0.3
		c4.5-0.2,9.1-0.1,13.6,0.3c4.5,0.4,9,1,13.5,1.9c1.7,0.3,3.1,0.7,4,0.9C880.5,18.4,881,18.5,881.5,18.6z"/>
	<path class="st1" d="M890,37.6c0,0.5,0,0.9,0,1.4c0,1-0.1,2.2-0.2,3.7c-0.1,3.2-0.2,7.6,0,12.4s0.5,9.2,0.8,12.4
		c0.2,1.5,0.3,2.8,0.4,3.7c0.1,0.5,0.1,0.9,0.1,1.4c-0.1-0.4-0.2-0.9-0.3-1.4c-0.2-0.9-0.4-2.1-0.6-3.7c-0.4-3.2-0.8-7.5-1-12.4
		s0-9.3,0.2-12.4c0.1-1.6,0.2-2.9,0.3-3.8C889.8,38.5,889.9,38,890,37.6z"/>
	<path class="st1" d="M897,70.2c-0.1,0-1-9.5-2-21.3c-1-11.8-1.6-21.3-1.5-21.3c0.1,0,1,9.5,2,21.3C896.5,60.7,897.1,70.2,897,70.2z
		"/>
	<path class="st9" d="M825.9-35.2l-1.9,2.5l-0.7-12.6l-12.7-4.3c0,0-3,31.7-2.5,36.7c0.5,5.4,0.6,5.6,2,8.1
		c1.7,3.1,7.8,5.3,11.3,4.4c3.5-0.9,7.2-5.6,10-8.5c5-5.1,12.8-14.9,12.8-14.9L825.9-35.2z"/>
	<path class="st11" d="M825.9-35.2c-0.4,0.7-0.9,1.5-1.4,2.1c-0.9,1.3-2.1,3.1-3.3,5.1s-2.3,3.9-3.1,5.3c-0.4,0.8-0.8,1.5-1.3,2.2
		c0.2-0.8,0.5-1.6,0.9-2.3c1.8-3.7,4-7.2,6.5-10.4C824.7-34,825.3-34.6,825.9-35.2z"/>
	<path class="st9" d="M810.6-48l-5-2.8c-2-1.6-3.8-3.1-4.3-5.6l0,0c0,0,14.5,6.5,15.6,7.1c1.2,0.6,6.6,2.8,6.4,5L810.6-48z"/>
	<g class="st8">
		<path d="M862.4,11.6c5.3-0.1,10.7-0.1,16,0.3c1.1,0.1,2.5,0.5,2.5,1.6c-0.1,0.6-0.5,1.1-1.1,1.2c-0.6,0.1-1.1,0.2-1.7,0.1
			l-14.3-1.5c-6.4-1-13-0.5-19.2,1.4l-0.2-1.2C844.5,13.5,859.4,11.7,862.4,11.6z"/>
	</g>
</g>
<g id="freepik--character-1--inject-201">
	<polygon class="st7" points="430.4,-74.3 469.3,-74.3 468.6,-49.6 437.4,-42.5 	"/>
	<path class="st4" d="M423.2,190.3l-7.3,17.6c0,0,15.4,13.3,14.4,16.7l-34.6-12.8l10.2-27.9L423.2,190.3z"/>
	<g class="st6">
		<path d="M423.2,190.3l-7.3,17.6c0,0,15.4,13.3,14.4,16.7l-34.6-12.8l10.2-27.9L423.2,190.3z"/>
	</g>
	<path class="st3" d="M405.8,202.4c-0.8,0-1.4,0.5-1.6,1.3c-0.1,0.8,0.5,1.5,1.2,1.6c0.8,0,1.5-0.5,1.7-1.3c0-0.7-0.7-1.6-1.5-1.5"
		/>
	<path class="st1" d="M395.8,211.7l1.1-2.8l32.8,13.3c0,0,1.3,1.2,0.7,2.3L395.8,211.7z"/>
	<path class="st1" d="M416.6,207.9c-0.1,0.2-0.9-0.1-2,0.2s-1.7,0.8-1.9,0.7c-0.1-0.1,0.5-1,1.7-1.3
		C415.8,207.2,416.7,207.8,416.6,207.9z"/>
	<path class="st1" d="M419.7,210.8c0,0.2-0.9,0.2-1.7,0.7c-0.8,0.5-1.3,1.2-1.5,1.1c-0.2-0.1,0.1-1.1,1.1-1.7
		C418.7,210.3,419.7,210.6,419.7,210.8z"/>
	<path class="st1" d="M420.1,216c-0.2,0-0.1-0.9,0.7-1.7s1.7-0.8,1.7-0.7c0,0.2-0.7,0.5-1.3,1.1C420.6,215.3,420.3,216,420.1,216z"
		/>
	<path class="st1" d="M417.8,203.8c-0.1,0.1-0.8-0.4-1.8-0.7c-1-0.3-1.9-0.3-1.9-0.4c0-0.2,0.9-0.5,2.1-0.2
		C417.4,202.8,417.9,203.7,417.8,203.8z"/>
	<path class="st4" d="M405.7,193.3l-0.6,20c0,0,20.2,7.3,20.5,11l-38.9,0.3l-0.4-31.3L405.7,193.3z"/>
	<path class="st3" d="M393.1,211.8c-0.8,0.2-1.3,1.1-1.1,1.9c0.2,0.8,1,1.3,1.8,1.1c0.8-0.3,1.3-1.1,1.1-1.9c-0.3-0.8-1.2-1.2-2-0.9
		"/>
	<path class="st1" d="M386.6,225.5v-3H424c0,0,1.7,0.7,1.6,2L386.6,225.5z"/>
	<path class="st1" d="M405.7,213.2c0,0.2-0.9,0.3-1.9,0.9c-0.9,0.7-1.4,1.4-1.6,1.3c-0.2-0.1,0.1-1.2,1.2-1.9
		C404.7,212.9,405.7,213,405.7,213.2z"/>
	<path class="st1" d="M409.8,214.8c0,0.2-0.8,0.5-1.4,1.3c-0.6,0.8-0.8,1.7-1,1.7s-0.3-1.1,0.5-2.1
		C408.7,214.7,409.8,214.6,409.8,214.8z"/>
	<path class="st1" d="M412.2,219.7c-0.2,0-0.4-0.9,0-1.9c0.4-1,1.4-1.5,1.5-1.3c0.1,0.2-0.5,0.7-0.8,1.6S412.4,219.7,412.2,219.7z"
		/>
	<path class="st1" d="M405.4,208.6c-0.1,0.2-0.9-0.1-2,0c-1.1,0.1-1.9,0.4-2,0.3c-0.1-0.2,0.7-0.8,2-0.9
		C404.6,207.8,405.5,208.4,405.4,208.6z"/>
	<path class="st1" d="M441.5,15.6c0,0,15.9,64.1,18.5,84.7c1.9,14.3-1.8,23.7-2.2,26.6c-0.1,1-0.5,1.9-0.9,2.7l-34.3,66.5l-23.7-8.2
		c0,0,17.8-53.6,21.6-62.3l4.4-7.8l-34.6-87.6L441.5,15.6z"/>
	<path class="st1" d="M424.6,29.4c0.4,1.8-20.4,104.8-20.4,104.8l2.7,73.8l-21.9,0.6c0,0-11.2-40.2-11.7-64
		c-0.4-23.7,2.2-27.8,0.3-42.6c-2-15.6-14.6-47.8-8.9-69.6c4.8-18.3,17-27,17-27L424.6,29.4z"/>
	<path class="st7" d="M407,208.7c0-0.1,0-0.3,0-0.4c0-0.3,0-0.7,0-1.1c0-1-0.1-2.4-0.1-4.3c-0.1-3.7-0.3-9.2-0.5-15.9
		c-0.4-13.5-1.1-32.2-1.8-53.2v0.1c0.5-2.5,1-5.2,1.6-7.9c4.4-22.5,8.4-42.8,11.3-57.5c1.4-7.3,2.6-13.3,3.4-17.5
		c0.4-2,0.7-3.6,0.9-4.7c0.1-0.5,0.2-0.9,0.2-1.2c0-0.1,0-0.3,0.1-0.4c0,0.1-0.1,0.3-0.1,0.4c-0.1,0.3-0.2,0.7-0.3,1.2
		c-0.2,1.1-0.6,2.7-1,4.7c-0.8,4.1-2.1,10.1-3.5,17.4c-2.9,14.7-7,35.1-11.5,57.5l-1.6,7.9v0.1c0.8,21,1.5,39.7,2,53.2
		c0.3,6.7,0.5,12.1,0.6,15.8c0.1,1.9,0.2,3.3,0.2,4.3c0,0.5,0,0.8,0.1,1.1C406.9,208.4,406.9,208.6,407,208.7z"/>
	<path class="st7" d="M424.7,116.5c-0.1,0.1,0.9,2.1,3.1,3.7c1.3,1.1,2.8,1.8,4.4,2c0.1-0.2-2-0.9-4.1-2.5S424.8,116.4,424.7,116.5z
		"/>
	<path class="st1" d="M381.4-134.4c-2.7-2.1-6.5-2.4-9.5-0.7c-3,1.7-5.1,4.6-5.9,7.9c-0.5,1.7-0.6,3.5-0.2,5.2
		c0.4,1.7,1.5,3.2,3,4.1c0.7,0.2,1.4,0.7,1.9,1.2c0.8,1.2-0.5,2.9-0.1,4.4c0.5,1.2,1.7,1.8,3,1.5c1.2-0.3,2.3-1,3.1-1.9
		c3.7-3.8,6-8.7,6.6-13.9C384.3-129.5,383.5-132.5,381.4-134.4z"/>
	<path class="st5" d="M525.6,190.6l-65.4-2.4c-7.3-0.2-13-6.2-12.9-13.5c0,0,0-0.1,0-0.1l10.5-247.9c0.4-7.3,6.6-13,13.9-12.7
		l65.4,2.4c7.3,0.2,13.1,6.2,12.9,13.5c0,0,0,0.1,0,0.1l-10.5,247.9C539.2,185.3,532.9,190.9,525.6,190.6z"/>
	<path class="st1" d="M525.6,190.6h0.5c5.3,0,10.2-3.2,12.3-8.1c0.7-1.7,1.1-3.5,1.1-5.4c0.1-2,0.2-4.1,0.3-6.3
		c0.7-17.9,1.8-43.8,3.1-75.7s2.9-70,4.6-112.3c0.4-10.5,0.9-21.4,1.4-32.5c0.2-5.5,0.5-11.1,0.7-16.7c0.1-2.8,0.5-5.7-0.5-8.3
		c-1.5-4-4.8-7.1-9-8.2c-1.4-0.3-2.9-0.5-4.3-0.5l-8.9-0.3l-18-0.7l-36.9-1.3c-3-0.1-6,0.8-8.5,2.6c-2.4,1.8-4.1,4.4-4.8,7.3
		c-0.3,1.5-0.4,2.9-0.4,4.4c-0.1,1.5-0.1,3-0.2,4.5c-0.1,3-0.3,6-0.4,8.9c-0.5,11.9-1,23.6-1.5,35.1c-1,23-1.9,45.2-2.8,66.3
		c-1.9,42.3-3.5,80.3-4.9,112.3c-0.2,4-0.3,7.9-0.5,11.7c-0.1,1.9-0.2,3.8-0.2,5.6c-0.2,1.8-0.1,3.6,0.4,5.4c1,3.4,3.2,6.2,6.3,7.9
		c1.5,0.8,3.1,1.3,4.7,1.5c1.6,0.2,3.3,0.2,4.9,0.2l33.2,1.3l21,0.8l5.5,0.2C525,190.5,525.6,190.6,525.6,190.6c0,0-0.6,0-1.9,0
		l-5.5-0.2l-21-0.7l-33.3-1.2c-1.6-0.1-3.3,0-5-0.2c-1.7-0.2-3.4-0.7-4.9-1.6c-3.2-1.7-5.6-4.7-6.6-8.2c-0.5-1.8-0.6-3.7-0.4-5.5
		c0.1-1.9,0.1-3.7,0.2-5.6c0.2-3.8,0.3-7.7,0.5-11.7c1.3-32,2.9-70,4.6-112.3c0.9-21.1,1.9-43.3,2.8-66.3c0.5-11.5,1-23.2,1.5-35.1
		c0.1-3,0.3-6,0.4-8.9c0.1-1.5,0.1-3,0.2-4.5c0-1.5,0.1-3.1,0.4-4.6c0.8-3.1,2.5-5.8,5.1-7.7c2.6-1.9,5.7-2.9,9-2.8l36.9,1.3l18,0.7
		l8.9,0.3c1.5,0,3,0.2,4.5,0.5c1.5,0.4,2.9,1,4.1,1.9c2.5,1.6,4.4,4,5.4,6.8c0.5,1.4,0.8,2.8,0.7,4.3c0,1.5-0.1,2.8-0.1,4.3
		c-0.2,5.6-0.5,11.2-0.7,16.7c-0.5,11.1-0.9,21.9-1.4,32.4c-1.9,42.3-3.5,80.3-4.8,112.3c-1.4,32-2.6,57.8-3.3,75.7
		c-0.1,2.2-0.2,4.3-0.3,6.3c0,1.9-0.4,3.7-1.1,5.5c-1.2,2.7-3.3,5-5.9,6.4c-1.6,0.9-3.4,1.4-5.2,1.6c-0.5,0-0.9,0.1-1.4,0
		L525.6,190.6z"/>
	<polygon class="st4" points="544.4,-23 459.6,-26.1 461.4,-68.7 546.2,-65.6 	"/>
	<polygon class="st4" points="541.8,37.3 457,34.2 458.8,-8.4 543.6,-5.3 	"/>
	<polygon class="st4" points="539.3,97.5 454.5,94.5 456.3,51.9 541.1,55 	"/>
	<polygon class="st4" points="536.7,157.8 451.9,154.7 453.7,112.2 538.5,115.3 	"/>
	<g class="st12">
		<polygon points="544.4,-23 459.6,-26.1 461.4,-68.7 546.2,-65.6 		"/>
	</g>
	<g class="st8">
		<polygon points="541.8,37.3 457,34.2 458.8,-8.4 543.6,-5.3 		"/>
	</g>
	<g class="st6">
		<polygon points="539.3,97.5 454.5,94.5 456.3,51.9 541.1,55 		"/>
	</g>
	<g class="st13">
		<polygon points="536.7,157.8 451.9,154.7 453.7,112.2 538.5,115.3 		"/>
	</g>
	<path class="st5" d="M524.3,191.3l-63.4,0.7c-6.8,0.1-12.3-5.7-12.4-12.9l-2.4-256.2c-0.1-7.2,5.4-13,12.2-13.1l63.4-0.7
		c6.8-0.1,12.3,5.7,12.4,12.9l2.4,256.2C536.6,185.4,531.1,191.2,524.3,191.3z"/>
	<path class="st1" d="M524.3,191.3c0,0,0.6,0,1.8-0.2c1.7-0.3,3.4-1,4.8-2c2.4-1.7,4.2-4.2,5-7c0.5-1.8,0.7-3.7,0.5-5.6
		c0-2,0-4.2-0.1-6.5c-0.2-18.4-0.5-45.1-0.8-78c-0.4-32.9-0.7-72.1-1.2-115.7c-0.1-10.9-0.2-22.1-0.3-33.5
		c-0.1-5.7-0.1-11.5-0.2-17.3c0-1.5,0-2.9-0.1-4.4c-0.1-1.4-0.4-2.8-0.9-4.1c-1.1-2.6-3-4.8-5.4-6.2c-1.2-0.7-2.5-1.1-3.9-1.3
		c-1.4-0.1-2.8-0.2-4.2-0.1l-8.5,0.1l-17.2,0.2l-35.2,0.4c-2.9,0.1-5.7,1.2-7.9,3.2c-2.2,2.1-3.6,4.9-3.9,7.9
		c-0.2,1.5-0.1,3.1-0.1,4.6v4.6c0,3.1,0,6.2,0.1,9.2c0.1,12.2,0.2,24.3,0.3,36.1c0.2,23.7,0.4,46.6,0.6,68.3
		c0.4,43.5,0.7,82.8,1,115.7c0,4.1,0,8.2,0.1,12.1c0,2,0,3.9,0,5.8c-0.1,1.9,0.1,3.7,0.7,5.5c1.1,3.3,3.5,6,6.7,7.5
		c3,1.5,6.3,0.9,9.4,1l31.8-0.3l20.1-0.1h5.2C523.6,191.3,524.2,191.3,524.3,191.3l-1.9,0.1l-5.2,0.1l-20.1,0.3l-31.8,0.4l-4.7,0
		c-1.7,0-3.3-0.3-4.8-1c-3.3-1.5-5.8-4.3-6.9-7.8c-0.6-1.8-0.8-3.7-0.7-5.6c0-1.9,0-3.8-0.1-5.8c0-3.9-0.1-7.9-0.1-12.1
		c-0.3-32.9-0.7-72.2-1.2-115.7c-0.2-21.8-0.4-44.6-0.7-68.3c-0.1-11.8-0.2-23.9-0.3-36.1c0-3.1,0-6.1-0.1-9.2l0-4.6
		c0-1.5-0.1-3.1,0.1-4.6c0.3-3.2,1.8-6.2,4.1-8.4c2.3-2.2,5.2-3.4,8.4-3.4l35.2-0.4l17.2-0.2l8.5-0.1c1.4-0.1,2.9,0,4.3,0.1
		c1.4,0.2,2.8,0.7,4.1,1.4c2.6,1.5,4.6,3.8,5.8,6.6c0.6,1.4,0.9,2.9,1,4.4c0.1,1.5,0,2.9,0.1,4.4c0.1,5.8,0.1,11.6,0.2,17.3
		c0.1,11.4,0.2,22.6,0.3,33.5c0.4,43.5,0.7,82.8,1,115.7s0.5,59.6,0.6,78c0,2.3,0,4.5,0,6.5c0,1,0,2,0,3c-0.1,0.5-0.1,0.9-0.2,1.4
		c-0.1,0.5-0.2,0.9-0.3,1.3c-0.8,2.9-2.6,5.4-5.1,7c-1.5,1-3.1,1.7-4.9,1.9c-0.4,0.1-0.9,0.1-1.3,0.1H524.3z"/>
	<polygon class="st4" points="531,-29 450.1,-28.1 449.7,-71.9 530.6,-72.8 	"/>
	<polygon class="st4" points="531.6,33.1 450.7,33.9 450.3,-9.9 531.2,-10.7 	"/>
	<polygon class="st4" points="532.2,95.1 451.3,95.9 450.9,52.1 531.8,51.3 	"/>
	<polygon class="st4" points="532.8,157.1 451.8,158 451.4,114.2 532.4,113.3 	"/>
	<g class="st8">
		<polygon class="st2" points="531.6,33.1 450.7,33.9 450.3,-9.9 531.2,-10.7 		"/>
	</g>
	<g class="st6">
		<polygon class="st2" points="532.2,95.1 451.3,95.9 450.9,52.1 531.8,51.3 		"/>
	</g>
	<g class="st13">
		<polygon class="st2" points="532.8,157.1 451.8,158 451.4,114.2 532.4,113.3 		"/>
	</g>
	<path class="st7" d="M526.3,178.8c-1.2,5.5-6.7,9-12.3,7.8c-5.5-1.2-9-6.7-7.8-12.3c1.2-5.5,6.7-9,12.3-7.8
		C524,167.7,527.5,173.2,526.3,178.8C526.3,178.7,526.3,178.8,526.3,178.8z"/>
	<path class="st1" d="M526.3,178.8c-0.1,0,0.2-0.9,0.1-2.5c-0.1-2.3-1-4.4-2.5-6.2c-2.2-2.6-5.6-3.8-8.9-3.4
		c-1.9,0.3-3.8,1.1-5.2,2.4c-3.3,2.8-4.3,7.5-2.5,11.4c0.8,1.8,2.1,3.3,3.7,4.4c2.8,1.8,6.4,2.1,9.5,0.7c2.1-0.9,3.8-2.5,4.9-4.5
		C526.1,179.6,526.2,178.7,526.3,178.8c0,0.2,0,0.4-0.1,0.7c-0.1,0.6-0.3,1.2-0.6,1.8c-1,2.2-2.7,3.9-4.9,4.9
		c-1.5,0.7-3.1,1.1-4.8,1c-1.9-0.1-3.7-0.6-5.4-1.6c-1.8-1.1-3.2-2.7-4.1-4.6c-1.9-4.3-0.8-9.3,2.8-12.3c1.6-1.4,3.6-2.3,5.6-2.5
		c3.6-0.5,7.1,0.9,9.4,3.7c1.5,1.8,2.4,4.1,2.4,6.5c0,0.6-0.1,1.2-0.2,1.9C526.5,178.3,526.4,178.5,526.3,178.8z"/>
	<path class="st14" d="M468.3-23.8l-0.9,0.8c-0.1,0.1-0.2,0.2-0.4,0.2c-0.2,0-0.3-0.2-0.4-0.3c-0.3-0.5-0.3-1.2-0.1-1.7
		c0.2-0.5,0.6-1,1-1.4c0.2-0.2,0.4-0.3,0.7-0.3c0.3,0,0.5,0.2,0.7,0.4c0.3,0.3,0.5,0.5,0.7,0.8c0.1,0.1,0.2,0.3,0.2,0.5
		c0,0.1-0.1,0.2-0.2,0.3C469.2-24.3,468.7-24.1,468.3-23.8"/>
	<path class="st15" d="M461.5-39.4c1.3-0.1,7.3-0.7,7.3-0.7l9.9,2.4c-0.6,1-1.7,1.7-2.8,1.8c-2.7-0.1-6.4-0.3-6.4-0.3l-1.2,0.7
		c0,0,4.5,3,4.5,3.6c0,0.4-0.1,0.9-0.3,1.3c0.4,1,0.5,2.2,0.1,3.3l-0.1,4.2l-4.3,2.9c-0.4-0.7-0.5-1.5-0.3-2.3
		c0.3-1.2,1.9-1.9,1.9-1.9l-1-1.8l-1.5-0.5c0,0-9.8,2.8-12.1,2.6l-7.8,3.9l-1.1-11.5C446.3-31.7,460.1-39.4,461.5-39.4z"/>
	<path class="st14" d="M467.4-30.5c0,0.1,1.2,0.6,2.6,1.5c1.4,0.9,2.4,1.7,2.5,1.6c-0.6-0.8-1.4-1.5-2.3-2
		C469.4-29.9,468.4-30.3,467.4-30.5z"/>
	<path class="st14" d="M466.6-33.8c0.9,0.6,1.9,1.1,2.8,1.6c0.9,0.6,1.8,1.2,2.8,1.6c-0.7-0.8-1.6-1.5-2.6-2
		C468.7-33.2,467.7-33.6,466.6-33.8z"/>
	<path class="st14" d="M463.6-38.6c0.7,0.6,1.5,1.2,2.3,1.8c0.7,0.6,1.6,1.1,2.5,1.5c-0.7-0.7-1.5-1.3-2.3-1.8
		C465.4-37.9,464.5-38.3,463.6-38.6z"/>
	<path class="st15" d="M495.3-90.6c-0.5-1.1-1.1-2.1-1.9-3c-0.7-0.6-1.7-0.8-2.5-0.5l-0.6,0.4c0,0-2.4-1.7-3.9-1.1
		c0,0-2.3-1.7-3.8-0.6c0,0-1.7-1.7-2.8-0.7c-0.9,1.1-1.4,2.5-1.1,3.9c0.2,1,0.3,4.5,0.9,4.6c0,0,1.5,0.5,1.9-0.3
		c0.3-0.8,0.6-1.2,0.6-1.2s0,3.1,0.7,3.4c0.7,0.3,2.1,0.5,2.4-0.8c0,0,0.5,1.1,1.2,0.9c0.7-0.2,1.6-0.5,1.7-1.3
		c0.1-0.8,0.2-1.6,0.2-1.6s0.1,1.3,0.8,1.1c0.6-0.1,1.2,0,1.8-0.9c0.5-0.9,1.8-2.7,1.8-2.7L495.3-90.6z"/>
	<path class="st14" d="M488.2-88.5c0,0-0.1-0.3-0.1-0.9c0-0.7,0.1-1.4,0.3-2.1c0.3-0.7,0.7-1.2,1.2-1.7c0.4-0.4,0.7-0.6,0.7-0.6
		c-0.3,0.1-0.6,0.2-0.8,0.4c-0.6,0.5-1,1.1-1.3,1.8c-0.3,0.7-0.4,1.5-0.3,2.2C488-89.1,488.1-88.8,488.2-88.5z"/>
	<path class="st14" d="M486.2-94.8c-0.2,0.3-0.4,0.7-0.6,1.1c-0.8,1.9-1,3.9-0.8,5.9c0,0.4,0.1,0.8,0.3,1.2c-0.1-1.4-0.1-2.8,0-4.2
		C485.3-92.1,485.7-93.5,486.2-94.8z"/>
	<path class="st14" d="M482.5-95.3c-0.4,1-0.6,2.1-0.7,3.2c-0.1,1.1-0.1,2.2,0.1,3.2c0.1,0,0-1.4,0.1-3.2
		C482.2-93.9,482.6-95.3,482.5-95.3z"/>
	<path class="st7" d="M438.5-50.2l-0.1-0.6C438.4-50.7,438.5-50.4,438.5-50.2z"/>
	<path class="st7" d="M438.4-50.8L438.4-50.8z"/>
	<path class="st7" d="M438.5-50v-0.1V-50z"/>
	<path class="st7" d="M438.6-11.2c4.6-2.3,9.1-5,13.4-7.8l-4.3-14.3l-6,0.9c-0.5-6.2-2.5-12.2-3.2-17.7l-7.3-24.2l-16-1.5l-19.4-1.4
		l-12.4,1.8c-6.8,0.9-14.7,4.7-18,10.7c-1.2,2.2-1.9,7-2.2,9.7c-1,10.3,2.8,41.8,13.6,53.1l-5.5,16.3c-7.8,24.3,72.4,14.1,71.7,4.6
		c-0.9-4.5-5.3-23.5-5.3-23.5L438.6-11.2z"/>
	<path class="st7" d="M438.4-50.8"/>
	<path class="st1" d="M397.5-25.3c0.1,0.1-2.2,1.5-4,4.1s-2.3,5.2-2.5,5.2c-0.2,0,0.1-2.8,2-5.5C394.1-23.2,395.6-24.6,397.5-25.3z"
		/>
	<g class="st6">
		<path d="M377.2-1.8c1.6,3.4,5,5.6,8.6,6.6c3.7,0.8,7.5,0.9,11.2,0.3c14.9-1.7,39.9-16.4,39.5-16.2C417.7-0.5,384.6,3.6,377.2-1.8z
			"/>
	</g>
	<path class="st1" d="M452-19.1c0,0,0,0-0.2,0.1l-0.5,0.3c-0.5,0.3-1.2,0.7-2,1.2c-1.8,1.1-4.4,2.6-7.7,4.3
		c-8.6,4.5-17.7,8.2-27,10.9c-2.7,0.7-5.4,1.2-8.2,1.6c-2.7,0.4-5.2,0.6-7.7,0.8s-4.8,0.4-7,0.4c-2,0.1-4.1,0-6.1-0.1
		c-3-0.2-5.9-1-8.5-2.5c-0.7-0.4-1.3-1-1.9-1.5l-0.4-0.5c0,0-0.1-0.1-0.1-0.2c0.8,0.8,1.6,1.4,2.5,2c2.6,1.4,5.4,2.2,8.4,2.3
		c2,0.1,4,0.2,6.1,0.1c2.2-0.1,4.5-0.3,7-0.5s5-0.5,7.7-0.8c2.7-0.4,5.4-0.9,8.1-1.6c9.3-2.7,18.3-6.3,27-10.8
		c3.3-1.7,6-3.1,7.8-4.2l2.1-1.2l0.5-0.3L452-19.1z"/>
	<path class="st1" d="M447.7-33.4c-0.1,0-0.1,0-0.2,0.1l-0.6,0.1l-2.4,0.4l-9,1.5l-29.8,4.8l-8.2,1.3h-0.2l-0.1-0.2l-9.4-22.6
		c-1.1-2.8-2.1-5.1-2.7-6.7l-0.7-1.8c-0.1-0.2-0.2-0.4-0.2-0.6c0.1,0.2,0.2,0.4,0.3,0.6l0.8,1.8c0.7,1.6,1.7,3.8,2.9,6.6l9.6,22.5
		l-0.3-0.1l8.2-1.3l29.8-4.6l9-1.4l2.5-0.3l0.6-0.1C447.6-33.3,447.7-33.4,447.7-33.4z"/>
	<path class="st1" d="M433.8-63c0.3,1,0.7,2,1.1,3c0.7,1.9,1.6,4.3,2.5,7.2c0.9,2.8,1.5,5.4,1.9,7.3c0.2,1,0.4,2.1,0.7,3.1
		c0-1.1-0.1-2.1-0.4-3.1c-0.4-2.5-1-5-1.8-7.4c-0.7-2.4-1.6-4.8-2.7-7.2C434.9-61.2,434.4-62.1,433.8-63z"/>
	<path class="st1" d="M431.8-80.6c-0.2,0.7-0.6,1.3-1.2,1.7c-0.7,0.5-1.5,0.7-2.3,0.4c-1-0.3-1.8-1.2-2-2.3c-0.1-0.6,0-1.2,0.4-1.8
		c0.4-0.6,0.8-1.1,1.4-1.5c1.1-0.9,2.6-1.6,3.5-3.1c0.9-1.6,1.1-3.4,0.6-5.1c-0.3-0.9-0.7-1.7-1.3-2.5c-0.6-0.7-1.3-1.4-2.1-1.9
		c-0.8-0.5-1.5-1.1-2.1-1.8c-0.6-0.6-1-1.4-1-2.3c0-0.8,0.2-1.7,0.7-2.4c0.4-0.7,1-1.3,1.6-1.9c1.2-1,2.3-2.2,3.2-3.4
		c0.7-1.2,1.1-2.6,1-4c-0.1-1.1-0.4-2.2-0.9-3.3c-0.4-0.8-0.7-1.5-0.9-2.3c-0.2-0.7-0.2-1.4-0.1-2.1c0,0,0,0-0.1,0.1
		c0,0.1-0.1,0.3-0.1,0.4c-0.1,0.5,0,1.1,0.1,1.6c0.2,0.8,0.5,1.6,0.8,2.4c0.5,1,0.7,2.1,0.8,3.2c0,1.3-0.3,2.6-1,3.7
		c-0.9,1.2-2,2.3-3.2,3.3c-0.6,0.6-1.2,1.2-1.6,2c-0.5,0.8-0.8,1.7-0.8,2.6c0.1,1,0.5,1.9,1.1,2.6c0.7,0.7,1.4,1.3,2.2,1.9
		c0.8,0.5,1.4,1.2,2,1.9c0.5,0.7,1,1.5,1.2,2.3c0.5,1.6,0.3,3.3-0.5,4.8c-0.8,1.4-2.2,2.1-3.4,3c-0.6,0.4-1.1,1-1.5,1.6
		c-0.4,0.6-0.5,1.3-0.4,2c0.2,1.2,1.1,2.2,2.2,2.5c0.9,0.2,1.8,0,2.5-0.5c0.4-0.3,0.8-0.8,1-1.3C431.7-80.2,431.8-80.4,431.8-80.6z"
		/>
	<path class="st4" d="M384.9-127.7c0.5,0.6,0.7,1.3,0.6,2.1c0,0.9-0.1,1.7-0.3,2.6c-0.2,0.9-0.4,1.7-0.7,2.5
		c-0.2,0.7-0.7,1.3-1.4,1.7c-0.6,0.3-1.5,0-2.1-1c-0.4-0.6-0.6-1.2-0.7-1.9c-0.1-0.8-0.1-1.6,0-2.4c0.2-0.8,0.5-1.5,0.9-2.2
		c0.4-0.6,0.8-1,1.4-1.4C383.2-128.2,384.2-128.2,384.9-127.7z"/>
	<path class="st1" d="M377.3-102.2c-0.9-2.5-0.1-5.3,1.1-7.7c1.2-2.4,2.8-4.6,3.6-7.2c0.9-2.8,0.8-5.8,1.9-8.5c1.2-2.8,3.5-5,6.4-6
		c1.7-0.6,3.6-0.7,5.1-1.8c1.5-1,2.3-2.9,3.5-4.4c1.9-2.4,3.7-4.4,6.5-5.6c3.2-1.3,7.9-1.9,11.2-0.5c2,0.9,3.6,2.5,4.6,4.5
		c0.9,2,1.5,4.1,1.7,6.3c3.3,0.6,5.2,4,6.7,7c0.9,1.6,1.5,3.5,1.7,5.3c0.1,2.1-1.7,9.3-2.8,11.2c-5.3,9.5-13.1,11.5-22.6,16.7
		c-3.7,2-5.9,6.7-10.1,6.5c-4.9-0.2-9.6-0.4-12.5-4.4c-2.8-4-6-7.7-6.4-12.6"/>
	<path class="st15" d="M427.6-117.3c-0.3-6.8-4.6-15.2-11.4-14.7l-21.3,4.8c-2.1,0.2-3.6,1.9-3.7,4l1.1,51h-0.1
		c0,0,4.4,14.5,18.5,10.5c2.8-0.8,4.1-3.8,4.8-6.9h0.1c0-0.4,0-0.7,0-1.1c0.3-2.3,0.4-4.7,0.3-7l0,0c0.1-4.1,0.2-5.8,0.2-5.8
		c0,0,8.7-1.2,10.8-12.5C427.9-100.5,427.9-109.7,427.6-117.3z"/>
	<path class="st1" d="M410.3-108.8c0,0.8-0.7,1.4-1.4,1.4c-0.8,0-1.4-0.5-1.5-1.3c0,0,0,0,0,0c0-0.8,0.6-1.4,1.4-1.4
		C409.6-110.2,410.3-109.6,410.3-108.8C410.3-108.8,410.3-108.8,410.3-108.8z"/>
	<path class="st1" d="M425.3-108.8c0,0.8-0.6,1.4-1.4,1.4c-0.8,0-1.4-0.5-1.5-1.3c0,0,0,0,0,0c0-0.8,0.6-1.4,1.4-1.4
		C424.6-110.2,425.2-109.6,425.3-108.8C425.3-108.8,425.3-108.8,425.3-108.8z"/>
	<path class="st1" d="M426-112.3c-0.2,0.3-1.4-0.7-3.1-0.7c-1.7,0.1-2.9,1.1-3.1,0.9c-0.2-0.2,0.1-0.5,0.6-1c0.7-0.6,1.5-1,2.5-1
		c0.9,0,1.8,0.3,2.5,0.8C425.9-112.9,426.1-112.4,426-112.3z"/>
	<path class="st1" d="M410.3-112.1c-0.2,0.2-1.4-0.9-3.3-0.9s-3.2,0.8-3.4,0.5c-0.2-0.2,0.1-0.5,0.8-0.9c0.8-0.5,1.8-0.8,2.7-0.7
		c1,0.1,1.9,0.4,2.6,1.1C410.2-112.6,410.4-112.2,410.3-112.1z"/>
	<path class="st1" d="M415.5-100.9c0.8-0.2,1.7-0.4,2.5-0.4c0.4,0,0.8-0.1,0.8-0.4c0-0.4,0-0.8-0.2-1.2c-0.4-0.9-0.7-2-1.1-3.1
		c-1.5-4.4-2.6-8-2.5-8c0.2-0.1,1.6,3.4,3.1,7.8l1.1,3.1c0.2,0.5,0.3,1,0.2,1.6c-0.1,0.3-0.4,0.5-0.7,0.6c-0.2,0-0.5,0.1-0.7,0.1
		C417.2-100.7,416.3-100.7,415.5-100.9z"/>
	<path class="st14" d="M416.1-82.3c-5.3,0-10.5-1.6-15.1-4.4c0,0,3.6,8.1,15,7.3L416.1-82.3z"/>
	<path class="st14" d="M414.7-97.1c-0.6-0.8-1.5-1.2-2.5-1.1c-0.7,0.1-1.3,0.4-1.8,0.9c-0.4,0.5-0.5,1.3-0.2,1.9
		c0.5,0.6,1.3,0.8,2,0.6c0.7-0.2,1.4-0.6,2-1.1c0.2-0.1,0.3-0.3,0.5-0.5C414.9-96.6,414.9-96.9,414.7-97.1"/>
	<path class="st1" d="M410.9-99.9c0.3,0,0.2,1.7,1.6,2.9c1.4,1.2,3.2,1.1,3.2,1.3c0,0.2-0.4,0.3-1.2,0.3c-1,0-2-0.4-2.7-1
		c-0.7-0.6-1.2-1.5-1.3-2.5C410.5-99.5,410.7-99.9,410.9-99.9z"/>
	<path class="st1" d="M410.7-117.4c-0.2,0.4-1.7,0.2-3.6,0.4c-1.8,0.2-3.3,0.6-3.6,0.3c-0.1-0.2,0.2-0.6,0.8-0.9
		c1.6-1,3.6-1.2,5.4-0.5C410.4-117.9,410.7-117.6,410.7-117.4z"/>
	<path class="st1" d="M425-117.1c-0.3,0.3-1.5-0.1-3-0.1c-1.5,0-2.7,0.2-3-0.2c-0.1-0.2,0.1-0.5,0.6-0.9c1.6-0.8,3.4-0.7,4.9,0.2
		C425-117.6,425.1-117.2,425-117.1z"/>
	<path class="st1" d="M390.2-126c1.2-1.5,3.1-2.1,5-2.6c8-2.2,16.2-3.4,24.5-3.7c0.8,1.8-0.3,4-2,5s-3.7,1.3-5.6,1.9
		c-1.9,0.5-3.9,1.4-4.8,3.1c-0.9,1.7-0.5,4.2-1.5,6.1c-1.6,3.2-6.4,3.9-7.9,7.1c-1.2,2.5-0.4,1.9-0.3,4.6c0.1,3.1-1.8,3.5-4.2,5.4
		c-1.9,1.5-5.6,3.2-8,3c0.4-9.7,2.9-14.4,3.3-24.1C388.8-122.2,389-124.4,390.2-126z"/>
	<path class="st7" d="M403.8-141.4l0.2-0.1c0.2-0.1,0.4-0.3,0.6-0.4c0.8-0.4,1.6-0.7,2.5-0.9c1.3-0.3,2.6-0.4,3.9-0.2
		c3.3,0.4,6.1,2.4,7.6,5.3c0.6,1.2,1,2.4,1.2,3.7c0.1,0.9,0.1,1.8,0,2.6c0,0.2-0.1,0.5-0.1,0.7c0,0.1,0,0.2-0.1,0.2
		c0.2-1.2,0.2-2.4,0-3.6c-0.2-1.3-0.6-2.5-1.2-3.6c-1.5-2.8-4.3-4.7-7.4-5.2c-1.3-0.2-2.6-0.1-3.8,0.1
		C406-142.4,404.9-142,403.8-141.4z"/>
	<path class="st7" d="M392.9-132.2c0.1,0,0.2,0,0.3,0c0.3,0,0.6,0,0.9-0.1c0.5-0.1,0.9-0.3,1.4-0.5c0.6-0.3,1.1-0.7,1.6-1.1
		c0.6-0.4,1.2-0.9,1.9-1.5c0.7-0.6,1.5-1.1,2.3-1.5c1.9-0.9,4-1.3,6.1-1.2c2.1,0.1,4.2,0.7,6,1.9c1.5,0.9,2.7,2.1,3.7,3.6
		c0.7,1,1.2,2,1.5,3.1c0.1,0.3,0.2,0.6,0.3,0.9c0,0.1,0,0.2,0.1,0.3c0,0-0.1-0.4-0.4-1.2c-1-2.7-2.9-5-5.3-6.5
		c-1.8-1.1-3.8-1.8-5.9-1.9c-2.1-0.1-4.1,0.3-6,1.2c-0.8,0.4-1.6,0.9-2.3,1.5c-0.7,0.5-1.3,1-1.9,1.5c-0.5,0.4-1.1,0.7-1.7,1
		c-0.5,0.2-0.9,0.4-1.4,0.5c-0.3,0-0.6,0-0.9,0H392.9z"/>
	<path class="st7" d="M383.4-120.1c0.1,0.9,0.3,1.9,0.6,2.8c1.4,4.5,5.1,7.8,9.7,8.6c0.9,0.2,1.9,0.2,2.8,0.3c0,0-0.1,0-0.2,0
		s-0.3,0-0.6,0c-0.7,0-1.4,0-2.1-0.2c-4.7-0.8-8.5-4.2-9.8-8.8c-0.2-0.7-0.3-1.3-0.4-2c0-0.2,0-0.4,0-0.6
		C383.4-120,383.4-120.1,383.4-120.1z"/>
	<path class="st7" d="M394.1-103.3c-0.3,0-0.5-0.1-0.8-0.1c-0.5-0.1-1.2-0.3-2-0.5c-2.2-0.7-4.3-1.8-6-3.4c-1.7-1.6-2.8-3.8-3.1-6.1
		c-0.1-0.7-0.1-1.4,0.1-2.1c0-0.2,0.1-0.4,0.1-0.6c0-0.1,0-0.1,0.1-0.2c-0.6,3.3,0.5,6.6,3,8.8c1.7,1.5,3.8,2.7,6,3.4
		c0.8,0.3,1.5,0.5,2,0.6C393.7-103.5,393.9-103.4,394.1-103.3z"/>
	<path class="st1" d="M429.7-134.1c-1.2-0.1-2.5-0.1-3.7,0.1c-1.2,0.3-2.4,0.7-3.5,1.3c0.3-0.3,0.6-0.5,0.9-0.6
		c0.8-0.4,1.6-0.8,2.5-0.9c0.9-0.2,1.8-0.2,2.7-0.1C429-134.3,429.3-134.2,429.7-134.1z"/>
	<path class="st1" d="M425.2-139.9c0.1,0.4,0.1,0.8,0.1,1.2c0,0.9-0.2,1.9-0.5,2.8c-0.3,0.9-0.7,1.8-1.3,2.6
		c-0.2,0.3-0.5,0.7-0.8,0.9c0.7-1.1,1.3-2.3,1.8-3.6C424.9-137.3,425.1-138.6,425.2-139.9z"/>
	<path class="st15" d="M394.2-107.8c-0.2-0.1-7.1-2.4-7.2,4.7c-0.1,7.1,7.1,5.7,7.1,5.6C394.2-97.7,394.2-107.8,394.2-107.8z"/>
	<path class="st14" d="M392.1-100.3c0,0-0.1,0.1-0.3,0.2c-0.3,0.1-0.6,0.1-0.9,0c-0.8-0.3-1.4-1.5-1.4-2.8c0-0.6,0.1-1.2,0.4-1.8
		c0.1-0.4,0.5-0.8,0.9-0.9c0.3-0.1,0.6,0.1,0.7,0.3c0.1,0.2,0,0.3,0.1,0.4c0,0,0.1-0.1,0.1-0.4c0-0.2-0.1-0.3-0.3-0.5
		c-0.2-0.2-0.4-0.2-0.7-0.2c-0.6,0.1-1.1,0.5-1.3,1.1c-0.3,0.6-0.5,1.3-0.4,2c0,1.4,0.8,2.8,1.8,3.1c0.4,0.1,0.8,0.1,1.1-0.2
		C392.1-100.1,392.1-100.3,392.1-100.3z"/>
	<path class="st2" d="M388.2-99.1c-0.1,0.1-0.2,0.1-0.3,0.2c-0.2,0.1-0.6,0.3-0.9,0.6c-1.1,0.7-2,1.8-2.5,3.1
		c-0.8,1.9-0.7,4,0.3,5.8c1.2,2.2,3.5,3.5,6,3.5c0.6,0,1.3-0.1,1.9-0.3c0.6-0.2,1.2-0.4,1.7-0.8c3.1-2,4-6.2,2-9.3
		c-0.5-0.8-1.2-1.5-2-2c-0.4-0.3-0.9-0.5-1.3-0.7c0.5,0.1,1,0.3,1.4,0.6c1.2,0.7,2.1,1.8,2.7,3c0.4,0.9,0.6,1.8,0.6,2.8
		c0,1.1-0.2,2.2-0.7,3.2c-0.5,1.1-1.4,2-2.4,2.7c-0.5,0.4-1.1,0.6-1.7,0.8c-0.6,0.2-1.3,0.3-2,0.3c-2.6,0-5-1.4-6.2-3.7
		c-1.7-3.2-0.7-7.1,2.4-9c0.4-0.3,0.8-0.4,1-0.5C388-99,388.1-99.1,388.2-99.1z"/>
	<path class="st7" d="M382.8-120.9c0,0.1,0,0.2,0,0.3c0,0.3-0.1,0.7-0.1,1c-0.2,1.2-0.6,2.4-1.1,3.5c-0.6,1.4-1.5,3.1-2.4,4.9
		c-0.5,0.9-1,1.9-1.4,2.9c-0.4,1.1-0.8,2.2-0.9,3.3c-0.3,2.2,0,4.5,0.9,6.5c0.4,0.9,0.9,1.7,1.5,2.5c0.5,0.7,1.1,1.4,1.5,2
		c0.9,1.2,1.8,2.2,2.4,2.8l0.7,0.8c0.1,0.1,0.2,0.2,0.2,0.3c-0.1-0.1-0.2-0.2-0.3-0.2l-0.7-0.7c-0.6-0.6-1.4-1.6-2.4-2.8
		c-0.5-0.6-1-1.3-1.6-2c-0.6-0.8-1.1-1.6-1.5-2.5c-0.9-2.1-1.3-4.3-1-6.6c0.2-1.2,0.5-2.3,0.9-3.4c0.4-1,0.9-2,1.4-2.9
		c0.9-1.9,1.9-3.4,2.5-4.8c0.5-1.1,0.9-2.3,1.1-3.5c0.1-0.3,0.1-0.7,0.1-1C382.7-120.7,382.8-120.8,382.8-120.9z"/>
</g>
<g id="freepik--character-2--inject-201">
	<path class="st4" d="M621,156.1l16.3-16.1l-29.1-49.7c-3-3.5-6.9-6.1-11.2-7.7l-10.2-3.9L561.4,74l-18.1,7.1
		c-4.6,1.8-7.3,6.4-6.8,11.3l4.7,39.8l2.8,51.8l65.6-11.4l-6.6-19.1l0.2-29.9L621,156.1z"/>
	<path class="st1" d="M603.7,152.1c0.2,0,0.2-10.3,0.1-23.1s-0.3-23.1-0.5-23.1c-0.1,0-0.2,10.3-0.1,23.1
		C603.3,141.8,603.5,152.1,603.7,152.1z"/>
	<path class="st4" d="M601.3,159.7l-39.6-16c-3.2-1.3-5.4-4.3-5.6-7.7l-2.9-38c0,0,0.3-16.2-9.7-16.9l-5.7,2.3
		c-7.4,3.9-9.3,14.7-8.3,23.1c1.4,11.9,2,28.6,3.6,38.9c1.3,8.4,6.4,15.1,14.4,18l48.8,10.6L601.3,159.7z"/>
	<path class="st1" d="M553.7,103.9c0.1,0.3,0.1,0.6,0.1,0.9c0.1,0.6,0.1,1.5,0.3,2.5c0.2,2.2,0.5,5.4,0.8,9.2
		c0.4,3.9,0.7,8.5,1.2,13.7c0.1,1.3,0.2,2.6,0.3,4c0.1,1.4,0.2,2.7,0.5,4.1c0.3,1.4,1,2.6,2,3.6c1.1,1,2.3,1.7,3.7,2.3
		c10.9,4.7,21,8.6,28.3,11.4l8.7,3.2l2.4,0.9c0.3,0.1,0.6,0.2,0.8,0.3c-0.3-0.1-0.6-0.1-0.8-0.2l-2.4-0.8c-2.1-0.7-5.1-1.7-8.7-3
		c-7.4-2.7-17.4-6.5-28.4-11.2c-1.4-0.6-2.7-1.4-3.8-2.4c-1.1-1-1.8-2.4-2.1-3.8c-0.3-1.4-0.4-2.7-0.5-4.1c-0.1-1.3-0.2-2.7-0.3-4
		c-0.4-5.1-0.8-9.8-1.1-13.7c-0.3-3.9-0.5-7-0.7-9.2c-0.1-1.1-0.1-1.9-0.2-2.5C553.7,104.4,553.6,104.2,553.7,103.9z"/>
	<path class="st1" d="M531,124.5c0,0.2,0.1,0.3,0.1,0.5l0.1,1.5c0.1,1.4,0.3,3.2,0.5,5.4c0.2,2.2,0.5,5,0.9,8c0.4,3.2,1,6.5,1.8,9.6
		c0.4,1.6,1,3.2,1.9,4.6c0.9,1.3,1.9,2.5,3,3.6c1.9,1.9,4,3.5,6.4,4.8c2.2,1.1,4.5,1.9,7,2.3c-0.2,0-0.3,0-0.5,0
		c-0.5,0-1-0.1-1.5-0.2c-1.8-0.3-3.5-0.9-5.2-1.7c-2.4-1.2-4.6-2.8-6.5-4.8c-1.1-1.1-2.1-2.4-3-3.7c-0.9-1.4-1.6-3.1-2-4.7
		c-0.8-3.2-1.4-6.4-1.8-9.7c-0.4-3-0.6-5.7-0.8-8c-0.2-2.3-0.3-4.1-0.3-5.4c0-0.6,0-1.1,0-1.5C531,124.9,530.9,124.7,531,124.5z"/>
	<path class="st1" d="M547.9,151.1c0.1-0.7,0.3-1.5,0.7-2.1c1.6-3.3,4.5-5.8,8-6.9c0.7-0.3,1.5-0.4,2.2-0.4c0,0.1-0.8,0.3-2.1,0.7
		c-1.6,0.6-3.2,1.5-4.5,2.7c-1.3,1.1-2.5,2.5-3.3,4C548.3,150.4,548,151.1,547.9,151.1z"/>
	<g class="st6">
		<path d="M589.9,155.2c-4.2-2.4-8.4-4.2-12.8-6.2c-4.4-2-8.8-4.6-11.7-8.5c-5.5-7.4-4.8-18-10.4-25.3c0.4,4.9,0.7,9.8,1.1,14.7
			c0.3,4.5-0.4,8.9,2.5,12c2.4,2.6,7.2,4.5,10.5,5.6C575.8,149.7,583.1,153,589.9,155.2"/>
	</g>
	<g class="st6">
		<polygon points="603.3,108.8 606.7,129.9 603.5,123.9 		"/>
	</g>
	<path class="st1" d="M553.8,99.1c-0.1,0-0.2-1.3-0.9-3.4c-1.9-5.4-6.4-9.5-12-10.8c-2.1-0.5-3.5-0.5-3.5-0.6c0.3,0,0.6,0,0.9,0
		c0.9,0,1.7,0.1,2.6,0.3c5.7,1.2,10.4,5.4,12.2,11c0.3,0.8,0.5,1.7,0.6,2.5C553.8,98.5,553.8,98.8,553.8,99.1z"/>
	<path class="st1" d="M601,88.3c0.6,2.4,1.1,4.9,1.4,7.4c0.5,2.5,0.8,4.9,1,7.4c-0.6-2.5-1.1-4.9-1.4-7.4
		C601.5,93.3,601.2,90.8,601,88.3z"/>
	<path class="st4" d="M645.2,207.5c0,0,30.5,8.4,31.7,8.9c1.9,0.7,1.5,7.4-1.3,7.3c-1.3,0-23.4,0.8-26.2,0.7s-11.2-3.5-11.2-3.5
		L645.2,207.5z"/>
	<path class="st1" d="M657.9,219.1c0.4-1.1,0.8-2.2,1.3-3.3c0.7-1,1.4-1.9,2.1-2.8C659.2,214.3,657.8,216.6,657.9,219.1L657.9,219.1
		z"/>
	<path class="st1" d="M654.7,217.7c0.1,0,0.5-1.4,1.3-3c0.8-1.6,1.8-2.7,1.7-2.8C655.8,213.3,654.8,215.4,654.7,217.7L654.7,217.7z"
		/>
	<path class="st1" d="M651.7,216.9c0.1-2.2,1-4.3,2.4-6.1C652.1,212.2,651.2,214.6,651.7,216.9z"/>
	<path class="st1" d="M652.3,213c0.3-0.7,0.4-1.5,0.3-2.3c0-0.8-0.1-1.7-0.3-2.5c-0.1-0.5-0.3-1-0.5-1.4c-0.1-0.3-0.3-0.5-0.5-0.7
		c-0.3-0.2-0.8-0.2-1.1,0.1c-0.2,0.2-0.4,0.5-0.4,0.9c0,0.3,0,0.5,0,0.8c0,0.5,0.1,1,0.2,1.5c0.2,0.8,0.5,1.6,0.9,2.3
		c0.3,0.7,0.8,1.3,1.4,1.9c0.1,0-0.4-0.8-1.1-2c-0.4-0.7-0.6-1.5-0.8-2.3c-0.1-0.5-0.1-0.9-0.1-1.4c0-0.5,0-1.1,0.3-1.3
		c0.1-0.1,0.3-0.1,0.4,0c0.1,0.1,0.3,0.3,0.3,0.5c0.2,0.4,0.3,0.9,0.5,1.3c0.2,0.8,0.4,1.6,0.4,2.4C652.3,212.1,652.2,213,652.3,213
		z"/>
	<path class="st1" d="M652.2,212.7c-0.6-0.3-1.3-0.4-2-0.3c-0.7,0-1.5,0.1-2.2,0.3c-0.4,0.1-0.8,0.3-1.2,0.5
		c-0.5,0.3-0.8,0.8-0.7,1.4c0.1,0.5,0.6,1,1.1,1.1c0.4,0.1,0.9,0.1,1.4,0c1.4-0.4,2.5-1.2,3.4-2.4c-0.6,0.3-1.1,0.7-1.6,1.1
		c-0.6,0.4-1.2,0.7-1.9,0.8c-0.4,0.1-0.8,0.1-1.1,0c-0.4-0.1-0.6-0.4-0.7-0.7c-0.1-0.4,0.1-0.7,0.5-0.9c0.3-0.2,0.7-0.3,1.1-0.4
		c0.7-0.2,1.4-0.3,2.1-0.4C651.5,212.6,652.2,212.7,652.2,212.7z"/>
	<path class="st1" d="M662.6,219.5c0.1-0.9,0.3-1.8,0.6-2.7c0.4-0.8,0.9-1.6,1.5-2.4c-0.9,0.4-1.7,1.2-2,2.2
		C662.2,217.4,662.2,218.5,662.6,219.5z"/>
	<path class="st1" d="M641.3,220.9c0.4,0.2,0.8,0.4,1.2,0.6c1.1,0.4,2.2,0.8,3.4,1.1c3.8,0.8,7.7,1.2,11.6,1.1
		c4.6-0.1,8.7-0.3,11.7-0.4l3.5-0.2c0.4,0,0.9,0,1.3-0.1c-0.4-0.1-0.9-0.1-1.3-0.1h-3.5l-11.7,0.2c-3.9,0.1-7.7-0.2-11.5-0.9
		C643,221.5,641.3,220.8,641.3,220.9z"/>
	<path class="st1" d="M640.4,221.5c0,0.1,0.9-0.4,2.3-1c1.8-0.8,3.8-1.2,5.8-0.9c1.9,0.4,3.7,1.5,5,3c0.5,0.6,1.1,1.2,1.8,1.8
		c-0.4-0.7-0.9-1.4-1.5-2c-0.6-0.7-1.3-1.3-2-1.9c-0.9-0.7-2-1.1-3.1-1.3c-2.1-0.3-4.2,0.1-6,1.1C641.8,220.6,641,221,640.4,221.5z"
		/>
	<path class="st4" d="M609.1,200.4c0,0-28.8,18.9-29.9,19.7c-1.6,1.2,0.2,6.8,2.9,5.8c1.3-0.5,25.5-7.2,28.1-8.2
		c2.6-1,9.6-6.7,9.6-6.7L609.1,200.4z"/>
	<path class="st1" d="M600.6,215.4c-0.3-1.2-0.9-2.3-1.9-3.1c-0.9-0.9-2-1.5-3.3-1.6c1,0.6,2,1.3,2.9,2
		C599.1,213.5,599.9,214.4,600.6,215.4z"/>
	<path class="st1" d="M603.2,213c-0.3-1.1-0.9-2.1-1.8-2.8c-0.7-0.9-1.7-1.5-2.8-1.8c-0.1,0.1,1.2,0.9,2.4,2.2
		C602.3,211.8,603,213.1,603.2,213z"/>
	<path class="st1" d="M605.8,211.4c-0.2-2.4-1.8-4.4-4.1-5.1c0.9,0.7,1.7,1.4,2.5,2.2C604.7,209.4,605.3,210.4,605.8,211.4z"/>
	<path class="st1" d="M604,207.8c0.1,0-0.3-0.8-0.7-2.2c-0.2-0.8-0.3-1.6-0.3-2.4c0-0.5,0-0.9,0-1.4c0-0.2,0-0.4,0.1-0.6
		c0.1-0.1,0.3-0.2,0.4-0.1c0.3,0.1,0.5,0.7,0.7,1.1c0.1,0.4,0.2,0.9,0.3,1.4c0.1,0.8,0,1.6-0.1,2.4c-0.2,1.4-0.5,2.2-0.4,2.2
		c0.4-0.7,0.6-1.4,0.7-2.2c0.2-0.8,0.2-1.7,0.2-2.5c0-0.5-0.1-1-0.3-1.5c-0.1-0.3-0.2-0.5-0.3-0.8c-0.1-0.3-0.4-0.6-0.7-0.7
		c-0.4-0.2-0.8-0.1-1,0.3c-0.2,0.3-0.2,0.6-0.2,0.9c0,0.5,0,1,0,1.5c0.1,0.8,0.2,1.7,0.5,2.5C603.2,206.5,603.6,207.2,604,207.8z"/>
	<path class="st1" d="M604,207.5c0,0.1,0.7-0.3,1.9-0.5c0.7-0.2,1.4-0.3,2.1-0.3c0.4,0,0.8,0,1.2,0.1c0.4,0,0.6,0.3,0.7,0.7
		c0,0.4-0.2,0.7-0.5,0.9c-0.3,0.2-0.7,0.3-1.1,0.4c-0.7,0.1-1.4,0-2-0.2c-0.6-0.2-1.2-0.4-1.9-0.6c1.1,0.8,2.5,1.3,4,1.2
		c0.5,0,0.9-0.2,1.3-0.4c0.5-0.3,0.7-0.8,0.7-1.4c-0.1-0.6-0.5-1-1.1-1.1c-0.4-0.1-0.9-0.1-1.3-0.1c-0.7,0-1.5,0.2-2.1,0.4
		C605.1,206.7,604.5,207,604,207.5z"/>
	<path class="st1" d="M585.9,224.8c0,0,0.5-0.3,0.7-1.1c0.2-1.1,0-2.2-0.5-3.1c-0.3-0.5-0.6-1-0.9-1.4c-0.3-0.4-0.6-0.7-1-1.1
		c-0.3-0.2-0.6-0.4-0.9-0.4c-0.2,0-0.4,0-0.4,0.1c0.4,0.1,0.7,0.3,1.1,0.6c0.3,0.3,0.6,0.7,0.8,1.1c0.3,0.5,0.6,0.9,0.9,1.4
		c0.5,0.8,0.7,1.8,0.6,2.8C586.2,224,586,224.4,585.9,224.8z"/>
	<path class="st1" d="M596.2,217.1c0-2.1-1.5-3.9-3.6-4.2c0.8,0.5,1.5,1.1,2.1,1.8C595.3,215.4,595.8,216.3,596.2,217.1z"/>
	<path class="st1" d="M616.9,212c-0.4,0.3-0.9,0.6-1.3,0.9c-1.1,0.8-2.3,1.5-3.6,2.2c-1.8,1-3.7,1.8-5.7,2.5
		c-2.2,0.8-4.6,1.6-7.2,2.3c-5.2,1.5-9.9,2.9-13.3,3.9l-4,1.2c-0.5,0.1-1,0.3-1.5,0.5c0.5-0.1,1-0.2,1.5-0.3l4.1-1.1
		c3.4-0.9,8.1-2.2,13.3-3.7c2.6-0.8,5.1-1.5,7.2-2.4c1.9-0.7,3.8-1.6,5.7-2.6c1.2-0.7,2.4-1.5,3.5-2.3
		C616.2,212.7,616.5,212.4,616.9,212z"/>
	<path class="st1" d="M618,212.4c-0.8-0.3-1.6-0.6-2.4-0.7c-2-0.4-4.2-0.1-6.1,0.7c-1,0.5-1.9,1.3-2.6,2.2c-0.5,0.8-1,1.6-1.3,2.4
		c-0.4,0.8-0.6,1.6-0.8,2.4c0.4-0.7,0.8-1.5,1.1-2.2c0.8-1.8,2.1-3.3,3.8-4.3c1.8-0.8,3.8-1.1,5.8-0.8
		C617,212.2,617.9,212.5,618,212.4z"/>
	<path class="st1" d="M669.1,153.2c0,0,8.6,3.1,8.7,12.8c0.1,18.6-37.5,39.1-37.5,39.1l-50-33.2l-3.1-1.3
		C587.1,170.7,654.6,145.3,669.1,153.2z"/>
	<path class="st7" d="M615.5,188.7c0.5-0.3,0.9-0.6,1.3-0.9c0.8-0.6,2-1.5,3.4-2.6c2.9-2.2,6.8-5.4,11-9c4.2-3.6,7.9-7,10.5-9.5
		c1.3-1.2,2.4-2.3,3.1-3c0.4-0.4,0.7-0.7,1.1-1.2c-0.4,0.3-0.8,0.6-1.2,1l-3.2,2.9c-2.7,2.4-6.4,5.8-10.6,9.4
		c-4.2,3.6-8,6.8-10.9,9.1l-3.3,2.7C616.3,187.9,615.9,188.3,615.5,188.7z"/>
	<path class="st7" d="M655,160.2c-1.6-0.3-3.3-0.1-4.8,0.4c-1.6,0.4-3.1,1.2-4.3,2.3c0.1,0.1,1.9-1,4.4-1.8
		C652.8,160.3,655,160.3,655,160.2z"/>
	<path class="st7" d="M650.6,157.3c-2.3,1-4,3.1-4.5,5.6c0.1,0.1,0.7-1.5,2-3.1S650.7,157.4,650.6,157.3z"/>
	<path class="st1" d="M671.8,216.1c0-0.1-0.6-0.2-1.3,0.4c-0.8,0.8-1.3,1.8-1.5,2.9c-0.2,1.1,0,2.2,0.5,3.2c0.4,0.8,0.7,1.1,0.8,1.1
		c-0.1-0.4-0.3-0.8-0.5-1.2c-0.3-1-0.4-2-0.3-3c0.1-1,0.5-1.9,1.2-2.7C671.3,216.2,671.8,216.2,671.8,216.1z"/>
	<path class="st3" d="M665.5,126.9l-14.2,38.3c-0.8,2.2-2.9,3.6-5.3,3.6l-78.4-1v-6l29.1,1.1l12.3-38.3c0.4-1.3,1.6-2.2,3-2.2
		l50.5,0.1c1.7,0,3.1,1.4,3.1,3.1C665.7,126.1,665.6,126.5,665.5,126.9z"/>
	<path class="st1" d="M665.5,126.9v-0.1c0-0.1,0.1-0.2,0.1-0.4c0.1-0.5,0.1-1,0-1.4c-0.2-0.8-0.7-1.4-1.4-1.9
		c-0.4-0.3-0.9-0.4-1.4-0.4c-0.5,0-1.1,0-1.7,0H640h-14.8h-8.3h-4.4c-0.7-0.1-1.5,0.1-2.1,0.5c-0.6,0.4-1.1,1-1.3,1.7
		c-3.7,11.6-7.9,24.4-12.3,38.2v0.1h-0.1l-29.1-1.1l0.1-0.1v6l-0.1-0.1l49.3,0.7l21.4,0.3l4.9,0.1h2.4c0.8,0,1.6-0.1,2.3-0.3
		c1.4-0.5,2.6-1.6,3.1-3c0.5-1.4,1-2.8,1.5-4.1l9.4-25.2l2.6-6.8C665.2,127.7,665.5,126.9,665.5,126.9c0,0.1-0.3,0.9-0.8,2.4
		l-2.5,6.8l-9.3,25.2c-0.5,1.3-1,2.7-1.5,4.1c-0.6,1.5-1.8,2.6-3.2,3.1c-0.7,0.3-1.5,0.4-2.3,0.3h-2.4l-4.9-0.1l-21.4-0.3l-49.3-0.6
		h-0.2v-6.2h0.1l29.1,1.1l-0.1,0.1c4.4-13.8,8.6-26.6,12.3-38.2c0.2-0.8,0.7-1.4,1.4-1.9c0.7-0.4,1.4-0.6,2.2-0.5h4.4h8.3l14.8,0.1
		l21.1,0.1c0.6,0,1.2,0,1.7,0c0.5,0,1,0.2,1.5,0.5c0.7,0.4,1.2,1.1,1.4,1.9c0.1,0.5,0.1,1,0,1.5
		C665.6,126.5,665.6,126.7,665.5,126.9z"/>
	<path class="st2" d="M630.8,141.3c1.2-0.6,2.7-0.5,3.8,0.4c0.9,0.9,1.2,2.2,0.7,3.4c-0.5,1.2-1.6,1.9-2.9,2c-1.3,0.1-2.6-0.7-3-2
		C629.1,143.9,629.5,142,630.8,141.3"/>
	<path class="st1" d="M648.7,207.2c0,0-70.7-45.2-73.7-47c-2.7-1.5-9.7-5.9-16.7-4c-7,1.9-13.3,8.2-16.4,17.4
		c-1.8,5.2-2.6,14.2-3,20.9c-0.5,8,2.1,15.9,7.2,22.1c2.3,2.9,5.4,5,8.8,6.3c0.7,0.2,1.5,0.4,2.3,0.6c13.4,2.8,27.2-3,34.6-14.5
		l1.7-2.5c0,0,46.2,17,47,16.7L648.7,207.2z"/>
	<path class="st7" d="M578.6,162.7c0,0-0.1,0-0.2-0.1l-0.5-0.3c-0.4-0.3-1.1-0.7-1.9-1.3c-2.4-1.5-4.9-2.8-7.5-3.8
		c-1.8-0.7-3.7-1.1-5.6-1.2c-2.2-0.1-4.4,0.3-6.5,1.1c-2.3,0.9-4.4,2.2-6.2,3.8c-1,0.8-1.9,1.7-2.8,2.7c-0.9,1-1.6,2.1-2.3,3.3
		c-1.3,2.3-2.3,4.7-3.1,7.3c-0.7,2.5-1.2,4.9-1.7,7.2c-0.9,4.1-1.5,8.2-1.6,12.4c0,2.8,0.2,5.6,0.6,8.4c0.2,1,0.3,1.7,0.4,2.3
		c0,0.2,0.1,0.4,0.1,0.6c0,0.1,0,0.1,0,0.2c0-0.1-0.1-0.1-0.1-0.2c0-0.2-0.1-0.3-0.2-0.6c-0.1-0.5-0.3-1.3-0.5-2.3
		c-0.5-2.8-0.8-5.6-0.8-8.4c0.1-4.2,0.6-8.4,1.5-12.5c0.5-2.3,1-4.7,1.7-7.2c0.7-2.6,1.8-5,3.1-7.4c0.7-1.2,1.4-2.3,2.3-3.3
		c0.9-1,1.8-1.9,2.8-2.8c1.9-1.6,4-2.9,6.4-3.8c2.1-0.8,4.4-1.2,6.7-1c2,0.1,3.9,0.6,5.7,1.3c2.6,1,5.2,2.3,7.5,4
		c0.8,0.6,1.5,1,1.9,1.3l0.5,0.4L578.6,162.7z"/>
	<path class="st7" d="M561.2,194.4l0.4,0.2l1.2,0.5l4.5,1.7l16.7,6.3c7.1,2.6,15.5,5.8,25.1,9.2s20,7.3,31.3,11.1l0.2,0.1l0.1-0.2
		c1.8-3.4,3.6-6.9,5.5-10.6l2.8-5.4l0.1-0.2l-0.2-0.1l-53.9-34.2l-16.2-10.2l-4.4-2.7l-1.1-0.7c-0.3-0.2-0.4-0.2-0.4-0.2l0.4,0.3
		c0.3,0.2,0.7,0.4,1.1,0.7l4.4,2.8l16.1,10.3l53.8,34.4l-0.1-0.3l-2.8,5.4l-5.6,10.5l0.3-0.1c-11.3-3.8-21.8-7.6-31.3-11l-25.1-9.1
		l-16.7-6.1l-4.5-1.6l-1.2-0.4L561.2,194.4z"/>
	<path class="st1" d="M564.8,44.3c-1.3-2.4-2.4-4.9-3.1-7.5c-0.8-2.6-0.6-5.4,0.4-8c0.7-1.5,1.7-2.7,2.2-4.2
		c0.7-2.1,0.4-4.5,1.7-6.3c2-2.8,6.3-2.1,9.4-3.6c2.4-1.1,4.1-3.6,6.6-4.4c2.2-0.7,4.6,0,6.8,0.9c2.1,0.9,4.2,2.1,6.5,2.4
		c1.7,0.1,3.3,0.1,5,0c1.7-0.1,3.3,0.5,4.6,1.6c1.2,1.2,1.4,3.3,0.1,4.4c2.9-0.5,5.6,2.4,5.6,5.3s-2.3,5.5-4.9,6.8
		c-2.8,1.1-5.7,1.5-8.7,1.1c-8.3-0.7-16.6-3.8-22.3-9.9"/>
	<path class="st9" d="M566.6,33.9L561,75c-0.9,6.8,3.8,13,10.6,13.9c0.2,0,0.4,0,0.6,0.1l0,0c6.6,0.6,12.4-4.1,13.3-10.6
		c0.4-3.1,0.8-5.7,0.8-6c0,0,10.6,0.5,12.8-9.8c1.1-5,2.4-15.3,3.5-24.7c1.2-10.1-5.6-19.4-15.6-21.4l-1-0.2
		C575.2,14.7,567.8,23.1,566.6,33.9z"/>
	<path class="st11" d="M586.3,72.3c-4.8-0.9-9.2-3.1-12.6-6.5c0,0,1.7,8,12.1,9.2L586.3,72.3z"/>
	<path class="st1" d="M598,46.6c-0.2,0.8-0.9,1.3-1.7,1.2c-0.8-0.1-1.3-0.8-1.3-1.6c0,0,0,0,0,0c0.2-0.8,0.9-1.3,1.7-1.2
		C597.5,45.1,598.1,45.8,598,46.6C598,46.6,598,46.6,598,46.6z"/>
	<path class="st1" d="M599.3,42.5c-0.2,0.2-1.2-0.9-2.7-1.2c-1.6-0.3-2.9,0.2-3,0c-0.1-0.2,0.2-0.4,0.8-0.7c0.8-0.3,1.6-0.4,2.5-0.3
		c0.8,0.2,1.6,0.6,2.1,1.2C599.4,42.1,599.5,42.4,599.3,42.5z"/>
	<path class="st1" d="M583.2,44.1c-0.2,0.8-0.9,1.3-1.7,1.2c-0.8-0.1-1.3-0.8-1.3-1.6c0,0,0,0,0,0c0.1-0.8,0.9-1.3,1.7-1.2
		C582.8,42.5,583.3,43.2,583.2,44.1C583.2,44,583.2,44,583.2,44.1z"/>
	<path class="st1" d="M583.8,39.7c-0.2,0.2-1.2-0.9-2.8-1.2c-1.6-0.3-2.9,0.2-3,0c-0.1-0.2,0.2-0.4,0.8-0.7c0.8-0.3,1.6-0.4,2.5-0.3
		c0.8,0.2,1.6,0.6,2.1,1.2C583.8,39.2,583.9,39.6,583.8,39.7z"/>
	<path class="st1" d="M587.1,52.5c0.9-0.1,1.8-0.1,2.7,0c0.4,0,0.8,0,0.9-0.2c0.1-0.4,0.1-0.8,0-1.2c-0.2-1.1-0.4-2.2-0.6-3.3
		c-0.8-4.7-1.3-8.5-1.1-8.6s1,3.7,1.8,8.5l0.5,3.3c0.2,0.5,0.1,1.1-0.1,1.6c-0.2,0.3-0.5,0.4-0.8,0.5c-0.2,0-0.5,0-0.7,0
		C588.9,53,588,52.8,587.1,52.5z"/>
	<path class="st1" d="M582.3,52.7c0.3,0-0.1,1.7,1.2,3.3c1.2,1.5,3.1,1.7,3.1,1.9c0,0.2-0.5,0.3-1.2,0.1c-1-0.2-1.9-0.7-2.6-1.5
		c-0.6-0.8-0.9-1.7-0.8-2.7C581.9,53,582.2,52.6,582.3,52.7z"/>
	<path class="st1" d="M585.4,33.5c-0.2,0.4-1.8-0.1-3.7-0.3s-3.5,0.1-3.7-0.4c-0.1-0.2,0.3-0.6,0.9-0.9c0.9-0.4,1.9-0.5,2.9-0.4
		c1,0.1,1.9,0.4,2.8,0.9C585.2,32.9,585.5,33.3,585.4,33.5z"/>
	<path class="st1" d="M599.7,37.8c-0.3,0.3-1.4-0.3-2.7-0.6c-1.3-0.3-2.5-0.2-2.6-0.7c-0.1-0.2,0.2-0.5,0.7-0.8
		c1.5-0.6,3.2-0.2,4.3,1C599.8,37.2,599.8,37.6,599.7,37.8z"/>
	<path class="st9" d="M565.9,41.7c-0.2-0.1-6.6-3.5-7.8,3.6c-1.2,7.1,6.2,6.8,6.2,6.6C564.4,51.7,565.9,41.7,565.9,41.7z"/>
	<path class="st11" d="M562.6,48.9c0,0-0.1,0.1-0.4,0.1c-0.3,0.1-0.6,0-0.9-0.1c-0.7-0.4-1.1-1.7-0.9-3c0.1-0.6,0.3-1.2,0.6-1.7
		c0.2-0.4,0.6-0.7,1.1-0.8c0.3,0,0.6,0.2,0.7,0.5c0.1,0.2,0,0.3,0,0.4c0,0,0.2-0.1,0.2-0.4c0-0.2-0.1-0.4-0.2-0.5
		c-0.2-0.2-0.4-0.3-0.7-0.3c-0.6,0-1.2,0.4-1.5,0.9c-0.4,0.6-0.7,1.2-0.8,1.9c-0.2,1.4,0.3,2.9,1.3,3.3c0.4,0.2,0.8,0.2,1.2,0
		C562.6,49,562.6,48.9,562.6,48.9z"/>
	<path class="st1" d="M604.6,28.3c-1.2,2.6-7.4,3.6-12,2.2c-4.2-1.3-5.7-4-8.4-6.3c-1.7-1.5-1.7-1.5-4.5-1.7c-2.2-0.2-4,2-5.7,3.5
		c0.9,5.6-1.6,11.2-4,16.3c-0.2,0.6-0.6,1.1-1.1,1.5c-0.9,0.5-2.1-0.3-2.7-1.2c-0.8-1.5-1.2-3.2-1-5c0-3.9,0.8-7.8,2.4-11.4
		c1.5-3.6,4.1-6.7,7.4-8.9c4.2-2.6,9.3-3.4,14.1-2.3c4.8,1.1,9.1,3.7,12.3,7.4C602.8,24.2,604,26.2,604.6,28.3"/>
	<path class="st1" d="M590.2,45.4c0.1,0,0-0.6,0.3-1.6c0.4-1.5,1.3-2.7,2.5-3.6c1.8-1.3,4.1-1.7,6.3-0.9c1.2,0.4,2.3,1.2,3,2.3
		c1.7,2.3,1.7,5.5,0,7.8c-0.8,1.1-1.8,1.9-3,2.3c-2.1,0.8-4.5,0.4-6.3-0.9c-1.2-0.9-2.1-2.2-2.5-3.6C590.2,46,590.3,45.3,590.2,45.4
		c0,0.1,0,0.2,0,0.4c0,0.4,0,0.8,0.1,1.3c0.3,1.6,1.2,2.9,2.5,3.9c3.1,2.4,7.5,1.8,9.9-1.2c0-0.1,0.1-0.1,0.1-0.2
		c1.9-2.5,1.9-5.9,0-8.4c-0.8-1.1-2-2-3.3-2.5c-2.3-0.8-4.8-0.4-6.7,1.1c-1.3,1-2.1,2.4-2.5,3.9c-0.1,0.4-0.1,0.8-0.1,1.3
		C590.2,45.1,590.2,45.2,590.2,45.4z"/>
	<path class="st1" d="M573.4,42.5c0.1,0,0-0.6,0.3-1.6c0.4-1.5,1.3-2.7,2.5-3.6c1.8-1.3,4.2-1.7,6.3-0.9c1.2,0.4,2.3,1.2,3,2.3
		c1.7,2.3,1.7,5.5,0,7.8c-0.8,1.1-1.8,1.9-3,2.3c-2.1,0.8-4.5,0.4-6.3-0.9c-1.2-0.9-2.1-2.2-2.5-3.6C573.5,43,573.5,42.4,573.4,42.5
		c-0.1,0,0,0.1,0,0.4c0,0.4,0,0.8,0.1,1.3c0.3,1.6,1.2,2.9,2.5,3.9c3.1,2.4,7.5,1.8,9.9-1.3c0,0,0.1-0.1,0.1-0.1
		c1.8-2.5,1.8-5.9,0-8.4c-2.3-3.1-6.7-3.8-9.9-1.5c0,0-0.1,0.1-0.1,0.1c-1.3,1-2.1,2.4-2.5,3.9c-0.1,0.4-0.1,0.8-0.1,1.3
		C573.4,42.3,573.4,42.5,573.4,42.5z"/>
	<path class="st1" d="M587.3,42.7c0.1,0.1,0.9-0.3,2,0s1.6,1.2,1.7,1.1c0.1-0.1,0-0.3-0.2-0.7c-0.3-0.5-0.8-0.8-1.3-0.9
		c-0.5-0.2-1.1-0.1-1.7,0.1C587.4,42.4,587.2,42.6,587.3,42.7z"/>
	<path class="st1" d="M563.9,40.7c0,0.2,2.3,0.3,5,0.2c2.8,0,5-0.2,5-0.4c0-0.2-2.3-0.3-5-0.2C566.2,40.3,563.9,40.5,563.9,40.7z"/>
</g>
</svg>
