<?xml version="1.0" encoding="utf-8"?>
<!-- Generator: Adobe Illustrator 19.0.0, SVG Export Plug-In . SVG Version: 6.00 Build 0)  -->
<svg version="1.1" id="Layer_1" xmlns="http://www.w3.org/2000/svg" xmlns:xlink="http://www.w3.org/1999/xlink" x="0px" y="0px"
	 width="647.5px" height="425.4px" viewBox="313 -201.4 647.5 425.4" style="enable-background:new 313 -201.4 647.5 425.4;"
	 xml:space="preserve">
<style type="text/css">
	.st0{fill:#EBEBEB;}
	.st1{fill:#263238;}
	.st2{fill:#455A64;}
	.st3{fill:#FAFAFA;}
	.st4{fill:#5F4CA4;}
	.st5{opacity:0.8;}
	.st6{fill:#FFFFFF;}
	.st7{opacity:0.6;}
	.st8{opacity:0.3;}
	.st9{fill:#FFBE9D;}
	.st10{fill:#EB996E;}
	.st11{opacity:0.4;}
	.st12{fill:#B78876;}
	.st13{fill:#AA6550;}
	.st14{fill:#E0E0E0;}
</style>
<g id="freepik--background-simple--inject-308">
	<path class="st0" d="M780.5-160.5l-0.8,0.3c-6.4,2.6-10.8,8.6-11.5,15.5c-0.1,0.9-0.1,1.8,0,2.7c0.4,6.5,4.1,12.4,9.7,15.6
		c3.3,1.9,7.2,2.8,9.6,5.7c3.1,3.8,2.4,9.3,1.5,14.2c-0.9,4.8-1.6,10.4,1.5,14.1c2,2.4,5.1,3.5,8.1,3.8c8.1,0.8,16.1-3.7,20.8-10.4
		c4.7-6.7,6.3-15.1,5.9-23.2c-0.5-11.4-4.9-22.8-13.3-30.5C803.7-160.5,791.3-164,780.5-160.5z"/>
	<path class="st0" d="M621.2-67.3c3.9-4,12.9-6.9,18.3-5.6c5.5,1.4,9.8,5.6,11.5,11.1c1.9,6.6-0.4,14.5,3.9,19.9
		c3,3.8,8.1,4.9,12.4,7.1c12.4,6.4,17.3,21.6,10.9,34c-3.8,7.5-11.2,12.5-19.5,13.5c-10.9,1.2-21.4-4.8-29.3-12.4
		c-8.1-7.8-15.6-22-16.7-33.2C611.4-45.8,611.4-56,621.2-67.3"/>
	<circle class="st0" cx="750.9" cy="-184.6" r="16.8"/>
	<path class="st0" d="M799-50.6c-3.9-8.4-15-12.5-23.4-8.7l-1.2,0.6c-8.1,4.4-11.6,15.6-7.4,23.8c4.2,8.2,15.5,11.9,23.7,7.8
		C799-31.2,803-42.3,799-50.6z"/>
</g>
<g id="freepik--Floor--inject-308">
	<path class="st1" d="M940.5,223.7c0,0.1-98.3,0.3-219.4,0.3s-219.5-0.1-219.5-0.3c0-0.1,98.2-0.2,219.5-0.2
		S940.5,223.5,940.5,223.7z"/>
</g>
<g id="freepik--Device--inject-308">
	<path class="st2" d="M555.1-16.5h328.2c7.5,0,13.6,6.1,13.6,13.6v207.9c0,7.5-6.1,13.6-13.6,13.6H555.1c-7.5,0-13.6-6.1-13.6-13.6
		V-2.9C541.6-10.4,547.6-16.5,555.1-16.5z"/>
	<path class="st2" d="M527.7,203.3h385l0,0v4.3c0,9-7.3,16.2-16.2,16.2l0,0H543.9c-9,0-16.2-7.3-16.2-16.2l0,0V203.3L527.7,203.3z"
		/>
	<rect x="551.1" y="-7.2" class="st1" width="335.3" height="198.5"/>
	<polygon class="st1" points="684.2,201.1 689,208.7 756.2,208.7 760.6,201.1 	"/>
	<path class="st0" d="M561-0.4h316.1c1.7,0,3,1.4,3,3v185c0,1.7-1.4,3-3,3H561c-1.7,0-3-1.4-3-3V2.6C558,0.9,559.4-0.4,561-0.4z"/>
	<polygon class="st3" points="879.8,190.9 557.7,190.9 558,13.8 879.8,13.8 	"/>
	<path class="st1" d="M584.4,6.9c0,1.4-1.2,2.6-2.6,2.6c-1.4,0-2.6-1.2-2.6-2.6c0-1.4,1.2-2.6,2.6-2.6
		C583.3,4.4,584.4,5.5,584.4,6.9C584.4,6.9,584.4,6.9,584.4,6.9z"/>
	<path class="st1" d="M568.8,6.9c0,1.4-1.2,2.6-2.6,2.6c-1.4,0-2.6-1.2-2.6-2.6s1.2-2.6,2.6-2.6c0,0,0,0,0,0
		C567.7,4.4,568.8,5.5,568.8,6.9C568.8,6.9,568.8,6.9,568.8,6.9z"/>
	<path class="st1" d="M576.3,6.9c0,1.4-1.2,2.6-2.6,2.6c-1.4,0-2.6-1.2-2.6-2.6c0-1.4,1.2-2.6,2.6-2.6
		C575.2,4.4,576.3,5.5,576.3,6.9C576.3,6.9,576.3,6.9,576.3,6.9z"/>
	<path class="st1" d="M893.9,201.1c0,0.1-78.9,0.2-176.1,0.2s-176.2-0.1-176.2-0.2c0-0.1,78.9-0.2,176.2-0.2S893.9,201,893.9,201.1z
		"/>
	<path class="st4" d="M845.9,90.1c-9.2,7.9-13.1,20.2-10.2,32c-14.2-2.8-27.9,6.4-30.7,20.6c-0.7,3.3-0.7,6.7,0,10
		c-9.2-6.3-23.3-4-30,5.1c-0.1-6-0.4-12.2-3.5-17.3c-3.1-5.1-10.2-8.2-15.3-5c4.9-5.6,4.3-14.1-1.2-19c-3.4-3-8-4-12.3-2.9
		c-0.1-7.1-4.7-57.8-8.4-100.5h-31.8c-3.7,42-8,90.2-8.1,97.1c-7.2-1.9-14.5,2.3-16.5,9.5c-1.2,4.4-0.1,9.1,2.9,12.4
		c-5-3.2-12.1-0.1-15.3,5s-3.4,11.4-3.5,17.3c-6.6-9-20.7-11.4-30-5.1c2.7-14.2-6.6-27.9-20.7-30.6c-3.3-0.6-6.7-0.6-10,0
		c4.4-16.8-5.7-33.9-22.5-38.3c-7-1.8-14.5-1.2-21,1.9v108.5h321.5V85.6C868.2,80.7,855.3,82.4,845.9,90.1z"/>
	<g class="st5">
		<path class="st6" d="M845.9,90.1c-9.2,7.9-13.1,20.2-10.2,32c-14.2-2.8-27.9,6.4-30.7,20.6c-0.7,3.3-0.7,6.7,0,10
			c-9.2-6.3-23.3-4-30,5.1c-0.1-6-0.4-12.2-3.5-17.3c-3.1-5.1-10.2-8.2-15.3-5c4.9-5.6,4.3-14.1-1.2-19c-3.4-3-8-4-12.3-2.9
			c-0.1-7.1-4.7-57.8-8.4-100.5h-31.8c-3.7,42-8,90.2-8.1,97.1c-7.2-1.9-14.5,2.3-16.5,9.5c-1.2,4.4-0.1,9.1,2.9,12.4
			c-5-3.2-12.1-0.1-15.3,5s-3.4,11.4-3.5,17.3c-6.6-9-20.7-11.4-30-5.1c2.7-14.2-6.6-27.9-20.7-30.6c-3.3-0.6-6.7-0.6-10,0
			c4.4-16.8-5.7-33.9-22.5-38.3c-7-1.8-14.5-1.2-21,1.9v108.5h321.5V85.6C868.2,80.7,855.3,82.4,845.9,90.1z"/>
	</g>
	<path class="st4" d="M843.9,169.2c-23.3-15.6-54.9-9.4-70.5,13.8c-0.6,0.9-1.2,1.8-1.8,2.8c-2.8-3.8-6.5-6.9-10.8-9
		c0.3-0.8,0.6-1.6,0.8-2.5c2.7-11.6-4.5-23.1-16.1-25.8c-3.2-0.7-6.6-0.7-9.8,0L726.2,13h-12.5v124.6c-7.7,1.2-13.1,10.3-10.4,17.7
		c-5.5,0.9-10.2,4.3-12.6,9.3c-0.7,1.6-0.9,5-0.2,8.8c-9.5,0.2-18.5,4.7-24.2,12.4c-14.1-24.3-45.2-32.5-69.5-18.4
		c-1,0.6-1.9,1.1-2.8,1.8c-3.3-15.8-21-27.1-36.7-23.3v45.2l145-0.2c1,0.3,2,0.4,3.1,0.4L741,191l139.7,0.2v-45.3
		C864.9,142.1,847.2,153.4,843.9,169.2z"/>
	<g class="st7">
		<path class="st6" d="M843.9,169.2c-23.3-15.6-54.9-9.4-70.5,13.8c-0.6,0.9-1.2,1.8-1.8,2.8c-2.8-3.8-6.5-6.9-10.8-9
			c0.3-0.8,0.6-1.6,0.8-2.5c2.7-11.6-4.5-23.1-16.1-25.8c-3.2-0.7-6.6-0.7-9.8,0L726.2,13h-12.5v124.6c-7.7,1.2-13.1,10.3-10.4,17.7
			c-5.5,0.9-10.2,4.3-12.6,9.3c-0.7,1.6-0.9,5-0.2,8.8c-9.5,0.2-18.5,4.7-24.2,12.4c-14.1-24.3-45.2-32.5-69.5-18.4
			c-1,0.6-1.9,1.1-2.8,1.8c-3.3-15.8-21-27.1-36.7-23.3v45.2l145-0.2c1,0.3,2,0.4,3.1,0.4L741,191l139.7,0.2v-45.3
			C864.9,142.1,847.2,153.4,843.9,169.2z"/>
	</g>
</g>
<g id="freepik--Rocket--inject-308">
	<path class="st4" d="M706.4-29.4c-7.1,3.4-10.4,13.2-6.7,20.2c1.5,2.8,3.9,5.2,4.2,8.3c0.5,4.8-4,8.5-5.4,13
		c-1.5,5.7,1.8,11.5,7.4,13.2c2.4,0.6,5.4,0.5,7,2.5c2.1,2.5,0.6,6.5,2.4,9.2c1.6,2.4,5.4,2.6,7.8,0.9c2.4-1.6,3.8-4.4,4.7-7.2
		c1-2.8,1.7-5.7,3.3-8.1c1.9-2.6,4.6-4.4,6.8-6.8c5.3-5.6,7-14,5.8-21.6s-4.9-14.6-9.1-21.1"/>
	<g class="st8">
		<path class="st6" d="M706.4-29.4c-7.1,3.4-10.4,13.2-6.7,20.2c1.5,2.8,3.9,5.2,4.2,8.3c0.5,4.8-4,8.5-5.4,13
			c-1.5,5.7,1.8,11.5,7.4,13.2c2.4,0.6,5.4,0.5,7,2.5c2.1,2.5,0.6,6.5,2.4,9.2c1.6,2.4,5.4,2.6,7.8,0.9c2.4-1.6,3.8-4.4,4.7-7.2
			c1-2.8,1.7-5.7,3.3-8.1c1.9-2.6,4.6-4.4,6.8-6.8c5.3-5.6,7-14,5.8-21.6s-4.9-14.6-9.1-21.1"/>
	</g>
	<path class="st4" d="M712.7-25.4c-6.1,2.7-8.7,11.1-5.3,16.8c2.1,3.5,6.2,6.6,5.2,10.5c-0.7,2.7-3.5,4.3-4.3,6.9
		c-1.1,3.5,2.2,7.2,5.8,7.6c3.6,0.4,7.1-1.5,9.9-3.9c9.5-8.4,11.8-24.8,5.9-35.9"/>
	<path class="st4" d="M743.9-78.7c0,0,31.1,20.6,27.7,56.2L743-35.3L743.9-78.7z"/>
	<polygon class="st1" points="692.2,-36 699.3,-24.3 735.9,-24.3 743,-35.3 	"/>
	<path class="st4" d="M715.7-154.3c-14.5,1-25.7,13.2-25.4,27.7l1.9,91.2H743l1.7-91.3c0.3-15-11.7-27.4-26.7-27.7
		C717.3-154.3,716.5-154.3,715.7-154.3z"/>
	<g class="st5">
		<path class="st6" d="M715.7-154.3c-14.5,1-25.7,13.2-25.4,27.7l1.9,91.2H743l1.7-91.3c0.3-15-11.7-27.4-26.7-27.7
			C717.3-154.3,716.5-154.3,715.7-154.3z"/>
	</g>
	<path class="st4" d="M691.2-78.7c0,0-31.1,20.6-27.7,56.2l28.6-12.9L691.2-78.7z"/>
	<path class="st4" d="M690.6-129.6c10.8-9.4,44.5-9.2,53.6-1.5c-2.3-33.9-28.2-46.5-28.2-46.5C689.5-159.4,690.6-129.6,690.6-129.6z
		"/>
	<path class="st1" d="M716-177.7l0.3,0.3c0.2,0.2,0.5,0.5,0.9,0.8l1.4,1.3l0.9,0.9l0.9,1c0.7,0.7,1.4,1.5,2.2,2.5l2.5,3.1
		c0.4,0.6,0.8,1.2,1.3,1.8s0.9,1.2,1.3,1.9c0.8,1.4,1.8,2.8,2.5,4.4c1.8,3.5,3.2,7.1,4.2,10.9c0.5,2.1,1,4.2,1.2,6.4
		c0.2,1.1,0.2,2.3,0.4,3.4c0.1,1.2,0.1,2.3,0.1,3.5c0,9.4-0.1,19.8-0.2,30.7c-0.3,21.8-0.6,41.6-0.8,55.9
		c-0.1,7.1-0.2,12.9-0.3,16.9c0,2-0.1,3.5-0.1,4.7c0,0.5,0,0.9,0,1.2s0,0.4,0,0.4s0-0.1,0-0.4s0-0.7,0-1.2c0-1.1,0-2.6,0-4.7
		c0-4,0.1-9.8,0.2-16.9c0.2-14.3,0.4-34.1,0.7-55.9c0.1-10.9,0.3-21.3,0.3-30.7c0-1.2,0-2.3-0.1-3.5c-0.1-1.1-0.2-2.3-0.4-3.4
		c-0.3-2.2-0.7-4.3-1.2-6.4c-1-3.8-2.4-7.4-4.1-10.9c-0.8-1.6-1.8-3-2.6-4.4c-0.4-0.7-0.9-1.3-1.3-1.9c-0.4-0.6-0.8-1.2-1.3-1.8
		l-2.5-3.1c-0.8-0.9-1.6-1.7-2.2-2.5l-0.9-1.1l-0.9-0.9l-1.4-1.4l-0.8-0.8L716-177.7z"/>
	
		<ellipse transform="matrix(-0.9765 -0.2156 0.2156 -0.9765 1438.0665 -61.5658)" class="st3" cx="715.7" cy="-109.2" rx="12.5" ry="13.4"/>
	<path class="st1" d="M718.6-122.3c-0.1,0-0.1,0-0.2,0l-0.6-0.1l-0.4-0.1h-0.5h-0.6c-0.2,0-0.5,0-0.7,0c-0.6,0-1.1,0.1-1.7,0.2
		c-0.7,0.1-1.3,0.3-1.9,0.6c-1.5,0.6-2.9,1.5-4.1,2.6c-1.5,1.4-2.6,3-3.3,4.9c-0.2,0.5-0.4,1-0.5,1.6c-0.1,0.3-0.1,0.5-0.2,0.8
		l-0.1,0.8l-0.1,0.4v0.4c0,0.3,0,0.6-0.1,0.9c0,0.3,0,0.6,0,0.9v0.4l0,0.5c0.2,2.5,1.2,4.9,2.8,6.9c3.4,4.5,9.6,5.8,14.6,3.2
		c2.3-1.2,4.1-2.9,5.4-5.1l0.2-0.4l0.2-0.4l0.4-0.8l0.3-0.8l0.1-0.4l0.1-0.4l0.2-0.8c0.1-0.3,0.1-0.5,0.1-0.8
		c0.1-0.5,0.2-1.1,0.2-1.6c0.1-2-0.2-4-0.9-5.8c-0.9-2.2-2.3-4.1-4.1-5.5c-0.5-0.3-0.9-0.7-1.4-0.9c-0.2-0.1-0.4-0.2-0.6-0.3
		l-0.6-0.2l-0.5-0.2l-0.4-0.1l-0.6-0.2C718.7-122.3,718.7-122.3,718.6-122.3l0.3,0l0.6,0.1l0.4,0.1l0.5,0.2l0.6,0.2l0.7,0.3
		c0.5,0.3,1,0.6,1.5,0.9c0.5,0.4,1.1,0.9,1.5,1.3c1.2,1.2,2.1,2.6,2.7,4.2c0.8,1.9,1.1,3.9,1,5.9c0,0.6-0.1,1.1-0.2,1.7
		c-0.1,0.3-0.1,0.6-0.1,0.8s-0.1,0.6-0.2,0.8l-0.1,0.4l-0.1,0.4l-0.3,0.8l-0.4,0.8l-0.2,0.4l-0.2,0.4c-1.3,2.2-3.2,4.1-5.5,5.2
		c-5.1,2.7-11.4,1.3-14.9-3.3c-1.6-2-2.6-4.5-2.8-7.1v-0.5v-0.5c0-0.3,0-0.6,0-0.9c0-0.3,0-0.6,0.1-0.9v-0.4l0.1-0.4
		c0.1-0.3,0.1-0.6,0.1-0.8s0.1-0.5,0.2-0.8c0.1-0.5,0.3-1.1,0.5-1.6c0.7-1.9,1.9-3.6,3.4-5c1.2-1.1,2.6-2,4.2-2.6
		c0.6-0.2,1.3-0.4,2-0.6c0.6-0.1,1.1-0.2,1.7-0.2c0.3,0,0.5,0,0.7,0h0.6h0.5l0.4,0.1l0.6,0.1L718.6-122.3z"/>
	<path class="st1" d="M702.8-111.2c0,0.2-2.9,0.1-6.3,0.7c-3.5,0.6-6.1,1.7-6.2,1.5c0.5-0.4,1.1-0.7,1.7-0.8
		c2.9-1.1,5.9-1.6,8.9-1.6C701.6-111.5,702.2-111.4,702.8-111.2z"/>
	<path class="st1" d="M743.9-111.2c-0.8,0-1.5-0.1-2.3-0.2c-1.4-0.2-3.3-0.4-5.5-0.5c-2.1-0.2-4.1-0.2-5.5-0.2c-0.8,0-1.5,0-2.3-0.1
		c0.7-0.2,1.5-0.3,2.3-0.3c1.9-0.1,3.7-0.1,5.6,0.1c1.8,0.1,3.7,0.4,5.5,0.7C742.5-111.7,743.2-111.5,743.9-111.2z"/>
	<path class="st1" d="M744.2-59c-0.2,0-0.4,0-0.5,0l-1.5-0.1l-5.7-0.4c-4.8-0.3-11.4-0.7-18.6-0.7c-7.3,0-13.9,0.3-18.7,0.7
		l-5.6,0.4L692-59c-0.2,0-0.4,0-0.5,0c0.2-0.1,0.3-0.1,0.5-0.1l1.5-0.2c1.3-0.2,3.2-0.4,5.6-0.6c4.8-0.4,11.4-0.8,18.7-0.8
		s14,0.4,18.7,0.8c2.4,0.2,4.3,0.4,5.6,0.6l1.5,0.2C743.8-59.1,744-59.1,744.2-59z"/>
	<path class="st1" d="M704.2-98.1c0,0.1-0.3,0.1-0.5,0.5c-0.1,0.2-0.2,0.4-0.1,0.6c0.1,0.2,0.3,0.4,0.6,0.4c0.3,0,0.5-0.1,0.6-0.3
		c0.1-0.2,0.1-0.4,0-0.7c-0.2-0.4-0.5-0.5-0.4-0.5c0-0.1,0.4-0.1,0.8,0.4c0.2,0.3,0.2,0.7,0.1,1c-0.2,0.4-0.6,0.7-1.1,0.6
		c-0.6,0-1-0.5-1-1.1c0-0.2,0.1-0.5,0.3-0.6C703.8-98.4,704.2-98.2,704.2-98.1z"/>
	<path class="st1" d="M715.2-92.2c0,0.1-0.3,0.1-0.5,0.5c-0.1,0.2-0.2,0.4-0.1,0.6c0.1,0.2,0.3,0.4,0.6,0.4c0.3,0,0.5-0.1,0.6-0.3
		c0.1-0.2,0.1-0.4,0-0.6c-0.2-0.4-0.5-0.5-0.5-0.5c0-0.1,0.4-0.1,0.8,0.4c0.2,0.3,0.2,0.7,0.1,1c-0.2,0.4-0.6,0.7-1.1,0.6
		c-0.6,0-1-0.5-1-1.1c0-0.3,0.1-0.5,0.3-0.7C714.8-92.4,715.3-92.3,715.2-92.2z"/>
	<path class="st1" d="M727.5-97.3c0,0.1-0.3,0.1-0.5,0.5c-0.1,0.2-0.2,0.4-0.1,0.6c0.1,0.2,0.3,0.4,0.6,0.4c0.3,0,0.5-0.1,0.6-0.3
		c0.1-0.2,0.1-0.4,0-0.6c-0.2-0.4-0.5-0.5-0.5-0.5c0-0.1,0.4-0.1,0.8,0.4c0.2,0.3,0.3,0.7,0.1,1c-0.2,0.4-0.6,0.7-1.1,0.6
		c-0.5,0-0.9-0.3-1-0.8c-0.1-0.4,0-0.7,0.3-1C727.1-97.5,727.5-97.3,727.5-97.3z"/>
	<path class="st1" d="M731.4-106.4c0,0.1-0.3,0.1-0.5,0.5c-0.1,0.2-0.2,0.4-0.1,0.6c0.1,0.2,0.3,0.4,0.6,0.4c0.3,0,0.5-0.1,0.6-0.3
		c0.1-0.2,0.1-0.4,0-0.6c-0.2-0.4-0.5-0.5-0.5-0.5c0-0.1,0.4-0.1,0.8,0.4c0.2,0.3,0.2,0.7,0.1,1c-0.2,0.4-0.6,0.7-1.1,0.6
		c-0.5,0-0.9-0.3-1-0.8c-0.1-0.4,0-0.7,0.3-1C731-106.6,731.5-106.5,731.4-106.4z"/>
	<path class="st1" d="M700.1-107.3c0,0.1-0.3,0.1-0.5,0.5c-0.1,0.2-0.2,0.4-0.1,0.6c0.1,0.2,0.3,0.4,0.6,0.4c0.3,0,0.5-0.1,0.6-0.3
		c0.1-0.2,0.1-0.4,0-0.6c-0.2-0.4-0.5-0.5-0.4-0.5c0-0.1,0.4-0.1,0.8,0.4c0.2,0.3,0.2,0.7,0.1,1c-0.2,0.4-0.6,0.7-1.1,0.6
		c-0.5,0-0.9-0.3-1-0.8c-0.1-0.4,0-0.7,0.3-1C699.7-107.5,700.2-107.3,700.1-107.3z"/>
	<path class="st1" d="M727.4-119.8c0-0.1,0.3-0.1,0.5-0.5c0.1-0.2,0.2-0.4,0.1-0.6c-0.1-0.2-0.3-0.4-0.6-0.4c-0.3,0-0.5,0.1-0.6,0.3
		c-0.1,0.2-0.1,0.4,0,0.6c0.2,0.4,0.5,0.5,0.4,0.5c0,0.1-0.4,0.1-0.8-0.4c-0.2-0.3-0.2-0.7-0.1-1c0.2-0.4,0.6-0.7,1.1-0.6
		c0.6,0,1,0.5,1,1.1c0,0.3-0.1,0.5-0.3,0.7C727.8-119.6,727.4-119.8,727.4-119.8z"/>
	<path class="st1" d="M715.2-125.2c0-0.1,0.3-0.1,0.5-0.5c0.1-0.2,0.2-0.4,0.1-0.6c-0.1-0.2-0.3-0.4-0.6-0.4c-0.3,0-0.5,0.1-0.6,0.3
		c-0.1,0.2-0.1,0.4,0,0.6c0.2,0.4,0.5,0.5,0.5,0.5c0,0.1-0.4,0.1-0.8-0.4c-0.3-0.5-0.2-1.1,0.2-1.4c0.2-0.2,0.5-0.2,0.8-0.2
		c0.5,0,0.9,0.3,1,0.8c0.1,0.4,0,0.7-0.3,1C715.6-125,715.2-125.2,715.2-125.2z"/>
	<path class="st1" d="M703.1-119.8c0-0.1,0.3-0.1,0.5-0.5c0.1-0.2,0.2-0.4,0.1-0.6c-0.1-0.2-0.3-0.4-0.6-0.4c-0.3,0-0.5,0.1-0.6,0.3
		c-0.1,0.2-0.1,0.4,0,0.6c0.2,0.4,0.5,0.5,0.5,0.5c0,0.1-0.4,0.1-0.8-0.4c-0.3-0.5-0.2-1.1,0.2-1.4c0.2-0.2,0.5-0.2,0.8-0.2
		c0.5,0,0.9,0.3,1,0.8c0.1,0.4,0,0.7-0.3,1C703.5-119.6,703.1-119.8,703.1-119.8z"/>
	<path class="st4" d="M713.7-74.9l1.1,54.5c0,1.6,1.3,2.8,2.9,2.8l0,0c1.5,0,2.8-1.3,2.8-2.8c0.1-9.8,0.5-42.8,0.5-54.5
		c0-2-1.6-3.7-3.6-3.7c-0.2,0-0.4,0-0.6,0l0,0C715-78.3,713.6-76.8,713.7-74.9z"/>
	<g class="st8">
		<path d="M713.7-74.9l1.1,54.5c0,1.6,1.3,2.8,2.9,2.8l0,0c1.5,0,2.8-1.3,2.8-2.8c0.1-9.8,0.5-42.8,0.5-54.5c0-2-1.6-3.7-3.6-3.7
			c-0.2,0-0.4,0-0.6,0l0,0C715-78.3,713.6-76.8,713.7-74.9z"/>
	</g>
	<path class="st6" d="M715.4-174.6c0.2,0.2-1.6,1.9-4.3,5c-1.3,1.5-2.8,3.4-4.3,5.6c-1.7,2.4-3.2,4.8-4.6,7.4
		c-1.4,2.6-2.6,5.2-3.6,7.9c-0.9,2.5-1.7,4.8-2.3,6.7c-1.1,3.9-1.6,6.4-1.9,6.3c-0.3,0-0.1-2.6,0.8-6.6c0.5-2.4,1.2-4.7,2-6.9
		c1-2.8,2.2-5.5,3.6-8.1c1.4-2.6,3-5.1,4.8-7.4c1.4-1.9,3-3.8,4.7-5.5C713.2-173.3,715.2-174.7,715.4-174.6z"/>
	<path class="st6" d="M690.1-73.3c0.1,0.2-2.4,1.9-6,5.2l-1.4,1.3c-0.5,0.5-0.9,1-1.4,1.5c-1,1-2,2.2-3,3.5
		c-2.2,2.8-4.1,5.7-5.7,8.8c-1.6,3.1-3,6.3-4,9.7c-0.4,1.5-0.9,3-1.2,4.4c-0.1,0.7-0.3,1.4-0.4,2c-0.1,0.7-0.2,1.3-0.3,1.9
		c-0.7,4.9-0.7,7.9-0.9,7.9c-0.1,0-0.2-0.8-0.3-2.2c0-0.4,0-0.7-0.1-1.2c0-0.4,0-0.9,0-1.4c0-1.1,0.1-2.2,0.2-3.4
		c0.1-0.6,0.1-1.3,0.2-2s0.2-1.4,0.4-2.1c0.2-1.5,0.7-3,1.1-4.6c2-6.9,5.4-13.4,10-18.9c1-1.2,2.1-2.4,3.2-3.5c0.5-0.5,1-1,1.5-1.5
		l1.5-1.3c0.9-0.7,1.7-1.4,2.7-2.1c0.4-0.3,0.8-0.6,1.1-0.8l1-0.6C689.4-73,690-73.3,690.1-73.3z"/>
	<path class="st4" d="M650,104.4c-3.4-1.9-4.6-6.2-2.7-9.6c1-1.8,2.8-3.1,4.8-3.4c2.6-0.5,5.7,0.2,7.3-1.9c1.5-1.9,0.4-4.3,1-7.3
		c0.6-3,3.2-4.4,6-4.3c2.9,0.2,5.5,1.8,6.9,4.3c1.5,2.8,2.2,5.9,2,9c-0.8,6.4-4.2,9.7-8.5,12.5C662.6,106.4,654.5,107,650,104.4"/>
	<g class="st5">
		<path class="st6" d="M650,104.4c-3.4-1.9-4.6-6.2-2.7-9.6c1-1.8,2.8-3.1,4.8-3.4c2.6-0.5,5.7,0.2,7.3-1.9c1.5-1.9,0.4-4.3,1-7.3
			c0.6-3,3.2-4.4,6-4.3c2.9,0.2,5.5,1.8,6.9,4.3c1.5,2.8,2.2,5.9,2,9c-0.8,6.4-4.2,9.7-8.5,12.5C662.6,106.4,654.5,107,650,104.4"/>
	</g>
	<path class="st4" d="M754.5,52.8c2.8-5.4,9.4-7.5,14.8-4.6c2.8,1.5,4.9,4.1,5.6,7.2c0.9,4,0,9,3.3,11.4c3,2.2,6.8,0.3,11.5,1.1
		c4.7,0.8,7,4.7,7.1,9.1c0.1,4.4-2.6,8.6-6.3,10.9c-4.2,2.5-9.1,3.8-14,3.6c-10.1-0.8-15.4-6-20-12.5C752,72.6,750.6,60,754.5,52.8"
		/>
	<g class="st5">
		<path class="st6" d="M754.5,52.8c2.8-5.4,9.4-7.5,14.8-4.6c2.8,1.5,4.9,4.1,5.6,7.2c0.9,4,0,9,3.3,11.4c3,2.2,6.8,0.3,11.5,1.1
			c4.7,0.8,7,4.7,7.1,9.1c0.1,4.4-2.6,8.6-6.3,10.9c-4.2,2.5-9.1,3.8-14,3.6c-10.1-0.8-15.4-6-20-12.5C752,72.6,750.6,60,754.5,52.8
			"/>
	</g>
	<path class="st4" d="M679.2,39.6c-2.3,1.2-3.7,3.5-3.7,6.1c0.1,3.6,3.1,6.4,6.7,6.3c3.6-0.1,6.4-3.1,6.3-6.7
		c-0.1-3.6-3.1-6.4-6.7-6.3C680.9,39,680.1,39.2,679.2,39.6"/>
	<g class="st5">
		<path class="st6" d="M679.2,39.6c-2.3,1.2-3.7,3.5-3.7,6.1c0.1,3.6,3.1,6.4,6.7,6.3c3.6-0.1,6.4-3.1,6.3-6.7
			c-0.1-3.6-3.1-6.4-6.7-6.3C680.9,39,680.1,39.2,679.2,39.6"/>
	</g>
	<path class="st4" d="M778.2,117.7c-1.1,0.6-1.9,1.8-1.9,3.1c0.1,1.8,1.6,3.2,3.4,3.2c1.8-0.1,3.2-1.6,3.2-3.4
		c-0.1-1.8-1.6-3.2-3.4-3.2C779.1,117.4,778.6,117.5,778.2,117.7"/>
	<g class="st5">
		<path class="st6" d="M778.2,117.7c-1.1,0.6-1.9,1.8-1.9,3.1c0.1,1.8,1.6,3.2,3.4,3.2c1.8-0.1,3.2-1.6,3.2-3.4
			c-0.1-1.8-1.6-3.2-3.4-3.2C779.1,117.4,778.6,117.5,778.2,117.7"/>
	</g>
</g>
<g id="freepik--Button--inject-308">
	<path class="st4" d="M694.4,92.2h57.9c10.1,0,18.4,8.2,18.4,18.4v2.6c0,10.1-8.2,18.4-18.4,18.4h-57.9c-10.1,0-18.4-8.2-18.4-18.4
		v-2.6C676.1,100.4,684.3,92.2,694.4,92.2z"/>
	<path class="st6" d="M704.3,114.5l0.6-1.4c0.8,0.5,1.7,0.8,2.7,0.9c1.1,0,1.6-0.4,1.6-0.9c0-1.5-4.7-0.5-4.7-3.5
		c0-1.4,1.1-2.5,3.4-2.5c1,0,1.9,0.2,2.8,0.7l-0.6,1.4c-0.7-0.4-1.5-0.6-2.3-0.6c-1.1,0-1.6,0.4-1.6,0.9c0,1.5,4.7,0.5,4.7,3.5
		c0,1.4-1.1,2.5-3.5,2.5C706.5,115.4,705.3,115.1,704.3,114.5z"/>
	<path class="st6" d="M714,108.6h-2.6v-1.5h7.1v1.5h-2.6v6.6H714L714,108.6z"/>
	<path class="st6" d="M724.5,113.5h-3.8l-0.7,1.8H718l3.6-8.2h1.9l3.6,8.2h-2L724.5,113.5z M723.9,112l-1.3-3.1l-1.3,3.1H723.9z"/>
	<path class="st6" d="M733.2,115.3l-1.6-2.3h-1.7v2.3h-1.9v-8.2h3.5c2.2,0,3.5,1.1,3.5,3c0,1.1-0.6,2.2-1.7,2.6l1.9,2.6H733.2z
		 M731.5,108.6h-1.5v2.8h1.5c1.2,0,1.7-0.5,1.7-1.4C733.2,109.2,732.6,108.6,731.5,108.6L731.5,108.6z"/>
	<path class="st6" d="M738.2,108.6h-2.6v-1.5h7.1v1.5h-2.6v6.6h-1.9L738.2,108.6z"/>
</g>
<g id="freepik--Character--inject-308">
	<path class="st4" d="M866.4,205.4l11,3.9l-0.1,10.6c-5.3,1.5-6,4.2-6,4.2l11-0.3l9.6-19.5l-7.6-5l-14.2-6.2"/>
	<g class="st7">
		<polygon class="st6" points="891.9,204.3 882.3,223.7 871.3,224 872.5,222.3 881.5,221.6 890.3,203.2 		"/>
	</g>
	<path class="st1" d="M877.3,215c0.1,0.1,0.7-0.3,1.6-0.3c0.9,0,1.5,0.3,1.6,0.2c0.1-0.1-0.5-0.7-1.6-0.7
		C877.8,214.3,877.2,215,877.3,215z"/>
	<path class="st1" d="M877.4,212.4c0.1,0.1,0.6-0.6,1.5-0.8s1.6,0.2,1.6,0.1c0.1-0.1-0.1-0.2-0.4-0.4c-0.9-0.4-1.9-0.2-2.5,0.6
		C877.4,212.2,877.4,212.3,877.4,212.4z"/>
	<path class="st1" d="M877.3,209c0.1,0.1,0.5-0.6,1.2-0.9c0.8-0.3,1.5,0,1.5-0.2s-0.1-0.2-0.4-0.3c-0.8-0.3-1.8,0.1-2.2,0.8
		C877.2,208.8,877.2,209,877.3,209z"/>
	<path class="st1" d="M876.4,209c0.1,0,0.1-0.7,0.4-1.5s0.9-1.2,0.8-1.3c-0.1-0.1-0.9,0.2-1.2,1.1S876.3,209.1,876.4,209z"/>
	<path class="st1" d="M875.1,207.8c0.2-0.5,0.3-1,0.3-1.5c0-0.5,0.1-1.1,0.1-1.6c0-0.3,0-0.7,0-1c-0.1-0.2-0.2-0.4-0.4-0.5
		c-0.2-0.1-0.5-0.1-0.8,0c-0.3,0.3-0.5,0.6-0.6,1c-0.1,0.3-0.2,0.7-0.2,1c0,0.6,0.1,1.1,0.3,1.7c0.4,0.9,0.9,1.2,0.9,1.2
		c-0.2-0.4-0.5-0.9-0.7-1.3c-0.2-0.5-0.2-1-0.2-1.5c0-0.3,0.1-0.6,0.2-0.9c0.1-0.3,0.2-0.5,0.4-0.7c0.1-0.1,0.2-0.1,0.2,0
		c0.1,0.1,0.2,0.1,0.2,0.3c0,0.3,0,0.6,0,0.9c0,0.5,0,1.1,0,1.6C875,206.8,875,207.3,875.1,207.8z"/>
	<path class="st1" d="M875,208.2c0,0-0.3-0.5-1.1-0.8c-1.2-0.4-2.4,0.1-3.1,1.1c0,0.1,0,0.3,0,0.4c0.1,0.1,0.2,0.2,0.3,0.2
		c0.2,0.1,0.3,0.1,0.5,0.1c0.3,0,0.6,0,0.9,0c0.5,0,1-0.2,1.5-0.4c0.8-0.3,1.2-0.7,1.1-0.8s-0.5,0.2-1.2,0.5
		c-0.4,0.1-0.9,0.2-1.4,0.2c-0.3,0-0.5,0-0.8,0c-0.1,0-0.3,0-0.4-0.1c-0.1-0.1-0.1,0-0.1-0.1c0.1-0.1,0.1-0.2,0.2-0.3
		c0.1-0.1,0.2-0.2,0.3-0.3c0.2-0.2,0.5-0.3,0.7-0.3c0.4-0.1,0.9-0.2,1.3-0.1C874.2,207.9,874.6,208.1,875,208.2z"/>
	<g class="st7">
		<path class="st6" d="M883.1,204.1c0,0.7,0.6,1.3,1.3,1.3s1.3-0.6,1.3-1.3c0-0.7-0.6-1.3-1.3-1.3
			C883.7,202.8,883.1,203.4,883.1,204.1z"/>
	</g>
	<path class="st4" d="M810,201l0.1,14.4c0,0-14.6,5-14.8,7.7l27.9,0.7l0.7-22.5L810,201z"/>
	<g class="st7">
		<path class="st6" d="M818.8,214.4c0.6,0.2,0.9,0.8,0.8,1.3c-0.2,0.6-0.7,0.9-1.3,0.8c-0.6-0.2-0.9-0.8-0.8-1.4
			c0.2-0.6,0.9-0.9,1.5-0.6"/>
	</g>
	<g class="st7">
		<path class="st6" d="M823.3,223.8v-2.3l-26.8,0.2c0,0-1.3,0.5-1.1,1.4L823.3,223.8z"/>
	</g>
	<path class="st1" d="M809.7,215.2c0,0.1,0.7,0.2,1.3,0.7c0.7,0.5,1,1,1.1,1c0.1-0.1-0.1-0.8-0.9-1.4
		C810.5,215,809.7,215.1,809.7,215.2z"/>
	<path class="st1" d="M806.7,216.4c0,0.1,0.5,0.4,1,0.9s0.6,1.2,0.7,1.2c0.1,0,0.2-0.8-0.3-1.5C807.5,216.3,806.7,216.3,806.7,216.4
		z"/>
	<path class="st1" d="M805,219.8c0.1,0,0.3-0.6,0-1.4c-0.3-0.8-0.9-1.1-1-0.9c-0.1,0.1,0.3,0.5,0.6,1.1
		C804.8,219.3,804.8,219.8,805,219.8z"/>
	<path class="st1" d="M810,212c0.1,0.1,0.7,0,1.5,0s1.4,0.3,1.4,0.2s-0.5-0.6-1.4-0.7C810.6,211.4,809.9,211.9,810,212z"/>
	<g class="st8">
		<polygon points="810,203.8 810,206.4 823.8,206.6 823.9,204.3 		"/>
	</g>
	<path class="st1" d="M810,209c0.5,0.1,0.9,0.1,1.4,0c0.5-0.1,1-0.2,1.5-0.4c0.3-0.1,0.6-0.3,0.8-0.4c0.2-0.1,0.3-0.2,0.4-0.3
		c0.2-0.2,0.2-0.5,0.1-0.7c-0.1-0.2-0.4-0.3-0.6-0.3c-0.2,0-0.4,0-0.5,0.1c-0.3,0.1-0.6,0.2-0.9,0.3c-0.5,0.2-0.9,0.5-1.3,0.8
		C810.3,208.6,810,209.1,810,209c0.1,0.1,0.4-0.3,1.1-0.8c0.4-0.3,0.8-0.5,1.3-0.7c0.3-0.1,0.5-0.2,0.8-0.2c0.3-0.1,0.5-0.1,0.6,0.1
		c0.1,0.1,0,0.1,0,0.1c-0.1,0.1-0.2,0.2-0.3,0.2c-0.3,0.2-0.5,0.3-0.7,0.4c-0.4,0.2-0.9,0.4-1.4,0.5
		C810.9,208.8,810.5,208.9,810,209z"/>
	<path class="st1" d="M810.2,209.3c0.3-0.4,0.4-0.9,0.4-1.3c0-0.5,0-1-0.1-1.5c-0.1-0.3-0.2-0.6-0.3-0.9c-0.1-0.4-0.5-0.7-0.9-0.7
		c-0.3,0-0.5,0.1-0.6,0.4c-0.1,0.2-0.1,0.3-0.2,0.5c0,0.3,0,0.6,0,0.9c0.1,0.5,0.3,1,0.6,1.5c0.5,0.7,1.1,0.9,1.1,0.9
		s-0.4-0.3-0.8-1.1c-0.2-0.4-0.4-0.9-0.4-1.3c0-0.3,0-0.5,0-0.8c0.1-0.3,0.2-0.5,0.3-0.5c0.1,0,0.4,0.2,0.5,0.5
		c0.1,0.2,0.2,0.5,0.3,0.8c0.1,0.5,0.2,0.9,0.2,1.4C810.3,208.7,810.1,209.2,810.2,209.3z"/>
	<polygon class="st1" points="875,193.6 842.8,181.7 876.6,176.9 878.3,160.4 815,165.9 806.1,178.8 808.5,195 870.1,210.6 	"/>
	<path class="st1" d="M806.7,205.2l-3.1-58.9c0.2-5.7,3.3-11,8.3-13.9l0,0c4.1-2.4,9-2.9,13.5-1.4l41.1,13.7l22.5,5.8
		c0,0,3.8,9.5,1.6,16.8c-2.2,7.2-10.1,12-17,9.9c-8.6-2.6-48.2-19.6-48.2-19.6v47.9L806.7,205.2z"/>
	<path class="st2" d="M873,177.4l-0.2-0.1l-0.7-0.3l-2.7-1.1l-9.9-4l-32.5-13.4l-1.7-0.7l0.3-0.2c0,13.3,0,25.3-0.1,34
		c0,4.3,0,7.8-0.1,10.2c0,1.2,0,2.1,0,2.8c0,0.3,0,0.5,0,0.7c0,0.1,0,0.2,0,0.3c0-0.1,0-0.2,0-0.3v-0.7c0-0.7,0-1.6,0-2.8
		c0-2.4,0-5.9-0.1-10.2c0-8.7,0-20.7-0.1-34v-0.3l0.3,0.1l1.7,0.7l32.5,13.5l9.7,4.1l2.7,1.1l0.7,0.3L873,177.4z"/>
	<path class="st2" d="M835.1,177.5c3,0.5,5.7,2,7.7,4.3c-0.1,0.1-1.5-1.3-3.7-2.5S835,177.6,835.1,177.5z"/>
	<path class="st2" d="M821.8,149.7c0.9,1.2,1.6,2.6,2.2,4c0.7,1.4,1.2,2.8,1.5,4.3c-0.1,0-0.9-1.9-1.9-4.1S821.7,149.8,821.8,149.7z
		"/>
	<polygon class="st9" points="821.9,123.7 814.6,122.4 807,130.2 808.4,135.1 817.3,131.8 	"/>
	<path class="st9" d="M754.8,106l8.3-1.9l13.3,2.1l-0.5,8.5c0,0-4.1,0.6-5.6,0.1c-0.9-0.3-1.8-0.3-2.7-0.1c0,0,0.8,1.7-0.6,1.9
		c-1.4,0.3-3.7,0.9-4.1-1.1c-0.7,0-1.4-0.4-1.6-1.1c0,0-1.1,0.4-1.6-1.5c-0.5-1.9-0.2-4.7,3.5-5.6c0.2,0,0.3-0.5-0.1-0.5l-5.9,1.1
		C757.2,107.9,753.3,108.1,754.8,106z"/>
	<path class="st10" d="M761.8,111.9c0.5-0.1,0.9-0.2,1.4-0.3c0.5-0.1,1-0.1,1.6-0.1c0.4,0,0.7,0.2,0.9,0.4c0.2,0.3,0.3,0.8,0.1,1.1
		c-0.4,0.6-1,0.9-1.7,1c-0.5,0.1-1,0.3-1.5,0.3c-0.5,0.1-1,0.1-1.4,0c0.5-0.1,0.9-0.2,1.4-0.3c0.4-0.1,0.9-0.2,1.5-0.4
		c0.3-0.1,0.6-0.2,0.8-0.3c0.3-0.1,0.5-0.3,0.6-0.6c0.1-0.2,0.1-0.5,0-0.8c-0.2-0.2-0.4-0.3-0.7-0.3c-0.5,0-1.1,0.1-1.5,0.1
		C762.8,111.9,762.3,111.9,761.8,111.9z"/>
	<path class="st10" d="M763.2,110.1c0,0.1-0.4,0.3-0.7,0.8s-0.4,1-0.5,1c-0.1,0-0.2-0.6,0.2-1.2C762.6,110.1,763.2,110,763.2,110.1z
		"/>
	<path class="st10" d="M765.5,113.1c0,0,0.1,0,0.2,0s0.3,0.3,0.4,0.4c0.2,0.3,0.2,0.6,0.1,0.9c-0.1,0.4-0.5,0.7-0.9,0.7
		c-0.6,0.2-1.2,0.3-1.8,0.4c-0.5,0-0.8,0-0.8,0s0.3-0.1,0.7-0.2c0.4-0.1,1.1-0.3,1.8-0.5c0.3,0,0.5-0.2,0.7-0.5
		c0.1-0.2,0.1-0.5,0-0.7c-0.1-0.2-0.1-0.4-0.2-0.5C765.6,113.1,765.5,113.1,765.5,113.1z"/>
	<path class="st10" d="M766,114.5c0,0,0.1-0.2,0.4-0.2c0.3,0,0.7,0.1,0.9,0.2c0.3,0.2,0.5,0.5,0.5,0.9c0,0.2,0,0.4-0.1,0.4
		c-0.1,0-0.1-0.1-0.2-0.3c-0.1-0.2-0.2-0.5-0.4-0.6c-0.2-0.1-0.5-0.2-0.7-0.3C766.2,114.5,766.1,114.6,766,114.5z"/>
	<path class="st9" d="M770.2,107.9l-3.7,1.5l-3.5,2.5c0,0,0,0.9,2,0.5c1.2-0.2,2.4-0.7,3.5-1.4c0,0,2.6,1.6,4.9,1.3"/>
	<path class="st10" d="M773.3,112.3c0,0-0.1,0-0.4,0.1c-0.4,0-0.7,0-1.1,0c-1.3-0.2-2.5-0.6-3.6-1.2h0.2c-1.3,0.9-2.8,1.4-4.4,1.5
		c-0.3,0-0.5,0-0.8-0.1c-0.3-0.1-0.5-0.4-0.6-0.7v-0.1l0.1-0.1l3.5-2.5l0,0c1.1-0.4,2.1-0.8,2.7-1c0.3-0.1,0.7-0.3,1-0.3
		c-0.3,0.2-0.6,0.4-1,0.5c-0.6,0.3-1.6,0.7-2.7,1.1l0,0l-3.5,2.5l0.1-0.1c0,0.1,0.2,0.3,0.3,0.3c0.2,0.1,0.4,0.1,0.7,0.1
		c1.5-0.1,2.9-0.6,4.2-1.4l0.1-0.1h0.1c1,0.7,2.2,1.1,3.4,1.3C772.3,112.3,772.8,112.3,773.3,112.3z"/>
	<path class="st10" d="M764.7,107.7c0,0.1-0.4,0.1-0.9-0.2c-0.4-0.3-0.6-0.6-0.6-0.7c0.1-0.1,0.4,0.2,0.7,0.4
		C764.4,107.5,764.8,107.7,764.7,107.7z"/>
	<path class="st4" d="M775.6,116.9l31.5,4.6c3.1,1,6.5,0.7,9.4-0.8l28.1-14.4l-8.4-18.5l0,0c-1.1,0.4-2.1,0.8-3.2,1.3L810,105.7
		l-33.5-1.2L775.6,116.9z"/>
	<polygon class="st9" points="888.4,150.4 886.4,146.8 864.9,141.5 867.5,145.8 	"/>
	<path class="st4" d="M836.2,87.8c0,0.7-3.2,24.1-3.2,28.9s9.1,9.9,9.1,9.9l10,21.2h35.6l-12.2-22.8l-5.5-18.3
		c-2.1-6.9-1.9-10.5-7-15.6l-10-6.7L836.2,87.8z"/>
	<path class="st4" d="M846.6,106.2l6,25.1l-30.1-8.5l-5.1,9.1l39.2,17.9c4.8,2.2,10.6,0.6,13.6-3.7l0,0c1.8-2.6,2.4-5.9,1.6-9.1
		l-8.8-34.3c-1.1-4.5-5.7-7.2-10.2-6.1c-0.2,0.1-0.4,0.1-0.6,0.2l0,0C848.2,98.1,845.9,102.1,846.6,106.2z"/>
	<path class="st1" d="M842.8,127.7c-0.3-0.5-0.6-0.9-0.9-1.3c-0.2-0.1-0.5-0.3-0.9-0.5c-1.2-0.6-2.3-1.4-3.3-2.2
		c-1.6-1.2-2.9-2.7-3.9-4.4c-0.9-2.1-0.9-4.7-0.5-7.2c0.4-2.5,0.9-4.9,1.2-7.1c0.3-2.2,0.6-4.2,0.7-5.8c0.1-1.7,0.1-3,0.1-3.9
		s0-1.5,0-1.5c0,0.1,0.1,0.2,0.1,0.4c0,0.2,0.1,0.6,0.1,1.1c0.1,1.3,0.1,2.6,0,4c-0.1,1.7-0.3,3.7-0.6,5.8c-0.3,2.2-0.8,4.6-1.2,7.1
		c-0.4,2.5-0.4,5,0.5,7c0.9,1.7,2.2,3.2,3.7,4.4c1,0.8,2.1,1.6,3.2,2.3C841.7,126.3,842.3,127,842.8,127.7z"/>
	<path class="st1" d="M854.8,86c-0.2,0.2-0.3,0.4-0.5,0.6c-0.4,0.4-0.9,0.9-1.6,1.5c-1.4,1.3-3.3,3-5.6,4.8s-4.3,3.3-5.9,4.4
		c-0.8,0.5-1.4,0.9-1.9,1.2c-0.2,0.2-0.5,0.3-0.7,0.4c0.2-0.2,0.4-0.4,0.6-0.5l1.8-1.3c1.5-1.1,3.6-2.7,5.8-4.5
		c2.2-1.8,4.2-3.5,5.6-4.7l1.7-1.5C854.3,86.3,854.5,86.1,854.8,86z"/>
	<path class="st1" d="M846.6,106.2c0.1,0.2,0.1,0.3,0.1,0.5c0.1,0.3,0.2,0.8,0.4,1.4c0.3,1.3,0.8,3,1.3,5.2
		c1.1,4.5,2.6,10.7,4.3,17.9l0.1,0.3l-0.3-0.1l-7.7-2.1l-22.4-6.4l0.2-0.1l-3.8,6.6l-1.1,1.8l-0.3,0.5c-0.1,0.1-0.1,0.2-0.1,0.2
		c0-0.1,0-0.1,0.1-0.2l0.3-0.5l1-1.9l3.7-6.7l0.1-0.1h0.1l22.5,6.3l7.7,2.2l-0.2,0.2c-1.7-7.2-3.2-13.5-4.2-17.9
		c-0.5-2.2-0.9-4-1.2-5.3c-0.1-0.6-0.2-1.1-0.3-1.4C846.7,106.5,846.6,106.3,846.6,106.2z"/>
	<path class="st1" d="M863.1,104.6c0.1,0.1,0.1,0.3,0.1,0.4c0.1,0.3,0.2,0.7,0.4,1.2l1.2,4.7c1,3.9,2.4,9.3,3.9,15.3
		c0.7,3,1.5,5.8,2.1,8.4c0.6,2.3,0.8,4.7,0.6,7.1c-0.2,1.6-0.8,3.1-1.7,4.5c-0.3,0.5-0.7,0.9-1.2,1.3c0.4-0.4,0.8-0.9,1.1-1.4
		c0.9-1.3,1.4-2.9,1.5-4.4c0.2-2.3,0-4.7-0.7-7c-0.7-2.6-1.4-5.4-2.1-8.4l-3.7-15.3l-1.1-4.7l-0.3-1.3
		C863.2,105,863.1,104.8,863.1,104.6z"/>
	<g class="st8">
		<path d="M868.6,147.8c4.4,0.4,7-2.1,7.4-5.6c0.1-1.9-0.2-3.8-1-5.6c-2.7-7.9-5.4-15.9-9.7-23.1c1.6,7.2,3.7,14.1,5.3,21.3
			c0.5,2,0.7,4.1,0.7,6.1C871.2,143.4,870.2,145.8,868.6,147.8"/>
	</g>
	<path class="st3" d="M832.4,111.6c-0.7-0.6-1.3-1.2-1.8-2c-1.3-1.7-2.4-3.5-3.3-5.5c-0.9-1.9-1.6-4-2-6.1c-0.2-0.9-0.3-1.7-0.3-2.6
		c0.3,0.8,0.5,1.7,0.7,2.6c0.5,2,1.2,4,2.1,6c0.9,1.9,1.9,3.7,3.1,5.5C831.8,110.8,832.4,111.6,832.4,111.6z"/>
	<path class="st3" d="M823.7,116.8c-0.5-0.6-1-1.3-1.4-2c-0.8-1.3-1.9-3.1-3-5.1c-1.1-2-2-3.9-2.7-5.3c-0.4-0.7-0.7-1.5-0.9-2.3
		c0.5,0.7,0.9,1.4,1.2,2.1l2.8,5.2c1.1,2,2,3.7,2.9,5.2C823,115.3,823.4,116,823.7,116.8z"/>
	<path class="st3" d="M811.9,121.4c-0.6-2.4-1.1-4.9-1.5-7.4c-0.5-2.5-0.8-5-1-7.5c0.6,2.4,1.1,4.9,1.5,7.4
		C811.4,116.4,811.7,118.9,811.9,121.4z"/>
	<path class="st3" d="M801.3,120.7c-0.2-0.7-0.3-1.4-0.2-2.1c-0.1-1.3-0.1-3.1-0.1-5.2s0.2-3.8,0.3-5.1c0-0.7,0.1-1.4,0.3-2.1
		c0.1,0.7,0.1,1.4,0,2.1c-0.1,1.3-0.1,3.1-0.2,5.1c-0.1,2-0.1,3.8-0.1,5.1C801.4,119.3,801.4,120,801.3,120.7z"/>
	<path class="st3" d="M790.7,105.3c0.2,0.6,0.3,1.3,0.3,2c0.1,1.2,0.1,2.9,0.1,4.8c0,1.9-0.2,3.6-0.3,4.8c0,0.7-0.1,1.3-0.3,2
		c-0.1,0,0.1-3,0.1-6.8C790.6,108.3,790.5,105.3,790.7,105.3z"/>
	<path class="st3" d="M782,106.4c0.1,1.9,0,3.8-0.3,5.7c-0.1,1.9-0.3,3.8-0.8,5.6C781,113.9,781.3,110.1,782,106.4z"/>
	<path class="st3" d="M834.4,97.8c-0.1,0-0.7-1.5-1.6-3.3c-0.9-1.8-1.9-3.1-1.8-3.2C832.8,93.1,834,95.3,834.4,97.8L834.4,97.8z"/>
	<path class="st3" d="M850.8,123.1c-0.2,0.1-0.5,0.1-0.7,0.1c-0.7,0-1.3,0-2,0c-2.2-0.2-4.4-0.7-6.4-1.4c-2.1-0.8-4-1.8-5.8-3.1
		c-0.5-0.4-1.1-0.8-1.5-1.3c-0.3-0.3-0.5-0.5-0.5-0.5c0,0,0.8,0.6,2.2,1.5c3.6,2.4,7.8,4,12.1,4.5C849.7,123,850.8,123,850.8,123.1z
		"/>
	<path class="st3" d="M847.4,111.2c-0.7,0-1.3,0-1.9-0.2c-1.5-0.3-3.1-0.7-4.6-1.2c-1.5-0.5-2.9-1.1-4.3-1.9c-0.6-0.3-1.2-0.6-1.7-1
		c0.1-0.1,2.7,1.2,6.2,2.4C844.5,110.5,847.4,111.1,847.4,111.2z"/>
	<path class="st3" d="M845.4,102.7c-3.4,0.2-6.7-1.1-9-3.6C839,101,842.1,102.3,845.4,102.7z"/>
	<path class="st3" d="M859.4,96.6c0,0.1-0.8-0.4-2.1-0.8c-1.7-0.5-3.6-0.4-5.2,0.2c-1.7,0.6-3.1,1.8-4.1,3.3c-0.8,1.1-1,2-1.1,2
		c0.1-0.8,0.3-1.5,0.8-2.2c2-3.4,6-4.9,9.7-3.6C858.1,95.7,858.8,96.1,859.4,96.6z"/>
	<path class="st3" d="M861,108c-0.5,0.4-1,0.7-1.6,0.9c-2.7,1.2-5.6,1.7-8.5,1.7c-0.6,0-1.2,0-1.8-0.2c0-0.1,2.8,0,6.1-0.7
		C858.4,109.1,860.9,107.9,861,108z"/>
	<path class="st3" d="M865.8,122.4c-2.1,0.5-4.3,0.7-6.5,0.9c-2.2,0.3-4.4,0.4-6.6,0.4c2.1-0.5,4.3-0.8,6.5-0.9
		C861.4,122.5,863.6,122.3,865.8,122.4z"/>
	<path class="st3" d="M870,142.3c-0.3,0-0.5-0.1-0.7-0.1c-0.7-0.2-1.3-0.4-1.9-0.7c-2.1-0.8-4.1-1.9-6-3.2c-1.9-1.3-3.7-2.6-5.4-4.1
		c-0.8-0.6-1.4-1.2-2.1-1.9c0.8,0.5,1.5,1,2.2,1.6c1.4,1,3.3,2.5,5.5,3.9c1.9,1.2,3.8,2.3,5.9,3.3C869,141.8,870,142.2,870,142.3z"
		/>
	<path class="st3" d="M847.4,145.3c-0.2-0.7-0.2-1.4-0.1-2.1c0.1-3.4,0.9-6.8,2.4-9.9c0.3-0.7,0.6-1.3,1.1-1.8
		c-0.9,2.2-1.7,4.4-2.4,6.7C847.9,140.5,847.6,142.9,847.4,145.3z"/>
	<path class="st3" d="M836.1,139.2c-0.4-3.9,0.8-7.8,3.3-10.8c-0.9,1.7-1.6,3.4-2.3,5.2C836.6,135.4,836.3,137.3,836.1,139.2z"/>
	<path class="st3" d="M829.7,124.3c-1.3,1.6-2.5,3.2-3.5,5c-0.8,1.8-1.5,3.8-2,5.8c-0.1-0.6,0-1.3,0.1-1.9c0.3-1.4,0.8-2.8,1.4-4.2
		c0.7-1.3,1.5-2.5,2.5-3.6C828.7,125,829.2,124.6,829.7,124.3z"/>
	<path class="st3" d="M871.5,111.3c-1.4,1.8-3.7,2.7-5.9,2.3c0-0.1,1.5-0.2,3.1-0.8S871.4,111.2,871.5,111.3z"/>
	<path class="st3" d="M867.3,98.3c-0.3,0.9-0.9,1.7-1.7,2.3c-0.7,0.7-1.6,1.1-2.6,1.2c0-0.1,1.1-0.6,2.3-1.6S867.2,98.2,867.3,98.3z
		"/>
	<path class="st3" d="M852.1,89.6c0.8,0.5,1.5,1.2,1.9,2.1c0.5,0.8,0.8,1.8,0.8,2.7c-0.1,0-0.5-1.2-1.2-2.5
		C852.8,90.6,852,89.7,852.1,89.6z"/>
	<path class="st3" d="M874.7,123.6c-0.8,0.7-1.8,1.2-2.9,1.4c-1,0.3-2.1,0.4-3.2,0.2c0-0.1,1.4-0.2,3.1-0.6
		C873.3,124.1,874.6,123.5,874.7,123.6z"/>
	<path class="st3" d="M881.2,135.1c-3.4,0.6-6.8,0.9-10.2,0.9c1.7-0.4,3.4-0.6,5.1-0.7C877.8,135,879.5,135,881.2,135.1z"/>
	<path class="st3" d="M885.7,144.3c-5,0.2-10,0.1-15-0.4C875.7,143.7,880.7,143.9,885.7,144.3z"/>
	<path class="st1" d="M852.7,51.9c0.6,3.2,5.2,4.4,5.6,7.6c0.2,1.4-0.5,2.7-0.4,4.1c0.1,1.9,1.3,3.4,2,5.1c1.4,3.6-0.2,7.8-3,10.3
		c-2.9,2.5-6.8,3.5-10.6,3.6"/>
	<path class="st1" d="M827.1,55.2c0.4,1.7-0.5,3.4-1.4,4.8s-2,3-2,4.7c0,3.1,3.4,5.4,3.3,8.5c-0.1,1.6-1.2,3.1-1.2,4.8
		c0.2,1.6,1,3.1,2.3,4c1.2,1,2.4,0.7,3.5,1.8c1.3,1.3,2.8,2.3,4.5,2.9c3.6,1.3,7.1-2,8.6-2.7"/>
	<path class="st1" d="M853.7,53.6c-0.2-1.6-1.9-2.5-3.4-2.9c-1.5-0.3-3.2-0.3-4.6-0.9c-1.2-0.7-2.3-1.5-3.3-2.5
		c-4.3-3.2-10.3-2.3-13.5,2c-1.1,1.4-1.7,3.1-1.8,4.9c-0.2,2.3,0.6,4.8,2.6,6c2.3,1.4,5.2,0.5,7.7-0.4c2.5-0.9,5.3-1.9,7.7-0.7
		c1.4,0.9,2.5,2,3.4,3.3c1,1.2,2.2,2.5,3.8,2.8s3.5-0.9,3.3-2.5"/>
	<path class="st9" d="M854.2,86.6l-3.7-30.2c-0.2-1.3-1.4-2.3-2.7-2.3l-14.3-1.3c-4.5,0.2-6.5,6.1-6.1,10.5c0.5,4.9,1.2,11,2.4,14.5
		c2.3,7.2,8.1,7.2,8.1,7.2s1,10.6,1.5,13.2"/>
	<path class="st1" d="M829.3,68.9c0.1,0.5,0.5,0.9,1,0.8c0,0,0,0,0,0c0.5,0,0.9-0.5,0.8-1c-0.1-0.5-0.5-0.9-1-0.8c0,0,0,0,0,0
		C829.6,68,829.2,68.4,829.3,68.9z"/>
	<path class="st1" d="M829,67c0.1,0.1,0.8-0.5,1.8-0.7c1-0.2,1.9,0.2,1.9,0.1c0.1-0.1-0.1-0.3-0.5-0.4c-0.5-0.2-1-0.3-1.6-0.2
		c-0.5,0.1-1,0.3-1.4,0.7C829,66.8,828.9,67,829,67z"/>
	<path class="st1" d="M839.5,67.4c0.1,0.5,0.5,0.9,1,0.8c0,0,0,0,0,0c0.5,0,0.9-0.5,0.8-1c-0.1-0.5-0.5-0.9-1-0.8c0,0,0,0,0,0
		C839.8,66.5,839.5,66.9,839.5,67.4z"/>
	<path class="st1" d="M839,65.7c0.1,0.1,0.8-0.5,1.8-0.7c1-0.1,1.9,0.2,1.9,0.1s-0.1-0.3-0.5-0.5c-0.5-0.2-1-0.3-1.6-0.2
		c-0.5,0.1-1,0.3-1.4,0.7C839,65.4,838.9,65.6,839,65.7z"/>
	<path class="st1" d="M836.5,73.8c-0.6-0.1-1.1-0.1-1.7,0c-0.3,0-0.5,0-0.6-0.2c-0.1-0.3,0-0.5,0.1-0.8c0.1-0.7,0.3-1.4,0.5-2.1
		c0.5-1.8,0.8-3.6,0.9-5.4c-0.6,1.7-1.1,3.5-1.4,5.3c-0.1,0.7-0.3,1.4-0.4,2.1c-0.1,0.3-0.1,0.7,0,1c0.1,0.2,0.3,0.3,0.5,0.3
		c0.2,0,0.3,0,0.5,0C835.4,74.1,835.9,74,836.5,73.8z"/>
	<path class="st10" d="M837.8,85.2c3.4-0.4,6.7-1.8,9.4-4c-1.6,3.6-5.2,6-9.2,6L837.8,85.2z"/>
	<path class="st10" d="M837.3,76.2c0.3-0.6,0.9-0.9,1.5-0.9c0.5,0,0.9,0.1,1.2,0.4c0.3,0.3,0.4,0.8,0.3,1.2
		c-0.3,0.4-0.8,0.6-1.3,0.5c-0.5-0.1-1-0.3-1.4-0.6c-0.1-0.1-0.2-0.2-0.3-0.3C837.2,76.5,837.2,76.3,837.3,76.2"/>
	<path class="st1" d="M839.6,74c-0.2,0,0,1.1-0.8,2c-0.8,0.9-2,1-2,1.1c0,0.1,0.3,0.2,0.8,0.1c0.7-0.1,1.2-0.4,1.7-0.9
		c0.4-0.5,0.6-1.1,0.6-1.7C839.8,74.3,839.7,74,839.6,74z"/>
	<path class="st1" d="M838.1,62.9c0.1,0.3,1.1,0,2.4-0.1c1.2-0.1,2.2,0.1,2.3-0.1c0.1-0.3-0.2-0.4-0.6-0.6c-1.2-0.5-2.5-0.4-3.6,0.2
		C838.2,62.5,838,62.8,838.1,62.9z"/>
	<path class="st1" d="M828.9,64.1c0.2,0.2,0.9-0.1,1.7-0.3s1.6-0.1,1.7-0.4s-0.1-0.3-0.4-0.5c-0.5-0.2-1-0.3-1.5-0.2
		c-0.5,0.1-0.9,0.3-1.3,0.7C828.9,63.7,828.8,64,828.9,64.1z"/>
	<path class="st1" d="M854.6,79c-2,0.7-2.3-0.3-4-1.4c-1.8-1.2-2.8-3.2-2.9-5.3c-0.1-1.9,0.6-3.8-0.3-5.4c-1.2-2.1-4.5-2.3-5.7-4.4
		c-0.7-1.2-0.5-2.8-1.3-4c-0.8-1.1-2.1-1.7-3.4-1.9c-1.3-0.1-2.6-0.5-3.9-1c-1.2-0.6-2-2.1-1.6-3.3c5.6-0.2,11.2,0.3,16.7,1.4
		c1.3,0.1,2.5,0.7,3.5,1.6c0.8,1.1,1.3,2.5,1.3,3.8c0.7,6.6,1.5,13.3,2.2,20"/>
	<path class="st1" d="M856.9,63.3c-0.2-3.2,2.2-5.9,5.4-6c2-0.1,3.9,0.8,5,2.4c1.2,2,1.5,4.5,0.8,6.8c-0.7,2.7-2.7,5.3-5.5,5.7
		c-2.6,0.3-5-1.6-6.2-4c-1.1-2.4-1.3-5.1-1.4-7.7"/>
	<path class="st2" d="M859.9,73.1c0.1-0.1,0.2-0.3,0.3-0.5c0.2-0.5,0.3-1,0.3-1.6c0-0.8-0.2-1.6-0.4-2.3c-0.3-0.8-0.7-1.7-1.1-2.6
		c-0.4-0.9-0.6-1.8-0.6-2.7c0-0.8,0.3-1.6,0.4-2.3c0.1-0.5,0-1.1-0.2-1.6c-0.2-0.3-0.4-0.5-0.4-0.5c0,0,0.1,0.2,0.3,0.5
		c0.2,0.5,0.2,1,0.1,1.5c-0.2,0.8-0.3,1.5-0.4,2.3c0,1,0.2,1.9,0.6,2.8c0.4,0.9,0.8,1.8,1.1,2.6c0.3,0.7,0.4,1.5,0.5,2.2
		C860.3,71.8,860.2,72.5,859.9,73.1z"/>
	<path class="st2" d="M858.6,64.3c0.4,0.4,0.8,0.7,1.3,0.9c2.4,1.2,5.3,0.8,7.3-1c0.4-0.3,0.8-0.8,1-1.2c0,0-0.4,0.5-1.1,1.1
		c-1,0.8-2.1,1.3-3.4,1.5c-1.2,0.2-2.5,0-3.7-0.5C859.1,64.6,858.7,64.2,858.6,64.3z"/>
	<path class="st2" d="M859.2,65.4c0.2,0.4,0.5,0.8,0.8,1.1c0.8,0.8,1.7,1.4,2.7,1.8c1,0.4,2.1,0.6,3.1,0.6c0.4,0,0.9,0,1.3-0.2
		c-0.4,0-0.9,0-1.3,0c-2.1-0.1-4.1-0.9-5.7-2.3C859.8,66,859.5,65.7,859.2,65.4z"/>
	<path class="st2" d="M858.9,75.8c0,0,0,0,0.1-0.1c0.1-0.1,0.1-0.2,0.1-0.3c0.2-0.4,0.3-0.9,0.3-1.4c0-0.7-0.1-1.5-0.5-2.2
		c-0.4-0.9-1.2-1.6-2.1-2c-1.1-0.4-2.1-0.9-3-1.6c-0.4-0.4-0.7-1-0.7-1.7c0-0.7,0.2-1.4,0.3-2c0.4-1.5,0.1-3.1-0.8-4.4
		c-0.5-0.7-1.1-1.2-1.8-1.6c-0.8-0.4-1.6-0.6-2.4-0.6c-0.8-0.1-1.6,0-2.4-0.1c-0.8-0.1-1.5-0.3-2.1-0.8c-0.6-0.5-1-1.1-1.1-1.8
		c-0.2-0.7-0.4-1.4-0.7-2.1c-0.5-1.3-1.4-2.4-2.5-3.2c-1-0.7-2.2-1.1-3.4-1.1c-1,0-2,0.3-2.8,0.9c-0.6,0.4-1.1,1-1.4,1.7
		c-0.2,0.4-0.3,0.9-0.4,1.3c0,0.2,0,0.3,0,0.5c0-0.6,0.2-1.2,0.5-1.8c0.8-1.5,2.4-2.4,4.1-2.4c1.2,0,2.3,0.4,3.2,1.1
		c1.1,0.8,1.9,1.8,2.4,3.1c0.3,0.7,0.5,1.4,0.7,2.1c0.2,0.8,0.6,1.5,1.3,2c0.7,0.5,1.5,0.7,2.3,0.8c0.8,0.1,1.6,0.1,2.4,0.1
		c0.8,0,1.6,0.2,2.3,0.5c0.7,0.4,1.3,0.9,1.7,1.5c0.8,1.2,1.1,2.7,0.8,4.1c-0.2,0.7-0.3,1.4-0.3,2.1c0,0.7,0.3,1.4,0.8,1.9
		c0.9,0.7,2,1.3,3.1,1.6c0.9,0.4,1.6,1,2,1.9c0.3,0.6,0.5,1.4,0.5,2.1C859.3,74.6,859.2,75.2,858.9,75.8z"/>
	<path class="st2" d="M855.2,55.4c0-0.1,0-0.2,0-0.4c0-0.3-0.2-0.7-0.4-0.9c-0.4-0.4-0.9-0.7-1.4-0.8c-0.7-0.1-1.5,0-2.1,0.3
		c-0.7,0.3-1.5,0.7-2.3,1c-0.9,0.4-1.9,0.4-2.7,0c-0.9-0.6-1.6-1.4-2-2.4c-0.6-1-1.3-2-2.2-2.8c-1.7-1.6-3.8-2.5-6.1-2.7
		c-1-0.1-2,0.1-2.9,0.5c-0.8,0.4-1.5,1-1.9,1.7c-0.4,0.6-0.6,1.4-0.5,2.1c0,0.5,0.2,1.1,0.5,1.5c0.2,0.3,0.4,0.5,0.7,0.8
		c0.1,0.1,0.2,0.1,0.3,0.2c-0.3-0.3-0.6-0.6-0.9-1c-0.3-0.5-0.4-1-0.4-1.5c0-0.7,0.2-1.4,0.5-1.9c0.5-0.7,1.1-1.3,1.9-1.6
		c0.9-0.4,1.8-0.6,2.8-0.5c2.2,0.2,4.3,1.1,5.9,2.7c0.8,0.8,1.6,1.7,2.1,2.7c0.5,1,1.2,1.9,2.1,2.5c0.5,0.3,1,0.4,1.5,0.3
		c0.5,0,1-0.1,1.4-0.3c0.9-0.3,1.6-0.8,2.3-1.1c0.6-0.3,1.3-0.4,2-0.3c0.5,0.1,1,0.3,1.3,0.7c0.2,0.2,0.4,0.5,0.4,0.9
		C855.2,55.2,855.2,55.4,855.2,55.4z"/>
</g>
<g id="freepik--character-1--inject-452">
	<path class="st1" d="M603.9-14.7c16.7-6.1,8.1-31.2,8.1-31.2l-84.7,7.8c-6.6,0-12,5.3-12,11.9c0,0,0,0,0,0.1l0,0
		c0,6.6,5.3,11.9,11.9,11.9l0,0L603.9-14.7"/>
	<path class="st4" d="M494.8,55l-0.2-8.4l16.1-5.7l0.7,11.7l-0.9,0.4c-4,1.9-20.7,9.4-23.8,9.7C483.2,63,494.8,55,494.8,55z"/>
	<g class="st11">
		<path class="st6" d="M489.2,59.2c0,0-3.9,3.1-3.1,3.6c0.9,0.5,18-6.5,25.3-10.2l-0.2-0.3l-19.9,8.3
			C491.3,60.5,490.1,58.8,489.2,59.2z"/>
	</g>
	<path class="st1" d="M511.5,52.1l-0.3,0.1l-0.7,0.4l-2.6,1.2c-2.3,1-5.4,2.4-8.9,3.8c-3.5,1.4-6.7,2.7-9.1,3.5l-2.8,1l-0.8,0.3
		l-0.3,0.1l0.3-0.1l0.7-0.3l2.8-1.1c2.3-0.9,5.5-2.1,9-3.6c3.5-1.4,6.7-2.8,9-3.8l2.7-1.2l0.7-0.3C511.3,52.2,511.4,52.2,511.5,52.1
		z"/>
	<path class="st1" d="M491.4,60.8c-0.3-0.4-0.6-0.8-1-1.1c-0.4-0.3-0.9-0.5-1.4-0.7C490.2,59.1,491.1,59.8,491.4,60.8L491.4,60.8z"
		/>
	<path class="st1" d="M494.9,56.7c0,0-0.4-0.1-0.7-0.4c-0.4-0.3-0.6-0.5-0.6-0.5s0.3,0.1,0.7,0.4C494.7,56.5,495,56.7,494.9,56.7z"
		/>
	<path class="st1" d="M495.9,55.6c0,0-0.3,0-0.7-0.1c-0.3-0.1-0.6-0.3-0.6-0.3c0-0.1,0.3,0,0.7,0.1
		C495.6,55.4,495.9,55.5,495.9,55.6z"/>
	<path class="st1" d="M496.1,53.9c0,0-0.3,0.2-0.7,0.4c-0.3,0.1-0.5,0.2-0.8,0.2c0,0,0.3-0.2,0.7-0.4
		C495.5,54,495.8,53.9,496.1,53.9z"/>
	<path class="st1" d="M495.9,52.8c-0.2,0.3-0.5,0.5-0.8,0.6c-0.3,0.2-0.6,0.3-0.9,0.2c0.3-0.2,0.6-0.3,0.9-0.4
		C495.4,53,495.6,52.9,495.9,52.8z"/>
	<path class="st1" d="M493.9,55.6c-0.3,0.2-0.6,0.3-1,0.4c-0.4,0.1-0.7,0.2-1.1,0.2c-0.2,0-0.5,0-0.7,0c-0.1,0-0.3-0.1-0.4-0.2
		c-0.1-0.1-0.1-0.3,0-0.5c0.6-0.7,1.6-0.8,2.4-0.4c0.2,0.1,0.4,0.3,0.6,0.5c0.1,0.1,0.1,0.2,0.1,0.3c-0.2-0.3-0.5-0.5-0.8-0.6
		c-0.3-0.2-0.7-0.2-1-0.2c-0.4,0-0.8,0.2-1.1,0.5c-0.1,0.2,0,0.3,0.2,0.4c0.2,0,0.4,0,0.6,0c0.4,0,0.7-0.1,1.1-0.1
		C493.5,55.8,493.9,55.6,493.9,55.6z"/>
	<path class="st1" d="M493.7,55.8c-0.2-0.2-0.3-0.4-0.4-0.6c-0.1-0.3-0.1-0.5,0-0.8c0-0.4,0.3-0.7,0.6-0.8c0.2,0,0.4,0.1,0.5,0.3
		c0,0.2,0,0.3,0,0.5c0,0.3-0.1,0.5-0.2,0.8C494.1,55.4,493.9,55.6,493.7,55.8c0.1-0.1,0.2-0.3,0.3-0.7c0.1-0.2,0.1-0.5,0.2-0.7
		c0-0.3,0-0.7-0.3-0.6c-0.3,0.1-0.4,0.4-0.5,0.7c-0.1,0.2-0.1,0.5,0,0.7C493.5,55.4,493.6,55.6,493.7,55.8z"/>
	<path class="st1" d="M509.5,48.2c0,0-0.4,0.1-1.1,0.5c-1.7,0.9-2.8,2.8-2.6,4.7c0,0.7,0.2,1.2,0.1,1.2c-0.1-0.1-0.1-0.2-0.1-0.3
		c-0.1-0.3-0.1-0.6-0.2-0.9c-0.2-2,0.9-4,2.7-4.9c0.3-0.1,0.5-0.2,0.8-0.3C509.3,48.2,509.4,48.2,509.5,48.2z"/>
	<path class="st1" d="M505.4,42.6c0.5,1,1,2,1.4,3c0.5,1,0.9,2,1.2,3.1c-0.5-1-1-2-1.4-3C506.1,44.6,505.7,43.6,505.4,42.6z"/>
	<path class="st1" d="M503.4,54c-0.7,0.5-1.4,0.8-2.1,1.1c-0.7,0.3-1.5,0.6-2.3,0.7c0,0,1-0.4,2.2-0.9S503.4,53.9,503.4,54z"/>
	<path class="st1" d="M506.4,52.8c0.1,0,0,0.2,0,0.5s0,0.5,0,0.5s-0.2-0.2-0.2-0.5C506.2,53,506.3,52.7,506.4,52.8z"/>
	<path class="st1" d="M506.9,50.9c0,0,0,0.2-0.1,0.4s-0.2,0.4-0.3,0.4s0-0.2,0.1-0.4C506.7,51.1,506.9,50.9,506.9,50.9z"/>
	<path class="st1" d="M508.2,49.7c0,0.1-0.2,0.1-0.4,0.3s-0.3,0.4-0.4,0.3c-0.1,0,0-0.3,0.2-0.5S508.2,49.6,508.2,49.7z"/>
	<path class="st1" d="M509.2,48.9c0,0,0,0.1-0.1,0.3s-0.2,0.1-0.3,0.1s0-0.1,0.1-0.3S509.2,48.9,509.2,48.9z"/>
	<path class="st1" d="M559.4-39.3l-47.3,0.9c-7.6,0.1-13.9,5.8-14.8,13.3L488,51.1h25.7l7.8-65.8h37.4L559.4-39.3z"/>
	<path class="st2" d="M488.3,46.3c0,0.1,5.6,0.3,12.6,0.3s12.5-0.1,12.6-0.1c0.8-0.1-5.6-0.3-12.6-0.3S488.3,46.2,488.3,46.3z"/>
	<path class="st2" d="M585.5-41.7h-0.9l-2.7,0.1l-9.8,0.5l-32.2,1.7c-1.6,0.1-3.1,0.2-4.7,0.2c-1.5,0-3.1,0.1-4.5,0.2
		s-2.9,0.2-4.4,0.3c-1.4,0.1-2.8,0.4-4.2,0.8c-1.3,0.5-2.5,1.2-3.5,2.1c-0.9,0.9-1.6,2-2.1,3.2c-0.4,1.1-0.7,2.3-0.8,3.4
		c-0.2,1.1-0.2,2.2-0.2,3.3c0,1.9,0.3,3.8,1.1,5.5c0.6,1.3,1.5,2.4,2.6,3.3c0.7,0.6,1.5,1,2.3,1.3c0.6,0.2,0.6,0.1,0-0.1
		c-0.8-0.3-1.6-0.7-2.3-1.3c-1.1-0.9-1.9-2-2.5-3.3c-0.7-1.7-1.1-3.5-1-5.4c0-1.1,0.1-2.1,0.3-3.2c0.2-1.1,0.4-2.3,0.9-3.4
		c0.4-1.1,1.1-2.2,2-3c1-0.9,2.1-1.6,3.3-2c1.3-0.4,2.7-0.7,4.1-0.8c1.4-0.1,2.9-0.2,4.4-0.3c1.5-0.1,3-0.1,4.5-0.2s3.1-0.1,4.7-0.2
		l32.3-1.8l9.8-0.6l2.6-0.2l0.7-0.1C585.3-41.6,585.4-41.7,585.5-41.7z"/>
	<path class="st12" d="M570.4-73.3l-4.1,12.9c-1.6,5.3-6.1,9.3-11.5,10.4l-23.9,6.6l-1.9-4.4l-1.7-6.5l20.7-7c2-0.4,3.6-2,4.2-4
		l8.2-17.9l10.4,6.4L570.4-73.3z"/>
	<path class="st4" d="M580.4-113.6c-8.8,1-11.6,4.6-15.1,9.8c-1.5,2.1-2.7,4.5-3.5,6.9l-6.6,18.8l13.8,4.3l-0.5,15.3l-6.3,18.7
		l53.1,4.2l-0.1-27.1l-0.4-16.4c0.5-6.2,1.8-19.3,0.7-22.5c-4.7-13.3-15.2-10.8-22.8-12.7c-3.5-0.4-7-0.4-10.5,0"/>
	<path class="st3" d="M615.3-64.6c0,0.1-10.4,0.3-23.2,0.3c-12.8,0-23.2-0.1-23.2-0.3s10.4-0.3,23.2-0.3
		C604.9-64.8,615.3-64.7,615.3-64.6z"/>
	<path class="st3" d="M614.5-55.3c0,0.1-10.4,0.3-23.2,0.3c-12.8,0-23.2-0.1-23.2-0.3s10.4-0.3,23.2-0.3
		C604.1-55.5,614.5-55.4,614.5-55.3z"/>
	<path class="st3" d="M614.8-44.6c0,0.1-11,0.3-24.5,0.3c-13.5,0-24.5-0.1-24.5-0.3s11-0.3,24.5-0.3S614.8-44.8,614.8-44.6z"/>
	<g class="st8">
		<path d="M608.3-70.5c-0.7,3.6-1,7.5-2.2,10.9c-0.8,2.6-2,5-3.5,7.2c-2.3,2.9-5.5,5-9,6c-3.5,1.1-20.4,4.9-24,4.6l30.9-14.6
			l3.7-15.4L608.3-70.5z"/>
	</g>
	<path class="st12" d="M606.5-71L603.1-58c-1.3,5.5-5.6,9.7-11.1,11l-27.2,6.4l-7.5,0.1v-10.3l27.4-7.4c2-0.5,3.5-2.2,4-4.2
		l2.6-11.5L606.5-71z"/>
	<path class="st3" d="M615.6-102.5c0,0.1-11.5,0.3-25.6,0.3c-14.1,0-25.6-0.1-25.6-0.3s11.5-0.3,25.6-0.3S615.6-102.6,615.6-102.5z"
		/>
	<path class="st3" d="M615.9-93.6c0,0.1-12.3,0.3-27.6,0.3c-15.2,0-27.6-0.1-27.6-0.3s12.3-0.3,27.6-0.3
		C603.5-93.8,615.9-93.7,615.9-93.6z"/>
	<path class="st3" d="M615.2-84c0,0.1-13,0.4-29,0.5s-29,0.1-29,0s13-0.4,29-0.5S615.2-84.2,615.2-84z"/>
	<path class="st3" d="M614.8-73.9c0,0.1-10.4,0.3-23.2,0.3c-12.8,0-23.2-0.1-23.2-0.3s10.4-0.3,23.2-0.3
		C604.4-74.2,614.8-74,614.8-73.9z"/>
	<path class="st1" d="M611.2-69.9c0-0.1,0-0.1,0-0.2l0.1-0.6c0.1-0.6,0.2-1.4,0.4-2.4c0.3-2.1,0.8-5.2,1.3-9
		c0.5-3.8,1.1-8.5,1.5-13.7c0.1-2.6,0.3-5.4-1-8c-0.7-1.3-1.6-2.4-2.8-3.2c-1.2-0.8-2.6-1.4-4.1-1.6h-0.1c-1.7-0.4-3.4-0.3-5.1,0.4
		c-1.7,0.5-3.3,1.4-4.7,2.5c-0.3,0.2-0.5,0.5-0.7,0.8c-0.2,0.3-0.4,0.7-0.5,1c-0.3,0.7-0.6,1.4-0.8,2.1c-0.4,1.4-0.7,2.9-0.9,4.4
		c-0.5,2.9-1,5.7-1.5,8.4c-1,5.4-1.9,10.4-2.7,14.9l-0.2-0.2l15.4,3.2l4.2,0.9l1.1,0.3c0.1,0,0.3,0.1,0.4,0.1l-0.4-0.1l-1.1-0.2
		l-4.3-0.8l-15.4-3.1h-0.2v-0.2c0.8-4.4,1.7-9.4,2.6-14.9c0.5-2.7,1-5.5,1.5-8.4c0.2-1.5,0.5-2.9,0.9-4.4c0.2-0.7,0.5-1.5,0.8-2.2
		c0.2-0.3,0.4-0.7,0.6-1c0.2-0.3,0.5-0.7,0.8-0.9c1.4-1.2,3.1-2.1,4.9-2.6c1.7-0.7,3.6-0.8,5.4-0.3h0c1.6,0.2,3,0.8,4.3,1.7
		c1.3,0.9,2.3,2,3,3.4c0.3,0.7,0.6,1.3,0.8,2.1c0.2,0.7,0.3,1.4,0.3,2.1l0.1,1c0,0.3,0,0.7,0,1c0,0.7,0,1.3-0.1,2
		c-0.3,5.3-1,9.9-1.6,13.7s-1.1,6.9-1.5,9c-0.2,1-0.4,1.8-0.5,2.4l-0.1,0.6C611.3-70.1,611.2-70,611.2-69.9z"/>
	<path class="st1" d="M568.8-58.8c0.1-0.5,0.1-0.9,0.1-1.4c0-1,0-2.3,0-3.8c0-3.2,0-7.6-0.1-12.5c-0.1-4.9-0.1-9.3-0.2-12.5
		c-0.1-1.6-0.1-2.8-0.1-3.8c0-0.5,0-0.9-0.1-1.4c-0.1,0.5-0.1,0.9-0.1,1.4c0,1,0,2.3,0,3.8c0,3.2,0,7.6,0.1,12.5
		c0.1,4.9,0.1,9.3,0.2,12.5c0,1.5,0.1,2.8,0.1,3.8C568.7-59.7,568.7-59.3,568.8-58.8z"/>
	<polygon class="st2" points="585.5,-38.3 585.9,-40.5 565.3,-42.7 556.3,-68.6 514.3,-68.9 528.1,-38.9 	"/>
	<path class="st6" d="M541.2-52.3c1-0.6,1.2-1.9,0.6-2.9c-0.6-1-1.9-1.2-2.9-0.6c-1,0.6-1.2,1.9-0.6,2.9
		C539-52,540.2-51.7,541.2-52.3C541.2-52.3,541.2-52.3,541.2-52.3"/>
	<path class="st1" d="M569.9-156.2c-3,0.5-5.1,3.3-4.6,6.4c0.3,1.6,1.2,3.1,2.6,3.9c0.8,0.6,1.9,0.7,2.8,0.3
		c0.8-0.5,1.3-1.3,1.5-2.2c0.9-2.8,0.6-5.9-0.7-8.6"/>
	<path class="st12" d="M587.1-105.1L587.1-105.1c-5,0-9-4-9-9c0,0,0,0,0-0.1c0-3.1,0.1-5.8,0.1-5.8s-7.2-0.7-7.7-7.8
		c-0.5-7.1-0.3-23.6-0.3-23.6l0,0c8-4.1,17.6-3.4,25.1,1.6l1.1,0.8l-0.3,35C596-109.1,592.1-105.2,587.1-105.1z"/>
	<path class="st13" d="M578.2-120.1c3.3-0.1,6.5-1.3,9.1-3.2c0,0-1.9,5.3-9,5.1L578.2-120.1z"/>
	<path class="st12" d="M594.6-141.2c0.1,0,4.5-0.6,4.1,4.6c-0.4,5.2-5.5,3-5.5,2.9S594.6-141.2,594.6-141.2z"/>
	<path class="st13" d="M594.9-135.4c0,0,0.1,0.1,0.2,0.2c0.2,0.1,0.4,0.1,0.7,0.1c0.7-0.4,1.2-1.1,1.2-1.9c0-0.4,0-0.9-0.2-1.3
		c-0.1-0.3-0.3-0.6-0.6-0.7c-0.2-0.1-0.4,0-0.5,0.2c-0.1,0.1-0.1,0.3-0.1,0.3c0,0-0.1-0.1,0-0.3c0-0.1,0.1-0.2,0.2-0.3
		c0.2-0.1,0.3-0.1,0.5-0.1c0.4,0.1,0.8,0.5,0.9,0.9c0.2,0.5,0.3,1,0.2,1.5c0,0.9-0.6,1.8-1.5,2.1c-0.3,0.1-0.6,0-0.8-0.2
		C594.9-135.3,594.9-135.4,594.9-135.4z"/>
	<path class="st1" d="M575.2-148.5c1.2-0.7,2.3-1.5,3.4-2.4c1.6,2.5,5,3.3,7.5,1.7c0.3-0.2,0.6-0.4,0.9-0.7c0.1,0.9,0.6,1.8,1.4,2.3
		c0.8,0.4,1.8,0.4,2.6,0l0.1,8.3c-0.1,0.8,0.1,1.6,0.5,2.3c0.4,0.6,1.2,0.7,1.8,0.3c0.1,0,0.1-0.1,0.2-0.1c-0.2-1-0.1-2,0.3-3
		c0.4-1,1.5-1.5,2.5-1.1c0.3-1.6,0.4-3.2,0.3-4.9c0-0.5,0-1,0.2-1.5c0.3-0.5,0.4-0.1,0.9-0.2c1.6-0.4,2.7-1.7,2.8-3.3
		c0.1-1.6-0.7-3.1-2-4c-1.3-0.9-2.9-1.3-4.4-1.1c1-1.1,1-2.7,0-3.8c-1-1-2.4-1.5-3.8-1.4c-1.4,0.1-3,0.9-3.1,2.2
		c-0.4-3.1-3.3-5.3-6.4-4.9c-2.5,0.3-4.4,2.2-4.9,4.6c-1.7-0.7-4-1.6-5.6-0.8c-2,0.8-3.3,2.6-3.4,4.8c0,0-0.4,5.7,3.2,6.8
		C573.7-147.4,575.2-148.5,575.2-148.5z"/>
	<path class="st1" d="M572.1-140c0,0.6,0.4,1,1,1c0.5,0,0.9-0.4,1-0.9c0-0.6-0.4-1-1-1C572.6-140.9,572.2-140.5,572.1-140z"/>
	<path class="st1" d="M571.9-141.1c0.1,0.1,0.9-0.4,2-0.4c1.1,0,1.9,0.5,2,0.4c0.1-0.1-0.1-0.3-0.4-0.6c-0.5-0.3-1-0.5-1.6-0.5
		c-0.6,0-1.1,0.2-1.6,0.5C571.9-141.4,571.9-141.2,571.9-141.1z"/>
	<path class="st1" d="M582.7-139.7c0,0.6,0.4,1,1,1c0.5,0,0.9-0.4,1-0.9c0-0.6-0.4-1-1-1C583.1-140.6,582.7-140.2,582.7-139.7z"/>
	<path class="st1" d="M582.5-140.9c0.1,0.1,0.9-0.4,2-0.4c1.1,0,1.9,0.5,2,0.4c0.1-0.1-0.1-0.3-0.4-0.6c-0.5-0.3-1-0.5-1.6-0.5
		c-0.6,0-1.1,0.2-1.6,0.5C582.5-141.2,582.4-141,582.5-140.9z"/>
	<path class="st1" d="M578.6-132.9c-0.6-0.2-1.1-0.3-1.7-0.3c-0.3,0-0.5-0.1-0.6-0.3c0-0.3,0-0.6,0.2-0.8l0.8-2.1
		c0.8-1.8,1.4-3.6,1.8-5.5c-0.9,1.7-1.7,3.5-2.3,5.3c-0.3,0.7-0.5,1.4-0.8,2.1c-0.2,0.3-0.2,0.7-0.2,1.1c0.1,0.2,0.2,0.3,0.5,0.4
		c0.2,0,0.3,0.1,0.5,0.1C577.4-132.9,578-132.9,578.6-132.9z"/>
	<path class="st1" d="M581.7-132.2c-0.2,0-0.2,1.2-1.2,2s-2.2,0.7-2.3,0.9s0.3,0.2,0.8,0.2c0.7,0,1.4-0.2,1.9-0.7
		c0.5-0.4,0.8-1,0.9-1.7C581.9-131.9,581.9-132.2,581.7-132.2z"/>
	<path class="st1" d="M582.2-145.1c0.1,0.3,1.2,0.2,2.4,0.3c1.3,0.2,2.3,0.5,2.5,0.2c0.2-0.3-0.1-0.4-0.5-0.7
		c-0.5-0.4-1.2-0.6-1.8-0.6c-0.6-0.1-1.3,0-1.9,0.2C582.4-145.5,582.2-145.3,582.2-145.1z"/>
	<path class="st1" d="M572.3-144.2c0.2,0.2,0.9,0,1.8,0s1.6,0.2,1.8-0.1s0-0.4-0.4-0.6c-0.9-0.6-2.1-0.5-2.9,0.1
		C572.3-144.6,572.2-144.3,572.3-144.2z"/>
	<path class="st2" d="M574.3-156.5c0,0-0.1,0-0.3-0.1c-0.3,0-0.5,0-0.7,0.2c-0.3,0.3-0.5,0.7-0.3,1.1c0.2,0.5,0.5,1,1.1,1.2
		c0.6,0.2,1.3,0.2,1.9-0.1c0.7-0.4,1.1-1.1,1.2-1.9c0.1-0.9-0.3-1.7-0.9-2.3c-0.7-0.6-1.6-0.9-2.5-0.8c-0.9,0.1-1.8,0.5-2.5,1.2
		c-0.6,0.6-1,1.4-1.2,2.3c-0.3,1.5,0,3,0.7,4.4c0.5,0.9,1.2,1.7,2,2.3c0.6,0.4,1,0.6,1,0.6c-0.4-0.1-0.7-0.3-1.1-0.5
		c-0.9-0.6-1.7-1.3-2.3-2.3c-0.9-1.4-1.2-3-0.9-4.6c0.2-1,0.6-1.8,1.3-2.6c0.7-0.8,1.7-1.3,2.8-1.4c1.1-0.1,2.1,0.2,2.9,0.9
		c0.7,0.7,1.1,1.7,1,2.7c-0.1,0.9-0.6,1.7-1.4,2.2c-0.7,0.4-1.5,0.4-2.3,0.1c-0.6-0.3-1.1-0.8-1.2-1.4c-0.1-0.5,0.1-1,0.5-1.3
		c0.3-0.2,0.6-0.2,0.9-0.1C574.3-156.6,574.3-156.5,574.3-156.5z"/>
</g>
<g id="freepik--character-2--inject-452">
	<path class="st9" d="M396.7,168.1l4,12.5c1.6,5.2,5.9,9,11.2,10l26.7,5l7.3-0.2l-7.3-9l-20-6.8c-1.9-0.4-3.5-1.9-4-3.8l-8-17.4
		l-10.1,6.2L396.7,168.1z"/>
	<path class="st4" d="M377.6,84.2c0.1-2-0.4-3.9-1.5-5.5c-0.9-1.7-2.5-2.9-4.4-3.4c-2.2-0.3-4.3,1-5.2,3.1c-0.8,2.1-0.5,4.4,0.8,6.2
		c0.6,0.9,1.5,1.7,2.4,2.3c-2.8,1.8-4.9,4.5-6,7.6c-0.4,1.1-0.6,2.2-1.1,3.2c-0.4,1.1-1.2,1.9-2.2,2.5c-0.8,0.3-1.6,0.4-2.4,0.7
		c-1.3,0.5-2.3,1.6-2.6,3c-0.3,1.4,0,2.8,0.7,4c0.5,0.5,0.8,1.2,0.9,1.9c0,0.5-0.1,0.9-0.3,1.4c-0.5,2,0.8,4.1,2.8,4.6
		c1.2,0.3,2.5,0,3.4-0.9c0.4,1.2,1.2,2.2,2.3,2.9c1.1,0.5,2.8,0,3-1.2c0.7,1.5,2.5,2.1,4,1.4c1-0.5,1.6-1.4,1.7-2.5l21.5-23.5
		C392.3,83.3,379.8,84,377.6,84.2z"/>
	<path class="st9" d="M373.9,92.4c-1.4,0.2-2.4,1.3-2.4,2.7l0,0l1.5,36.2c0.1,4.3,7.8,9.3,12.4,9.2l0,0c4.6-0.1,3.3-5,3.3-9.1
		c0.1-6.8,0.1-9.4,0.1-9.3s5.8-1,7-8.6c0.6-3.8,0.4-10,0.1-15.1c-0.3-4.6-3.3-10.2-7.9-9.7L373.9,92.4z"/>
	<path class="st1" d="M394.1,103.4c0,0.5-0.4,1-0.9,1c-0.5,0-1-0.4-1-0.9c0,0,0,0,0,0c0-0.5,0.4-1,0.9-1
		C393.6,102.5,394,102.9,394.1,103.4C394.1,103.4,394.1,103.4,394.1,103.4z"/>
	<path class="st1" d="M394.7,101.7c-0.1,0.1-0.9-0.4-1.9-0.4s-1.8,0.5-1.9,0.4s0.1-0.3,0.4-0.5c0.5-0.3,1-0.5,1.5-0.5
		c0.5,0,1.1,0.2,1.5,0.5C394.6,101.5,394.8,101.7,394.7,101.7z"/>
	<path class="st1" d="M383.8,103.4c0,0.5-0.4,1-0.9,1c-0.5,0-1-0.4-1-0.9c0,0,0,0,0,0c0-0.5,0.4-1,0.9-1
		C383.3,102.5,383.7,102.9,383.8,103.4C383.8,103.4,383.8,103.4,383.8,103.4z"/>
	<path class="st1" d="M384.3,101.9c-0.1,0.1-0.9-0.4-1.9-0.4s-1.8,0.5-1.9,0.4s0.1-0.3,0.4-0.5c0.5-0.3,1-0.5,1.5-0.5
		c0.5,0,1.1,0.2,1.5,0.5C384.3,101.6,384.4,101.9,384.3,101.9z"/>
	<path class="st1" d="M388.2,109.7c0.6-0.2,1.1-0.3,1.7-0.3c0.3,0,0.5-0.1,0.6-0.3c0-0.3,0-0.6-0.2-0.8c-0.3-0.6-0.5-1.3-0.8-2
		c-0.7-1.7-1.3-3.5-1.8-5.4c0.9,1.7,1.6,3.4,2.2,5.2c0.3,0.7,0.5,1.4,0.8,2c0.2,0.3,0.2,0.7,0.1,1.1c-0.1,0.2-0.2,0.3-0.4,0.4
		c-0.1,0-0.3,0.1-0.5,0.1C389.3,109.8,388.7,109.8,388.2,109.7z"/>
	<path class="st10" d="M388.9,122.2c-3.6,0.1-7.1-0.9-10.2-2.7c0,0,2.5,5.2,10.1,4.5L388.9,122.2z"/>
	<path class="st10" d="M387.7,112.3c-0.4-0.5-1-0.8-1.7-0.7c-0.5,0-0.9,0.3-1.2,0.6c-0.3,0.4-0.3,0.9-0.1,1.3
		c0.3,0.4,0.9,0.5,1.4,0.4c0.5-0.2,1-0.4,1.3-0.8c0.1-0.1,0.2-0.2,0.3-0.3C387.8,112.6,387.8,112.4,387.7,112.3"/>
	<path class="st1" d="M385.1,110.5c0.2,0,0.2,1.1,1.2,2s2.2,0.7,2.2,0.8s-0.3,0.2-0.8,0.2c-0.7,0-1.3-0.2-1.8-0.6
		c-0.5-0.4-0.8-1-0.9-1.6C384.9,110.7,385,110.5,385.1,110.5z"/>
	<path class="st4" d="M384.8,100.1c-0.1,0.3-1.2,0.1-2.4,0.3s-2.2,0.5-2.4,0.2s0.1-0.4,0.5-0.7c0.5-0.3,1.1-0.6,1.8-0.6
		c0.6-0.1,1.3,0,1.9,0.2C384.6,99.7,384.9,100,384.8,100.1z"/>
	<path class="st4" d="M394.3,98.7c-0.2,0.2-0.9,0-1.8,0s-1.6,0.2-1.8-0.1s0-0.4,0.4-0.6c0.4-0.3,0.9-0.4,1.5-0.4
		c0.5,0,1,0.2,1.4,0.5C394.3,98.3,394.4,98.6,394.3,98.7z"/>
	<path class="st9" d="M372.4,104.6c-0.6-0.3-1.4-0.3-2,0.1c-1.7,1-2.3,3.1-1.3,4.8c0.7,1.2,2.1,1.9,3.5,1.7"/>
	<path class="st4" d="M384.4,86.3c2.6,0.1,5.1,0.9,7.3,2.3c2.5,1.3,4.4,3.5,5.2,6.2c0.2,0.6,0.2,1.2-0.1,1.7
		c-0.5,0.6-1.4,0.8-2.1,0.5c-0.7-0.4-1.3-0.9-1.7-1.6c-0.5,1.7-2.2,2.8-4,2.3c-1.2-0.3-2.1-1.2-2.4-2.4c-0.1,1.5-1.4,2.7-2.9,2.6
		c-1.5-0.1-2.8-1.1-3.2-2.6c-0.2,1.3-0.6,2.6-1.3,3.7c-0.7,1.1-2.1,1.7-3.5,1.4c0.3,1.1,0.3,2.3,0,3.4c-0.4,1.1-1.5,1.8-2.7,1.6
		c-1.1-0.4-1.5-1.6-1.7-2.7c-0.5-2.1-0.8-4.2-0.8-6.4c-0.1-4.6,3-8.6,7.5-9.5c2.2-0.5,4.4-0.7,6.6-0.6"/>
	<path class="st10" d="M371.9,109c0,0-0.3,0.1-0.7-0.1c-0.5-0.3-0.7-0.8-0.7-1.3c0-0.5,0.3-1,0.8-1.2c0.2-0.1,0.5-0.1,0.7-0.1
		c0,0-0.3-0.2-0.8-0.1c-0.3,0.1-0.6,0.2-0.8,0.5c-0.2,0.3-0.4,0.6-0.4,1c-0.1,0.7,0.3,1.3,1,1.6C371.6,109.3,371.9,109,371.9,109z"
		/>
	<path class="st1" d="M369,109.4c0,0-0.1,0-0.3,0.1c-1.4,0.5-2.6,1.5-3.3,2.7c-0.4,0.7-0.6,1.5-0.7,2.3c0,0.9,0.2,1.9,0.6,2.7
		c0.5,0.9,1.2,1.7,2,2.3c0.9,0.6,2,1,3.1,1c2.2,0,4.2-1.3,5.2-3.2c0.4-0.8,0.6-1.8,0.5-2.7c-0.1-0.8-0.3-1.6-0.7-2.3
		c-0.6-1-1.5-1.8-2.5-2.3c-0.3-0.1-0.6-0.2-0.9-0.3c-0.2,0-0.3,0-0.3,0c0,0.1,0.4,0.1,1.2,0.4c1,0.5,1.8,1.3,2.3,2.3
		c0.4,0.7,0.6,1.4,0.7,2.2c0.1,0.9-0.1,1.7-0.5,2.5c-0.9,1.8-2.8,3-4.8,3c-2-0.1-3.9-1.2-4.8-3c-0.8-1.4-0.8-3.2,0-4.7
		c0.6-1,1.4-1.8,2.3-2.4C368.5,109.6,369,109.4,369,109.4z"/>
	<path class="st14" d="M375.3,85.8c-0.1,0-0.2-0.7-0.7-1.7c-1.2-2.6-3.6-4.5-6.5-5.1c-1.1-0.2-1.8-0.2-1.8-0.3
		c0.6-0.2,1.2-0.2,1.8-0.1c1.5,0.2,2.9,0.8,4.1,1.7c1.2,0.9,2.1,2.2,2.6,3.6C375.1,84.5,375.3,85.1,375.3,85.8z"/>
	<path class="st14" d="M357.7,114.7c0,0-0.1,0-0.3-0.3c-0.2-0.3-0.2-0.7-0.2-1c0.1-0.6,0.5-1.1,0.9-1.4c0.6-0.4,1.2-0.7,1.9-1
		c0.7-0.3,1.2-1.1,1.3-1.9c0-1-0.2-1.9-0.5-2.9c-0.1-0.5-0.2-1.1-0.2-1.7c0-0.6,0.3-1.2,0.7-1.7c0.9-0.8,2-1.4,3.2-1.7
		c1.1-0.2,2.1-0.8,2.9-1.7c0.5-0.9,0.7-2,0.5-3c-0.2-1-0.2-2-0.2-3c0.2-2.2,1.2-4.2,2.9-5.6c0.3-0.2,0.5-0.4,0.8-0.6
		c0.1-0.1,0.2-0.1,0.3-0.2c0,0-0.4,0.3-1,0.9c-0.9,0.9-1.6,1.9-2,3c-0.3,0.8-0.5,1.6-0.5,2.5c0,1,0.1,2,0.3,2.9
		c0.2,1.1,0.1,2.3-0.5,3.4c-0.8,0.9-1.9,1.6-3.1,1.9c-1.1,0.2-2.2,0.8-3,1.5c-0.6,0.8-0.8,1.9-0.5,2.9c0.3,1,0.5,2,0.5,3
		c0,0.5-0.2,1-0.5,1.4c-0.3,0.3-0.6,0.6-1,0.8c-0.7,0.4-1.4,0.6-1.9,1c-0.4,0.3-0.8,0.7-0.9,1.2C357.5,114,357.5,114.4,357.7,114.7z
		"/>
	<path class="st14" d="M384.9,95c-0.1,0-0.2-0.8-0.5-2c-0.5-1.6-1.4-3-2.6-4.2c-1.2-1.2-2.6-2-4.2-2.6c-1.2-0.4-2-0.5-2-0.5
		c0.7-0.1,1.4,0,2.1,0.2c3.5,0.9,6.2,3.6,7.1,7C384.9,93.5,385,94.3,384.9,95z"/>
	<path class="st14" d="M391,91.7c-0.4-0.8-0.8-1.6-1.3-2.4c-1.3-1.7-3.1-3-5.2-3.6c-2.1-0.6-4.3-0.8-6.5-0.5
		c-1.7,0.2-2.7,0.4-2.7,0.3c0.8-0.4,1.7-0.6,2.7-0.7c2.2-0.4,4.5-0.3,6.7,0.4c2.2,0.7,4.1,2,5.4,3.9c0.4,0.6,0.7,1.2,0.9,1.8
		C391,91.2,391,91.4,391,91.7z"/>
	<path class="st1" d="M377.7,83.9c0,0-0.2,0.5-0.8,1.1c-0.8,0.8-1.7,1.4-2.8,1.7c-1,0.4-2.1,0.5-3.3,0.4c-0.5,0-0.9-0.1-1.3-0.4
		c1.5,0.1,3-0.1,4.4-0.5C375.4,85.6,376.6,84.8,377.7,83.9z"/>
	<path class="st1" d="M383.1,224.6c-18.3-6.1-5.8-30.3-5.8-30.3l80,7.5c6.4-0.1,11.6,5.1,11.7,11.5c0,0,0,0.1,0,0.1l0,0
		c0,6.4-5.2,11.5-11.6,11.5L383.1,224.6"/>
	<path class="st1" d="M364.3,224.6c-17.8-6-5.5-30.3-5.5-30.3l78,7.4c7.6,0.1,11.3,3.8,11.3,11.5l0,0c0,6.4-2.4,11.8-11.3,11.6
		L364.3,224.6"/>
	<path class="st2" d="M382.5,198.4h0.2h0.7l2.5,0.1l9.2,0.5l30.3,1.7c1.5,0.1,2.9,0.2,4.4,0.2s2.9,0.1,4.3,0.2s2.8,0.2,4.1,0.3
		c1.3,0.1,2.6,0.4,3.9,0.8c1.2,0.5,2.3,1.2,3.3,2.1c0.9,0.9,1.6,2,2,3.2c0.4,1.1,0.7,2.2,0.8,3.4c0.1,1.1,0.2,2.1,0.2,3.2
		c0,1.9-0.3,3.7-1,5.4c-0.5,1.3-1.4,2.4-2.4,3.3c-0.6,0.6-1.4,1-2.2,1.2c-0.5,0.2-0.6,0.1,0-0.1c0.8-0.3,1.5-0.7,2.1-1.3
		c1-0.9,1.8-2,2.3-3.3c0.7-1.7,1-3.5,1-5.3c0-1.1-0.1-2.1-0.2-3.2c-0.1-1.1-0.4-2.3-0.8-3.3c-0.4-1.1-1.1-2.1-1.9-3
		c-0.9-0.9-2-1.6-3.1-2c-1.2-0.4-2.5-0.7-3.8-0.8c-1.3-0.1-2.7-0.2-4.1-0.3s-2.8-0.1-4.2-0.2s-2.9-0.1-4.4-0.2l-30.4-1.8l-9.2-0.6
		l-2.5-0.2l-0.7-0.1L382.5,198.4z"/>
	<path class="st4" d="M410.2,200l-6.4-3.1l-4.5-14.9l-0.4-19l9.1-3.8l-7.2-18c-1.3-2.7-4-9.7-10.8-12.1c-0.1-1,0-2,0.2-3
		c0.5-0.9-16.6-1.4-17.6-1.1s0.2,3.5,0,4c-6.1,1.7-12,4.2-14.2,12.6c-0.9,3.3-0.6,10.1-0.1,13.5l4.8,25.1l-2.7,8.3
		c0,0-9.3,19.5-5.8,27.1s9.6,9.3,9.6,9.3l46.6-0.1L410.2,200z"/>
	<g class="st8">
		<path d="M363.5,170.2c0.9,4,2,8,3.4,11.9c0.9,2.5,2.2,4.8,3.7,6.9c2.4,2.7,5.5,4.6,9,5.5c3.5,0.8,7.1,1,10.6,0.5l-17.6-10
			l-4.7-16.3L363.5,170.2z"/>
	</g>
	<path class="st1" d="M399.3,181.5c-0.1-0.4-0.1-0.9-0.1-1.4c0-0.9-0.1-2.2-0.2-3.7c-0.1-3.1-0.3-7.4-0.4-12.1s-0.3-9-0.3-12.1
		c0-1.5,0-2.7,0-3.7c0-0.4,0-0.9,0-1.4c0.1,0.4,0.1,0.9,0.1,1.3c0,0.9,0.1,2.2,0.2,3.7c0.1,3.1,0.3,7.4,0.4,12.1s0.3,9,0.3,12.1
		c0,1.5,0,2.7,0,3.7C399.3,180.5,399.3,181,399.3,181.5z"/>
	<path class="st1" d="M382.1,163.7c-0.1,0.1-0.2,0.1-0.3,0.1l-1,0.4l-3.8,1.4l-14.1,4.9l-0.2,0.1l0-0.2c-1-5.1-2.1-11.1-3.3-17.6
		l0,0l0,0c-0.2-3.2-0.8-6.5-0.6-10c0.1-0.8,0.3-1.7,0.7-2.5c0.3-0.8,0.7-1.5,1.2-2.2c0.9-1.4,2.2-2.5,3.7-3.2c2.9-1.4,6.3-1.1,8.8,1
		c1,1,1.8,2.2,2.3,3.6c0.5,1.2,1,2.5,1.4,3.8c0.7,2.5,1.3,4.8,1.9,6.9l2.5,10c0.3,1.1,0.5,2,0.7,2.7c0.1,0.3,0.1,0.5,0.2,0.7
		S382,163.7,382.1,163.7c-0.1-0.1-0.1-0.2-0.1-0.2c-0.1-0.2-0.1-0.4-0.2-0.7c-0.2-0.7-0.4-1.6-0.8-2.7c-0.7-2.4-1.6-5.8-2.7-9.9
		c-0.6-2.1-1.2-4.4-1.9-6.8c-0.4-1.3-0.8-2.5-1.4-3.7c-0.5-1.3-1.3-2.4-2.2-3.4c-2.3-1.9-5.6-2.2-8.2-0.9c-1.4,0.7-2.6,1.7-3.5,3
		c-0.4,0.7-0.8,1.4-1.1,2.1c-0.3,0.7-0.5,1.5-0.7,2.3c-0.3,3.4,0.3,6.7,0.5,9.9l0,0c1.2,6.5,2.3,12.5,3.2,17.6l-0.3-0.2l14-4.6
		l3.9-1.3l1-0.3L382.1,163.7z"/>
	<path class="st1" d="M368,168.4c-0.1,0-0.5-0.7-0.8-1.7s-0.5-1.9-0.3-1.9s0.5,0.7,0.8,1.7S368.2,168.3,368,168.4z"/>
	<path class="st1" d="M372.6,167.1c-0.1,0-0.5-0.7-0.7-1.7s-0.3-1.8-0.2-1.8s0.5,0.7,0.7,1.7S372.8,167,372.6,167.1z"/>
	<path class="st1" d="M377.3,165.4c-0.1,0-0.5-0.6-0.7-1.4s-0.3-1.5-0.2-1.5s0.4,0.6,0.7,1.4S377.4,165.4,377.3,165.4z"/>
	<path class="st1" d="M402.3,161.6c-0.1,0.1-0.7-0.6-1-1.6s-0.4-1.8-0.3-1.8s0.4,0.7,0.8,1.6S402.4,161.5,402.3,161.6z"/>
	<path class="st1" d="M405.8,159.6c-0.1,0.1-0.5-0.5-0.9-1.3s-0.6-1.5-0.5-1.5s0.5,0.5,0.9,1.3S405.9,159.5,405.8,159.6z"/>
	<path class="st1" d="M375.4,129.8c0,0,0.1,0.2,0.1,0.5h-0.3c-0.2-0.8-0.3-1.6-0.3-2.4c-0.2-0.9-0.2-1.9,0-2.9
		c0.3,0.9,0.5,1.9,0.5,2.8c0.1,0.8,0.1,1.6,0.1,2.4h-0.3C375.3,129.9,375.3,129.8,375.4,129.8z"/>
	<path class="st1" d="M379.5,129.8c-0.3-0.7-0.5-1.5-0.4-2.3c-0.1-0.8-0.1-1.6,0.1-2.4c0.3,0.7,0.5,1.5,0.4,2.3
		C379.8,128.2,379.7,129,379.5,129.8z"/>
	<path class="st1" d="M383.9,130.7c-0.3-0.9-0.4-1.9-0.3-2.8c-0.1-0.9,0-1.9,0.2-2.8c0.3,0.9,0.4,1.9,0.3,2.8
		C384.2,128.9,384.1,129.8,383.9,130.7z"/>
	<path class="st1" d="M387.5,130.1c-0.3-0.8-0.3-1.6-0.3-2.4c-0.1-0.8,0-1.6,0.3-2.4c0.3,0.8,0.4,1.6,0.3,2.4
		C387.8,128.6,387.7,129.4,387.5,130.1z"/>
	<path class="st1" d="M410.5,200.5c0,0.1-8.7-0.3-19.4-1.1s-19.4-1.4-19.3-1.6s8.7,0.3,19.4,1.1S410.5,200.4,410.5,200.5z"/>
	<path class="st9" d="M365.5,169.5l4.3,14c1.5,5.2,5.8,9.1,11.2,10.1l26.7,5.1l7.3-0.2l-2.5-6.2l-24.8-9.8c-2-0.5-3.5-2-4-3.9
		l-3.8-14L365.5,169.5z"/>
	<polygon class="st2" points="389.1,198.9 389.3,197.2 409.8,196.4 419.9,171 458.2,173.6 445.2,201.8 	"/>
	<path class="st6" d="M434.9,187.5c-0.6,0.9-1.8,1.2-2.8,0.6c-0.9-0.6-1.2-1.8-0.6-2.8c0.6-0.9,1.8-1.2,2.8-0.6
		C435.2,185.3,435.5,186.6,434.9,187.5C434.9,187.5,434.9,187.5,434.9,187.5z"/>
</g>
</svg>
