<svg width="120" height="120" viewBox="0 0 120 120" fill="none" xmlns="http://www.w3.org/2000/svg">
<path d="M82.6329 45.9341H80.7364V45.8364H59.5455V55.2545H72.8522C70.9108 60.7371 65.6943 64.6727 59.5455 64.6727C51.7437 64.6727 45.4182 58.3472 45.4182 50.5455C45.4182 42.7437 51.7437 36.4182 59.5455 36.4182C63.1467 36.4182 66.4231 37.7768 68.9177 39.9959L75.5776 33.3361C71.3723 29.4169 65.7473 27 59.5455 27C46.5425 27 36 37.5425 36 50.5455C36 63.5484 46.5425 74.0909 59.5455 74.0909C72.5484 74.0909 83.0909 63.5484 83.0909 50.5455C83.0909 48.9667 82.9284 47.4257 82.6329 45.9341Z" fill="#FFC107"/>
<path d="M38.7148 39.5862L46.4506 45.2595C48.5438 40.0771 53.6132 36.4182 59.5454 36.4182C63.1467 36.4182 66.4231 37.7768 68.9177 39.9959L75.5775 33.3361C71.3723 29.4169 65.7473 27 59.5454 27C50.5016 27 42.6586 32.1058 38.7148 39.5862Z" fill="#FF3D00"/>
<path d="M59.5454 74.0909C65.6272 74.0909 71.1534 71.7634 75.3315 67.9785L68.0442 61.8119C65.6008 63.6701 62.6151 64.6752 59.5454 64.6727C53.4213 64.6727 48.2213 60.7677 46.2623 55.3181L38.5841 61.2339C42.4809 68.8591 50.3945 74.0909 59.5454 74.0909Z" fill="#4CAF50"/>
<path d="M82.633 45.934H80.7364V45.8363H59.5455V55.2545H72.8522C71.9235 57.8638 70.2508 60.1439 68.0407 61.8131L68.0442 61.8107L75.3315 67.9773C74.8159 68.4459 83.0909 62.3182 83.0909 50.5454C83.0909 48.9667 82.9284 47.4257 82.633 45.934Z" fill="#1976D2"/>
<path d="M43.092 80.6154C42.84 80.1301 42.49 79.7661 42.042 79.5234C41.594 79.2714 41.076 79.1454 40.488 79.1454C39.844 79.1454 39.27 79.2901 38.766 79.5794C38.262 79.8687 37.8653 80.2794 37.576 80.8114C37.296 81.3434 37.156 81.9594 37.156 82.6594C37.156 83.3594 37.296 83.9801 37.576 84.5214C37.8653 85.0534 38.262 85.4641 38.766 85.7534C39.27 86.0427 39.844 86.1874 40.488 86.1874C41.356 86.1874 42.0607 85.9447 42.602 85.4594C43.1433 84.9741 43.4747 84.3161 43.596 83.4854H39.942V82.2114H45.304V83.4574C45.2013 84.2134 44.9307 84.9087 44.492 85.5434C44.0627 86.1781 43.498 86.6867 42.798 87.0694C42.1073 87.4427 41.3373 87.6294 40.488 87.6294C39.5733 87.6294 38.738 87.4194 37.982 86.9994C37.226 86.5701 36.624 85.9774 36.176 85.2214C35.7373 84.4654 35.518 83.6114 35.518 82.6594C35.518 81.7074 35.7373 80.8534 36.176 80.0974C36.624 79.3414 37.226 78.7534 37.982 78.3334C38.7473 77.9041 39.5827 77.6894 40.488 77.6894C41.524 77.6894 42.4433 77.9461 43.246 78.4594C44.058 78.9634 44.646 79.6821 45.01 80.6154H43.092ZM53.7208 87.6434C53.0675 87.6434 52.4795 87.5314 51.9568 87.3074C51.4342 87.0741 51.0235 86.7474 50.7248 86.3274C50.4262 85.9074 50.2768 85.4174 50.2768 84.8574H51.9848C52.0222 85.2774 52.1855 85.6227 52.4748 85.8934C52.7735 86.1641 53.1888 86.2994 53.7208 86.2994C54.2715 86.2994 54.7008 86.1687 55.0088 85.9074C55.3168 85.6367 55.4708 85.2914 55.4708 84.8714C55.4708 84.5447 55.3728 84.2787 55.1768 84.0734C54.9902 83.8681 54.7522 83.7094 54.4628 83.5974C54.1828 83.4854 53.7908 83.3641 53.2868 83.2334C52.6522 83.0654 52.1342 82.8974 51.7328 82.7294C51.3408 82.5521 51.0048 82.2814 50.7248 81.9174C50.4448 81.5534 50.3048 81.0681 50.3048 80.4614C50.3048 79.9014 50.4448 79.4114 50.7248 78.9914C51.0048 78.5714 51.3968 78.2494 51.9008 78.0254C52.4048 77.8014 52.9882 77.6894 53.6508 77.6894C54.5935 77.6894 55.3635 77.9274 55.9608 78.4034C56.5675 78.8701 56.9035 79.5141 56.9688 80.3354H55.2048C55.1768 79.9807 55.0088 79.6774 54.7008 79.4254C54.3928 79.1734 53.9868 79.0474 53.4828 79.0474C53.0255 79.0474 52.6522 79.1641 52.3628 79.3974C52.0735 79.6307 51.9288 79.9667 51.9288 80.4054C51.9288 80.7041 52.0175 80.9514 52.1948 81.1474C52.3815 81.3341 52.6148 81.4834 52.8948 81.5954C53.1748 81.7074 53.5575 81.8287 54.0428 81.9594C54.6868 82.1367 55.2095 82.3141 55.6108 82.4914C56.0215 82.6687 56.3668 82.9441 56.6468 83.3174C56.9362 83.6814 57.0808 84.1714 57.0808 84.7874C57.0808 85.2821 56.9455 85.7487 56.6748 86.1874C56.4135 86.6261 56.0262 86.9807 55.5128 87.2514C55.0088 87.5127 54.4115 87.6434 53.7208 87.6434ZM65.9501 79.8314V87.5454H64.3541V86.6354C64.1021 86.9527 63.7707 87.2047 63.3601 87.3914C62.9587 87.5687 62.5294 87.6574 62.0721 87.6574C61.4654 87.6574 60.9194 87.5314 60.4341 87.2794C59.9581 87.0274 59.5801 86.6541 59.3001 86.1594C59.0294 85.6647 58.8941 85.0674 58.8941 84.3674V79.8314H60.4761V84.1294C60.4761 84.8201 60.6487 85.3521 60.9941 85.7254C61.3394 86.0894 61.8107 86.2714 62.4081 86.2714C63.0054 86.2714 63.4767 86.0894 63.8221 85.7254C64.1767 85.3521 64.3541 84.8201 64.3541 84.1294V79.8314H65.9501ZM68.8679 78.8094C68.5785 78.8094 68.3359 78.7114 68.1399 78.5154C67.9439 78.3194 67.8459 78.0767 67.8459 77.7874C67.8459 77.4981 67.9439 77.2554 68.1399 77.0594C68.3359 76.8634 68.5785 76.7654 68.8679 76.7654C69.1479 76.7654 69.3859 76.8634 69.5819 77.0594C69.7779 77.2554 69.8759 77.4981 69.8759 77.7874C69.8759 78.0767 69.7779 78.3194 69.5819 78.5154C69.3859 78.7114 69.1479 78.8094 68.8679 78.8094ZM69.6519 79.8314V87.5454H68.0559V79.8314H69.6519ZM73.6093 81.1334V85.4034C73.6093 85.6927 73.6746 85.9027 73.8053 86.0334C73.9453 86.1547 74.1786 86.2154 74.5053 86.2154H75.4853V87.5454H74.2253C73.5066 87.5454 72.9559 87.3774 72.5733 87.0414C72.1906 86.7054 71.9993 86.1594 71.9993 85.4034V81.1334H71.0893V79.8314H71.9993V77.9134H73.6093V79.8314H75.4853V81.1334H73.6093ZM84.0263 83.4994C84.0263 83.7887 84.0076 84.0501 83.9703 84.2834H78.0763C78.1229 84.8994 78.3516 85.3941 78.7623 85.7674C79.1729 86.1407 79.6769 86.3274 80.2743 86.3274C81.1329 86.3274 81.7396 85.9681 82.0943 85.2494H83.8162C83.5829 85.9587 83.1583 86.5421 82.5423 86.9994C81.9356 87.4474 81.1796 87.6714 80.2743 87.6714C79.5369 87.6714 78.8743 87.5081 78.2863 87.1814C77.7076 86.8454 77.2503 86.3787 76.9143 85.7814C76.5876 85.1747 76.4243 84.4747 76.4243 83.6814C76.4243 82.8881 76.5829 82.1927 76.9003 81.5954C77.2269 80.9887 77.6796 80.5221 78.2583 80.1954C78.8463 79.8687 79.5183 79.7054 80.2743 79.7054C81.0023 79.7054 81.6509 79.8641 82.2203 80.1814C82.7896 80.4987 83.2329 80.9467 83.5503 81.5254C83.8676 82.0947 84.0263 82.7527 84.0263 83.4994ZM82.3603 82.9954C82.3509 82.4074 82.1409 81.9361 81.7303 81.5814C81.3196 81.2267 80.8109 81.0494 80.2043 81.0494C79.6536 81.0494 79.1823 81.2267 78.7903 81.5814C78.3983 81.9267 78.1649 82.3981 78.0903 82.9954H82.3603Z" fill="#5B5B5B"/>
</svg>
