<svg width="120" height="120" viewBox="0 0 120 120" fill="none" xmlns="http://www.w3.org/2000/svg">
<path d="M48.249 27L36 35.996L48.249 44.9921L60.4999 35.996L48.249 27ZM72.7499 27L60.4999 35.9968L72.7499 44.9937L85 35.9968L72.7499 27ZM36 53.9896L48.249 62.9858L60.4999 53.9896L48.249 44.9937L36 53.9896ZM72.7499 44.9937L60.4999 53.9905L72.7499 62.9871L84.9998 53.9905L72.7499 44.9937ZM48.25 66.0038L60.5009 75L72.7499 66.0038L60.5009 57.0079L48.25 66.0038Z" fill="#0061FF"/>
<path d="M34.228 78.27C35.264 78.27 36.1693 78.4707 36.944 78.872C37.728 79.264 38.33 79.8333 38.75 80.58C39.1793 81.3173 39.394 82.1807 39.394 83.17C39.394 84.1593 39.1793 85.018 38.75 85.746C38.33 86.474 37.728 87.034 36.944 87.426C36.1693 87.8087 35.264 88 34.228 88H31.05V78.27H34.228ZM34.228 86.698C35.3667 86.698 36.2393 86.39 36.846 85.774C37.4527 85.158 37.756 84.29 37.756 83.17C37.756 82.0407 37.4527 81.1587 36.846 80.524C36.2393 79.8893 35.3667 79.572 34.228 79.572H32.646V86.698H34.228ZM42.5718 81.406C42.8051 81.014 43.1131 80.7107 43.4958 80.496C43.8878 80.272 44.3498 80.16 44.8818 80.16V81.812H44.4758C43.8504 81.812 43.3744 81.9707 43.0478 82.288C42.7304 82.6053 42.5718 83.156 42.5718 83.94V88H40.9758V80.286H42.5718V81.406ZM49.6948 88.126C48.9668 88.126 48.3088 87.9627 47.7208 87.636C47.1328 87.3 46.6708 86.8333 46.3348 86.236C45.9988 85.6293 45.8308 84.9293 45.8308 84.136C45.8308 83.352 46.0035 82.6567 46.3488 82.05C46.6942 81.4433 47.1655 80.9767 47.7628 80.65C48.3602 80.3233 49.0275 80.16 49.7648 80.16C50.5022 80.16 51.1695 80.3233 51.7668 80.65C52.3642 80.9767 52.8355 81.4433 53.1808 82.05C53.5262 82.6567 53.6988 83.352 53.6988 84.136C53.6988 84.92 53.5215 85.6153 53.1668 86.222C52.8122 86.8287 52.3268 87.3 51.7108 87.636C51.1042 87.9627 50.4322 88.126 49.6948 88.126ZM49.6948 86.74C50.1055 86.74 50.4882 86.642 50.8428 86.446C51.2068 86.25 51.5008 85.956 51.7248 85.564C51.9488 85.172 52.0608 84.696 52.0608 84.136C52.0608 83.576 51.9535 83.1047 51.7388 82.722C51.5242 82.33 51.2395 82.036 50.8848 81.84C50.5302 81.644 50.1475 81.546 49.7368 81.546C49.3262 81.546 48.9435 81.644 48.5888 81.84C48.2435 82.036 47.9682 82.33 47.7628 82.722C47.5575 83.1047 47.4548 83.576 47.4548 84.136C47.4548 84.9667 47.6648 85.6107 48.0848 86.068C48.5142 86.516 49.0508 86.74 49.6948 86.74ZM56.8726 81.42C57.1432 81.0653 57.5119 80.7667 57.9786 80.524C58.4452 80.2813 58.9726 80.16 59.5606 80.16C60.2326 80.16 60.8439 80.328 61.3946 80.664C61.9546 80.9907 62.3932 81.4527 62.7106 82.05C63.0279 82.6473 63.1866 83.3333 63.1866 84.108C63.1866 84.8827 63.0279 85.578 62.7106 86.194C62.3932 86.8007 61.9546 87.2767 61.3946 87.622C60.8439 87.958 60.2326 88.126 59.5606 88.126C58.9726 88.126 58.4499 88.0093 57.9926 87.776C57.5352 87.5333 57.1619 87.2347 56.8726 86.88V91.668H55.2766V80.286H56.8726V81.42ZM61.5626 84.108C61.5626 83.576 61.4506 83.1187 61.2266 82.736C61.0119 82.344 60.7226 82.05 60.3586 81.854C60.0039 81.6487 59.6212 81.546 59.2106 81.546C58.8092 81.546 58.4266 81.6487 58.0626 81.854C57.7079 82.0593 57.4186 82.358 57.1946 82.75C56.9799 83.142 56.8726 83.604 56.8726 84.136C56.8726 84.668 56.9799 85.1347 57.1946 85.536C57.4186 85.928 57.7079 86.2267 58.0626 86.432C58.4266 86.6373 58.8092 86.74 59.2106 86.74C59.6212 86.74 60.0039 86.6373 60.3586 86.432C60.7226 86.2173 61.0119 85.9093 61.2266 85.508C61.4506 85.1067 61.5626 84.64 61.5626 84.108ZM66.3608 81.434C66.6315 81.0607 67.0002 80.7573 67.4668 80.524C67.9428 80.2813 68.4702 80.16 69.0488 80.16C69.7302 80.16 70.3462 80.3233 70.8968 80.65C71.4475 80.9767 71.8815 81.4433 72.1988 82.05C72.5162 82.6473 72.6748 83.3333 72.6748 84.108C72.6748 84.8827 72.5162 85.578 72.1988 86.194C71.8815 86.8007 71.4428 87.2767 70.8828 87.622C70.3322 87.958 69.7208 88.126 69.0488 88.126C68.4515 88.126 67.9195 88.0093 67.4528 87.776C66.9955 87.5427 66.6315 87.244 66.3608 86.88V88H64.7648V77.64H66.3608V81.434ZM71.0508 84.108C71.0508 83.576 70.9388 83.1187 70.7148 82.736C70.5002 82.344 70.2108 82.05 69.8468 81.854C69.4922 81.6487 69.1095 81.546 68.6988 81.546C68.2975 81.546 67.9148 81.6487 67.5508 81.854C67.1962 82.0593 66.9068 82.358 66.6828 82.75C66.4682 83.142 66.3608 83.604 66.3608 84.136C66.3608 84.668 66.4682 85.1347 66.6828 85.536C66.9068 85.928 67.1962 86.2267 67.5508 86.432C67.9148 86.6373 68.2975 86.74 68.6988 86.74C69.1095 86.74 69.4922 86.6373 69.8468 86.432C70.2108 86.2173 70.5002 85.9093 70.7148 85.508C70.9388 85.1067 71.0508 84.64 71.0508 84.108ZM77.5991 88.126C76.8711 88.126 76.2131 87.9627 75.6251 87.636C75.0371 87.3 74.5751 86.8333 74.2391 86.236C73.9031 85.6293 73.7351 84.9293 73.7351 84.136C73.7351 83.352 73.9078 82.6567 74.2531 82.05C74.5985 81.4433 75.0698 80.9767 75.6671 80.65C76.2645 80.3233 76.9318 80.16 77.6691 80.16C78.4065 80.16 79.0738 80.3233 79.6711 80.65C80.2685 80.9767 80.7398 81.4433 81.0851 82.05C81.4305 82.6567 81.6031 83.352 81.6031 84.136C81.6031 84.92 81.4258 85.6153 81.0711 86.222C80.7165 86.8287 80.2311 87.3 79.6151 87.636C79.0085 87.9627 78.3365 88.126 77.5991 88.126ZM77.5991 86.74C78.0098 86.74 78.3925 86.642 78.7471 86.446C79.1111 86.25 79.4051 85.956 79.6291 85.564C79.8531 85.172 79.9651 84.696 79.9651 84.136C79.9651 83.576 79.8578 83.1047 79.6431 82.722C79.4285 82.33 79.1438 82.036 78.7891 81.84C78.4345 81.644 78.0518 81.546 77.6411 81.546C77.2305 81.546 76.8478 81.644 76.4931 81.84C76.1478 82.036 75.8725 82.33 75.6671 82.722C75.4618 83.1047 75.3591 83.576 75.3591 84.136C75.3591 84.9667 75.5691 85.6107 75.9891 86.068C76.4185 86.516 76.9551 86.74 77.5991 86.74ZM86.4849 84.094L88.9769 88H87.1709L85.5049 85.382L83.9369 88H82.2709L84.7629 84.206L82.2709 80.286H84.0769L85.7429 82.904L87.3109 80.286H88.9769L86.4849 84.094Z" fill="#0061FF"/>
</svg>
