<svg width="120" height="120" viewBox="0 0 120 120" fill="none" xmlns="http://www.w3.org/2000/svg">
<path d="M45.9276 56.7691C45.9276 59.5061 43.7174 61.7183 40.9826 61.7183C38.2477 61.7183 36.0375 59.5061 36.0375 56.7691C36.0375 54.0322 38.2477 51.8202 40.9827 51.8202H45.9275V56.7692L45.9276 56.7691ZM48.4003 56.7691C48.4003 54.0322 50.6105 51.8202 53.3454 51.8202C56.0802 51.8202 58.2905 54.0322 58.2905 56.7692V69.1417C58.2905 71.8787 56.0802 74.0909 53.3452 74.0909C50.6107 74.0909 48.4003 71.8787 48.4003 69.1417V56.7692V56.7691Z" fill="#E01E5A"/>
<path d="M53.3453 36.898C50.6105 36.898 48.4001 34.686 48.4001 31.949C48.4001 29.212 50.6107 27 53.3453 27C56.08 27 58.2904 29.212 58.2904 31.949V36.8982H53.3451L53.3453 36.898ZM53.3453 39.4101C56.0802 39.4101 58.2904 41.6221 58.2904 44.3591C58.2904 47.0961 56.0802 49.3081 53.3451 49.3081H40.9453C38.2103 49.3081 36 47.0961 36 44.3589C36 41.6223 38.2103 39.4101 40.9451 39.4101H53.3451H53.3453Z" fill="#36C5F0"/>
<path d="M73.1633 44.3591C73.1633 41.6221 75.3736 39.4099 78.1082 39.4099C80.8431 39.4099 83.0535 41.6221 83.0535 44.3591C83.0535 47.0961 80.8431 49.3081 78.1082 49.3081H73.1633V44.3589V44.3591ZM70.6907 44.3591C70.6907 47.0961 68.4802 49.3081 65.7454 49.3081C63.0108 49.3081 60.8005 47.0961 60.8005 44.3589V31.9492C60.8005 29.212 63.0108 27 65.7454 27C68.4801 27 70.6905 29.212 70.6905 31.949V44.3589L70.6907 44.3591Z" fill="#2EB67D"/>
<path d="M65.7454 64.1929C68.4802 64.1929 70.6907 66.4049 70.6907 69.1417C70.6907 71.8787 68.4802 74.0909 65.7454 74.0909C63.0108 74.0909 60.8005 71.8787 60.8005 69.1417V64.1929H65.7456H65.7454ZM65.7454 61.7183C63.0108 61.7183 60.8005 59.5061 60.8005 56.7691C60.8005 54.0322 63.0108 51.8202 65.7456 51.8202H78.1457C80.8805 51.8202 83.0909 54.0322 83.0909 56.7692C83.0909 59.5061 80.8805 61.7183 78.1457 61.7183H65.7456H65.7454Z" fill="#ECB22E"/>
<path d="M46.2105 87.6434C45.5572 87.6434 44.9692 87.5314 44.4465 87.3074C43.9239 87.0741 43.5132 86.7474 43.2145 86.3274C42.9159 85.9074 42.7665 85.4174 42.7665 84.8574H44.4745C44.5119 85.2774 44.6752 85.6227 44.9645 85.8934C45.2632 86.1641 45.6785 86.2994 46.2105 86.2994C46.7612 86.2994 47.1905 86.1687 47.4985 85.9074C47.8065 85.6367 47.9605 85.2914 47.9605 84.8714C47.9605 84.5447 47.8625 84.2787 47.6665 84.0734C47.4799 83.8681 47.2419 83.7094 46.9525 83.5974C46.6725 83.4854 46.2805 83.3641 45.7765 83.2334C45.1419 83.0654 44.6239 82.8974 44.2225 82.7294C43.8305 82.5521 43.4945 82.2814 43.2145 81.9174C42.9345 81.5534 42.7945 81.0681 42.7945 80.4614C42.7945 79.9014 42.9345 79.4114 43.2145 78.9914C43.4945 78.5714 43.8865 78.2494 44.3905 78.0254C44.8945 77.8014 45.4779 77.6894 46.1405 77.6894C47.0832 77.6894 47.8532 77.9274 48.4505 78.4034C49.0572 78.8701 49.3932 79.5141 49.4585 80.3354H47.6945C47.6665 79.9807 47.4985 79.6774 47.1905 79.4254C46.8825 79.1734 46.4765 79.0474 45.9725 79.0474C45.5152 79.0474 45.1419 79.1641 44.8525 79.3974C44.5632 79.6307 44.4185 79.9667 44.4185 80.4054C44.4185 80.7041 44.5072 80.9514 44.6845 81.1474C44.8712 81.3341 45.1045 81.4834 45.3845 81.5954C45.6645 81.7074 46.0472 81.8287 46.5325 81.9594C47.1765 82.1367 47.6992 82.3141 48.1005 82.4914C48.5112 82.6687 48.8565 82.9441 49.1365 83.3174C49.4259 83.6814 49.5705 84.1714 49.5705 84.7874C49.5705 85.2821 49.4352 85.7487 49.1645 86.1874C48.9032 86.6261 48.5159 86.9807 48.0025 87.2514C47.4985 87.5127 46.9012 87.6434 46.2105 87.6434ZM53.0497 77.1854V87.5454H51.4537V77.1854H53.0497ZM54.6132 83.6534C54.6132 82.8787 54.7718 82.1927 55.0892 81.5954C55.4158 80.9981 55.8545 80.5361 56.4052 80.2094C56.9652 79.8734 57.5812 79.7054 58.2532 79.7054C58.8598 79.7054 59.3872 79.8267 59.8352 80.0694C60.2925 80.3027 60.6565 80.5967 60.9272 80.9514V79.8314H62.5372V87.5454H60.9272V86.3974C60.6565 86.7614 60.2878 87.0647 59.8212 87.3074C59.3545 87.5501 58.8225 87.6714 58.2252 87.6714C57.5625 87.6714 56.9558 87.5034 56.4052 87.1674C55.8545 86.8221 55.4158 86.3461 55.0892 85.7394C54.7718 85.1234 54.6132 84.4281 54.6132 83.6534ZM60.9272 83.6814C60.9272 83.1494 60.8152 82.6874 60.5912 82.2954C60.3765 81.9034 60.0918 81.6047 59.7372 81.3994C59.3825 81.1941 58.9998 81.0914 58.5892 81.0914C58.1785 81.0914 57.7958 81.1941 57.4412 81.3994C57.0865 81.5954 56.7972 81.8894 56.5732 82.2814C56.3585 82.6641 56.2512 83.1214 56.2512 83.6534C56.2512 84.1854 56.3585 84.6521 56.5732 85.0534C56.7972 85.4547 57.0865 85.7627 57.4412 85.9774C57.8052 86.1827 58.1878 86.2854 58.5892 86.2854C58.9998 86.2854 59.3825 86.1827 59.7372 85.9774C60.0918 85.7721 60.3765 85.4734 60.5912 85.0814C60.8152 84.6801 60.9272 84.2134 60.9272 83.6814ZM64.1014 83.6814C64.1014 82.8881 64.2601 82.1927 64.5774 81.5954C64.9041 80.9887 65.3521 80.5221 65.9214 80.1954C66.4908 79.8687 67.1441 79.7054 67.8814 79.7054C68.8148 79.7054 69.5848 79.9294 70.1914 80.3774C70.8074 80.8161 71.2228 81.4461 71.4374 82.2674H69.7154C69.5754 81.8847 69.3514 81.5861 69.0434 81.3714C68.7354 81.1567 68.3481 81.0494 67.8814 81.0494C67.2281 81.0494 66.7054 81.2827 66.3134 81.7494C65.9308 82.2067 65.7394 82.8507 65.7394 83.6814C65.7394 84.5121 65.9308 85.1607 66.3134 85.6274C66.7054 86.0941 67.2281 86.3274 67.8814 86.3274C68.8054 86.3274 69.4168 85.9214 69.7154 85.1094H71.4374C71.2134 85.8934 70.7934 86.5187 70.1774 86.9854C69.5614 87.4427 68.7961 87.6714 67.8814 87.6714C67.1441 87.6714 66.4908 87.5081 65.9214 87.1814C65.3521 86.8454 64.9041 86.3787 64.5774 85.7814C64.2601 85.1747 64.1014 84.4747 64.1014 83.6814ZM76.08 83.6954L79.636 87.5454H77.48L74.624 84.2274V87.5454H73.028V77.1854H74.624V83.2054L77.424 79.8314H79.636L76.08 83.6954Z" fill="black"/>
</svg>
