<?xml version="1.0" encoding="utf-8"?>
<!-- Generator: Adobe Illustrator 19.0.0, SVG Export Plug-In . SVG Version: 6.00 Build 0)  -->
<svg version="1.1" id="Layer_1" xmlns="http://www.w3.org/2000/svg" xmlns:xlink="http://www.w3.org/1999/xlink" x="0px" y="0px"
	 viewBox="0 0 32 32" style="enable-background:new 0 0 32 32;" xml:space="preserve">
<style type="text/css">
	.st0{fill:#0A69AD;}
</style>
<path id="XMLID_4_" class="st0" d="M2,7.1c-2.8,4.1-2.5,9.4-0.3,13.7c0.1,0.1,0.1,0.2,0.2,0.3c0,0.1,0.1,0.1,0.1,0.2
	c0,0,0,0.1,0.1,0.1c0,0.1,0.1,0.1,0.1,0.2c0.1,0.1,0.1,0.2,0.2,0.3c0,0.1,0.1,0.1,0.1,0.2c0.1,0.1,0.2,0.3,0.2,0.4
	c0,0.1,0.1,0.1,0.1,0.2c0.1,0.2,0.2,0.3,0.3,0.5c0,0,0,0,0,0c0,0,0,0,0.1,0.1c0.1,0.2,0.2,0.3,0.3,0.4c0,0,0.1,0.1,0.1,0.2
	C3.8,24,3.9,24.2,4,24.3c0,0,0.1,0.1,0.1,0.1c0.1,0.2,0.3,0.3,0.4,0.5c0,0,0,0,0,0c0,0,0,0,0,0c0.1,0.2,0.3,0.3,0.4,0.4
	c0,0,0.1,0.1,0.1,0.1c0.1,0.1,0.2,0.2,0.3,0.3c0,0,0.1,0.1,0.1,0.1c0.1,0.1,0.3,0.3,0.5,0.4c0,0,0,0,0,0c0,0,0.1,0,0.1,0.1
	c0.1,0.1,0.3,0.2,0.4,0.3c0.1,0,0.1,0.1,0.2,0.1C6.8,27,6.9,27.1,7,27.2c0.1,0,0.1,0.1,0.2,0.1c0.1,0.1,0.3,0.2,0.4,0.3
	c0,0,0.1,0.1,0.1,0.1c0,0,0,0,0,0C7.9,27.8,8,27.9,8.1,28c0.1,0,0.1,0.1,0.2,0.1c0.2,0.1,0.4,0.2,0.6,0.4c0.1,0,0.1,0.1,0.2,0.1
	c0.1,0.1,0.3,0.2,0.4,0.2c0.1,0,0.2,0.1,0.2,0.1C9.8,29,9.9,29,10,29.1c0,0,0,0,0.1,0c0,0,0.1,0,0.1,0.1c0.2,0.1,0.3,0.2,0.5,0.2
	c0,0,0.1,0,0.1,0c0.2,0.1,0.4,0.2,0.6,0.2c0,0,0.1,0,0.1,0.1c0.2,0.1,0.4,0.1,0.5,0.2c0,0,0,0,0.1,0c0.2,0.1,0.4,0.1,0.6,0.2
	c0,0,0.1,0,0.1,0c0.2,0.1,0.4,0.1,0.6,0.2c13.7,2.5,17.7-8.2,17.7-8.2c-3.3,4.4-9.3,5.5-14.9,4.2c-0.2,0-0.4-0.1-0.6-0.2
	c-0.1,0-0.1,0-0.2,0c-0.2-0.1-0.4-0.1-0.6-0.2c0,0-0.1,0-0.1,0c-0.2-0.1-0.4-0.1-0.5-0.2c0,0-0.1,0-0.1-0.1
	c-0.2-0.1-0.4-0.2-0.6-0.2c0,0-0.1,0-0.1,0c-0.2-0.1-0.3-0.2-0.5-0.2c0,0-0.1,0-0.1-0.1c-0.1-0.1-0.2-0.1-0.4-0.2
	c-0.1,0-0.2-0.1-0.3-0.1c-0.2-0.1-0.3-0.2-0.4-0.3c-0.1,0-0.1-0.1-0.2-0.1c-0.2-0.1-0.4-0.2-0.6-0.4C11,24,10.9,24,10.9,24
	c-0.1-0.1-0.3-0.2-0.4-0.3c0,0-0.1-0.1-0.1-0.1c-0.1-0.1-0.3-0.2-0.4-0.3c-0.1,0-0.1-0.1-0.2-0.1c-0.1-0.1-0.2-0.2-0.4-0.3
	c-0.1,0-0.1-0.1-0.2-0.1c-0.2-0.1-0.3-0.3-0.4-0.4c0,0,0,0,0,0c-0.2-0.1-0.3-0.3-0.5-0.4c0,0-0.1-0.1-0.1-0.1
	c-0.1-0.1-0.2-0.2-0.3-0.3c0,0-0.1-0.1-0.1-0.1c-0.1-0.1-0.3-0.3-0.4-0.4c0,0,0,0,0,0c-0.1-0.2-0.3-0.3-0.4-0.5c0,0-0.1-0.1-0.1-0.1
	c-0.1-0.1-0.2-0.2-0.3-0.4c0,0-0.1-0.1-0.1-0.1c-0.1-0.2-0.2-0.3-0.3-0.5C2.9,15.1,1.7,9.2,4.2,4.4"/>
<path id="XMLID_3_" class="st0" d="M10.8,3.7c-2,3-1.9,6.9-0.3,10c0.3,0.5,0.6,1,0.9,1.5c0.3,0.5,0.6,1,1.1,1.3
	c0.1,0.2,0.3,0.3,0.5,0.5c0,0,0.1,0.1,0.1,0.1c0.2,0.2,0.3,0.3,0.5,0.4c0,0,0,0,0,0c0,0,0,0,0,0c0.2,0.2,0.4,0.3,0.5,0.5
	c0,0,0.1,0.1,0.1,0.1c0.2,0.2,0.4,0.3,0.6,0.4c0,0,0,0,0,0c0.1,0.1,0.2,0.1,0.3,0.2c0,0,0.1,0.1,0.1,0.1c0.1,0.1,0.3,0.2,0.4,0.3
	c0,0,0,0,0.1,0c0.1,0.1,0.2,0.2,0.4,0.2c0,0,0.1,0,0.1,0.1c0.1,0,0.2,0.1,0.3,0.1c0,0,0,0,0,0c0.2,0.1,0.4,0.2,0.5,0.3
	c0,0,0.1,0,0.1,0.1c0.1,0.1,0.3,0.1,0.4,0.2c0.1,0,0.1,0,0.2,0.1c0.1,0.1,0.3,0.1,0.4,0.1c0.1,0,0.1,0,0.2,0.1
	c0.2,0.1,0.4,0.1,0.6,0.2c10.6,1.7,13-6.4,13-6.4c-2.2,3.2-6.5,4.7-11,3.5c-0.2,0-0.4-0.1-0.6-0.2c-0.1,0-0.1,0-0.2-0.1
	c-0.1,0-0.3-0.1-0.4-0.1c-0.1,0-0.1,0-0.2-0.1c-0.2-0.1-0.3-0.1-0.5-0.2c0,0-0.1,0-0.1,0c-0.2-0.1-0.4-0.2-0.5-0.3
	c-0.1,0-0.2-0.1-0.3-0.1c-0.1,0-0.1-0.1-0.2-0.1c-0.1-0.1-0.2-0.1-0.4-0.2c0,0-0.1,0-0.1,0c-0.1-0.1-0.3-0.2-0.4-0.3
	c0,0-0.1-0.1-0.1-0.1c-0.1-0.1-0.2-0.1-0.3-0.2c-0.2-0.1-0.4-0.3-0.6-0.4c0,0-0.1-0.1-0.1-0.1c-2-1.6-3.6-3.7-4.3-6.2
	c-0.8-2.5-0.6-5.4,0.7-7.7"/>
<path id="XMLID_2_" class="st0" d="M18.2,1.1c-1.2,1.8-1.3,4-0.5,6c0.9,2.1,2.7,3.7,4.8,4.5c0.1,0,0.2,0.1,0.3,0.1c0,0,0.1,0,0.1,0
	c0.1,0,0.2,0.1,0.4,0.1c5.8,1.1,7.4-3,7.8-3.6c-1.4,2-3.7,2.5-6.6,1.8c-0.2-0.1-0.5-0.1-0.7-0.2c-0.3-0.1-0.6-0.2-0.8-0.3
	c-0.5-0.2-1-0.5-1.4-0.9c-2.6-1.9-4.2-5.6-2.5-8.7"/>
</svg>
