<?xml version="1.0" encoding="utf-8"?>
<!-- Generator: Adobe Illustrator 19.0.0, SVG Export Plug-In . SVG Version: 6.00 Build 0)  -->
<svg version="1.1" id="Layer_1" xmlns="http://www.w3.org/2000/svg" xmlns:xlink="http://www.w3.org/1999/xlink" x="0px" y="0px"
	 viewBox="0 0 32 32" style="enable-background:new 0 0 32 32;" xml:space="preserve">
<style type="text/css">
	.st0{fill:#F2992F;}
	.st1{fill:#FFFFFF;}
</style>
<g id="XMLID_2_">
	<rect id="XMLID_4_" x="0" y="0" class="st0" width="32" height="32"/>
	<path id="XMLID_3_" class="st1" d="M22,25c-0.7,0.7-2.3,1.2-3.7,1.3h-0.2c-4.8,0-5.9-3.6-5.9-5.6v-5.8h-1.9c-0.2,0-0.4-0.2-0.4-0.4
		l0,0v-2.7c0-0.3,0.2-0.5,0.5-0.6c2.5-0.9,3.3-3,3.4-4.7c0-0.4,0.3-0.7,0.6-0.7h2.8c0.2,0,0.4,0.2,0.4,0.4v4.6h3.3
		c0.2,0,0.4,0.2,0.4,0.4v3.3c0,0.2-0.2,0.4-0.4,0.4h-3.3v5.3c0,1.3,0.9,1.7,1.4,1.7c0.5,0,1-0.2,1.3-0.3c0.2-0.1,0.4-0.1,0.5-0.1
		c0.1,0,0.2,0.1,0.3,0.3l0.9,2.6C22.1,24.6,22.2,24.8,22,25z"/>
</g>
</svg>
