<?xml version="1.0" encoding="utf-8"?>
<!-- Generator: Adobe Illustrator 19.0.0, SVG Export Plug-In . SVG Version: 6.00 Build 0)  -->
<svg version="1.1" id="Layer_1" xmlns="http://www.w3.org/2000/svg" xmlns:xlink="http://www.w3.org/1999/xlink" x="0px" y="0px"
	 viewBox="0 0 32 32" style="enable-background:new 0 0 32 32;" xml:space="preserve">
<style type="text/css">
	.st0{fill:#6770B5;}
	.st1{fill:#FFFFFF;}
</style>
<rect id="XMLID_3_" class="st0" width="32" height="32"/>
<path id="XMLID_2_" class="st1" d="M14.6,12c0-0.8,0.7-1.2,1.8-1.2c1.6,0,3.7,0.5,5.4,1.4V7.2c-1.8-0.7-3.6-1-5.4-1
	c-4.4,0-7.3,2.3-7.3,6.1c0,6,8.2,5,8.2,7.6c0,1-0.9,1.3-2.1,1.3c-1.8,0-4.1-0.7-5.9-1.7v5.1c2,0.9,4,1.2,5.9,1.2
	c4.5,0,7.6-2.2,7.6-6.1C22.8,13.3,14.6,14.4,14.6,12z"/>
</svg>
