<?xml version="1.0" encoding="utf-8"?>
<!-- Generator: Adobe Illustrator 19.0.0, SVG Export Plug-In . SVG Version: 6.00 Build 0)  -->
<svg version="1.1" id="Layer_1" xmlns="http://www.w3.org/2000/svg" xmlns:xlink="http://www.w3.org/1999/xlink" x="0px" y="0px"
	 viewBox="0 0 32 32" style="enable-background:new 0 0 32 32;" xml:space="preserve">
<style type="text/css">
	.st0{fill:none;}
	.st1{fill:#3FB870;}
	.st2{fill:#FFFFFF;}
</style>
<g id="XMLID_2_">
	<path id="XMLID_5_" class="st0" d="M32,4.1v12"/>
	<path id="XMLID_4_" class="st1" d="M16,0h12c2.3,0,4,1.8,4,4v12c0,8.8-7.1,16-16,16H16c-8.8,0-16-7.1-16-16C0,7.3,7.1,0.1,16,0z"/>
	<path id="XMLID_3_" class="st2" d="M16,7.2c-4,0-7.3,3.3-7.3,7.3v5c0,1.3,1.1,2.4,2.4,2.4h2.1v-5.7h-2.8v-1.6
		c0.1-3.2,2.8-5.6,5.9-5.4c3,0.1,5.3,2.5,5.4,5.4v1.6h-2.8v5.7h1.9V22c0,1.2-1,2.3-2.3,2.3h-2.3c-0.2,0-0.4,0.1-0.4,0.3
		c0,0.2,0.2,0.4,0.4,0.4h2.3c1.6,0,2.9-1.3,2.9-2.9v-0.2c1.1-0.3,1.9-1.2,1.9-2.3v-4.9C23.4,10.5,20.1,7.2,16,7.2z"/>
</g>
</svg>
