<?xml version="1.0" encoding="utf-8"?>
<!-- Generator: Adobe Illustrator 19.0.0, SVG Export Plug-In . SVG Version: 6.00 Build 0)  -->
<svg version="1.1" id="Layer_1" xmlns="http://www.w3.org/2000/svg" xmlns:xlink="http://www.w3.org/1999/xlink" x="0px" y="0px"
	 viewBox="0 0 32 32" style="enable-background:new 0 0 32 32;" xml:space="preserve">
<style type="text/css">
	.st0{fill:#F15640;}
</style>
<path id="XMLID_2_" class="st0" d="M31.9,10.3c-0.2-0.2-3.1-3.9-3.7-4.5c-0.5-0.6-0.8-0.5-1.1-0.5c-0.3,0-4,0.7-4.5,0.7
	c-0.4,0.1-0.7,0.2-0.4,0.6c0.2,0.3,2.7,3.8,3.2,4.6l-9.7,2.3L8.1,0.7C7.8,0.2,7.7,0.1,7,0.1c-0.7,0-6,0.5-6.4,0.5
	c-0.4,0-0.8,0.2-0.4,1.1s6.5,14,6.6,14.4c0.2,0.4,0.6,1,1.6,0.8c1.1-0.2,4.7-1.2,6.7-1.7c1.1,1.9,3.2,5.8,3.6,6.4
	c0.5,0.7,0.9,0.6,1.7,0.4c0.6-0.2,10-3.6,10.4-3.7c0.4-0.2,0.7-0.3,0.4-0.7c-0.2-0.3-2.7-3.6-4-5.3c0.9-0.2,4-1.1,4.4-1.2
	C32,10.7,32.1,10.6,31.9,10.3z M14.3,13.9c-0.1,0-5.5,1.3-5.8,1.4s-0.3,0-0.3-0.1c0-0.1-6.5-13.3-6.5-13.5c-0.1-0.2-0.1-0.3,0-0.3
	S6.7,1,6.9,1C7.1,1,7,1,7.1,1.1c0,0,7.1,12.3,7.2,12.5C14.5,13.8,14.4,13.9,14.3,13.9z M29.6,16.8c0.1,0.1,0.2,0.2-0.1,0.3
	c-0.3,0.1-9.2,3.1-9.4,3.2c-0.2,0.1-0.3,0.1-0.5-0.2c-0.2-0.3-3.1-5.3-3.1-5.3l9.4-2.5c0.2-0.1,0.3-0.1,0.5,0.1
	C26.5,12.6,29.5,16.6,29.6,16.8z M30.2,10.1c-0.2,0-3.7,0.9-3.7,0.9l-2.8-3.9c-0.1-0.1-0.1-0.2,0.1-0.3c0.2,0,3.4-0.6,3.6-0.6
	c0.1,0,0.3-0.1,0.5,0.2c0.2,0.2,2.6,3.3,2.7,3.5C30.5,10,30.4,10,30.2,10.1z"/>
</svg>
