<?xml version="1.0" encoding="utf-8"?>
<!-- Generator: Adobe Illustrator 19.0.0, SVG Export Plug-In . SVG Version: 6.00 Build 0)  -->
<svg version="1.1" id="Layer_1" xmlns="http://www.w3.org/2000/svg" xmlns:xlink="http://www.w3.org/1999/xlink" x="0px" y="0px"
	 viewBox="0 0 32 32" style="enable-background:new 0 0 32 32;" xml:space="preserve">
<style type="text/css">
	.st0{fill:#1C6DB6;}
</style>
<g id="XMLID_2_">
	<path id="XMLID_6_" class="st0" d="M15.3,10.2h-1.7v5.3h1.2c1.2,0,2-0.2,2.6-0.7c0.6-0.5,0.9-1.1,0.9-2c0-0.9-0.2-1.5-0.7-2
		C17.1,10.4,16.4,10.2,15.3,10.2z"/>
	<path id="XMLID_3_" class="st0" d="M0,0v32h32V0H0z M20.4,17c-1.2,1-2.9,1.5-5.1,1.5h-1.6v6.4H9.8V7.1h5.7c2.2,0,3.8,0.5,4.9,1.4
		c1.1,0.9,1.7,2.3,1.7,4.2C22.2,14.6,21.6,16,20.4,17z"/>
</g>
</svg>
