<?xml version="1.0" encoding="utf-8"?>
<!-- Generator: Adobe Illustrator 19.0.0, SVG Export Plug-In . SVG Version: 6.00 Build 0)  -->
<svg version="1.1" id="Layer_1" xmlns="http://www.w3.org/2000/svg" xmlns:xlink="http://www.w3.org/1999/xlink" x="0px" y="0px"
	 viewBox="0 0 32 32" style="enable-background:new 0 0 32 32;" xml:space="preserve">
<style type="text/css">
	.st0{fill:#FFFFFF;}
	.st1{fill:#A5A284;}
	.st2{fill:#58AA50;}
	.st3{fill:#499D49;}
</style>
<g id="XMLID_2_">
	<g id="XMLID_3_">
		<g id="XMLID_4_">
			<path id="XMLID_10_" class="st0" d="M8.8,32l-1-0.3c0,0,0.1-4.3-1.6-4.7c-1.2-1.2,0.2-51.1,4.4-0.2c0,0-1.4,0.6-1.7,1.7
				C8.6,29.7,8.8,32,8.8,32L8.8,32L8.8,32z"/>
			<path id="XMLID_9_" class="st1" d="M8.8,32l-1-0.3c0,0,0.1-4.3-1.6-4.7c-1.2-1.2,0.2-51.1,4.4-0.2c0,0-1.4,0.6-1.7,1.7
				C8.6,29.7,8.8,32,8.8,32L8.8,32L8.8,32z"/>
			<path id="XMLID_8_" class="st0" d="M9.3,27.8c0,0,8.3-4.9,6.4-15.1C13.8,5.3,9.4,2.9,8.9,1.9c-0.5-0.7-1-1.8-1-1.8l0.3,20.6
				C8.2,20.7,7.5,27,9.3,27.8"/>
			<path id="XMLID_7_" class="st0" d="M7.4,28.1c0,0-7.8-4.8-7.4-13.2c0.4-8.4,6-12.6,7-13.3C7.7,0.9,7.8,0.7,7.8,0
				c0.5,0.9,0.4,14,0.5,15.5C8.5,21.4,7.9,27,7.4,28.1L7.4,28.1L7.4,28.1z"/>
			<path id="XMLID_6_" class="st2" d="M7.4,28.1c0,0-7.8-4.8-7.4-13.2c0.4-8.4,6-12.6,7-13.3C7.7,0.9,7.8,0.7,7.8,0
				c0.5,0.9,0.4,14,0.5,15.5C8.5,21.4,7.9,27,7.4,28.1L7.4,28.1L7.4,28.1z"/>
			<path id="XMLID_5_" class="st3" d="M9.3,27.8c0,0,8.3-4.9,6.4-15.1C13.8,5.3,9.4,2.9,8.9,1.9c-0.5-0.7-1-1.8-1-1.8l0.3,20.6
				C8.2,20.7,7.5,27,9.3,27.8"/>
		</g>
	</g>
</g>
</svg>
