<?xml version="1.0" encoding="utf-8"?>
<!-- Generator: Adobe Illustrator 19.0.0, SVG Export Plug-In . SVG Version: 6.00 Build 0)  -->
<svg version="1.1" id="Layer_1" xmlns="http://www.w3.org/2000/svg" xmlns:xlink="http://www.w3.org/1999/xlink" x="0px" y="0px"
	 viewBox="0 0 32 32" style="enable-background:new 0 0 32 32;" xml:space="preserve">
<style type="text/css">
	.st0{fill:#0C75BA;}
</style>
<g id="XMLID_4_">
	<path id="XMLID_5_" class="st0" d="M17.6,8.1l6,6l-2.1,2.1l-1.9-1.9V15v11.4c0,1.4,0.2,5.5-7.4,5.5c-8.7,0-8.4-4.5-8.4-6.4v-0.4
		h4.6v0.4c0,1.2,0.2,3.2,3.8,3.2c3.6,0,3.6-2,3.6-2.8V15v-0.7l-2,1.9l-2.1-2.1L17.6,8.1z"/>
</g>
<g id="XMLID_2_">
	<path id="XMLID_3_" class="st0" d="M11.5,0c8.7,0,8.4,4.5,8.4,6.4v0.4h-4.6V6.4c0-1.2-0.2-3.2-3.8-3.2c-3.6,0-3.6,2-3.6,2.8V17v0.7
		l2-1.9l2.1,2.1l-6,6l-6-6l2.1-2.1l1.9,2V17V5.5C4.1,4.1,3.9,0,11.5,0z"/>
</g>
</svg>
