<?xml version="1.0" encoding="utf-8"?>
<!-- Generator: Adobe Illustrator 19.0.0, SVG Export Plug-In . SVG Version: 6.00 Build 0)  -->
<svg version="1.1" id="Layer_1" xmlns="http://www.w3.org/2000/svg" xmlns:xlink="http://www.w3.org/1999/xlink" x="0px" y="0px"
	 viewBox="0 0 32 32" style="enable-background:new 0 0 32 32;" xml:space="preserve">
<style type="text/css">
	.st0{fill:#40A459;}
	.st1{fill:#388C4F;}
	.st2{fill:#8A8891;}
	.st3{fill:#7A7A80;}
	.st4{fill:#4A99D3;}
	.st5{fill:#2C80C3;}
	.st6{fill:#FFFFFF;}
	.st7{fill:#E1E0E3;}
	.st8{fill:#FECF0A;}
	.st9{fill:#CC2F27;}
	.st10{fill:#88211A;}
</style>
<g id="XMLID_2_">
	<circle id="XMLID_14_" class="st0" cx="16" cy="16" r="16"/>
	<path id="XMLID_13_" class="st1" d="M16,0c-0.1,0-0.2,0-0.4,0c0,0-0.1,0-0.1,0c-0.1,0-0.2,0-0.3,0c0,0-0.1,0-0.1,0
		c-0.1,0-0.2,0-0.3,0c0,0-0.1,0-0.1,0c-0.1,0-0.2,0-0.3,0c-0.1,0-0.1,0-0.2,0c-0.1,0-0.1,0-0.2,0c-0.1,0-0.1,0-0.2,0
		c7.8,1,13.9,7.7,13.9,15.8c0,8.1-6.1,14.8-13.9,15.8c0.1,0,0.1,0,0.2,0c0.1,0,0.1,0,0.2,0c0.1,0,0.1,0,0.2,0c0.1,0,0.2,0,0.3,0
		c0,0,0.1,0,0.1,0c0.1,0,0.2,0,0.3,0c0,0,0.1,0,0.1,0c0.1,0,0.2,0,0.3,0c0,0,0.1,0,0.1,0c0.1,0,0.2,0,0.4,0c8.8,0,16-7.1,16-16
		C31.9,7.2,24.8,0,16,0z"/>
	<path id="XMLID_12_" class="st2" d="M13.9,14.6l6.7-3.8c0,0,7.3,1.5,9-1.5l0.5-1l0.5,1c1,2.1,1.5,4.4,1.5,6.7
		c0,5.3-2.6,10.2-7,13.2l-0.5,0.3L13.9,14.6z"/>
	<path id="XMLID_11_" class="st3" d="M31.9,16c0-2.8-0.7-5.4-1.9-7.6l-0.5,0.9c-0.6,1.1-1.4,2.2-2.1,3.2c0.3,1.1,0.4,2.3,0.4,3.6
		c0,4.5-1.8,8.5-4.8,11.4l1.5,2.2C29,26.7,31.9,21.7,31.9,16z"/>
	<path id="XMLID_10_" class="st4" d="M16,32c-5.5,0-10.5-2.8-13.5-7.4l-0.3-0.4l8.9-7.5l10.2,14.4l-0.7,0.2C19.2,31.8,17.6,32,16,32
		z"/>
	<path id="XMLID_9_" class="st5" d="M21.4,31.1l-1.1-1.5c-1.9,1.2-4.1,2.1-6.4,2.4C14.6,32,15.3,32,16,32
		C17.9,32,19.7,31.7,21.4,31.1z"/>
	<path id="XMLID_8_" class="st6" d="M11.1,16.7l2.8-2.1l10.7,14.9L24,29.8c-0.7,0.4-1.5,0.8-2.3,1.1l-0.4,0.2L11.1,16.7z"/>
	<path id="XMLID_7_" class="st7" d="M21.3,31.1c1.1-0.4,2.2-0.9,3.2-1.6L23,27.4c-0.8,0.8-1.8,1.6-2.8,2.2L21.3,31.1z"/>
	<path id="XMLID_6_" class="st8" d="M1.9,23.7c-0.4-0.8-0.8-1.6-1.1-2.5l-0.1-0.5l18.7-13l2.8,2.1l-20,14.4L1.9,23.7z"/>
	<path id="XMLID_5_" class="st9" d="M23.9,15.6c-1-1-5.9-6.3-5.9-9.4C18,2.8,20.8,0,24.3,0s6.3,2.8,6.3,6.3c0,3.1-4.9,8.3-5.9,9.4
		l0,0C24.5,15.9,24.1,15.9,23.9,15.6L23.9,15.6z"/>
	<path id="XMLID_4_" class="st10" d="M24.3,8.4c-1.6,0-2.8-1.3-2.8-2.8s1.3-2.8,2.8-2.8c1.5,0,2.8,1.3,2.8,2.8
		C27.1,7.1,25.8,8.4,24.3,8.4z"/>
	<path id="XMLID_3_" class="st6" d="M9,11.7c1.8,0,3.3-1.5,3.3-3.3c0-0.3-0.2-0.5-0.5-0.5H9.7c-0.3,0-0.5,0.2-0.5,0.5
		s0.2,0.5,0.5,0.5h1.5c-0.2,1-1.1,1.7-2.2,1.7c-1.2,0-2.3-1-2.3-2.3s1-2.3,2.3-2.3c0.6,0,1.1,0.2,1.5,0.6c0.2,0.2,0.5,0.2,0.7,0
		c0.2-0.2,0.2-0.5,0-0.7C10.6,5.4,9.8,5.1,9,5.1c-1.8,0-3.3,1.5-3.3,3.3C5.7,10.2,7.2,11.7,9,11.7z"/>
</g>
</svg>
