<?xml version="1.0" encoding="utf-8"?>
<!-- Generator: Adobe Illustrator 19.0.0, SVG Export Plug-In . SVG Version: 6.00 Build 0)  -->
<svg version="1.1" id="Layer_1" xmlns="http://www.w3.org/2000/svg" xmlns:xlink="http://www.w3.org/1999/xlink" x="0px" y="0px"
	 viewBox="0 0 32 32" style="enable-background:new 0 0 32 32;" xml:space="preserve">
<style type="text/css">
	.st0{clip-path:url(#SVGID_1_);fill:url(#XMLID_11_);}
</style>
<g id="XMLID_2_">
	<g id="XMLID_3_">
		<g id="XMLID_4_">
			<g id="XMLID_5_">
				<g id="XMLID_6_">
					<g id="XMLID_7_">
						<defs>
							<path id="SVGID_4_" d="M4.4,6.1c0-1.4,0.5-2,2-2h6.3c4.1,0,6.4,1,6.4,6.1c0,4-1,6.2-6.4,6.2H4.4V6.1z M5.5,0
								C1.7,0,0,1.7,0,5.5V30c0,1.5,0.5,2,1.9,2h0.5c1.5,0,1.9-0.5,1.9-2v-9.5l8.3,0c7.4,0,10.8-3.3,10.8-10.3S20,0,12.7,0H5.5
								L5.5,0z"/>
						</defs>
						<clipPath id="SVGID_1_">
							<use xlink:href="#SVGID_4_"  style="overflow:visible;"/>
						</clipPath>
						
							<linearGradient id="XMLID_11_" gradientUnits="userSpaceOnUse" x1="-553.6219" y1="-163.3284" x2="-553.2377" y2="-163.3284" gradientTransform="matrix(0 110.1712 110.1712 0 18013.8887 61001.8203)">
							<stop  offset="0" style="stop-color:#BACE32"/>
							<stop  offset="1" style="stop-color:#438F42"/>
						</linearGradient>
						<polyline id="XMLID_8_" class="st0" points="0,41.6 0,0 39.6,0.1 						"/>
					</g>
				</g>
			</g>
		</g>
	</g>
</g>
</svg>
