<?xml version="1.0" encoding="utf-8"?>
<!-- Generator: Adobe Illustrator 19.0.0, SVG Export Plug-In . SVG Version: 6.00 Build 0)  -->
<svg version="1.1" id="Layer_1" xmlns="http://www.w3.org/2000/svg" xmlns:xlink="http://www.w3.org/1999/xlink" x="0px" y="0px"
	 viewBox="0 0 32 32" style="enable-background:new 0 0 32 32;" xml:space="preserve">
<style type="text/css">
	.st0{fill:#573E7D;}
	.st1{fill:#FFFFFF;}
</style>
<g id="XMLID_6_">
	<path id="XMLID_4_" class="st0" d="M0,27.9C0,30.2,1.8,32,4.1,32h23.7c2.3,0,4.1-1.8,4.1-4.1V4.1C32,1.8,30.2,0,27.9,0H4.1
		C1.8,0,0,1.8,0,4.1V27.9z"/>
	<path id="XMLID_7_" class="st1" d="M13.3,14.2V9.6h4c0.4,0,0.7,0,1.1,0.1c0.4,0.1,0.7,0.2,0.9,0.3c0.3,0.2,0.5,0.4,0.6,0.7
		c0.2,0.3,0.2,0.7,0.2,1.1c0,0.8-0.2,1.4-0.7,1.8c-0.5,0.4-1.1,0.5-1.9,0.5H13.3L13.3,14.2z M9,6.3v19.4h9.4c0.9,0,1.7-0.1,2.5-0.3
		c0.8-0.2,1.6-0.6,2.2-1c0.6-0.5,1.1-1,1.5-1.7c0.4-0.7,0.6-1.6,0.6-2.5c0-1.2-0.3-2.2-0.9-3.1c-0.6-0.9-1.5-1.5-2.7-1.8
		c0.9-0.4,1.5-1,2-1.6c0.4-0.7,0.7-1.5,0.7-2.4c0-0.9-0.1-1.7-0.4-2.3c-0.3-0.6-0.7-1.1-1.3-1.5c-0.5-0.4-1.2-0.6-2-0.8
		c-0.8-0.2-1.6-0.2-2.5-0.2L9,6.3L9,6.3z M13.3,22.4v-5.3h4.6c0.9,0,1.7,0.2,2.2,0.6c0.6,0.4,0.8,1.1,0.8,2.1c0,0.5-0.1,0.9-0.3,1.2
		c-0.2,0.3-0.4,0.6-0.7,0.8c-0.3,0.2-0.6,0.3-1,0.4c-0.4,0.1-0.8,0.1-1.2,0.1L13.3,22.4L13.3,22.4z"/>
</g>
</svg>
