<?xml version="1.0" encoding="utf-8"?>
<!-- Generator: Adobe Illustrator 19.0.0, SVG Export Plug-In . SVG Version: 6.00 Build 0)  -->
<svg version="1.1" id="Layer_1" xmlns="http://www.w3.org/2000/svg" xmlns:xlink="http://www.w3.org/1999/xlink" x="0px" y="0px"
	 viewBox="0 0 32 32" style="enable-background:new 0 0 32 32;" xml:space="preserve">
<style type="text/css">
	.st0{fill:#FFFFFF;}
	.st1{fill:#C8C7C7;}
	.st2{fill:#557CBE;}
	.st3{fill:#4466B0;}
</style>
<g id="XMLID_2_">
	<path id="XMLID_15_" class="st0" d="M8.5,1.2c0.2,0,0.5,0,0.7,0.1C9.6,1.4,9.8,1.7,9.9,2c0,0.2,0,0.5-0.1,0.7
		C9.6,3.2,9,3.5,8.5,3.4C8,3.3,7.6,2.8,7.7,2.3C7.6,1.8,8,1.3,8.5,1.2"/>
	<path id="XMLID_14_" class="st0" d="M23,1.2c0.2,0,0.5,0,0.7,0.1c0.4,0.2,0.6,0.6,0.7,1c0,0.3-0.1,0.6-0.3,0.9
		c-0.2,0.2-0.5,0.3-0.8,0.3c-0.4,0-0.9-0.3-1.1-0.7c-0.1-0.2-0.1-0.5-0.1-0.7C22.2,1.6,22.6,1.3,23,1.2"/>
	<path id="XMLID_13_" class="st0" d="M21.6,18.3c0.6,0,1.1,0,1.7,0c0,2.3,0,4.6,0,6.8c-0.6,0-1.1,0-1.7,0
		C21.6,22.9,21.6,20.6,21.6,18.3"/>
	<path id="XMLID_9_" class="st1" d="M3,0.2C3.3,0,3.7,0,4.1,0c8,0,16.1,0,24.1,0c0.9,0,1.7,0.5,2.1,1.3c0.1,0.3,0.2,0.7,0.2,1
		c0,0.8,0,1.6,0,2.3c-0.3-0.1-0.5-0.1-0.8-0.1c-9.1,0-18.2,0-27.3,0c-0.3,0-0.6,0-0.9,0.1c0-0.8,0-1.6,0-2.4C1.6,1.4,2.1,0.5,3,0.2
		 M8.5,1.2C8,1.3,7.6,1.8,7.7,2.3c0,0.5,0.4,1,0.9,1.1C9,3.5,9.6,3.2,9.8,2.8C9.9,2.5,9.9,2.3,9.9,2C9.8,1.7,9.6,1.4,9.2,1.2
		C9,1.1,8.8,1.1,8.5,1.2 M23,1.2c-0.4,0.1-0.8,0.4-0.8,0.9c0,0.2,0,0.5,0.1,0.7c0.2,0.4,0.6,0.7,1.1,0.7c0.3,0,0.6-0.1,0.8-0.3
		c0.2-0.2,0.3-0.5,0.3-0.9c0-0.4-0.3-0.8-0.7-1C23.5,1.1,23.3,1.1,23,1.2"/>
	<path id="XMLID_8_" class="st1" d="M22.9,11.5c0.1-0.1,0.3-0.1,0.4,0c0,2.3,0,4.6,0,6.9v0c-0.6,0-1.1,0-1.7,0v0c0-1.6,0-3.2,0-4.7
		c-1.1,0.4-2.3,0.8-3.4,1.1c0-0.5,0-1,0-1.5C19.7,12.6,21.3,12,22.9,11.5"/>
	<path id="XMLID_7_" class="st1" d="M8.9,12.3c0.7-0.5,1.6-0.8,2.5-0.9c0.9,0,1.8,0.1,2.6,0.6c0.6,0.4,1.1,0.9,1.4,1.6
		c0.3,0.7,0.3,1.4,0.3,2.1c-0.2,1.1-1,2-2,2.5c0.1,0,0.3,0.1,0.4,0.2c-0.1,0-0.2,0-0.3,0c-1.2,0-2.4,0-3.6,0c0-0.3,0-0.5,0-0.8
		c0.9,0,1.8,0.1,2.6-0.3c0.7-0.3,1.2-0.9,1.2-1.6c0.1-0.7,0-1.4-0.4-2c-0.3-0.5-0.9-0.7-1.4-0.8c-0.7-0.1-1.5,0-2.1,0.4
		c-0.6,0.4-0.9,1.2-0.9,1.9c-0.6,0-1.1,0-1.7,0c0-0.3,0-0.6,0.1-0.9C7.8,13.4,8.3,12.8,8.9,12.3"/>
	<path id="XMLID_6_" class="st2" d="M1.6,4.7c0.3-0.1,0.6-0.1,0.9-0.1c9.1,0,18.2,0,27.3,0c0.3,0,0.6,0,0.8,0.1
		c0.8,0.3,1.4,1,1.5,1.9c-0.2-0.6-0.5-1.1-1-1.4c-0.4-0.2-0.8-0.4-1.3-0.4c-9.1,0-18.2,0-27.4,0C1.7,4.7,1,5,0.6,5.6
		C0.3,5.8,0.2,6.1,0.1,6.4C0.2,5.6,0.8,5,1.6,4.7"/>
	<path id="XMLID_5_" class="st2" d="M21.5,18.3L21.5,18.3L21.5,18.3c0,2.3,0,4.6,0,6.9c0.6,0,1.1,0,1.7,0c0-2.3,0-4.6,0-6.8v0l0,0
		c0.3,0,0.5,0,0.8,0c2.1,0,4.3,0,6.4,0c0.3,3.6,0.5,7.2,0.7,10.8c0,0.4,0.1,0.8,0,1.2l0,0c-0.1,0.1-0.2,0.3-0.2,0.4
		c-0.4,0.7-1.2,1.1-1.9,1.1c-8.6,0-17.1,0-25.7,0c-0.3,0-0.5,0-0.8-0.1c-0.6-0.2-1.1-0.5-1.4-1.1C1,30.6,1,30.4,0.9,30.3l0,0
		c-0.1-0.5,0-1.1,0-1.6c0.2-3.5,0.5-6.9,0.7-10.4c2.9,0,5.7,0,8.6,0c0,0.2,0,0.3,0,0.5c0.9,0,1.9-0.1,2.7,0.3
		c0.6,0.2,1.1,0.7,1.2,1.3c0.2,0.7,0.2,1.4-0.1,2c-0.2,0.6-0.8,1.1-1.4,1.3c-0.8,0.2-1.6,0.2-2.3-0.1c-0.6-0.2-1-0.7-1.2-1.3
		C9.1,22,9,21.7,9,21.4c-0.5,0-1.1,0-1.6,0c0,0.7,0.2,1.4,0.6,2c0.4,0.6,1,1.1,1.8,1.4c0.9,0.3,1.9,0.4,2.8,0.3
		c0.9-0.1,1.8-0.6,2.4-1.3c0.6-0.6,0.9-1.5,0.9-2.3c0.1-0.8-0.1-1.7-0.6-2.3c-0.3-0.4-0.7-0.7-1.1-0.9c0.2,0,0.4,0,0.6,0
		c2,0,4,0,6.1,0C21,18.3,21.3,18.3,21.5,18.3"/>
	<path id="XMLID_4_" class="st3" d="M0.6,5.6C1,5,1.7,4.7,2.4,4.8c9.1,0,18.2,0,27.4,0c0.4,0,0.9,0.1,1.3,0.4c0.5,0.3,0.9,0.9,1,1.4
		c0,0.2,0,0.4,0,0.6c-0.5,3.7-1,7.4-1.5,11.1c-2.1,0-4.1,0-6.2,0c-0.3,0-0.7,0-1,0l0,0c0-2.3,0-4.6,0-6.9c-0.1,0-0.3,0-0.4,0
		c-1.6,0.6-3.2,1.1-4.8,1.7c0,0.5,0,1,0,1.5c1.1-0.4,2.3-0.8,3.4-1.1c0,1.6,0,3.2,0,4.7l0,0c-2.4,0-4.8,0-7.2,0c-0.1,0-0.2,0-0.4,0
		c-0.1-0.1-0.3-0.1-0.4-0.2c1-0.4,1.9-1.4,2-2.5c0.1-0.7,0-1.4-0.3-2.1c-0.3-0.7-0.8-1.2-1.4-1.6c-0.8-0.5-1.7-0.6-2.6-0.6
		c-0.9,0-1.8,0.3-2.5,0.9c-0.6,0.5-1.1,1.2-1.3,1.9c-0.1,0.3-0.1,0.6-0.1,0.9c0.6,0,1.1,0,1.7,0c0-0.7,0.3-1.5,0.9-1.9
		c0.6-0.4,1.4-0.5,2.1-0.4c0.5,0.1,1.1,0.3,1.4,0.8c0.4,0.6,0.5,1.3,0.4,2c-0.1,0.7-0.6,1.3-1.2,1.6c-0.8,0.4-1.7,0.3-2.6,0.3h0
		c0,0.3,0,0.5,0,0.8c-2.9,0-5.7,0-8.6,0c-0.5-3.6-1-7.3-1.5-10.9C0,7.1,0,6.7,0.1,6.4C0.2,6.1,0.3,5.8,0.6,5.6"/>
	<path id="XMLID_3_" class="st3" d="M0.9,30.3C1,30.4,1,30.6,1.1,30.7c0.3,0.5,0.8,0.9,1.4,1.1c0.3,0.1,0.5,0.1,0.8,0.1
		c8.6,0,17.1,0,25.7,0c0.8,0,1.5-0.4,1.9-1.1c0.1-0.1,0.1-0.3,0.2-0.4c-0.2,0.7-0.8,1.3-1.5,1.6C29.3,32,28.9,32,28.4,32
		c-8.3,0-16.7,0-25,0c-0.3,0-0.7,0-1-0.1C1.7,31.7,1.1,31.1,0.9,30.3"/>
</g>
</svg>
