<?xml version="1.0" encoding="utf-8"?>
<!-- Generator: Adobe Illustrator 19.0.0, SVG Export Plug-In . SVG Version: 6.00 Build 0)  -->
<svg version="1.1" id="Layer_1" xmlns="http://www.w3.org/2000/svg" xmlns:xlink="http://www.w3.org/1999/xlink" x="0px" y="0px"
	 viewBox="0 0 32 32" style="enable-background:new 0 0 32 32;" xml:space="preserve">
<style type="text/css">
	.st0{fill:#E1A42C;}
	.st1{fill:#3AB188;}
	.st2{fill:#CE245D;}
	.st3{fill:#392538;}
	.st4{fill:#BD282A;}
	.st5{fill:#75C5CD;}
	.st6{fill:#288E75;}
	.st7{fill:#65823A;}
</style>
<g id="XMLID_2_">
	<path id="XMLID_10_" class="st0" d="M20.8,2c-0.5-1.5-2.1-2.3-3.6-1.8c-1.5,0.5-2.3,2.1-1.8,3.6l7.4,22.7c0.5,1.4,2,2.2,3.5,1.8
		c1.5-0.4,2.4-2,1.9-3.5C28.1,24.6,20.8,2,20.8,2"/>
	<path id="XMLID_9_" class="st1" d="M9.3,5.7C8.8,4.2,7.2,3.4,5.7,3.8C4.2,4.3,3.4,5.9,3.9,7.4l7.4,22.7c0.5,1.4,2,2.2,3.5,1.8
		c1.5-0.4,2.4-2,2-3.5C16.7,28.3,9.3,5.7,9.3,5.7"/>
	<path id="XMLID_8_" class="st2" d="M30,20.7c1.5-0.5,2.3-2.1,1.8-3.6c-0.5-1.5-2.1-2.3-3.6-1.8L5.6,22.7c-1.4,0.5-2.2,2-1.8,3.5
		c0.4,1.5,2,2.4,3.5,1.9C7.4,28.1,30,20.7,30,20.7"/>
	<path id="XMLID_7_" class="st3" d="M10.3,27.2c1.5-0.5,3.4-1.1,5.4-1.8C15.3,23.9,14.6,22,14,20l-5.4,1.8L10.3,27.2"/>
	<path id="XMLID_6_" class="st4" d="M21.7,23.4c2-0.7,4-1.3,5.4-1.8c-0.5-1.5-1.1-3.4-1.8-5.4L20,18L21.7,23.4"/>
	<path id="XMLID_5_" class="st5" d="M26.3,9.3c1.5-0.5,2.3-2.1,1.8-3.6c-0.5-1.5-2.1-2.3-3.6-1.8L1.9,11.3c-1.4,0.5-2.2,2-1.8,3.5
		c0.4,1.5,2,2.4,3.5,1.9C3.7,16.7,26.3,9.3,26.3,9.3"/>
	<path id="XMLID_4_" class="st6" d="M6.6,15.7C8.1,15.3,10,14.6,12,14c-0.7-2.1-1.3-4-1.8-5.4l-5.4,1.8L6.6,15.7"/>
	<path id="XMLID_3_" class="st7" d="M18,12c2-0.7,4-1.3,5.4-1.8c-0.7-2.1-1.3-4-1.8-5.4l-5.4,1.8L18,12"/>
</g>
</svg>
