<?xml version="1.0" encoding="utf-8"?>
<!-- Generator: Adobe Illustrator 19.0.0, SVG Export Plug-In . SVG Version: 6.00 Build 0)  -->
<svg version="1.1" id="Layer_1" xmlns="http://www.w3.org/2000/svg" xmlns:xlink="http://www.w3.org/1999/xlink" x="0px" y="0px"
	 viewBox="0 0 32 32" style="enable-background:new 0 0 32 32;" xml:space="preserve">
<style type="text/css">
	.st0{fill:#54C1DE;}
</style>
<path id="XMLID_3_" class="st0" d="M26.3,9.2c-0.3-0.1-0.7-0.2-1-0.3c0.1-0.2,0.1-0.5,0.2-0.7c0.8-3.8,0.3-6.8-1.5-7.8
	c-1.7-1-4.4,0-7.2,2.4C16.6,3,16.3,3.3,16,3.5c-0.2-0.2-0.4-0.3-0.5-0.5C12.6,0.5,9.7-0.6,8,0.4c-1.7,1-2.2,3.8-1.5,7.4
	c0.1,0.3,0.1,0.7,0.2,1.1C6.3,9,5.9,9.1,5.6,9.2c-3.4,1.2-5.6,3-5.6,5c0,2,2.3,4,5.9,5.2c0.3,0.1,0.6,0.2,0.9,0.3
	c-0.1,0.4-0.2,0.8-0.3,1.1c-0.7,3.5-0.1,6.3,1.5,7.3c1.7,1,4.6,0,7.4-2.5c0.2-0.2,0.4-0.4,0.7-0.6c0.3,0.3,0.6,0.5,0.9,0.8
	c2.7,2.3,5.4,3.3,7.1,2.3c1.7-1,2.3-4,1.5-7.7c-0.1-0.3-0.1-0.6-0.2-0.9c0.2-0.1,0.4-0.1,0.6-0.2c3.7-1.2,6.1-3.2,6.1-5.2
	C32,12.3,29.8,10.4,26.3,9.2z M17.7,3.8c2.4-2.1,4.6-2.9,5.6-2.3c1.1,0.6,1.5,3.1,0.8,6.4c0,0.2-0.1,0.4-0.1,0.6
	c-1.3-0.3-2.8-0.5-4.3-0.7c-0.9-1.2-1.8-2.4-2.7-3.4C17.2,4.3,17.5,4,17.7,3.8z M10.2,14.2c0.4-0.9,0.9-1.7,1.4-2.6l0,0
	c0.5-0.8,1-1.7,1.6-2.5c1-0.1,1.9-0.1,2.9-0.1l0,0c1,0,2,0,2.9,0.1c0.5,0.8,1,1.6,1.5,2.5c0.5,0.9,1,1.7,1.4,2.6
	c-0.4,0.8-0.9,1.7-1.4,2.6c-0.5,0.9-1,1.7-1.5,2.5C18,19.3,17,19.4,16,19.4c-1,0-2,0-2.9-0.1c-0.5-0.8-1.1-1.6-1.6-2.5l0,0
	C11.1,15.9,10.6,15.1,10.2,14.2z M9.5,15.8c0.3,0.6,0.6,1.1,0.9,1.7l0,0c0.3,0.6,0.7,1.1,1,1.6c-1-0.1-2-0.3-2.9-0.5
	C8.7,17.7,9.1,16.8,9.5,15.8z M9.5,12.6c-0.4-0.9-0.7-1.9-1-2.8c0.9-0.2,1.9-0.4,2.9-0.5c-0.3,0.5-0.7,1.1-1,1.6l0,0
	C10.1,11.5,9.8,12.1,9.5,12.6z M21.7,17.5c0.3-0.6,0.6-1.1,0.9-1.7c0.4,1,0.8,1.9,1.1,2.8c-0.9,0.2-1.9,0.4-3,0.5
	C21,18.6,21.3,18,21.7,17.5z M22.6,12.6c-0.3-0.6-0.6-1.1-0.9-1.7c-0.3-0.5-0.6-1.1-1-1.6c1,0.1,2,0.3,2.9,0.5
	C23.3,10.7,23,11.7,22.6,12.6z M16,5.5c0.6,0.7,1.3,1.4,1.9,2.3c-0.6,0-1.2,0-1.9,0c-0.6,0-1.3,0-1.9,0C14.8,6.9,15.4,6.2,16,5.5z
	 M8.7,1.6c1.1-0.6,3.4,0.3,5.9,2.5c0.2,0.1,0.3,0.3,0.5,0.4c-0.9,1-1.9,2.1-2.7,3.4C10.8,8,9.4,8.2,8.1,8.5C8,8.2,7.9,7.9,7.9,7.5
	C7.3,4.5,7.7,2.2,8.7,1.6z M7.1,18.3c-0.3-0.1-0.5-0.2-0.8-0.2c-1.6-0.5-2.8-1.2-3.7-2c-0.8-0.7-1.2-1.4-1.2-1.9
	c0-1.2,1.7-2.6,4.6-3.7c0.4-0.1,0.7-0.2,1.1-0.3c0.4,1.3,0.9,2.7,1.6,4C8,15.6,7.5,17,7.1,18.3z M14.5,24.6
	c-1.2,1.1-2.5,1.9-3.6,2.2c-1,0.3-1.8,0.4-2.2,0.1c-1-0.6-1.4-2.8-0.9-5.8C7.9,20.7,8,20.3,8.1,20c1.3,0.3,2.8,0.5,4.3,0.6
	c0.9,1.2,1.8,2.4,2.7,3.4C14.9,24.2,14.7,24.4,14.5,24.6z M16.1,23c-0.6-0.7-1.3-1.5-1.9-2.3c0.6,0,1.2,0,1.9,0c0.7,0,1.3,0,1.9,0
	C17.3,21.5,16.7,22.3,16.1,23z M24.4,24.9c-0.2,1-0.6,1.7-1,2c-1,0.6-3.2-0.2-5.5-2.2c-0.3-0.2-0.5-0.5-0.8-0.7
	c0.9-1,1.8-2.1,2.7-3.4c1.5-0.1,3-0.4,4.3-0.7c0.1,0.3,0.1,0.5,0.2,0.8C24.5,22.3,24.6,23.8,24.4,24.9z M25.5,18.1
	c-0.2,0.1-0.4,0.1-0.5,0.2c-0.4-1.3-1-2.6-1.6-4.1c0.6-1.4,1.2-2.7,1.6-4c0.3,0.1,0.6,0.2,1,0.3c3,1,4.8,2.5,4.8,3.7
	C30.6,15.4,28.7,17,25.5,18.1z"/>
<path id="XMLID_2_" class="st0" d="M16,11.3c1.6,0,2.9,1.3,2.9,2.9c0,1.6-1.3,2.9-2.9,2.9s-2.9-1.3-2.9-2.9
	C13.2,12.6,14.4,11.3,16,11.3"/>
</svg>
