<?xml version="1.0" encoding="utf-8"?>
<!-- Generator: Adobe Illustrator 19.0.0, SVG Export Plug-In . SVG Version: 6.00 Build 0)  -->
<svg version="1.1" id="Layer_1" xmlns="http://www.w3.org/2000/svg" xmlns:xlink="http://www.w3.org/1999/xlink" x="0px" y="0px"
	 viewBox="0 0 32 32" style="enable-background:new 0 0 32 32;" xml:space="preserve">
<style type="text/css">
	.st0{fill:#1779BF;}
</style>
<g id="XMLID_2_">
	<path id="XMLID_3_" class="st0" d="M21.5,14.6l-6.7,11.1h-1.2l1.2-7.2l-3.7,0H11c-0.3,0-0.6-0.3-0.6-0.6c0-0.1,0.1-0.4,0.1-0.4
		l6.7-11.1l1.2,0l-1.2,7.2l3.7,0H21c0.3,0,0.6,0.3,0.6,0.6C21.6,14.3,21.6,14.4,21.5,14.6L21.5,14.6L21.5,14.6z M16,0.2
		C7.2,0.2,0,7.2,0,16c0,8.8,7.2,15.8,16,15.8S32,24.8,32,16C32,7.2,24.8,0.2,16,0.2z"/>
</g>
</svg>
