<?xml version="1.0" encoding="utf-8"?>
<!-- Generator: Adobe Illustrator 19.0.0, SVG Export Plug-In . SVG Version: 6.00 Build 0)  -->
<svg version="1.1" id="Layer_1" xmlns="http://www.w3.org/2000/svg" xmlns:xlink="http://www.w3.org/1999/xlink" x="0px" y="0px"
	 viewBox="0 0 32 32" style="enable-background:new 0 0 32 32;" xml:space="preserve">
<style type="text/css">
	.st0{fill:#367FC2;}
	.st1{fill:#1C6DB6;}
	.st2{fill:#52B1E3;}
	.st3{fill:#2293D1;}
</style>
<g id="XMLID_11_">
	<path id="XMLID_14_" class="st0" d="M25.5,11.4L25.5,11.4L25.5,11.4z"/>
	<path id="XMLID_13_" class="st0" d="M16,17.3L16,17.3L16,17.3z"/>
	<polygon id="XMLID_12_" class="st0" points="16,18.5 9.5,24 6.7,22.1 6.7,24.2 16,29.9 25.3,24.2 25.3,22.1 22.5,24 	"/>
</g>
<polyline id="XMLID_10_" class="st1" points="16,29.9 25.3,24.2 25.3,22.1 22.5,24 16,18.5 "/>
<polygon id="XMLID_9_" class="st0" points="16,17.3 6.5,11.4 0,16.6 9.4,22.8 "/>
<polyline id="XMLID_8_" class="st1" points="0,16.6 9.4,22.8 16,17.3 16,17.3 16,17.3 "/>
<polygon id="XMLID_7_" class="st2" points="16,17.3 16,17.3 22.6,22.8 32,16.6 25.5,11.4 25.5,11.4 "/>
<polyline id="XMLID_6_" class="st3" points="22.6,22.8 32,16.6 25.5,11.4 25.5,11.4 "/>
<polygon id="XMLID_5_" class="st0" points="22.6,0 16,5.6 16,5.6 16,5.6 25.5,11.4 25.5,11.4 25.5,11.4 31.9,6.2 "/>
<polyline id="XMLID_4_" class="st1" points="25.5,11.4 25.5,11.4 25.5,11.4 32,6.2 22.6,0 "/>
<polygon id="XMLID_3_" class="st2" points="16,5.6 9.4,0 0,6.2 6.5,11.5 16,5.6 16,5.6 "/>
<polyline id="XMLID_2_" class="st3" points="6.5,11.4 16,5.6 16,5.6 16,5.6 9.4,0 "/>
</svg>
