<?xml version="1.0" encoding="utf-8"?>
<!-- Generator: Adobe Illustrator 19.0.0, SVG Export Plug-In . SVG Version: 6.00 Build 0)  -->
<svg version="1.1" id="Layer_1" xmlns="http://www.w3.org/2000/svg" xmlns:xlink="http://www.w3.org/1999/xlink" x="0px" y="0px"
	 viewBox="0 0 32 32" style="enable-background:new 0 0 32 32;" xml:space="preserve">
<style type="text/css">
	.st0{fill:#229CD8;}
	.st1{fill:#233E81;}
	.st2{fill:#27326E;}
</style>
<g id="XMLID_2_">
	<path id="XMLID_5_" class="st0" d="M11.5,7.5h9c4.8,0,6.7,2.5,6.4,6.1c-0.5,6-4.1,9.2-8.8,9.2h-2.4c-0.7,0-1.1,0.4-1.3,1.6l-1,6.8
		c-0.1,0.4-0.3,0.7-0.6,0.7H7.1c-0.5,0-0.7-0.4-0.6-1.3L10,8.8C10.1,7.9,10.6,7.5,11.5,7.5z"/>
	<path id="XMLID_4_" class="st1" d="M5.9,0h9c2.5,0,5.6,0.1,7.6,1.9C23.8,3.1,24.6,5,24.4,7c-0.6,6.9-4.7,10.8-10.2,10.8H9.7
		c-0.8,0-1.3,0.5-1.5,1.9L7,27.5c-0.1,0.5-0.3,0.8-0.7,0.9H0.7c-0.6,0-0.8-0.5-0.7-1.5l4-25.4C4.2,0.5,4.8,0,5.9,0z"/>
	<path id="XMLID_3_" class="st2" d="M8.4,18.8l1.6-10c0.1-0.9,0.6-1.3,1.6-1.3h9c1.5,0,2.7,0.2,3.6,0.7c-0.9,6.1-4.9,9.5-10.1,9.5
		H9.7C9.1,17.7,8.6,18,8.4,18.8z"/>
</g>
</svg>
