<?xml version="1.0" encoding="utf-8"?>
<!-- Generator: Adobe Illustrator 19.0.0, SVG Export Plug-In . SVG Version: 6.00 Build 0)  -->
<svg version="1.1" id="Layer_1" xmlns="http://www.w3.org/2000/svg" xmlns:xlink="http://www.w3.org/1999/xlink" x="0px" y="0px"
	 viewBox="0 0 32 32" style="enable-background:new 0 0 32 32;" xml:space="preserve">
<style type="text/css">
	.st0{fill:#22201D;}
	.st1{fill:#ED3628;}
</style>
<g id="XMLID_5_">
	<path id="XMLID_3_" class="st0" d="M12.6,13.9c1.7-4.4,3.3-8.8,5-13.2c0.2-0.6,0.5-0.7,1-0.7c1,0,2,0,3,0c0.4,0,0.6,0.1,0.8,0.4
		c3.2,8.6,6.4,17.2,9.6,25.9c0,0,0,0.1,0,0.2c-1.1,0-2.2,0-3.3,0c-0.6,0-0.6-0.4-0.7-0.8c-2.2-6.3-4.5-12.6-6.7-18.9
		c-0.4-1.1-0.8-2.2-1.3-3.6c-1.4,3.7-2.6,7.2-3.9,10.6C14.9,14,13.8,13.9,12.6,13.9z"/>
	<path id="XMLID_2_" class="st1" d="M12.6,13.9c1.1,0.1,2.3,0.1,3.4,0c1.5,0,3,0,4.5,0c0.5,0,0.8,0.1,1,0.7c0.5,1.7,1.1,3.4,1.7,5.2
		c-3-0.7-5.8-1.4-8.6-2c-1.1-0.3-2.1-0.5-3.2-0.8C7.6,16,3.8,15.1,0,14.2c0-0.1,0-0.2,0-0.3C4.2,13.9,8.4,13.9,12.6,13.9z"/>
	<path id="XMLID_1_" class="st0" d="M11.4,17c1.1,0.3,2.1,0.5,3.2,0.8c-1.1,2.6-2,5.2-2.9,7.8c-0.3,0.8-0.6,1-1.4,1
		c-0.8-0.1-1.6,0-2.5,0C9,23.3,10.2,20.1,11.4,17z"/>
</g>
</svg>
