<?xml version="1.0" encoding="utf-8"?>
<!-- Generator: Adobe Illustrator 19.0.0, SVG Export Plug-In . SVG Version: 6.00 Build 0)  -->
<svg version="1.1" id="Layer_1" xmlns="http://www.w3.org/2000/svg" xmlns:xlink="http://www.w3.org/1999/xlink" x="0px" y="0px"
	 viewBox="0 0 32 32" style="enable-background:new 0 0 32 32;" xml:space="preserve">
<style type="text/css">
	.st0{fill:#020202;}
</style>
<g id="XMLID_2_">
	<path id="XMLID_5_" class="st0" d="M32,15.6c-0.1-5.4-3.1-10.6-7.7-13.3c-3.7-2.3-8.2-2.9-12.4-1.8C5.7,2.1,0.8,7.7,0.1,14.1
		c-0.8,6.1,2.3,12.4,7.5,15.5c5.1,3.2,12.1,3.1,17.2-0.3C29.3,26.4,32.2,21,32,15.6z M16.9,29.6C9.6,30.3,2.6,24.2,2.4,16.9
		C1.8,11,5.7,5.1,11.3,3.1c7.8-3.1,17.4,2.7,18.2,11C30.8,21.7,24.5,29.4,16.9,29.6z"/>
	<path id="XMLID_4_" class="st0" d="M12.1,15.2c3.5-2.9,6.9-5.8,10.5-8.6c-1.9,2.9-3.8,5.7-5.7,8.6C15.3,15.2,13.7,15.2,12.1,15.2
		L12.1,15.2L12.1,15.2z"/>
	<path id="XMLID_3_" class="st0" d="M15.1,16.8c1.6,0,3.2,0,4.8,0c-3.5,2.9-6.9,5.8-10.5,8.6C11.3,22.5,13.2,19.7,15.1,16.8
		L15.1,16.8L15.1,16.8z"/>
</g>
</svg>
