<?xml version="1.0" encoding="utf-8"?>
<!-- Generator: Adobe Illustrator 19.0.0, SVG Export Plug-In . SVG Version: 6.00 Build 0)  -->
<svg version="1.1" id="Layer_1" xmlns="http://www.w3.org/2000/svg" xmlns:xlink="http://www.w3.org/1999/xlink" x="0px" y="0px"
	 viewBox="0 0 32 32" style="enable-background:new 0 0 32 32;" xml:space="preserve">
<style type="text/css">
	.st0{fill:#2475BB;}
</style>
<path id="XMLID_2_" class="st0" d="M29.5,1.7c0-0.9-0.8-1.7-1.7-1.7H1.7C0.8,0,0,0.7,0,1.7v28.6C0,31.2,0.8,32,1.7,32h26.2
	c0.9,0,1.7-0.8,1.7-1.7L29.5,1.7L29.5,1.7z M18.8,24.1c-1.2,0.7-3.1,1.1-4.6,1.1c-5.4,0-9.6-4.2-9.6-9.2c0-5.4,4.3-9.4,9.4-9.2
	c2.1,0,4.1,0.7,5.4,1.6c0.4,0.2,0.4,0.3,0.3,0.5c-0.3,0.4-1.1,1.6-1.6,2.5c0,0-0.1,0.2-0.3,0.1c-0.9-0.6-2.1-1.1-4.1-1.1
	c-3,0-5.4,2.4-5.4,5.6c0,3.2,2.7,5.7,5.8,5.7c1,0,2.1-0.4,2.5-0.5c0.2-0.1,0.3,0.1,0.3,0.1c0.7,1.6,1.7,2.3,1.9,2.6
	C19,23.9,18.8,24.1,18.8,24.1z M19.7,19.3c0-1.4,1.2-2.6,2.6-2.6c1.4,0,2.6,1.2,2.6,2.6s-1.2,2.6-2.6,2.6
	C20.9,21.9,19.7,20.7,19.7,19.3z"/>
</svg>
