<?xml version="1.0" encoding="utf-8"?>
<!-- Generator: Adobe Illustrator 19.0.0, SVG Export Plug-In . SVG Version: 6.00 Build 0)  -->
<svg version="1.1" id="Layer_1" xmlns="http://www.w3.org/2000/svg" xmlns:xlink="http://www.w3.org/1999/xlink" x="0px" y="0px"
	 viewBox="0 0 32 32" style="enable-background:new 0 0 32 32;" xml:space="preserve">
<style type="text/css">
	.st0{fill:#075D77;}
</style>
<path id="XMLID_5_" class="st0" d="M15,10.6L15,10.6l2.1,5.8H13L15,10.6 M17.5,23.9h7.7v-0.9c-1.5-0.2-2-0.3-2.9-3
	c-1.1-2.9-2.3-6.2-3.5-9.6L17,5.3l-1.4,0.4L9.9,20.2c-1,2.5-1.4,2.7-3,2.9v0.9h6.4v-0.9L12.5,23c-1.3-0.1-1.4-0.4-0.9-1.9
	c0.4-1.2,0.7-2.5,1.1-3.3h5c0.4,1,1,2.5,1.3,3.5c0.5,1.2,0.3,1.5-0.7,1.7l-0.7,0.1L17.5,23.9L17.5,23.9z"/>
<path id="XMLID_2_" class="st0" d="M32,15.6c-0.1-5.4-3.1-10.6-7.7-13.3c-3.7-2.3-8.2-2.9-12.4-1.8C5.7,2.1,0.8,7.7,0.1,14.1
	c-0.8,6.1,2.3,12.4,7.5,15.5c5.1,3.2,12.1,3.1,17.2-0.3C29.3,26.4,32.2,21,32,15.6z M16.9,29.6C9.6,30.3,2.6,24.2,2.4,16.9
	C1.8,11,5.7,5.1,11.3,3.1c7.8-3.1,17.4,2.6,18.2,11C30.8,21.7,24.5,29.4,16.9,29.6z"/>
</svg>
