<?xml version="1.0" encoding="utf-8"?>
<!-- Generator: Adobe Illustrator 19.0.0, SVG Export Plug-In . SVG Version: 6.00 Build 0)  -->
<svg version="1.1" id="Layer_1" xmlns="http://www.w3.org/2000/svg" xmlns:xlink="http://www.w3.org/1999/xlink" x="0px" y="0px"
	 viewBox="0 0 32 32" style="enable-background:new 0 0 32 32;" xml:space="preserve">
<style type="text/css">
	.st0{fill:#79758C;}
	.st1{fill:#ABD8B4;}
	.st2{fill:#8085C0;}
	.st3{fill:#31436C;}
	.st4{fill:#679AA1;}
</style>
<g id="XMLID_2_">
	<path id="XMLID_8_" class="st0" d="M22.3,15L22,14.6l-7.6-2.5l-0.2,0.3l-0.3,0.1L7.2,28.2l0.1,0.5l16.2-6.8l0.1-0.3l-1.1-6.3
		L22.3,15z"/>
	<path id="XMLID_7_" class="st1" d="M7.3,28.6l7-16.3L-0.1,7.7L7.3,28.6z"/>
	<path id="XMLID_6_" class="st2" d="M19.6,0l-5.3,12.4l8,2.6l0-0.1L19.6,0.1L19.6,0z"/>
	<path id="XMLID_5_" class="st3" d="M22.3,15l1.2,6.8l0.6,0l7.7-3.3l0.3-0.3l-0.4-0.3l-9-3L22.3,15z"/>
	<path id="XMLID_4_" class="st4" d="M23.5,21.8l1.6,8.7l7-12.3L23.5,21.8z"/>
	<path id="XMLID_3_" class="st4" d="M19.6,0l2.7,15l9.8,3.2L19.6,0z"/>
</g>
</svg>
