<?xml version="1.0" encoding="utf-8"?>
<!-- Generator: Adobe Illustrator 19.0.0, SVG Export Plug-In . SVG Version: 6.00 Build 0)  -->
<svg version="1.1" id="Layer_1" xmlns="http://www.w3.org/2000/svg" xmlns:xlink="http://www.w3.org/1999/xlink" x="0px" y="0px"
	 viewBox="0 0 32 32" style="enable-background:new 0 0 32 32;" xml:space="preserve">
<style type="text/css">
	.st0{fill:#F36D32;}
</style>
<g id="XMLID_4_">
	<path id="XMLID_5_" class="st0" d="M8,5.3h6.1l-0.9,3.6c-0.1,0.5-0.4,0.9-0.8,1.2c-0.4,0.3-0.8,0.5-1.4,0.5H8.1
		c-0.6,0-1.2,0.2-1.7,0.6c-0.5,0.4-0.8,0.9-1,1.5c-0.1,0.5-0.1,0.9,0,1.4c0.1,0.4,0.3,0.8,0.5,1.1c0.3,0.3,0.6,0.6,1,0.8
		c0.4,0.2,0.8,0.3,1.3,0.3h1.7c0.3,0,0.6,0.1,0.8,0.4c0.2,0.3,0.3,0.5,0.2,0.9l-1.1,4H7.9c-1.3,0-2.5-0.3-3.6-0.8
		c-1.1-0.6-2-1.3-2.7-2.2c-0.7-0.9-1.2-2-1.5-3.2c-0.3-1.2-0.2-2.4,0.1-3.7l0.1-0.4C0.6,10.3,1,9.5,1.5,8.8C1.9,8,2.5,7.4,3.2,6.9
		C3.9,6.4,4.6,6,5.4,5.7C6.3,5.4,7.1,5.3,8,5.3z M11.1,21.4l5.3-19.8c0.1-0.5,0.4-0.9,0.8-1.2C17.5,0.2,18,0,18.5,0h5.6
		c1.3,0,2.5,0.3,3.6,0.8c1.1,0.6,2,1.3,2.7,2.2c0.7,0.9,1.2,2,1.5,3.2c0.3,1.2,0.2,2.4-0.1,3.7l-0.1,0.4c-0.2,0.9-0.6,1.6-1.1,2.4
		c-0.5,0.7-1.1,1.3-1.7,1.9c-0.7,0.5-1.4,0.9-2.2,1.2c-0.8,0.3-1.7,0.4-2.6,0.4h-4.8l1-3.6c0.1-0.5,0.4-0.9,0.8-1.2
		c0.4-0.3,0.8-0.5,1.4-0.5h1.5c0.6,0,1.2-0.2,1.7-0.6c0.5-0.4,0.8-0.9,1-1.5c0.1-0.4,0.1-0.9,0-1.3c-0.1-0.4-0.3-0.8-0.5-1.1
		c-0.3-0.3-0.6-0.6-1-0.8c-0.4-0.2-0.8-0.3-1.3-0.3h-3l-3.9,14.5c-0.1,0.5-0.4,0.9-0.8,1.2c-0.4,0.3-0.8,0.5-1.3,0.5L11.1,21.4
		L11.1,21.4z"/>
</g>
</svg>
