<?xml version="1.0" encoding="utf-8"?>
<!-- Generator: Adobe Illustrator 19.0.0, SVG Export Plug-In . SVG Version: 6.00 Build 0)  -->
<svg version="1.1" id="Layer_1" xmlns="http://www.w3.org/2000/svg" xmlns:xlink="http://www.w3.org/1999/xlink" x="0px" y="0px"
	 viewBox="0 0 32 32" style="enable-background:new 0 0 32 32;" xml:space="preserve">
<style type="text/css">
	.st0{fill:#B0262A;}
</style>
<g id="XMLID_5_">
	<path id="XMLID_6_" class="st0" d="M16,13.2c1.5,0,2.8,1.2,2.8,2.8c0,1.5-1.2,2.8-2.8,2.8s-2.8-1.2-2.8-2.8
		C13.2,14.5,14.5,13.2,16,13.2L16,13.2z M6.6,16c0-5.2,4.2-9.4,9.4-9.4c5.2,0,9.4,4.2,9.4,9.4c0,0.3,0,0.7-0.1,1
		c-0.1,0.9,0.6,1.6,1.5,1.6c1.6,0,1.7-2,1.7-2.6C28.6,9,23,3.4,16,3.4C9,3.4,3.4,9,3.4,16C3.4,23,9,28.6,16,28.6
		c3.7,0,7-1.6,9.3-4.1l2.6,2.2C25,29.9,20.7,32,16,32C7.2,32,0,24.8,0,16C0,7.2,7.2,0,16,0c8.8,0,16,7.2,16,16
		c0,3.5-1.7,6.4-5.1,6.4c-1.5,0-2.4-0.7-2.9-1.4c-1.7,2.7-4.6,4.4-8,4.4C10.8,25.4,6.6,21.2,6.6,16L6.6,16z M16,9.9
		c-3.3,0-6.1,2.7-6.1,6s2.7,6,6.1,6s6.1-2.7,6.1-6C22,12.7,19.3,9.9,16,9.9L16,9.9z"/>
</g>
</svg>
