<?xml version="1.0" encoding="utf-8"?>
<!-- Generator: Adobe Illustrator 19.0.0, SVG Export Plug-In . SVG Version: 6.00 Build 0)  -->
<svg version="1.1" id="Layer_1" xmlns="http://www.w3.org/2000/svg" xmlns:xlink="http://www.w3.org/1999/xlink" x="0px" y="0px"
	 width="360px" height="230px" viewBox="0 0 360 230" style="enable-background:new 0 0 360 230;" xml:space="preserve">
<style type="text/css">
	.st0{opacity:0.2;fill:url(#XMLID_4_);enable-background:new    ;}
	.st1{clip-path:url(#SVGID_1_);}
	.st2{opacity:5.000000e-002;fill:#5E57A5;enable-background:new    ;}
	.st3{opacity:5.000000e-002;fill:url(#XMLID_35_);enable-background:new    ;}
	.st4{opacity:5.000000e-002;fill:url(#XMLID_47_);enable-background:new    ;}
	.st5{fill:none;stroke:url(#XMLID_49_);stroke-width:16;stroke-opacity:0.5;}
	.st6{fill:#4D3594;}
	.st7{fill:#594CA0;}
	.st8{fill:#E97E75;}
	.st9{fill:#F2AA1E;}
	.st10{fill:#7DC78F;}
	.st11{opacity:0.5;fill:#594CA0;enable-background:new    ;}
	.st12{fill:#B29AC9;}
	.st13{fill:#FAFAFD;}
	.st14{opacity:0.7;}
	.st15{opacity:0.4;fill:#5E57A5;enable-background:new    ;}
	.st16{fill:#5E57A5;}
	.st17{fill:url(#XMLID_51_);}
	.st18{fill:#A2BDE3;}
	.st19{fill:#EAEDF2;}
	.st20{fill:#D8DDE7;}
	.st21{fill:#7460AA;}
	.st22{fill:none;stroke:#FFFFFF;stroke-width:2;stroke-linecap:round;stroke-linejoin:round;}
	.st23{fill:#FFFFFF;}
	.st24{fill:url(#XMLID_52_);}
	.st25{fill:url(#XMLID_55_);}
	.st26{fill:url(#XMLID_56_);}
	.st27{opacity:0.8;fill:none;stroke:#7460AA;stroke-width:3;enable-background:new    ;}
	.st28{fill:#79C795;}
	.st29{fill:#241950;}
	.st30{fill:#FDE5E5;}
	.st31{fill:none;stroke:#4D3594;stroke-width:0.6933;stroke-linecap:round;stroke-linejoin:round;}
	.st32{fill:#C4C4C4;filter:url(#Adobe_OpacityMaskFilter);}
	.st33{mask:url(#mask0_2_);}
	.st34{fill:none;}
	.st35{clip-path:url(#SVGID_1_);fill:#4E3694;}
	.st36{fill:#F9F9FA;}
	.st37{fill:#4E3694;}
	.st38{fill:#4E3794;}
</style>
<linearGradient id="XMLID_4_" gradientUnits="userSpaceOnUse" x1="0" y1="115" x2="360" y2="115">
	<stop  offset="0" style="stop-color:#7460AA"/>
	<stop  offset="1" style="stop-color:#5E57A5"/>
</linearGradient>
<rect id="XMLID_5_" class="st0" width="360" height="230"/>
<g id="XMLID_2_">
	<g id="XMLID_73_">
		<defs>
			<rect id="SVGID_10_" x="-11" y="15.3" width="368" height="196.9"/>
		</defs>
		<clipPath id="SVGID_1_">
			<use xlink:href="#SVGID_10_"  style="overflow:visible;"/>
		</clipPath>
		<g id="XMLID_81_" class="st1">
			<path id="XMLID_240_" class="st2" d="M53.3,76.9H60c6,0,10.8,4.6,10.8,10.4v5.2c0,5.7-4.8,10.4-10.8,10.4h-6.8
				c-6,0-10.8-4.6-10.8-10.4v-5.2C42.4,81.5,47.3,76.9,53.3,76.9z"/>
			
				<linearGradient id="XMLID_35_" gradientUnits="userSpaceOnUse" x1="15.0714" y1="173.9902" x2="23.1345" y2="161.5091" gradientTransform="matrix(1 0 0 -1 0 232)">
				<stop  offset="0" style="stop-color:#EF4241"/>
				<stop  offset="1" style="stop-color:#63459B"/>
			</linearGradient>
			<path id="XMLID_239_" class="st3" d="M18.1,58.1h2c3,0,5.4,2.3,5.4,5.2v1.9c0,2.9-2.4,5.2-5.4,5.2h-2c-3,0-5.4-2.3-5.4-5.2v-1.9
				C12.7,60.4,15.1,58.1,18.1,58.1z"/>
			
				<linearGradient id="XMLID_47_" gradientUnits="userSpaceOnUse" x1="231.7576" y1="113.21" x2="339.2773" y2="183.1004" gradientTransform="matrix(1 0 0 -1 0 232)">
				<stop  offset="0" style="stop-color:#5174B9"/>
				<stop  offset="1" style="stop-color:#63459B"/>
			</linearGradient>
			<path id="XMLID_238_" class="st4" d="M248.1,137.8c-9,0-16.2-7-16.2-15.5V58.4c0-13.7,11.7-24.9,26.2-24.9h57.3
				c14.4,0,26.2,11.1,26.2,24.9v43.9c0,19.6-16.7,35.6-37.4,35.6H248.1z"/>
			
				<radialGradient id="XMLID_49_" cx="-124.9741" cy="510.0065" r="0.9767" gradientTransform="matrix(106.1305 -130.0642 -140.5848 -105.1926 84972.1094 37607.668)" gradientUnits="userSpaceOnUse">
				<stop  offset="0" style="stop-color:#5E57A5"/>
				<stop  offset="1" style="stop-color:#5E57A5;stop-opacity:0"/>
			</radialGradient>
			<path id="XMLID_235_" class="st5" d="M37.1,183.3c-16.9-14-18.8-37.6-4.8-52.8s38.9-16.6,55.7-2.6c16.9,14,18.8,37.6,4.8,52.8
				C78.9,195.8,53.9,197.2,37.1,183.3z"/>
			<g id="XMLID_233_">
				<path id="XMLID_234_" class="st6" d="M75.8,45.1h194.8c9.1,0,16.5,7.1,16.5,15.8v105.8c0,8.7-7.4,15.8-16.5,15.8H75.8
					c-9.1,0-16.5-7.1-16.5-15.4V61.2C59.4,52.2,66.7,45.1,75.8,45.1z"/>
			</g>
			<path id="XMLID_232_" class="st7" d="M59.4,55.5c0-5.7,4.8-10.4,10.8-10.4h206.1c6,0,10.8,4.6,10.8,10.4v5.3H59.4V55.5z"/>
			<ellipse id="XMLID_231_" class="st8" cx="76.7" cy="52.6" rx="2.9" ry="2.7"/>
			<ellipse id="XMLID_230_" class="st9" cx="88.2" cy="52.6" rx="2.9" ry="2.7"/>
			<ellipse id="XMLID_229_" class="st10" cx="99.7" cy="52.6" rx="2.9" ry="2.7"/>
			<path id="XMLID_228_" class="st11" d="M102.6,71.1h161.7c3,0,5.4,2.3,5.4,5.2v7.1c0,2.9-2.4,5.2-5.4,5.2H102.6
				c-3,0-5.4-2.3-5.4-5.2v-7.1C97.2,73.4,99.7,71.1,102.6,71.1z"/>
			<path id="XMLID_227_" class="st11" d="M78.6,96.3h8.1c2.8,0,5.1,2.2,5.1,4.9l0,0c0,2.7-2.3,4.9-5.1,4.9h-8.1
				c-2.8,0-5.1-2.2-5.1-4.9l0,0C73.6,98.5,75.8,96.3,78.6,96.3z"/>
			<g id="XMLID_225_">
				<path id="XMLID_226_" class="st12" d="M79,71.1h7.4c3,0,5.4,2.3,5.4,5.2v7.1c0,2.9-2.4,5.2-5.4,5.2H79c-3,0-5.4-2.3-5.4-5.2
					v-7.1C73.6,73.4,76,71.1,79,71.1z"/>
			</g>
			<path id="XMLID_222_" class="st13" d="M80.9,75.7h-1.5c-0.4,0-0.7,0.3-0.7,0.7v1.4c0,0.4,0.3,0.7,0.7,0.7h1.5
				c0.4,0,0.7-0.3,0.7-0.7v-1.4C81.7,76,81.4,75.7,80.9,75.7z M79.4,74.9c-0.8,0-1.5,0.6-1.5,1.4v1.4c0,0.8,0.7,1.4,1.5,1.4h1.5
				c0.8,0,1.5-0.6,1.5-1.4v-1.4c0-0.8-0.7-1.4-1.5-1.4H79.4z"/>
			<path id="XMLID_221_" class="st13" d="M78,81.4c0-0.8,0.7-1.4,1.5-1.4h1.5c0.8,0,1.5,0.6,1.5,1.4v1.4c0,0.8-0.7,1.4-1.5,1.4h-1.5
				c-0.8,0-1.5-0.6-1.5-1.4V81.4z"/>
			<path id="XMLID_218_" class="st13" d="M86.2,75.7h-1.5c-0.4,0-0.7,0.3-0.7,0.7v1.4c0,0.4,0.3,0.7,0.7,0.7h1.5
				c0.4,0,0.7-0.3,0.7-0.7v-1.4C86.9,76,86.6,75.7,86.2,75.7z M84.7,74.9c-0.8,0-1.5,0.6-1.5,1.4v1.4c0,0.8,0.7,1.4,1.5,1.4h1.5
				c0.8,0,1.5-0.6,1.5-1.4v-1.4c0-0.8-0.7-1.4-1.5-1.4H84.7z"/>
			<path id="XMLID_215_" class="st13" d="M86.2,80.7h-1.5c-0.4,0-0.7,0.3-0.7,0.7v1.4c0,0.4,0.3,0.7,0.7,0.7h1.5
				c0.4,0,0.7-0.3,0.7-0.7v-1.4C86.9,81,86.6,80.7,86.2,80.7z M84.7,79.9c-0.8,0-1.5,0.6-1.5,1.4v1.4c0,0.8,0.7,1.4,1.5,1.4h1.5
				c0.8,0,1.5-0.6,1.5-1.4v-1.4c0-0.8-0.7-1.4-1.5-1.4H84.7z"/>
			<g id="XMLID_213_" class="st14">
				<path id="XMLID_214_" class="st12" d="M87.1,151.4L87.1,151.4c0,5.4-4.5,9.7-10.1,9.7H49.2c-5.6,0-10.1-4.4-10.1-9.7l0,0
					c0-5.4,4.5-9.7,10.1-9.7h27.7C82.5,141.7,87.1,146,87.1,151.4z"/>
			</g>
			<g id="XMLID_211_">
				<path id="XMLID_212_" class="st7" d="M111,97h46.9c9.1,0,16.5,7.1,16.5,15.8v36.5c0,8.7-7.4,15.8-16.5,15.8H111
					c-9.1,0-16.5-7.1-16.5-15.8v-36.5C94.5,104,101.9,97,111,97z"/>
			</g>
			<path id="XMLID_210_" class="st15" d="M107.4,105.4h12.2c2.2,0,4.1,1.7,4.1,3.9l0,0c0,2.1-1.8,3.9-4.1,3.9h-12.2
				c-2.2,0-4.1-1.7-4.1-3.9l0,0C103.3,107.1,105.1,105.4,107.4,105.4z"/>
			<g id="XMLID_208_">
				<path id="XMLID_209_" class="st16" d="M88.4,117h44.6c4.9,0,8.8,3.8,8.8,8.4l0,0c0,4.7-3.9,8.4-8.8,8.4H88.4
					c-4.9,0-8.8-3.8-8.8-8.4l0,0C79.6,120.8,83.6,117,88.4,117z"/>
			</g>
			<path id="XMLID_207_" class="st15" d="M107.4,137.8h54.1c2.2,0,4.1,1.7,4.1,3.9l0,0c0,2.1-1.8,3.9-4.1,3.9h-54.1
				c-2.2,0-4.1-1.7-4.1-3.9l0,0C103.3,139.5,105.1,137.8,107.4,137.8z"/>
			<path id="XMLID_206_" class="st15" d="M107.4,148.8h30.4c2.2,0,4.1,1.7,4.1,3.9l0,0c0,2.1-1.8,3.9-4.1,3.9h-30.4
				c-2.2,0-4.1-1.7-4.1-3.9l0,0C103.3,150.5,105.1,148.8,107.4,148.8z"/>
			<g id="XMLID_204_">
				
					<linearGradient id="XMLID_51_" gradientUnits="userSpaceOnUse" x1="169.6439" y1="213.8548" x2="208.8266" y2="119.0537" gradientTransform="matrix(1 0 0 -1 0 232)">
					<stop  offset="0" style="stop-color:#7460AA"/>
					<stop  offset="1" style="stop-color:#5E57A5"/>
				</linearGradient>
				<path id="XMLID_205_" class="st17" d="M142.8,27h92.9c9.1,0,16.5,7.1,16.5,15.8v45.5c0,8.7-7.4,15.8-16.5,15.8h-92.9
					c-9.1,0-16.5-7.1-16.5-15.8V42.8C126.3,34.1,133.7,27,142.8,27z"/>
			</g>
			<g id="XMLID_202_">
				<path id="XMLID_203_" class="st13" d="M250.8,122.9h41.9c6,0,10.8,4.6,10.8,10.4v15.5c0,5.7-4.8,10.4-10.8,10.4h-41.9
					c-6,0-10.8-4.6-10.8-10.4v-15.5C240,127.5,244.8,122.9,250.8,122.9z"/>
			</g>
			<path id="XMLID_201_" class="st18" d="M247.4,143.4h0.6c0.7,0,1.4,0.6,1.4,1.3v5.4c0,0.7-0.6,1.3-1.4,1.3h-0.6
				c-0.7,0-1.4-0.6-1.4-1.3v-5.4C246.1,144,246.7,143.4,247.4,143.4z"/>
			<path id="XMLID_200_" class="st19" d="M263,145h0.6c0.7,0,1.4,0.6,1.4,1.3v3.8c0,0.7-0.6,1.3-1.4,1.3H263c-0.7,0-1.4-0.6-1.4-1.3
				v-3.8C261.6,145.6,262.2,145,263,145z"/>
			<path id="XMLID_199_" class="st19" d="M286.6,145h0.6c0.7,0,1.4,0.6,1.4,1.3v3.8c0,0.7-0.6,1.3-1.4,1.3h-0.6
				c-0.7,0-1.4-0.6-1.4-1.3v-3.8C285.3,145.6,285.9,145,286.6,145z"/>
			<path id="XMLID_198_" class="st18" d="M270.8,143.4h0.6c0.7,0,1.4,0.6,1.4,1.3v5.4c0,0.7-0.6,1.3-1.4,1.3h-0.6
				c-0.7,0-1.4-0.6-1.4-1.3v-5.4C269.4,144,270,143.4,270.8,143.4z"/>
			<path id="XMLID_197_" class="st19" d="M294.8,143.4h0.6c0.7,0,1.4,0.6,1.4,1.3v5.4c0,0.7-0.6,1.3-1.4,1.3h-0.6
				c-0.7,0-1.4-0.6-1.4-1.3v-5.4C293.4,144,294,143.4,294.8,143.4z"/>
			<path id="XMLID_196_" class="st18" d="M278.6,139.7h0.6c0.7,0,1.4,0.6,1.4,1.3v9.1c0,0.7-0.6,1.3-1.4,1.3h-0.6
				c-0.7,0-1.4-0.6-1.4-1.3V141C277.2,140.3,277.8,139.7,278.6,139.7z"/>
			<path id="XMLID_195_" class="st20" d="M255.2,139.7h0.6c0.7,0,1.4,0.6,1.4,1.3v9.1c0,0.7-0.6,1.3-1.4,1.3h-0.6
				c-0.7,0-1.4-0.6-1.4-1.3V141C253.8,140.3,254.5,139.7,255.2,139.7z"/>
			<path id="XMLID_188_" class="st21" d="M288.2,128.6v0.6h-0.1c-0.4,0-0.8,0.1-1.1,0.4c-0.3,0.2-0.4,0.6-0.5,1
				c0.3-0.3,0.6-0.4,1-0.4c0.4,0,0.8,0.1,1,0.4c0.2,0.3,0.4,0.7,0.4,1.1c0,0.5-0.1,0.8-0.4,1.1c-0.3,0.3-0.7,0.4-1.1,0.4
				c-0.5,0-0.9-0.2-1.2-0.5c-0.3-0.3-0.4-0.8-0.4-1.3v-0.3c0-0.8,0.2-1.4,0.6-1.9C286.7,128.8,287.3,128.6,288.2,128.6L288.2,128.6z
				 M287.3,130.8c-0.2,0-0.3,0-0.5,0.1c-0.1,0.1-0.3,0.2-0.3,0.4v0.2c0,0.3,0.1,0.6,0.2,0.8c0.1,0.2,0.3,0.3,0.6,0.3
				c0.2,0,0.4-0.1,0.6-0.3s0.2-0.4,0.2-0.7c0-0.3-0.1-0.5-0.2-0.7C287.7,130.9,287.5,130.8,287.3,130.8z M291.8,131.3
				c-0.3,0.3-0.6,0.4-0.9,0.4c-0.4,0-0.8-0.1-1-0.4c-0.3-0.3-0.4-0.7-0.4-1.1c0-0.3,0.1-0.6,0.2-0.8c0.1-0.2,0.3-0.4,0.5-0.6
				c0.2-0.1,0.5-0.2,0.8-0.2c0.5,0,0.9,0.2,1.2,0.5s0.4,0.8,0.4,1.4v0.2c0,0.8-0.2,1.5-0.6,1.9c-0.4,0.4-1,0.7-1.8,0.7h-0.1v-0.6
				h0.1c0.5,0,0.8-0.1,1.1-0.3C291.6,132.1,291.7,131.8,291.8,131.3z M291,131.1c0.2,0,0.3,0,0.5-0.1c0.1-0.1,0.3-0.2,0.3-0.4v-0.3
				c0-0.3-0.1-0.6-0.2-0.8c-0.1-0.2-0.3-0.3-0.6-0.3c-0.2,0-0.4,0.1-0.6,0.3c-0.1,0.2-0.2,0.4-0.2,0.7c0,0.3,0.1,0.5,0.2,0.7
				C290.6,131,290.8,131.1,291,131.1z M296.5,131.3c0,0.7-0.1,1.2-0.4,1.5c-0.3,0.3-0.7,0.5-1.2,0.5c-0.5,0-0.9-0.2-1.2-0.5
				c-0.3-0.3-0.4-0.8-0.4-1.5v-0.8c0-0.7,0.1-1.2,0.4-1.5c0.3-0.3,0.7-0.5,1.2-0.5c0.5,0,0.9,0.2,1.2,0.5c0.3,0.3,0.4,0.8,0.4,1.4
				V131.3z M295.7,130.4c0-0.4-0.1-0.7-0.2-0.9c-0.1-0.2-0.3-0.3-0.6-0.3c-0.3,0-0.5,0.1-0.6,0.3c-0.1,0.2-0.2,0.5-0.2,0.9v1
				c0,0.4,0.1,0.8,0.2,1c0.1,0.2,0.3,0.3,0.6,0.3c0.3,0,0.4-0.1,0.6-0.3c0.1-0.2,0.2-0.5,0.2-0.9V130.4z"/>
			<path id="XMLID_187_" class="st22" d="M48.4,153.3l-1.9-1.8l1.9-1.8"/>
			<path id="XMLID_186_" class="st22" d="M54.1,149.7l1.9,1.8l-1.9,1.8"/>
			<path id="XMLID_185_" class="st22" d="M52,148.8l-1.6,5.4"/>
			<path id="XMLID_184_" class="st12" d="M260.9,100.2h3.4c3,0,5.4,2.3,5.4,5.2v3.2c0,2.9-2.4,5.2-5.4,5.2h-3.4
				c-3,0-5.4-2.3-5.4-5.2v-3.2C255.5,102.5,258,100.2,260.9,100.2z"/>
			<path id="XMLID_181_" class="st23" d="M263,109.3h-0.8v-3.4h0.8V109.3z M262.2,105c0-0.1,0-0.2,0.1-0.3c0.1-0.1,0.2-0.1,0.3-0.1
				s0.3,0,0.3,0.1c0.1,0.1,0.1,0.2,0.1,0.3c0,0.1,0,0.2-0.1,0.3c-0.1,0.1-0.2,0.1-0.3,0.1s-0.3,0-0.3-0.1
				C262.2,105.2,262.2,105.1,262.2,105z"/>
			<g id="XMLID_179_" class="st14">
				
					<linearGradient id="XMLID_52_" gradientUnits="userSpaceOnUse" x1="491.3786" y1="354.2325" x2="543.8542" y2="273.0028" gradientTransform="matrix(6.123234e-017 1 1 -6.123234e-017 -121 -363)">
					<stop  offset="0" style="stop-color:#7460AA"/>
					<stop  offset="1" style="stop-color:#5E57A5"/>
				</linearGradient>
				<path id="XMLID_180_" class="st24" d="M233.9,125.5v58.3c0,5.7-4.8,10.4-10.8,10.4h-60.9c-6,0-10.8-4.6-10.8-10.4v-58.3
					c0-5.7,4.8-10.4,10.8-10.4h60.9C229,115.1,233.9,119.7,233.9,125.5z"/>
			</g>
			<path id="XMLID_164_" class="st7" d="M89.9,126.6c0,0.5-0.2,0.9-0.6,1.2c-0.3,0.3-0.8,0.4-1.3,0.4c-0.4,0-0.7-0.1-1-0.3
				c-0.3-0.2-0.5-0.4-0.7-0.7c-0.2-0.3-0.2-0.7-0.2-1.1v-0.4c0-0.4,0.1-0.8,0.2-1.1c0.2-0.3,0.4-0.6,0.7-0.8c0.3-0.2,0.6-0.3,1-0.3
				c0.5,0,1,0.1,1.3,0.4c0.3,0.3,0.5,0.7,0.6,1.2h-0.8c0-0.3-0.1-0.6-0.3-0.7c-0.2-0.1-0.4-0.2-0.7-0.2c-0.4,0-0.6,0.1-0.8,0.4
				c-0.2,0.3-0.3,0.6-0.3,1.1v0.4c0,0.5,0.1,0.9,0.3,1.1c0.2,0.3,0.5,0.4,0.8,0.4c0.3,0,0.6-0.1,0.7-0.2c0.2-0.1,0.3-0.4,0.3-0.7
				H89.9z M92.7,128.1c0-0.1-0.1-0.2-0.1-0.3c-0.3,0.3-0.6,0.4-0.9,0.4c-0.4,0-0.7-0.1-0.9-0.3c-0.2-0.2-0.3-0.4-0.3-0.7
				c0-0.4,0.1-0.6,0.4-0.8c0.3-0.2,0.7-0.3,1.2-0.3h0.5v-0.2c0-0.2-0.1-0.3-0.2-0.4c-0.1-0.1-0.3-0.2-0.5-0.2c-0.2,0-0.3,0-0.4,0.1
				c-0.1,0.1-0.2,0.2-0.2,0.3h-0.8c0-0.2,0.1-0.4,0.2-0.5c0.1-0.2,0.3-0.3,0.5-0.4c0.2-0.1,0.5-0.1,0.8-0.1c0.4,0,0.8,0.1,1,0.3
				c0.2,0.2,0.4,0.5,0.4,0.8v1.5c0,0.3,0,0.6,0.1,0.7v0.1H92.7z M91.8,127.5c0.2,0,0.3,0,0.4-0.1c0.1-0.1,0.2-0.2,0.3-0.3v-0.6h-0.4
				c-0.3,0-0.5,0-0.7,0.1c-0.1,0.1-0.2,0.2-0.2,0.4c0,0.1,0.1,0.3,0.2,0.4C91.5,127.5,91.6,127.5,91.8,127.5z M95.1,128.1h-0.8v-4.9
				h0.8V128.1z M96.8,128.1H96v-4.9h0.8V128.1z M100.3,126.9c0-0.2-0.1-0.4-0.2-0.5c-0.1-0.1-0.4-0.2-0.8-0.3
				c-0.4-0.1-0.7-0.2-0.9-0.4c-0.4-0.3-0.7-0.6-0.7-1c0-0.4,0.2-0.7,0.5-0.9c0.3-0.2,0.7-0.4,1.2-0.4c0.3,0,0.6,0.1,0.9,0.2
				c0.3,0.1,0.5,0.3,0.6,0.5c0.2,0.2,0.2,0.5,0.2,0.7h-0.8c0-0.2-0.1-0.4-0.2-0.6c-0.2-0.1-0.4-0.2-0.7-0.2c-0.3,0-0.5,0.1-0.6,0.2
				c-0.1,0.1-0.2,0.3-0.2,0.5c0,0.2,0.1,0.3,0.2,0.4c0.2,0.1,0.4,0.2,0.8,0.3c0.4,0.1,0.7,0.2,0.9,0.4c0.2,0.1,0.4,0.3,0.5,0.5
				c0.1,0.2,0.2,0.4,0.2,0.6c0,0.4-0.2,0.7-0.5,0.9c-0.3,0.2-0.7,0.3-1.2,0.3c-0.3,0-0.7-0.1-1-0.2c-0.3-0.1-0.5-0.3-0.7-0.5
				c-0.2-0.2-0.2-0.5-0.2-0.8h0.8c0,0.3,0.1,0.5,0.3,0.6c0.2,0.1,0.4,0.2,0.8,0.2c0.3,0,0.5-0.1,0.7-0.2
				C100.2,127.2,100.3,127.1,100.3,126.9z M102.7,128.1h-0.8v-4.6h0.8V128.1z M104.6,126.3v1.7h-0.8v-4.6h1.8c0.5,0,1,0.1,1.3,0.4
				c0.3,0.3,0.5,0.6,0.5,1.1c0,0.5-0.2,0.8-0.5,1.1c-0.3,0.3-0.7,0.4-1.3,0.4H104.6z M104.6,125.7h1c0.3,0,0.5-0.1,0.7-0.2
				c0.2-0.1,0.2-0.3,0.2-0.6c0-0.2-0.1-0.4-0.2-0.6c-0.2-0.1-0.4-0.2-0.7-0.2h-1V125.7z"/>
			
				<linearGradient id="XMLID_55_" gradientUnits="userSpaceOnUse" x1="320.0874" y1="70.3564" x2="326.5408" y2="41.7314" gradientTransform="matrix(1 0 0 -1 0 232)">
				<stop  offset="0" style="stop-color:#E7DCED"/>
				<stop  offset="0.8369" style="stop-color:#5E57A5"/>
			</linearGradient>
			<path id="XMLID_163_" class="st25" d="M329.7,176.8c0.9,0,1.6-0.7,1.6-1.5s-0.7-1.5-1.6-1.5h-5v-4.8c0-0.8-0.7-1.5-1.6-1.5
				c-0.9,0-1.6,0.7-1.6,1.5v4.8h-5c-0.9,0-1.6,0.7-1.6,1.5c0,0.8,0.7,1.5,1.6,1.5l5,0v4.8c0,0.8,0.7,1.5,1.6,1.5
				c0.9,0,1.6-0.7,1.6-1.5v-4.8H329.7z"/>
			
				<linearGradient id="XMLID_56_" gradientUnits="userSpaceOnUse" x1="221.9638" y1="655.7167" x2="221.2495" y2="633.0355" gradientTransform="matrix(-0.7633 -0.6461 -0.6461 0.7633 901.1606 -271.294)">
				<stop  offset="0" style="stop-color:#4D3594"/>
				<stop  offset="1" style="stop-color:#4F53A4"/>
			</linearGradient>
			<path id="XMLID_162_" class="st26" d="M311.7,81.9c-2.8-2.3-3.2-6.3-0.8-9s6.6-3,9.4-0.7s3.2,6.3,0.8,9S314.5,84.2,311.7,81.9z"
				/>
			<ellipse id="XMLID_161_" class="st27" cx="30.6" cy="40.9" rx="6.8" ry="6.5"/>
			<path id="XMLID_160_" class="st28" d="M140.9,58.1h3.4c0.6,0,1,0.4,1,1l0,0c0,0.5-0.5,1-1,1h-3.4c-0.6,0-1-0.4-1-1l0,0
				C139.9,58.5,140.3,58.1,140.9,58.1z"/>
			<path id="XMLID_159_" class="st28" d="M140.9,45.1h3.4c0.6,0,1,0.4,1,1l0,0c0,0.5-0.5,1-1,1h-3.4c-0.6,0-1-0.4-1-1l0,0
				C139.9,45.6,140.3,45.1,140.9,45.1z"/>
			<path id="XMLID_158_" class="st29" d="M140.9,64.6h3.4c0.6,0,1,0.4,1,1l0,0c0,0.5-0.5,1-1,1h-3.4c-0.6,0-1-0.4-1-1l0,0
				C139.9,65,140.3,64.6,140.9,64.6z"/>
			<path id="XMLID_157_" class="st28" d="M140.9,51.6h3.4c0.6,0,1,0.4,1,1l0,0c0,0.5-0.5,1-1,1h-3.4c-0.6,0-1-0.4-1-1l0,0
				C139.9,52.1,140.3,51.6,140.9,51.6z"/>
			<path id="XMLID_156_" class="st29" d="M140.9,71.1h3.4c0.6,0,1,0.4,1,1l0,0c0,0.5-0.5,1-1,1h-3.4c-0.6,0-1-0.4-1-1l0,0
				C139.9,71.5,140.3,71.1,140.9,71.1z"/>
			<path id="XMLID_155_" class="st29" d="M140.9,77.5h3.4c0.6,0,1,0.4,1,1l0,0c0,0.5-0.5,1-1,1h-3.4c-0.6,0-1-0.4-1-1l0,0
				C139.9,78,140.3,77.5,140.9,77.5z"/>
			<path id="XMLID_154_" class="st29" d="M140.9,84h3.4c0.6,0,1,0.4,1,1l0,0c0,0.5-0.5,1-1,1h-3.4c-0.6,0-1-0.4-1-1l0,0
				C139.9,84.4,140.3,84,140.9,84z"/>
			<path id="XMLID_153_" class="st18" d="M152.4,45.1h3.4c0.6,0,1,0.4,1,1l0,0c0,0.5-0.5,1-1,1h-3.4c-0.6,0-1-0.4-1-1l0,0
				C151.4,45.6,151.8,45.1,152.4,45.1z"/>
			<path id="XMLID_152_" class="st23" d="M152.4,84h5.4c0.6,0,1,0.4,1,1l0,0c0,0.5-0.5,1-1,1h-5.4c-0.6,0-1-0.4-1-1l0,0
				C151.4,84.4,151.8,84,152.4,84z"/>
			<path id="XMLID_151_" class="st29" d="M161.2,45.1h18.3c0.6,0,1,0.4,1,1l0,0c0,0.5-0.5,1-1,1h-18.3c-0.6,0-1-0.4-1-1l0,0
				C160.1,45.6,160.6,45.1,161.2,45.1z"/>
			<path id="XMLID_150_" class="st29" d="M152.4,51.6h16.2c0.6,0,1,0.4,1,1l0,0c0,0.5-0.5,1-1,1h-16.2c-0.6,0-1-0.4-1-1l0,0
				C151.4,52.1,151.8,51.6,152.4,51.6z"/>
			<path id="XMLID_149_" class="st30" d="M174,51.6h2.7c0.6,0,1,0.4,1,1l0,0c0,0.5-0.5,1-1,1H174c-0.6,0-1-0.4-1-1l0,0
				C173,52.1,173.5,51.6,174,51.6z"/>
			<path id="XMLID_148_" class="st30" d="M171.3,71.1h8.1c0.6,0,1,0.4,1,1l0,0c0,0.5-0.5,1-1,1h-8.1c-0.6,0-1-0.4-1-1l0,0
				C170.3,71.5,170.7,71.1,171.3,71.1z"/>
			<path id="XMLID_147_" class="st29" d="M160.5,58.1h4.1c0.6,0,1,0.4,1,1l0,0c0,0.5-0.5,1-1,1h-4.1c-0.6,0-1-0.4-1-1l0,0
				C159.5,58.5,159.9,58.1,160.5,58.1z"/>
			<path id="XMLID_146_" class="st30" d="M169.3,58.1h44c0.6,0,1,0.4,1,1l0,0c0,0.5-0.5,1-1,1h-44c-0.6,0-1-0.4-1-1l0,0
				C168.3,58.5,168.7,58.1,169.3,58.1z"/>
			<path id="XMLID_145_" class="st29" d="M152.4,64.6h21c0.6,0,1,0.4,1,1l0,0c0,0.5-0.5,1-1,1h-21c-0.6,0-1-0.4-1-1l0,0
				C151.4,65,151.8,64.6,152.4,64.6z"/>
			<path id="XMLID_144_" class="st18" d="M178.8,64.6h18.9c0.6,0,1,0.4,1,1l0,0c0,0.5-0.5,1-1,1h-18.9c-0.6,0-1-0.4-1-1l0,0
				C177.7,65,178.2,64.6,178.8,64.6z"/>
			<path id="XMLID_143_" class="st29" d="M161.2,71.1h5.4c0.6,0,1,0.4,1,1l0,0c0,0.5-0.5,1-1,1h-5.4c-0.6,0-1-0.4-1-1l0,0
				C160.1,71.5,160.6,71.1,161.2,71.1z"/>
			<path id="XMLID_142_" class="st28" d="M184.8,45.1h53.4c0.6,0,1,0.4,1,1l0,0c0,0.5-0.5,1-1,1h-53.4c-0.6,0-1-0.4-1-1l0,0
				C183.8,45.6,184.3,45.1,184.8,45.1z"/>
			<path id="XMLID_141_" class="st28" d="M152.4,77.5h50.7c0.6,0,1,0.4,1,1l0,0c0,0.5-0.5,1-1,1h-50.7c-0.6,0-1-0.4-1-1l0,0
				C151.4,78,151.8,77.5,152.4,77.5z"/>
			<g id="XMLID_132_">
				<path id="XMLID_140_" class="st23" d="M192.2,139.1L192.2,139.1c5.8,0,10.5,4.5,10.5,10v0c0,5.5-4.7,10-10.5,10h0
					c-5.8,0-10.5-4.5-10.5-10v0C181.7,143.6,186.4,139.1,192.2,139.1z"/>
			</g>
			<g id="XMLID_114_">
				<path id="XMLID_131_" class="st23" d="M216.7,139.1L216.7,139.1c5.8,0,10.5,4.5,10.5,10v0c0,5.5-4.7,10-10.5,10h0
					c-5.8,0-10.5-4.5-10.5-10v0C206.2,143.6,210.9,139.1,216.7,139.1z"/>
			</g>
			<g id="XMLID_106_">
				<path id="XMLID_113_" class="st23" d="M169.3,139.1L169.3,139.1c5.8,0,10.5,4.5,10.5,10v0c0,5.5-4.7,10-10.5,10h0
					c-5.8,0-10.5-4.5-10.5-10v0C158.8,143.6,163.5,139.1,169.3,139.1z"/>
			</g>
			<g id="XMLID_99_">
				<path id="XMLID_105_" class="st23" d="M216.7,162.5L216.7,162.5c5.8,0,10.5,4.5,10.5,10v0c0,5.5-4.7,10-10.5,10h0
					c-5.8,0-10.5-4.5-10.5-10v0C206.2,167,210.9,162.5,216.7,162.5z"/>
			</g>
			<g id="XMLID_90_">
				<path id="XMLID_98_" class="st23" d="M192.4,162.5L192.4,162.5c5.5,0,9.9,4.3,9.9,9.5v0.2c0,5.2-4.4,9.5-9.9,9.5h0
					c-5.5,0-9.9-4.3-9.9-9.5V172C182.5,166.8,186.9,162.5,192.4,162.5z"/>
				<path id="XMLID_97_" class="st31" d="M192.1,176.1c-2.1,0-3.9-1.7-3.9-3.9s1.7-3.9,3.9-3.9c2.1,0,3.9,1.7,3.9,3.9"/>
				<path id="XMLID_96_" class="st31" d="M188.4,171h7.3"/>
				<path id="XMLID_95_" class="st31" d="M188.4,173.6h4.5"/>
				<path id="XMLID_94_" class="st31" d="M193.8,172.3c0-1.2-0.3-2.4-0.9-3.4c-0.4-0.6-1.2-0.6-1.6,0c-1.2,2.1-1.2,4.8,0,6.8
					c0.2,0.3,0.5,0.5,0.8,0.5"/>
				<path id="XMLID_93_" class="st31" d="M195.8,176C195.8,176,195.7,176,195.8,176c-0.1,0.1-0.1,0.2,0,0.2
					C195.9,176.1,195.9,176.1,195.8,176C195.9,176,195.9,176,195.8,176"/>
				<path id="XMLID_92_" class="st31" d="M195.9,174.9c-0.8,0-1.3,0.5-1.3,1.3"/>
				<path id="XMLID_91_" class="st31" d="M193.3,176.1c0-0.3,0.1-0.6,0.2-0.9c0.3-0.7,0.8-1.3,1.5-1.5c0.3-0.1,0.6-0.2,0.9-0.2"/>
			</g>
			<g id="XMLID_82_">
				<path id="XMLID_89_" class="st23" d="M169.3,162.5L169.3,162.5c5.4,0,9.8,4.2,9.8,9.4v0.4c0,5.2-4.4,9.4-9.8,9.4h0
					c-5.4,0-9.8-4.2-9.8-9.4v-0.4C159.6,166.7,163.9,162.5,169.3,162.5z"/>
				<defs>
					<filter id="Adobe_OpacityMaskFilter" filterUnits="userSpaceOnUse" x="154.2" y="162" width="28.4" height="21">
						<feColorMatrix  type="matrix" values="1 0 0 0 0  0 1 0 0 0  0 0 1 0 0  0 0 0 1 0"/>
					</filter>
				</defs>
				<mask maskUnits="userSpaceOnUse" x="154.2" y="162" width="28.4" height="21" id="mask0_2_">
					<ellipse id="XMLID_262_" class="st32" cx="168.5" cy="172.3" rx="7.7" ry="7.5"/>
				</mask>
				<g id="XMLID_87_" class="st33">
					<rect id="XMLID_88_" x="154.2" y="162" class="st34" width="28.4" height="21"/>
				</g>
			</g>
		</g>
		<path id="XMLID_20_" class="st35" d="M216.7,144c-0.1,0-0.2,0.1-0.2,0.2s0.1,0.2,0.2,0.2c0.1,0,0.2-0.1,0.2-0.2
			S216.8,144,216.7,144z M218.9,143.4h-4.4c-0.6,0-1.1,0.5-1.1,1.1v8.4c0,0.6,0.5,1.1,1.1,1.1h4.4c0.6,0,1.1-0.5,1.1-1.1v-8.4
			C220.1,143.8,219.6,143.4,218.9,143.4z M219.6,152.9c0,0.4-0.3,0.7-0.7,0.7h-4.4c-0.4,0-0.7-0.3-0.7-0.7v-1.6h5.8V152.9z
			 M219.6,150.9h-5.8v-5.8h5.8V150.9z M219.6,144.7h-5.8v-0.2c0-0.4,0.3-0.7,0.7-0.7h4.4c0.4,0,0.7,0.3,0.7,0.7V144.7z M216.7,153.1
			c0.4,0,0.7-0.3,0.7-0.7s-0.3-0.7-0.7-0.7c-0.4,0-0.7,0.3-0.7,0.7S216.4,153.1,216.7,153.1z M216.7,152.2c0.1,0,0.2,0.1,0.2,0.2
			s-0.1,0.2-0.2,0.2c-0.1,0-0.2-0.1-0.2-0.2S216.6,152.2,216.7,152.2z"/>
	</g>
	<g id="XMLID_34_">
		<path id="XMLID_135_" class="st36" d="M163.2,128.6h-2.1v2.2H160v-5.3h3.5v0.9h-2.4v1.4h2.1V128.6z"/>
		<path id="XMLID_137_" class="st36" d="M167.3,128.4h-2.1v1.4h2.5v0.9h-3.6v-5.3h3.6v0.9h-2.5v1.3h2.1V128.4z"/>
		<path id="XMLID_139_" class="st36" d="M171.3,129.7h-1.9l-0.4,1.1h-1.2l2-5.3h1l2,5.3h-1.2L171.3,129.7z M169.7,128.8h1.3l-0.7-2
			L169.7,128.8z"/>
		<path id="XMLID_176_" class="st36" d="M176.8,126.3h-1.6v4.4h-1.1v-4.4h-1.6v-0.9h4.3V126.3z"/>
		<path id="XMLID_178_" class="st36" d="M181.5,125.4v3.5c0,0.6-0.2,1-0.5,1.4c-0.4,0.3-0.9,0.5-1.5,0.5c-0.6,0-1.1-0.2-1.5-0.5
			c-0.4-0.3-0.6-0.8-0.6-1.4v-3.5h1.1v3.5c0,0.3,0.1,0.6,0.3,0.8c0.2,0.2,0.4,0.2,0.7,0.2c0.6,0,0.9-0.3,0.9-1v-3.5H181.5z"/>
		<path id="XMLID_244_" class="st36" d="M184.3,128.8h-0.9v1.9h-1.1v-5.3h2c0.6,0,1.1,0.1,1.5,0.4c0.3,0.3,0.5,0.7,0.5,1.2
			c0,0.4-0.1,0.7-0.2,0.9c-0.2,0.2-0.4,0.4-0.7,0.6l1.1,2.2v0.1h-1.2L184.3,128.8z M183.5,127.9h0.9c0.3,0,0.5-0.1,0.6-0.2
			c0.2-0.1,0.2-0.3,0.2-0.6c0-0.3-0.1-0.4-0.2-0.6c-0.1-0.1-0.4-0.2-0.7-0.2h-0.9V127.9z"/>
		<path id="XMLID_252_" class="st36" d="M190.3,128.4h-2.1v1.4h2.5v0.9h-3.6v-5.3h3.6v0.9h-2.5v1.3h2.1V128.4z"/>
		<path id="XMLID_254_" class="st36" d="M194.1,129.4c0-0.2-0.1-0.4-0.2-0.5c-0.1-0.1-0.4-0.2-0.8-0.4c-0.4-0.1-0.7-0.2-0.9-0.4
			c-0.6-0.3-0.9-0.8-0.9-1.3c0-0.3,0.1-0.5,0.2-0.8c0.2-0.2,0.4-0.4,0.7-0.5c0.3-0.1,0.6-0.2,1-0.2c0.4,0,0.7,0.1,1,0.2
			c0.3,0.1,0.5,0.3,0.7,0.6c0.2,0.3,0.2,0.5,0.2,0.9h-1.1c0-0.2-0.1-0.4-0.2-0.6c-0.2-0.1-0.4-0.2-0.6-0.2c-0.3,0-0.5,0.1-0.6,0.2
			c-0.1,0.1-0.2,0.3-0.2,0.4c0,0.2,0.1,0.3,0.3,0.4c0.2,0.1,0.4,0.2,0.8,0.3c0.6,0.2,1.1,0.4,1.4,0.7s0.4,0.6,0.4,1
			c0,0.5-0.2,0.8-0.5,1.1c-0.3,0.3-0.8,0.4-1.4,0.4c-0.4,0-0.8-0.1-1.1-0.2c-0.3-0.2-0.6-0.4-0.8-0.6c-0.2-0.3-0.3-0.6-0.3-0.9h1.1
			c0,0.6,0.4,0.9,1.1,0.9c0.3,0,0.5-0.1,0.6-0.2C194,129.7,194.1,129.5,194.1,129.4z"/>
	</g>
	<line id="XMLID_1_" class="st34" x1="59.4" y1="67.3" x2="58.3" y2="67.3"/>
	<path id="XMLID_7_" class="st37" d="M169,144.2c-1.2,0-2.1,1-2.1,2.1c0,1.2,1,2.1,2.1,2.1c1.2,0,2.1-1,2.1-2.1
		C171.2,145.2,170.2,144.2,169,144.2z M169,144.8c0.8,0,1.5,0.7,1.5,1.5c0,0.8-0.7,1.5-1.5,1.5c-0.8,0-1.5-0.7-1.5-1.5
		C167.5,145.5,168.2,144.8,169,144.8z M169,149.1c-2.3,0-4.3,1.6-4.3,3.7h0.6c0-1.7,1.6-3,3.7-3c2.1,0,3.7,1.4,3.7,3h0.6
		C173.3,150.7,171.4,149.1,169,149.1z"/>
	<g id="XMLID_6_">
		<path id="XMLID_14_" class="st37" d="M195.3,147.4v-1.5c0-0.8-0.3-1.6-0.9-2.2c-0.6-0.6-1.4-0.9-2.2-0.9c-1.7,0-3.1,1.4-3.1,3.1
			v1.5c-0.4,0.1-0.7,0.4-0.7,0.8v2.8c0,1.4,1.1,2.5,2.5,2.5h2.7c1.4,0,2.5-1.1,2.5-2.5v-2.8C196,147.8,195.7,147.5,195.3,147.4z
			 M189.4,145.9c0-1.5,1.2-2.8,2.8-2.8c0.7,0,1.4,0.3,2,0.8c0.5,0.5,0.8,1.2,0.8,2v1.5h-0.5v-1.5c0-1.2-1-2.3-2.3-2.3
			c-1.2,0-2.3,1-2.3,2.3v1.5h-0.5L189.4,145.9L189.4,145.9z M194.1,145.9v1.5h-3.9v-1.5c0-1.1,0.9-1.9,1.9-1.9
			C193.3,144,194.1,144.8,194.1,145.9z M195.7,151c0,1.2-1,2.1-2.1,2.1h-2.7c-1.2,0-2.1-1-2.1-2.1v-2.8c0-0.3,0.2-0.5,0.5-0.5h6
			c0.3,0,0.5,0.2,0.5,0.5L195.7,151L195.7,151z"/>
		<path id="XMLID_11_" class="st37" d="M193,149.8c0-0.5-0.4-0.8-0.8-0.8c-0.4,0-0.8,0.4-0.8,0.8c0,0.2,0.1,0.4,0.2,0.6l-0.2,1.4
			c0,0,0,0.1,0,0.1c0,0,0.1,0.1,0.1,0.1h1.2c0,0,0.1,0,0.1-0.1c0,0,0-0.1,0-0.1l-0.2-1.4C192.9,150.2,193,150,193,149.8z
			 M192.4,150.3l0.2,1.3h-0.8l0.2-1.3c0-0.1,0-0.1-0.1-0.2c-0.1-0.1-0.2-0.2-0.2-0.4c0-0.3,0.2-0.5,0.5-0.5c0.3,0,0.5,0.2,0.5,0.5
			c0,0.2-0.1,0.3-0.2,0.4C192.4,150.2,192.4,150.3,192.4,150.3z"/>
	</g>
	<path id="XMLID_25_" class="st37" d="M214.1,167.9c-0.5,0-1,0.4-1,1v0.3h-0.3c-0.5,0-1,0.4-1,1v5.2c0,0.5,0.4,1,1,1h7.9
		c0.5,0,1-0.4,1-1v-3.3c0-0.2-0.1-0.3-0.3-0.4s-0.3,0.1-0.4,0.3c0,0,0,0,0,0.1v3.3c0,0.2-0.1,0.3-0.3,0.3h-7.9
		c-0.2,0-0.3-0.1-0.3-0.3v-5.2c0-0.2,0.1-0.3,0.3-0.3h7.9c0.2,0,0.3,0.1,0.3,0.3v0.7c0,0.2,0.1,0.3,0.3,0.4s0.3-0.1,0.4-0.3
		c0,0,0,0,0-0.1v-0.7c0-0.5-0.4-1-1-1h-0.3v-0.3c0-0.5-0.4-1-1-1H214.1z M214.1,168.5h5.2c0.2,0,0.3,0.1,0.3,0.3v0.3h-5.9v-0.3
		C213.8,168.7,213.9,168.5,214.1,168.5z M216.7,170.5c-0.2,0-0.3,0.2-0.3,0.3v3.1l-0.8-0.8c-0.1-0.1-0.2-0.1-0.3-0.1
		c-0.2,0-0.3,0.2-0.3,0.4c0,0.1,0,0.1,0.1,0.2l1.3,1.3c0.1,0.1,0.3,0.1,0.5,0l1.3-1.3c0.1-0.1,0.2-0.3,0-0.5c-0.1-0.1-0.3-0.2-0.5,0
		c0,0,0,0,0,0l-0.8,0.8v-3.1C217.1,170.7,216.9,170.5,216.7,170.5z"/>
	<g id="XMLID_48_">
		<path id="XMLID_46_" class="st38" d="M169.3,167.5c0.1,0,0.2-0.1,0.2-0.2v-1c0-0.1-0.1-0.2-0.2-0.2c-0.1,0-0.2,0.1-0.2,0.2v1
			C169.1,167.4,169.2,167.5,169.3,167.5z"/>
		<path id="XMLID_45_" class="st38" d="M166.2,168.6c0.1,0.1,0.2,0.1,0.2,0c0.1-0.1,0.1-0.2,0-0.2l-0.9-0.9c-0.1-0.1-0.2-0.1-0.2,0
			c-0.1,0.1-0.1,0.2,0,0.2L166.2,168.6z"/>
		<path id="XMLID_44_" class="st38" d="M172.2,168.7c0,0,0.1,0,0.1-0.1l0.9-0.9c0.1-0.1,0.1-0.2,0-0.2c-0.1-0.1-0.2-0.1-0.2,0
			l-0.9,0.9c-0.1,0.1-0.1,0.2,0,0.2C172.1,168.7,172.1,168.7,172.2,168.7z"/>
		<path id="XMLID_43_" class="st38" d="M166.2,174.3l-0.9,0.9c-0.1,0.1-0.1,0.2,0,0.2c0.1,0.1,0.2,0.1,0.2,0c0,0,0,0,0,0l0.9-0.9
			c0.1-0.1,0.1-0.2,0-0.2C166.4,174.2,166.3,174.2,166.2,174.3z"/>
		<path id="XMLID_42_" class="st38" d="M172.3,174.3c-0.1-0.1-0.2-0.1-0.2,0c-0.1,0.1-0.1,0.2,0,0.2l0.9,0.9c0.1,0.1,0.2,0.1,0.2,0
			c0.1-0.1,0.1-0.2,0-0.2L172.3,174.3z"/>
		<path id="XMLID_41_" class="st38" d="M164.1,171.6h1c0.1,0,0.2-0.1,0.2-0.2c0-0.1-0.1-0.2-0.2-0.2h-1c-0.1,0-0.2,0.1-0.2,0.2
			C163.9,171.5,164,171.6,164.1,171.6z"/>
		<path id="XMLID_40_" class="st38" d="M173.4,171.6h1c0.1,0,0.2-0.1,0.2-0.2c0-0.1-0.1-0.2-0.2-0.2h-1c-0.1,0-0.2,0.1-0.2,0.2
			C173.2,171.5,173.3,171.6,173.4,171.6z"/>
		<path id="XMLID_50_" class="st38" d="M167.6,174.7c0.2,0.1,0.3,0.3,0.3,0.5v0.3c-0.3,0.1-0.4,0.4-0.3,0.7c0.1,0.2,0.2,0.3,0.4,0.3
			c-0.1,0.3,0,0.6,0.3,0.7c0.1,0,0.1,0,0.2,0h1.7c0.3,0,0.5-0.2,0.5-0.5c0-0.1,0-0.1,0-0.2c0.3-0.1,0.4-0.4,0.4-0.6
			c0-0.2-0.2-0.3-0.3-0.4v-0.3c0-0.2,0.1-0.4,0.3-0.5c1.2-0.6,2-1.9,2-3.2c0-0.1,0-0.2,0-0.4c0-0.1-0.1-0.2-0.2-0.2
			c-0.1,0-0.2,0.1-0.2,0.2c0,0,0,0,0,0c0,0.1,0,0.2,0,0.3c0,1.2-0.7,2.3-1.8,2.9c-0.3,0.1-0.5,0.4-0.5,0.8v0.3h-0.3v-2.1h0.5
			c0.5,0,0.9-0.4,0.9-0.9s-0.4-0.9-0.9-0.9s-0.9,0.4-0.9,0.9v0.5h-0.7v-0.5c0-0.5-0.4-0.9-0.9-0.9s-0.9,0.4-0.9,0.9s0.4,0.9,0.9,0.9
			h0.5v2.1h-0.3v-0.3c0-0.3-0.2-0.6-0.5-0.8c-1.6-0.8-2.2-2.8-1.4-4.4s2.8-2.2,4.4-1.4c0.6,0.3,1.1,0.8,1.4,1.3
			c0,0.1,0.1,0.1,0.2,0.1s0.1-0.1,0.1-0.2c0,0,0,0,0,0c-0.7-1.2-2-2-3.4-1.9c-2,0.1-3.5,1.8-3.4,3.8
			C165.7,172.9,166.5,174.1,167.6,174.7z M169.9,172.5c0-0.3,0.2-0.5,0.5-0.5c0.3,0,0.5,0.2,0.5,0.5s-0.2,0.5-0.5,0.5h-0.5V172.5z
			 M170.1,176.8h-1.7c-0.1,0-0.2-0.1-0.2-0.2c0-0.1,0.1-0.2,0.2-0.2h1.7c0.1,0,0.2,0.1,0.2,0.2C170.3,176.7,170.2,176.8,170.1,176.8
			z M168.1,173c-0.3,0-0.5-0.2-0.5-0.5s0.2-0.5,0.5-0.5c0.3,0,0.5,0.2,0.5,0.5v0.5H168.1z M168.9,173.3h0.7v2.1h-0.7V173.3z
			 M170.5,175.7c0.1,0,0.2,0.1,0.2,0.2c0,0.1-0.1,0.2-0.2,0.2h-2.4c-0.1,0-0.2-0.1-0.2-0.2c0-0.1,0.1-0.2,0.2-0.2H170.5z"/>
		<path id="XMLID_19_" class="st38" d="M172.6,170.3C172.6,170.3,172.6,170.2,172.6,170.3c-0.1,0-0.2,0-0.2,0.1c0,0,0,0,0,0
			c0,0,0,0,0,0.1c0,0,0,0,0,0.1c0,0,0.1,0,0.1,0c0,0,0.1,0,0.1,0C172.7,170.5,172.7,170.4,172.6,170.3
			C172.6,170.3,172.6,170.3,172.6,170.3C172.6,170.3,172.6,170.3,172.6,170.3z"/>
	</g>
</g>
</svg>
