<svg width="120" height="120" viewBox="0 0 120 120" fill="none" xmlns="http://www.w3.org/2000/svg">
<path d="M41.59 86.614H46.112V88H39.7V86.754L44.208 79.656H39.7V78.27H46.112V79.516L41.59 86.614ZM51.2026 88.126C50.4746 88.126 49.8166 87.9627 49.2286 87.636C48.6406 87.3 48.1786 86.8333 47.8426 86.236C47.5066 85.6293 47.3386 84.9293 47.3386 84.136C47.3386 83.352 47.5113 82.6567 47.8566 82.05C48.202 81.4433 48.6733 80.9767 49.2706 80.65C49.868 80.3233 50.5353 80.16 51.2726 80.16C52.01 80.16 52.6773 80.3233 53.2746 80.65C53.872 80.9767 54.3433 81.4433 54.6886 82.05C55.034 82.6567 55.2066 83.352 55.2066 84.136C55.2066 84.92 55.0293 85.6153 54.6746 86.222C54.32 86.8287 53.8346 87.3 53.2186 87.636C52.612 87.9627 51.94 88.126 51.2026 88.126ZM51.2026 86.74C51.6133 86.74 51.996 86.642 52.3506 86.446C52.7146 86.25 53.0086 85.956 53.2326 85.564C53.4566 85.172 53.5686 84.696 53.5686 84.136C53.5686 83.576 53.4613 83.1047 53.2466 82.722C53.032 82.33 52.7473 82.036 52.3926 81.84C52.038 81.644 51.6553 81.546 51.2446 81.546C50.834 81.546 50.4513 81.644 50.0966 81.84C49.7513 82.036 49.476 82.33 49.2706 82.722C49.0653 83.1047 48.9626 83.576 48.9626 84.136C48.9626 84.9667 49.1726 85.6107 49.5926 86.068C50.022 86.516 50.5586 86.74 51.2026 86.74ZM60.1304 88.126C59.4024 88.126 58.7444 87.9627 58.1564 87.636C57.5684 87.3 57.1064 86.8333 56.7704 86.236C56.4344 85.6293 56.2664 84.9293 56.2664 84.136C56.2664 83.352 56.439 82.6567 56.7844 82.05C57.1297 81.4433 57.601 80.9767 58.1984 80.65C58.7957 80.3233 59.463 80.16 60.2004 80.16C60.9377 80.16 61.605 80.3233 62.2024 80.65C62.7997 80.9767 63.271 81.4433 63.6164 82.05C63.9617 82.6567 64.1344 83.352 64.1344 84.136C64.1344 84.92 63.957 85.6153 63.6024 86.222C63.2477 86.8287 62.7624 87.3 62.1464 87.636C61.5397 87.9627 60.8677 88.126 60.1304 88.126ZM60.1304 86.74C60.541 86.74 60.9237 86.642 61.2784 86.446C61.6424 86.25 61.9364 85.956 62.1604 85.564C62.3844 85.172 62.4964 84.696 62.4964 84.136C62.4964 83.576 62.389 83.1047 62.1744 82.722C61.9597 82.33 61.675 82.036 61.3204 81.84C60.9657 81.644 60.583 81.546 60.1724 81.546C59.7617 81.546 59.379 81.644 59.0244 81.84C58.679 82.036 58.4037 82.33 58.1984 82.722C57.993 83.1047 57.8904 83.576 57.8904 84.136C57.8904 84.9667 58.1004 85.6107 58.5204 86.068C58.9497 86.516 59.4864 86.74 60.1304 86.74ZM75.0501 80.16C75.6568 80.16 76.1981 80.286 76.6741 80.538C77.1594 80.79 77.5374 81.1633 77.8081 81.658C78.0881 82.1527 78.2281 82.75 78.2281 83.45V88H76.6461V83.688C76.6461 82.9973 76.4734 82.47 76.1281 82.106C75.7828 81.7327 75.3114 81.546 74.7141 81.546C74.1168 81.546 73.6408 81.7327 73.2861 82.106C72.9408 82.47 72.7681 82.9973 72.7681 83.688V88H71.1861V83.688C71.1861 82.9973 71.0134 82.47 70.6681 82.106C70.3228 81.7327 69.8514 81.546 69.2541 81.546C68.6568 81.546 68.1808 81.7327 67.8261 82.106C67.4808 82.47 67.3081 82.9973 67.3081 83.688V88H65.7121V80.286H67.3081V81.168C67.5694 80.8507 67.9008 80.6033 68.3021 80.426C68.7034 80.2487 69.1328 80.16 69.5901 80.16C70.2061 80.16 70.7568 80.2907 71.2421 80.552C71.7274 80.8133 72.1008 81.1913 72.3621 81.686C72.5954 81.2193 72.9594 80.8507 73.4541 80.58C73.9488 80.3 74.4808 80.16 75.0501 80.16Z" fill="#1976D2"/>
<path fill-rule="evenodd" clip-rule="evenodd" d="M83 51C83 64.254 72.4779 75 59.5 75C46.5221 75 36 64.254 36 51C36 37.746 46.5221 27 59.5 27C72.4779 27 83 37.746 83 51ZM47.75 59.4H65.375V46.2C65.375 45.7272 65.2838 45.2591 65.1067 44.8223C64.9295 44.3856 64.6699 43.9887 64.3426 43.6544C64.0152 43.3201 63.6266 43.055 63.199 42.874C62.7713 42.6931 62.3129 42.6 61.85 42.6H44.225V55.8C44.225 56.7548 44.5964 57.6705 45.2574 58.3456C45.5848 58.6799 45.9734 58.945 46.401 59.126C46.8287 59.3069 47.2871 59.4 47.75 59.4ZM67.725 54.6L74.775 59.4V42.6L67.725 47.4V54.6Z" fill="#1976D2"/>
</svg>
