<svg width="120" height="120" viewBox="0 0 120 120" fill="none" xmlns="http://www.w3.org/2000/svg">
<path d="M33.298 77.8155V87.5455H31.702V80.8815L28.734 87.5455H27.628L24.646 80.8815V87.5455H23.05V77.8155H24.772L28.188 85.4455L31.59 77.8155H33.298ZM34.8637 83.6535C34.8637 82.8788 35.0224 82.1928 35.3397 81.5955C35.6664 80.9981 36.105 80.5361 36.6557 80.2095C37.2157 79.8735 37.8317 79.7055 38.5037 79.7055C39.1104 79.7055 39.6377 79.8268 40.0857 80.0695C40.543 80.3028 40.907 80.5968 41.1777 80.9515V79.8315H42.7877V87.5455H41.1777V86.3975C40.907 86.7615 40.5384 87.0648 40.0717 87.3075C39.605 87.5501 39.073 87.6715 38.4757 87.6715C37.813 87.6715 37.2064 87.5035 36.6557 87.1675C36.105 86.8221 35.6664 86.3461 35.3397 85.7395C35.0224 85.1235 34.8637 84.4281 34.8637 83.6535ZM41.1777 83.6815C41.1777 83.1495 41.0657 82.6875 40.8417 82.2955C40.627 81.9035 40.3424 81.6048 39.9877 81.3995C39.633 81.1941 39.2504 81.0915 38.8397 81.0915C38.429 81.0915 38.0464 81.1941 37.6917 81.3995C37.337 81.5955 37.0477 81.8895 36.8237 82.2815C36.609 82.6641 36.5017 83.1215 36.5017 83.6535C36.5017 84.1855 36.609 84.6521 36.8237 85.0535C37.0477 85.4548 37.337 85.7628 37.6917 85.9775C38.0557 86.1828 38.4384 86.2855 38.8397 86.2855C39.2504 86.2855 39.633 86.1828 39.9877 85.9775C40.3424 85.7721 40.627 85.4735 40.8417 85.0815C41.0657 84.6801 41.1777 84.2135 41.1777 83.6815ZM45.696 78.8095C45.4067 78.8095 45.164 78.7115 44.968 78.5155C44.772 78.3195 44.674 78.0768 44.674 77.7875C44.674 77.4981 44.772 77.2555 44.968 77.0595C45.164 76.8635 45.4067 76.7655 45.696 76.7655C45.976 76.7655 46.214 76.8635 46.41 77.0595C46.606 77.2555 46.704 77.4981 46.704 77.7875C46.704 78.0768 46.606 78.3195 46.41 78.5155C46.214 78.7115 45.976 78.8095 45.696 78.8095ZM46.48 79.8315V87.5455H44.884V79.8315H46.48ZM50.1714 77.1855V87.5455H48.5754V77.1855H50.1714ZM51.7348 83.6815C51.7348 82.8881 51.8935 82.1928 52.2108 81.5955C52.5375 80.9888 52.9855 80.5221 53.5548 80.1955C54.1241 79.8688 54.7775 79.7055 55.5148 79.7055C56.4481 79.7055 57.2181 79.9295 57.8248 80.3775C58.4408 80.8161 58.8561 81.4461 59.0708 82.2675H57.3488C57.2088 81.8848 56.9848 81.5861 56.6768 81.3715C56.3688 81.1568 55.9815 81.0495 55.5148 81.0495C54.8615 81.0495 54.3388 81.2828 53.9468 81.7495C53.5641 82.2068 53.3728 82.8508 53.3728 83.6815C53.3728 84.5121 53.5641 85.1608 53.9468 85.6275C54.3388 86.0941 54.8615 86.3275 55.5148 86.3275C56.4388 86.3275 57.0501 85.9215 57.3488 85.1095H59.0708C58.8468 85.8935 58.4268 86.5188 57.8108 86.9855C57.1948 87.4428 56.4295 87.6715 55.5148 87.6715C54.7775 87.6715 54.1241 87.5081 53.5548 87.1815C52.9855 86.8455 52.5375 86.3788 52.2108 85.7815C51.8935 85.1748 51.7348 84.4748 51.7348 83.6815ZM64.6513 79.7055C65.2393 79.7055 65.762 79.8315 66.2193 80.0835C66.686 80.3355 67.05 80.7088 67.3113 81.2035C67.582 81.6981 67.7173 82.2955 67.7173 82.9955V87.5455H66.1353V83.2335C66.1353 82.5428 65.9627 82.0155 65.6173 81.6515C65.272 81.2781 64.8007 81.0915 64.2033 81.0915C63.606 81.0915 63.13 81.2781 62.7753 81.6515C62.43 82.0155 62.2573 82.5428 62.2573 83.2335V87.5455H60.6613V77.1855H62.2573V80.7275C62.528 80.4008 62.8687 80.1488 63.2793 79.9715C63.6993 79.7941 64.1567 79.7055 64.6513 79.7055ZM70.5651 78.8095C70.2758 78.8095 70.0331 78.7115 69.8371 78.5155C69.6411 78.3195 69.5431 78.0768 69.5431 77.7875C69.5431 77.4981 69.6411 77.2555 69.8371 77.0595C70.0331 76.8635 70.2758 76.7655 70.5651 76.7655C70.8451 76.7655 71.0831 76.8635 71.2791 77.0595C71.4751 77.2555 71.5731 77.4981 71.5731 77.7875C71.5731 78.0768 71.4751 78.3195 71.2791 78.5155C71.0831 78.7115 70.8451 78.8095 70.5651 78.8095ZM71.3491 79.8315V87.5455H69.7531V79.8315H71.3491ZM82.7825 79.7055C83.3892 79.7055 83.9305 79.8315 84.4065 80.0835C84.8919 80.3355 85.2699 80.7088 85.5405 81.2035C85.8205 81.6981 85.9605 82.2955 85.9605 82.9955V87.5455H84.3785V83.2335C84.3785 82.5428 84.2059 82.0155 83.8605 81.6515C83.5152 81.2781 83.0439 81.0915 82.4465 81.0915C81.8492 81.0915 81.3732 81.2781 81.0185 81.6515C80.6732 82.0155 80.5005 82.5428 80.5005 83.2335V87.5455H78.9185V83.2335C78.9185 82.5428 78.7459 82.0155 78.4005 81.6515C78.0552 81.2781 77.5839 81.0915 76.9865 81.0915C76.3892 81.0915 75.9132 81.2781 75.5585 81.6515C75.2132 82.0155 75.0405 82.5428 75.0405 83.2335V87.5455H73.4445V79.8315H75.0405V80.7135C75.3019 80.3961 75.6332 80.1488 76.0345 79.9715C76.4359 79.7941 76.8652 79.7055 77.3225 79.7055C77.9385 79.7055 78.4892 79.8361 78.9745 80.0975C79.4599 80.3588 79.8332 80.7368 80.0945 81.2315C80.3279 80.7648 80.6919 80.3961 81.1865 80.1255C81.6812 79.8455 82.2132 79.7055 82.7825 79.7055ZM89.5874 80.9655C89.8581 80.6108 90.2267 80.3121 90.6934 80.0695C91.1601 79.8268 91.6874 79.7055 92.2754 79.7055C92.9474 79.7055 93.5587 79.8735 94.1094 80.2095C94.6694 80.5361 95.1081 80.9981 95.4254 81.5955C95.7427 82.1928 95.9014 82.8788 95.9014 83.6535C95.9014 84.4281 95.7427 85.1235 95.4254 85.7395C95.1081 86.3461 94.6694 86.8221 94.1094 87.1675C93.5587 87.5035 92.9474 87.6715 92.2754 87.6715C91.6874 87.6715 91.1647 87.5548 90.7074 87.3215C90.2501 87.0788 89.8767 86.7801 89.5874 86.4255V91.2135H87.9914V79.8315H89.5874V80.9655ZM94.2774 83.6535C94.2774 83.1215 94.1654 82.6641 93.9414 82.2815C93.7267 81.8895 93.4374 81.5955 93.0734 81.3995C92.7187 81.1941 92.3361 81.0915 91.9254 81.0915C91.5241 81.0915 91.1414 81.1941 90.7774 81.3995C90.4227 81.6048 90.1334 81.9035 89.9094 82.2955C89.6947 82.6875 89.5874 83.1495 89.5874 83.6815C89.5874 84.2135 89.6947 84.6801 89.9094 85.0815C90.1334 85.4735 90.4227 85.7721 90.7774 85.9775C91.1414 86.1828 91.5241 86.2855 91.9254 86.2855C92.3361 86.2855 92.7187 86.1828 93.0734 85.9775C93.4374 85.7628 93.7267 85.4548 93.9414 85.0535C94.1654 84.6521 94.2774 84.1855 94.2774 83.6535Z" fill="black"/>
<path d="M74.2103 69.4308C74.1347 69.4802 74.0568 69.5047 73.9756 69.5047C73.8557 69.5047 73.7515 69.4622 73.664 69.3773C73.5761 69.292 73.532 69.1803 73.532 69.0422C73.532 68.913 73.57 68.8029 73.6457 68.7122C73.7213 68.6214 73.8248 68.576 73.9562 68.576C74.0402 68.576 74.1128 68.5931 74.1743 68.6273C74.2747 68.6829 74.3369 68.7801 74.3613 68.9187L74.1593 68.9156C74.1472 68.8511 74.1215 68.8081 74.0821 68.7858C74.0498 68.7653 74.0121 68.7545 73.9737 68.7549C73.9142 68.7549 73.8654 68.7793 73.8274 68.8275C73.7896 68.876 73.7707 68.9493 73.7707 69.0468C73.7707 69.1438 73.7915 69.2143 73.8335 69.2581C73.8754 69.3021 73.9255 69.3239 73.9842 69.3239C74.0379 69.3239 74.0787 69.3094 74.1063 69.2804C74.1337 69.2514 74.1516 69.2146 74.1593 69.1708H74.3557C74.3343 69.2946 74.286 69.3813 74.2103 69.4308V69.4308ZM73.4914 68.5857C73.3652 68.7134 73.3023 68.8648 73.3023 69.0399C73.3023 69.2216 73.3664 69.376 73.4947 69.5025C73.6224 69.6299 73.7762 69.6933 73.9564 69.6933C74.1363 69.6933 74.2898 69.6293 74.417 69.5016C74.4787 69.4415 74.5274 69.3696 74.5603 69.2902C74.5931 69.2108 74.6094 69.1257 74.608 69.0399C74.608 68.8656 74.5448 68.7142 74.4179 68.5857C74.2901 68.4552 74.1363 68.3899 73.9562 68.3899C73.7747 68.3899 73.6198 68.4552 73.4913 68.5857H73.4914ZM74.5103 69.6027C74.3565 69.7502 74.1718 69.8238 73.9564 69.8238C73.7339 69.8238 73.5461 69.7484 73.394 69.5974C73.2412 69.4464 73.165 69.2605 73.165 69.0399C73.165 68.8109 73.2476 68.6204 73.4119 68.4689C73.5665 68.3267 73.7482 68.2559 73.9564 68.2559C74.1748 68.2559 74.3613 68.3324 74.5157 68.486C74.6703 68.639 74.7479 68.8236 74.7479 69.0399C74.7479 69.2627 74.6687 69.4502 74.5103 69.6027V69.6027ZM76.2018 61.186C76.1988 61.111 76.1925 61.0362 76.1829 60.9618C76.1772 60.9152 76.1684 60.8689 76.1566 60.8234C76.1383 60.7191 76.1117 60.6163 76.0772 60.5161L76.0764 60.5143C76.0027 60.3062 75.8905 60.1135 75.7455 59.9461C75.6074 59.7882 75.4412 59.6569 75.2551 59.5587L75.2493 59.5554C75.0825 59.4697 74.9038 59.4089 74.7189 59.375C74.6705 59.3664 74.6255 59.362 74.5804 59.3568C74.7907 58.4642 74.5275 57.7825 74.3575 57.4639C74.3706 57.4512 74.3844 57.4387 74.3969 57.4267C74.6215 57.2118 74.8123 57.0063 74.973 56.7999L75.0032 56.7585C75.1204 56.5918 75.211 56.4082 75.272 56.2142C75.313 56.0822 75.3408 55.9465 75.355 55.8091L75.3566 55.8093L75.3578 55.8019L75.3586 55.7845L75.3638 55.7468H75.3607L75.363 55.7044H75.3642L75.3647 55.679C75.3656 55.654 75.3663 55.6281 75.3663 55.6006C75.3676 55.5501 75.3673 55.4977 75.3647 55.4401C75.3523 55.1636 75.3019 54.8042 75.1187 54.4151C75.0195 54.2045 74.8892 54.0098 74.7323 53.8372C74.5547 53.643 74.3463 53.4791 74.1153 53.3517L74.1166 53.3523C74.0992 53.3426 74.0854 53.3333 74.0693 53.324C73.5703 52.596 73.0003 52.0317 72.4949 51.6036C72.2637 51.4085 72.0251 51.2223 71.7796 51.0452C71.573 50.8949 71.3989 50.7761 71.3019 50.7049L71.3029 50.7054C71.0806 50.5439 70.9153 50.4467 70.8363 50.4026C70.6539 50.2929 70.5187 50.2053 70.4369 50.1441C70.3987 50.1169 70.3631 50.0864 70.3302 50.0531L70.3241 50.0451C70.323 50.0435 70.3159 50.0298 70.3064 49.9811C70.2962 49.9325 70.2852 49.8493 70.2804 49.7291C70.2719 49.5403 70.2785 49.2635 70.2995 48.8981C70.3327 48.3104 70.4002 47.4996 70.4699 46.4007C70.4929 46.0512 70.4962 45.7219 70.4834 45.4116C70.4625 44.9141 70.3976 44.4635 70.2926 44.0548L70.2923 44.0526C70.2693 43.9598 70.2423 43.8686 70.2142 43.7786L70.2137 43.7778L70.2132 43.7766C70.192 43.7096 70.1735 43.6589 70.162 43.6267L70.1628 43.6285C70.1415 43.5684 70.119 43.5087 70.0954 43.4494L70.0946 43.447C70.0826 43.4177 70.0675 43.3801 70.0475 43.3332L70.047 43.332L70.0466 43.3314C70.0054 43.2341 69.96 43.1386 69.9106 43.0452L69.896 43.0178L69.8687 42.9693L69.8491 42.9368C69.7521 42.7786 69.6453 42.6266 69.5292 42.4816C69.4492 42.124 69.3433 41.7727 69.2123 41.4302C69.0679 41.0563 68.8743 40.6413 68.5991 40.232C68.4999 40.0867 68.3921 39.9473 68.2761 39.8146L68.3155 39.7739C68.3712 39.7163 69.6932 38.3446 70.7285 36.5644C72.6578 33.2463 72.0155 31.2177 71.1375 30.1002L71.1125 30.069L71.0862 30.0397C70.2394 29.1072 69.0879 28.5452 67.6634 28.37C64.7133 28.0065 61.3773 29.4407 60.5026 29.8487L58.9126 28.1084L58.9065 28.1019C58.7665 27.9498 58.611 27.8124 58.4425 27.6918C58.2735 27.5714 58.0933 27.4673 57.9043 27.3809C57.5242 27.206 57.1074 27.0968 56.6638 27.0421C55.7737 26.9335 54.7748 27.0388 53.6881 27.3149C52.0595 27.7312 50.2304 28.5374 48.3186 29.6737C46.4078 30.8103 44.4164 32.2786 42.483 34.0259C40.1203 36.1608 38.1689 38.4182 36.747 40.5606C36.0366 41.6319 35.4581 42.6748 35.0282 43.664C34.5992 44.6538 34.3171 45.5894 34.2084 46.4551C34.1295 47.0843 34.1421 47.6789 34.2696 48.227C34.3244 48.4641 34.4042 48.6948 34.5077 48.9153C34.6381 49.1966 34.8112 49.4564 35.0208 49.6858L35.0261 49.6914L36.8762 51.6114L36.8655 51.6296C36.8454 51.6643 36.8267 51.6995 36.807 51.7346C36.7786 51.7867 36.7498 51.8387 36.7224 51.8912C36.704 51.9274 36.6861 51.9632 36.6686 51.9995C36.5976 52.1431 36.5321 52.2893 36.4721 52.4378L36.4281 52.5486C36.4066 52.6053 36.386 52.6634 36.3655 52.7207C36.3527 52.7581 36.3395 52.7956 36.3274 52.833C36.308 52.8916 36.2903 52.9509 36.2723 53.0105C36.2674 53.0271 36.2618 53.043 36.2571 53.0596C36.251 53.0806 36.2454 53.102 36.2397 53.123C36.2224 53.1838 36.2073 53.2455 36.192 53.3072C36.1831 53.344 36.1734 53.3812 36.1647 53.4186L36.1475 53.5C36.1394 53.5379 36.1325 53.576 36.1248 53.6146C36.1182 53.6491 36.1105 53.6838 36.1046 53.7186C36.0908 53.7961 36.0795 53.8749 36.0684 53.9531C36.0655 53.9763 36.0611 53.999 36.0583 54.0223L36.0574 54.0288L36.0556 54.0499C36.0494 54.1009 36.045 54.1525 36.0394 54.2046C36.0318 54.2853 36.0252 54.3666 36.0208 54.4485C36.0182 54.4843 36.0165 54.5207 36.0149 54.5572C36.0137 54.5854 36.0116 54.613 36.0106 54.6414C36.009 54.6983 36.0098 54.7561 36.0095 54.8143C36.0095 54.8486 36.0091 54.8833 36.0095 54.9184C36.0098 54.9391 36.0091 54.9596 36.0095 54.9803V54.9922C36.0106 55.0293 36.0121 55.0666 36.0129 55.1034C36.0149 55.1444 36.0187 55.1843 36.0211 55.2247C36.0229 55.2548 36.0238 55.2849 36.0256 55.3145C36.0282 55.3412 36.0295 55.3613 36.0313 55.3785C36.0346 55.4164 36.0384 55.455 36.0425 55.4926C36.0464 55.5363 36.0512 55.5828 36.0578 55.6359L36.0583 55.6405V55.6396L36.0655 55.6906C36.0714 55.7336 36.0783 55.7769 36.0849 55.8195C36.0901 55.8581 36.097 55.9011 36.1059 55.9551L36.1168 56.0105C36.1217 56.0365 36.1271 56.0623 36.132 56.0878L36.1325 56.0898L36.1332 56.0934L36.1402 56.1262C36.1468 56.1617 36.1559 56.2063 36.1697 56.2674L36.1795 56.3084C36.1894 56.3472 36.1966 56.3763 36.202 56.3968L36.2117 56.4362C36.215 56.4492 36.2183 56.4609 36.2227 56.4793L36.2323 56.5157L36.2405 56.5459L36.2477 56.5734L36.2584 56.6093L36.2684 56.6465C36.2773 56.6757 36.287 56.7043 36.2958 56.7335C36.3065 56.7673 36.32 56.8124 36.3399 56.8728L36.3366 56.8631L36.3404 56.8745C36.345 56.8888 36.3487 56.8982 36.353 56.9103C36.3708 56.9606 36.3849 56.999 36.392 57.0189L36.3931 57.0211V57.0215C36.4046 57.0543 36.4219 57.1025 36.4462 57.1652L36.4465 57.1662L36.4468 57.1677L36.4465 57.166L36.4485 57.1719L36.4477 57.1691L36.4583 57.195C36.4736 57.2336 36.4859 57.2634 36.4961 57.2863L36.508 57.3156L36.5099 57.3205C36.5286 57.3656 36.5478 57.4104 36.5674 57.455L36.5663 57.4525L36.5794 57.4805C36.5918 57.5074 36.6029 57.5326 36.6133 57.5532C36.6231 57.573 36.6314 57.5908 36.6384 57.6052L36.6374 57.603L36.6387 57.6061L36.6399 57.6085L36.6387 57.6061C36.6544 57.6381 36.6731 57.6793 36.6994 57.7308L36.7013 57.7357L36.703 57.7383L36.714 57.7597C36.7252 57.7809 36.7358 57.8014 36.7455 57.8192C36.759 57.8447 36.7713 57.8664 36.7809 57.8848L36.7828 57.889C36.7971 57.9146 36.817 57.9523 36.844 58.0007L36.8458 58.0039L36.8477 58.0075L36.8589 58.0261C36.8701 58.0456 36.8808 58.0642 36.8908 58.0809C36.9082 58.1099 36.9243 58.1358 36.9368 58.1575L36.9407 58.1635L36.9416 58.1653C36.9547 58.1864 36.9747 58.2198 37.003 58.2647L37.0056 58.269L37.0139 58.282C37.0277 58.3037 37.0411 58.3243 37.0534 58.3432C37.0738 58.3728 37.0917 58.3999 37.1072 58.423L37.1045 58.4191C37.1215 58.4437 37.1445 58.4788 37.176 58.5231L37.1785 58.5268L37.18 58.5296L37.1772 58.5249L37.1805 58.5298L37.1829 58.5334L37.1821 58.5327L37.1832 58.5343L37.1837 58.5347C37.1985 58.5557 37.2136 58.5762 37.2288 58.597C37.2495 58.6258 37.2693 58.6524 37.2871 58.6758L37.2859 58.6742C37.3029 58.697 37.3241 58.7253 37.3495 58.7588L37.3551 58.766C37.3745 58.7909 37.3929 58.814 37.411 58.8366C37.4343 58.8656 37.4566 58.8928 37.4774 58.918L37.4844 58.9268C37.4985 58.9439 37.5151 58.9643 37.5375 58.9902L37.5473 59.0019L37.547 59.002L37.5503 59.0061L37.5562 59.0123C37.5896 59.0511 37.6196 59.0844 37.6497 59.1176L37.6816 59.1539L37.6819 59.1544L37.6832 59.1557L37.6857 59.1582L37.6849 59.1577C37.6998 59.174 37.7181 59.1946 37.7407 59.2184L37.748 59.2264V59.2269L37.7493 59.2278L37.7537 59.2322L37.7526 59.2313C37.7887 59.27 37.8242 59.3057 37.8599 59.3416C37.8746 59.3563 37.8891 59.3726 37.904 59.3867L37.9057 59.3884C37.9134 59.3957 37.9307 59.4136 37.9586 59.4413L37.964 59.4462L37.98 59.4626C38.0228 59.5043 38.0677 59.5443 38.1121 59.5849L38.1222 59.595L38.1252 59.5972L38.1262 59.5982L38.1278 59.5998C38.1393 59.6098 38.1574 59.6265 38.1839 59.6501L38.1867 59.6531C38.2429 59.7023 38.2998 59.7507 38.3575 59.7983L38.3608 59.8011L38.393 59.8274L38.4149 59.8452L38.4142 59.8444L38.4471 59.8702C38.4952 59.9083 38.5424 59.9451 38.5879 59.9796L38.6007 59.9897L38.6066 59.994C38.624 60.0068 38.6368 60.0161 38.6439 60.0216L38.6528 60.0285L38.6597 60.0332C38.6728 60.0426 38.686 60.0518 38.6998 60.0614C38.74 60.0902 38.7803 60.1183 38.8209 60.1462L38.855 60.17L38.859 60.1727L38.9012 60.2012L38.903 60.202L38.9245 60.2157C38.9656 60.2432 39.0096 60.2702 39.053 60.2979C39.076 60.3124 39.0967 60.3261 39.1206 60.3404L39.1575 60.3627L39.1784 60.3748L39.192 60.3829C39.2599 60.4231 39.3235 60.4594 39.3818 60.4913L39.3874 60.4941L39.4235 60.5136L39.4262 60.5156C39.5067 60.5581 39.5834 60.597 39.6559 60.6328L39.6683 60.6386L39.7079 60.6575L39.7083 60.657C39.7475 60.6759 39.7855 60.6922 39.8244 60.7095C39.8425 60.7179 39.8611 60.7262 39.8793 60.7342C39.9013 60.744 39.9243 60.7557 39.9463 60.765L39.9651 60.773L39.9705 60.7751L39.9794 60.779C40.0172 60.7948 40.054 60.8083 40.0911 60.8233L40.1102 60.8304C40.1519 60.847 40.1938 60.8646 40.2354 60.8801L40.2452 60.8837L40.2761 60.8947C40.2957 60.9016 40.3157 60.9078 40.3353 60.9148L40.3538 60.9208C40.4135 60.9419 40.4733 60.9634 40.5341 60.9826L40.5484 60.987L40.5536 60.9887L40.5556 60.9898C40.6491 61.0186 40.7424 61.0452 40.8356 61.0701L40.8392 61.071L40.8549 61.0749L40.8495 61.0738C40.9318 61.0951 41.013 61.1135 41.0932 61.1314H41.0942L41.1239 61.1392L41.1551 61.1458C41.2317 61.1624 41.3096 61.1757 41.3883 61.1892L41.4105 61.1952L41.4657 61.2036C41.513 61.2112 41.5603 61.2172 41.6076 61.2236L41.628 61.2786L41.6288 61.2812C41.7587 61.6326 41.8987 61.9802 42.0486 62.3236C44.2677 68.408 50.4018 73.1247 57.4015 73.987C64.4017 74.8494 71.8737 70.2394 74.9179 64.01C75.0443 63.7804 75.1644 63.5475 75.2781 63.3114C75.5799 63.0034 75.8144 62.684 75.9701 62.3454C76.1564 61.9475 76.2192 61.5287 76.2018 61.186" fill="#59473D"/>
<path d="M70.046 43.3296L70.0466 43.3312L70.047 43.3318L70.046 43.3296V43.3296ZM39.158 60.363L39.1575 60.3627H39.1572L39.158 60.363ZM37.1757 58.5227L37.176 58.5236V58.5231L37.1757 58.5229V58.5227ZM37.1767 58.5247L37.1772 58.5249L37.176 58.5236L37.1767 58.5247ZM36.2483 56.5762L36.2477 56.5734L36.2472 56.5728L36.2483 56.5762ZM36.1698 56.2683L36.1696 56.2674L36.1693 56.2669L36.1698 56.2685V56.2683ZM37.3561 58.7669L37.3584 58.7699L37.3551 58.766L37.3533 58.7635L37.3561 58.7671" fill="#59473D"/>
<path d="M70.2146 30.7785C69.8756 30.405 69.4834 30.1237 69.0575 29.9153C68.979 29.8855 68.8995 29.8586 68.819 29.8346C68.7795 29.8085 68.7391 29.7841 68.6982 29.7602C68.3215 29.6172 67.9229 29.5239 67.5129 29.4717C65.4792 29.2123 63.1638 29.9459 61.8397 30.4669C61.7671 30.497 61.6939 30.5271 61.6198 30.558C61.3115 30.6885 61.0053 30.8239 60.7014 30.9642C60.6728 30.9772 60.6442 30.9909 60.6158 31.0043L60.0941 30.4037L59.9446 30.2315L59.88 30.1566L58.5152 28.5866L58.3967 28.4501L58.25 28.2816L58.2238 28.2873L57.8377 28.3739L57.392 28.4739C57.1455 28.3606 56.8527 28.2797 56.5138 28.2378C55.8349 28.1532 54.9729 28.231 53.9911 28.4825C53.009 28.7323 51.908 29.1523 50.7403 29.7286C48.4047 30.8799 45.8046 32.6548 43.3026 34.9164C42.4552 35.6812 41.6425 36.483 40.867 37.3193C40.1684 38.071 39.505 38.8541 38.8789 39.666C37.6675 41.2414 36.739 42.7737 36.146 44.1403C35.75 45.051 35.5051 45.8878 35.4155 46.6039C35.3495 47.1246 35.3667 47.5799 35.4548 47.9561C35.4832 48.0777 35.521 48.1884 35.5636 48.2941C35.6521 48.5165 35.7684 48.7081 35.9186 48.872L37.4323 50.4435L37.5947 50.6117L37.6054 50.6003C37.6514 50.5474 37.6989 50.4945 37.7467 50.4429L37.7596 50.4292C37.7771 50.4105 37.7951 50.393 37.8127 50.3753C37.8581 50.3279 37.9041 50.2813 37.9509 50.2353C37.98 50.2068 38.0094 50.1795 38.0391 50.1518C38.0679 50.1249 38.096 50.0969 38.1252 50.0704C38.1384 50.0585 38.152 50.0476 38.1655 50.0357C38.1962 50.008 38.2281 49.9808 38.2599 49.9535C38.3303 49.8929 38.402 49.834 38.475 49.7767L38.4869 49.7676C38.5652 49.707 38.6446 49.6478 38.7251 49.5901C38.7755 49.5546 38.827 49.5193 38.8789 49.4848C38.9101 49.4641 38.9408 49.4435 38.9722 49.4233C39.0253 49.3891 39.0795 49.3559 39.1337 49.3231C39.1654 49.3041 39.1962 49.2852 39.2275 49.2671C39.2844 49.2341 39.3421 49.2028 39.3994 49.1716C39.4301 49.1553 39.4604 49.1382 39.4911 49.1221L39.5256 49.1042L39.5308 49.1011C39.5796 49.0762 39.6294 49.0532 39.679 49.0295C39.707 49.0164 39.7334 49.0026 39.7618 48.9899C39.8033 48.9704 39.8456 48.9525 39.8879 48.9342C39.9243 48.9184 39.9607 48.9023 39.9978 48.887L40.0387 48.8691C40.1321 48.8313 40.2264 48.7957 40.3215 48.7623C40.3515 48.7516 40.3828 48.7424 40.413 48.732C40.4458 48.7213 40.4784 48.7104 40.5117 48.7L40.5502 48.6869C40.5699 48.6809 40.5896 48.6742 40.6092 48.6685C40.6497 48.6567 40.6908 48.6461 40.7314 48.6343L40.7616 48.6262C40.8088 48.6129 40.8558 48.5998 40.9034 48.588C40.9478 48.5766 40.9922 48.5671 41.0372 48.557C41.0924 48.5442 41.1478 48.5321 41.2033 48.5206C41.2266 48.5162 41.2496 48.5111 41.273 48.5066C41.2961 48.5023 41.3203 48.4989 41.3436 48.4947C41.3982 48.4849 41.4532 48.4758 41.5079 48.4673C41.5565 48.4602 41.6048 48.4538 41.6533 48.4471C41.6926 48.4422 41.731 48.4369 41.77 48.4325C41.7859 48.4309 41.8017 48.4297 41.8176 48.4284C41.8355 48.4263 41.8526 48.4237 41.8705 48.4222L41.8998 48.4206C42.1127 48.4122 42.326 48.4158 42.5386 48.4315L42.5739 48.4338C42.8085 48.4528 43.0621 48.4896 43.3284 48.5456C43.392 48.5591 43.4554 48.5722 43.5211 48.588C43.5346 48.5632 43.5484 48.5378 43.5622 48.5131C43.7032 48.2624 43.8458 48.018 43.99 47.7779C44.8329 46.3777 45.7371 45.1536 46.66 44.0863C46.9669 43.7309 47.2837 43.384 47.61 43.046C48.9336 41.6762 50.2651 40.6096 51.4826 39.786C51.7435 39.6096 52.0079 39.4384 52.2757 39.2724C52.6076 39.067 52.9448 38.8701 53.287 38.6821C53.5349 38.546 53.7855 38.4148 54.0387 38.2886C54.3928 38.1119 54.7522 37.946 55.1165 37.7911C55.3369 37.6977 55.5592 37.6089 55.7833 37.5248C55.6831 37.5143 55.5812 37.5064 55.477 37.501C55.3801 37.4959 55.2815 37.494 55.1818 37.4938L55.1067 37.494C54.8042 37.4968 54.5023 37.5214 54.2035 37.5677C54.1355 37.5783 54.0671 37.5902 53.9978 37.6037C54.4748 37.3593 54.9731 37.1579 55.4865 37.0022C55.8071 36.9045 56.1204 36.828 56.4211 36.7697C57.0309 36.6532 57.6508 36.5969 58.2718 36.6017C58.4844 36.6038 58.6801 36.6129 58.8561 36.626C59.4707 36.6715 59.8413 36.7648 59.8413 36.7648C59.754 36.643 59.6441 36.5369 59.5246 36.4443C59.3069 36.2772 59.0564 36.1576 58.8365 36.0728C58.7067 36.0225 58.5743 35.9792 58.4399 35.9429C58.5434 35.9253 58.6458 35.9103 58.7467 35.897C58.8521 35.8828 58.9578 35.8706 59.0638 35.8605C59.8125 35.7917 60.5672 35.8255 61.3065 35.9611C62.0084 36.0897 62.431 36.2645 62.431 36.2645C62.3309 36.0713 62.1826 35.9064 62.0202 35.767C61.9065 35.6704 61.7853 35.5829 61.6576 35.5053C62.3776 35.6702 63.077 35.9133 63.7431 36.2302C63.8828 36.2969 64.0207 36.3672 64.1567 36.441C64.5004 36.6268 64.6903 36.7603 64.6903 36.7603C64.6328 36.56 64.5162 36.3707 64.3801 36.2009C64.346 36.1582 64.3111 36.1162 64.2756 36.0764L64.2921 36.0838C64.3047 36.0879 64.3317 36.0962 64.3693 36.1089C64.3966 36.118 64.4296 36.1293 64.4692 36.1434C64.6187 36.1973 64.8474 36.2878 65.1162 36.4202L65.1553 36.4396C65.1918 36.4581 65.2291 36.477 65.2664 36.4965C65.3587 36.5447 65.454 36.5983 65.5513 36.6556C65.6952 36.7404 65.8354 36.8312 65.9716 36.9278C66.0741 37.0006 66.176 37.0789 66.2772 37.1625C66.3824 37.2497 66.4837 37.3413 66.581 37.437C66.6002 37.4564 66.6201 37.4753 66.6395 37.4953C66.7115 37.5685 66.7808 37.6457 66.8478 37.7258C66.9778 37.8792 67.0951 38.0429 67.1983 38.2152C67.328 38.4311 67.4329 38.6608 67.5108 38.8999C67.5151 38.9139 67.519 38.9284 67.5228 38.9422C67.5808 38.8805 67.683 38.7697 67.8161 38.6183C68.921 37.3598 72.175 33.2725 70.2146 30.7785" fill="#141C26"/>
<path d="M75.0769 61.3146L75.0776 61.3142C75.0776 61.3142 75.1157 61.0313 74.9647 60.7782L74.9614 60.7712C74.9528 60.7566 74.9435 60.7425 74.9335 60.7288L74.9237 60.7142C74.906 60.6915 74.8869 60.6699 74.8665 60.6495C74.8273 60.6087 74.7832 60.5728 74.735 60.5428C74.7071 60.5247 74.6781 60.5085 74.6481 60.4941C74.5625 60.4535 74.4598 60.4228 74.3379 60.405C74.2379 60.3921 74.1369 60.3878 74.0361 60.392C73.9912 60.3933 73.947 60.3943 73.8986 60.3988L73.8767 60.4001L73.8848 60.4293L73.9063 60.5094L73.9173 60.5533C73.9331 60.6158 73.9521 60.6955 73.9715 60.7853C73.9657 60.8027 73.959 60.8198 73.9515 60.8364L73.9441 60.8539C73.8885 60.9818 73.7375 61.2771 73.4012 61.6613C73.3439 61.7264 73.2805 61.7948 73.2124 61.8652C72.2743 62.8257 70.2435 64.1935 65.9716 64.9586C64.5219 65.1613 63.1853 65.1724 62.0437 65.0317C60.3557 64.8237 59.0908 64.2894 58.5025 63.5708C58.4515 63.5091 58.4047 63.4454 58.3602 63.3814C58.3275 63.3345 58.2962 63.2865 58.2665 63.2375C58.256 63.2196 58.2463 63.2016 58.2361 63.1838C57.9945 62.7589 57.8714 62.2779 57.8793 61.7903C57.8875 61.2224 58.0661 60.6792 58.3687 60.2616C58.6142 59.923 58.9405 59.6671 59.3224 59.5489C59.5154 59.489 59.7181 59.4654 59.9199 59.4792C59.9623 59.4821 60.0185 59.488 60.0885 59.4966C60.2288 59.514 60.4248 59.5414 60.6652 59.572L60.7454 59.5821C61.5472 59.6807 62.8238 59.8002 64.3676 59.7068C67.1766 59.5373 70.8736 58.6616 74.2306 55.6621L74.2398 55.6504V55.6452C74.251 55.394 74.2171 54.9403 73.8968 54.5873C73.8378 54.5228 73.7723 54.4644 73.7012 54.4131C73.6578 54.3812 73.6125 54.3518 73.5655 54.3252C73.5162 54.2982 73.471 54.2708 73.4275 54.2433C73.371 54.2087 73.316 54.1718 73.2624 54.1329L73.255 54.1224C73.2323 54.0872 73.2082 54.053 73.185 54.0178C72.3142 52.7111 71.1146 51.9526 70.6361 51.605C70.4106 51.4406 70.267 51.3657 70.267 51.3657C69.231 50.7406 69.079 50.5332 69.176 48.8352C69.2105 48.2237 69.2774 47.42 69.3462 46.3306C69.3547 46.1945 69.36 46.0583 69.3621 45.922C69.3628 45.8902 69.3634 45.8594 69.3634 45.8283C69.3647 45.7068 69.3629 45.5853 69.3582 45.4638L69.357 45.4301L69.3542 45.3942C69.3468 45.2662 69.3366 45.1383 69.3235 45.0108C69.3138 44.9201 69.3015 44.8297 69.2867 44.7397C69.2795 44.6951 69.2706 44.6521 69.2624 44.6087C69.2533 44.5607 69.2434 44.5129 69.2328 44.4652C69.2231 44.4194 69.2125 44.3738 69.2011 44.3283L69.2006 44.328L69.2011 44.3275V44.328C69.1872 44.2733 69.1711 44.2214 69.1558 44.1696C69.1502 44.1506 69.1457 44.1309 69.1395 44.1126C69.1338 44.095 69.1275 44.0791 69.1219 44.0615L69.116 44.0443L69.0984 43.9944L69.0979 43.9912C69.0835 43.951 69.0684 43.9119 69.0537 43.874L69.0491 43.8613L69.0342 43.8251L69.0161 43.7807L69.012 43.7722V43.7711C68.9808 43.6991 68.9484 43.6293 68.9139 43.5638L68.8865 43.5155C68.8483 43.4534 68.8081 43.3925 68.7659 43.333L68.7494 43.3086L68.7289 43.2817C68.6993 43.2417 68.6698 43.2026 68.6402 43.166L68.5996 43.1155C68.561 43.0698 68.5212 43.0251 68.4803 42.9815V42.9812L68.4795 42.9745L68.4783 42.9664L68.476 42.955L68.4731 42.9387L68.4706 42.9226L68.4654 42.8965L68.4629 42.8806L68.4557 42.844L68.4527 42.8309C68.4345 42.7415 68.4144 42.6524 68.3922 42.5638L68.3906 42.556C68.3837 42.5301 68.3768 42.5029 68.3696 42.4749L68.3665 42.4643C68.3585 42.4343 68.3503 42.4043 68.3418 42.3744L68.3408 42.3725C68.3189 42.2955 68.2956 42.2188 68.2708 42.1426C68.2628 42.1166 68.2531 42.0892 68.2434 42.0622C68.2244 42.0048 68.2044 41.9477 68.1834 41.8909C68.1709 41.8572 68.1573 41.8239 68.144 41.7894C68.1226 41.7339 68.1 41.6789 68.0763 41.6244C68.061 41.5876 68.0438 41.5513 68.0275 41.5142C67.9845 41.4204 67.9391 41.3276 67.8911 41.2362C67.8608 41.1797 67.8292 41.1239 67.7965 41.0688C67.7751 41.0333 67.7543 40.9975 67.7327 40.9619C67.6949 40.9021 67.6542 40.8437 67.6131 40.7852C67.5924 40.7564 67.573 40.7263 67.5513 40.6973C67.5323 40.6722 67.5108 40.649 67.4909 40.6245C67.4436 40.5646 67.3969 40.5047 67.3451 40.4484L67.3389 40.4422L67.3095 40.4145C67.2429 40.3436 67.173 40.2745 67.0977 40.211L67.0842 40.1996C67.0509 40.1718 67.0169 40.1449 66.982 40.1189L66.9784 40.116L66.9659 40.107C66.936 40.0847 66.9051 40.0634 66.8739 40.0425L66.8575 40.0311L66.8641 40.0365C66.8312 40.0124 66.7714 39.9812 66.6929 39.9465C66.6632 39.9336 66.6333 39.9211 66.6033 39.909C66.4416 39.8447 66.2231 39.772 65.9642 39.7038C65.9481 39.6992 65.931 39.6953 65.9152 39.6914C65.597 39.6096 65.2738 39.5484 64.9476 39.5084C64.9062 39.5032 64.8637 39.5011 64.8219 39.4967C64.8052 39.4951 64.7879 39.4938 64.771 39.492C64.57 39.4714 64.3681 39.4614 64.166 39.4618L64.154 39.4623C63.8921 39.4648 63.6299 39.4863 63.3798 39.5353C63.4387 39.4387 63.5975 39.3319 63.7569 39.2427C63.886 39.1713 64.0187 39.1065 64.1545 39.0487C64.041 39.0571 63.9245 39.0731 63.8085 39.0916C63.7712 39.0978 63.7334 39.1029 63.6958 39.1097C63.6711 39.1141 63.647 39.119 63.6228 39.1234L63.6015 39.1278C63.5809 39.1319 63.5612 39.1361 63.541 39.1403C62.9571 39.2636 62.3952 39.4719 62.0827 39.5983C62.0383 39.6162 61.9995 39.6325 61.9653 39.6466L61.9456 39.6548C61.9144 39.6585 61.8827 39.6632 61.8515 39.667L61.8523 39.666C62.0827 39.2439 62.4226 39.0164 62.6815 38.8963C62.7267 38.8753 62.7699 38.8564 62.809 38.8418C62.8238 38.8361 62.836 38.8325 62.849 38.8276C62.8864 38.8146 62.9183 38.8043 62.9459 38.7963C63.007 38.7787 63.0468 38.7709 63.0468 38.7709C63.0189 38.7716 62.9931 38.7752 62.966 38.7766C62.9429 38.7783 62.9201 38.7802 62.8974 38.782C62.8638 38.7844 62.8296 38.7862 62.7964 38.7893C62.7765 38.7913 62.7556 38.7918 62.7356 38.7937C62.09 38.8631 61.516 39.0799 61.0239 39.3494C60.7078 39.5227 60.4084 39.7245 60.1296 39.952C60.0617 39.966 59.9924 39.9804 59.9221 39.9952C59.2162 40.1445 58.4098 40.3367 57.562 40.5946C57.2417 40.6918 56.9237 40.7964 56.6082 40.9081C56.1694 41.0652 55.7364 41.2377 55.3101 41.4253C54.0083 42.0012 52.7256 42.7655 51.6477 43.7911C51.6089 43.8281 51.5682 43.8627 51.5301 43.9003C51.4366 43.9937 51.3451 44.089 51.2557 44.1862C51.2187 44.2256 51.1799 44.2627 51.1436 44.3028C51.0981 44.3526 51.0561 44.4063 51.0117 44.4574C50.8081 44.69 50.6169 44.9329 50.4388 45.1851C50.3045 45.3766 50.1782 45.5734 50.0602 45.7751L50.0456 45.7992C49.7922 46.2354 49.5777 46.6926 49.4045 47.1657C49.2889 47.4815 49.1908 47.8033 49.1107 48.1296L49.1012 48.1661C49.0322 48.4561 48.9766 48.749 48.9344 49.0439C48.926 49.1033 48.9165 49.1621 48.9084 49.2225C48.8894 49.3733 48.8744 49.5269 48.8616 49.6827C48.8498 49.8269 48.8407 49.9713 48.8343 50.1158L48.8329 50.1496C48.8301 50.2213 48.826 50.2922 48.8245 50.365C48.8228 50.4479 48.8235 50.5324 48.8235 50.6169C48.8232 50.6364 48.8232 50.6559 48.823 50.676C48.8232 50.843 48.8268 51.01 48.8337 51.1769L48.8355 51.2039C48.8429 51.3726 48.8549 51.5446 48.8697 51.7183C48.8759 51.7903 48.882 51.8626 48.8894 51.9357C48.8912 51.9533 48.8923 51.9712 48.894 51.9892C48.8983 52.0298 48.9032 52.0706 48.9078 52.1112C48.9293 52.3031 48.9554 52.4985 48.9858 52.6966C48.9939 52.7516 49.0014 52.8065 49.0105 52.8618C49.0384 53.0352 49.0688 53.2099 49.1035 53.3877C49.1035 53.3877 49.0721 53.1597 49.0916 52.8244C49.0966 52.7471 49.1038 52.6647 49.1143 52.5768C49.1385 52.3863 49.1795 52.1763 49.2495 51.9594C49.2668 51.9065 49.2862 51.8531 49.307 51.7994C49.3156 51.776 49.3261 51.753 49.3356 51.7294C49.377 51.6303 49.4235 51.5308 49.4797 51.4323C49.4924 51.5023 49.506 51.5721 49.5202 51.6428L49.5248 51.6656L49.5243 51.6975L49.5228 51.8375C49.5207 52.0989 49.5238 52.3603 49.532 52.6215C49.5514 53.2525 49.6062 54.0141 49.7439 54.663C49.7439 54.663 49.7697 53.4831 49.9713 53.3496C49.9713 53.3496 50.3238 55.5346 50.6509 56.3595C50.6933 56.4663 50.7355 56.5516 50.7763 56.6049L50.7679 56.3882L50.7212 55.1737C50.7212 55.1737 50.7233 55.1283 50.7278 55.0488C50.9863 55.5714 51.2663 56.0833 51.567 56.5832C51.6546 56.7286 51.7438 56.8746 51.8365 57.0223C51.2306 57.5502 50.6703 58.2973 50.2681 59.1907C50.2032 59.335 50.1431 59.4814 50.0878 59.6296C49.9897 59.8964 49.9072 60.1686 49.8407 60.4447C49.8335 60.4744 49.8259 60.504 49.8195 60.534C49.7988 60.625 49.7793 60.7163 49.762 60.8091L49.7607 60.8177C49.7438 60.9105 49.7288 61.0044 49.7155 61.0989C49.7112 61.1293 49.7073 61.1601 49.7038 61.1904C49.695 61.2578 49.6874 61.3255 49.6808 61.3934C49.6771 61.4279 49.6743 61.4622 49.6711 61.4971C49.6655 61.5659 49.6609 61.6348 49.6573 61.7038C49.6498 61.8354 49.6461 61.9673 49.6463 62.0991L49.6467 62.1121C49.6467 62.1899 49.649 62.2676 49.6519 62.3459C49.6552 62.4249 49.66 62.5038 49.6657 62.5834L49.6679 62.6153L49.669 62.6352C49.6766 62.7317 49.6871 62.8283 49.6989 62.9258C49.7027 62.9567 49.7081 62.9875 49.7122 63.0186C49.7214 63.085 49.7305 63.1517 49.7421 63.219C49.748 63.2559 49.7554 63.2939 49.7618 63.3308C49.7737 63.3924 49.785 63.4536 49.7983 63.5153C49.8069 63.5548 49.8161 63.5944 49.8246 63.6341C49.8622 63.7967 49.9053 63.9579 49.9537 64.1176C49.9657 64.1573 49.9779 64.1975 49.9907 64.2374C50.0111 64.3003 50.0329 64.3636 50.0548 64.4263C50.0683 64.464 50.0809 64.5018 50.0949 64.5396C50.1207 64.6093 50.1483 64.6789 50.1767 64.7488C50.1894 64.78 50.2009 64.8111 50.2142 64.8425C50.3011 65.0494 50.3967 65.2525 50.5007 65.4514C50.5168 65.4812 50.5341 65.5116 50.5498 65.5419C50.5883 65.6131 50.6276 65.6844 50.6683 65.7557C50.69 65.7928 50.7125 65.8299 50.7352 65.8675C50.7736 65.9317 50.8124 65.9963 50.8535 66.0606C50.8785 66.1003 50.9047 66.1404 50.9307 66.1802C50.9992 66.2843 51.0696 66.387 51.142 66.4884C51.1857 66.55 51.231 66.6115 51.2779 66.6727C51.3081 66.7131 51.3382 66.7535 51.3694 66.7938C51.4187 66.8568 51.469 66.9197 51.5209 66.9823C51.5518 67.0208 51.5827 67.0592 51.6145 67.0973C51.6724 67.1657 51.7325 67.2344 51.7933 67.3024C51.8219 67.3346 51.8488 67.3669 51.8779 67.399C51.9691 67.4992 52.0624 67.5992 52.16 67.699L52.1597 67.6983C52.1114 67.6266 52.0669 67.5525 52.0263 67.4763L52.0235 67.4717C52.0094 67.4455 51.9944 67.4164 51.9791 67.3858L51.9742 67.3773C51.9573 67.3433 51.9408 67.3092 51.9249 67.2747L51.9215 67.2685C51.9028 67.2282 51.8848 67.1874 51.8676 67.1464C51.724 66.8042 51.5843 66.3292 51.6024 65.7995C51.6579 65.8732 51.7146 65.9444 51.7708 66.0168C51.8828 66.242 51.9988 66.4653 52.1186 66.6865C52.2736 66.9709 52.4363 67.251 52.6068 67.5266C52.8235 67.8742 53.0616 68.2222 53.3075 68.5224L53.307 68.5221C53.3059 68.5201 53.0208 67.9303 52.9253 67.5434C52.8986 67.4346 52.8859 67.3412 52.8997 67.2824L52.9687 67.3527C52.9916 67.3763 53.0147 67.3993 53.0377 67.4229C53.0832 67.4828 53.1408 67.5583 53.205 67.642L53.2375 67.6843C53.2694 67.7258 53.3023 67.769 53.3378 67.8147L53.3397 67.8173L53.4679 67.9818C53.8691 68.4928 54.4028 69.1458 54.7835 69.5046C54.9105 69.6242 55.0202 69.7113 55.1025 69.7489L54.5533 68.7739C55.7964 69.7763 60.926 71.0632 65.9794 69.6267C66.5996 69.4514 67.2074 69.2357 67.7989 68.9812C68.1653 68.8246 68.5246 68.6526 68.8761 68.4656L68.9277 68.4371C69.1788 68.3006 69.4257 68.1566 69.6679 68.0052L69.6733 68.0019C70.175 67.6889 70.6554 67.3438 71.1116 66.9687L71.1125 66.9683L71.1136 66.9674C71.1304 66.9527 71.1476 66.9384 71.1652 66.9237C71.447 66.68 71.7173 66.4235 71.9752 66.155C72.2949 65.8212 72.5951 65.4696 72.8743 65.1019L72.894 65.0765C72.9599 64.9891 73.0245 64.9023 73.0871 64.816L73.1048 64.7908C73.1252 64.7613 73.1433 64.7331 73.1635 64.704C73.2501 64.5814 73.3347 64.4575 73.4173 64.3322L73.4758 64.2426C73.5177 64.1774 73.558 64.1119 73.5982 64.0473C73.6286 63.9967 73.6598 63.946 73.6892 63.8959C73.7221 63.8412 73.755 63.7865 73.787 63.7321C73.8429 63.6347 73.8977 63.5367 73.9515 63.4381C73.9723 63.3995 73.9921 63.3619 74.0123 63.3238C74.0527 63.248 74.0921 63.1731 74.1296 63.099C74.147 63.0643 74.1646 63.0298 74.1815 62.9955L74.1968 62.9629C74.2429 62.8709 74.2878 62.7783 74.3317 62.6852L74.3399 62.6656C74.4833 62.5348 74.614 62.3908 74.7303 62.2357C74.7451 62.2161 74.7603 62.1966 74.7738 62.1772C74.9991 61.8552 75.0728 61.5702 75.0769 61.3144V61.3146ZM44.8888 57.6948C44.8842 57.672 44.8802 57.6494 44.8763 57.6269L44.8802 57.6253C44.8206 57.2969 44.7752 56.9662 44.7442 56.634C44.7422 56.6099 44.7387 56.5866 44.7361 56.5627C44.6799 56.5801 44.6165 56.6539 44.5528 56.7546C44.5278 56.7946 44.5043 56.8355 44.4821 56.8771C44.3112 57.195 44.1574 57.6357 44.1574 57.6357C44.1702 57.4843 44.1858 57.3331 44.2039 57.1823C44.2061 57.1644 44.2087 57.147 44.211 57.1289C44.2299 56.9726 44.2519 56.815 44.2752 56.6584C44.2779 56.6394 44.281 56.6206 44.2838 56.6021C44.3111 56.4255 44.34 56.25 44.37 56.0807L44.3815 56.0155L44.3838 56.0043L44.3944 55.9454C44.4229 55.7871 44.4531 55.629 44.4847 55.4713C44.5069 55.3601 44.5286 55.2548 44.5493 55.1558L44.5559 55.1239C44.559 55.1083 44.5624 55.0941 44.5654 55.0793C44.5687 55.0648 44.5716 55.0498 44.5746 55.0347L44.5758 55.0295C44.5812 55.0047 44.5869 54.9793 44.5919 54.9559L44.5935 54.9494C44.5981 54.9261 44.6027 54.9064 44.6073 54.8847C44.615 54.8506 44.6223 54.8157 44.6295 54.7838L44.6315 54.775C44.6374 54.7491 44.6428 54.7229 44.6482 54.6993C44.6561 54.6655 44.6633 54.6342 44.6696 54.6046L44.6699 54.6038L44.6704 54.6029C44.674 54.586 44.6776 54.5714 44.6812 54.5557L44.6819 54.553C44.6853 54.5388 44.6885 54.524 44.6916 54.5114L44.7106 54.4302L44.7154 54.411L44.7172 54.4038L44.7226 54.3811L44.7264 54.3653L44.7272 54.363L44.7246 54.3651L44.6901 54.396C44.6597 54.4229 44.6285 54.4491 44.6001 54.4787L44.5687 54.5129C44.5345 54.5505 44.5022 54.5898 44.4721 54.6306L44.456 54.6506C44.4182 54.7027 44.3832 54.7574 44.3498 54.813V54.8131L44.3454 54.8204V54.8208L44.3318 54.8455C44.324 54.859 44.3168 54.873 44.3094 54.8867C44.2902 54.9215 44.2702 54.9554 44.2529 54.9904L44.2521 54.9917L44.2514 54.9928L44.2506 54.9958L44.2439 55.009L44.2376 55.0223C44.2113 55.0767 44.1863 55.1317 44.1629 55.1874C44.0882 55.3637 44.0251 55.5446 43.9739 55.729C43.9519 55.8076 43.9364 55.8692 43.9295 55.8993L43.9292 55.9019L43.9243 55.9221V55.9218V55.9221L43.9263 55.8985C43.9289 55.8518 43.9343 55.8052 43.9381 55.7588C43.9453 55.6611 43.9516 55.563 43.9624 55.4658C43.9711 55.384 43.9838 55.3041 43.9954 55.223L44.0069 55.1472C44.0119 55.1097 44.0171 55.0723 44.0234 55.0352C44.0288 55.0005 44.0365 54.9663 44.0431 54.9323L44.0434 54.9297V54.9295L44.0508 54.8914L44.0529 54.881C44.0636 54.8229 44.0746 54.7648 44.086 54.7068L44.0919 54.678L44.093 54.6726L44.1017 54.6318C44.105 54.6147 44.11 54.5981 44.1134 54.5819C44.1274 54.5207 44.1423 54.4608 44.1568 54.4004L44.1592 54.3903C44.1699 54.3454 44.1798 54.3001 44.1914 54.2559L44.1918 54.2539L44.1929 54.251L44.1965 54.238C44.2204 54.1468 44.2468 54.0577 44.2733 53.968L44.2871 53.9185C44.2922 53.9021 44.2964 53.8845 44.3019 53.8679C44.3454 53.7224 44.3922 53.5786 44.4418 53.4381L44.4483 53.4205C44.491 53.3012 44.534 53.1837 44.5792 53.0679L44.5841 53.0547C44.6047 53.0038 44.6257 52.9549 44.6457 52.9045L44.649 52.8972C44.6799 52.8221 44.7103 52.7466 44.7419 52.674V52.6728L44.7425 52.6718L44.7461 52.6627C44.7545 52.6445 44.7741 52.6004 44.8045 52.5353L44.805 52.5341L44.8091 52.5253C44.8209 52.4996 44.8321 52.4747 44.8436 52.4487L44.8994 52.3256L44.916 52.2899L44.9165 52.2883L45.2366 51.7182C45.2499 51.6941 45.263 51.6703 45.2759 51.6462L45.2826 51.6348L45.299 51.6055C45.3339 51.5422 45.3689 51.4785 45.403 51.417L45.5497 51.1551C45.6437 50.9874 45.7242 50.8453 45.7732 50.7595C45.79 50.73 45.8066 50.7005 45.8232 50.6709L45.8255 50.6667H45.8251L45.824 50.6657L45.821 50.6634C45.8085 50.6551 45.7114 50.5887 45.5514 50.4926C45.2002 50.2836 44.8336 50.1011 44.4548 49.9465C44.3136 49.8887 44.1706 49.8356 44.0258 49.7872C43.9874 49.7747 43.947 49.7645 43.9082 49.7524C43.7833 49.7133 43.6552 49.6783 43.524 49.6474L43.5165 49.6458C43.4265 49.6243 43.3371 49.602 43.2447 49.585C43.1722 49.571 43.0992 49.5586 43.026 49.5481C42.9909 49.5432 42.9546 49.5404 42.9192 49.5374L42.8139 49.5268C42.7146 49.5184 42.615 49.5132 42.5154 49.5111C42.4671 49.51 42.4186 49.5085 42.3703 49.5095C42.1534 49.5144 41.9405 49.5334 41.7313 49.5629L41.6932 49.5688C41.3219 49.6235 40.9575 49.7172 40.6062 49.8483C40.4887 49.8922 40.3727 49.9395 40.2588 49.9912C40.2265 50.0062 40.1944 50.0216 40.1624 50.0373C40.1235 50.056 40.0839 50.0744 40.0454 50.094C39.7037 50.2688 39.382 50.4797 39.086 50.723L39.0755 50.7316C38.7486 51.0001 38.4553 51.3064 38.2019 51.6439C38.135 51.7324 38.0707 51.8228 38.0094 51.9152C37.8936 52.0907 37.7883 52.2729 37.6942 52.4607C37.661 52.527 37.6285 52.5935 37.5981 52.6613C37.5924 52.674 37.5873 52.6873 37.5818 52.7002C37.384 53.1482 37.2501 53.6213 37.1837 54.1059C37.1702 54.2031 37.1595 54.3007 37.1514 54.3985L37.1486 54.4353C37.1357 54.6101 37.1313 54.7854 37.1354 54.9606C37.1356 54.9764 37.1371 54.9912 37.1376 55.0067C37.14 55.0822 37.143 55.1574 37.1486 55.2323L37.1528 55.2717L37.1576 55.3235C37.1625 55.3827 37.1683 55.4415 37.1752 55.4993L37.1776 55.5127V55.5164L37.178 55.517C37.1821 55.5462 37.1872 55.5757 37.1913 55.605C37.199 55.6575 37.2064 55.7104 37.2151 55.7625C37.2222 55.8005 37.2306 55.8376 37.2379 55.8752C37.2478 55.9237 37.2565 55.9729 37.2679 56.0211C37.2769 56.0608 37.2876 56.0997 37.2974 56.1383L37.304 56.1656L37.3148 56.2063L37.3229 56.2373L37.3328 56.2749C37.3441 56.3152 37.3574 56.3556 37.3694 56.3957C37.3825 56.438 37.3952 56.4813 37.4093 56.5228C37.4228 56.5642 37.4382 56.6047 37.4532 56.6456L37.4653 56.6781C37.4755 56.7074 37.4859 56.737 37.4977 56.766C37.5138 56.8074 37.5316 56.8486 37.5488 56.8899C37.5647 56.9274 37.5804 56.9655 37.597 57.0027C37.6065 57.0241 37.6167 57.0451 37.6265 57.0654C37.6369 57.0861 37.6461 57.1071 37.6558 57.1276C37.6928 57.2062 37.7324 57.2836 37.7746 57.3596C37.7926 57.3925 37.8097 57.4254 37.828 57.4579C37.8523 57.5007 37.8782 57.5429 37.904 57.5854C37.9221 57.615 37.9399 57.6451 37.9586 57.6752C37.986 57.7184 38.0144 57.7601 38.0434 57.8022C38.0619 57.8304 38.0805 57.8581 38.0994 57.8853C38.1298 57.9281 38.1613 57.9706 38.193 58.0131C38.2441 58.0824 38.2973 58.1501 38.3527 58.2161C38.3708 58.2385 38.3889 58.2612 38.4084 58.2831C38.4449 58.3263 38.4829 58.3684 38.5213 58.4106C38.5391 58.4305 38.5571 58.4502 38.5759 58.4702C38.6156 58.5132 38.6567 58.5555 38.6986 58.5964C38.7167 58.6138 38.7336 58.6317 38.7517 58.6491C38.8118 58.7069 38.873 58.7637 38.9352 58.8194C38.9822 58.8606 39.03 58.9013 39.0788 58.9413C39.0949 58.9543 39.1104 58.9679 39.1265 58.9807C39.1771 59.0217 39.2287 59.061 39.2806 59.1002C39.2954 59.1108 39.3108 59.1225 39.3253 59.1334C39.3796 59.1727 39.4342 59.2109 39.4897 59.2485L39.531 59.2764C39.5885 59.3145 39.6468 59.3519 39.7056 59.3875L39.7433 59.41C39.804 59.447 39.8665 59.4813 39.9291 59.5158L39.9613 59.5337C40.0262 59.5686 40.0919 59.6015 40.1578 59.6337L40.1861 59.647C40.2541 59.6796 40.3226 59.7105 40.3923 59.7405L40.4169 59.7511C40.488 59.7805 40.5598 59.8087 40.6321 59.836L40.6523 59.8432C40.7271 59.8702 40.8015 59.896 40.8776 59.9202L40.8931 59.9251C40.93 59.9365 40.968 59.9463 41.0053 59.9572C41.0459 59.9689 41.0864 59.9816 41.1275 59.9925L41.139 59.9958C41.2195 60.0164 41.3005 60.0355 41.3822 60.0527L41.3892 60.0547C41.3896 60.0549 41.3904 60.0549 41.3906 60.0552C41.473 60.0724 41.5565 60.0881 41.6406 60.1011L41.6444 60.1024C41.906 60.1441 42.1704 60.1665 42.4354 60.1696C42.4993 60.1708 42.5632 60.1714 42.6274 60.1708C42.8385 60.1639 43.049 60.1447 43.2579 60.1135C43.5356 60.0717 43.8102 60.0118 44.0801 59.9344C44.5623 59.7957 44.9883 59.6104 45.243 59.4222C45.243 59.4222 45.0754 58.687 44.9338 57.9401C44.9184 57.8584 44.9034 57.7766 44.8888 57.6948" fill="#856249"/>
<path d="M66.8575 40.0313L66.8588 40.0318L66.8554 40.0295L66.8575 40.0313Z" fill="#856249"/>
<path d="M56.9283 30.077L56.867 29.3323L57.2433 28.5069L57.392 28.4739C57.1455 28.3606 56.8527 28.2797 56.5138 28.2378C55.8349 28.1532 54.9729 28.231 53.9911 28.4825C53.009 28.7323 51.908 29.1523 50.7403 29.7286C48.4047 30.8799 45.8046 32.6548 43.3026 34.9164C42.4552 35.6812 41.6425 36.483 40.867 37.3193C40.1684 38.071 39.505 38.8541 38.8789 39.666C37.6675 41.2414 36.739 42.7737 36.146 44.1403C35.75 45.051 35.5051 45.8878 35.4155 46.6039C35.3495 47.1246 35.3667 47.5799 35.4548 47.9561C35.4832 48.0777 35.521 48.1884 35.5636 48.2941C35.6521 48.5165 35.7684 48.7081 35.9186 48.872L37.4323 50.4435L37.5947 50.6117L37.6054 50.6003C37.6514 50.5474 37.6989 50.4945 37.7467 50.4429L37.7596 50.4292C37.7771 50.4105 37.7951 50.393 37.8127 50.3753C37.8581 50.3279 37.9041 50.2813 37.9509 50.2353C37.98 50.2068 38.0094 50.1795 38.0391 50.1518C38.0679 50.1249 38.096 50.0969 38.1252 50.0704C38.1384 50.0585 38.152 50.0476 38.1655 50.0357C38.1962 50.008 38.2281 49.9808 38.2599 49.9535C38.3303 49.8929 38.402 49.834 38.475 49.7767L38.4869 49.7676C38.5652 49.707 38.6446 49.6478 38.7251 49.5901C38.7755 49.5546 38.827 49.5193 38.8789 49.4848C38.9101 49.4641 38.9408 49.4435 38.9722 49.4233C39.0253 49.3891 39.0795 49.3559 39.1337 49.3231C39.1654 49.3041 39.1962 49.2852 39.2275 49.2671C39.2844 49.2341 39.3421 49.2028 39.3994 49.1716C39.4301 49.1553 39.4604 49.1382 39.4911 49.1221L39.5256 49.1042L39.5277 49.098C39.8902 48.1038 40.433 47.0246 41.1367 45.9002C42.0013 44.519 43.1059 43.0704 44.4176 41.6277C45.2753 40.6856 46.1792 39.7857 47.1258 38.9312C48.3909 37.7887 49.6804 36.7692 50.9524 35.886C51.7705 35.3164 52.6155 34.7859 53.4847 34.2962C53.5632 34.2522 53.6419 34.2065 53.7199 34.1638C53.9369 34.045 54.1557 33.9295 54.3762 33.8172C54.8318 33.5828 55.2954 33.3641 55.7662 33.1613L55.5442 32.8973L55.5074 32.8538L53.6692 30.6634L53.6833 29.3289L53.6661 29.3095L54.7708 28.9831L56.9283 30.0771" fill="#3478AD"/>
<path d="M75.077 61.3146L75.0776 61.3143C75.0776 61.3143 75.1157 61.0313 74.9647 60.7782L74.9615 60.7712C74.9528 60.7567 74.9435 60.7425 74.9335 60.7288L74.9237 60.7142C74.906 60.6915 74.8869 60.6699 74.8665 60.6496C74.8273 60.6087 74.7832 60.5728 74.735 60.5428C74.7071 60.5248 74.6781 60.5085 74.6481 60.4941C74.5625 60.4536 74.4598 60.4228 74.3379 60.405C74.2379 60.3921 74.1369 60.3878 74.0361 60.392C73.9912 60.3933 73.947 60.3943 73.8986 60.3989L73.8767 60.4002L73.8848 60.4293L73.9063 60.5094L73.9173 60.5534C73.9331 60.6159 73.9521 60.6955 73.9715 60.7853C73.9657 60.8027 73.959 60.8198 73.9515 60.8365L73.9441 60.8539C73.8885 60.9818 73.7376 61.2771 73.4012 61.6613C73.3439 61.7265 73.2805 61.7948 73.2124 61.8652C72.2743 62.8257 70.2435 64.1935 65.9716 64.9586C64.5219 65.1613 63.1853 65.1724 62.0437 65.0317C60.3557 64.8237 59.0909 64.2894 58.5025 63.5708C58.4515 63.5091 58.4047 63.4454 58.3602 63.3815C58.3275 63.3345 58.2962 63.2865 58.2665 63.2375C58.256 63.2196 58.2463 63.2016 58.2361 63.1838C57.9945 62.7589 57.8714 62.2779 57.8793 61.7903C57.8875 61.2224 58.0661 60.6792 58.3687 60.2616C58.6142 59.923 58.9405 59.6671 59.3224 59.5489C59.5154 59.4891 59.7181 59.4654 59.9199 59.4792C59.9623 59.4821 60.0185 59.488 60.0885 59.4966C60.2288 59.5141 60.4248 59.5414 60.6652 59.572L60.7454 59.5821C61.5472 59.6808 62.8238 59.8003 64.3676 59.7068C67.1766 59.5373 70.8736 58.6617 74.2306 55.6621L74.2398 55.6504V55.6452C74.251 55.394 74.2172 54.9403 73.8968 54.5873C73.8378 54.5228 73.7723 54.4644 73.7012 54.4131C73.6578 54.3812 73.6125 54.3518 73.5655 54.3252C73.5162 54.2982 73.4711 54.2709 73.4275 54.2433C73.3711 54.2087 73.316 54.1719 73.2624 54.133L73.255 54.1224C73.2323 54.0872 73.2082 54.053 73.185 54.0179C72.3142 52.7111 71.1146 51.9526 70.6362 51.6051C70.4106 51.4406 70.267 51.3657 70.267 51.3657C69.231 50.7406 69.0791 50.5332 69.176 48.8352C69.2105 48.2238 69.2774 47.42 69.3462 46.3306C69.3547 46.1945 69.36 46.0583 69.3621 45.922C69.3628 45.8902 69.3635 45.8595 69.3635 45.8284C69.3647 45.7068 69.3629 45.5853 69.3582 45.4639L69.3571 45.4302L69.3543 45.3942C69.3469 45.2662 69.3366 45.1384 69.3235 45.0108C69.3138 44.9201 69.3015 44.8297 69.2867 44.7397C69.2795 44.6951 69.2706 44.6522 69.2624 44.6087C69.2533 44.5607 69.2434 44.5129 69.2328 44.4653C69.2231 44.4195 69.2125 44.3738 69.2011 44.3284L69.2006 44.328L69.2011 44.3275V44.328C69.1872 44.2733 69.1711 44.2214 69.1558 44.1696C69.1502 44.1506 69.1458 44.1309 69.1395 44.1126C69.1338 44.0951 69.1275 44.0791 69.1219 44.0615L69.116 44.0443L69.0984 43.9945L69.0979 43.9912C69.0835 43.951 69.0684 43.9119 69.0537 43.874L69.0491 43.8613L69.0342 43.8251L69.0161 43.7807L69.012 43.7722V43.7711C68.9808 43.6991 68.9484 43.6293 68.9139 43.5639L68.8865 43.5155C68.8483 43.4534 68.8081 43.3925 68.7659 43.333L68.7495 43.3086L68.7289 43.2817C68.6993 43.2417 68.6698 43.2026 68.6402 43.166L68.5996 43.1155C68.561 43.0698 68.5212 43.0252 68.4803 42.9815V42.9812C68.4329 42.9314 68.3835 42.8833 68.3325 42.8371C68.2774 42.803 68.2208 42.7714 68.1627 42.7426C68.1445 42.7331 68.1259 42.7259 68.107 42.7178C68.0704 42.7005 68.0331 42.6846 67.9951 42.6703C67.9733 42.6621 67.9521 42.6556 67.9306 42.6483C67.8972 42.6374 67.8635 42.6273 67.8295 42.6182C67.8073 42.6129 67.785 42.608 67.7626 42.6037C67.7084 42.592 67.6535 42.5838 67.5982 42.5789C67.566 42.5757 67.5334 42.5744 67.5012 42.5731C67.4796 42.5723 67.458 42.5721 67.4363 42.5724C67.4032 42.573 67.3701 42.5747 67.3371 42.5773C67.3169 42.5789 67.2964 42.5806 67.2763 42.5827L67.2319 42.5892C67.2117 42.5928 67.1915 42.5949 67.1707 42.599C67.1531 42.6019 67.1352 42.6048 67.1176 42.6084C67.0765 42.6169 67.0358 42.6273 66.9953 42.6388L66.9597 42.648C66.8529 42.6795 66.7461 42.7201 66.6406 42.7676L66.6053 42.7842C66.5642 42.8029 66.5231 42.8226 66.4819 42.8435L66.4346 42.8687C66.3973 42.8879 66.36 42.9083 66.323 42.929L66.2724 42.9583C66.2358 42.9794 66.199 43.0009 66.1623 43.0234L66.1125 43.0538C66.0744 43.0774 66.036 43.1018 65.9975 43.1266L65.9551 43.1541C65.9119 43.1821 65.8684 43.2108 65.825 43.2399L65.7991 43.2572C65.7504 43.29 65.7008 43.3239 65.6512 43.3578L65.6495 43.3592L65.642 43.3638H65.6425C65.5501 43.4266 65.4581 43.4909 65.3648 43.5551C65.2869 43.609 65.2072 43.6628 65.1274 43.7164L65.0889 43.7426C65.0084 43.7962 64.9271 43.8484 64.8454 43.9005L64.8044 43.9259C64.7222 43.9764 64.6399 44.0257 64.5568 44.0724L64.513 44.0965C64.4296 44.1429 64.3449 44.1869 64.2589 44.2284L64.2161 44.2483C64.1294 44.289 64.041 44.3272 63.9515 44.3606L63.9145 44.3746C63.8222 44.4086 63.7283 44.4383 63.6332 44.4636L63.6082 44.4693C63.5075 44.4951 63.4068 44.5156 63.3031 44.5296C63.1299 44.5513 62.9555 44.5619 62.781 44.5612C62.4943 44.5615 62.208 44.5401 61.9246 44.4973C61.8284 44.4827 61.7324 44.4666 61.6367 44.449C61.6026 44.4425 61.5686 44.4374 61.5349 44.4309C61.2851 44.3827 61.0337 44.3253 60.7807 44.2649C60.6743 44.2398 60.5681 44.2144 60.4613 44.1887C60.2899 44.1473 60.1168 44.1073 59.9434 44.0682C59.9091 44.0602 59.8761 44.0518 59.8412 44.0443L59.8429 44.0441L59.7694 44.0288C59.731 44.0205 59.6925 44.0124 59.6544 44.0037L59.5442 43.9821L59.5249 43.9782L59.5121 43.9757L59.4109 43.9559C59.3324 43.9412 59.2532 43.9272 59.174 43.9142C59.1505 43.9101 59.1268 43.9072 59.1037 43.9036C59.0451 43.8944 58.9863 43.8858 58.9275 43.8777C58.898 43.8735 58.8677 43.8707 58.8385 43.8672L58.8319 43.8665C58.7807 43.8599 58.7294 43.854 58.678 43.8489C58.644 43.8457 58.6094 43.8429 58.5758 43.8396C58.5605 43.8385 58.545 43.8377 58.5293 43.8364C58.4944 43.8338 58.4589 43.8308 58.4236 43.8289C58.3363 43.823 58.2489 43.8196 58.1614 43.8188C58.1453 43.8188 58.1292 43.8185 58.1131 43.8181C58.0983 43.818 58.083 43.8173 58.0681 43.8173C58.0009 43.8175 57.9338 43.819 57.8668 43.8219C57.8494 43.8224 57.831 43.8222 57.8131 43.8235C57.727 43.8272 57.6411 43.8336 57.5554 43.8426C57.5331 43.8448 57.5107 43.8483 57.4881 43.8504C57.4322 43.8569 57.3763 43.8644 57.3205 43.8728L57.2953 43.8764C57.2648 43.881 57.2337 43.8867 57.2033 43.8921C57.1458 43.9025 57.089 43.9134 57.0315 43.9258C56.9983 43.9331 56.9653 43.9402 56.9322 43.9485C56.8755 43.9619 56.8184 43.977 56.7612 43.993C56.6657 44.0187 56.5713 44.0484 56.4783 44.082C56.4502 44.0918 56.4222 44.1004 56.3941 44.1113C56.3025 44.1447 56.2119 44.1811 56.1227 44.2204C55.4108 44.6266 54.7992 45.1809 54.3131 45.8274C54.1511 46.0429 54.003 46.2683 53.8698 46.5023C53.7295 46.7499 53.606 47.0064 53.5001 47.2703C53.4166 47.4764 53.344 47.6867 53.2826 47.9003C53.2786 47.9144 53.2753 47.9291 53.2714 47.9436C53.186 48.2523 53.1255 48.5672 53.0906 48.8854C53.0808 48.9731 53.0719 49.0607 53.066 49.1486C53.0514 49.3851 53.0516 49.6223 53.0668 49.8587C53.0676 49.8801 53.0696 49.9019 53.0711 49.923C53.0752 49.9836 53.0773 50.0435 53.0839 50.1042C53.1015 50.2726 53.1256 50.4411 53.1598 50.6081C53.1718 50.6699 53.1887 50.7279 53.2037 50.7875C53.2178 50.8445 53.2305 50.9031 53.2459 50.9586V50.9583C53.3599 51.3643 53.5259 51.7543 53.74 52.1185C54.5157 53.4463 55.791 54.2404 56.715 54.6665C57.082 54.8264 57.4573 54.9668 57.8394 55.0871C57.8394 55.0871 57.821 55.0985 57.7925 55.1176C57.5559 55.1773 57.3217 55.2459 57.0903 55.3232C56.8771 55.3943 56.6664 55.4725 56.4585 55.5576C55.8588 55.8038 55.178 56.1539 54.5748 56.6376C54.4992 56.6978 54.4251 56.7603 54.3523 56.8248C54.2282 56.9361 54.1096 57.0534 53.9969 57.1761C53.984 57.1901 53.9702 57.2035 53.9578 57.2176C53.9406 57.2365 53.9237 57.2562 53.9069 57.2754C53.864 57.3251 53.8215 57.3757 53.7804 57.4275L53.7311 57.4897C53.6769 57.5607 53.6238 57.6326 53.5739 57.7073C53.5246 57.7806 53.4774 57.8563 53.4327 57.933C53.0752 58.5513 52.8724 59.2917 52.9347 60.1745L52.9365 60.1654L52.9377 60.1589L52.9443 60.126L52.9462 60.1187C52.9488 60.1053 52.9528 60.0894 52.9569 60.0721L52.9594 60.0611C52.9643 60.041 52.97 60.0179 52.9766 59.9928L52.9811 59.9766L53.0054 59.8893H53.0059C53.0146 59.8584 53.0256 59.825 53.0366 59.7907L53.0437 59.7696C53.0553 59.7346 53.0681 59.698 53.0821 59.6604L53.0895 59.6423C53.1025 59.6065 53.1169 59.5701 53.1325 59.5323L53.1399 59.5149C53.1569 59.4742 53.1756 59.4322 53.195 59.3895L53.2075 59.3628C53.2283 59.3192 53.2495 59.2749 53.2732 59.2301V59.23L53.2763 59.2248C53.3116 59.1579 53.3514 59.0896 53.3938 59.0209C53.4097 58.9949 53.425 58.9692 53.4427 58.9431L53.4562 58.9213L53.4565 58.9208C53.5243 58.8198 53.598 58.723 53.6774 58.6307C53.6889 58.6174 53.7012 58.604 53.7135 58.5905C53.7426 58.558 53.773 58.5254 53.8045 58.4935C53.8175 58.4808 53.8302 58.4674 53.8432 58.4549C53.8864 58.4131 53.9306 58.3722 53.9776 58.3326L53.9815 58.3289V58.3291V58.3289C53.9815 58.3289 53.1698 60.148 53.5228 61.5905C53.5228 61.5905 53.5224 61.5861 53.5224 61.5785V61.5695C53.5221 61.5614 53.5221 61.5523 53.5221 61.5399C53.5221 61.5376 53.5221 61.5347 53.5218 61.5321C53.5221 61.5174 53.5221 61.5002 53.5228 61.4797C53.5228 61.4771 53.5228 61.4748 53.5231 61.4717C53.5231 61.4505 53.5247 61.4266 53.5257 61.4001L53.5262 61.3924C53.5298 61.3256 53.5351 61.2589 53.542 61.1923L53.543 61.1835C53.5466 61.1472 53.5518 61.1096 53.5573 61.0701C53.5576 61.0667 53.5584 61.0631 53.5589 61.0595C53.565 61.0176 53.5721 60.9742 53.5803 60.9294L53.5822 60.9188L53.5865 60.8964V60.8954C53.5964 60.8449 53.6084 60.7935 53.6218 60.7414C53.6228 60.7381 53.6235 60.7344 53.6243 60.731C53.6381 60.68 53.6529 60.6284 53.6695 60.5766L53.6849 60.5291L53.6961 60.496V60.4954C53.7115 60.4529 53.7283 60.4103 53.7465 60.3679L53.7493 60.3611L53.7495 60.3608C53.7822 60.2856 53.8198 60.2126 53.8619 60.1421C53.8956 60.0858 53.9309 60.0306 53.971 59.9784L53.9726 59.9757V59.9761V59.9757H53.9728C53.9728 59.9757 53.9263 60.4238 53.9383 60.9568C53.9424 61.1005 53.9504 61.2442 53.9624 61.3875C53.9625 61.3877 53.9626 61.388 53.9626 61.3882C53.9388 61.7675 53.9454 62.148 53.9825 62.5263C54.0471 63.1817 54.2043 63.8751 54.4811 64.605C54.4811 64.605 54.2273 63.7657 54.5929 62.9261C54.6259 63.0026 54.6612 63.0795 54.698 63.157C54.7281 63.406 54.7789 63.7596 54.8528 64.1491C54.9235 64.798 55.2368 66.7444 56.5714 68.1135C56.5714 68.1135 56.067 67.4649 56.1454 66.6206C56.198 66.7315 56.2502 66.8316 56.2998 66.9177C56.5282 67.3412 56.9823 68.1298 57.4774 68.6764C57.4774 68.6764 57.0757 67.9056 57.1693 67.7395C57.1693 67.7395 58.479 69.3532 58.8957 69.5106L58.3479 68.6107L58.3356 68.5843C60.2387 69.9516 62.8498 70.4592 66.0794 69.5681C66.6635 69.4053 67.2376 69.2094 67.799 68.9812C68.1653 68.8246 68.5247 68.6526 68.8761 68.4656L68.9277 68.4371C69.1788 68.3007 69.4257 68.1566 69.6679 68.0052L69.6733 68.002C70.175 67.6889 70.6554 67.3438 71.1117 66.9687L71.1125 66.9684L71.1136 66.9674C71.1304 66.9527 71.1476 66.9384 71.1652 66.9238C71.4471 66.68 71.7173 66.4235 71.9752 66.155C72.2949 65.8212 72.5951 65.4696 72.8743 65.1019L72.894 65.0765C72.9599 64.9891 73.0245 64.9023 73.0871 64.816L73.1048 64.7908C73.1252 64.7613 73.1433 64.7332 73.1635 64.704C73.2501 64.5814 73.3347 64.4575 73.4173 64.3322L73.4758 64.2427C73.5177 64.1774 73.558 64.1119 73.5982 64.0473C73.6286 63.9967 73.6598 63.946 73.6893 63.8959C73.7221 63.8412 73.755 63.7865 73.787 63.7321C73.8429 63.6347 73.8977 63.5367 73.9515 63.4381C73.9723 63.3995 73.9921 63.3619 74.0123 63.3238C74.0527 63.248 74.0921 63.1731 74.1296 63.099C74.147 63.0643 74.1646 63.0298 74.1815 62.9955L74.1968 62.9629C74.2429 62.8709 74.2878 62.7783 74.3317 62.6852L74.3399 62.6656C74.4833 62.5348 74.614 62.3908 74.7303 62.2357C74.7451 62.2162 74.7603 62.1966 74.7738 62.1773C74.9991 61.8552 75.0729 61.5702 75.077 61.3144V61.3146ZM44.7361 56.5627C44.6799 56.5801 44.6165 56.6539 44.5528 56.7546C44.5278 56.7947 44.5043 56.8355 44.4821 56.8771C44.3112 57.195 44.1574 57.6357 44.1574 57.6357C44.1703 57.4843 44.1858 57.3332 44.2039 57.1823C44.2061 57.1644 44.2087 57.147 44.211 57.1289C44.2299 56.9726 44.2519 56.815 44.2753 56.6584C44.2779 56.6394 44.281 56.6207 44.2838 56.6021C44.3111 56.4255 44.34 56.25 44.3701 56.0807L44.3816 56.0155L44.3839 56.0043L44.3944 55.9454C44.4229 55.7871 44.4531 55.629 44.4847 55.4713C44.5069 55.3601 44.5286 55.2548 44.5493 55.1558L44.5559 55.1239C44.559 55.1083 44.5625 55.0941 44.5654 55.0793C44.5687 55.0648 44.5717 55.0498 44.5746 55.0347L44.5758 55.0295C44.5812 55.0047 44.5869 54.9793 44.5919 54.9559L44.5935 54.9494C44.5981 54.9261 44.6027 54.9064 44.6073 54.8848C44.615 54.8506 44.6223 54.8157 44.6295 54.7838L44.6315 54.775C44.6374 54.7492 44.6428 54.7229 44.6482 54.6993C44.6561 54.6655 44.6633 54.6342 44.6696 54.6046L44.6699 54.6038L44.6704 54.603C44.674 54.586 44.6776 54.5714 44.6812 54.5557L44.6819 54.553C44.6854 54.5388 44.6885 54.524 44.6916 54.5115L44.7107 54.4302L44.7154 54.411L44.7172 54.4039L44.7227 54.3811L44.7264 54.3653L44.7273 54.363L44.7246 54.3651L44.6901 54.396C44.6597 54.4229 44.6285 54.4491 44.6001 54.4787L44.5687 54.5129C44.5345 54.5505 44.5023 54.5898 44.4721 54.6306L44.456 54.6507C44.4182 54.7028 44.3832 54.7575 44.3498 54.813V54.8131L44.3454 54.8205V54.8208L44.3318 54.8455C44.324 54.859 44.3168 54.873 44.3094 54.8867C44.2902 54.9216 44.2702 54.9554 44.2529 54.9904L44.2521 54.9917L44.2514 54.9929L44.2506 54.9958L44.2439 55.009L44.2376 55.0223C44.2113 55.0767 44.1864 55.1318 44.1629 55.1874C44.0882 55.3638 44.0251 55.5447 43.9739 55.729C43.9519 55.8077 43.9365 55.8692 43.9296 55.8993L43.9292 55.9019L43.9243 55.9221V55.9218V55.9221L43.9263 55.8985C43.9289 55.8518 43.9343 55.8052 43.9381 55.7588C43.9453 55.6611 43.9516 55.563 43.9624 55.4658C43.9711 55.3841 43.9838 55.3041 43.9954 55.2231L44.0069 55.1472C44.0119 55.1097 44.0171 55.0723 44.0234 55.0352C44.0288 55.0005 44.0365 54.9663 44.0431 54.9323L44.0434 54.9297V54.9295L44.0508 54.8914L44.0529 54.881C44.0636 54.8229 44.0746 54.7648 44.086 54.7068L44.0919 54.678L44.093 54.6726L44.1017 54.6318C44.105 54.6147 44.11 54.5981 44.1134 54.582C44.1274 54.5207 44.1423 54.4608 44.1568 54.4004L44.1593 54.3903C44.1699 54.3454 44.1798 54.3002 44.1915 54.2559L44.1918 54.2539L44.1929 54.251L44.1965 54.238C44.2204 54.1468 44.2468 54.0578 44.2733 53.9681L44.2871 53.9186C44.2922 53.9021 44.2964 53.8845 44.3019 53.8679C44.3454 53.7224 44.3922 53.5786 44.4419 53.4381L44.4483 53.4206C44.491 53.3012 44.534 53.1837 44.5792 53.0679L44.5841 53.0548C44.6047 53.0038 44.6257 52.955 44.6458 52.9045L44.649 52.8972C44.6799 52.8221 44.7103 52.7466 44.7419 52.674V52.6728L44.7425 52.6719L44.7461 52.6627C44.7545 52.6445 44.7741 52.6004 44.8045 52.5353L44.805 52.5341L44.8091 52.5253C44.8209 52.4996 44.8321 52.4747 44.8436 52.4487L44.8994 52.3256L44.916 52.2899C44.8897 52.2758 44.8623 52.2632 44.8352 52.2497L44.8199 52.2422L44.7912 52.2279C44.6143 52.1441 44.4297 52.0774 44.2399 52.0288L44.2095 52.0213C44.013 51.9729 43.8121 51.9439 43.6098 51.935C43.5469 51.9324 43.484 51.9317 43.421 51.9329C43.3257 51.9349 43.2321 51.9429 43.1397 51.953C43.1102 51.9567 43.0817 51.9617 43.0532 51.9655C43.0075 51.9723 42.9623 51.9811 42.9168 51.9893C42.8992 51.993 42.8806 51.9951 42.8631 51.999C42.7695 52.0185 42.677 52.0426 42.5859 52.0711C42.5579 52.0799 42.53 52.0869 42.5029 52.0964C42.4216 52.1247 42.3419 52.1556 42.2637 52.19C42.2325 52.2037 42.2037 52.2195 42.1733 52.2336C42.1377 52.251 42.1023 52.2698 42.0673 52.2875L42.0312 52.3059C41.9571 52.3472 41.8847 52.3914 41.8141 52.4384C41.7727 52.4654 41.7325 52.4928 41.6932 52.5214C41.6691 52.5397 41.6461 52.5586 41.6217 52.5771C41.5257 52.6534 41.4343 52.7354 41.348 52.8224C41.2958 52.8737 41.2448 52.926 41.1972 52.9809L41.1729 53.0082C41.1477 53.038 41.1244 53.0694 41.1009 53.1005L41.0971 53.1049L41.0942 53.109C41.0782 53.1298 41.061 53.1498 41.0454 53.1712L41.0391 53.1795L41.033 53.1878L41.0326 53.1886L41.0322 53.1891C40.936 53.323 40.8511 53.4646 40.7784 53.6123C40.7677 53.6335 40.7582 53.6553 40.748 53.6768C40.7141 53.7495 40.683 53.8234 40.655 53.8985C40.644 53.9285 40.6316 53.9575 40.6213 53.9878L40.6208 53.9881V53.9882L40.6205 53.9889C40.5948 54.0656 40.5722 54.1434 40.5528 54.2236L40.5454 54.2533L40.5383 54.291L40.5373 54.2943C40.5242 54.3524 40.5114 54.4104 40.5022 54.4693C40.4974 54.4983 40.4945 54.5279 40.4907 54.5572L40.4894 54.5655C40.4856 54.5968 40.4825 54.6284 40.4792 54.6599C40.4764 54.6835 40.4729 54.7076 40.471 54.7317C40.4641 54.8247 40.4611 54.9183 40.4632 55.0134C40.4652 55.0866 40.4718 55.1589 40.4787 55.2312L40.4792 55.2353L40.4816 55.269C40.4856 55.3088 40.4926 55.3482 40.4986 55.3878C40.5623 55.8319 40.7286 56.2555 40.9846 56.6256C41.215 56.9647 41.5124 57.254 41.8588 57.476C42.0572 57.6021 42.2699 57.7046 42.4924 57.7816C42.7076 57.8569 42.9324 57.9118 43.1667 57.9372C43.2193 57.9426 43.2727 57.9465 43.3261 57.9502C43.4061 57.9554 43.4858 57.9589 43.5673 57.9572C43.6422 57.9556 43.7151 57.9463 43.7889 57.9393C43.831 57.9354 43.8743 57.9351 43.9159 57.9292C44.0219 57.9146 44.1257 57.8933 44.2281 57.868L44.2511 57.863C44.2938 57.8519 44.3333 57.8366 44.3745 57.8239C44.5023 57.7854 44.6274 57.7384 44.7488 57.6831L44.7751 57.6715C44.8087 57.6572 44.8437 57.6434 44.8763 57.6269L44.8802 57.6253C44.8206 57.2969 44.7752 56.9662 44.7442 56.634C44.7422 56.6099 44.7388 56.5866 44.7361 56.5627" fill="#FCE9C9"/>
<path d="M57.3993 30.3157L57.4553 30.3441L57.4543 30.3366L57.3993 30.3157Z" fill="#4D94C3"/>
<path d="M73.9173 60.5532C73.9135 60.5385 73.9099 60.5239 73.9063 60.5092L73.8848 60.4293C73.7928 60.1335 73.6763 59.9025 73.5726 59.7379C73.44 59.5253 73.3301 59.4203 73.3301 59.4203C73.3773 59.258 73.4114 59.0922 73.432 58.9245C73.5118 58.2506 73.3298 57.7259 73.1839 57.4299C73.1633 57.388 73.1416 57.3468 73.1186 57.3062C73.0135 57.3803 72.9073 57.4532 72.801 57.5243C70.7842 58.8775 68.5142 59.7457 66.0564 60.1188C64.3624 60.376 62.5805 60.4001 60.7277 60.1766L60.76 60.1859C60.76 60.1859 59.6433 60.3373 59.3404 61.3987L59.3593 61.4096L59.267 62.1216C59.2997 63.0855 59.7445 63.6888 60.2507 64.0063C60.777 64.2052 61.4123 64.3568 62.1178 64.4437C63.3458 64.5949 64.7552 64.5549 66.194 64.3286L66.2013 64.3275L66.2087 64.3265C68.1222 64.0724 70.8231 63.0599 72.7539 61.7531C73.1937 61.4552 73.5938 61.143 73.9354 60.82L73.9482 60.8076L73.9714 60.7853C73.9547 60.7076 73.9367 60.6302 73.9173 60.5532" fill="white"/>
<path d="M70.267 51.3659C69.231 50.7407 69.079 50.5332 69.176 48.8352C69.2105 48.2237 69.2774 47.42 69.3462 46.3306C69.3547 46.1945 69.36 46.0582 69.3621 45.9219C69.3628 45.8902 69.3635 45.8594 69.3635 45.8283C69.3647 45.7068 69.3629 45.5853 69.3582 45.4638L69.357 45.4301L69.3542 45.3941C69.3468 45.2661 69.3366 45.1383 69.3235 45.0108C69.3138 44.9201 69.3015 44.8297 69.2867 44.7397C69.2795 44.6951 69.2706 44.6521 69.2624 44.6087C69.2533 44.5607 69.2434 44.5129 69.2328 44.4652C69.2231 44.4194 69.2125 44.3738 69.2011 44.3283L69.2006 44.328L69.2011 44.3275C69.0549 44.1101 68.8767 43.9156 68.6724 43.7504L68.6321 43.7206L68.6239 43.7146L68.5937 43.6921L68.5833 43.6845C68.5538 43.6617 68.5225 43.6397 68.4918 43.6193C68.4589 43.5976 68.4256 43.5765 68.3918 43.5562C68.0855 43.3716 67.7441 43.2556 67.3787 43.2019C67.1716 43.1724 66.9623 43.1618 66.7533 43.1703C66.6538 43.1739 66.5529 43.1825 66.4515 43.1944C66.1773 43.2269 65.9065 43.2835 65.6425 43.3637C65.5501 43.4266 65.4581 43.4909 65.3648 43.555C65.2869 43.6089 65.2072 43.6628 65.1274 43.7164L65.0889 43.7426C65.0084 43.7961 64.9271 43.8484 64.8454 43.9005L64.8043 43.9259C64.7222 43.9763 64.6399 44.0257 64.5567 44.0724L64.513 44.0965C64.4296 44.1429 64.3449 44.1868 64.2589 44.2284L64.2161 44.2482C64.1294 44.2889 64.041 44.3272 63.9514 44.3605L63.9145 44.3745C63.8222 44.4085 63.7283 44.4382 63.6332 44.4636L63.6082 44.4693C63.5075 44.495 63.4068 44.5155 63.3031 44.5295C63.1299 44.5513 62.9555 44.5618 62.7809 44.5611C62.4943 44.5614 62.208 44.5401 61.9246 44.4973C61.8284 44.4827 61.7324 44.4666 61.6367 44.4489C61.6026 44.4424 61.5686 44.4374 61.5349 44.4309C61.2851 44.3827 61.0337 44.3252 60.7807 44.2648C60.6742 44.2398 60.5681 44.2144 60.4613 44.1886C60.2899 44.1473 60.1168 44.1072 59.9434 44.0682C59.9091 44.0602 59.8761 44.0517 59.8412 44.0442C59.6958 44.052 59.5499 44.0662 59.4034 44.0844L59.3715 44.0884C58.9373 44.1455 58.5101 44.2461 58.0965 44.3887C58.0732 44.3967 58.0497 44.4034 58.0265 44.4118C57.9606 44.4351 57.895 44.4607 57.8293 44.4862C57.7414 44.5207 57.6535 44.5567 57.5664 44.595C56.9546 44.8626 56.3604 45.2266 55.8079 45.6895C55.587 45.875 55.3769 46.0728 55.1786 46.2819C54.8834 46.5935 54.6159 46.9299 54.3791 47.2872C54.3661 47.3067 54.3533 47.3262 54.341 47.3461C54.2178 47.5349 54.1039 47.7296 53.9997 47.9294C53.9626 48 53.9251 48.071 53.891 48.1423L53.8841 48.1562C53.7743 48.387 53.6774 48.6237 53.5939 48.8651C53.5891 48.8793 53.585 48.8936 53.5809 48.9078C53.5691 48.9426 53.5601 48.9775 53.549 49.012C53.477 49.2361 53.417 49.4638 53.3693 49.6943C53.3647 49.7193 53.3589 49.7444 53.3547 49.7695C53.3412 49.8405 53.3284 49.9114 53.3169 49.9824C53.2775 50.2409 53.255 50.5017 53.2495 50.763C53.2475 50.8281 53.2451 50.8938 53.2459 50.9582C53.3599 51.3643 53.5259 51.7542 53.74 52.1185C54.5156 53.4463 55.791 54.2404 56.715 54.6664C57.082 54.8263 57.4573 54.9667 57.8393 55.0871L57.8492 55.1038H57.8497L57.8513 55.1032L57.8765 55.0842C57.9263 55.0467 57.9759 55.0089 58.0273 54.9718C58.0454 54.958 58.064 54.945 58.0824 54.9314C58.154 54.8794 58.2264 54.8285 58.2996 54.7787C58.3546 54.7406 58.4113 54.7019 58.4691 54.6643C58.4882 54.6513 58.5076 54.6392 58.527 54.6265C58.5853 54.5883 58.6446 54.55 58.7054 54.5122L58.7654 54.475L58.9517 54.3623C58.9732 54.3496 58.9952 54.3367 59.0167 54.3237C59.0798 54.2876 59.1436 54.2505 59.209 54.2137C59.2326 54.2011 59.2561 54.188 59.2796 54.1746C59.3439 54.1388 59.4094 54.1033 59.4763 54.068C59.5026 54.0541 59.529 54.04 59.5562 54.0261C59.6219 53.9916 59.6883 53.9574 59.7558 53.9236L59.8429 53.8803C59.9101 53.8471 59.9781 53.8142 60.0464 53.7814C60.0788 53.766 60.1118 53.751 60.1445 53.7355C60.2117 53.7041 60.2798 53.6729 60.3489 53.6418C60.3847 53.6253 60.4224 53.6095 60.4593 53.5931C60.5272 53.5631 60.5953 53.5338 60.6637 53.5052C60.7043 53.4873 60.746 53.4703 60.7871 53.4534C60.8542 53.4257 60.922 53.3981 60.9909 53.3704C61.0367 53.3525 61.0834 53.3346 61.1297 53.3162C61.1962 53.2906 61.2631 53.2647 61.3311 53.2393C61.3821 53.2198 61.4341 53.2008 61.4854 53.1824C61.5513 53.1584 61.6167 53.1345 61.6841 53.1107L61.8562 53.0518C61.9207 53.0297 61.9854 53.0072 62.0511 52.9862C62.114 52.965 62.178 52.945 62.2417 52.9248C62.3046 52.9045 62.3674 52.8844 62.4313 52.8647C62.5013 52.8431 62.5724 52.8221 62.6442 52.8006C62.7041 52.7833 62.7642 52.7649 62.8251 52.7477C62.9024 52.7252 62.9817 52.7037 63.0601 52.6819C63.0995 52.6713 63.1377 52.6595 63.1772 52.6494C63.484 51.8842 64.3942 49.9873 65.9537 49.7797C66.1068 49.758 66.2613 49.7466 66.416 49.7455C66.4518 49.7451 66.4903 49.7425 66.5244 49.7433C66.5064 49.6332 66.4922 49.5186 66.485 49.3994C66.436 48.582 66.6897 47.9025 67.0512 47.8809C67.3312 47.8584 67.554 48.2636 67.5919 48.4054C67.6984 48.654 67.773 48.9714 67.7945 49.3236C67.8137 49.6453 67.7837 49.9422 67.7217 50.1898C67.7533 50.2221 67.7792 50.2577 67.8075 50.2919C68.1647 50.7311 68.2252 51.3403 68.2104 51.7719C68.3492 51.758 68.4918 51.7458 68.6343 51.7338L68.7432 51.7237L68.7657 51.7217C68.7863 51.7196 68.8068 51.7185 68.8273 51.7169C69.0038 51.7024 69.1822 51.6889 69.3631 51.6762L69.3713 51.6757C69.7811 51.6473 70.2019 51.6234 70.6361 51.605C70.4106 51.4406 70.267 51.3657 70.267 51.3657V51.3659ZM74.1907 62.809C73.5465 63.3762 72.8404 63.8702 72.0855 64.282C71.7432 64.4682 71.3923 64.6383 71.0339 64.7919C70.3367 65.0924 69.6148 65.3333 68.8761 65.5119C67.4409 65.8584 66.4288 65.859 66.4288 65.859C67.2137 66.2891 68.2071 66.2932 68.8884 66.225C69.3575 66.1788 69.6799 66.0988 69.6799 66.0988C69.6667 66.3655 69.6326 66.6307 69.578 66.8921C69.5251 67.1463 69.4486 67.3951 69.3495 67.6353L69.3421 67.6548L69.3414 67.656C69.2326 67.9174 69.0936 68.1654 68.9271 68.3951C68.91 68.4182 68.8934 68.4431 68.8761 68.4656L68.9277 68.4371C69.1788 68.3006 69.4257 68.1566 69.6679 68.0052L69.6733 68.0019C70.175 67.6889 70.6554 67.3437 71.1116 66.9687L71.1125 66.9683L71.1136 66.9674C71.1304 66.9527 71.1476 66.9384 71.1652 66.9237C71.447 66.68 71.7173 66.4235 71.9752 66.155C72.2949 65.8212 72.5951 65.4696 72.8743 65.1019L72.894 65.0765C72.9599 64.989 73.0245 64.9023 73.0871 64.816L73.1048 64.7908C73.1252 64.7613 73.1433 64.7331 73.1635 64.704C73.2501 64.5814 73.3347 64.4574 73.4173 64.3322L73.4758 64.2426C73.5177 64.1773 73.558 64.1119 73.5982 64.0473C73.6286 63.9966 73.6598 63.946 73.6892 63.8959C73.7221 63.8412 73.755 63.7865 73.787 63.7321C73.8429 63.6347 73.8977 63.5367 73.9515 63.4381C73.9723 63.3995 73.9921 63.3619 74.0123 63.3238C74.0527 63.2479 74.0921 63.173 74.1296 63.099C74.147 63.0643 74.1646 63.0298 74.1815 62.9954L74.1968 62.9629C74.2429 62.8708 74.2878 62.7782 74.3317 62.6851C74.2845 62.7278 74.2375 62.7682 74.1907 62.8089V62.809ZM57.0901 55.3231C56.877 55.3942 56.6663 55.4724 56.4585 55.5576C55.8588 55.8037 55.178 56.1539 54.5748 56.6376C54.4992 56.6978 54.4251 56.7603 54.3523 56.8248C54.2281 56.9361 54.1095 57.0533 53.9969 57.1761C53.984 57.1901 53.9702 57.2034 53.9578 57.2176C53.9406 57.2365 53.9237 57.2562 53.9069 57.2754C53.864 57.3251 53.8215 57.3757 53.7804 57.4274L53.7311 57.4896C53.6769 57.5606 53.6238 57.6326 53.5739 57.7073C53.5246 57.7806 53.4774 57.8563 53.4327 57.9329C53.0752 58.5512 52.8724 59.2916 52.9347 60.1745L52.9365 60.1654L52.9377 60.1589L52.9442 60.126L52.9462 60.1186C52.9488 60.1053 52.9528 60.0893 52.9569 60.0721L52.9594 60.061C52.9643 60.041 52.97 60.0179 52.9766 59.9928L52.981 59.9765L53.0054 59.8893H53.0059C53.0146 59.8583 53.0256 59.825 53.0366 59.7906L53.0436 59.7696C53.0553 59.7346 53.0681 59.698 53.0821 59.6604L53.0895 59.6423C53.1025 59.6065 53.1169 59.57 53.1325 59.5323L53.1399 59.5148C53.1569 59.4741 53.1756 59.4321 53.195 59.3895L53.2075 59.3628C53.2283 59.3192 53.2495 59.2749 53.2732 59.2301V59.2299L53.2763 59.2247C53.3116 59.1578 53.3514 59.0896 53.3938 59.0209C53.4097 58.9949 53.425 58.9691 53.4427 58.9431L53.4562 58.9213L53.4565 58.9208C53.5242 58.8198 53.598 58.7229 53.6774 58.6307C53.6889 58.6173 53.7012 58.604 53.7135 58.5905C53.7426 58.5579 53.773 58.5254 53.8045 58.4934C53.8175 58.4807 53.8302 58.4674 53.8431 58.4549C53.8864 58.413 53.9306 58.3722 53.9775 58.3326L53.9815 58.3289V58.329V58.3289C53.9815 58.3289 53.1698 60.148 53.5228 61.5905C53.5228 61.5905 53.5224 61.5861 53.5224 61.5784V61.5695C53.5221 61.5614 53.5221 61.5522 53.5221 61.5399C53.5221 61.5376 53.5221 61.5347 53.5218 61.532C53.5221 61.5174 53.5221 61.5001 53.5228 61.4796C53.5228 61.477 53.5228 61.4747 53.5231 61.4717C53.5231 61.4505 53.5247 61.4266 53.5257 61.4L53.5262 61.3924C53.5298 61.3256 53.5351 61.2588 53.542 61.1923L53.543 61.1835C53.5466 61.1472 53.5518 61.1096 53.5573 61.07C53.5576 61.0666 53.5584 61.063 53.5589 61.0594C53.565 61.0176 53.572 60.9741 53.5803 60.9294L53.5822 60.9188L53.5865 60.8963V60.8954C53.5964 60.8449 53.6084 60.7934 53.6218 60.7413C53.6228 60.7381 53.6235 60.7343 53.6243 60.7309C53.6381 60.68 53.6529 60.6284 53.6695 60.5766L53.6849 60.5291L53.6961 60.496V60.4954C53.7115 60.4529 53.7283 60.4102 53.7465 60.3679L53.7493 60.3611L53.7495 60.3607C53.7822 60.2856 53.8198 60.2125 53.8619 60.1421C53.8956 60.0858 53.9309 60.0306 53.971 59.9783L53.9726 59.9757V59.976V59.9757H53.9728C53.9728 59.9757 53.9263 60.4237 53.9383 60.9567C53.9424 61.1005 53.9504 61.2441 53.9624 61.3875C53.9971 60.8404 54.0962 60.2991 54.2577 59.7748C54.3007 59.6364 54.3476 59.5018 54.3973 59.369C54.4042 59.3498 54.411 59.3305 54.4182 59.3115C54.521 59.0436 54.6384 58.7814 54.7697 58.526C54.7792 58.5084 54.7882 58.4912 54.7974 58.4736C54.9192 58.2417 55.0517 58.0156 55.1945 57.7959L55.2249 57.7486C55.2778 57.6687 55.3319 57.5916 55.3861 57.515C55.4003 57.4947 55.4141 57.4732 55.4282 57.4532C55.4415 57.4353 55.454 57.4174 55.467 57.3994C55.536 57.305 55.6053 57.213 55.6753 57.1242L55.7087 57.0823C55.7814 56.9908 55.8541 56.9016 55.927 56.8165L55.931 56.8119C56.0203 56.7073 56.1118 56.6045 56.2053 56.5036C56.2721 56.4318 56.3381 56.3628 56.4037 56.2963C56.4283 56.2714 56.4538 56.2467 56.4791 56.2214C56.6241 56.0764 56.7735 55.9358 56.9271 55.7998C57.3492 55.4255 57.678 55.1942 57.7925 55.1177C57.5559 55.1774 57.3217 55.246 57.0903 55.3233" fill="#EFCFA5"/>
<path d="M67.8838 51.2949C67.8838 51.2949 67.8792 51.2484 67.8624 51.1784C67.7965 50.9123 67.5312 50.2849 66.4867 50.3844C65.3946 50.4886 65.0277 51.3618 64.9337 51.6593C64.9143 51.7211 64.9058 51.7599 64.9058 51.7599L64.9355 51.7849C65.074 51.6684 65.3382 51.6822 65.5779 51.833C65.6803 51.8963 65.7677 51.9807 65.8343 52.0804V52.0809C65.9266 52.2217 65.9522 52.3736 65.8868 52.4863C65.873 52.5107 65.8556 52.531 65.8356 52.5489C65.8356 52.5489 65.8776 52.5651 65.9484 52.5854C66.2519 52.6741 67.0935 52.8491 67.5488 52.2663C67.5708 52.2383 67.5931 52.2123 67.6132 52.181C67.5236 52.1356 67.4735 52.0054 67.4734 51.8509C67.4727 51.7719 67.484 51.6933 67.507 51.6177C67.5818 51.3729 67.7507 51.2283 67.8838 51.2949V51.2949ZM62.4696 59.2435C61.8706 59.3659 61.269 59.4754 60.6653 59.572L60.7454 59.5821C61.5472 59.6808 62.8239 59.8003 64.3677 59.7068C67.1766 59.5373 70.8736 58.6616 74.2307 55.6621L74.2399 55.6504V55.6452C74.251 55.394 74.2172 54.9403 73.8968 54.5873C73.8378 54.5228 73.7723 54.4644 73.7013 54.4131C73.6888 54.406 73.6771 54.3978 73.6642 54.3905C73.5761 54.3417 73.499 54.2922 73.4276 54.2433C73.3711 54.2087 73.316 54.1719 73.2624 54.133L73.255 54.1224C73.0426 54.4226 72.8039 54.7037 72.5416 54.9624C72.445 55.0567 72.3459 55.1486 72.2446 55.2379C71.3184 56.0645 70.1216 56.753 68.8297 57.32C66.6829 58.2621 64.2834 58.8734 62.4695 59.2435H62.4696ZM44.6902 54.396C44.6598 54.4229 44.6285 54.4491 44.6001 54.4787L44.5687 54.5129C44.5345 54.5505 44.5023 54.5898 44.4721 54.6306L44.456 54.6507C44.4182 54.7028 44.3832 54.7575 44.3499 54.813V54.8131L44.3455 54.8205V54.8208L44.3318 54.8455C44.3241 54.859 44.3169 54.873 44.3095 54.8867C44.2902 54.9216 44.2702 54.9554 44.253 54.9904L44.2521 54.9917L44.2515 54.9929L44.2506 54.9958L44.2439 55.009L44.2377 55.0223C44.2113 55.0767 44.1864 55.1317 44.1629 55.1874C44.0883 55.3637 44.0252 55.5447 43.974 55.729C43.9519 55.8077 43.9365 55.8692 43.9296 55.8993L43.9293 55.9019L43.9243 55.9221V55.9218V55.9221L43.9263 55.8985C43.9289 55.8518 43.9344 55.8052 43.9381 55.7588C43.9454 55.6611 43.9516 55.563 43.9625 55.4658C43.9712 55.3841 43.9838 55.3041 43.9955 55.223L44.007 55.1472C44.0119 55.1097 44.0172 55.0723 44.0234 55.0352C44.0288 55.0005 44.0366 54.9663 44.0431 54.9323L44.0435 54.9297V54.9295L44.0509 54.8914L44.053 54.881C44.0637 54.8229 44.0747 54.7648 44.086 54.7068L44.0919 54.678L44.0931 54.6726L44.1018 54.6318C44.1051 54.6147 44.11 54.5981 44.1135 54.582C44.1274 54.5207 44.1424 54.4608 44.1568 54.4004L44.1593 54.3903C44.17 54.3454 44.1798 54.3002 44.1915 54.2559L44.1918 54.2539L44.193 54.251L44.1966 54.238C44.2204 54.1468 44.2469 54.0577 44.2733 53.968L44.2871 53.9186C44.2922 53.9021 44.2965 53.8845 44.3019 53.8679C44.3455 53.7224 44.3923 53.5786 44.4419 53.4381L44.4483 53.4206C44.491 53.3012 44.5341 53.1837 44.5793 53.0679L44.5842 53.0548C44.6047 53.0038 44.6258 52.955 44.6458 52.9045L44.6491 52.8972C44.68 52.8221 44.7104 52.7466 44.7419 52.674V52.6728L44.7426 52.6719L44.7462 52.6627C44.7546 52.6445 44.7741 52.6004 44.8045 52.5353L44.805 52.5341L44.8091 52.5253C44.8209 52.4996 44.8321 52.4747 44.8436 52.4487L44.8995 52.3256L44.9161 52.2899C44.8898 52.2758 44.8624 52.2632 44.8352 52.2497L44.82 52.2422L44.7912 52.2279C44.6144 52.1441 44.4298 52.0774 44.24 52.0288L44.2096 52.0213C44.0131 51.9728 43.8122 51.9439 43.6099 51.935C43.547 51.9324 43.484 51.9317 43.4211 51.9329C43.3258 51.9349 43.2321 51.9429 43.1398 51.9529C43.1102 51.9565 43.0818 51.9617 43.0532 51.9655C43.0075 51.9723 42.9623 51.9811 42.9168 51.9892C42.8993 51.993 42.8807 51.9951 42.8631 51.999C42.7696 52.0185 42.6771 52.0426 42.5859 52.0711C42.558 52.0799 42.5301 52.0869 42.503 52.0964C42.4216 52.1247 42.3419 52.1556 42.2637 52.19C42.2325 52.2037 42.2038 52.2194 42.1734 52.2339C42.1377 52.251 42.1024 52.2698 42.0674 52.2877L42.0312 52.3059C41.9572 52.3472 41.8847 52.3914 41.8142 52.4384C41.7728 52.4654 41.7325 52.4928 41.6933 52.5214C41.6691 52.5397 41.6461 52.5586 41.6218 52.5771C41.5257 52.6534 41.4343 52.7354 41.3481 52.8224C41.2958 52.8734 41.2455 52.9262 41.1972 52.9808L41.1729 53.0082C41.1478 53.038 41.1244 53.0694 41.1009 53.1005L41.0972 53.1049L41.0942 53.109C41.0783 53.1298 41.061 53.1498 41.0454 53.1713L41.0392 53.1795L41.0331 53.1878L41.0326 53.1886L41.0323 53.1891C40.936 53.323 40.8515 53.465 40.7784 53.613C40.7677 53.6342 40.7582 53.6553 40.7485 53.6768C40.7143 53.7491 40.6836 53.8232 40.655 53.8985C40.644 53.9285 40.6317 53.9575 40.6213 53.9877L40.6208 53.9881V53.9882C40.6268 54.0078 40.6333 54.0262 40.6393 54.0454C40.6601 54.1124 40.6813 54.1776 40.7037 54.2407L40.7114 54.2624L40.7198 54.2844C40.8053 54.5206 40.9081 54.7503 41.0272 54.9719C41.0392 54.9935 41.051 55.0161 41.0627 55.0368L41.071 55.0521L41.0822 55.0705C41.1362 55.1655 41.1937 55.2586 41.2544 55.3495C41.3217 55.4506 41.3937 55.5485 41.4701 55.6429L41.5014 55.6803C41.5092 55.6898 41.5166 55.6983 41.5235 55.7059C41.5441 55.7292 41.5567 55.7427 41.5567 55.7429C41.5488 55.7098 41.5449 55.6773 41.538 55.6437C41.4907 55.4128 41.4638 55.1781 41.4576 54.9426V54.9289L41.457 54.9023C41.4535 54.7575 41.4574 54.6125 41.4685 54.468C41.5059 54.5985 41.5477 54.7277 41.5939 54.8555L41.6031 54.8817L41.6068 54.8913C41.7085 55.1643 41.8338 55.4281 41.9813 55.6797C42.1301 55.9337 42.2665 56.1135 42.348 56.2125C42.373 56.2434 42.399 56.2733 42.4261 56.3024C42.3695 56.0575 42.3367 55.8078 42.328 55.5568C42.3239 55.4751 42.3223 55.3934 42.323 55.3116C42.3245 55.2084 42.3299 55.1068 42.3385 55.0067V55.007V55.0067C42.3838 55.178 42.4359 55.3365 42.4916 55.486L42.4956 55.4974C42.6957 56.0348 42.9428 56.43 43.1133 56.6641L43.1327 56.69C43.1628 56.7297 43.1886 56.7633 43.2121 56.7932C43.2284 56.8134 43.2436 56.8329 43.2564 56.8474C43.2756 56.8708 43.2955 56.8937 43.3159 56.916L43.3089 56.8808C43.3013 56.8458 43.294 56.8108 43.287 56.7756C43.2635 56.6515 43.2459 56.5263 43.2344 56.4006C43.2257 56.3185 43.2194 56.2362 43.2155 56.1538C43.2129 56.0769 43.2124 56 43.2139 55.9231L43.2152 55.8819C43.2165 55.8423 43.2173 55.8026 43.2195 55.7635L43.221 55.7393L43.2226 55.7219C43.2287 55.6212 43.2374 55.5216 43.25 55.4239V55.4244V55.4241C43.2827 55.5333 43.3192 55.6413 43.3596 55.7479L43.3631 55.757L43.3687 55.7723L43.3785 55.7995C43.4335 55.9426 43.495 56.0832 43.5629 56.2208C43.613 56.3236 43.6641 56.4185 43.7134 56.5052C43.7421 56.5541 43.7694 56.6001 43.7967 56.6443C43.8539 56.7367 43.9145 56.8269 43.9786 56.9148L43.9981 56.9412C44.0336 56.9893 44.0704 57.0365 44.1084 57.0827C44.142 57.1232 44.1659 57.1498 44.1765 57.1613L44.1826 57.1678L44.204 57.1823C44.2061 57.1644 44.2088 57.147 44.2111 57.1289C44.2299 56.9726 44.252 56.815 44.2753 56.6584C44.2779 56.6394 44.281 56.6207 44.2838 56.6021C44.3111 56.4255 44.34 56.25 44.3701 56.0807L44.3816 56.0155L44.3839 56.0043L44.3944 55.9454C44.423 55.7871 44.4531 55.629 44.4848 55.4713C44.507 55.3601 44.5287 55.2548 44.5494 55.1558L44.5559 55.1239C44.559 55.1083 44.5625 55.0941 44.5655 55.0793C44.5687 55.0648 44.5717 55.0498 44.5747 55.0347L44.5758 55.0295C44.5812 55.0047 44.587 54.9793 44.5919 54.9559L44.5936 54.9494C44.5982 54.9261 44.6028 54.9064 44.6074 54.8848C44.6151 54.8506 44.6223 54.8157 44.6295 54.7838L44.6315 54.775C44.6374 54.7491 44.6428 54.7229 44.6483 54.6993C44.6562 54.6655 44.6634 54.6342 44.6696 54.6046L44.67 54.6038L44.6704 54.603C44.6741 54.586 44.6777 54.5714 44.6813 54.5557L44.6819 54.553C44.6854 54.5388 44.6885 54.524 44.6916 54.5115L44.7107 54.4302L44.7155 54.411L44.7173 54.4039L44.7227 54.3811L44.7265 54.3653L44.7273 54.363L44.7247 54.3651L44.6902 54.396V54.396ZM67.4229 62.1714C67.6878 62.0805 67.9185 62.0073 68.0974 61.93C68.4561 61.7786 68.6486 61.6765 68.6366 61.6389C68.6245 61.6003 68.4081 61.6294 68.0271 61.7147C67.8363 61.7589 67.6051 61.7974 67.3394 61.8564C67.2073 61.888 67.0614 61.9059 66.9101 61.9348C66.7578 61.9611 66.5976 61.9943 66.4285 62.0122C66.0948 62.0591 65.713 62.1017 65.3077 62.1484C65.1079 62.1647 64.9018 62.1815 64.6899 62.1984C64.4758 62.209 64.256 62.2199 64.0304 62.2308C63.1287 62.2569 62.1333 62.2165 61.1205 62.0319C60.5866 61.9388 59.8728 61.6985 59.3594 61.4097L59.3405 61.3989C59.6433 60.3375 60.7601 60.1861 60.7601 60.1861L60.7277 60.1766L60.6715 60.1703C60.509 60.1504 60.3662 60.1312 60.2438 60.1149C60.1564 60.1032 60.0797 60.0928 60.0149 60.0848C59.9527 60.0772 59.9081 60.0726 59.8823 60.071C59.2097 60.0252 58.8412 60.5897 58.7137 60.8342C58.6956 60.8695 58.6788 60.9058 58.6619 60.9428C58.5594 61.1771 58.4989 61.4274 58.483 61.6823C58.4498 62.1812 58.5794 62.729 58.9652 63.1952C59.2225 63.5097 59.6701 63.787 60.2507 64.0063C59.7445 63.6888 59.2997 63.0855 59.267 62.1216C59.8405 62.3658 60.5087 62.5152 61.0106 62.6036C62.0857 62.7999 63.1231 62.8234 64.0557 62.7666C64.2887 62.7474 64.5154 62.7304 64.7356 62.7085C64.9561 62.68 65.17 62.6528 65.3775 62.6261C65.781 62.5587 66.1533 62.4934 66.503 62.417C66.6771 62.3847 66.839 62.3373 66.9919 62.2961C67.1451 62.2521 67.2902 62.2189 67.4229 62.1714" fill="#EFCFA5"/>
<path d="M66.5311 49.748C67.0926 49.761 67.4742 49.9377 67.7283 50.1947C67.7903 49.9469 67.8207 49.65 67.8008 49.3283C67.7793 48.9762 67.705 48.6587 67.5987 48.41C67.5609 48.2683 67.3378 47.863 67.0577 47.8854C66.696 47.9071 66.4432 48.5868 66.492 49.404C66.4989 49.5233 66.5127 49.638 66.5311 49.7482V49.748ZM67.4797 51.8556C67.4802 52.0102 67.5302 52.1403 67.6196 52.1856C67.754 52.2523 67.9214 52.1068 67.9958 51.8619C68.0029 51.8404 68.0068 51.8191 68.0118 51.7981V51.7976C68.0594 51.5751 68.0109 51.3599 67.8899 51.2996C67.7568 51.2329 67.588 51.3778 67.5136 51.6221C67.4894 51.7019 67.4793 51.7812 67.4797 51.8556V51.8556ZM64.9296 52.25C64.9891 52.3461 65.0788 52.4389 65.1935 52.5113C65.436 52.6637 65.7054 52.6766 65.842 52.5538C65.8622 52.5359 65.8798 52.5151 65.8934 52.491C65.9588 52.3782 65.9332 52.2264 65.8411 52.0853L65.8408 52.085C65.7742 51.9853 65.6868 51.9009 65.5845 51.8375C65.3448 51.6868 65.0806 51.6729 64.9421 51.7898C64.9189 51.8087 64.8992 51.8313 64.8839 51.8569C64.8213 51.9661 64.8445 52.112 64.9296 52.2497V52.25V52.25ZM74.2399 55.6514V55.6465L74.2241 55.6691C74.2264 55.667 74.2289 55.6654 74.231 55.6632L74.2399 55.6514Z" fill="#59473D"/>
<path d="M73.9485 60.8088L73.9357 60.8208C73.5941 61.1438 73.1937 61.4566 72.7542 61.7543C70.8234 63.0611 68.1224 64.0734 66.2086 64.3275L66.2012 64.3286L66.194 64.3298C64.7552 64.5562 63.3458 64.5961 62.1178 64.4447C61.4121 64.3578 60.7771 64.2064 60.2506 64.0073C59.6705 63.788 59.2228 63.5107 58.9651 63.1964C58.5793 62.73 58.4497 62.1823 58.4831 61.6835C58.4991 61.4286 58.5597 61.1783 58.6621 60.9439C58.6787 60.907 58.6958 60.8707 58.7139 60.8353C58.8414 60.5908 59.2096 60.0262 59.8826 60.0718C59.9081 60.0739 59.9529 60.0783 60.0149 60.086C60.0796 60.0938 60.1565 60.1042 60.2441 60.1159C60.3661 60.1322 60.5094 60.1514 60.6717 60.1713C60.6906 60.1737 60.709 60.1755 60.7276 60.1776C62.5805 60.401 64.3623 60.3772 66.0563 60.12C68.5141 59.7469 70.7845 58.8785 72.801 57.5257C72.9078 57.4541 73.0136 57.3813 73.1186 57.3072L74.224 55.6691C70.8691 58.6636 67.1752 59.5383 64.3676 59.7078C62.8236 59.8012 61.547 59.6819 60.7457 59.5833C60.7188 59.5799 60.692 59.5765 60.6652 59.573C60.4248 59.5427 60.2288 59.5152 60.0888 59.4978C60.0188 59.489 59.9623 59.4831 59.9199 59.4802C59.7182 59.4664 59.5156 59.49 59.3227 59.55C58.9406 59.6684 58.6142 59.924 58.369 60.2628C58.0661 60.6803 57.8876 61.2234 57.8794 61.7914C57.8735 62.2588 57.9832 62.742 58.2364 63.185C58.2463 63.2027 58.256 63.2208 58.2667 63.2389C58.2959 63.2874 58.3275 63.3352 58.3603 63.3821C58.4047 63.4466 58.4513 63.5101 58.5028 63.5719C59.091 64.2904 60.356 64.8248 62.0437 65.0329C63.1856 65.1735 64.5222 65.1621 65.9719 64.9596C70.2438 64.1945 72.2746 62.827 73.2124 61.8662C73.2809 61.7962 73.3438 61.7278 73.4014 61.6625C73.7375 61.2783 73.8888 60.9828 73.944 60.855L73.9516 60.8376C73.9657 60.8046 73.9713 60.7871 73.9715 60.7863L73.9485 60.8088" fill="#59473D"/>
<path d="M60.3537 46.13C60.2189 46.0573 60.0719 46.0055 59.9235 45.969C59.7909 45.9371 59.6559 45.9157 59.5198 45.9051C59.0198 45.8618 58.5874 45.9458 58.5874 45.9458C58.4947 45.9666 58.4058 45.9904 58.3199 46.0164C57.6407 46.2206 57.1678 46.5711 56.8372 46.9754C56.5698 47.3027 56.3959 47.6652 56.2848 48.0151C56.2481 48.1335 56.2163 48.2534 56.1896 48.3745C56.1355 48.6314 56.1042 48.8924 56.0959 49.1546C56.0874 49.4483 56.1104 49.6375 56.1104 49.6375C56.2222 49.3946 56.3454 49.157 56.4797 48.9256C56.7962 48.3794 57.1392 47.9395 57.4859 47.5861C58.1614 46.8975 58.8495 46.5343 59.3828 46.3433C59.9588 46.137 60.3537 46.13 60.3537 46.13V46.13ZM68.4676 45.1715L68.445 45.1419C68.3662 45.0425 68.2728 44.9555 68.1678 44.8838C67.9098 44.708 67.554 44.6164 67.0604 44.7166C67.0604 44.7166 66.4746 44.8537 66.1321 45.2334C66.1321 45.2334 67.1531 44.8013 68.2338 45.5625C68.3324 45.6319 68.4312 45.7123 68.5299 45.8027C68.6365 45.9005 68.737 46.0046 68.8311 46.1142C68.8311 46.1142 68.7882 45.6477 68.5199 45.2457C68.5035 45.2203 68.4861 45.1955 68.4676 45.1715" fill="#E1B27E"/>
<path d="M60.4771 52.5791C60.8955 52.4522 61.3187 52.3413 61.7457 52.2466C61.8245 51.8966 61.8441 51.4629 61.7882 50.9999C61.659 49.9141 61.1648 49.0823 60.685 49.1411C60.205 49.1997 59.9216 50.1277 60.0511 51.2129C60.1164 51.7595 60.2744 52.2424 60.4769 52.5789" fill="#59473D"/>
<path d="M58.25 28.2816L57.2433 28.5071L57.4544 30.3366L54.771 28.9833L53.6662 29.3097L53.6835 29.3291L56.9434 33.0106L56.9747 32.991L57.0167 32.965C57.1181 32.9008 57.2198 32.837 57.3223 32.774C57.358 32.7519 57.3936 32.7289 57.4294 32.7071C57.5773 32.6173 57.7252 32.529 57.8739 32.4413L56.4891 30.8696L58.7297 31.9552L58.7383 31.9504C58.8057 31.9138 58.8727 31.877 58.9401 31.8407L58.7335 30.2556L59.7502 31.4207L59.7626 31.4148C59.8487 31.3719 59.9329 31.3312 60.0176 31.2896L60.0438 31.2771L60.0849 31.2566C60.0995 31.2498 60.1143 31.2424 60.1286 31.2353C60.1646 31.218 60.2016 31.1995 60.2371 31.1822C60.2443 31.1786 60.2512 31.1757 60.2586 31.1721C60.3774 31.1156 60.4965 31.0597 60.616 31.0044L58.25 28.2816" fill="#FACE56"/>
<path d="M57.2498 28.5649L57.2433 28.5071L57.2498 28.5652V28.5651" fill="#4D94C3"/>
<path d="M57.2432 28.5071L57.3919 28.4739C57.1454 28.3606 56.8527 28.2797 56.5137 28.2378C55.8348 28.1532 54.9729 28.231 53.991 28.4825C53.0089 28.7323 51.9079 29.1523 50.7402 29.7286C48.4046 30.8799 45.8045 32.6548 43.3025 34.9164C42.4551 35.6812 41.6424 36.483 40.8669 37.3193L43.9062 41.0075C44.7567 40.0787 45.6513 39.1904 46.587 38.3457C47.8772 37.1803 49.1926 36.1405 50.4933 35.2368C51.7537 34.3619 52.9984 33.6193 54.1969 33.0184L53.6691 30.6634L53.6832 29.3289L53.666 29.3095L54.7708 28.9831L56.9282 30.0771L56.867 29.3323L57.2432 28.5069" fill="#4D94C3"/>
<path d="M57.2432 28.5071L56.867 29.3323L56.9282 30.077L57.4543 30.3366L57.2432 28.5071V28.5071ZM56.4889 30.8695L58.7295 31.955L57.8736 32.4411L56.4889 30.8695ZM58.7333 30.2554L58.9398 31.8405L59.75 31.4205L58.7333 30.2554" fill="#141C26"/>
<path d="M67.2105 29.6693C67.3459 29.6639 67.4814 29.6625 67.6169 29.6652C67.994 29.6728 68.348 29.717 68.6837 29.8C68.7018 29.8047 68.7205 29.8073 68.7382 29.812L68.7424 29.8132L68.7555 29.8159L68.7885 29.8254L68.8189 29.8345C68.7795 29.8085 68.7391 29.784 68.6982 29.7601C68.3214 29.6172 67.9228 29.5239 67.5129 29.4716C65.4791 29.2123 63.1637 29.9459 61.8396 30.4668C61.767 30.4969 61.6939 30.527 61.6198 30.558C61.3114 30.6884 61.0052 30.8238 60.7013 30.9641C60.6727 30.9772 60.6441 30.9908 60.6157 31.0042C60.4974 31.0592 60.379 31.1142 60.2584 31.1719C60.251 31.1753 60.2441 31.1784 60.2368 31.182C60.2013 31.1992 60.1644 31.2178 60.1284 31.235C60.114 31.2423 60.0995 31.2494 60.0849 31.2564L60.0438 31.2769L60.0173 31.2894C59.9327 31.3309 59.8484 31.3716 59.7623 31.4146L59.75 31.4205C59.7474 31.4221 59.7447 31.4232 59.7423 31.4245C59.7209 31.4346 59.7009 31.4446 59.6798 31.4548L59.669 31.46L59.6225 31.4843C59.3986 31.598 59.176 31.7142 58.9546 31.8327L58.9398 31.8405C58.8725 31.8768 58.8056 31.9137 58.7381 31.9502L58.7295 31.9549C58.5101 32.0752 58.2921 32.1979 58.0756 32.3232C58.0529 32.3362 58.0302 32.3487 58.0074 32.3621L57.9496 32.3958C57.9315 32.406 57.9139 32.4169 57.8965 32.4275L57.8737 32.441C57.7251 32.5288 57.5771 32.617 57.4292 32.7069C57.3934 32.7287 57.3577 32.7517 57.3219 32.7736C57.2196 32.8368 57.1179 32.9006 57.0163 32.9648L56.9744 32.9908L56.9432 33.0103C56.1908 33.4897 55.4552 33.9944 54.7376 34.5235C54.6794 34.5665 54.6216 34.6101 54.5633 34.6538C53.3868 35.5313 52.2509 36.4727 51.1622 37.4506C50.0129 38.4834 48.9178 39.5567 47.8833 40.6349C47.3964 41.1177 46.9182 41.6091 46.449 42.1089C45.661 42.9497 45.2311 43.4696 45.2489 43.4813C45.2559 43.4889 45.3253 43.4251 45.4483 43.3032C45.3465 43.4204 45.2446 43.5373 45.1447 43.6537C46.8625 41.839 48.7678 39.9807 50.8135 38.2298C52.0563 37.1672 53.3494 36.1443 54.6853 35.1952V35.1956C55.4542 34.6482 56.2408 34.1258 57.0439 33.6291C57.1405 33.5695 57.2381 33.5119 57.3351 33.453C57.3898 33.4198 57.4447 33.3862 57.5 33.3532C57.6037 33.2913 57.7079 33.2303 57.8117 33.1691C57.9137 33.1096 58.0155 33.0502 58.1176 32.9915C58.1714 32.961 58.2248 32.9302 58.2783 32.9001C58.4081 32.8267 58.5384 32.7543 58.6692 32.6828C58.7468 32.6401 58.8253 32.597 58.9033 32.555L58.904 32.5547C59.1499 32.4223 59.3974 32.293 59.6467 32.1669C59.667 32.1563 59.6879 32.1461 59.7089 32.1356L59.8254 32.077C59.877 32.051 59.9279 32.0246 59.9799 31.999C59.9996 31.9896 60.0185 31.9795 60.038 31.9697L60.0462 31.966C60.0814 31.9487 60.1159 31.9323 60.1507 31.9155L60.1726 31.9053L60.1848 31.8988L60.5083 31.7435C60.5277 31.7347 60.5474 31.7244 60.5674 31.7153C60.6019 31.6985 60.6361 31.6834 60.6709 31.6669C60.7944 31.6091 60.9181 31.5517 61.0421 31.4949C61.0758 31.4797 61.1101 31.4631 61.1435 31.4481L61.196 31.4249L61.3005 31.3783C61.4445 31.3138 61.5876 31.2502 61.7277 31.1898C61.8562 31.1344 61.9808 31.0838 62.106 31.0315C62.8136 30.7369 63.4787 30.4889 64.0968 30.292C65.2849 29.9144 66.3107 29.7075 67.2105 29.6693" fill="white"/>
</svg>
