<svg width="120" height="120" viewBox="0 0 120 120" fill="none" xmlns="http://www.w3.org/2000/svg">
<path d="M43.2284 79.7745C42.9764 79.2892 42.6264 78.9252 42.1784 78.6825C41.7304 78.4305 41.2124 78.3045 40.6244 78.3045C39.9804 78.3045 39.4064 78.4492 38.9024 78.7385C38.3984 79.0279 38.0017 79.4385 37.7124 79.9705C37.4324 80.5025 37.2924 81.1185 37.2924 81.8185C37.2924 82.5185 37.4324 83.1392 37.7124 83.6805C38.0017 84.2125 38.3984 84.6232 38.9024 84.9125C39.4064 85.2019 39.9804 85.3465 40.6244 85.3465C41.4924 85.3465 42.197 85.1039 42.7384 84.6185C43.2797 84.1332 43.611 83.4752 43.7324 82.6445H40.0784V81.3705H45.4404V82.6165C45.3377 83.3725 45.067 84.0679 44.6284 84.7025C44.199 85.3372 43.6344 85.8459 42.9344 86.2285C42.2437 86.6019 41.4737 86.7885 40.6244 86.7885C39.7097 86.7885 38.8744 86.5785 38.1184 86.1585C37.3624 85.7292 36.7604 85.1365 36.3124 84.3805C35.8737 83.6245 35.6544 82.7705 35.6544 81.8185C35.6544 80.8665 35.8737 80.0125 36.3124 79.2565C36.7604 78.5005 37.3624 77.9125 38.1184 77.4925C38.8837 77.0632 39.719 76.8485 40.6244 76.8485C41.6604 76.8485 42.5797 77.1052 43.3824 77.6185C44.1944 78.1225 44.7824 78.8412 45.1464 79.7745H43.2284ZM47.8265 77.9685C47.5371 77.9685 47.2945 77.8705 47.0985 77.6745C46.9025 77.4785 46.8045 77.2359 46.8045 76.9465C46.8045 76.6572 46.9025 76.4145 47.0985 76.2185C47.2945 76.0225 47.5371 75.9245 47.8265 75.9245C48.1065 75.9245 48.3445 76.0225 48.5405 76.2185C48.7365 76.4145 48.8345 76.6572 48.8345 76.9465C48.8345 77.2359 48.7365 77.4785 48.5405 77.6745C48.3445 77.8705 48.1065 77.9685 47.8265 77.9685ZM48.6105 78.9905V86.7045H47.0145V78.9905H48.6105ZM52.5679 80.2925V84.5625C52.5679 84.8519 52.6332 85.0619 52.7639 85.1925C52.9039 85.3139 53.1372 85.3745 53.4639 85.3745H54.4439V86.7045H53.1839C52.4652 86.7045 51.9146 86.5365 51.5319 86.2005C51.1492 85.8645 50.9579 85.3185 50.9579 84.5625V80.2925H50.0479V78.9905H50.9579V77.0725H52.5679V78.9905H54.4439V80.2925H52.5679ZM63.6849 76.9745V86.7045H62.0889V82.4485H57.5109V86.7045H55.9149V76.9745H57.5109V81.1465H62.0889V76.9745H63.6849ZM72.772 78.9905V86.7045H71.176V85.7945C70.924 86.1119 70.5926 86.3639 70.182 86.5505C69.7806 86.7279 69.3513 86.8165 68.894 86.8165C68.2873 86.8165 67.7413 86.6905 67.256 86.4385C66.78 86.1865 66.402 85.8132 66.122 85.3185C65.8513 84.8239 65.716 84.2265 65.716 83.5265V78.9905H67.298V83.2885C67.298 83.9792 67.4706 84.5112 67.816 84.8845C68.1613 85.2485 68.6326 85.4305 69.23 85.4305C69.8273 85.4305 70.2986 85.2485 70.644 84.8845C70.9986 84.5112 71.176 83.9792 71.176 83.2885V78.9905H72.772ZM76.4738 80.1385C76.7444 79.7652 77.1131 79.4619 77.5798 79.2285C78.0558 78.9859 78.5831 78.8645 79.1618 78.8645C79.8431 78.8645 80.4591 79.0279 81.0098 79.3545C81.5604 79.6812 81.9944 80.1479 82.3118 80.7545C82.6291 81.3519 82.7878 82.0379 82.7878 82.8125C82.7878 83.5872 82.6291 84.2825 82.3118 84.8985C81.9944 85.5052 81.5558 85.9812 80.9958 86.3265C80.4451 86.6625 79.8338 86.8305 79.1618 86.8305C78.5644 86.8305 78.0324 86.7139 77.5658 86.4805C77.1084 86.2472 76.7444 85.9485 76.4738 85.5845V86.7045H74.8778V76.3445H76.4738V80.1385ZM81.1638 82.8125C81.1638 82.2805 81.0518 81.8232 80.8278 81.4405C80.6131 81.0485 80.3238 80.7545 79.9598 80.5585C79.6051 80.3532 79.2224 80.2505 78.8118 80.2505C78.4104 80.2505 78.0278 80.3532 77.6638 80.5585C77.3091 80.7639 77.0198 81.0625 76.7958 81.4545C76.5811 81.8465 76.4738 82.3085 76.4738 82.8405C76.4738 83.3725 76.5811 83.8392 76.7958 84.2405C77.0198 84.6325 77.3091 84.9312 77.6638 85.1365C78.0278 85.3419 78.4104 85.4445 78.8118 85.4445C79.2224 85.4445 79.6051 85.3419 79.9598 85.1365C80.3238 84.9219 80.6131 84.6139 80.8278 84.2125C81.0518 83.8112 81.1638 83.3445 81.1638 82.8125Z" fill="black"/>
<path d="M74.9148 68.0876C74.9148 70.9465 68.357 73.25 60.2718 73.25C52.1866 73.25 45.6288 70.9259 45.6288 68.0876C45.6288 65.2287 52.1866 62.9251 60.2718 62.9251C68.357 62.9251 74.9148 65.2287 74.9148 68.0876Z" fill="#9EDCF2"/>
<path d="M74.9148 68.0876C74.9148 70.9465 68.357 73.25 60.2718 73.25C52.1866 73.25 45.6288 70.9259 45.6288 68.0876C45.6288 65.2287 52.1866 62.9251 60.2718 62.9251C68.357 62.9251 74.9148 65.2287 74.9148 68.0876Z" fill="#7DBCE7"/>
<path d="M43.5516 52.8881L43.1239 54.369C43.1239 54.369 43.0221 54.9037 43.5109 55.0066C44.0404 54.986 43.9996 54.4924 43.9589 54.3484L43.5516 52.8881Z" fill="#9EDCF2"/>
<path d="M86.0956 46.656L86.1364 46.4709C81.8392 45.6071 77.4402 45.5865 74.7723 45.7099C75.1999 44.1262 75.3425 42.2752 75.3425 40.239C75.3425 37.2978 74.2428 34.9531 72.4913 33.1843C72.7968 32.1765 73.2041 29.9346 72.084 27.0758C72.084 27.0758 70.0881 26.4382 65.5466 29.5027C63.7748 29.0502 61.8807 28.824 59.9867 28.824C57.9094 28.824 55.8117 29.0914 53.8363 29.6261C49.1521 26.397 47.0952 27.0552 47.0952 27.0552C45.751 30.4488 46.586 32.9786 46.8304 33.5957C45.2419 35.3233 44.2847 37.5241 44.2847 40.2184C44.2847 42.2546 44.5087 44.0851 45.079 45.6688C42.3907 45.566 38.1546 45.6071 34 46.4504L34.0407 46.6355C38.1953 45.7922 42.4722 45.7716 45.1401 45.8745C45.2623 46.2036 45.4048 46.5326 45.5474 46.8411C42.8998 46.9234 38.399 47.2731 34.0815 48.5071L34.1426 48.6922C38.5008 47.4582 43.0424 47.1291 45.6696 47.0468C47.2581 50.0085 50.3537 51.9419 55.8932 52.5383C55.0989 53.0731 54.3047 53.9781 53.9788 55.5206C52.8994 56.0348 49.5187 57.31 47.4821 53.7724C47.4821 53.7724 46.3417 51.6745 44.1625 51.51C44.1625 51.51 42.0445 51.4688 44.02 52.8469C44.02 52.8469 45.4252 53.5256 46.4028 56.0554C46.4028 56.0554 47.6858 60.3746 53.8159 58.976V63.398C53.8159 63.398 53.6937 64.9817 52.2477 65.4959C52.2477 65.4959 51.3924 66.0923 52.3088 66.4214C52.3088 66.4214 56.2801 66.7505 56.2801 63.4597V58.6058C56.2801 58.6058 56.1172 56.6724 57.054 56.0143V63.9945C57.054 63.9945 56.993 65.9072 56.0154 66.6271C56.0154 66.6271 55.3637 67.7994 56.7893 67.4909C56.7893 67.4909 59.5183 67.1001 59.6405 63.8711L59.7016 55.788H60.3533L60.4144 63.8711C60.5366 67.0796 63.2656 67.4909 63.2656 67.4909C64.6912 67.82 64.0395 66.6271 64.0395 66.6271C63.0619 65.9072 63.0009 63.9945 63.0009 63.9945V56.076C63.9377 56.8164 63.7748 58.6058 63.7748 58.6058V63.4597C63.7748 66.7505 67.7461 66.4214 67.7461 66.4214C68.6625 66.0923 67.8072 65.4959 67.8072 65.4959C66.3816 64.9611 66.239 63.398 66.239 63.398V57.0221C66.239 54.5334 65.2004 53.2171 64.1821 52.5383C70.0881 51.9419 72.919 50.0291 74.2224 47.0263C76.8088 47.088 81.4726 47.417 85.9123 48.6922L85.9734 48.5071C81.5541 47.2525 76.931 46.9234 74.3039 46.8411C74.426 46.5326 74.5279 46.2241 74.6297 45.895C77.3587 45.7922 81.7781 45.7922 86.0956 46.656V46.656Z" fill="#010101"/>
<path d="M69.5586 40.0952C70.8213 41.2675 71.5748 42.6661 71.5748 44.1675C71.5748 51.2428 66.3612 51.4279 59.9256 51.4279C53.49 51.4279 48.2764 50.4406 48.2764 44.1675C48.2764 42.6661 49.0095 41.2675 50.2722 40.1157C52.3699 38.1824 55.9135 39.2108 59.9256 39.2108C63.9376 39.2108 67.4609 38.1618 69.5586 40.0952V40.0952Z" fill="#F5CCB3"/>
<path d="M56.0561 44.5378C56.0561 46.4917 54.9767 48.0548 53.6326 48.0548C52.2884 48.0548 51.209 46.4711 51.209 44.5378C51.209 42.5838 52.2884 41.0207 53.6326 41.0207C54.9767 41.0001 56.0561 42.5838 56.0561 44.5378V44.5378Z" fill="white"/>
<path d="M55.2821 44.5789C55.2821 45.8746 54.549 46.9236 53.6732 46.9236C52.7771 46.9236 52.0643 45.8746 52.0643 44.5789C52.0643 43.2831 52.7975 42.2342 53.6732 42.2342C54.549 42.2342 55.2821 43.2831 55.2821 44.5789Z" fill="#AF5C51"/>
<path d="M69.0699 44.5378C69.0699 46.4917 67.9905 48.0548 66.6464 48.0548C65.3022 48.0548 64.2228 46.4711 64.2228 44.5378C64.2228 42.5838 65.3022 41.0207 66.6464 41.0207C67.9701 41.0001 69.0699 42.5838 69.0699 44.5378V44.5378Z" fill="white"/>
<path d="M68.2756 44.5789C68.2756 45.8746 67.5424 46.9236 66.6667 46.9236C65.7706 46.9236 65.0578 45.8746 65.0578 44.5789C65.0578 43.2831 65.7909 42.2342 66.6667 42.2342C67.5628 42.2342 68.2756 43.2831 68.2756 44.5789ZM60.5773 47.664C60.5773 47.9931 60.3126 48.281 59.9663 48.281C59.6405 48.281 59.3554 48.0137 59.3554 47.664C59.3554 47.3144 59.6201 47.047 59.9663 47.047C60.2922 47.047 60.5773 47.3144 60.5773 47.664ZM58.5611 49.2066C58.5204 49.1037 58.5815 49.0009 58.6833 48.9598C58.7851 48.9186 58.887 48.9803 58.9277 49.0832C59.0906 49.5357 59.4979 49.8236 59.9663 49.8236C60.4347 49.8236 60.8421 49.5151 61.005 49.0832C61.0457 48.9803 61.1476 48.9186 61.2494 48.9598C61.3512 49.0009 61.4123 49.1037 61.3716 49.2066C61.1679 49.803 60.5977 50.2144 59.9663 50.2144C59.335 50.2144 58.7648 49.803 58.5611 49.2066V49.2066Z" fill="#AF5C51"/>
<path d="M45.0994 52.0037C45.0994 52.1682 44.9162 52.2917 44.6718 52.2917C44.4477 52.2917 44.2441 52.1682 44.2441 52.0037C44.2441 51.8392 44.4274 51.7158 44.6718 51.7158C44.9162 51.7158 45.0994 51.8392 45.0994 52.0037ZM46.2807 52.6619C46.2807 52.8264 46.0974 52.9498 45.853 52.9498C45.629 52.9498 45.4253 52.8264 45.4253 52.6619C45.4253 52.4973 45.6086 52.3739 45.853 52.3739C46.0974 52.3739 46.2807 52.4973 46.2807 52.6619ZM46.9935 53.5257C46.9935 53.6902 46.8102 53.8136 46.5658 53.8136C46.3418 53.8136 46.1381 53.6902 46.1381 53.5257C46.1381 53.3612 46.3214 53.2378 46.5658 53.2378C46.8102 53.2172 46.9935 53.3612 46.9935 53.5257ZM47.6452 54.5129C47.6452 54.6775 47.4619 54.8009 47.2175 54.8009C46.9935 54.8009 46.7898 54.6775 46.7898 54.5129C46.7898 54.3484 46.9731 54.225 47.2175 54.225C47.4619 54.2044 47.6452 54.3484 47.6452 54.5129ZM48.358 55.4179C48.358 55.5825 48.1747 55.7059 47.9303 55.7059C47.7063 55.7059 47.5026 55.5825 47.5026 55.4179C47.5026 55.2534 47.6859 55.13 47.9303 55.13C48.1747 55.13 48.358 55.2534 48.358 55.4179ZM49.3355 56.22C49.3355 56.3846 49.1522 56.508 48.9078 56.508C48.6838 56.508 48.4802 56.3846 48.4802 56.22C48.4802 56.0555 48.6635 55.9321 48.9078 55.9321C49.1522 55.9115 49.3355 56.0555 49.3355 56.22ZM50.7 56.7342C50.7 56.8988 50.5167 57.0222 50.2723 57.0222C50.0483 57.0222 49.8447 56.8988 49.8447 56.7342C49.8447 56.5697 50.028 56.4463 50.2723 56.4463C50.5167 56.4463 50.7 56.5697 50.7 56.7342ZM52.0645 56.7342C52.0645 56.8988 51.8812 57.0222 51.6369 57.0222C51.4128 57.0222 51.2092 56.8988 51.2092 56.7342C51.2092 56.5697 51.3925 56.4463 51.6369 56.4463C51.8812 56.4463 52.0645 56.5697 52.0645 56.7342ZM53.4494 56.508C53.4494 56.6725 53.2661 56.7959 53.0217 56.7959C52.7977 56.7959 52.594 56.6725 52.594 56.508C52.594 56.3435 52.7773 56.22 53.0217 56.22C53.2457 56.22 53.4494 56.3435 53.4494 56.508Z" fill="#C4E5D9"/>
</svg>
