<svg width="48" height="59" viewBox="0 0 48 59" fill="none" xmlns="http://www.w3.org/2000/svg">
<rect width="48" height="59" fill="#E5E5E5"/>
<path d="M7.67765 3.90626C7.67808 3.38833 7.88078 2.8922 8.24073 2.52601C8.60069 2.15981 9.08836 1.95358 9.59742 1.95315H38.3943C38.9034 1.95359 39.3911 2.1598 39.751 2.52601C40.111 2.89221 40.3137 3.38835 40.3141 3.90626V12.6953H42.2339V3.90626C42.2326 2.87041 41.8277 1.87768 41.1081 1.14531C40.3882 0.413326 39.4125 0.00133929 38.3943 0H9.5974C8.57923 0.00130793 7.60345 0.413293 6.88358 1.14531C6.16408 1.87774 5.75913 2.87043 5.75781 3.90626V6.83595H7.67761L7.67765 3.90626Z" fill="#293D7C"/>
<path d="M40.3141 54.6875C40.3136 55.2055 40.1109 55.7016 39.751 56.0678C39.391 56.434 38.9034 56.6402 38.3943 56.6406H9.59738C9.08829 56.6402 8.60063 56.434 8.24069 56.0678C7.88074 55.7016 7.67803 55.2054 7.67761 54.6875V24.4141H5.75781V54.6875C5.7591 55.7234 6.16405 56.7161 6.88358 57.4485C7.6035 58.1805 8.57925 58.5925 9.5974 58.5938H38.3943C39.4125 58.5925 40.3883 58.1805 41.1081 57.4485C41.8276 56.7161 42.2326 55.7234 42.2339 54.6875V30.2734H40.3141L40.3141 54.6875Z" fill="#293D7C"/>
<path d="M21.1094 3.90625H23.0292V5.85938H21.1094V3.90625Z" fill="#00947E"/>
<path d="M24.9531 3.90625H26.8729V5.85938H24.9531V3.90625Z" fill="#00947E"/>
<path d="M23.0391 52.7345H24.9589V54.6876H23.0391V52.7345Z" fill="#00947E"/>
<path d="M11.7997 24.1285C11.9797 24.3116 12.224 24.4145 12.4785 24.4145C12.733 24.4145 12.9773 24.3116 13.1573 24.1285L14.796 22.4613H17.278V20.5082H14.3983C14.1438 20.5082 13.8995 20.6111 13.7196 20.7942L12.4786 22.0567L11.2377 20.7942C11.0577 20.6111 10.8134 20.5082 10.5589 20.5082H1.91979V10.7426H26.8771V12.6957H28.7969V9.76599C28.7969 9.50703 28.6958 9.25853 28.5158 9.07542C28.3358 8.89232 28.0916 8.78943 27.837 8.78943H0.959897C0.429815 8.78943 0 9.22671 0 9.76599V21.4848C0 21.7437 0.101133 21.9922 0.281113 22.1753C0.461093 22.3584 0.705354 22.4613 0.959897 22.4613H10.1612L11.7997 24.1285Z" fill="#E74C3C"/>
<path d="M47.0401 14.6486H20.163C19.6329 14.6486 19.2031 15.0858 19.2031 15.6251V27.3439C19.2031 27.6029 19.3043 27.8514 19.4842 28.0345C19.6642 28.2176 19.9085 28.3205 20.163 28.3205H32.2435L33.8822 29.9876C34.0622 30.1707 34.3064 30.2736 34.561 30.2736C34.8155 30.2736 35.0598 30.1707 35.2398 29.9876L36.8785 28.3205H47.0397C47.2942 28.3205 47.5385 28.2176 47.7185 28.0345C47.8985 27.8514 47.9996 27.6029 47.9996 27.3439V15.6251C47.9996 15.3662 47.8985 15.1177 47.7185 14.9346C47.5385 14.7515 47.2942 14.6486 47.0397 14.6486H47.0401ZM46.0802 26.3673H36.4813C36.2267 26.3673 35.9825 26.4702 35.8025 26.6533L34.5615 27.9158L33.3206 26.6533C33.1406 26.4702 32.8963 26.3673 32.6418 26.3673H21.123V16.6017H46.0804L46.0802 26.3673Z" fill="#E74C3C"/>
<path d="M24.9531 18.5548H26.8729V20.5079H24.9531V18.5548Z" fill="#00947E"/>
<path d="M28.7891 18.5548H44.1474V20.5079H28.7891V18.5548Z" fill="#00947E"/>
<path d="M23.0391 22.4609H44.1568V24.4141H23.0391V22.4609Z" fill="#00947E"/>
<path d="M5.75781 12.6953H7.67761V14.6484H5.75781V12.6953Z" fill="#00947E"/>
<path d="M9.59375 12.6953H17.2729V14.6484H9.59375V12.6953Z" fill="#00947E"/>
<path d="M3.83594 16.6017H17.2745V18.5548H3.83594V16.6017Z" fill="#00947E"/>
<path d="M30.7155 46.8751V45.8985H31.6754C32.4391 45.8977 33.171 45.5886 33.7105 45.0392C34.2505 44.4904 34.5543 43.7457 34.5551 42.9688V41.0157C34.5543 40.2388 34.2505 39.4941 33.7105 38.9453C33.171 38.3959 32.4391 38.0868 31.6754 38.086H30.6457C30.3354 35.8983 29.0044 33.9988 27.0731 32.9865C25.1421 31.9742 22.8491 31.9742 20.9178 32.9865C18.9868 33.9988 17.6559 35.8984 17.3452 38.086H16.3172C15.5536 38.0869 14.8216 38.3959 14.2821 38.9453C13.7422 39.4941 13.4384 40.2388 13.4375 41.0157V42.9688C13.4384 43.7457 13.7422 44.4904 14.2821 45.0392C14.8216 45.5886 15.5536 45.8977 16.3172 45.8985H18.237C18.4915 45.8985 18.7358 45.7956 18.9158 45.6125C19.0958 45.4294 19.1969 45.1809 19.1969 44.922V39.0626C19.1969 37.3183 20.1118 35.7061 21.5966 34.8341C23.0815 33.9618 24.9113 33.9618 26.3961 34.8341C27.881 35.7061 28.7959 37.3183 28.7959 39.0626V46.8751C28.7954 47.4144 28.3661 47.8512 27.836 47.8517H23.9964V49.8048H27.836C28.5996 49.8039 29.3316 49.4948 29.8711 48.9455C30.411 48.3966 30.7148 47.652 30.7157 46.8751L30.7155 46.8751ZM17.277 43.9454H16.3171C15.787 43.945 15.3576 43.5081 15.3572 42.9688V41.0157C15.3576 40.4764 15.787 40.0396 16.3171 40.0391H17.277V43.9454ZM32.6353 41.0157V42.9688C32.6349 43.5081 32.2055 43.945 31.6754 43.9454H30.7155V40.0391H31.6754C32.2055 40.0396 32.6349 40.4764 32.6353 41.0157Z" fill="#FFCE31"/>
</svg>
