<svg width="62" height="59" viewBox="0 0 62 59" fill="none" xmlns="http://www.w3.org/2000/svg">
<rect width="62" height="59" fill="#E5E5E5"/>
<path d="M60.9669 0H1.03318C0.461875 0 0 0.439536 0 0.983186V46.2159C0 46.7595 0.461886 47.199 1.03318 47.199H23.766V57.0322H20.666V58.999H37.1989V57.0322L25.833 57.0326V47.1995H36.1662V45.2327H2.06636V37.3659H36.1662V35.3991H35.133L6.19908 35.3995V5.89973H55.7988V21.6326H57.8656V4.91675C57.8656 4.37309 57.4037 3.93357 56.8324 3.93357L5.16568 3.93316C4.59394 3.93316 4.13207 4.37269 4.13207 4.91675V35.3995H2.06571V1.96677H59.9324V21.6337H61.9992L61.9988 0.983798C61.9988 0.440137 61.5369 0.000611594 60.9656 0.000611594L60.9669 0Z" fill="#293D7C"/>
<path d="M60.9657 25.5669H40.2988C39.7275 25.5669 39.2656 26.0064 39.2656 26.5501V58.0169C39.2656 58.5605 39.7275 59.0001 40.2988 59.0001H60.9657C61.537 59.0001 61.9989 58.5605 61.9989 58.0169V26.5501C61.9989 26.0064 61.537 25.5669 60.9657 25.5669V25.5669ZM59.9321 27.5333V31.4664L41.3322 31.4668V27.5337L59.9321 27.5333ZM59.9321 33.4332V52.1161L41.3322 52.1165V33.4326L59.9321 33.4332ZM41.3322 57.0331V54.0831H59.9321V57.0331H41.3322Z" fill="#293D7C"/>
<path d="M48.5703 28.5171H52.7035V30.4839H48.5703V28.5171Z" fill="#FFCE31"/>
<path d="M44.4316 43.2666H56.8316C57.4029 43.2666 57.8647 42.8271 57.8647 42.2835V36.3835C57.8647 35.8398 57.4028 35.4003 56.8316 35.4003L44.4316 35.3999C43.8603 35.3999 43.3984 35.8394 43.3984 36.3831V42.283C43.3984 42.8271 43.8603 43.2666 44.4316 43.2666V43.2666ZM45.4652 37.3667H55.7984V41.2999H45.4652V37.3667Z" fill="#E74C3C"/>
<path d="M43.3984 45.2327H57.8654V47.1995H43.3984V45.2327Z" fill="#00947E"/>
<path d="M43.3984 48.1826H57.8654V50.1494H43.3984V48.1826Z" fill="#00947E"/>
<path d="M53.7396 18.6828V8.84964C53.7396 8.30598 53.2777 7.86646 52.7064 7.86646H9.30662C8.73531 7.86646 8.27344 8.30599 8.27344 8.84964V18.6828C8.27344 19.2264 8.73532 19.666 9.30662 19.666H52.7064C53.2777 19.6664 53.7396 19.2268 53.7396 18.6828ZM51.6732 17.6996H10.3394V9.83283H51.6721L51.6732 17.6996Z" fill="#E74C3C"/>
<path d="M9.30662 21.6329C8.73531 21.6329 8.27344 22.0725 8.27344 22.6161V32.4492C8.27344 32.9929 8.73532 33.4324 9.30662 33.4324H21.7065C22.2779 33.4324 22.7397 32.9929 22.7397 32.4492V22.6165C22.7397 22.0729 22.2778 21.6334 21.7065 21.6334L9.30662 21.6329ZM20.6736 31.4665H10.34V23.5997H20.6731L20.6736 31.4665Z" fill="#FFCE31"/>
<path d="M24.8047 22.6167H33.0715V24.5835H24.8047V22.6167Z" fill="#00947E"/>
<path d="M24.8047 26.5498H35.1378V28.5166H24.8047V26.5498Z" fill="#00947E"/>
<path d="M24.8047 30.4828H35.1378V32.4496H24.8047V30.4828Z" fill="#00947E"/>
</svg>
