<svg width="60" height="60" viewBox="0 0 60 60" fill="none" xmlns="http://www.w3.org/2000/svg">
<path d="M28.5954 4.87939H30.8796V6.93525H28.5954V4.87939Z" fill="#293D7C"/>
<path d="M24.8646 52.2389H34.6092V54.2948H24.8646V52.2389Z" fill="#FFCE31"/>
<path d="M41.5403 59.1635H18.4629C15.6486 59.1635 13.3589 56.8758 13.3589 54.0637V5.10482C13.3589 2.29018 15.6486 0 18.4629 0H41.5403C44.3533 0 46.6417 2.29018 46.6417 5.10482V54.0637C46.6417 56.8758 44.3537 59.1635 41.5403 59.1635ZM18.4629 2.05639C16.782 2.05639 15.4147 3.42375 15.4147 5.10536V54.0643C15.4147 55.7426 16.7825 57.1082 18.4629 57.1082H41.5403C43.2199 57.1082 44.5856 55.743 44.5856 54.0643V5.10536C44.5856 3.42375 43.2195 2.05639 41.5403 2.05639H18.4629Z" fill="#293D7C"/>
<path d="M14.3861 9.75644H45.6129V11.8123H14.3861V9.75644Z" fill="#293D7C"/>
<path d="M14.3861 47.3618H45.6129V49.4176H14.3861V47.3618Z" fill="#293D7C"/>
<path d="M24.4639 20.8621H18.2258V14.6239H24.4635L24.4639 20.8621ZM20.2816 18.8062H22.4082V16.6797H20.2816V18.8062Z" fill="#00947E"/>
<path d="M33.1189 20.8621H26.8803V14.6239H33.1189V20.8621ZM28.9366 18.8062H31.0632V16.6797H28.9366V18.8062Z" fill="#E74C3C"/>
<path d="M41.775 20.8621H35.5361V14.6239H41.775V20.8621ZM37.5918 18.8062H39.7191V16.6797H37.5918V18.8062Z" fill="#E74C3C"/>
<path d="M24.4639 28.7585H18.2258V22.5204H24.4635L24.4639 28.7585ZM20.2816 26.7027H22.4082V24.5761H20.2816V26.7027Z" fill="#E74C3C"/>
<path d="M33.1189 28.7585H26.8803V22.5204H33.1193V28.7585H33.1189ZM28.9362 26.7027H31.0632V24.5761H28.9362V26.7027Z" fill="#00947E"/>
<path d="M24.4639 44.5514H18.2258V38.3132H24.4635L24.4639 44.5514ZM20.2816 42.4956H22.4082V40.369H20.2816V42.4956Z" fill="#293D7C"/>
<path d="M33.1189 44.5514H26.8803V38.3132H33.1189V44.5514ZM28.9366 42.4956H31.0632V40.369H28.9366V42.4956Z" fill="#293D7C"/>
<path d="M41.775 44.5514H35.5361V38.3132H41.775V44.5514ZM37.5918 42.4956H39.7191V40.369H37.5918V42.4956Z" fill="#293D7C"/>
<path d="M10.3682 16.6792H8.29018V14.6234H10.3682V16.6792ZM6.21225 16.6792H4.13464V14.6234H6.21225L6.21183 16.6792H6.21225Z" fill="#293D7C"/>
<path d="M0 14.6243H2.05586V16.6801H0V14.6243Z" fill="#293D7C"/>
<path d="M2.05586 40.5089H0V38.5234H2.05586V40.5089ZM2.05586 36.5376H0V34.5521H2.05586V36.5376ZM2.05586 32.5658H0V30.5807H2.05586V32.5658ZM2.05586 28.5944H0V26.6089H2.05586V28.5944ZM2.05586 24.6235H0V22.6376H2.05586V24.6235ZM2.05586 20.6517H0V18.6658H2.05586V20.6517Z" fill="#293D7C"/>
<path d="M0 42.4953H2.05586V44.5512H0V42.4953Z" fill="#293D7C"/>
<path d="M10.3671 44.5514H8.28911V42.4955H10.3671V44.5514ZM6.21161 44.5514H4.13443V42.4955H6.21161V44.5514Z" fill="#293D7C"/>
<path d="M49.0393 14.6243H60V16.6801H49.0393V14.6243Z" fill="#293D7C"/>
<path d="M49.0393 18.6057H60V20.6615H49.0393V18.6057Z" fill="#FFCE31"/>
<path d="M49.0393 22.5871H60V24.643H49.0393V22.5871Z" fill="#293D7C"/>
<path d="M49.0393 26.5685H60V28.6244H49.0393V26.5685Z" fill="#293D7C"/>
<path d="M49.0393 30.55H60V32.6058H49.0393V30.55Z" fill="#FFCE31"/>
<path d="M49.0393 34.5314H60V36.5872H49.0393V34.5314Z" fill="#293D7C"/>
<path d="M49.0393 38.5139H60V40.5697H49.0393V38.5139Z" fill="#FFCE31"/>
<path d="M49.0393 42.4953H60V44.5512H49.0393V42.4953Z" fill="#293D7C"/>
</svg>
