<?xml version="1.0"?>
<svg xmlns="http://www.w3.org/2000/svg" width="111" height="111" viewBox="0 0 111 111" fill="none">
<circle cx="55.5" cy="55.5" r="55.5" fill="#FFE9F2"/>
<g filter="url(#filter0_f)">
<rect x="85.3999" y="29.8" width="2.8" height="2.8" fill="#FF3896"/>
</g>
<g filter="url(#filter1_f)">
<rect x="28" y="66.2" width="2.8" height="2.8" fill="#FF3896"/>
</g>
<g filter="url(#filter2_f)">
<rect x="33.6001" y="77.3999" width="2.8" height="2.8" fill="#FF3896"/>
</g>
<g filter="url(#filter3_f)">
<rect x="28" y="20" width="2.8" height="2.8" fill="#01FFB3"/>
</g>
<g filter="url(#filter4_f)">
<rect x="86.8" y="67.6001" width="2.8" height="2.8" fill="#01FFB3"/>
</g>
<g filter="url(#filter5_f)">
<rect x="78.3999" y="80.2" width="2.8" height="2.8" fill="#01FFB3"/>
</g>
<path d="M54.5998 66.1999C63.8782 66.1999 72.0998 58.9919 72.0998 50.1001C72.0998 41.2083 56.1782 35.3999 46.8998 35.3999C37.6214 35.3999 37.7998 41.2081 37.7998 50.0999C37.7998 58.9917 45.3214 66.1999 54.5998 66.1999Z" fill="#FF93C4"/>
<path d="M86.0323 55.5151V46.4443C87.2906 45.9956 88.2 44.8034 88.2 43.3922C88.2 41.5995 86.7411 40.1406 84.9484 40.1406C84.5755 40.1406 84.2222 40.2165 83.8884 40.3325L79.0315 34.2607C79.3415 33.7654 79.529 33.1834 79.529 32.5547C79.529 30.762 78.0701 29.3032 76.2774 29.3032C75.3659 29.3032 74.5443 29.6825 73.9525 30.2884L65.4084 26.3453C65.4181 26.2467 65.4387 26.1524 65.4387 26.0516C65.4387 24.2589 63.9798 22.8 62.1871 22.8C60.7759 22.8 59.5836 23.7094 59.1349 24.9678H46.8135C46.3647 23.7094 45.1725 22.8 43.7613 22.8C41.9686 22.8 40.5097 24.2589 40.5097 26.0516C40.5097 26.186 40.5335 26.315 40.5498 26.445L35.1738 29.133C34.5885 28.5705 33.7973 28.2193 32.9226 28.2193C31.1299 28.2193 29.671 29.6782 29.671 31.4709C29.671 32.0995 29.8585 32.6815 30.1674 33.179L25.3106 39.2497C24.9767 39.1337 24.6245 39.0579 24.2516 39.0579C22.4589 39.0579 21 40.5167 21 42.3094C21 43.7206 21.9094 44.9128 23.1677 45.3615V52.2646C21.9094 52.7122 21 53.9045 21 55.3157C21 57.1083 22.4589 58.5672 24.2516 58.5672C25.4558 58.5672 26.4963 57.9017 27.0588 56.9273L32.9757 58.0036C33.2261 59.5481 34.5592 60.7349 36.1742 60.7349C36.2186 60.7349 36.2587 60.7241 36.3021 60.7219L38.3701 65.8919C37.6938 66.4891 37.2581 67.3508 37.2581 68.3219C37.2581 70.1146 38.717 71.5735 40.5097 71.5735C41.6001 71.5735 42.5614 71.0294 43.1511 70.2035L52.4529 72.8611C52.5363 74.1812 53.4034 75.2824 54.6 75.7094V83.6964C53.3416 84.1451 52.4323 85.3373 52.4323 86.7485C52.4323 88.5412 53.8911 90 55.6839 90C57.4766 90 58.9355 88.5412 58.9355 86.7485C58.9355 85.3373 58.0261 84.1451 56.7677 83.6964V75.7094C58.0261 75.2607 58.9355 74.0685 58.9355 72.6573C58.9355 71.619 58.4369 70.702 57.676 70.107L58.9702 66.2246L68.6957 69.4664C68.7218 70.8505 69.617 72.0146 70.857 72.4568V83.6953C69.5986 84.144 68.6892 85.3362 68.6892 86.7474C68.6892 88.5401 70.1481 89.999 71.9408 89.999C73.7336 89.999 75.1925 88.5401 75.1925 86.7474C75.1925 85.3362 74.2831 84.144 73.0247 83.6953V72.4579C74.2831 72.0092 75.1925 70.8169 75.1925 69.4058C75.1925 69.0101 75.1112 68.6351 74.9811 68.284L83.2976 61.3538C83.7832 61.6421 84.3436 61.8188 84.9484 61.8188C86.7411 61.8188 88.2 60.3599 88.2 58.5672C88.2 57.156 87.2906 55.9638 86.0323 55.5151ZM39.4193 57.4227C39.4171 57.2926 39.3976 57.168 39.3803 57.0422L48.2713 52.4326L51.0211 61.2909L39.4193 57.4227ZM37.0001 54.351L35.4979 42.8318L42.9256 42.4601C43.3971 43.6024 44.5016 44.411 45.8001 44.463L47.6199 50.3278L38.3885 55.1141C38.0005 54.7531 37.5269 54.4908 37.0001 54.351ZM27.2561 41.0738C27.1878 40.908 27.1 40.7519 27.0057 40.6013L31.8626 34.5306C31.9883 34.5739 32.1118 34.6206 32.243 34.6487L33.044 40.7844L27.2561 41.0738ZM34.3912 34.3561C35.4447 33.8174 36.1742 32.7325 36.1742 31.4709C36.1742 31.3365 36.1503 31.2075 36.1341 31.0774L41.5101 28.3895C42.0954 28.952 42.8866 29.3032 43.7613 29.3032C44.4268 29.3032 45.0457 29.1005 45.5616 28.7558L52.2924 33.8033L47.4194 38.3512C46.9706 38.1192 46.4688 37.974 45.929 37.974C44.4615 37.974 43.2324 38.9571 42.8292 40.2956L35.2161 40.676L34.3912 34.3561ZM59.2097 27.349L53.902 32.3022L47.0118 27.1355H59.1349C59.1609 27.207 59.1794 27.2796 59.2097 27.349ZM62.2315 42.7516L53.5096 47.2745L48.8544 42.6194C49.0571 42.1945 49.1806 41.7263 49.1806 41.2256C49.1806 40.7638 49.0809 40.327 48.9075 39.9293L54.0537 35.1256L62.3486 41.3469C62.2532 41.6526 62.1871 41.9723 62.1871 42.3094C62.1871 42.4612 62.212 42.6053 62.2315 42.7516ZM47.0129 41.2256C47.0129 41.8228 46.5273 42.3094 45.929 42.3094C45.3307 42.3094 44.8452 41.8228 44.8452 41.2256C44.8452 40.6284 45.3307 40.1417 45.929 40.1417C46.5273 40.1417 47.0129 40.6284 47.0129 41.2256ZM51.4915 48.3205L49.5741 49.3144L48.2637 45.0927L51.4915 48.3205ZM50.2266 51.4181L53.0988 49.9289L58.1768 55.0068C57.9752 55.4305 57.8516 55.8988 57.8516 56.3995C57.8516 57.4389 58.3502 58.3548 59.1111 58.9498L57.6002 63.4825L53.553 62.1331L50.2266 51.4181ZM61.1032 57.4834C60.5049 57.4834 60.0194 56.9967 60.0194 56.3995C60.0194 55.8023 60.5049 55.3157 61.1032 55.3157C61.7015 55.3157 62.1871 55.8023 62.1871 56.3995C62.1871 56.9967 61.7015 57.4834 61.1032 57.4834ZM61.1032 53.1479C60.6025 53.1479 60.1342 53.2704 59.7105 53.4742L55.1181 48.8819L63.2254 44.6776C63.8064 45.2217 64.5814 45.561 65.4387 45.561C66.0435 45.561 66.6039 45.3843 67.0894 45.0949L72.0243 49.2071L63.2634 53.9858C62.6868 53.4709 61.9356 53.1479 61.1032 53.1479ZM74.7362 35.3998C75.1968 35.6513 75.7171 35.8063 76.2774 35.8063C76.6503 35.8063 77.0025 35.7304 77.3364 35.6144L82.1932 41.6862C81.8843 42.1837 81.6968 42.7646 81.6968 43.3933C81.6968 43.5678 81.7217 43.7368 81.7488 43.9038L74.0717 48.0918L68.479 43.4312C68.609 43.08 68.6903 42.705 68.6903 42.3094C68.6903 41.8683 68.6004 41.4488 68.441 41.0651L74.7362 35.3998ZM83.2987 55.7806L75.8623 49.5832L82.7893 45.8048C83.1004 46.0845 83.4635 46.3012 83.8656 46.4443V55.5151C83.6662 55.5866 83.4776 55.6744 83.2987 55.7806ZM66.5226 42.3094C66.5226 42.9066 66.037 43.3933 65.4387 43.3933C64.8404 43.3933 64.3548 42.9066 64.3548 42.3094C64.3548 41.7122 64.8404 41.2256 65.4387 41.2256C66.037 41.2256 66.5226 41.7122 66.5226 42.3094ZM73.8149 50.7006L81.5819 57.1734L64.7537 55.643L73.8149 50.7006ZM86.0323 43.3933C86.0323 43.9905 85.5467 44.4771 84.9484 44.4771C84.3501 44.4771 83.8645 43.9905 83.8645 43.3933C83.8645 42.7961 84.3501 42.3094 84.9484 42.3094C85.5467 42.3094 86.0323 42.7961 86.0323 43.3933ZM76.2774 31.4709C76.8757 31.4709 77.3613 31.9575 77.3613 32.5547C77.3613 33.1519 76.8757 33.6386 76.2774 33.6386C75.6791 33.6386 75.1935 33.1519 75.1935 32.5547C75.1935 31.9575 75.6791 31.4709 76.2774 31.4709ZM73.0551 32.261C73.0464 32.3596 73.0258 32.4539 73.0258 32.5547C73.0258 32.9959 73.1158 33.4153 73.2751 33.799L66.9789 39.4643C66.5193 39.2128 65.9991 39.0579 65.4387 39.0579C64.7732 39.0579 64.1543 39.2605 63.6384 39.6052L55.6633 33.6234L60.6979 28.9249C61.1455 29.159 61.6473 29.3032 62.1871 29.3032C63.0986 29.3032 63.9213 28.9238 64.512 28.3179L73.0551 32.261ZM62.1871 24.9678C62.7854 24.9678 63.271 25.4544 63.271 26.0516C63.271 26.6488 62.7854 27.1355 62.1871 27.1355C61.5888 27.1355 61.1032 26.6488 61.1032 26.0516C61.1032 25.4544 61.5888 24.9678 62.1871 24.9678ZM43.7613 24.9678C44.3596 24.9678 44.8452 25.4544 44.8452 26.0516C44.8452 26.6488 44.3596 27.1355 43.7613 27.1355C43.163 27.1355 42.6774 26.6488 42.6774 26.0516C42.6774 25.4544 43.163 24.9678 43.7613 24.9678ZM32.9226 30.387C33.5209 30.387 34.0065 30.8737 34.0065 31.4709C34.0065 32.0681 33.5209 32.5547 32.9226 32.5547C32.3243 32.5547 31.8387 32.0681 31.8387 31.4709C31.8387 30.8737 32.3243 30.387 32.9226 30.387ZM24.2516 41.2256C24.8499 41.2256 25.3355 41.7122 25.3355 42.3094C25.3355 42.9066 24.8499 43.3933 24.2516 43.3933C23.6533 43.3933 23.1677 42.9066 23.1677 42.3094C23.1677 41.7122 23.6533 41.2256 24.2516 41.2256ZM24.2516 56.3995C23.6533 56.3995 23.1677 55.9129 23.1677 55.3157C23.1677 54.7184 23.6533 54.2318 24.2516 54.2318C24.8499 54.2318 25.3355 54.7184 25.3355 55.3157C25.3355 55.9129 24.8499 56.3995 24.2516 56.3995ZM25.3355 52.2635V45.3605C26.3045 45.0147 27.0534 44.2289 27.3515 43.2383L33.3258 42.9391L34.8367 54.5255C34.2146 54.8073 33.7062 55.2821 33.367 55.8695L27.4512 54.7954C27.2594 53.6162 26.4356 52.6559 25.3355 52.2635ZM35.0903 57.4834C35.0903 56.8862 35.5759 56.3995 36.1742 56.3995C36.7725 56.3995 37.2581 56.8862 37.2581 57.4834C37.2581 58.0806 36.7725 58.5672 36.1742 58.5672C35.5759 58.5672 35.0903 58.0806 35.0903 57.4834ZM38.3138 59.9123C38.4644 59.78 38.601 59.6337 38.7245 59.4755L51.8123 63.838L53.7448 70.0626C53.476 70.2642 53.2376 70.5015 53.0425 70.7747L43.7407 68.117C43.6334 66.4219 42.233 65.0703 40.5097 65.0703C40.4663 65.0703 40.4251 65.0812 40.3829 65.0833L38.3138 59.9123ZM40.5097 69.4058C39.9114 69.4058 39.4258 68.9191 39.4258 68.3219C39.4258 67.7247 39.9114 67.238 40.5097 67.238C41.108 67.238 41.5935 67.7247 41.5935 68.3219C41.5935 68.9191 41.108 69.4058 40.5097 69.4058ZM55.6839 87.8313C55.0856 87.8313 54.6 87.3446 54.6 86.7474C54.6 86.1502 55.0856 85.6635 55.6839 85.6635C56.2822 85.6635 56.7677 86.1502 56.7677 86.7474C56.7677 87.3446 56.2822 87.8313 55.6839 87.8313ZM55.6839 73.7412C55.0856 73.7412 54.6 73.2545 54.6 72.6573C54.6 72.0601 55.0856 71.5735 55.6839 71.5735C56.2822 71.5735 56.7677 72.0601 56.7677 72.6573C56.7677 73.2545 56.2822 73.7412 55.6839 73.7412ZM55.7207 69.1196L54.3431 64.6823L56.9141 65.5396L55.7207 69.1196ZM61.1639 59.6446C62.4451 59.6207 63.5419 58.8533 64.0492 57.7554L81.8095 59.3704C81.8377 59.4787 81.8702 59.585 81.9081 59.689L73.5916 66.6192C73.106 66.3309 72.5467 66.1542 71.9419 66.1542C70.9036 66.1542 69.9866 66.6528 69.3916 67.4136L59.6563 64.1686L61.1639 59.6446ZM71.9419 87.8313C71.3436 87.8313 70.8581 87.3446 70.8581 86.7474C70.8581 86.1502 71.3436 85.6635 71.9419 85.6635C72.5402 85.6635 73.0258 86.1502 73.0258 86.7474C73.0258 87.3446 72.5402 87.8313 71.9419 87.8313ZM71.9419 70.4896C71.3436 70.4896 70.8581 70.003 70.8581 69.4058C70.8581 68.8085 71.3436 68.3219 71.9419 68.3219C72.5402 68.3219 73.0258 68.8085 73.0258 69.4058C73.0258 70.003 72.5402 70.4896 71.9419 70.4896ZM84.9484 59.6511C84.3501 59.6511 83.8645 59.1644 83.8645 58.5672C83.8645 57.97 84.3501 57.4834 84.9484 57.4834C85.5467 57.4834 86.0323 57.97 86.0323 58.5672C86.0323 59.1644 85.5467 59.6511 84.9484 59.6511Z" fill="#3422B7"/>
<defs>
<filter id="filter0_f" x="84.3999" y="28.8" width="4.8" height="4.8" filterUnits="userSpaceOnUse" color-interpolation-filters="sRGB">
<feFlood flood-opacity="0" result="BackgroundImageFix"/>
<feBlend mode="normal" in="SourceGraphic" in2="BackgroundImageFix" result="shape"/>
<feGaussianBlur stdDeviation="0.5" result="effect1_foregroundBlur"/>
</filter>
<filter id="filter1_f" x="27" y="65.2" width="4.8" height="4.8" filterUnits="userSpaceOnUse" color-interpolation-filters="sRGB">
<feFlood flood-opacity="0" result="BackgroundImageFix"/>
<feBlend mode="normal" in="SourceGraphic" in2="BackgroundImageFix" result="shape"/>
<feGaussianBlur stdDeviation="0.5" result="effect1_foregroundBlur"/>
</filter>
<filter id="filter2_f" x="32.6001" y="76.3999" width="4.8" height="4.8" filterUnits="userSpaceOnUse" color-interpolation-filters="sRGB">
<feFlood flood-opacity="0" result="BackgroundImageFix"/>
<feBlend mode="normal" in="SourceGraphic" in2="BackgroundImageFix" result="shape"/>
<feGaussianBlur stdDeviation="0.5" result="effect1_foregroundBlur"/>
</filter>
<filter id="filter3_f" x="27" y="19" width="4.8" height="4.8" filterUnits="userSpaceOnUse" color-interpolation-filters="sRGB">
<feFlood flood-opacity="0" result="BackgroundImageFix"/>
<feBlend mode="normal" in="SourceGraphic" in2="BackgroundImageFix" result="shape"/>
<feGaussianBlur stdDeviation="0.5" result="effect1_foregroundBlur"/>
</filter>
<filter id="filter4_f" x="85.8" y="66.6001" width="4.8" height="4.8" filterUnits="userSpaceOnUse" color-interpolation-filters="sRGB">
<feFlood flood-opacity="0" result="BackgroundImageFix"/>
<feBlend mode="normal" in="SourceGraphic" in2="BackgroundImageFix" result="shape"/>
<feGaussianBlur stdDeviation="0.5" result="effect1_foregroundBlur"/>
</filter>
<filter id="filter5_f" x="77.3999" y="79.2" width="4.8" height="4.8" filterUnits="userSpaceOnUse" color-interpolation-filters="sRGB">
<feFlood flood-opacity="0" result="BackgroundImageFix"/>
<feBlend mode="normal" in="SourceGraphic" in2="BackgroundImageFix" result="shape"/>
<feGaussianBlur stdDeviation="0.5" result="effect1_foregroundBlur"/>
</filter>
</defs>
</svg>
