<?xml version="1.0"?>
<svg xmlns="http://www.w3.org/2000/svg" width="111" height="111" viewBox="0 0 111 111" fill="none">
<circle cx="55.5" cy="55.5" r="55.5" fill="#DAFFF3"/>
<path d="M20 56.1975C20 52.4198 21.7095 48.8783 24.6959 45.8292C26.7739 43.7076 28.504 41.2771 29.8246 38.6171C34.0477 30.1109 41.248 24.5083 49.4213 24.5083C55.2296 24.5083 60.546 27.3381 64.6522 32.0282C67.3702 35.1327 70.802 37.5141 74.6309 39.0516C83.9058 42.7761 90 49.0653 90 56.1975C90 63.3297 83.9058 69.6189 74.6309 73.3434C70.802 74.8811 67.3702 77.2623 64.6521 80.3668C60.5459 85.0569 55.2294 87.8867 49.4212 87.8867C41.2479 87.8867 34.0476 82.2841 29.8245 73.7779C28.5039 71.1179 26.7737 68.6875 24.6957 66.5659C21.7095 63.5166 20 59.9752 20 56.1975V56.1975Z" fill="#B5E8D8"/>
<path opacity="0.1" d="M40.9098 28.3752H69.0902C70.6639 28.3752 71.9395 29.6508 71.9395 31.2231V49.2303H78.5156C78.893 49.2303 79.1992 49.5366 79.1992 49.9139V58.6393C79.1992 59.018 78.893 59.3229 78.5156 59.3229H71.9395V84.8633C71.9395 86.4356 70.6639 87.7112 69.0902 87.7112H40.9098C39.3361 87.7112 38.0606 86.4356 38.0606 84.8633V31.2231C38.0606 29.6508 39.3361 28.3752 40.9098 28.3752V28.3752Z" fill="#2626BC"/>
<path d="M38.0605 27.5317V81.1719C38.0605 82.7442 39.3361 84.0198 40.9098 84.0198H69.0902C70.6639 84.0198 71.9395 82.7442 71.9395 81.1719V27.5317C71.9395 25.9594 70.6639 24.6838 69.0902 24.6838H40.9098C39.3361 24.6838 38.0605 25.9594 38.0605 27.5317Z" fill="#FF3791"/>
<path d="M56.2742 41.6617H67.0162C67.9665 41.6617 68.7368 40.8913 68.7368 39.9411V29.1991C68.7368 28.2488 67.9664 27.4785 67.0162 27.4785H56.2742C55.3239 27.4785 54.5536 28.2489 54.5536 29.1991V39.9411C54.5536 40.8914 55.324 41.6617 56.2742 41.6617Z" fill="#3422B7"/>
<path d="M64.6348 33.8957C63.2375 33.8957 62.1047 32.7629 62.1047 31.3656C62.1047 29.9682 63.2375 28.8354 64.6348 28.8354C66.0321 28.8354 67.1649 29.9682 67.1649 31.3656C67.1649 32.7629 66.0321 33.8957 64.6348 33.8957Z" fill="#01FFB3"/>
<path d="M64.6348 40.3051C63.2375 40.3051 62.1047 39.1723 62.1047 37.775C62.1047 36.3776 63.2375 35.2449 64.6348 35.2449C66.0321 35.2449 67.1649 36.3776 67.1649 37.775C67.1649 39.1723 66.0321 40.3051 64.6348 40.3051Z" fill="#FF3791"/>
<path d="M58.6554 33.8957C57.2581 33.8957 56.1253 32.7629 56.1253 31.3656C56.1253 29.9682 57.2581 28.8354 58.6554 28.8354C60.0528 28.8354 61.1855 29.9682 61.1855 31.3656C61.1855 32.7629 60.0528 33.8957 58.6554 33.8957Z" fill="#01FFB3"/>
<path d="M58.6554 32.6923C57.9225 32.6923 57.3283 32.0982 57.3283 31.3652C57.3283 30.6323 57.9225 30.0381 58.6554 30.0381C59.3884 30.0381 59.9825 30.6323 59.9825 31.3652C59.9825 32.0982 59.3884 32.6923 58.6554 32.6923Z" fill="#3422B7"/>
<path d="M64.6347 32.6923C63.9017 32.6923 63.3075 32.0982 63.3075 31.3652C63.3075 30.6323 63.9017 30.0381 64.6347 30.0381C65.3676 30.0381 65.9618 30.6323 65.9618 31.3652C65.9618 32.0982 65.3676 32.6923 64.6347 32.6923Z" fill="#3422B7"/>
<path d="M46.3045 70.7244H63.6954C64.0472 70.7244 64.3324 70.4392 64.3324 70.0874C64.3324 69.7356 64.0472 69.4504 63.6954 69.4504H46.3045C45.9528 69.4504 45.6676 69.7356 45.6676 70.0874C45.6676 70.4393 45.9528 70.7244 46.3045 70.7244Z" fill="#01FFB3"/>
<path d="M50.126 73.1699H59.8736C60.2254 73.1699 60.5106 72.8848 60.5106 72.533C60.5106 72.1812 60.2254 71.896 59.8736 71.896H50.126C49.7742 71.896 49.489 72.1812 49.489 72.533C49.4892 72.8848 49.7742 73.1699 50.126 73.1699Z" fill="#01FFB3"/>
<path d="M41.4961 29.4742C41.8737 29.4742 42.1797 29.1681 42.1797 28.7906V28.7749C42.1797 28.3974 41.8737 28.0913 41.4961 28.0913C41.1185 28.0913 40.8125 28.3974 40.8125 28.7749V28.7906C40.8125 29.1681 41.1185 29.4742 41.4961 29.4742Z" fill="#01FFB3"/>
<path d="M41.4961 80.6124C41.8737 80.6124 42.1797 80.3063 42.1797 79.9288V79.9131C42.1797 79.5356 41.8737 79.2295 41.4961 79.2295C41.1185 79.2295 40.8125 79.5356 40.8125 79.9131V79.9288C40.8125 80.3063 41.1185 80.6124 41.4961 80.6124Z" fill="#01FFB3"/>
<path d="M68.504 80.6124C68.8816 80.6124 69.1876 80.3063 69.1876 79.9288V79.9131C69.1876 79.5356 68.8816 79.2295 68.504 79.2295C68.1264 79.2295 67.8204 79.5356 67.8204 79.9131V79.9288C67.8204 80.3063 68.1264 80.6124 68.504 80.6124Z" fill="#01FFB3"/>
<path d="M66.5295 46.2222V54.9476C66.5295 55.3263 66.8357 55.6312 67.2131 55.6312H78.5156C78.893 55.6312 79.1992 55.3263 79.1992 54.9476V46.2222C79.1992 45.8448 78.893 45.5386 78.5156 45.5386H67.2131C66.8357 45.5386 66.5295 45.8448 66.5295 46.2222Z" fill="#5C46FB"/>
<path d="M40.9094 24H46.5234C46.9011 24 47.207 24.3061 47.207 24.6836C47.207 25.0611 46.9011 25.3672 46.5234 25.3672H40.9094C39.7157 25.3672 38.7444 26.3384 38.7444 27.5321V81.1714C38.7444 82.3652 39.7157 83.3363 40.9094 83.3363H69.0907C70.2845 83.3363 71.2557 82.3651 71.2557 81.1714V60.28C71.2557 59.9025 71.5619 59.5964 71.9393 59.5964C72.3168 59.5964 72.6229 59.9025 72.6229 60.28V81.1714C72.6229 83.1191 71.0384 84.7035 69.0907 84.7035H40.9094C38.9618 84.7035 37.3772 83.119 37.3772 81.1714V27.5321C37.3772 25.5844 38.9617 24 40.9094 24V24Z" fill="#01FFB3"/>
<path d="M65.8463 54.9483V51.2694H58.6556C58.2781 51.2694 57.972 50.9633 57.972 50.5858V31.9983C57.972 31.6208 58.2781 31.3147 58.6556 31.3147C59.0331 31.3147 59.3392 31.6208 59.3392 31.9983V49.9023H65.8463V46.2232C65.8463 45.4694 66.4596 44.856 67.2135 44.856H71.2556V27.5321C71.2556 26.3383 70.2843 25.3672 69.0905 25.3672H51.1719C50.7943 25.3672 50.4883 25.0611 50.4883 24.6836C50.4883 24.3061 50.7943 24 51.1719 24H69.0906C71.0383 24 72.6229 25.5846 72.6229 27.5321V44.8559H78.5156C79.2695 44.8559 79.8828 45.4692 79.8828 46.2231V54.9483C79.8828 55.7022 79.2695 56.3155 78.5156 56.3155H67.2135C66.4596 56.3155 65.8463 55.7023 65.8463 54.9483ZM78.5156 46.2231H67.2135L67.2127 54.9482H78.5156V46.2231Z" fill="#01FFB3"/>
<g filter="url(#filter0_f)">
<rect x="81.923" y="41.5" width="2.69231" height="2.69231" fill="#FF3896"/>
</g>
<g filter="url(#filter1_f)">
<rect x="75.1924" y="72.4617" width="2.69231" height="2.69231" fill="#FF3896"/>
</g>
<g filter="url(#filter2_f)">
<rect x="85.9615" y="65.7307" width="2.69231" height="2.69231" fill="#3422B7"/>
</g>
<g filter="url(#filter3_f)">
<rect x="24.0385" y="40.1541" width="2.69231" height="2.69231" fill="#01FFB3"/>
</g>
<g filter="url(#filter4_f)">
<rect x="83.2692" y="59" width="2.69231" height="2.69231" fill="#01FFB3"/>
</g>
<g filter="url(#filter5_f)">
<rect x="28.077" y="59" width="2.69231" height="2.69231" fill="#2626BC"/>
</g>
<g filter="url(#filter6_f)">
<rect x="30.7692" y="48.2307" width="2.69231" height="2.69231" fill="#FF3791"/>
</g>
<defs>
<filter id="filter0_f" x="80.923" y="40.5" width="4.69231" height="4.69231" filterUnits="userSpaceOnUse" color-interpolation-filters="sRGB">
<feFlood flood-opacity="0" result="BackgroundImageFix"/>
<feBlend mode="normal" in="SourceGraphic" in2="BackgroundImageFix" result="shape"/>
<feGaussianBlur stdDeviation="0.5" result="effect1_foregroundBlur"/>
</filter>
<filter id="filter1_f" x="74.1924" y="71.4617" width="4.69231" height="4.69231" filterUnits="userSpaceOnUse" color-interpolation-filters="sRGB">
<feFlood flood-opacity="0" result="BackgroundImageFix"/>
<feBlend mode="normal" in="SourceGraphic" in2="BackgroundImageFix" result="shape"/>
<feGaussianBlur stdDeviation="0.5" result="effect1_foregroundBlur"/>
</filter>
<filter id="filter2_f" x="84.9615" y="64.7307" width="4.69231" height="4.69231" filterUnits="userSpaceOnUse" color-interpolation-filters="sRGB">
<feFlood flood-opacity="0" result="BackgroundImageFix"/>
<feBlend mode="normal" in="SourceGraphic" in2="BackgroundImageFix" result="shape"/>
<feGaussianBlur stdDeviation="0.5" result="effect1_foregroundBlur"/>
</filter>
<filter id="filter3_f" x="23.0385" y="39.1541" width="4.69231" height="4.69231" filterUnits="userSpaceOnUse" color-interpolation-filters="sRGB">
<feFlood flood-opacity="0" result="BackgroundImageFix"/>
<feBlend mode="normal" in="SourceGraphic" in2="BackgroundImageFix" result="shape"/>
<feGaussianBlur stdDeviation="0.5" result="effect1_foregroundBlur"/>
</filter>
<filter id="filter4_f" x="82.2692" y="58" width="4.69231" height="4.69231" filterUnits="userSpaceOnUse" color-interpolation-filters="sRGB">
<feFlood flood-opacity="0" result="BackgroundImageFix"/>
<feBlend mode="normal" in="SourceGraphic" in2="BackgroundImageFix" result="shape"/>
<feGaussianBlur stdDeviation="0.5" result="effect1_foregroundBlur"/>
</filter>
<filter id="filter5_f" x="27.077" y="58" width="4.69231" height="4.69231" filterUnits="userSpaceOnUse" color-interpolation-filters="sRGB">
<feFlood flood-opacity="0" result="BackgroundImageFix"/>
<feBlend mode="normal" in="SourceGraphic" in2="BackgroundImageFix" result="shape"/>
<feGaussianBlur stdDeviation="0.5" result="effect1_foregroundBlur"/>
</filter>
<filter id="filter6_f" x="29.7692" y="47.2307" width="4.69231" height="4.69231" filterUnits="userSpaceOnUse" color-interpolation-filters="sRGB">
<feFlood flood-opacity="0" result="BackgroundImageFix"/>
<feBlend mode="normal" in="SourceGraphic" in2="BackgroundImageFix" result="shape"/>
<feGaussianBlur stdDeviation="0.5" result="effect1_foregroundBlur"/>
</filter>
</defs>
</svg>
