<?xml version="1.0"?>
<svg xmlns="http://www.w3.org/2000/svg" width="111" height="111" viewBox="0 0 111 111" fill="none">
<circle cx="55.5" cy="55.5" r="55.5" fill="#D1DEFF"/>
<path d="M31.986 44.2787C29.6455 48.1262 29.3988 54.7878 31.1133 58.9522C32.6149 62.5997 35.6021 66.0234 39.5234 66.4523C40.9654 66.61 42.4392 66.3523 43.8664 66.6122C48.7743 67.506 50.6 73.5546 54.4142 76.7698C57.0687 79.0074 60.7519 79.7992 64.1968 79.3682C67.6417 78.9371 70.8669 77.3796 73.7062 75.3814C75.9481 73.8036 78.0456 71.8637 79.1519 69.3554C81.4706 64.0977 78.7427 57.783 74.5047 53.9024C73.1848 52.6937 71.7136 51.6276 70.6107 50.2181C69.5079 48.8085 68.806 46.9276 69.3315 45.2167C69.7507 43.8518 70.8792 42.7937 71.3068 41.4313C71.8886 39.5774 71.0104 37.4976 69.5683 36.1954C68.1262 34.8931 66.2179 34.2384 64.3275 33.7891C56.4073 31.9062 39.0518 32.6636 31.986 44.2787Z" fill="#E3EBFF"/>
<path opacity="0.1" d="M73.2869 82.2256H54.8822C53.2641 82.2256 51.9525 80.914 51.9525 79.2959V42.1204C51.9525 40.5023 53.2641 39.1907 54.8822 39.1907H73.2869C74.9049 39.1907 76.2166 40.5023 76.2166 42.1204V79.2959C76.2166 80.9139 74.9049 82.2256 73.2869 82.2256Z" fill="#2626BC"/>
<path d="M73.2869 79.8816H54.8822C53.2641 79.8816 51.9525 78.57 51.9525 76.9519V39.7764C51.9525 38.1583 53.2641 36.8467 54.8822 36.8467H73.2869C74.9049 36.8467 76.2166 38.1583 76.2166 39.7764V76.9519C76.2166 78.5699 74.9049 79.8816 73.2869 79.8816Z" fill="#FF3791"/>
<path d="M51.9528 41.0371H76.2164V75.6914H51.9528V41.0371Z" fill="white"/>
<path d="M73.2869 80.3701H54.8822C52.9975 80.3701 51.4642 78.8368 51.4642 76.9522V39.7766C51.4642 37.8919 52.9975 36.3586 54.8822 36.3586H73.287C75.1716 36.3586 76.7049 37.8919 76.7049 39.7766V76.9522C76.7048 78.8368 75.1715 80.3701 73.2869 80.3701ZM54.8822 37.3352C53.536 37.3352 52.4408 38.4304 52.4408 39.7766V76.9522C52.4408 78.2983 53.536 79.3936 54.8822 79.3936H73.287C74.6332 79.3936 75.7284 78.2983 75.7284 76.9522V39.7766C75.7284 38.4304 74.6332 37.3352 73.287 37.3352H54.8822Z" fill="#2626BC"/>
<path d="M65.7918 39.5198H62.3772C62.1076 39.5198 61.8889 39.3011 61.8889 39.0315C61.8889 38.7619 62.1076 38.5432 62.3772 38.5432H65.7918C66.0615 38.5432 66.2801 38.7619 66.2801 39.0315C66.2801 39.3011 66.0615 39.5198 65.7918 39.5198Z" fill="#2626BC"/>
<path d="M68.0703 39.5197C68.34 39.5197 68.5587 39.301 68.5587 39.0312C68.5587 38.7614 68.34 38.5427 68.0703 38.5427C67.8005 38.5427 67.5818 38.7614 67.5818 39.0312C67.5818 39.301 67.8005 39.5197 68.0703 39.5197Z" fill="#2626BC"/>
<path d="M73.4059 44.3437V52.6348C73.4059 53.1738 72.9684 53.6113 72.4293 53.6113H55.7399C55.2008 53.6113 54.7633 53.1738 54.7633 52.6348V44.3437C54.7633 43.8047 55.2008 43.3672 55.7399 43.3672H72.4293C72.9684 43.3672 73.4059 43.8047 73.4059 44.3437Z" fill="#5C46FB"/>
<path d="M73.4059 46.2034V52.635C73.4059 53.1741 72.9684 53.6116 72.4293 53.6116H60.527C60.4908 53.3049 60.4723 52.9924 60.4723 52.676C60.4723 48.2102 64.0924 44.5901 68.5592 44.5901C70.3766 44.5901 72.0553 45.1907 73.4059 46.2034Z" fill="#3422B7"/>
<path d="M73.4059 71.8154V75.6914H54.7633V71.8154C54.7633 71.2764 55.2008 70.8389 55.7399 70.8389H72.4293C72.9684 70.8389 73.4059 71.2764 73.4059 71.8154Z" fill="#02FFB3"/>
<path d="M62.4303 73.2656C62.4303 74.1387 62.2213 74.9629 61.8512 75.6914H54.7633V71.8154C54.7633 71.2764 55.2008 70.8389 55.7399 70.8389H61.8512C62.2213 71.5684 62.4303 72.3926 62.4303 73.2656Z" fill="#97FFD2"/>
<path d="M62.9413 60.7775H55.2517C54.9821 60.7775 54.7634 60.5588 54.7634 60.2892V56.4084C54.7634 56.1388 54.9821 55.9202 55.2517 55.9202H62.9413C63.211 55.9202 63.4296 56.1388 63.4296 56.4084V60.2892C63.4296 60.5589 63.211 60.7775 62.9413 60.7775Z" fill="#FF3791"/>
<path d="M72.9173 60.7775H65.2277C64.958 60.7775 64.7394 60.5588 64.7394 60.2892V56.4084C64.7394 56.1388 64.958 55.9202 65.2277 55.9202H72.9173C73.1869 55.9202 73.4056 56.1388 73.4056 56.4084V60.2892C73.4056 60.5589 73.1869 60.7775 72.9173 60.7775Z" fill="#01FFB3"/>
<path d="M62.9413 66.7724H55.2517C54.9821 66.7724 54.7634 66.5537 54.7634 66.2841V62.4033C54.7634 62.1337 54.9821 61.915 55.2517 61.915H62.9413C63.211 61.915 63.4296 62.1337 63.4296 62.4033V66.2841C63.4296 66.5537 63.211 66.7724 62.9413 66.7724Z" fill="#3422B7"/>
<path d="M72.9173 66.7724H65.2277C64.958 66.7724 64.7394 66.5537 64.7394 66.2841V62.4033C64.7394 62.1337 64.958 61.915 65.2277 61.915H72.9173C73.1869 61.915 73.4056 62.1337 73.4056 62.4033V66.2841C73.4056 66.5537 73.1869 66.7724 72.9173 66.7724Z" fill="#FF3791"/>
<path d="M63.6615 49.1025H57.2473C56.9777 49.1025 56.759 49.3212 56.759 49.5908C56.759 49.8604 56.9777 50.0791 57.2473 50.0791H63.6615C63.9311 50.0791 64.1497 49.8604 64.1497 49.5908C64.1497 49.3212 63.9312 49.1025 63.6615 49.1025Z" fill="white"/>
<path d="M63.6615 47.2053H57.2473C56.9777 47.2053 56.759 47.424 56.759 47.6936C56.759 47.9632 56.9777 48.1819 57.2473 48.1819H63.6615C63.9311 48.1819 64.1497 47.9632 64.1497 47.6936C64.1497 47.424 63.9312 47.2053 63.6615 47.2053Z" fill="white"/>
<path d="M59.3221 68.8435H55.2517C54.9821 68.8435 54.7634 69.0622 54.7634 69.3318C54.7634 69.6014 54.9821 69.8201 55.2517 69.8201H59.3221C59.5917 69.8201 59.8104 69.6014 59.8104 69.3318C59.8104 69.0622 59.5917 68.8435 59.3221 68.8435Z" fill="#8399FE"/>
<path d="M73.4058 71.8154V74.2168C71.5552 74.2168 70.0542 72.7168 70.0542 70.8662V70.8389H72.4292C72.9683 70.8389 73.4058 71.2764 73.4058 71.8154Z" fill="#01ECA5"/>
<g filter="url(#filter0_f)">
<rect x="40.0759" y="35.239" width="2.23909" height="2.23909" fill="#01FFB3"/>
</g>
<g filter="url(#filter1_f)">
<rect x="44.5541" y="66.5862" width="2.23909" height="2.23909" fill="#01FFB3"/>
</g>
<g filter="url(#filter2_f)">
<rect x="77.0208" y="52.0322" width="2.23909" height="2.23909" fill="#01FFB3"/>
</g>
<g filter="url(#filter3_f)">
<rect x="43.4346" y="50.9126" width="2.23909" height="2.23909" fill="#2626BC"/>
</g>
<g filter="url(#filter4_f)">
<rect x="30" y="60.9885" width="2.23909" height="2.23909" fill="#2626BC"/>
</g>
<g filter="url(#filter5_f)">
<rect x="45.6736" y="41.9563" width="2.23909" height="2.23909" fill="#FF3791"/>
</g>
<defs>
<filter id="filter0_f" x="39.0759" y="34.239" width="4.23909" height="4.23909" filterUnits="userSpaceOnUse" color-interpolation-filters="sRGB">
<feFlood flood-opacity="0" result="BackgroundImageFix"/>
<feBlend mode="normal" in="SourceGraphic" in2="BackgroundImageFix" result="shape"/>
<feGaussianBlur stdDeviation="0.5" result="effect1_foregroundBlur"/>
</filter>
<filter id="filter1_f" x="43.5541" y="65.5862" width="4.23909" height="4.23909" filterUnits="userSpaceOnUse" color-interpolation-filters="sRGB">
<feFlood flood-opacity="0" result="BackgroundImageFix"/>
<feBlend mode="normal" in="SourceGraphic" in2="BackgroundImageFix" result="shape"/>
<feGaussianBlur stdDeviation="0.5" result="effect1_foregroundBlur"/>
</filter>
<filter id="filter2_f" x="76.0208" y="51.0322" width="4.23909" height="4.23909" filterUnits="userSpaceOnUse" color-interpolation-filters="sRGB">
<feFlood flood-opacity="0" result="BackgroundImageFix"/>
<feBlend mode="normal" in="SourceGraphic" in2="BackgroundImageFix" result="shape"/>
<feGaussianBlur stdDeviation="0.5" result="effect1_foregroundBlur"/>
</filter>
<filter id="filter3_f" x="42.4346" y="49.9126" width="4.23909" height="4.23909" filterUnits="userSpaceOnUse" color-interpolation-filters="sRGB">
<feFlood flood-opacity="0" result="BackgroundImageFix"/>
<feBlend mode="normal" in="SourceGraphic" in2="BackgroundImageFix" result="shape"/>
<feGaussianBlur stdDeviation="0.5" result="effect1_foregroundBlur"/>
</filter>
<filter id="filter4_f" x="29" y="59.9885" width="4.23909" height="4.23909" filterUnits="userSpaceOnUse" color-interpolation-filters="sRGB">
<feFlood flood-opacity="0" result="BackgroundImageFix"/>
<feBlend mode="normal" in="SourceGraphic" in2="BackgroundImageFix" result="shape"/>
<feGaussianBlur stdDeviation="0.5" result="effect1_foregroundBlur"/>
</filter>
<filter id="filter5_f" x="44.6736" y="40.9563" width="4.23909" height="4.23909" filterUnits="userSpaceOnUse" color-interpolation-filters="sRGB">
<feFlood flood-opacity="0" result="BackgroundImageFix"/>
<feBlend mode="normal" in="SourceGraphic" in2="BackgroundImageFix" result="shape"/>
<feGaussianBlur stdDeviation="0.5" result="effect1_foregroundBlur"/>
</filter>
</defs>
</svg>
