<svg width="111" height="111" viewBox="0 0 111 111" fill="none" xmlns="http://www.w3.org/2000/svg">
<circle cx="55.5" cy="55.5" r="55.5" fill="#FFE9F2"/>
<g filter="url(#filter0_f)">
<rect x="58.4648" y="85.1126" width="2.09769" height="2.09769" fill="#FF3896"/>
</g>
<g filter="url(#filter1_f)">
<rect x="83.1127" y="30.8872" width="2.09769" height="2.09769" fill="#3422B7"/>
</g>
<g filter="url(#filter2_f)">
<rect x="27.9014" y="52.5774" width="2.09769" height="2.09769" fill="#FF3896"/>
</g>
<g filter="url(#filter3_f)">
<rect x="74.2394" y="26.9436" width="2.09769" height="2.09769" fill="#01FFB3"/>
</g>
<path d="M70.8781 29.9423C61.4312 26.2308 48.3491 27.6408 41.1197 34.2681C36.0151 38.9475 39.9659 40.2812 43.4461 48.8436C45.9648 55.0407 21 54.1877 21 65.3858C21 78.3316 39.0812 75.8776 45.7911 77.3595C56.0499 79.6252 64.9995 88.1009 75.9605 86.9835C85.5028 86.0107 89.1406 78.4918 90.4676 69.8721C92.9398 53.8131 86.8679 36.2244 70.8781 29.9423V29.9423Z" fill="#FF93C4"/>
<g filter="url(#filter4_f)">
<rect x="25.9296" y="59.4788" width="2.09769" height="2.09769" fill="#3422B7"/>
</g>
<g filter="url(#filter5_f)">
<rect x="78.1831" y="34.8309" width="2.09769" height="2.09769" fill="#01FFB3"/>
</g>
<path d="M90.9684 44.0418C90.9892 44.1186 91 44.1979 91 44.2775V56.6518C91 56.975 90.8271 57.2736 90.5466 57.4345L80.1607 63.4141V75.2662C80.1607 75.5887 79.9892 75.8865 79.7096 76.0489L58.0298 88.5292C57.9801 88.5574 57.926 88.5754 57.8719 88.5946C57.8516 88.6013 57.8324 88.6137 57.811 88.6194C57.6594 88.6593 57.5001 88.6593 57.3486 88.6194C57.3238 88.6126 57.3012 88.5991 57.2775 88.5901C57.2279 88.572 57.176 88.5562 57.1287 88.5292L35.4534 76.0489C35.1731 75.8879 35 75.5894 35 75.2662V38.1434C35 38.0622 35.0113 37.9832 35.0316 37.9065C35.0383 37.8806 35.0541 37.8569 35.0632 37.831C35.0801 37.7836 35.0959 37.7351 35.1207 37.6911C35.1376 37.6618 35.1624 37.6381 35.1827 37.611C35.2086 37.575 35.2323 37.5377 35.2628 37.5062C35.2887 37.4802 35.3226 37.461 35.3519 37.4385C35.3846 37.4114 35.4139 37.3821 35.4511 37.3607H35.4522L46.2904 31.1205C46.5697 30.9598 46.9134 30.9598 47.1927 31.1205L58.0309 37.3607H58.0331C58.0692 37.3832 58.0997 37.4114 58.1324 37.4374C58.1617 37.4599 58.1944 37.4802 58.2204 37.505C58.2519 37.5377 58.2745 37.575 58.3016 37.611C58.3207 37.6381 58.3467 37.6618 58.3625 37.6911C58.3884 37.7362 58.4031 37.7836 58.4211 37.831C58.4301 37.8569 58.4459 37.8806 58.4527 37.9077C58.4735 37.9845 58.4841 38.0638 58.4843 38.1434V61.3299L67.5157 56.1296V44.2764C67.5157 44.1974 67.527 44.1173 67.5473 44.0418C67.5552 44.0147 67.5699 43.991 67.5789 43.9651C67.5969 43.9177 67.6127 43.8692 67.6375 43.8252C67.6544 43.7959 67.6793 43.7722 67.6984 43.7452C67.7255 43.7091 67.7481 43.6719 67.7796 43.6403C67.8056 43.6143 67.8383 43.5952 67.8676 43.5726C67.9014 43.5456 67.9308 43.5162 67.9669 43.4948H67.968L78.8073 37.2547C79.0865 37.0937 79.4303 37.0937 79.7096 37.2547L90.5477 43.4948C90.5861 43.5174 90.6154 43.5456 90.6493 43.5715C90.6774 43.594 90.7102 43.6143 90.7361 43.6392C90.7677 43.6719 90.7902 43.7091 90.8173 43.7452C90.8376 43.7722 90.8624 43.7959 90.8782 43.8252C90.9041 43.8692 90.9188 43.9177 90.9368 43.9651C90.947 43.991 90.9617 44.0147 90.9684 44.0418ZM89.1933 56.1296V45.8395L85.4005 48.0229L80.1607 51.0398V61.3299L89.1944 56.1296H89.1933ZM78.3551 74.744V64.4472L73.201 67.3907L58.4831 75.7906V86.1845L78.3551 74.744ZM36.8067 39.7054V74.744L56.6764 86.1833V75.7917L46.2961 69.917L46.2927 69.9147L46.2882 69.9125C46.2532 69.8922 46.2239 69.8629 46.1912 69.8381C46.163 69.8155 46.1303 69.7975 46.1055 69.7726L46.1032 69.7693C46.0739 69.7411 46.0536 69.7061 46.0288 69.6745C46.0062 69.6441 45.9792 69.6181 45.9611 69.5866L45.96 69.5832C45.9397 69.5493 45.9273 69.5087 45.9126 69.4704C45.898 69.4366 45.8788 69.405 45.8698 69.3689V69.3678C45.8585 69.3249 45.8562 69.2798 45.8517 69.2358C45.8472 69.202 45.8382 69.1681 45.8382 69.1343V69.132V44.9057L40.5995 41.8877L36.8067 39.7065V39.7054ZM46.7427 32.9453L37.7124 38.1434L46.7404 43.3414L55.7696 38.1422L46.7404 32.9453H46.7427ZM51.4389 65.3855L56.6775 62.3697V39.7054L52.8847 41.8888L47.6449 44.9057V67.57L51.4389 65.3855ZM79.2584 39.0794L70.2292 44.2775L79.2584 49.4755L88.2865 44.2764L79.2584 39.0794ZM78.3551 51.0398L73.1153 48.0229L69.3225 45.8395V56.1296L74.5611 59.1453L78.3551 61.3299V51.0398ZM57.5786 74.2286L70.8225 66.6678L77.4427 62.8897L68.4202 57.695L58.032 63.6757L48.5641 69.1264L57.5786 74.2286Z" fill="#3422B7"/>
<defs>
<filter id="filter0_f" x="57.4648" y="84.1126" width="4.09769" height="4.09769" filterUnits="userSpaceOnUse" color-interpolation-filters="sRGB">
<feFlood flood-opacity="0" result="BackgroundImageFix"/>
<feBlend mode="normal" in="SourceGraphic" in2="BackgroundImageFix" result="shape"/>
<feGaussianBlur stdDeviation="0.5" result="effect1_foregroundBlur"/>
</filter>
<filter id="filter1_f" x="82.1127" y="29.8872" width="4.09769" height="4.09769" filterUnits="userSpaceOnUse" color-interpolation-filters="sRGB">
<feFlood flood-opacity="0" result="BackgroundImageFix"/>
<feBlend mode="normal" in="SourceGraphic" in2="BackgroundImageFix" result="shape"/>
<feGaussianBlur stdDeviation="0.5" result="effect1_foregroundBlur"/>
</filter>
<filter id="filter2_f" x="26.9014" y="51.5774" width="4.09769" height="4.09769" filterUnits="userSpaceOnUse" color-interpolation-filters="sRGB">
<feFlood flood-opacity="0" result="BackgroundImageFix"/>
<feBlend mode="normal" in="SourceGraphic" in2="BackgroundImageFix" result="shape"/>
<feGaussianBlur stdDeviation="0.5" result="effect1_foregroundBlur"/>
</filter>
<filter id="filter3_f" x="73.2394" y="25.9436" width="4.09769" height="4.09769" filterUnits="userSpaceOnUse" color-interpolation-filters="sRGB">
<feFlood flood-opacity="0" result="BackgroundImageFix"/>
<feBlend mode="normal" in="SourceGraphic" in2="BackgroundImageFix" result="shape"/>
<feGaussianBlur stdDeviation="0.5" result="effect1_foregroundBlur"/>
</filter>
<filter id="filter4_f" x="24.9296" y="58.4788" width="4.09769" height="4.09769" filterUnits="userSpaceOnUse" color-interpolation-filters="sRGB">
<feFlood flood-opacity="0" result="BackgroundImageFix"/>
<feBlend mode="normal" in="SourceGraphic" in2="BackgroundImageFix" result="shape"/>
<feGaussianBlur stdDeviation="0.5" result="effect1_foregroundBlur"/>
</filter>
<filter id="filter5_f" x="77.1831" y="33.8309" width="4.09769" height="4.09769" filterUnits="userSpaceOnUse" color-interpolation-filters="sRGB">
<feFlood flood-opacity="0" result="BackgroundImageFix"/>
<feBlend mode="normal" in="SourceGraphic" in2="BackgroundImageFix" result="shape"/>
<feGaussianBlur stdDeviation="0.5" result="effect1_foregroundBlur"/>
</filter>
</defs>
</svg>
