<?xml version="1.0" encoding="utf-8"?>
<!-- Generator: Adobe Illustrator 19.0.0, SVG Export Plug-In . SVG Version: 6.00 Build 0)  -->
<svg version="1.1" id="Layer_1" xmlns="http://www.w3.org/2000/svg" xmlns:xlink="http://www.w3.org/1999/xlink" x="0px" y="0px"
	 width="111px" height="111px" viewBox="0 0 111 111" style="enable-background:new 0 0 111 111;" xml:space="preserve">
<style type="text/css">
	.st0{fill:#D3DDF1;}
	.st1{fill:#E4EAF7;}
	.st2{fill:#EE4194;}
	.st3{fill:#42429A;}
	.st4{fill:#70C59C;}
	.st5{fill:#38B98B;}
	.st6{fill:#314A5E;}
	.st7{fill:#158875;}
</style>
<circle id="XMLID_2366_" class="st0" cx="55.5" cy="55.5" r="55.5"/>
<path id="XMLID_2365_" class="st1" d="M27.2,41.3c2.6-7.4,7.4-20.4,17.8-16.8c4,1.4,5.3,6.7,9.3,7.4c3.8,0.6,7.1-3.1,10.7-3.8
	c4.5-0.9,9.3,0.3,11,4.7c2.1,5.3-4,11.2-2.5,16c2.4,7.9,11.3-5.2,12.9,7.6c2.2,17.9-17.6,49.9-31,23.6c-6.8-13.3-13.9-4-24.5-10.6
	C20.8,63.2,23.9,50.8,27.2,41.3L27.2,41.3z"/>
<g id="XMLID_2363_">
	<rect id="XMLID_2364_" x="79.4" y="34.4" class="st2" width="3" height="3"/>
</g>
<g id="XMLID_2337_">
	<rect id="XMLID_2338_" x="33.2" y="56.9" class="st3" width="3" height="3"/>
</g>
<g id="XMLID_2335_">
	<rect id="XMLID_2336_" x="75.4" y="70.1" class="st4" width="3" height="3"/>
</g>
<g id="XMLID_2333_">
	<rect id="XMLID_2334_" x="50.3" y="87" class="st3" width="3" height="3"/>
</g>
<g id="XMLID_2326_">
	<rect id="XMLID_2329_" x="42.4" y="79.3" class="st4" width="3" height="3"/>
</g>
<g id="XMLID_2208_">
	<rect id="XMLID_2244_" x="66.2" y="83.3" class="st2" width="3" height="3"/>
</g>
<g id="XMLID_2368_" transform="translate(865)">
	<path id="XMLID_2373_" class="st5" d="M-804.2,36.8l-2.7,4.8l-9.4-16.5l-28.8,50.7h19.5c0,2.7,2.1,4.8,4.7,4.8h-24.2
		c-1.7,0-3.3-0.9-4.1-2.4s-0.8-3.3,0-4.8l28.8-50.7c0.8-1.5,2.4-2.4,4.1-2.4c1.7,0,3.3,0.9,4.1,2.4
		C-812.2,22.7-804.2,36.8-804.2,36.8z"/>
	<path id="XMLID_2370_" class="st6" d="M-783.4,73.4l-18-31.7l-2.7-4.8l-2.7,4.8l-18,31.7c-0.8,1.5-0.8,3.3,0,4.8
		c0.8,1.5,2.4,2.4,4.1,2.4h33.3c1.7,0,3.3-0.9,4.1-2.4S-782.6,74.8-783.4,73.4L-783.4,73.4L-783.4,73.4z M-820.9,75.8l16.7-29.3
		l16.7,29.3H-820.9z"/>
	<path id="XMLID_2369_" class="st7" d="M-770.5,78.2c-0.8,1.5-2.4,2.4-4.1,2.4h-12.9c2.6,0,4.8-2.2,4.8-4.8h8.1l-23.1-40.7l-3.7,6.5
		l-2.7-4.8l2.3-4.1c0.8-1.5,2.4-2.4,4.1-2.4s3.3,0.9,4.1,2.4l23.1,40.7C-769.7,74.8-769.7,76.7-770.5,78.2L-770.5,78.2z"/>
</g>
</svg>
