<?xml version="1.0" encoding="utf-8"?>
<!-- Generator: Adobe Illustrator 19.0.0, SVG Export Plug-In . SVG Version: 6.00 Build 0)  -->
<svg version="1.1" id="Layer_1" xmlns="http://www.w3.org/2000/svg" xmlns:xlink="http://www.w3.org/1999/xlink" x="0px" y="0px"
	 width="50px" height="50px" viewBox="-282 372 50 50" style="enable-background:new -282 372 50 50;" xml:space="preserve">
<style type="text/css">
	.st0{fill:#FFFFFF;}
</style>
<path class="st0" d="M-245.9,371.9c0,0-0.1,0-0.1,0l-3.3,0.9c-0.4,0.1-0.7,0.6-0.6,1c0.1,0.4,0.6,0.7,1,0.6l1.3-0.4
	c-5.8,9.6-19,21.2-32.2,23.8c-0.4,0.1-0.7,0.5-0.7,1c0.1,0.4,0.5,0.7,1,0.7c0,0,0,0,0,0c13.9-2.8,27.3-14.6,33.3-24.7l0.4,1.4
	c0.1,0.4,0.6,0.7,1,0.6s0.7-0.6,0.6-1c0,0,0,0,0,0l-0.9-3.3C-245.1,372.2-245.5,371.9-245.9,371.9
	C-245.9,371.9-245.9,371.9-245.9,371.9z M-248.5,383.7c-0.5,0-0.8,0.4-0.8,0.8v15.1c0.5-0.2,1.1-0.4,1.7-0.6v-2.1v-11.6h3.3v9.9
	c0.9,0,1.7,0.7,1.7,1.7v-12.4c0-0.5-0.4-0.8-0.8-0.8H-248.5z M-258.5,393.6L-258.5,393.6c-0.5,0-0.8,0.4-0.8,0.8v14.1
	c0-0.2,0-0.3,0.1-0.5c0-0.1,0.1-0.2,0.1-0.3c0.3-0.5,0.8-0.9,1.5-0.9v-11.6h3.3v8.7c0.5-0.8,1-1.5,1.7-2.1v-7.4
	c0-0.5-0.4-0.8-0.8-0.8L-258.5,393.6z M-246.1,396.9v3.4c-4.4,0.4-7.8,3.9-8.2,8.2h-3.4v1.7h3.4c0.4,4.4,3.9,7.8,8.2,8.2v3.4h1.7
	v-3.4c4.4-0.4,7.8-3.9,8.2-8.2h3.4v-1.7h-3.4c-0.4-4.4-3.9-7.9-8.2-8.2v-3.4H-246.1z M-268.4,400.4c-0.5,0-0.8,0.4-0.8,0.8v19.9
	c0,0.5,0.4,0.8,0.8,0.8h5c0.5,0,0.8-0.4,0.8-0.8v-19.9c0-0.5-0.4-0.8-0.8-0.8H-268.4z M-246.1,402v1.7c-2.5,0.4-4.5,2.4-4.9,4.9
	h-1.7C-252.2,405.1-249.5,402.4-246.1,402z M-244.4,402c3.5,0.4,6.2,3.1,6.5,6.5h-1.7c-0.4-2.5-2.4-4.5-4.9-4.9V402z M-267.6,402
	h3.3v18.2h-3.3V402z M-278.4,403.7c-0.5,0-0.8,0.4-0.8,0.8v16.6c0,0.5,0.4,0.8,0.8,0.8h5c0.5,0,0.8-0.4,0.8-0.8v-16.6
	c0-0.5-0.4-0.8-0.8-0.8H-278.4z M-246.1,405.3C-246.1,405.3-246.1,405.3-246.1,405.3l0,1.7c-0.7,0.3-1.3,0.8-1.5,1.5h-1.7
	C-249,406.9-247.7,405.6-246.1,405.3z M-244.4,405.3c1.6,0.3,2.9,1.6,3.2,3.2h-1.7c-0.3-0.7-0.8-1.3-1.5-1.5V405.3z M-277.6,405.3
	h3.3v14.9h-3.3V405.3z M-259.3,410.2v10.8c0,0.5,0.4,0.8,0.8,0.8l5,0c0.5,0,0.8-0.4,0.8-0.8v-4c-0.6-0.6-1.2-1.4-1.7-2.1v5.4h-3.3
	v-8.3C-258.6,411.8-259.3,411.1-259.3,410.2z M-252.6,410.2h1.7c0.4,2.5,2.4,4.5,4.9,4.9v1.7C-249.5,416.3-252.2,413.6-252.6,410.2z
	 M-249.3,410.2h1.7c0.3,0.7,0.8,1.3,1.5,1.5v1.7C-247.7,413.1-249,411.8-249.3,410.2z M-242.9,410.2h1.7c-0.3,1.6-1.6,2.9-3.2,3.2
	v-1.7C-243.7,411.4-243.2,410.9-242.9,410.2z M-239.5,410.2h1.7c-0.4,3.5-3.1,6.2-6.5,6.5v-1.7
	C-241.9,414.7-239.9,412.7-239.5,410.2z M-249.4,419.1L-249.4,419.1v1.9c0,0.5,0.4,0.8,0.8,0.8h0.8v-1.7v-0.4
	C-248.3,419.5-248.8,419.3-249.4,419.1z"/>
</svg>
