<?xml version="1.0"?>
<svg xmlns="http://www.w3.org/2000/svg" width="111" height="111" viewBox="0 0 111 111" fill="none">
<circle cx="55.5" cy="55.5" r="55.5" fill="#D1DEFF"/>
<path d="M75.2228 52.4438C70.0589 48.9398 58.3863 42.7318 52.5009 49.0107C46.5981 55.3083 56.2034 61.6947 51.1218 67.8501C48.8849 70.5597 43.2807 67.4429 40.7322 69.787C37.4498 72.806 38.5074 77.6486 39.9064 81.2989C42.8726 89.0388 54.4011 96.8002 63.003 92.6934C70.5094 89.1096 64.9611 80.9034 72.1965 78.6458C76.2633 77.3769 79.0193 81.3356 83.3417 79.0261C96.4182 72.0395 82.0939 57.1063 75.2228 52.4438V52.4438Z" fill="#E3EBFF"/>
<path d="M80.2917 73.0691H29.0816C27.8438 73.0691 26.8405 72.0657 26.8405 70.8279V35.0817C26.8405 33.8439 27.8438 32.8406 29.0816 32.8406H80.2917C81.5295 32.8406 82.5328 33.8439 82.5328 35.0817V70.8279C82.5328 72.0657 81.5295 73.0691 80.2917 73.0691Z" fill="white"/>
<path d="M81.6924 69.9875H55.5292L54.6509 70.0996L53.8483 69.9875H33.844C31.678 69.9875 29.922 68.2316 29.922 66.0655V53.7952L29.6979 52.9548L29.922 52.1144V33.681V32.8406H29.0816C27.8438 32.8406 26.8405 33.8439 26.8405 35.0817V70.8279C26.8405 72.0657 27.8438 73.0691 29.0816 73.0691H80.2917C81.5295 73.0691 82.5328 72.0657 82.5328 70.8279L82.5888 69.9875H81.6924Z" fill="#DCE6EB"/>
<path d="M26.8405 52.1226V53.7868C26.8772 53.7918 26.9144 53.7951 26.9525 53.7951H29.922V52.1143H26.9525C26.9144 52.1143 26.8772 52.1177 26.8405 52.1226V52.1226Z" fill="#E9EDF1"/>
<path d="M72.2334 58.5494L74.1806 63.7544C74.3214 64.1253 74.8457 64.1265 74.988 63.7563L75.471 62.6127L75.6254 62.2113C75.7717 61.8309 76.0724 61.5302 76.4528 61.3839L78.1097 60.7466C78.4799 60.6042 78.4788 60.0799 78.1078 59.9393L73.8434 58.3217L72.7907 57.9919C72.4424 57.8599 72.1013 58.201 72.2334 58.5494V58.5494Z" fill="#8E80F5"/>
<path d="M73.8435 58.3218L72.6787 57.8799C72.3304 57.7478 71.9893 58.0889 72.1214 58.4373L74.1806 63.8663C74.3214 64.2372 74.8457 64.2385 74.988 63.8682L75.4709 62.6126L73.8435 58.3218Z" fill="#3422B7"/>
<path d="M58.7584 77.3039L57.4369 73.1809H51.9362L50.6147 77.3039L54.6887 78.4245L58.7584 77.3039Z" fill="#3422B7"/>
<path d="M62.4141 81.3611C63.0354 81.3611 63.5391 81.0799 63.5391 80.4567V80.2326C63.5391 79.924 63.7191 79.8499 63.6366 79.568C63.2542 78.2595 62.0485 77.304 60.6204 77.304H54.6886H48.7527C48.5042 77.304 48.2624 77.3329 48.0304 77.3877C46.6429 77.715 45.8341 78.8527 45.8341 80.3446C45.8341 80.9679 46.3378 81.4731 46.9592 81.4731L62.4141 81.3611Z" fill="#8E80F5"/>
<path d="M48.9762 79.568C48.3548 79.568 47.8511 79.0628 47.8511 78.4395C47.8511 78.0709 47.9148 77.7172 48.0308 77.3884C46.6433 77.7157 45.61 78.9647 45.61 80.4565C45.61 81.0798 46.1137 81.5851 46.735 81.5851H62.6382C63.2595 81.5851 63.7632 81.0798 63.7632 80.4565C63.7632 80.1479 63.7182 79.85 63.6358 79.568H48.9762Z" fill="#3422B7"/>
<path d="M80.2916 73.9093H29.0816C27.3823 73.9093 26 72.527 26 70.8278V35.0816C26 33.3823 27.3823 32 29.0816 32H80.2916C81.9909 32 83.3732 33.3823 83.3732 35.0816V70.8278C83.3732 72.527 81.9909 73.9093 80.2916 73.9093ZM29.0816 33.6809C28.3092 33.6809 27.6809 34.3092 27.6809 35.0816V70.8278C27.6809 71.6002 28.3092 72.2285 29.0816 72.2285H80.2916C81.0641 72.2285 81.6924 71.6002 81.6924 70.8278V35.0816C81.6924 34.3092 81.0641 33.6809 80.2916 33.6809H29.0816Z" fill="#3422B7"/>
<g filter="url(#filter0_f)">
<rect x="65.9119" y="85.6316" width="2.49449" height="2.49449" fill="#FF3896"/>
</g>
<g filter="url(#filter1_f)">
<rect x="38.4725" y="79.3953" width="2.49449" height="2.49449" transform="rotate(180 38.4725 79.3953)" fill="#FF3896"/>
</g>
<g filter="url(#filter2_f)">
<rect x="73.3954" y="79.3953" width="2.49449" height="2.49449" fill="#01FFB3"/>
</g>
<g filter="url(#filter3_f)">
<rect x="32.2362" y="85.6316" width="2.49449" height="2.49449" transform="rotate(180 32.2362 85.6316)" fill="#01FFB3"/>
</g>
<path d="M62.7938 65.6757C64.5159 65.6757 65.9119 64.2796 65.9119 62.5576C65.9119 60.8355 64.5159 59.4395 62.7938 59.4395C61.0717 59.4395 59.6757 60.8355 59.6757 62.5576C59.6757 64.2796 61.0717 65.6757 62.7938 65.6757Z" fill="#01FFB3"/>
<path d="M49.074 65.6757C50.7961 65.6757 52.1922 64.2796 52.1922 62.5576C52.1922 60.8355 50.7961 59.4395 49.074 59.4395C47.352 59.4395 45.9559 60.8355 45.9559 62.5576C45.9559 64.2796 47.352 65.6757 49.074 65.6757Z" fill="#01FFB3"/>
<path d="M69.4806 42.1696C69.3497 42.0477 69.1614 41.9779 68.9637 41.978H44.1507C43.77 41.978 43.4614 42.2317 43.4613 42.5448C43.4613 42.5829 43.466 42.6209 43.4753 42.6583L46.2323 53.9957C46.2978 54.2597 46.5802 54.4493 46.9077 54.4492C46.938 54.4509 46.9684 54.4509 46.9987 54.4492L67.6762 52.1817C67.9868 52.1476 68.2303 51.9454 68.2689 51.6897L69.6474 42.6196C69.6738 42.4569 69.6129 42.2927 69.4806 42.1696Z" fill="#FF3791"/>
<path d="M49.3358 52.6335C49.0016 52.6334 48.7164 52.4249 48.6616 52.1405L47.2939 45.0626C47.2432 44.7398 47.5054 44.4427 47.8797 44.399C48.2381 44.357 48.5724 44.5631 48.6425 44.8692L50.0102 51.947C50.0719 52.2682 49.8203 52.5718 49.448 52.6254C49.411 52.6308 49.3735 52.6336 49.3358 52.6335Z" fill="#FAFAFA"/>
<path d="M52.7552 52.0426C52.4003 52.0439 52.1033 51.8108 52.0713 51.5059L51.3875 45.0179C51.3521 44.6936 51.6282 44.406 52.0043 44.3754C52.0061 44.3753 52.0079 44.3752 52.0098 44.375C52.3859 44.3456 52.7184 44.5849 52.7525 44.9093V44.9094L53.4364 51.3973C53.4703 51.7218 53.193 52.0085 52.8168 52.0379H52.8168L52.7552 52.0426Z" fill="#FAFAFA"/>
<path d="M56.1747 51.4532C55.797 51.4532 55.4908 51.1891 55.4908 50.8634V44.9653C55.4908 44.6396 55.797 44.3755 56.1747 44.3755C56.5524 44.3755 56.8586 44.6396 56.8586 44.9653V50.8635C56.8586 51.1892 56.5524 51.4532 56.1747 51.4532Z" fill="#FAFAFA"/>
<path d="M59.5939 50.8627H59.5173C59.1417 50.8285 58.8695 50.538 58.9092 50.2141C58.9095 50.2121 58.9098 50.21 58.91 50.208L59.5939 44.8996C59.6383 44.5752 59.9762 44.3415 60.353 44.3747C60.7284 44.4106 60.9991 44.702 60.9576 45.0258V45.0259L60.2737 50.3343C60.2373 50.6345 59.944 50.8625 59.5939 50.8627Z" fill="#FAFAFA"/>
<path d="M63.0134 50.2727C62.6357 50.2726 62.3296 50.0085 62.3297 49.6828C62.3297 49.6347 62.3366 49.5868 62.35 49.5402L63.7177 44.8218C63.8006 44.504 64.1666 44.3043 64.535 44.3758C64.9035 44.4473 65.135 44.763 65.0521 45.0807C65.0498 45.0896 65.0472 45.0985 65.0444 45.1073L63.6767 49.8257C63.6008 50.0883 63.3272 50.2727 63.0134 50.2727Z" fill="#FAFAFA"/>
<path d="M66.4463 58.192H49.9955C47.6197 58.1872 45.5753 56.721 45.1035 54.6835L41.6298 39.4834H37.938C37.5443 39.4834 37.2252 39.2041 37.2252 38.8597C37.2252 38.5153 37.5443 38.2361 37.938 38.2361H42.2142C42.553 38.236 42.8449 38.4446 42.9127 38.735L46.5018 54.4378C46.8383 55.8933 48.2984 56.941 49.9955 56.9447H66.4463C66.84 56.9447 67.1591 57.2239 67.1591 57.5683C67.1591 57.9128 66.84 58.192 66.4463 58.192Z" fill="#01FFB3"/>
<defs>
<filter id="filter0_f" x="64.9119" y="84.6316" width="4.49449" height="4.49449" filterUnits="userSpaceOnUse" color-interpolation-filters="sRGB">
<feFlood flood-opacity="0" result="BackgroundImageFix"/>
<feBlend mode="normal" in="SourceGraphic" in2="BackgroundImageFix" result="shape"/>
<feGaussianBlur stdDeviation="0.5" result="effect1_foregroundBlur"/>
</filter>
<filter id="filter1_f" x="34.978" y="75.9009" width="4.49449" height="4.49449" filterUnits="userSpaceOnUse" color-interpolation-filters="sRGB">
<feFlood flood-opacity="0" result="BackgroundImageFix"/>
<feBlend mode="normal" in="SourceGraphic" in2="BackgroundImageFix" result="shape"/>
<feGaussianBlur stdDeviation="0.5" result="effect1_foregroundBlur"/>
</filter>
<filter id="filter2_f" x="72.3954" y="78.3953" width="4.49449" height="4.49449" filterUnits="userSpaceOnUse" color-interpolation-filters="sRGB">
<feFlood flood-opacity="0" result="BackgroundImageFix"/>
<feBlend mode="normal" in="SourceGraphic" in2="BackgroundImageFix" result="shape"/>
<feGaussianBlur stdDeviation="0.5" result="effect1_foregroundBlur"/>
</filter>
<filter id="filter3_f" x="28.7417" y="82.1372" width="4.49449" height="4.49449" filterUnits="userSpaceOnUse" color-interpolation-filters="sRGB">
<feFlood flood-opacity="0" result="BackgroundImageFix"/>
<feBlend mode="normal" in="SourceGraphic" in2="BackgroundImageFix" result="shape"/>
<feGaussianBlur stdDeviation="0.5" result="effect1_foregroundBlur"/>
</filter>
</defs>
</svg>
