<?xml version="1.0"?>
<svg xmlns="http://www.w3.org/2000/svg" width="111" height="111" viewBox="0 0 111 111" fill="none">
<circle cx="55.5" cy="55.5" r="55.5" fill="#D1DEFF"/>
<path d="M77.223 52.4438C72.0592 48.9398 60.3866 42.7318 54.5012 49.0107C48.5983 55.3083 58.2036 61.6947 53.1221 67.8501C50.8852 70.5597 45.281 67.4429 42.7324 69.787C39.4501 72.806 40.5076 77.6486 41.9066 81.2989C44.8729 89.0388 56.4013 96.8002 65.0032 92.6934C72.5097 89.1096 66.9613 80.9034 74.1967 78.6458C78.2635 77.3769 81.0195 81.3356 85.342 79.0261C98.4184 72.0395 84.0941 57.1063 77.223 52.4438V52.4438Z" fill="#E3EBFF"/>
<path d="M82.2918 73.0691H31.0817C29.8439 73.0691 28.8406 72.0657 28.8406 70.8279V35.0817C28.8406 33.8439 29.8439 32.8406 31.0817 32.8406H82.2918C83.5296 32.8406 84.5329 33.8439 84.5329 35.0817V70.8279C84.5329 72.0657 83.5296 73.0691 82.2918 73.0691Z" fill="#E9EDF1"/>
<path d="M83.6925 69.9875H57.5293L56.651 70.0996L55.8485 69.9875H35.8441C33.6781 69.9875 31.9221 68.2316 31.9221 66.0655V53.7952L31.698 52.9548L31.9221 52.1144V33.681V32.8406H31.0817C29.8439 32.8406 28.8406 33.8439 28.8406 35.0817V70.8279C28.8406 72.0657 29.8439 73.0691 31.0817 73.0691H82.2918C83.5296 73.0691 84.5329 72.0657 84.5329 70.8279L84.589 69.9875H83.6925Z" fill="#DCE6EB"/>
<path d="M69.9045 53.7951H66.381C65.9168 53.7951 65.5405 53.4188 65.5405 52.9547C65.5405 52.4905 65.9168 52.1143 66.381 52.1143H69.9045C70.3686 52.1143 70.7449 52.4905 70.7449 52.9547C70.7449 53.4188 70.3686 53.7951 69.9045 53.7951Z" fill="#F7F9FA"/>
<path d="M76.9514 53.7951H73.4278C72.9637 53.7951 72.5874 53.4188 72.5874 52.9547C72.5874 52.4905 72.9637 52.1143 73.4278 52.1143H76.9514C77.4155 52.1143 77.7918 52.4905 77.7918 52.9547C77.7918 53.4188 77.4155 53.7951 76.9514 53.7951Z" fill="#F7F9FA"/>
<path d="M84.5268 53.7951H80.1566C79.6924 53.7951 79.3162 53.4188 79.3162 52.9547C79.3162 52.4905 79.6924 52.1143 80.1566 52.1143H84.5268C84.991 52.1143 85.3672 52.4905 85.3672 52.9547C85.3672 53.4188 84.991 53.7951 84.5268 53.7951Z" fill="#F7F9FA"/>
<path d="M46.997 53.7951H43.4735C43.0093 53.7951 42.6331 53.4188 42.6331 52.9547C42.6331 52.4905 43.0093 52.1143 43.4735 52.1143H46.997C47.4611 52.1143 47.8374 52.4905 47.8374 52.9547C47.8374 53.4188 47.4611 53.7951 46.997 53.7951Z" fill="#F7F9FA"/>
<path d="M39.95 53.7951H36.4264C35.9622 53.7951 35.5859 53.4188 35.5859 52.9547C35.5859 52.4905 35.9622 52.1143 36.4264 52.1143H39.9499C40.414 52.1143 40.7903 52.4905 40.7903 52.9547C40.7903 53.4188 40.4141 53.7951 39.95 53.7951Z" fill="#F7F9FA"/>
<path d="M33.3227 53.7951H31.922L28.9525 53.6831C28.4883 53.6831 28.1121 53.4188 28.1121 52.9547C28.1121 52.4905 28.4883 52.2263 28.9525 52.2263L31.922 52.1143H33.3227C33.7869 52.1143 34.1631 52.4905 34.1631 52.9547C34.1631 53.4188 33.7869 53.7951 33.3227 53.7951Z" fill="#F7F9FA"/>
<path d="M56.6886 43.9342C56.2244 43.9342 55.8481 43.5579 55.8481 43.0937V39.732C55.8481 39.2679 56.2244 38.8916 56.6886 38.8916C57.1527 38.8916 57.529 39.2679 57.529 39.732V43.0937C57.529 43.5579 57.1527 43.9342 56.6886 43.9342Z" fill="#F7F9FA"/>
<path d="M56.6886 37.0987C56.2244 37.0987 55.8481 36.7224 55.8481 36.2583V32.8966C55.8481 32.4324 56.2244 32.0562 56.6886 32.0562C57.1527 32.0562 57.529 32.4324 57.529 32.8966V36.2583C57.529 36.7224 57.1527 37.0987 56.6886 37.0987Z" fill="#F7F9FA"/>
<path d="M56.6886 66.9056C56.2244 66.9056 55.8481 66.5293 55.8481 66.0652V62.7035C55.8481 62.2393 56.2244 61.863 56.6886 61.863C57.1527 61.863 57.529 62.2393 57.529 62.7035V66.0652C57.529 66.5293 57.1527 66.9056 56.6886 66.9056Z" fill="#F7F9FA"/>
<path d="M56.6886 73.8534C56.2244 73.8534 55.9602 73.4771 55.9602 73.0129L55.8481 69.9874V69.6512C55.8481 69.1871 56.2244 68.8108 56.6886 68.8108C57.1527 68.8108 57.529 69.1871 57.529 69.6512V69.9874L57.4169 73.0129C57.4169 73.4771 57.1527 73.8534 56.6886 73.8534Z" fill="#F7F9FA"/>
<path d="M28.8406 52.1226V53.7868C28.8773 53.7918 28.9145 53.7951 28.9526 53.7951H31.9221V52.1143H28.9526C28.9145 52.1143 28.8773 52.1177 28.8406 52.1226V52.1226Z" fill="#E9EDF1"/>
<path d="M55.8481 69.9873V73.0128C55.8481 73.0318 55.8497 73.0503 55.8509 73.0689H57.5262C57.5274 73.0503 57.529 73.0318 57.529 73.0128V69.9873H55.8481Z" fill="#E9EDF1"/>
<path d="M69.9044 67.0107H43.4735C43.0093 67.0107 42.6331 66.6344 42.6331 66.1703V39.7394C42.6331 39.2752 43.0093 38.8989 43.4735 38.8989H69.9044C70.3685 38.8989 70.7448 39.2752 70.7448 39.7394V66.1703C70.7448 66.6344 70.3685 67.0107 69.9044 67.0107ZM44.3138 65.3298H69.0638V40.5798H44.3138V65.3298Z" fill="#E6FFF7"/>
<path d="M45.1542 39.7023C45.1542 38.7741 44.4016 38.0215 43.4733 38.0215C43.3037 38.0215 43.1397 38.0466 42.9853 38.0934C42.2949 38.3025 41.9045 38.9437 41.9045 39.7023C41.9045 40.6306 42.5451 41.2711 43.4733 41.2711C44.232 41.2711 44.8732 40.8806 45.0823 40.1903C45.129 40.0358 45.1542 39.872 45.1542 39.7023Z" fill="#01FFB3"/>
<path d="M71.5851 39.7023C71.5851 38.7741 70.8325 38.0215 69.9042 38.0215C69.7346 38.0215 69.5707 38.0466 69.4162 38.0934C68.7259 38.3025 68.3354 38.9437 68.3354 39.7023C68.3354 40.6306 68.976 41.2711 69.9042 41.2711C70.6629 41.2711 71.3041 40.8806 71.5132 40.1903C71.5599 40.0358 71.5851 39.872 71.5851 39.7023Z" fill="#01FFB3"/>
<path d="M45.1542 66.1335C45.1542 65.2052 44.4016 64.4526 43.4733 64.4526C43.3037 64.4526 43.1397 64.4777 42.9853 64.5246C42.2949 64.7337 41.9045 65.3749 41.9045 66.1335C41.9045 67.0618 42.5451 67.7023 43.4733 67.7023C44.232 67.7023 44.8732 67.3118 45.0823 66.6215C45.129 66.467 45.1542 66.3031 45.1542 66.1335Z" fill="#01FFB3"/>
<path d="M71.5851 66.1335C71.5851 65.2052 70.8325 64.4526 69.9042 64.4526C69.7346 64.4526 69.5707 64.4777 69.4162 64.5246C68.7259 64.7337 68.3354 65.3749 68.3354 66.1335C68.3354 67.0618 68.976 67.7023 69.9042 67.7023C70.6629 67.7023 71.3041 67.3118 71.5132 66.6215C71.5599 66.467 71.5851 66.3031 71.5851 66.1335Z" fill="#01FFB3"/>
<path d="M74.2334 58.5494L76.1806 63.7544C76.3214 64.1253 76.8457 64.1265 76.988 63.7563L77.471 62.6127L77.6254 62.2113C77.7717 61.8309 78.0724 61.5302 78.4528 61.3839L80.1097 60.7466C80.4799 60.6042 80.4788 60.0799 80.1078 59.9393L75.8434 58.3217L74.7907 57.9919C74.4424 57.8599 74.1013 58.201 74.2334 58.5494V58.5494Z" fill="#8E80F5"/>
<path d="M75.8435 58.3218L74.6787 57.8799C74.3304 57.7478 73.9893 58.0889 74.1214 58.4373L76.1806 63.8663C76.3214 64.2372 76.8457 64.2385 76.988 63.8682L77.4709 62.6126L75.8435 58.3218Z" fill="#3422B7"/>
<path d="M60.7584 77.3039L59.4369 73.1809H53.9362L52.6147 77.3039L56.6887 78.4245L60.7584 77.3039Z" fill="#3422B7"/>
<path d="M64.4139 81.3611C65.0353 81.3611 65.539 81.0799 65.539 80.4567V80.2326C65.539 79.924 65.719 79.8499 65.6365 79.568C65.254 78.2595 64.0484 77.304 62.6203 77.304H56.6885H50.7526C50.5041 77.304 50.2623 77.3329 50.0303 77.3877C48.6428 77.715 47.834 78.8527 47.834 80.3446C47.834 80.9679 48.3377 81.4731 48.959 81.4731L64.4139 81.3611Z" fill="#8E80F5"/>
<path d="M50.9761 79.568C50.3547 79.568 49.851 79.0628 49.851 78.4395C49.851 78.0709 49.9147 77.7172 50.0306 77.3884C48.6431 77.7157 47.6099 78.9647 47.6099 80.4565C47.6099 81.0798 48.1136 81.5851 48.7349 81.5851H64.6381C65.2594 81.5851 65.7631 81.0798 65.7631 80.4565C65.7631 80.1479 65.7181 79.85 65.6357 79.568H50.9761Z" fill="#3422B7"/>
<path d="M56.6863 62.6443C62.0377 62.6443 66.376 58.306 66.376 52.9546C66.376 47.6031 62.0377 43.2649 56.6863 43.2649C51.3348 43.2649 46.9966 47.6031 46.9966 52.9546C46.9966 58.306 51.3348 62.6443 56.6863 62.6443Z" fill="#FF6BAE"/>
<path d="M56.6863 56.4782C62.0377 56.4782 66.376 54.9007 66.376 52.9547C66.376 51.0087 62.0377 49.4312 56.6863 49.4312C51.3348 49.4312 46.9966 51.0087 46.9966 52.9547C46.9966 54.9007 51.3348 56.4782 56.6863 56.4782Z" fill="#F12883"/>
<path d="M56.6866 62.6443C58.6326 62.6443 60.2101 58.306 60.2101 52.9546C60.2101 47.6031 58.6326 43.2649 56.6866 43.2649C54.7406 43.2649 53.1631 47.6031 53.1631 52.9546C53.1631 58.306 54.7406 62.6443 56.6866 62.6443Z" fill="#FF3791"/>
<path d="M53.3745 49.6426C53.2378 50.6761 53.1631 51.7913 53.1631 52.9547C53.1631 54.1181 53.2378 55.2334 53.3745 56.2667C54.408 56.4035 55.5232 56.4782 56.6866 56.4782C57.85 56.4782 58.9653 56.4035 59.9988 56.2667C60.1355 55.2332 60.2102 54.1181 60.2102 52.9547C60.2102 51.7913 60.1355 50.676 59.9988 49.6426C58.9653 49.5059 57.8501 49.4312 56.6866 49.4312C55.5231 49.4312 54.4079 49.5059 53.3745 49.6426V49.6426Z" fill="#B52A44"/>
<path d="M82.2916 73.9093H31.0816C29.3823 73.9093 28 72.527 28 70.8278V35.0816C28 33.3823 29.3823 32 31.0816 32H82.2916C83.9909 32 85.3732 33.3823 85.3732 35.0816V70.8278C85.3732 72.527 83.9909 73.9093 82.2916 73.9093ZM31.0816 33.6809C30.3092 33.6809 29.6809 34.3092 29.6809 35.0816V70.8278C29.6809 71.6002 30.3092 72.2285 31.0816 72.2285H82.2916C83.0641 72.2285 83.6924 71.6002 83.6924 70.8278V35.0816C83.6924 34.3092 83.0641 33.6809 82.2916 33.6809H31.0816Z" fill="#3422B7"/>
<g filter="url(#filter0_f)">
<rect x="67.9119" y="85.6316" width="2.49449" height="2.49449" fill="#FF3896"/>
</g>
<g filter="url(#filter1_f)">
<rect x="40.4724" y="79.3953" width="2.49449" height="2.49449" transform="rotate(180 40.4724 79.3953)" fill="#FF3896"/>
</g>
<g filter="url(#filter2_f)">
<rect x="75.3953" y="79.3953" width="2.49449" height="2.49449" fill="#01FFB3"/>
</g>
<g filter="url(#filter3_f)">
<rect x="34.2361" y="85.6316" width="2.49449" height="2.49449" transform="rotate(180 34.2361 85.6316)" fill="#01FFB3"/>
</g>
<defs>
<filter id="filter0_f" x="66.9119" y="84.6316" width="4.49449" height="4.49449" filterUnits="userSpaceOnUse" color-interpolation-filters="sRGB">
<feFlood flood-opacity="0" result="BackgroundImageFix"/>
<feBlend mode="normal" in="SourceGraphic" in2="BackgroundImageFix" result="shape"/>
<feGaussianBlur stdDeviation="0.5" result="effect1_foregroundBlur"/>
</filter>
<filter id="filter1_f" x="36.978" y="75.9009" width="4.49449" height="4.49449" filterUnits="userSpaceOnUse" color-interpolation-filters="sRGB">
<feFlood flood-opacity="0" result="BackgroundImageFix"/>
<feBlend mode="normal" in="SourceGraphic" in2="BackgroundImageFix" result="shape"/>
<feGaussianBlur stdDeviation="0.5" result="effect1_foregroundBlur"/>
</filter>
<filter id="filter2_f" x="74.3953" y="78.3953" width="4.49449" height="4.49449" filterUnits="userSpaceOnUse" color-interpolation-filters="sRGB">
<feFlood flood-opacity="0" result="BackgroundImageFix"/>
<feBlend mode="normal" in="SourceGraphic" in2="BackgroundImageFix" result="shape"/>
<feGaussianBlur stdDeviation="0.5" result="effect1_foregroundBlur"/>
</filter>
<filter id="filter3_f" x="30.7417" y="82.1372" width="4.49449" height="4.49449" filterUnits="userSpaceOnUse" color-interpolation-filters="sRGB">
<feFlood flood-opacity="0" result="BackgroundImageFix"/>
<feBlend mode="normal" in="SourceGraphic" in2="BackgroundImageFix" result="shape"/>
<feGaussianBlur stdDeviation="0.5" result="effect1_foregroundBlur"/>
</filter>
</defs>
</svg>
