<?xml version="1.0"?>
<svg xmlns="http://www.w3.org/2000/svg" width="111" height="111" viewBox="0 0 111 111" fill="none">
<circle cx="55.5" cy="55.5" r="55.5" fill="#DAFFF3"/>
<path d="M22.3729 65.2203C22.3729 62.3916 23.9955 59.7396 26.83 57.4565C28.8024 55.8678 30.4446 54.0479 31.698 52.0561C35.7063 45.6867 42.5405 41.4915 50.2983 41.4915C55.8111 41.4915 60.8573 43.6104 64.7547 47.1224C67.3344 49.447 70.5917 51.2302 74.226 52.3815C83.0292 55.1704 88.8136 59.8797 88.8136 65.2203C88.8136 70.5609 83.0292 75.2702 74.226 78.0591C70.5917 79.2105 67.3344 80.9935 64.7545 83.3182C60.8571 86.8301 55.811 88.9491 50.2981 88.9491C42.5404 88.9491 35.7062 84.7539 31.6979 78.3844C30.4444 76.3926 28.8022 74.5727 26.8299 72.9841C23.9955 70.7008 22.3729 68.049 22.3729 65.2203Z" fill="#B5E8D8"/>
<path d="M74.589 32.6953H33.0381C30.8369 32.6953 29.0524 34.3553 29.0524 36.4029V75.0549C29.0524 77.1026 30.8369 78.7626 33.0381 78.7626H74.589C76.7902 78.7626 78.5747 77.1026 78.5747 75.0549V36.4029C78.5747 34.3553 76.7902 32.6953 74.589 32.6953Z" fill="#E6F7FE"/>
<path d="M73.2937 78.7626H74.589C76.7901 78.7626 78.5747 77.1025 78.5747 75.055V36.4029C78.5747 34.3554 76.7901 32.6953 74.589 32.6953H73.2937C75.4948 32.6953 77.2794 34.3554 77.2794 36.4029V75.055C77.2794 77.1025 75.4948 78.7626 73.2937 78.7626Z" fill="#D3EFFD"/>
<path d="M59.6734 51.4189H73.1634C73.8406 51.4189 74.3898 50.9082 74.3898 50.2781V37.7292C74.3898 37.0992 73.8407 36.5884 73.1634 36.5884H59.6733C58.996 36.5884 58.4469 37.0991 58.4469 37.7292V50.2781C58.447 50.9082 58.996 51.4189 59.6734 51.4189Z" fill="#FF3791"/>
<path d="M49.1802 50.278V37.7292C49.1802 37.0992 48.6311 36.5884 47.9538 36.5884H34.4637C33.7864 36.5884 33.2373 37.0991 33.2373 37.7292V50.2781C33.2373 50.9082 33.7863 51.419 34.4637 51.419H47.9538C48.6311 51.4189 49.1802 50.9082 49.1802 50.278Z" fill="#FF3791"/>
<path d="M47.9538 60.0391H34.4637C33.7864 60.0391 33.2373 60.5498 33.2373 61.1799V73.7288C33.2373 74.3588 33.7863 74.8697 34.4637 74.8697H47.9538C48.631 74.8697 49.1802 74.3589 49.1802 73.7288V61.1799C49.1802 60.5498 48.6311 60.0391 47.9538 60.0391Z" fill="#FF3791"/>
<path d="M58.447 61.1799V73.7288C58.447 74.3588 58.996 74.8697 59.6734 74.8697H73.1634C73.8406 74.8697 74.3898 74.3589 74.3898 73.7288V61.1799C74.3898 60.5499 73.8407 60.0391 73.1634 60.0391H59.6733C58.996 60.0391 58.447 60.5498 58.447 61.1799Z" fill="#FF3791"/>
<path d="M41.2088 69.308H66.4183C67.2438 69.308 67.913 68.6855 67.913 67.9177V43.54C67.913 42.7722 67.2438 42.1497 66.4183 42.1497H41.2088C40.3833 42.1497 39.7141 42.7722 39.7141 43.54V67.9177C39.7141 68.6855 40.3833 69.308 41.2088 69.308ZM64.9237 66.5273H42.7034V44.9304H64.9237V66.5273Z" fill="#3422B7"/>
<path d="M66.4183 70.6983C64.4922 70.6983 62.9308 69.2458 62.9308 67.4541C62.9308 65.6624 64.4922 64.21 66.4183 64.21C68.3444 64.21 69.9058 65.6624 69.9058 67.4541C69.9058 69.2458 68.3444 70.6983 66.4183 70.6983Z" fill="#3422B7"/>
<path d="M66.4183 47.2476C64.4922 47.2476 62.9308 45.7952 62.9308 44.0035C62.9308 42.2117 64.4922 40.7593 66.4183 40.7593C68.3444 40.7593 69.9058 42.2117 69.9058 44.0035C69.9058 45.7952 68.3444 47.2476 66.4183 47.2476Z" fill="#3422B7"/>
<path d="M41.2087 47.2476C39.2826 47.2476 37.7212 45.7952 37.7212 44.0035C37.7212 42.2117 39.2826 40.7593 41.2087 40.7593C43.1348 40.7593 44.6962 42.2117 44.6962 44.0035C44.6962 45.7952 43.1348 47.2476 41.2087 47.2476Z" fill="#3422B7"/>
<path d="M41.2087 70.6983C39.2826 70.6983 37.7212 69.2458 37.7212 67.4541C37.7212 65.6624 39.2826 64.21 41.2087 64.21C43.1348 64.21 44.6962 65.6624 44.6962 67.4541C44.6962 69.2458 43.1348 70.6983 41.2087 70.6983Z" fill="#3422B7"/>
<path d="M33.0382 32H68.6604C69.0732 32 69.4077 32.3112 69.4077 32.6952C69.4077 33.0792 69.0732 33.3904 68.6604 33.3904H33.0382C31.2525 33.3904 29.7998 34.7417 29.7998 36.4028V75.0548C29.7998 76.7159 31.2525 78.0673 33.0382 78.0673H74.5891C76.3748 78.0673 77.8275 76.7159 77.8275 75.0548V36.4028C77.8275 34.7417 76.3748 33.3904 74.5891 33.3904H72.1479C71.7351 33.3904 71.4006 33.0792 71.4006 32.6952C71.4006 32.3112 71.7351 32 72.1479 32H74.5891C77.1989 32 79.3221 33.9751 79.3221 36.4028V75.0548C79.3221 77.4825 77.1989 79.4576 74.5891 79.4576H33.0382C30.4285 79.4576 28.3052 77.4825 28.3052 75.0548V36.4028C28.3052 33.9751 30.4285 32 33.0382 32Z" fill="#01FFB3"/>
<path d="M59.6732 35.8931H73.1632C74.2515 35.8931 75.137 36.7167 75.137 37.7291V50.278C75.137 51.2903 74.2515 52.1139 73.1632 52.1139H68.6602V59.3438H73.1632C74.2515 59.3438 75.137 60.1675 75.137 61.1798V73.7288C75.137 74.741 74.2515 75.5647 73.1632 75.5647H59.6731C58.5849 75.5647 57.6994 74.741 57.6994 73.7287V70.0032H49.9273V73.7287C49.9273 74.741 49.0419 75.5647 47.9536 75.5647H34.4635C33.3752 75.5647 32.4898 74.741 32.4898 73.7287V61.1798C32.4898 60.1675 33.3752 59.3438 34.4635 59.3438H38.9667V57.8608C38.9667 57.4767 39.3012 57.1656 39.7141 57.1656C40.1269 57.1656 40.4614 57.4767 40.4614 57.8608V63.5775C40.7042 63.5371 40.9536 63.5149 41.2087 63.5149C41.4638 63.5149 41.7132 63.5371 41.956 63.5775V47.8802C41.7132 47.9206 41.4638 47.9429 41.2087 47.9429C40.9536 47.9429 40.7042 47.9206 40.4614 47.8802V54.6166C40.4614 55.0006 40.1269 55.3118 39.7141 55.3118C39.3012 55.3118 38.9667 55.0006 38.9667 54.6166V52.1139H34.4637C33.3754 52.1139 32.49 51.2903 32.49 50.2779V37.7291C32.49 36.7167 33.3754 35.8931 34.4637 35.8931H47.9537C49.042 35.8931 49.9274 36.7167 49.9274 37.7291V41.4545H57.6995V37.7291C57.6995 36.7167 58.585 35.8931 59.6732 35.8931ZM45.2563 42.8449C45.3777 43.2114 45.4435 43.6004 45.4435 44.0035C45.4435 44.0814 45.4404 44.1585 45.4355 44.2352H52.0199C52.4327 44.2352 52.7672 44.5464 52.7672 44.9304C52.7672 45.3144 52.4327 45.6256 52.0199 45.6256H49.9274V50.2779C49.9274 51.2903 49.042 52.1139 47.9537 52.1139H43.4507V59.3438H47.9537C49.042 59.3438 49.9274 60.1675 49.9274 61.1798V65.8322H57.6995V64.9052C57.6995 64.5212 58.034 64.2101 58.4468 64.2101C58.8597 64.2101 59.1942 64.5212 59.1942 64.9052V65.8322H62.5607C62.9068 65.1227 63.4721 64.525 64.1763 64.1145V60.7342H59.6732C59.4091 60.7342 59.1942 60.934 59.1942 61.1798V61.6611C59.1942 62.0451 58.8597 62.3563 58.4468 62.3563C58.034 62.3563 57.6995 62.0451 57.6995 61.6611V61.1798C57.6995 60.1675 58.585 59.3438 59.6732 59.3438H64.1763V52.1139H59.6732C58.585 52.1139 57.6995 51.2903 57.6995 50.2779V45.6256H55.5074C55.0946 45.6256 54.7601 45.3144 54.7601 44.9304C54.7601 44.5464 55.0946 44.2352 55.5074 44.2352H62.1914C62.1866 44.1585 62.1834 44.0814 62.1834 44.0035C62.1834 43.6004 62.2491 43.2114 62.3707 42.8449H45.2563ZM45.2563 68.6129H62.3707C62.2492 68.2464 62.1834 67.8574 62.1834 67.4542C62.1834 67.3764 62.1865 67.2993 62.1914 67.2225H45.4355C45.4403 67.2993 45.4435 67.3764 45.4435 67.4542C45.4435 67.8574 45.3778 68.2464 45.2563 68.6129ZM64.1763 47.3432C63.472 46.9327 62.9068 46.335 62.5607 45.6256H59.1942V50.2779C59.1942 50.5236 59.409 50.7236 59.6732 50.7236H64.1763V47.3432ZM63.6781 44.0035C63.6781 45.409 64.9074 46.5525 66.4182 46.5525C67.9291 46.5525 69.1584 45.409 69.1584 44.0035C69.1584 42.598 67.9291 41.4545 66.4182 41.4545C64.9074 41.4545 63.6781 42.598 63.6781 44.0035ZM67.1656 47.8802C66.9227 47.9206 66.6733 47.9429 66.4182 47.9429C66.1632 47.9429 65.9138 47.9206 65.6709 47.8802V63.5775C65.9138 63.5371 66.1632 63.5149 66.4182 63.5149C66.6733 63.5149 66.9227 63.5371 67.1656 63.5775V47.8802ZM66.4182 64.9052C64.9074 64.9052 63.6781 66.0488 63.6781 67.4542C63.6781 68.8597 64.9074 70.0032 66.4182 70.0032C67.9291 70.0032 69.1584 68.8597 69.1584 67.4542C69.1584 66.0488 67.9291 64.9052 66.4182 64.9052ZM73.1632 50.7236C73.4274 50.7236 73.6423 50.5237 73.6423 50.2779V37.7291C73.6423 37.4833 73.4275 37.2834 73.1632 37.2834H59.6731C59.409 37.2834 59.1941 37.4833 59.1941 37.7291V41.4545H63.1931C63.9705 40.6047 65.1274 40.0641 66.4181 40.0641C68.7534 40.0641 70.6531 41.8313 70.6531 44.0035C70.6531 45.4102 69.8558 46.6462 68.6602 47.3432V50.7236H73.1632ZM59.1942 73.7287C59.1942 73.9744 59.409 74.1743 59.6732 74.1743H73.1632C73.4274 74.1743 73.6423 73.9745 73.6423 73.7287V61.1798C73.6423 60.9341 73.4275 60.7342 73.1632 60.7342H68.6602V64.1145C69.8558 64.8115 70.6531 66.0476 70.6531 67.4542C70.6531 69.6264 68.7534 71.3936 66.4182 71.3936C65.1276 71.3936 63.9706 70.853 63.1932 70.0032H59.1942V73.7287ZM38.9667 60.7342H34.4637C34.1996 60.7342 33.9846 60.934 33.9846 61.1798V73.7288C33.9846 73.9745 34.1995 74.1744 34.4637 74.1744H47.9537C48.2179 74.1744 48.4328 73.9746 48.4328 73.7288V70.0032H44.4337C43.6563 70.853 42.4995 71.3936 41.2087 71.3936C38.8736 71.3936 36.9739 69.6264 36.9739 67.4542C36.9739 66.0476 37.7711 64.8115 38.9667 64.1145V60.7342ZM38.4685 67.4542C38.4685 68.8597 39.6978 70.0032 41.2087 70.0032C42.7196 70.0032 43.9489 68.8597 43.9489 67.4542C43.9489 66.0488 42.7196 64.9052 41.2087 64.9052C39.6978 64.9052 38.4685 66.0488 38.4685 67.4542ZM45.0663 65.8322H48.4328V61.1798C48.4328 60.9341 48.218 60.7342 47.9537 60.7342H43.4507V64.1145C44.1549 64.525 44.7201 65.1227 45.0663 65.8322ZM43.4507 50.7236H47.9537C48.2179 50.7236 48.4328 50.5237 48.4328 50.2779V45.6256H45.0663C44.7201 46.335 44.1548 46.9327 43.4507 47.3432V50.7236ZM43.9489 44.0035C43.9489 42.598 42.7196 41.4545 41.2087 41.4545C39.6978 41.4545 38.4685 42.598 38.4685 44.0035C38.4685 45.409 39.6978 46.5525 41.2087 46.5525C42.7196 46.5525 43.9489 45.409 43.9489 44.0035ZM48.4328 37.7291C48.4328 37.4834 48.218 37.2834 47.9537 37.2834H34.4636C34.1995 37.2834 33.9845 37.4833 33.9845 37.7291V50.278C33.9845 50.5237 34.1994 50.7237 34.4636 50.7237H38.9667V47.3433C37.7711 46.6463 36.9739 45.4103 36.9739 44.0036C36.9739 41.8314 38.8736 40.0642 41.2087 40.0642C42.4994 40.0642 43.6563 40.6048 44.4337 41.4546H48.4328V37.7291Z" fill="#01FFB3"/>
<g filter="url(#filter0_f)">
<rect x="87.6271" y="52.1694" width="2.37288" height="2.37288" fill="#01FFB3"/>
</g>
<g filter="url(#filter1_f)">
<rect x="82.8813" y="58.1016" width="2.37288" height="2.37288" fill="#FF3791"/>
</g>
<g filter="url(#filter2_f)">
<rect x="20" y="68.7798" width="2.37288" height="2.37288" fill="#FF3791"/>
</g>
<g filter="url(#filter3_f)">
<rect x="34.2372" y="81.8306" width="2.37288" height="2.37288" fill="#FF3791"/>
</g>
<g filter="url(#filter4_f)">
<rect x="86.4407" y="69.9661" width="2.37288" height="2.37288" fill="#3422B7"/>
</g>
<g filter="url(#filter5_f)">
<rect x="22.3729" y="55.729" width="2.37288" height="2.37288" fill="#3422B7"/>
</g>
<defs>
<filter id="filter0_f" x="86.6271" y="51.1694" width="4.37288" height="4.37288" filterUnits="userSpaceOnUse" color-interpolation-filters="sRGB">
<feFlood flood-opacity="0" result="BackgroundImageFix"/>
<feBlend mode="normal" in="SourceGraphic" in2="BackgroundImageFix" result="shape"/>
<feGaussianBlur stdDeviation="0.5" result="effect1_foregroundBlur"/>
</filter>
<filter id="filter1_f" x="81.8813" y="57.1016" width="4.37288" height="4.37288" filterUnits="userSpaceOnUse" color-interpolation-filters="sRGB">
<feFlood flood-opacity="0" result="BackgroundImageFix"/>
<feBlend mode="normal" in="SourceGraphic" in2="BackgroundImageFix" result="shape"/>
<feGaussianBlur stdDeviation="0.5" result="effect1_foregroundBlur"/>
</filter>
<filter id="filter2_f" x="19" y="67.7798" width="4.37288" height="4.37288" filterUnits="userSpaceOnUse" color-interpolation-filters="sRGB">
<feFlood flood-opacity="0" result="BackgroundImageFix"/>
<feBlend mode="normal" in="SourceGraphic" in2="BackgroundImageFix" result="shape"/>
<feGaussianBlur stdDeviation="0.5" result="effect1_foregroundBlur"/>
</filter>
<filter id="filter3_f" x="33.2372" y="80.8306" width="4.37288" height="4.37288" filterUnits="userSpaceOnUse" color-interpolation-filters="sRGB">
<feFlood flood-opacity="0" result="BackgroundImageFix"/>
<feBlend mode="normal" in="SourceGraphic" in2="BackgroundImageFix" result="shape"/>
<feGaussianBlur stdDeviation="0.5" result="effect1_foregroundBlur"/>
</filter>
<filter id="filter4_f" x="85.4407" y="68.9661" width="4.37288" height="4.37288" filterUnits="userSpaceOnUse" color-interpolation-filters="sRGB">
<feFlood flood-opacity="0" result="BackgroundImageFix"/>
<feBlend mode="normal" in="SourceGraphic" in2="BackgroundImageFix" result="shape"/>
<feGaussianBlur stdDeviation="0.5" result="effect1_foregroundBlur"/>
</filter>
<filter id="filter5_f" x="21.3729" y="54.729" width="4.37288" height="4.37288" filterUnits="userSpaceOnUse" color-interpolation-filters="sRGB">
<feFlood flood-opacity="0" result="BackgroundImageFix"/>
<feBlend mode="normal" in="SourceGraphic" in2="BackgroundImageFix" result="shape"/>
<feGaussianBlur stdDeviation="0.5" result="effect1_foregroundBlur"/>
</filter>
</defs>
</svg>
