<svg width="40" height="59" viewBox="0 0 40 59" fill="none" xmlns="http://www.w3.org/2000/svg">
<rect width="40" height="59" fill="#E5E5E5"/>
<path d="M16.146 33.1412L12.5868 29.5006L16.1455 25.86C16.7033 25.2895 16.7033 24.3653 16.1455 23.7951C15.5878 23.2245 14.6844 23.2245 14.1271 23.7951L9.55894 28.4684C9.00119 29.039 9.00119 29.9632 9.55894 30.5333L14.1271 35.2066C14.4059 35.4919 14.7715 35.6342 15.1365 35.6342C15.5016 35.6342 15.8671 35.4919 16.146 35.2066C16.7033 34.636 16.7033 33.7118 16.146 33.1411L16.146 33.1412Z" fill="#00947E"/>
<path d="M29.8408 28.4679L25.2727 23.7946C24.715 23.2241 23.8116 23.2241 23.2543 23.7946C22.6965 24.3652 22.6965 25.2894 23.2543 25.8596L26.8129 29.5007L23.2543 33.1413C22.6965 33.7119 22.6965 34.6361 23.2543 35.2062C23.5326 35.492 23.8982 35.6344 24.2632 35.6344C24.6283 35.6344 24.9938 35.492 25.2727 35.2067L29.8408 30.5335C30.3981 29.9629 30.3981 29.0387 29.8408 28.468L29.8408 28.4679Z" fill="#00947E"/>
<path d="M22.4325 21.1041C21.681 20.8496 20.8754 21.2632 20.6261 22.0278L16.058 36.0476C15.8087 36.8133 16.213 37.6405 16.9609 37.8955C17.1108 37.9461 17.2633 37.9706 17.4126 37.9706C18.0102 37.9706 18.5674 37.5831 18.7673 36.9718L23.3354 22.9521C23.5847 22.1864 23.1804 21.3592 22.4325 21.1041H22.4325Z" fill="#E74C3C"/>
<path d="M33.4044 0H5.99572C2.68945 0 0 2.75121 0 6.13372V52.8663C0 56.2487 2.68932 59 5.99572 59H33.4044C36.7107 59 39.4001 56.2488 39.4001 52.8663V6.13372C39.4001 2.75135 36.7108 0 33.4044 0ZM2.85547 30.6379C3.09662 30.8282 3.38417 30.9602 3.71199 30.9602H5.99605C6.78476 30.9602 7.42365 30.3067 7.42365 29.4998C7.42365 28.6928 6.78483 28.0393 5.99605 28.0393H3.71199C3.38417 28.0393 3.09662 28.1712 2.85547 28.3616V12.2669H36.5447V28.3616C36.3035 28.1713 36.016 28.0393 35.6881 28.0393H33.4041C32.6154 28.0393 31.9765 28.6928 31.9765 29.4998C31.9765 30.3067 32.6153 30.9602 33.4041 30.9602H35.6881C36.016 30.9602 36.3035 30.8283 36.5447 30.6379V46.7326H2.85547V30.6379ZM2.85547 6.13398C2.85547 4.36215 4.26414 2.92119 5.99598 2.92119H33.4047C35.1367 2.92119 36.5452 4.36229 36.5452 6.13398V9.34678H2.85599L2.85547 6.13398ZM36.5447 52.8666C36.5447 54.6384 35.136 56.0794 33.4042 56.0794H5.99546C4.26349 56.0794 2.85494 54.6383 2.85494 52.8666V49.6538H36.5442L36.5447 52.8666Z" fill="#293D7C"/>
<path d="M21.9801 4.67322H17.412C16.6233 4.67322 15.9844 5.32674 15.9844 6.13368C15.9844 6.94062 16.6232 7.59414 17.412 7.59414H21.9801C22.7688 7.59414 23.4077 6.94062 23.4077 6.13368C23.4077 5.32674 22.7689 4.67322 21.9801 4.67322Z" fill="#FFCE31"/>
<path d="M15.1307 54.3269H24.267C25.0557 54.3269 25.6946 53.6734 25.6946 52.8665C25.6946 52.0595 25.0557 51.406 24.267 51.406H15.1307C14.342 51.406 13.7031 52.0595 13.7031 52.8665C13.7031 53.6734 14.3419 54.3269 15.1307 54.3269Z" fill="#FFCE31"/>
</svg>
