<svg width="55" height="60" viewBox="0 0 55 60" fill="none" xmlns="http://www.w3.org/2000/svg">
<path d="M54.0498 2.20318H49.0421C48.5241 2.20318 48.1787 2.56739 48.1787 3.1135V3.75054C42.9981 2.29416 42.5665 1.56575 42.3077 1.47477C41.7897 1.2015 36.7816 -1.25615 34.1915 0.837718L28.9246 5.3897L27.8021 5.0255V3.11355C27.8021 2.56745 27.4567 2.20324 26.9388 2.20324H21.8445C21.3265 2.20324 20.9811 2.56744 20.9811 3.11355V9.48618H9.32453C8.80659 9.48618 8.46116 9.85038 8.46116 10.3965V40.5295L0.86337 40.53C0.345433 40.53 0 40.8942 0 41.4403V53.7306C0 56.7348 2.24502 59.1019 5.09429 59.1019H39.717C42.5663 59.1019 44.8113 56.6438 44.8113 53.7306V21.1395V20.9576C46.4518 21.5037 47.9198 20.6843 48.0061 18.1353C48.0061 17.862 47.9198 17.6801 47.8335 17.4982H48.179V20.1382C48.179 20.6842 48.5244 21.0485 49.0423 21.0485H54.1366C54.6546 21.0485 55 20.6843 55 20.1382L54.9992 3.11408C54.9126 2.56798 54.5675 2.20376 54.0492 2.20376L54.0498 2.20318ZM22.7078 4.02426H26.075V19.2276H22.7078V4.02426ZM1.72696 53.7296V42.3502H8.46142V53.7296C8.46142 55.7325 6.90725 57.2799 5.09419 57.2799C3.19454 57.2799 1.72696 55.6412 1.72696 53.7292V53.7296ZM39.7169 57.2803H8.89288C9.66999 56.37 10.188 55.0955 10.188 53.821V53.7301L10.1884 11.3077H20.981V20.1384C20.981 20.6845 21.3264 21.0487 21.8444 21.0487H26.9387C27.4566 21.0487 27.802 20.6845 27.802 20.1384V17.9536C28.0612 18.0446 28.4062 18.2269 28.5792 18.4997L28.6654 18.5907C29.615 19.41 34.1915 23.3245 35.659 23.9619C35.8316 24.0529 36.3499 24.3261 37.0403 24.3261C37.3858 24.3261 37.7312 24.2352 38.0767 24.0529C38.3358 23.871 38.5946 23.6887 38.7675 23.2335C39.3717 23.5068 40.0626 23.5977 40.6672 23.3245C41.0126 23.1426 41.358 22.8693 41.6168 22.3232C42.0485 22.5965 42.6531 22.6874 43.171 22.6874V53.8215C43.0839 55.6417 41.6164 57.2804 39.7167 57.2804L39.7169 57.2803ZM45.9334 19.2269C45.6742 19.4088 45.07 19.136 44.6383 18.8627L43.257 16.7688C42.9979 16.3137 42.4799 16.2227 42.0482 16.4956C41.6165 16.7688 41.5303 17.3149 41.7891 17.7701L43.1703 19.9549C43.0841 20.5919 42.9978 20.7742 42.9112 20.7742C42.7387 20.8652 42.0478 20.501 41.5299 20.1372L40.0619 17.9524C39.8027 17.4972 39.2848 17.4063 38.8531 17.6791C38.4214 17.9524 38.3352 18.4985 38.5939 18.9537L39.9752 21.0476C39.889 21.3208 39.8027 21.5027 39.716 21.5027C39.4569 21.5937 38.8527 21.3208 38.5072 21.0476L37.0393 18.8628C36.7801 18.4076 36.2621 18.3167 35.8304 18.5895C35.3988 18.8628 35.3125 19.4089 35.5713 19.864L36.9526 21.958C36.9526 22.2312 36.8663 22.3222 36.8663 22.3222C36.78 22.4131 36.4346 22.3222 36.1754 22.1403C36.1754 22.1403 36.0892 22.1403 36.0892 22.0493C35.3121 21.7761 31.7719 18.9542 29.6135 17.0422C29.0093 16.4052 28.2322 16.041 27.6276 15.8587L27.6288 8.57576C28.0604 9.39512 28.7513 9.94127 28.9239 10.1236C32.8094 12.6726 37.1262 8.30292 37.3854 8.12063C37.4716 8.02968 37.5579 7.93874 37.6445 7.93874L46.1061 18.3168C46.1923 18.8629 46.0198 19.1362 45.9332 19.2271L45.9334 19.2269ZM46.6243 16.0409L38.9398 6.5732C38.8535 6.48225 38.7673 6.39131 38.6806 6.29994C38.2489 6.11805 37.1264 5.93574 36.3493 6.84604C36.3493 6.84604 32.8092 10.3963 30.1328 8.66668C29.7011 8.30248 29.2694 7.75637 29.2694 7.39215C29.2694 7.21026 29.5286 7.11889 29.6148 7.02795L29.7011 6.937H29.7874L35.2271 2.20316C36.6951 1.01961 40.2348 2.38505 41.4436 3.02252C42.739 4.11518 46.4517 5.11643 48.1785 5.57157V15.5854C47.6606 15.5858 47.056 15.6767 46.6243 16.041L46.6243 16.0409ZM53.1861 19.2269H49.9052V4.02361H53.2724V19.2269H53.1861Z" fill="#293D7C"/>
<path d="M21.8449 28.6944C21.3269 28.6944 20.9815 29.0586 20.9815 29.6047C20.9815 30.1508 21.3269 30.515 21.8449 30.515H39.8899C40.4078 30.515 40.7533 30.1508 40.7533 29.6047C40.7537 27.8751 38.9403 29.0586 21.8443 28.6944H21.8449Z" fill="#E74C3C"/>
<path d="M39.8899 38.8904H21.8438C21.3259 38.8904 20.9805 39.2546 20.9805 39.8008C20.9805 40.3469 21.3259 40.7111 21.8438 40.7111H39.8889C40.4068 40.7111 40.7523 40.3469 40.7523 39.8008C40.7527 39.2547 40.4072 38.8904 39.8893 38.8904H39.8899Z" fill="#FFCE31"/>
<path d="M39.8899 49.1776H21.8438C21.3259 49.1776 20.9805 49.5418 20.9805 50.0879C20.9805 50.634 21.3259 50.9982 21.8438 50.9982H39.8889C40.4068 50.9982 40.7523 50.634 40.7523 50.0879C40.7527 49.5418 40.4072 49.1776 39.8893 49.1776H39.8899Z" fill="#00947E"/>
<path d="M17.9597 26.6923L14.3333 30.5159L13.4699 29.6056C13.1245 29.2414 12.6065 29.2414 12.2611 29.6056C11.9157 29.9698 11.9157 30.5159 12.2611 30.8801L13.8153 32.5188C14.1607 32.883 14.6786 32.883 15.0241 32.5188L19.2546 28.0582C19.6 27.694 19.6 27.1479 19.2546 26.7837C18.9092 26.4195 18.305 26.4195 17.9595 26.6923L17.9597 26.6923Z" fill="#293D7C"/>
<path d="M17.9597 36.9785L14.3333 40.802L13.4699 39.8917C13.1245 39.5275 12.6065 39.5275 12.2611 39.8917C11.9157 40.2559 11.9157 40.802 12.2611 41.1663L13.8153 42.8049C14.1607 43.1691 14.6786 43.1691 15.0241 42.8049L19.2546 38.3444C19.6 37.9802 19.6 37.4341 19.2546 37.0698C18.9092 36.6147 18.305 36.6147 17.9595 36.9785L17.9597 36.9785Z" fill="#293D7C"/>
<path d="M17.9597 47.2656L14.3333 51.0892L13.4699 50.1789C13.1245 49.8147 12.6065 49.8147 12.2611 50.1789C11.9157 50.5431 11.9157 51.0892 12.2611 51.4534L13.8153 53.0921C14.1607 53.4563 14.6786 53.4563 15.0241 53.0921L19.2546 48.6315C19.6 48.2673 19.6 47.7212 19.2546 47.357C18.9092 46.9019 18.305 46.9019 17.9595 47.2656L17.9597 47.2656Z" fill="#293D7C"/>
</svg>
