<?xml version="1.0" encoding="utf-8"?>
<svg width="96" height="96" viewBox="9.874 0 75.922 77.458" fill="none" xmlns="http://www.w3.org/2000/svg">
  <path d="M51.9248 67.7376H43.6304C43.1525 67.7376 42.777 67.362 42.777 66.8842V62.1907C40.183 61.6106 37.7423 60.6035 35.5068 59.1699L32.196 62.4807C31.8547 62.8219 31.3254 62.8219 30.9842 62.4807L25.1304 56.644C24.9766 56.4902 24.8743 56.2685 24.8743 56.0467C24.8743 55.8249 24.9595 55.6031 25.1304 55.4494L28.4412 52.1386C27.0076 49.903 26.0004 47.4623 25.4203 44.8684L20.744 44.8678C20.2662 44.8678 19.8906 44.4923 19.8906 44.0144V35.72C19.8906 35.2422 20.2662 34.8666 20.744 34.8666H25.4375C26.0176 32.2727 27.0248 29.832 28.4583 27.5964L25.1304 24.2685C24.9766 24.1148 24.8743 23.893 24.8743 23.6712C24.8743 23.4494 24.9595 23.2276 25.1304 23.0739L30.9842 17.2201C31.3255 16.8788 31.8547 16.8788 32.196 17.2201L35.5068 20.5308C37.7423 19.0973 40.183 18.0901 42.777 17.51L42.7775 12.8165C42.7775 12.3387 43.153 11.9631 43.6309 11.9631H51.9253C52.4032 11.9631 52.7787 12.3387 52.7787 12.8165V17.51C55.3726 18.0902 57.8134 19.0973 60.0489 20.5308L63.3597 17.2201C63.7009 16.8788 64.2302 16.8788 64.5715 17.2201L70.4253 23.0739C70.7665 23.4151 70.7665 23.9444 70.4253 24.2856L67.1145 27.5964C68.5481 29.832 69.5552 32.2727 70.1353 34.8666H74.8288C75.3066 34.8666 75.6822 35.2422 75.6822 35.72V44.0144C75.6822 44.4923 75.3066 44.8678 74.8288 44.8678H70.1353C69.5552 47.4617 68.5481 49.9025 67.1145 52.138L70.4253 55.4488C70.7665 55.7901 70.7665 56.3193 70.4253 56.6606L64.5715 62.5144C64.4177 62.6681 64.1959 62.7705 63.9741 62.7705C63.7524 62.7705 63.5306 62.6853 63.3768 62.5144L60.066 59.2036C57.8305 60.6372 55.3897 61.6444 52.7958 62.2245V66.9179C52.7781 67.362 52.4026 67.7376 51.9248 67.7376L51.9248 67.7376ZM44.5008 66.0308H51.0885V61.5083C51.0885 61.0985 51.3788 60.7401 51.7881 60.672C54.6381 60.1261 57.3006 59.0339 59.707 57.395C60.0483 57.1561 60.4919 57.2075 60.7822 57.4973L63.9907 60.7058L68.6498 56.0466L65.4413 52.8382C65.151 52.5478 65.1172 52.0871 65.339 51.763C66.9772 49.3565 68.0867 46.6941 68.6161 43.8441C68.6841 43.4343 69.0425 43.1444 69.4523 43.1444H73.9749V36.5568H69.4523C69.0425 36.5568 68.6841 36.2664 68.6161 35.8571C68.0702 33.0072 66.9779 30.3447 65.339 27.9382C65.1001 27.597 65.1515 27.1534 65.4413 26.8631L68.6498 23.6546L63.9907 18.9954L60.7822 22.2039C60.4918 22.4943 60.0311 22.528 59.707 22.3062C57.3006 20.6681 54.6381 19.5586 51.7881 19.0292C51.3783 18.9612 51.0885 18.6028 51.0885 18.1929V13.67H44.5008V18.1925C44.5008 18.6024 44.2105 18.9608 43.8012 19.0288C40.9512 19.5747 38.2887 20.667 35.8823 22.3058C35.541 22.5447 35.0974 22.4933 34.8071 22.2035L31.5986 18.995L26.9395 23.6542L30.1479 26.8626C30.4383 27.153 30.472 27.6137 30.2503 27.9378C28.6121 30.3443 27.5026 33.0068 26.9732 35.8567C26.9052 36.2665 26.5468 36.5564 26.137 36.5564H21.5973V43.144H26.1198C26.5297 43.144 26.888 43.4344 26.9561 43.8437C27.502 46.6936 28.5943 49.3561 30.2331 51.7626C30.472 52.1038 30.4206 52.5474 30.1308 52.8378L26.9223 56.0462L31.5815 60.7054L34.7899 57.4969C35.0803 57.2065 35.541 57.1728 35.8651 57.3946C38.2716 59.0328 40.9341 60.1422 43.784 60.6716C44.1938 60.7397 44.4837 61.098 44.4837 61.5079L44.5008 66.0308Z" fill="#293D7C"/>
  <path d="M47.7959 56.0296C38.887 56.0296 31.6172 48.776 31.6172 39.8509C31.6172 30.9248 38.8708 23.6721 47.7959 23.6721C56.7049 23.6721 63.9747 30.9257 63.9747 39.8509C63.9575 48.7769 56.7039 56.0296 47.7959 56.0296ZM47.7959 25.3946C39.8256 25.3946 33.3232 31.88 33.3232 39.8673C33.3232 47.8547 39.8086 54.34 47.7959 54.34C55.7829 54.34 62.2686 47.8547 62.2686 39.8673C62.2686 31.88 55.7661 25.3946 47.7959 25.3946Z" fill="#E24519"/>
  <path d="M49.7104 47.4115C49.5395 47.4115 49.3692 47.3601 49.2154 47.2578L39.8115 40.5507C39.5897 40.3969 39.4531 40.1243 39.4531 39.851C39.4531 39.5778 39.5897 39.3218 39.8115 39.1514L49.232 32.4443C49.4881 32.2568 49.8293 32.2396 50.1197 32.3762C50.41 32.53 50.5804 32.8198 50.5804 33.1273V35.2777H62.6634C63.1412 35.2777 63.5168 35.6533 63.5168 36.1311C63.5168 36.609 63.1412 36.9845 62.6634 36.9845L49.7104 36.984C49.2325 36.984 48.857 36.6084 48.857 36.1306V34.7822L41.7571 39.834L48.857 44.8858V43.5374C48.857 43.0595 49.2325 42.684 49.7104 42.684H62.6468C63.1246 42.684 63.5002 43.0595 63.5002 43.5374C63.5002 44.0153 63.1246 44.3908 62.6468 44.3908H50.5638V46.5412C50.5638 46.8653 50.3929 47.1557 50.1031 47.2923C49.9836 47.3775 49.847 47.4117 49.7104 47.4117V47.4115Z" fill="#FFCE31"/>
  <path d="M83.1645 40.704C82.6866 40.704 82.3111 40.3285 82.3111 39.8506C82.3111 21.8794 68.2992 6.77589 50.3966 5.44423C49.9187 5.40994 49.5775 5.00065 49.6117 4.52279C49.646 4.04493 50.0553 3.70368 50.5332 3.73797C59.6296 4.42047 68.06 8.46569 74.3069 15.1557C80.5705 21.8799 84.035 30.6528 84.035 39.851C84.0178 40.3283 83.6252 40.7038 83.1644 40.7038L83.1645 40.704Z" fill="#293D7C"/>
  <path d="M47.7972 8.00403C45.8514 8.00403 44.2812 6.43388 44.2812 4.4881C44.2812 2.54232 45.8514 0.972168 47.7972 0.972168C49.743 0.972168 51.3131 2.54232 51.3131 4.4881C51.3126 6.43388 49.7258 8.00403 47.7972 8.00403ZM47.7972 2.6796C46.8072 2.6796 45.9881 3.49871 45.9881 4.48865C45.9881 5.47859 46.8072 6.2977 47.7972 6.2977C48.7871 6.2977 49.6062 5.47859 49.6062 4.48865C49.6062 3.49871 48.7866 2.6796 47.7972 2.6796Z" fill="#00947E"/>
  <path d="M17.3681 58.726C17.0777 58.726 16.7879 58.5722 16.6341 58.3161C11.975 50.4824 10.4563 41.2323 12.3678 32.2892C14.2963 23.2951 19.5019 15.4439 27.0448 10.1708C27.4375 9.89755 27.9662 9.99988 28.2394 10.3754C28.5127 10.7681 28.4103 11.2969 28.0348 11.5701C13.2892 21.8617 8.93765 42.0171 18.1015 57.4457C18.3405 57.8555 18.2039 58.3671 17.8112 58.6232C17.658 58.6918 17.5214 58.7261 17.3676 58.7261L17.3681 58.726Z" fill="#293D7C"/>
  <path d="M18.82 63.6246C17.7105 63.6246 16.6181 63.0954 15.9357 62.1231C15.3898 61.3548 15.1846 60.4163 15.3555 59.4949C15.5264 58.5734 16.038 57.771 16.8062 57.225C18.3935 56.1155 20.5948 56.5082 21.7043 58.0956C22.2502 58.8638 22.4554 59.8023 22.2845 60.7238C22.1136 61.6452 21.602 62.4476 20.8338 62.9936C20.2198 63.42 19.5031 63.6247 18.82 63.6247V63.6246ZM18.8028 58.3168C18.4444 58.3168 18.086 58.4191 17.7619 58.6409C17.3693 58.9141 17.0966 59.3406 17.0109 59.8013C16.9257 60.2791 17.028 60.757 17.3178 61.1497C17.8809 61.9688 19.0246 62.1734 19.8437 61.5932C20.2364 61.32 20.5091 60.8936 20.5948 60.4329C20.68 59.955 20.5777 59.4772 20.2878 59.0845C19.9466 58.5729 19.3835 58.3168 18.8029 58.3168H18.8028Z" fill="#00947E"/>
  <path d="M47.7988 76.0826C43.6005 76.0826 39.402 75.3487 35.3574 73.8636C34.9138 73.7099 34.692 73.2149 34.8452 72.7713C34.999 72.3277 35.494 72.106 35.9375 72.2592C52.8157 78.4205 71.8292 70.4501 79.2185 54.1001C79.406 53.6737 79.9181 53.4856 80.3451 53.6737C80.7715 53.8612 80.9595 54.3733 80.7715 54.8003C77.0167 63.1118 70.3095 69.6487 61.8787 73.198C57.3733 75.1265 52.5948 76.0822 47.7996 76.0822L47.7988 76.0826Z" fill="#293D7C"/>
  <path d="M81.0085 55.5181C80.5987 55.5181 80.1894 55.4501 79.7968 55.2963C78.9091 54.9722 78.2095 54.3235 77.8167 53.4701C77.424 52.6167 77.3731 51.6611 77.6972 50.7734C78.0213 49.8856 78.6701 49.1861 79.5234 48.7933C80.3768 48.4005 81.3325 48.3497 82.2202 48.6738C83.1079 48.9979 83.8075 49.6467 84.2003 50.5C84.5929 51.3534 84.6438 52.3091 84.3197 53.1968C83.9956 54.0845 83.3469 54.7841 82.4935 55.1769C82.0157 55.3987 81.5207 55.5181 81.0086 55.5181H81.0085ZM81.0085 50.1765C80.7525 50.1765 80.4964 50.228 80.2403 50.3474C79.7967 50.5521 79.4721 50.9105 79.3017 51.3712C79.1308 51.8319 79.148 52.3098 79.3532 52.7533C79.5578 53.1969 79.9162 53.5215 80.3769 53.6919C80.8376 53.8628 81.3155 53.8456 81.759 53.6405C82.2026 53.4358 82.5273 53.0774 82.6976 52.6167C82.8685 52.156 82.8514 51.6781 82.6462 51.2346C82.4415 50.791 82.0831 50.4664 81.6224 50.296C81.4183 50.2274 81.2132 50.1765 81.0085 50.1765H81.0085Z" fill="#00947E"/>
</svg>