<svg width="63" height="60" viewBox="0 0 63 60" fill="none" xmlns="http://www.w3.org/2000/svg">
<path d="M59.8425 0H2.70365C1.21237 0 0 1.25602 0 2.79924V56.6316C0 58.1748 1.21249 59.4303 2.70365 59.4303H59.8425C61.3346 59.4303 62.5502 58.1743 62.5502 56.6316V2.79924C62.5493 1.25602 61.3346 0 59.8416 0H59.8425ZM2.70365 2.088H59.8425C60.2159 2.088 60.5316 2.41379 60.5316 2.79923V14.471H2.01723V2.79923C2.01723 2.41378 2.33205 2.088 2.70317 2.088H2.70365ZM59.8425 57.3414H2.70365C2.33253 57.3414 2.01771 57.0156 2.01771 56.6301V16.5584H60.5321V56.6301C60.5321 57.0151 60.2164 57.3409 59.8421 57.3409L59.8425 57.3414Z" fill="#293D7C"/>
<path d="M53.3754 12.143C55.4323 12.143 57.1051 10.4102 57.1051 8.28017C57.1051 6.15016 55.4323 4.41736 53.3754 4.41736C51.317 4.41736 49.6435 6.15016 49.6435 8.28017C49.6439 10.4097 51.3176 12.143 53.3754 12.143ZM53.3754 6.50536C54.3198 6.50536 55.0873 7.30188 55.0873 8.28017C55.0873 9.25845 54.3185 10.055 53.3754 10.055C52.43 10.055 51.6612 9.25845 51.6612 8.28017C51.6617 7.30188 52.4314 6.50536 53.3754 6.50536Z" fill="#E74C3C"/>
<path d="M43.2832 12.143C45.3415 12.143 47.016 10.4102 47.016 8.28017C47.016 6.15016 45.3415 4.41736 43.2832 4.41736C41.2272 4.41736 39.5544 6.15016 39.5544 8.28017C39.5544 10.4097 41.2272 12.143 43.2832 12.143ZM43.2832 6.50536C44.2295 6.50536 44.9983 7.30188 44.9983 8.28017C44.9983 9.25845 44.2286 10.055 43.2832 10.055C42.3388 10.055 41.5722 9.25845 41.5722 8.28017C41.5722 7.30188 42.3396 6.50536 43.2832 6.50536Z" fill="#293D7C"/>
<path d="M33.1957 12.143C35.254 12.143 36.9285 10.4102 36.9285 8.28017C36.9285 6.15016 35.254 4.41736 33.1957 4.41736C31.1397 4.41736 29.4669 6.15016 29.4669 8.28017C29.4669 10.4097 31.1397 12.143 33.1957 12.143V12.143ZM33.1957 6.50536C34.1419 6.50536 34.9108 7.30188 34.9108 8.28017C34.9108 9.25845 34.141 10.055 33.1957 10.055C32.2512 10.055 31.4846 9.25845 31.4846 8.28017C31.4846 7.30188 32.2526 6.50536 33.1957 6.50536Z" fill="#FFCE31"/>
<path d="M7.15074 9.32482H23.2292C23.7872 9.32482 24.2381 8.85688 24.2381 8.28082C24.2381 7.70476 23.7872 7.23682 23.2292 7.23682H7.15074C6.59272 7.23682 6.14188 7.70476 6.14188 8.28082C6.14188 8.85688 6.59272 9.32482 7.15074 9.32482V9.32482Z" fill="#293D7C"/>
<path d="M36.3826 32.7641H26.1637C25.6057 32.7641 25.1548 33.232 25.1548 33.8081V52.7898C25.1548 53.3659 25.6057 53.8338 26.1637 53.8338H36.3826C36.9406 53.8338 37.3914 53.3659 37.3914 52.7898V33.8081C37.3914 33.232 36.9397 32.7641 36.3826 32.7641ZM35.3737 51.7458H27.1726V34.8521H35.3737V51.7458Z" fill="#FFCE31"/>
<path d="M19.331 38.7549H9.11487C8.55684 38.7549 8.106 39.2228 8.106 39.7989V52.7898C8.106 53.3659 8.55684 53.8338 9.11487 53.8338H19.3306C19.8886 53.8338 20.3395 53.3659 20.3395 52.7898L20.3399 39.7989C20.3399 39.2228 19.8886 38.7549 19.3311 38.7549H19.331ZM18.3221 51.747H10.1241L10.1236 40.8432H18.3216L18.3221 51.747Z" fill="#E74C3C"/>
<path d="M53.4353 30.1165H43.2155C42.6575 30.1165 42.2067 30.5845 42.2067 31.1605V52.7899C42.2067 53.3659 42.6575 53.8339 43.2155 53.8339H53.4353C53.9933 53.8339 54.4442 53.3659 54.4442 52.7899V31.1605C54.4442 30.5845 53.9929 30.1165 53.4353 30.1165ZM52.4264 51.7471H44.2244L44.2239 32.2046H52.426L52.4264 51.7471Z" fill="#E74C3C"/>
<path d="M14.222 36.6263C15.9128 36.6263 17.286 35.2515 17.3869 33.5279L28.893 28.8802C29.4762 29.5672 30.3216 30.0109 31.2728 30.0109C32.7348 30.0109 33.9576 28.9795 34.3297 27.5869L45.3786 25.12C45.8528 26.3248 46.9927 27.1777 48.3246 27.1777C50.0802 27.1777 51.5074 25.6984 51.5074 23.8797C51.5074 22.0629 50.0796 20.5851 48.3246 20.5851C46.8626 20.5851 45.6398 21.6165 45.2677 23.009L34.2189 25.476C33.7437 24.2735 32.6037 23.4225 31.2728 23.4225C29.5172 23.4225 28.09 24.9009 28.09 26.7161C28.09 26.7977 28.108 26.8737 28.1134 26.9552L16.8646 31.4999C16.2926 30.62 15.322 30.0402 14.2222 30.0402C12.4665 30.0402 11.0384 31.5187 11.0384 33.3339C11.0375 35.1479 12.4657 36.6263 14.2222 36.6263L14.222 36.6263ZM48.3253 22.6713C48.968 22.6713 49.4904 23.2134 49.4904 23.8779C49.4904 24.5449 48.9665 25.0879 48.3253 25.0879C47.6817 25.0879 47.1592 24.5449 47.1592 23.8779C47.1592 23.2119 47.6826 22.6713 48.3253 22.6713ZM31.2736 25.5087C31.9172 25.5087 32.4397 26.0494 32.4397 26.7144C32.4397 27.3804 31.9159 27.921 31.2736 27.921C30.6309 27.921 30.1086 27.379 30.1086 26.7144C30.1081 26.0498 30.631 25.5087 31.2736 25.5087V25.5087ZM14.222 32.1256C14.8647 32.1256 15.3871 32.6662 15.3871 33.3312C15.3871 33.9972 14.8633 34.5379 14.222 34.5379C13.5784 34.5379 13.056 33.9958 13.056 33.3312C13.0551 32.6666 13.5785 32.1256 14.222 32.1256Z" fill="#00947E"/>
</svg>
