<svg width="59" height="59" viewBox="0 0 59 59" fill="none" xmlns="http://www.w3.org/2000/svg">
<path d="M57.3135 47.8351L53.2595 44.4316C54.956 40.2902 54.1399 35.4806 51.1043 32.2347C49.5729 30.5922 47.6834 29.5887 45.7021 29.1951V9.19737C45.7114 8.94151 45.6198 8.67614 45.4361 8.47915L37.8054 0.295254C37.7137 0.196986 37.6128 0.118195 37.4933 0.0688329H37.4752C37.3743 0.0294356 37.2641 0 37.1543 0L3.16423 0.000452848C1.42165 0.000452848 0 1.52515 0 3.40401V55.5964C0 57.4753 1.42165 59 3.16423 59H42.5373C44.2799 59 45.7016 57.4753 45.7016 55.5964V50.8651C46.4629 50.7076 47.2056 50.4617 47.9301 50.1275L51.1125 54.4848C51.892 55.5571 53.0569 56.216 54.3224 56.3043C54.414 56.3142 54.5056 56.3142 54.5884 56.3142C55.7533 56.3142 56.8811 55.8125 57.7066 54.9271C58.6056 53.963 59.0731 52.6452 58.9907 51.2875C58.9269 49.9204 58.3033 48.671 57.3128 47.8351L57.3135 47.8351ZM51.297 44.2644C50.9026 45.061 50.4073 45.7891 49.8018 46.4286C49.2056 47.068 48.5271 47.6092 47.7839 48.0321C44.4913 49.911 40.5015 49.2615 37.8692 46.4286C34.5766 42.8973 34.5673 37.1429 37.86 33.6114C39.5017 31.8507 41.666 30.9655 43.8308 30.9655C45.9952 30.9655 48.1597 31.8508 49.8106 33.6214C52.4522 36.4545 53.0483 40.733 51.2969 44.2643L51.297 44.2644ZM38.062 3.35535L42.5745 8.19493H39.7864C38.8326 8.19493 38.062 7.35897 38.062 6.336V3.35535ZM43.8674 55.586C43.8674 56.3826 43.2712 57.0221 42.5373 57.0221L3.16416 57.0225C2.4303 57.0225 1.83407 56.3731 1.83407 55.5865V3.39406C1.83407 2.61698 2.44843 1.95805 3.16416 1.95805H36.2278V6.3353C36.2278 8.44011 37.8235 10.1619 39.7865 10.1619H43.8679V29.0085C41.2263 28.9985 38.576 30.0709 36.5581 32.225C32.5502 36.5235 32.5502 43.5172 36.5674 47.8152C38.5578 49.9499 41.1715 51.0612 43.8218 51.0612H43.8679L43.8674 55.586ZM56.4138 53.5206C55.8911 54.0813 55.1665 54.386 54.4327 54.3272C53.6899 54.2778 53.0203 53.9042 52.5617 53.2648L49.5625 49.1534C50.1127 48.7598 50.6354 48.3269 51.1033 47.8256C51.5711 47.3239 51.9748 46.7533 52.3413 46.1732L56.1748 49.3897C56.771 49.8815 57.1194 50.5998 57.1654 51.3963C57.2118 52.1829 56.9365 52.96 56.4138 53.5206V53.5206Z" fill="#293D7C"/>
<path d="M36.6448 39.3863C36.3788 39.7404 36.3788 40.2517 36.6448 40.6157C36.7732 40.7928 39.8914 44.9241 43.8904 44.9241C47.889 44.9241 50.9985 40.7927 51.1361 40.6157C51.4021 40.2616 51.4021 39.7503 51.1361 39.3863C51.0077 39.2092 47.8895 35.0779 43.8904 35.0779C39.8825 35.0779 36.7731 39.2092 36.6448 39.3863ZM43.8811 37.0451C46.1832 37.0451 48.2467 38.9729 49.1731 39.9958C48.2467 41.0188 46.1832 42.9466 43.8811 42.9466C41.5791 42.9466 39.5244 41.0188 38.5892 39.9958C39.5249 38.9828 41.5884 37.0451 43.8811 37.0451V37.0451Z" fill="#00947E"/>
<path d="M45.2749 39.9961C45.2749 39.1696 44.6512 38.4913 43.8718 38.4913C43.1012 38.4913 42.4688 39.1602 42.4688 39.9961C42.4688 40.832 43.0924 41.5009 43.8718 41.5009C44.6513 41.5013 45.2749 40.8324 45.2749 39.9961Z" fill="#00947E"/>
<path d="M16.9672 30.5038C23.2957 30.5038 28.45 24.9853 28.45 18.1886C28.45 11.3918 23.2956 5.86304 16.9672 5.86304C10.6386 5.86349 5.48438 11.3915 5.48438 18.1886C5.48438 24.9759 10.6387 30.5038 16.9672 30.5038V30.5038ZM16.9672 22.871C14.5549 22.871 12.6016 20.7662 12.6016 18.189C12.6016 15.5924 14.5641 13.487 16.9672 13.487C19.3794 13.487 21.342 15.5918 21.342 18.189C21.342 20.7756 19.3795 22.871 16.9672 22.871V22.871ZM17.8843 28.4777V24.7594C20.5714 24.3264 22.6995 22.0545 23.0938 19.1722H26.5608C26.1293 24.0906 22.4701 28.0153 17.8842 28.4778L17.8843 28.4777ZM16.9672 7.8307C21.9749 7.8307 26.1019 11.9521 26.5698 17.2046H23.1028C22.6624 13.998 20.0855 11.5191 16.976 11.5191C13.5551 11.5191 10.7759 14.5093 10.7759 18.1882C10.7759 21.5225 13.078 24.2866 16.0585 24.759V28.4773C11.1702 27.9756 7.32705 23.5589 7.32705 18.1786C7.3186 12.4732 11.6479 7.83059 16.9673 7.83059L16.9672 7.8307Z" fill="#FFCE31"/>
<path d="M30.3049 33.4843H5.49523C4.99065 33.4843 4.57812 33.9267 4.57812 34.4678V53.1174C4.57812 53.6585 4.99065 54.1009 5.49523 54.1009H30.3049C30.8095 54.1009 31.222 53.6585 31.222 53.1174V34.4678C31.222 33.9267 30.809 33.4843 30.3049 33.4843ZM6.41295 41.3335H10.5404V46.2125H6.41295V41.3335ZM12.3745 41.3335H16.9787V46.2125H12.3745V41.3335ZM16.988 39.3663H12.3838V35.4513H16.988V39.3663ZM18.8222 35.4513H23.4356V39.3663H18.8222V35.4513ZM16.988 48.1699V52.1341H12.3838V48.1699H16.988ZM18.8222 48.1699H23.4356V52.1341H18.8222V48.1699ZM18.8222 46.2022V41.3233H23.4356V46.2022H18.8222ZM25.2605 41.3332H29.3879V46.2122H25.2605V41.3332ZM29.3879 39.366H25.2605V35.4511H29.3879V39.366ZM10.5407 35.4511V39.366H6.41327V35.4511H10.5407ZM6.41327 48.1697H10.5407V52.1339H6.41327V48.1697ZM25.2605 52.1334V48.1692H29.3879V52.1334H25.2605Z" fill="#E74C3C"/>
<path d="M31.1984 16.7035H40.3606C40.8652 16.7035 41.2777 16.2611 41.2777 15.7199C41.2777 15.1788 40.8652 14.7363 40.3606 14.7363H31.1984C30.6938 14.7363 30.2812 15.1788 30.2812 15.7199C30.2812 16.2611 30.6849 16.7035 31.1984 16.7035Z" fill="#00947E"/>
<path d="M31.1984 22.6056H40.3606C40.8652 22.6056 41.2777 22.1632 41.2777 21.622C41.2777 21.0809 40.8652 20.6384 40.3606 20.6384H31.1984C30.6938 20.6384 30.2812 21.0809 30.2812 21.622C30.2812 22.1632 30.6849 22.6056 31.1984 22.6056Z" fill="#293D7C"/>
</svg>
