<svg width="59" height="59" viewBox="0 0 59 59" fill="none" xmlns="http://www.w3.org/2000/svg">
<path d="M53.598 9.51613H34.7915C33.8466 9.51613 32.9692 9.80544 32.2308 10.2936C30.9606 9.61214 29.4896 9.36022 28.0556 9.61129C27.1946 4.13783 22.5081 0 16.9254 0C11.3229 0 6.67414 4.0567 5.79518 9.56376C2.53511 9.95885 0 12.7746 0 16.1774C0 19.8504 2.95283 22.8387 6.58226 22.8387H30.0903V34.2581H24.8375L19.1956 28.5484H15.0452V24.7419H3.76129V34.2581H15.0452V30.4516H18.4173L24.0593 36.1613H30.0903V39.9677H11.2839V36.1613H0V45.6774H11.2839V41.871H30.0903V45.6774H24.0593L18.4173 51.3871H15.0452V47.5806H3.76129V57.0968H15.0452V53.2903H19.1956L24.8375 47.5806H30.0903V54.2419C30.0903 56.8657 32.1993 59 34.7919 59H53.5984C56.191 59 58.3 56.8657 58.3 54.2419V14.2742C58.3 11.6505 56.1906 9.51613 53.598 9.51613ZM13.1641 32.3548H5.64151V26.6452H13.1641V32.3548ZM9.4028 43.7742H1.88022V38.0645H9.4028V43.7742ZM13.1641 55.1935H5.64151V49.4839H13.1641V55.1935ZM53.598 11.4194C55.1533 11.4194 56.4189 12.7002 56.4189 14.2742V17.129H31.9705V14.2742C31.9705 12.7002 33.2362 11.4194 34.7915 11.4194H53.598ZM6.58183 20.9355C3.98923 20.9355 1.88022 18.8012 1.88022 16.1774C1.88022 13.5537 3.98922 11.4194 6.53476 11.4185L7.48935 11.4223L7.56659 10.5565C8.00443 5.62303 12.0281 1.90325 16.9253 1.90325C21.896 1.90325 26.0137 5.8401 26.2995 10.8654L26.3717 12.1377L27.5576 11.7057C28.6457 11.3089 29.8031 11.3373 30.8298 11.7341C30.3672 12.4708 30.0898 13.3387 30.0898 14.2741V20.9354L6.58183 20.9355ZM53.598 57.0968H34.7915C33.2362 57.0968 31.9705 55.816 31.9705 54.2419V54.2173C32.7585 54.8214 33.729 55.1936 34.7915 55.1936H53.598C54.6604 55.1936 55.631 54.8214 56.4189 54.2173V54.2419C56.4189 55.816 55.1533 57.0968 53.598 57.0968ZM53.598 53.2903H34.7915C33.2362 53.2903 31.9705 52.0095 31.9705 50.4355V19.0323H56.4189V50.4355C56.4189 52.0095 55.1533 53.2903 53.598 53.2903Z" fill="#293D7C"/>
<path d="M40.4335 49.4838H49.8367V51.3871H40.4335V49.4838Z" fill="#FFCE31"/>
<path d="M35.7318 14.2742C35.7318 14.7997 35.3108 15.2258 34.7915 15.2258C34.2722 15.2258 33.8512 14.7997 33.8512 14.2742C33.8512 13.7487 34.2722 13.3226 34.7915 13.3226C35.3108 13.3226 35.7318 13.7487 35.7318 14.2742Z" fill="#293D7C"/>
<path d="M39.4931 13.3226H48.8963V15.2258H39.4931V13.3226Z" fill="#FFCE31"/>
<path d="M51.9752 30.9715L48.3831 27.3362L47.1858 27.9025L46.7345 26.6454H41.6559L41.2047 27.9025L40.0074 27.3362L36.4153 30.9715L36.9748 32.1831L35.7319 32.6398V37.7794L36.9741 38.2361L36.4145 39.4477L40.0067 43.083L41.2039 42.5167L41.6552 43.7746H46.7338L47.1851 42.5175L48.3823 43.0838L51.9745 39.4485L51.4149 38.2368L52.6579 37.7801V32.6406L51.4157 32.1839L51.9752 30.9715ZM50.7772 36.4462L50.0031 36.7309L49.5817 36.9344L49.185 37.9043L49.7126 39.0471L47.9852 40.7952L46.856 40.2612L45.8414 40.6864L45.4165 41.8713H42.9726L42.6913 41.088L42.4902 40.6614L41.5318 40.26L40.4026 40.794L38.6752 39.0458L39.2029 37.903L38.7827 36.8762L37.6127 36.4463V33.973L38.3868 33.6883L38.8082 33.4848L39.2049 32.515L38.6773 31.3722L40.4047 29.624L41.5348 30.1589L42.5473 29.7336L42.9734 28.5487H45.4174L45.6986 29.3321L45.898 29.7574L46.8564 30.1601L47.9865 29.6252L49.7139 31.3734L49.1862 32.5162L49.6064 33.543L50.7773 33.9738L50.7772 36.4462Z" fill="#E74C3C"/>
<path d="M44.1947 30.4516C41.6021 30.4516 39.4931 32.5859 39.4931 35.2097C39.4931 37.8334 41.6021 39.9677 44.1947 39.9677C46.7873 39.9677 48.8963 37.8334 48.8963 35.2097C48.8963 32.5859 46.7873 30.4516 44.1947 30.4516ZM44.1947 38.0645C42.6394 38.0645 41.3738 36.7837 41.3738 35.2097C41.3738 33.6356 42.6394 32.3548 44.1947 32.3548C45.7501 32.3548 47.0157 33.6356 47.0157 35.2097C47.0157 36.7837 45.7501 38.0645 44.1947 38.0645Z" fill="#00947E"/>
<path d="M9.4028 11.4194H11.2834C11.2834 8.27056 13.8139 5.70968 16.9254 5.70968V3.80646C12.7774 3.80646 9.4028 7.22161 9.4028 11.4194Z" fill="#FFCE31"/>
<path d="M18.5384 5.94675C19.1131 6.12008 19.6547 6.38347 20.1491 6.73353L21.2259 5.17191C20.566 4.70672 19.8427 4.35369 19.0753 4.12216L18.5384 5.94675Z" fill="#293D7C"/>
</svg>
