<?xml version="1.0" encoding="utf-8"?>
<!-- Generator: Adobe Illustrator 19.0.0, SVG Export Plug-In . SVG Version: 6.00 Build 0)  -->
<svg version="1.1" id="Layer_1" xmlns="http://www.w3.org/2000/svg" xmlns:xlink="http://www.w3.org/1999/xlink" x="0px" y="0px"
	 width="76.6px" height="71.5px" viewBox="-549.3 723.9 76.6 71.5" style="enable-background:new -549.3 723.9 76.6 71.5;"
	 xml:space="preserve">
<style type="text/css">
	.st0{fill:#677294;}
	.st1{fill:#0BCEB2;}
	.st2{fill:#E86080;}
	.st3{fill:#7BB4F5;}
</style>
<path class="st0" d="M-537.3,743.8c0.2,0.7,0.5,1.3,0.8,1.9c-0.7,0.9-0.6,2.1,0.2,2.9l2,2c0.8,0.8,2,0.9,2.9,0.2
	c0.6,0.3,1.2,0.6,1.9,0.8c0.1,1.1,1.1,1.9,2.2,1.9h2.8c1.1,0,2.1-0.8,2.2-1.9c0.7-0.2,1.3-0.5,1.9-0.8c0.9,0.7,2.1,0.6,2.9-0.2l2-2
	c0.8-0.8,0.9-2,0.2-2.9c0.3-0.6,0.6-1.2,0.8-1.9c1.1-0.1,1.9-1.1,1.9-2.2v-2.8c0-1.1-0.8-2.1-1.9-2.2c-0.2-0.7-0.5-1.3-0.8-1.9
	c0.7-0.9,0.6-2.1-0.2-2.9l-2-2c-0.8-0.8-2-0.9-2.9-0.2c-0.6-0.3-1.2-0.6-1.9-0.8c-0.1-1.1-1.1-1.9-2.2-1.9h-2.8
	c-1.1,0-2.1,0.8-2.2,1.9c-0.7,0.2-1.3,0.5-1.9,0.8c-0.9-0.7-2.1-0.6-2.9,0.2l-2,2c-0.8,0.8-0.9,2.1-0.2,2.9
	c-0.3,0.6-0.6,1.2-0.8,1.9c-1.1,0.1-1.9,1.1-1.9,2.2v2.8C-539.2,742.7-538.4,743.7-537.3,743.8z M-537,738.8h1.5
	c0.2-1.6,0.9-3.1,1.8-4.4l-1.1-1.1l2-2l1.1,1.1c1.3-1,2.8-1.6,4.4-1.8v-1.5h2.8v1.5c1.6,0.2,3.1,0.9,4.4,1.8l1.1-1.1l2,2l-1.1,1.1
	c1,1.3,1.6,2.8,1.8,4.4h1.5v2.8h-1.5c-0.2,1.6-0.9,3.1-1.8,4.4l1.1,1.1l-2,2l-1.1-1.1c-1.3,1-2.8,1.6-4.4,1.8v1.5h-2.8v-1.5
	c-1.6-0.2-3.1-0.9-4.4-1.8l-1.1,1.1l-2-2l1.1-1.1c-1-1.3-1.6-2.8-1.8-4.4h-1.5V738.8z"/>
<path class="st1" d="M-526,746.8c3.7,0,6.7-3,6.7-6.7c0-3.7-3-6.7-6.7-6.7c-3.7,0-6.7,3-6.7,6.7C-532.7,743.8-529.7,746.8-526,746.8
	z M-526,735.7c2.5,0,4.4,2,4.4,4.4s-2,4.4-4.4,4.4c-2.5,0-4.4-2-4.4-4.4S-528.5,735.7-526,735.7z"/>
<path class="st0" d="M-510.5,740.2h6.2c0-0.1,0-0.3,0-0.4c0-0.2,0-0.4,0-0.6c-0.4-0.3-0.8-0.8-1.1-1.2h-5.2c0.1,0.3,0.1,0.6,0.1,0.9
	V740.2z M-502.2,737.8c0.1,0.3,0.2,0.6,0.4,0.9c-0.5,0.9-0.3,1.9,0.4,2.6l1.5,1.5c0.7,0.7,1.8,0.9,2.6,0.4c0.3,0.1,0.6,0.3,0.9,0.4
	c0.3,0.9,1.1,1.6,2.1,1.6h2.1c1,0,1.9-0.6,2.1-1.6c0.3-0.1,0.6-0.2,0.9-0.4c0.9,0.5,1.9,0.3,2.6-0.4l1.5-1.5
	c0.7-0.7,0.9-1.8,0.4-2.6c0.1-0.3,0.3-0.6,0.4-0.9c0.9-0.3,1.6-1.1,1.6-2.1v-2.1c0-1-0.6-1.9-1.6-2.1c-0.1-0.3-0.2-0.6-0.4-0.9
	c0.5-0.9,0.3-1.9-0.4-2.6l-1.5-1.5c-0.7-0.7-1.8-0.9-2.6-0.4c-0.3-0.1-0.6-0.3-0.9-0.4c-0.3-0.9-1.1-1.6-2.1-1.6h-2.1
	c-1,0-1.9,0.6-2.1,1.6c-0.3,0.1-0.6,0.2-0.9,0.4c-0.9-0.5-1.9-0.3-2.6,0.4l-1.5,1.5c-0.7,0.7-0.9,1.8-0.4,2.6
	c-0.1,0.3-0.3,0.6-0.4,0.9c-0.9,0.3-1.6,1.1-1.6,2.1v2.1C-503.8,736.6-503.2,737.5-502.2,737.8z M-501.6,733.6h1.1
	c0.2-1.2,0.6-2.3,1.4-3.3l-0.8-0.8l1.5-1.5l0.8,0.8c1-0.7,2.1-1.2,3.3-1.4v-1.1h2.1v1.1c1.2,0.2,2.3,0.6,3.3,1.4l0.8-0.8l1.5,1.5
	l-0.8,0.8c0.7,1,1.2,2.1,1.4,3.3h1.1v2.1h-1.1c-0.2,1.2-0.6,2.3-1.4,3.3l0.8,0.8l-1.5,1.5l-0.8-0.8c-1,0.7-2.1,1.2-3.3,1.4v1.1h-2.1
	v-1.1c-1.2-0.2-2.3-0.6-3.3-1.4l-0.8,0.8l-1.5-1.5l0.8-0.8c-0.7-1-1.2-2.1-1.4-3.3h-1.1V733.6z"/>
<path class="st2" d="M-493.3,739.6c2.8,0,5-2.2,5-5s-2.2-5-5-5s-5,2.2-5,5C-498.3,737.4-496,739.6-493.3,739.6z M-493.3,731.8
	c1.5,0,2.8,1.2,2.8,2.8c0,1.5-1.2,2.8-2.8,2.8s-2.8-1.2-2.8-2.8C-496,733.1-494.8,731.8-493.3,731.8z"/>
<path class="st0" d="M-527.1,765.1c-0.6,0-1.1,0.5-1.1,1.1v5.6c0,0.6,0.5,1.1,1.1,1.1h32.2c0.6,0,1.1-0.5,1.1-1.1v-5.5
	c0-0.6-0.5-1.1-1.1-1.1c-0.6,0-1.1,0.5-1.1,1.1v4.4h-30v-4.4C-526,765.6-526.5,765.1-527.1,765.1z"/>
<path class="st3" d="M-505.5,758.3h-0.8v-6.5c0-1.2-1-2.2-2.2-2.2h-5.1c-1.2,0-2.2,1-2.2,2.2v6.5h-0.8c-1.2,0-2.2,1-2.2,2.2
	c0,0.6,0.2,1.1,0.6,1.5l5.6,5.7c0.4,0.4,1,0.7,1.6,0.7h0c0.6,0,1.2-0.2,1.6-0.7l5.5-5.7c0.9-0.9,0.9-2.3,0-3.1
	C-504.3,758.6-504.9,758.3-505.5,758.3L-505.5,758.3z M-511,766.3l-5.6-5.7h3v-8.7h5.1v8.7h3L-511,766.3z M-536,778.5
	c0,1.8,1.5,3.3,3.3,3.3h43.3c1.8,0,3.3-1.5,3.3-3.3c0-1.8-1.5-3.3-3.3-3.3h-43.3C-534.5,775.1-536,776.6-536,778.5z M-511.7,777.4
	h22.3c0.6,0,1.1,0.5,1.1,1.1s-0.5,1.1-1.1,1.1h-22.3V777.4z M-517.2,777.4h3.3v2.2h-3.3V777.4z M-522.8,777.4h3.3v2.2h-3.3V777.4z
	 M-528.3,777.4h3.3v2.2h-3.3V777.4z M-530.5,779.6h-2.1c-0.6,0-1.1-0.5-1.1-1.1s0.5-1.1,1.1-1.1h2.1V779.6z"/>
<path class="st0" d="M-474,792.9h-27.6v-2.2h21.6c2.5,0,4.4-2,4.4-4.4v-43.8c0-2.5-2-4.4-4.4-4.4h-1.2c-0.3,0.5-0.7,0.9-1.1,1.2
	c0,0.2,0,0.4,0,0.6c0,0.1,0,0.3,0,0.4h2.3c1.2,0,2.2,1,2.2,2.2V784h-66.6v-41.6c0-1.2,1-2.2,2.2-2.2h0.6v-1.3c0-0.3,0-0.6,0.1-0.9
	h-0.7c-2.5,0-4.4,2-4.4,4.4v43.8c0,2.5,2,4.4,4.4,4.4h21.6v2.2h-27.6c-0.6-0.1-1.2,0.4-1.3,1c-0.1,0.6,0.4,1.2,1,1.3
	c0.1,0,0.2,0,0.3,0h74.1c0.6,0.1,1.2-0.4,1.3-1s-0.4-1.2-1-1.3C-473.8,792.9-473.9,792.9-474,792.9z M-542.1,788.5
	c-1.2,0-2.2-1-2.2-2.2h66.6c0,1.2-1,2.2-2.2,2.2H-542.1z M-518.2,792.9v-2.2h14.4v2.2H-518.2z"/>
</svg>
