<?xml version="1.0" encoding="utf-8"?>
<!-- Generator: Adobe Illustrator 19.0.0, SVG Export Plug-In . SVG Version: 6.00 Build 0)  -->
<svg version="1.1" id="Layer_1" xmlns="http://www.w3.org/2000/svg" xmlns:xlink="http://www.w3.org/1999/xlink" x="0px" y="0px"
	 width="55.4px" height="50px" viewBox="-219.6 601.2 55.4 50" style="enable-background:new -219.6 601.2 55.4 50;"
	 xml:space="preserve">
<style type="text/css">
	.st0{fill:#FFFFFF;}
</style>
<path id="XMLID_35_" class="st0" d="M-176.5,616.7L-176.5,616.7h-4.6c-0.7,0-1.6,0-2.5,0h-0.1l-0.1,0.1c-0.5,0.9-1.1,1.8-1.6,2.7
	L-192,631l-0.6-1c-0.9-1.6-2.3-4-3.7-6.4c-1.5-2.6-3.1-5.3-4-7c-0.1-0.2-0.2-0.2-0.9-0.2c-0.2,0-0.4,0-0.7,0h-0.3
	c-2.3,0-2.6,0.1-3.7,0.1c-0.7,0-1.8,0.1-3.9,0.1h-0.2l14.3,24.8l3.2-5.5c0.9-1.6,1.8-3.2,2.8-4.8l1.9-3.2c1.7-2.9,3.4-5.8,5.1-8.8
	c0.2-0.4,0.7-0.6,1.1-0.6c0.3,0,0.6,0,1,0c0.2,0,0.4,0,0.6,0h3.1l-7.8,13.7l-5.8,10l2.2-0.1l0.1-0.1c0.5-0.8,0.9-1.6,1.3-2.2
	l1.6-2.9v0.1l0.5-0.9c1.3-2.2,2.5-4.3,3.9-6.7c1.9-3.2,3.7-6.4,5.6-9.7l1.9-3.2L-176.5,616.7z M-193.1,633l-2.1,3.6
	c-0.1,0.2-0.4,0.3-0.6,0.3c-0.2,0-0.5-0.1-0.6-0.3l-10.4-18.1h1.2h3.7c0.4,0,0.8,0.4,0.9,0.7c1.1,1.8,2.2,3.7,3.2,5.5L-193.1,633z"
	/>
<path id="XMLID_38_" class="st0" d="M-165.8,606.8c-2.4-3.9-5.8-5.8-9.9-5.6c-2.7,0.1-5.4,0.5-8,0.8h-0.1c-1.1,0.1-2.1,0.3-3.2,0.3
	c-2.1,0.2-4.1,0.5-6.2,0.7l-1,0.1c-4.7,0.5-9.7,1.1-14.5,1.6c-3.2,0.3-6.2,2-8.3,4.6c-2,2.6-2.9,5.7-2.5,8.8c0.5,3.7,1,7.4,1.6,11
	l-0.3,0.1l-0.1,0.1v0.3l0.4-0.1c0.4,2.8,0.8,5.6,1.2,8.5c0.5,3.4,1.6,6.2,3.2,8.5c2.5,3.3,5.3,4.9,8.8,4.8c0.4,0,0.8,0,1.3,0
	c0.3,0,0.6,0,0.9,0c0.1,0,0.3,0,0.5,0h15.4h0.8c2.6,0,5.4,0,8.5-0.1c0.9,0,1.7-0.1,2.4-0.4c4.5-1.7,7.4-5.3,8.4-10.3
	c0.5-2.6,0.7-5.3,0.9-7.9v-0.1c0.1-0.9,0.1-2,0.3-2.9c0.1-1.4,0.3-2.9,0.3-4.3V625c0.1-0.8,0.1-1.7,0.2-2.5c0.2-2.2,0.4-4.5,0.5-6.7
	l0.3-3v-0.1C-164.2,610.6-164.7,608.6-165.8,606.8z M-166.3,612.6l-0.3,3c-0.2,2.2-0.4,4.5-0.5,6.6c-0.1,0.9-0.1,1.8-0.2,2.6v0.2
	c-0.1,1.4-0.2,2.8-0.3,4.1c-0.1,1-0.2,2-0.3,3c-0.2,2.6-0.4,5.2-0.9,7.7c-0.8,4.3-3.2,7.3-7.1,8.8c-0.5,0.2-1,0.3-1.7,0.3
	c-2.9,0.1-5.8,0.1-8.6,0.1h-0.6h-15.4h-0.1c-0.3,0-0.7,0-1.2,0c-0.3,0-0.5,0-0.9,0c-0.2,0-0.3,0-0.5,0c-0.1,0-0.2,0-0.3,0
	c-2.6,0-4.8-1.3-6.8-3.9c-1.5-2-2.4-4.5-2.8-7.6c-0.4-2.9-0.8-5.8-1.2-8.7v-0.1c-0.5-3.4-1.1-7.3-1.6-11c-0.3-2.5,0.4-5.1,2.1-7.2
	c1.7-2.2,4.2-3.6,6.8-3.9c4.9-0.5,9.8-1,14.5-1.6l0.5-0.1c2.2-0.3,4.5-0.5,6.7-0.7c1.1-0.1,2.2-0.3,3.3-0.4c2.6-0.3,5.3-0.6,7.9-0.8
	c3.3-0.2,6,1.4,8,4.6C-166.7,609.3-166.3,610.9-166.3,612.6l0.1-0.1l0,0L-166.3,612.6z"/>
</svg>
