<svg width="45" height="59" viewBox="0 0 45 59" fill="none" xmlns="http://www.w3.org/2000/svg">
<path d="M42.1876 33.4323V12.3795L30.3847 0H5.62492C4.8791 0 4.16338 0.310791 3.63612 0.863902C3.10887 1.41701 2.81246 2.16771 2.81246 2.94985V33.4323C2.06665 33.4323 1.35092 33.7431 0.823665 34.2962C0.296412 34.8493 0 35.6 0 36.3821V52.115C0 52.8972 0.296316 53.6479 0.823665 54.2009C1.35101 54.7539 2.06674 55.0648 2.81246 55.0648V56.0481C2.81246 56.8304 3.10878 57.5811 3.63612 58.1341C4.16347 58.6871 4.8792 58.998 5.62492 58.998H39.3751C40.1209 58.998 40.8366 58.6872 41.3639 58.1341C41.8911 57.581 42.1875 56.8303 42.1875 56.0481V55.0648C42.9334 55.0648 43.6491 54.754 44.1763 54.2009C44.7036 53.6478 45 52.8971 45 52.115V36.3821C45 35.5999 44.7037 34.8492 44.1763 34.2962C43.649 33.7432 42.9333 33.4323 42.1875 33.4323L42.1876 33.4323ZM30.9375 3.35335L38.9909 11.8001H30.9375V3.35335ZM4.68741 2.95037C4.68741 2.40736 5.1072 1.96707 5.62492 1.96707H29.0625V13.7667H40.3126V33.4328H4.68741V2.95037ZM40.3126 56.0488C40.3126 56.3095 40.2138 56.5597 40.038 56.7441C39.8622 56.9285 39.6237 57.0321 39.3751 57.0321H5.62492C5.1072 57.0321 4.68741 56.5918 4.68741 56.0488V55.0655H40.3126V56.0488ZM43.1251 52.1155C43.1251 52.3763 43.0263 52.6265 42.8505 52.8109C42.6748 52.9952 42.4362 53.0989 42.1876 53.0989H2.81241C2.29469 53.0989 1.8749 52.6586 1.8749 52.1155V36.3827C1.8749 35.8397 2.29469 35.3994 2.81241 35.3994H42.1876C42.4362 35.3994 42.6748 35.503 42.8505 35.6874C43.0263 35.8717 43.1251 36.1219 43.1251 36.3827V52.1155Z" fill="#293D7C"/>
<path d="M9.37493 23.5993H35.6251C36.1428 23.5993 36.5626 23.159 36.5626 22.616C36.5626 22.073 36.1428 21.6327 35.6251 21.6327H9.37493C8.85721 21.6327 8.43742 22.073 8.43742 22.616C8.43742 23.159 8.85721 23.5993 9.37493 23.5993Z" fill="#E74C3C"/>
<path d="M35.6251 27.5325H9.37493C8.85721 27.5325 8.43742 27.9728 8.43742 28.5158C8.43742 29.0588 8.85721 29.4991 9.37493 29.4991H35.6251C36.1428 29.4991 36.5626 29.0588 36.5626 28.5158C36.5626 27.9728 36.1428 27.5325 35.6251 27.5325Z" fill="#293D7C"/>
<path d="M11.625 41.4853C11.8937 41.2162 12.2574 41.0771 12.6282 41.1017C12.8851 41.0828 13.1421 41.1407 13.3686 41.2689C13.5322 41.3624 13.6707 41.4976 13.772 41.6622C13.8616 41.8001 13.9193 41.9585 13.9407 42.1245C13.9478 42.2553 13.9478 42.3865 13.9407 42.5178C13.9415 42.7724 14.0847 43.0033 14.3061 43.1078C14.5605 43.2219 14.8359 43.2755 15.1126 43.2649C15.4403 43.2996 15.7697 43.2201 16.0501 43.0388C16.2903 42.7781 16.3983 42.4129 16.3405 42.0555C16.3514 41.588 16.2514 41.1254 16.0501 40.7084C15.8621 40.3194 15.5888 39.9823 15.2532 39.7251C14.8941 39.4577 14.4902 39.2641 14.0625 39.1548C13.5741 39.0126 13.0693 38.9433 12.5625 38.9481C12.0904 38.9419 11.6195 39.0082 11.1655 39.1447C10.7394 39.2672 10.3451 39.4889 10.0124 39.794C9.67002 40.1136 9.40049 40.51 9.22512 40.9542C9.02422 41.506 8.92838 42.0942 8.94387 42.6846V46.8737C8.92671 47.4645 9.02255 48.0527 9.22512 48.604C9.403 49.047 9.67211 49.4429 10.0124 49.7642C10.3497 50.0619 10.7427 50.2831 11.1655 50.4135C11.6204 50.5452 12.0904 50.6114 12.5625 50.6101C13.0706 50.6136 13.5762 50.5373 14.0625 50.3841C14.4978 50.2532 14.9054 50.0364 15.2624 49.7449C15.6043 49.4741 15.8781 49.1194 16.0593 48.7124C16.2606 48.2708 16.3602 47.7858 16.3502 47.2963C16.4142 46.9381 16.3054 46.5702 16.0593 46.313C15.7818 46.1238 15.4507 46.0408 15.1218 46.0768C14.8485 46.0702 14.5773 46.1238 14.3249 46.2344C14.0997 46.3345 13.9553 46.568 13.9595 46.8244C13.9486 46.9956 13.9302 47.1663 13.903 47.3358C13.8813 47.5197 13.8239 47.697 13.7343 47.8568C13.6347 48.0188 13.4996 48.1536 13.3405 48.2501C13.1208 48.3682 12.8747 48.4222 12.6282 48.4073C12.2544 48.4336 11.8874 48.2945 11.6158 48.0241C11.36 47.7023 11.2295 47.2914 11.25 46.8735V42.6844C11.2177 42.2481 11.3525 41.8166 11.625 41.4852L11.625 41.4853Z" fill="#E74C3C"/>
<path d="M24.8529 39.1152C24.3364 38.8922 23.7571 38.8922 23.2407 39.1152C23.0147 39.2052 22.8653 39.4322 22.8657 39.6855V43.6187H19.8657V39.6855C19.8698 39.4339 19.7238 39.2061 19.4999 39.1152C19.2441 39.0046 18.9704 38.9476 18.6938 38.948C18.4167 38.9467 18.1426 39.0033 17.8873 39.1152C17.6579 39.2004 17.5064 39.4304 17.5123 39.6855V49.7547C17.5093 50.0089 17.6596 50.2376 17.8873 50.3249C18.1384 50.4527 18.4146 50.5168 18.6938 50.512C18.9725 50.5155 19.2483 50.4518 19.4999 50.3249C19.7221 50.2319 19.8673 50.0058 19.8657 49.7547V45.4677H22.8657V49.7547C22.8682 50.0071 23.0163 50.2328 23.2407 50.3249C23.7504 50.58 24.3431 50.58 24.8529 50.3249C25.0751 50.2319 25.2203 50.0058 25.2187 49.7547V39.6855C25.2228 39.4339 25.0768 39.2061 24.8529 39.1152V39.1152Z" fill="#00947E"/>
<path d="M34.7904 38.9489C34.6033 38.938 34.4154 38.938 34.2279 38.9489C34.0718 38.9656 33.9211 39.0196 33.7876 39.1065C33.6336 39.2053 33.4972 39.3322 33.3842 39.4801C33.2243 39.689 33.0832 39.9129 32.9623 40.1486L31.4062 43.0002L29.8502 40.1486C29.7292 39.9129 29.5882 39.689 29.4283 39.4801C29.3229 39.3471 29.1998 39.2312 29.0625 39.1359C28.9248 39.0503 28.7717 38.9968 28.6126 38.9788C28.4285 38.9674 28.2435 38.9674 28.0593 38.9788C27.9107 38.9783 27.7626 38.9981 27.6186 39.0376C27.4796 39.0784 27.3512 39.1526 27.2436 39.254C27.1277 39.3576 27.0377 39.4893 26.9812 39.6373C26.91 39.8181 26.8753 40.0121 26.8782 40.2079V49.7556C26.8753 50.0098 27.0255 50.2385 27.2532 50.3259C27.763 50.5809 28.3556 50.5809 28.8658 50.3259C29.0877 50.2328 29.2329 50.0067 29.2312 49.7556V43.6591L30.6655 46.4124C30.7342 46.5713 30.8539 46.6999 31.0033 46.7763C31.1284 46.8422 31.2665 46.876 31.4063 46.8746C31.5524 46.8768 31.6968 46.843 31.8282 46.7763C31.986 46.7021 32.1149 46.5739 32.194 46.4124L33.638 43.8162V49.7161H33.6376C33.6346 49.9707 33.7849 50.1989 34.0126 50.2867C34.5227 50.5413 35.115 50.5413 35.6252 50.2867C35.8474 50.1937 35.9927 49.9672 35.991 49.7161V40.178C36.0353 39.8088 35.9018 39.4401 35.6344 39.1947C35.3875 39.0161 35.0903 38.9296 34.7906 38.9489L34.7904 38.9489Z" fill="#FFCE31"/>
</svg>
