<svg width="52" height="59" viewBox="0 0 52 59" fill="none" xmlns="http://www.w3.org/2000/svg">
<path d="M37.0323 0H0V55.0667H14.618V58.0167C14.618 58.2774 14.7207 58.5277 14.9034 58.712C15.0861 58.8964 15.3341 59 15.5925 59H48.7267C48.9851 59 49.2331 58.8964 49.4158 58.712C49.5985 58.5277 49.7012 58.2774 49.7012 58.0167V25.143L50.6984 23.4959L51.7225 21.79C51.7808 21.6917 53.0312 19.502 49.6995 17.138V5.89989C49.6995 5.63913 49.5968 5.3889 49.4136 5.20453C49.2309 5.02016 48.9834 4.91655 48.7249 4.91655H37.0328L37.0323 0ZM48.5318 23.3101L36.3495 43.4364L34.6858 42.4126L46.8681 22.2942C47.4676 22.6621 47.94 22.9509 48.3242 23.1792L48.5318 23.3101ZM43.539 20.2389L45.1958 21.2683L33.0135 41.3868L31.3502 40.3639L43.539 20.2389ZM39.8105 22.6169H37.0323V20.6502H41.0018L39.8105 22.6169ZM38.6198 24.5836L37.0323 27.2061V24.5836H38.6198ZM30.7318 42.2836L32.8301 43.5768L34.9293 44.8688L29.6259 48.8719L30.7318 42.2836ZM42.3805 18.3689L42.1917 18.6836H37.0324V16.717H43.3738L42.3805 18.3689ZM1.94907 1.96689H35.0832V30.4251L32.0717 35.3998H12.669V37.3664H30.8811L29.1788 40.1778C29.1718 40.1896 29.1718 40.2041 29.1653 40.216C29.11 40.3121 29.0709 40.4175 29.05 40.5268V40.5377L28.9203 41.2998H1.9497L1.94907 1.96689ZM1.94907 43.2669H28.5911L28.2618 45.2336H4.873V47.2002H27.9321L27.3004 50.9694C27.2339 51.3662 27.4135 51.7635 27.7542 51.9733C28.0944 52.1827 28.5273 52.1617 28.8462 51.9202L35.0832 47.212V53.1002H1.94907V43.2669ZM47.7521 57.0336H16.5671V55.0669H37.0323V48.1836H44.8285V46.2169H37.0323V45.7401L37.2498 45.5768C37.2646 45.565 37.2759 45.5492 37.2898 45.5365C37.3198 45.5114 37.3477 45.4842 37.3742 45.4557C37.4051 45.4223 37.4334 45.3868 37.4591 45.3495C37.4708 45.3328 37.4865 45.32 37.4969 45.3012L38.1334 44.2502H44.8285V42.2836H39.3241L40.5148 40.3169H44.8284V38.3502H41.7099L42.9006 36.3836H44.8284V34.4169H44.0866L47.752 28.3624L47.7521 57.0336ZM50.0571 20.7671L49.5393 21.6332L44.5479 18.5586L45.0257 17.7609C45.2506 17.4778 46.1738 17.2495 48.0602 18.401C49.9467 19.5524 50.1737 20.4826 50.0571 20.7671ZM47.7521 6.88356V16.0364C46.8451 15.5887 45.8136 15.4666 44.8285 15.6901V14.7502H37.0323V12.7835H44.8285V10.8169H37.0323V6.88352L47.7521 6.88356Z" fill="#293D7C"/>
<path d="M4.87268 49.1667H18.5162V51.1333H4.87268V49.1667Z" fill="#00947E"/>
<path d="M24.3633 49.1667H26.3124V51.1333H24.3633V49.1667Z" fill="#FFCE31"/>
<path d="M20.4652 49.1667H22.4143V51.1333H20.4652V49.1667Z" fill="#FFCE31"/>
<path d="M5.84721 11.8H31.1851C31.4435 11.8 31.6915 11.6964 31.8742 11.512C32.0569 11.3277 32.1596 11.0774 32.1596 10.8167V4.91668C32.1596 4.65593 32.0569 4.4057 31.8742 4.22133C31.6915 4.03695 31.4435 3.93335 31.1851 3.93335H5.84721C5.30905 3.93335 4.87268 4.37366 4.87268 4.91668V10.8167C4.87268 11.0774 4.97536 11.3277 5.15808 11.512C5.3408 11.6964 5.58879 11.8 5.84721 11.8ZM6.82175 5.90002H30.2106V9.83335H6.82175V5.90002Z" fill="#E74C3C"/>
<path d="M7.79627 15.7333C7.021 15.7333 6.277 16.0441 5.72892 16.5972C5.18085 17.1504 4.87273 17.9011 4.87273 18.6833C4.87273 19.4654 5.18075 20.2162 5.72892 20.7693C6.2771 21.3223 7.0211 21.6332 7.79627 21.6332C8.57144 21.6332 9.31554 21.3224 9.86362 20.7693C10.4117 20.2161 10.7198 19.4654 10.7198 18.6833C10.7198 17.9011 10.4118 17.1503 9.86362 16.5972C9.31544 16.0442 8.57144 15.7333 7.79627 15.7333ZM7.79627 19.6666C7.4021 19.6666 7.04666 19.427 6.89614 19.0595C6.74517 18.6921 6.82827 18.2694 7.10714 17.9879C7.38601 17.7065 7.80497 17.6227 8.16912 17.775C8.53326 17.9269 8.77081 18.2856 8.77081 18.6833C8.77081 18.9441 8.66813 19.1943 8.48541 19.3787C8.30268 19.563 8.0547 19.6666 7.79627 19.6666Z" fill="#FFCE31"/>
<path d="M12.6689 17.7H32.1596V19.6667H12.6689V17.7Z" fill="#293D7C"/>
<path d="M7.79627 24.5833C7.021 24.5833 6.277 24.8941 5.72892 25.4472C5.18085 26.0004 4.87273 26.7511 4.87273 27.5333C4.87273 28.3154 5.18075 29.0662 5.72892 29.6193C6.2771 30.1723 7.0211 30.4832 7.79627 30.4832C8.57144 30.4832 9.31554 30.1724 9.86362 29.6193C10.4117 29.0661 10.7198 28.3154 10.7198 27.5333C10.7198 26.7511 10.4118 26.0003 9.86362 25.4472C9.31544 24.8942 8.57144 24.5833 7.79627 24.5833ZM7.79627 28.5166C7.4021 28.5166 7.04666 28.277 6.89614 27.9095C6.74517 27.5421 6.82827 27.1194 7.10714 26.838C7.38601 26.5566 7.80497 26.4727 8.16912 26.6251C8.53326 26.7769 8.77081 27.1356 8.77081 27.5333C8.77081 27.7941 8.66813 28.0443 8.48541 28.2287C8.30268 28.413 8.0547 28.5166 7.79627 28.5166Z" fill="#E74C3C"/>
<path d="M12.6689 26.55H32.1596V28.5167H12.6689V26.55Z" fill="#293D7C"/>
<path d="M7.79627 33.4333C7.021 33.4333 6.277 33.7442 5.72892 34.2973C5.18085 34.8504 4.87273 35.6011 4.87273 36.3833C4.87273 37.1655 5.18075 37.9163 5.72892 38.4693C6.2771 39.0223 7.0211 39.3332 7.79627 39.3332C8.57144 39.3332 9.31554 39.0224 9.86362 38.4693C10.4117 37.9162 10.7198 37.1655 10.7198 36.3833C10.7198 35.6011 10.4118 34.8503 9.86362 34.2973C9.31544 33.7443 8.57144 33.4333 7.79627 33.4333ZM7.79627 37.3667C7.4021 37.3667 7.04666 37.127 6.89614 36.7596C6.74517 36.3921 6.82827 35.9694 7.10714 35.688C7.38601 35.4066 7.80497 35.3228 8.16912 35.4751C8.53326 35.627 8.77081 35.9856 8.77081 36.3833C8.77081 36.6441 8.66813 36.8943 8.48541 37.0787C8.30268 37.2631 8.0547 37.3667 7.79627 37.3667Z" fill="#00947E"/>
</svg>
