<svg width="58" height="59" viewBox="0 0 58 59" fill="none" xmlns="http://www.w3.org/2000/svg">
<path d="M42.735 18.0813H42.5867C41.0933 18.0813 39.8786 19.3278 39.8786 20.8601C39.8786 20.94 39.8815 21.019 39.8889 21.0912L40.7327 31.4868C40.8151 32.5076 41.6622 33.3071 42.6608 33.3071C43.6594 33.3071 44.5065 32.5076 44.5889 31.4868L45.4326 21.0988C45.4401 21.019 45.443 20.94 45.443 20.8601C45.443 19.3277 44.2282 18.0813 42.7348 18.0813L42.735 18.0813ZM42.7416 31.3288C42.7341 31.4125 42.5876 31.4125 42.5801 31.3288L41.7334 20.8602C41.7334 20.3776 42.1164 19.9847 42.5867 19.9847H42.735C43.2053 19.9847 43.5883 20.3776 43.5854 20.9333L42.7416 31.3288Z" fill="#E74C3C"/>
<path d="M42.6608 35.2103C41.1268 35.2103 39.8785 36.4911 39.8785 38.0652C39.8785 39.6392 41.1268 40.92 42.6608 40.92C44.1948 40.92 45.443 39.6392 45.443 38.0652C45.443 36.4911 44.1948 35.2103 42.6608 35.2103ZM42.6608 39.0168C42.149 39.0168 41.7333 38.5902 41.7333 38.0652C41.7333 37.5401 42.149 37.1136 42.6608 37.1136C43.1725 37.1136 43.5882 37.5401 43.5882 38.0652C43.5882 38.5902 43.1725 39.0168 42.6608 39.0168Z" fill="#FFCE31"/>
<path d="M57.0003 36.7373L48.7599 18.2901C47.801 16.1435 45.8302 14.6672 43.5887 14.3439V3.80645H23.1855V2.85484C23.1855 1.28082 21.9372 0 20.4032 0H5.56452C4.03051 0 2.78226 1.28082 2.78226 2.85484V21.8871C2.78226 23.4611 4.03051 24.7419 5.56452 24.7419H12.0565V36.1613H2.78226C1.24825 36.1613 0 37.4421 0 39.0161V52.3387C0 53.9127 1.24825 55.1936 2.78226 55.1936H7.41936V57.0968H5.56452V59H20.4032V57.0968H18.5484V55.1936H23.1855C24.7195 55.1936 25.9677 53.9127 25.9677 52.3387V50.4355H43.5887V44.7258H52.005C55.0349 44.7258 57.5 42.1964 57.5 39.0875C57.5 38.2701 57.3311 37.4791 57.0003 36.7369L57.0003 36.7373ZM21.3301 15.2265H4.63657V9.51678H21.3301V15.2265ZM5.56399 1.90388H20.4027C20.9144 1.90388 21.3301 2.33041 21.3301 2.85549V7.61356H4.63657V2.85549C4.63657 2.33041 5.05225 1.90388 5.56399 1.90388ZM4.63657 21.8877V17.1297H21.3301V21.8877C21.3301 22.4128 20.9144 22.8394 20.4027 22.8394H5.56399C5.05225 22.8394 4.63657 22.4128 4.63657 21.8877ZM2.78173 38.0652H23.185C23.6967 38.0652 24.1124 38.4917 24.1124 39.0168V49.4845H1.85431V39.0168C1.85431 38.4917 2.26999 38.0652 2.78173 38.0652ZM16.693 57.0974H9.27366V55.1942H16.693V57.0974ZM23.185 53.291H2.78173C2.26999 53.291 1.85431 52.8644 1.85431 52.3394V51.3878H24.1124V52.3394C24.1124 52.8644 23.6967 53.291 23.185 53.291ZM41.7333 48.5329H25.9672V39.0168C25.9672 37.4428 24.719 36.1619 23.185 36.1619H13.9108V24.7426H20.4027C21.9367 24.7426 23.185 23.4618 23.185 21.8877V5.71033H41.7333V14.3446C39.4918 14.6683 37.5211 16.1433 36.5622 18.2908L28.3222 36.739C27.991 37.4799 27.8221 38.2709 27.8221 39.0883C27.8221 42.1972 30.2872 44.7267 33.3171 44.7267H41.7334L41.7333 48.5329ZM52.0045 42.8232H33.3172C31.3104 42.8232 29.6771 41.1473 29.6771 39.0881C29.6771 38.5465 29.7885 38.0231 30.0083 37.5312L38.2483 19.0829C39.0366 17.3182 40.7688 16.178 42.661 16.178C44.5531 16.178 46.2853 17.3182 47.0737 19.0842L55.3136 37.5325C55.5335 38.0232 55.6448 38.5465 55.6448 39.0882C55.6448 41.1474 54.0115 42.8233 52.0047 42.8233L52.0045 42.8232Z" fill="#293D7C"/>
<path d="M10.2011 3.80713H12.0559V5.71035H10.2011V3.80713Z" fill="#00947E"/>
<path d="M6.49139 3.80713H8.34623V5.71035H6.49139V3.80713Z" fill="#00947E"/>
<path d="M6.49139 19.0329H8.34623V20.9362H6.49139V19.0329Z" fill="#FFCE31"/>
<path d="M10.2011 19.0329H12.0559V20.9362H10.2011V19.0329Z" fill="#FFCE31"/>
<path d="M17.6205 11.42H19.4753V13.3232H17.6205V11.42Z" fill="#E74C3C"/>
<path d="M13.9108 11.42H15.7656V13.3232H13.9108V11.42Z" fill="#E74C3C"/>
</svg>
