<svg width="60" height="60" viewBox="0 0 60 60" fill="none" xmlns="http://www.w3.org/2000/svg">
<rect width="60" height="60" fill="#E5E5E5"/>
<path d="M29.5771 20.4257C29.5012 20.4257 29.4275 20.4347 29.3516 20.4364L31.7936 22.5708C34.2795 23.2417 36.2625 24.9746 37.12 27.2258L39.564 29.3618V29.3614C39.4831 26.9699 38.396 24.701 36.5327 23.0335C34.6689 21.3664 32.1751 20.4315 29.577 20.4257L29.5771 20.4257Z" fill="#FFCE31"/>
<path d="M30.0291 39.5744C30.2333 39.5744 30.4331 39.5556 30.6343 39.5422L28.4817 37.3949C27.0757 37.0857 25.7801 36.3728 24.7409 35.3365C23.7016 34.2996 22.9601 32.9804 22.5998 31.5273L20.4283 29.3617C20.4279 29.4078 20.4219 29.4522 20.4219 29.4984V29.4979C20.4167 32.1654 21.4264 34.7252 23.2282 36.6148C25.0296 38.5044 27.4761 39.5691 30.0292 39.5745L30.0291 39.5744Z" fill="#FFCE31"/>
<path d="M26.2524 13.638C26.6813 13.5449 26.9863 13.1696 26.9859 12.7369V9.53652C26.9859 8.81465 27.7065 8.22728 28.5922 8.22728H31.1259C32.0129 8.22728 32.734 8.81463 32.734 9.53652V12.7369C32.7331 13.1696 33.0381 13.5445 33.467 13.638C35.4091 14.0576 37.2589 14.8168 38.9292 15.8795C39.2978 16.1137 39.7821 16.062 40.0912 15.7552L42.3811 13.4883C42.8941 12.9785 43.8231 13.0687 44.4505 13.6864L46.2424 15.4632C46.5519 15.7602 46.7408 16.1588 46.7733 16.5838C46.8041 16.9258 46.6834 17.2642 46.4425 17.5124L44.1548 19.776C43.8448 20.0828 43.7924 20.5611 44.0291 20.9261C45.1038 22.5815 45.8709 24.412 46.2953 26.3327C46.388 26.7552 46.7671 27.057 47.2056 27.0579H50.4349C51.1658 27.0579 51.7603 27.7711 51.7603 28.6472V31.1565C51.7603 32.0334 51.1654 32.7467 50.4349 32.7467L47.2056 32.7471C46.7671 32.7475 46.388 33.0494 46.2953 33.4719C46.1309 34.2138 45.915 34.9435 45.6487 35.6559L47.1086 37.0214C47.4431 36.2318 47.7206 35.4197 47.9403 34.5916H50.4353C52.194 34.5916 53.6247 33.051 53.6247 31.1565V28.6472C53.6247 26.7536 52.1939 25.213 50.4353 25.213H47.9403V25.2134C47.5097 23.5835 46.8545 22.02 45.992 20.5664L47.7598 18.8171H47.7602C48.3813 18.1974 48.7 17.343 48.6343 16.4744C48.5752 15.5995 48.1933 14.7763 47.5613 14.1599L45.7669 12.3811C44.4089 11.0444 42.2971 10.9578 41.0619 12.1858L39.2925 13.9372C37.8251 13.0841 36.2454 12.4356 34.5978 12.01V9.53671C34.5978 7.79771 33.0402 6.38306 31.1259 6.38306H28.5922C26.6788 6.38306 25.122 7.79771 25.122 9.53671V12.01C23.9459 12.3151 22.8031 12.7347 21.7109 13.2626L23.1695 14.6272C24.1618 14.199 25.1945 13.8676 26.2524 13.6383L26.2524 13.638Z" fill="#293D7C"/>
<path d="M33.5572 46.1414C33.1313 46.2378 32.8286 46.6241 32.8294 47.07V50.3673C32.8294 51.1111 32.1132 51.7169 31.2329 51.7169H28.7175C27.8381 51.7169 27.1227 51.1112 27.1227 50.3673V47.07C27.1231 46.6237 26.8204 46.2373 26.3945 46.1414C24.4664 45.7103 22.6299 44.9275 20.9729 43.8311C20.6065 43.5889 20.1249 43.6421 19.8176 43.9587L17.547 46.2939C17.0357 46.8193 16.1137 46.7263 15.4909 46.0889L13.7102 44.2584C13.4029 43.9536 13.2154 43.5441 13.1836 43.107C13.1534 42.7541 13.2724 42.4049 13.5107 42.1484L15.7846 39.8156C16.0927 39.4991 16.1447 39.0062 15.9097 38.6301C14.8424 36.925 14.0803 35.0387 13.6594 33.0601C13.5678 32.6243 13.1915 32.3133 12.7557 32.3128H9.54669C8.82261 32.3128 8.23318 31.5778 8.23318 30.6741L8.2336 28.0879C8.2336 27.1846 8.8226 26.45 9.5471 26.45H12.7561C13.1919 26.4491 13.5677 26.1381 13.6599 25.7023C13.8495 24.8151 14.1084 23.9449 14.4335 23.0999L13.0027 21.7021C12.6037 22.6231 12.277 23.5749 12.0263 24.5492H9.54677C7.80206 24.5492 6.38281 26.1367 6.38281 28.0882V30.674C6.38281 32.6259 7.80206 34.2138 9.54677 34.2138H12.0263C12.4534 35.8927 13.1043 37.503 13.9606 39.0005L12.2018 40.8049C11.5872 41.4448 11.2716 42.3244 11.3365 43.2191C11.3943 44.1207 11.7739 44.9694 12.403 45.6034L14.1832 47.4331C15.5285 48.8114 17.6247 48.9031 18.856 47.6368L20.6106 45.8324C22.067 46.712 23.6358 47.3811 25.2723 47.8189V50.3667C25.2723 52.1592 26.8179 53.617 28.7175 53.617H31.233C33.1335 53.617 34.6799 52.1588 34.6799 50.3667V47.8189C35.9306 47.4833 37.1429 47.0124 38.2965 46.4147L36.8612 45.0123C35.8021 45.5069 34.6943 45.8857 33.5572 46.1414Z" fill="#293D7C"/>
<path d="M52.0895 42.5489C51.5066 42.5405 50.924 42.5954 50.3527 42.7135L18.1779 12.1627C17.7331 11.666 17.4782 11.0278 17.4589 10.3611C17.361 7.20972 16.3026 4.82104 14.3126 3.2615C10.5426 0.307412 4.85096 1.5106 4.61022 1.56291C4.25951 1.64081 3.98371 1.91092 3.89875 2.26018C3.8138 2.60902 3.93433 2.97587 4.2097 3.20661L8.30561 6.63552C8.49855 6.79801 8.61824 7.03127 8.63708 7.28296C8.65591 7.53465 8.57221 7.7834 8.40564 7.97269L6.33315 10.3191C6.02512 10.6671 5.50701 10.7325 5.12237 10.4716L1.46455 7.97771C1.1582 7.76958 0.758104 7.76163 0.443813 7.95677C0.129093 8.15192 -0.041236 8.51375 0.00856207 8.8806C1.06739 16.8855 4.9784 17.6134 5.6267 17.6787L10.7413 18.5007V18.5011C11.3368 18.5975 11.8855 18.8847 12.3044 19.3194L43.9853 49.5883V49.5879C43.9439 49.8906 43.9205 50.1959 43.915 50.5016C43.8769 52.6403 44.688 54.7066 46.1704 56.2477C47.6528 57.7888 49.6855 58.6792 51.8224 58.7227C51.868 58.7231 51.9136 58.7235 51.9592 58.7235C54.0484 58.7277 56.0551 57.9107 57.5476 56.4487C59.0802 54.957 59.9607 52.9192 59.9967 50.7801C60.0327 48.6414 59.2212 46.5747 57.7397 45.0329C56.2582 43.4905 54.2267 42.5977 52.0894 42.5491L52.0895 42.5489ZM5.89137 15.8136C5.8604 15.8077 5.82943 15.8044 5.79805 15.8031C5.77168 15.801 3.441 15.5393 2.26911 10.8021L4.06915 12.0291C4.63204 12.4111 5.31464 12.5748 5.98929 12.4898C6.66393 12.4052 7.28459 12.0773 7.73533 11.568L9.80739 9.22161H9.80781C10.3113 8.65082 10.5632 7.90039 10.5063 7.14115C10.4494 6.38191 10.0886 5.67756 9.50564 5.18794L7.10049 3.17406C8.85274 3.11124 11.3522 3.32566 13.1651 4.7499C14.6914 5.94933 15.5054 7.85643 15.5849 10.4185L15.5845 10.4189C15.6142 11.3817 15.9381 12.3126 16.5123 13.0861L12.7286 17.2672C12.2113 16.9493 11.6368 16.7366 11.0374 16.6407L5.89137 15.8136ZM56.2433 55.0953C55.0773 56.2487 53.4924 56.8781 51.8535 56.8392C50.0201 56.8061 48.2962 55.9593 47.1482 54.5283C46.0002 53.0973 45.5475 51.23 45.9115 49.4318C45.9734 49.1156 45.8705 48.7898 45.6378 48.5675L14.1562 18.4905L17.8332 14.4276L49.4337 44.4327C49.6714 44.6588 50.01 44.7434 50.326 44.6567C52.2038 44.1354 54.2177 44.5349 55.7545 45.7343C57.2917 46.9333 58.1701 48.7901 58.1228 50.7399C58.101 52.3844 57.4247 53.9523 56.2441 55.0965L56.2433 55.0953Z" fill="#E74C3C"/>
<path d="M52.4088 45.9586C51.3911 45.9309 50.4068 46.3842 49.6821 47.2148C48.9522 48.0407 48.5327 49.1684 48.5162 50.352C48.4992 51.5356 48.8864 52.6784 49.5925 53.5319C50.2954 54.3859 51.2643 54.8767 52.2817 54.8931C52.3035 54.8936 52.3253 54.8936 52.3471 54.8936C53.3419 54.8959 54.2975 54.4445 55.008 53.6364C55.738 52.8124 56.157 51.687 56.1744 50.5053C56.1913 49.3236 55.805 48.1818 55.0993 47.3301C54.394 46.478 53.4266 45.9853 52.4089 45.9586L52.4088 45.9586ZM53.7496 52.1228C53.3701 52.5653 52.8493 52.8053 52.312 52.7851C51.7751 52.7762 51.2639 52.5175 50.893 52.067C50.5203 51.6161 50.3161 51.0119 50.3249 50.3866C50.3338 49.7618 50.5551 49.166 50.941 48.7296C51.3157 48.3031 51.8199 48.065 52.3447 48.0659C52.3561 48.0659 52.3678 48.0659 52.3791 48.0664C52.9164 48.0814 53.4267 48.3425 53.7989 48.7924C54.1712 49.2424 54.3746 49.8457 54.3653 50.4696C54.3565 51.0935 54.1348 51.6878 53.7497 52.1227L53.7496 52.1228Z" fill="#00947E"/>
<path d="M40.1436 3.36381C40.4071 3.48659 40.6682 3.61417 40.9273 3.74749C41.1406 3.85732 41.3808 3.85732 41.5941 3.74797C41.8077 3.63814 41.9768 3.42807 42.0646 3.16381C42.2487 2.61418 42.0382 1.98446 41.5937 1.75468C41.317 1.61272 41.0381 1.47603 40.7564 1.34462C40.3049 1.13743 39.8029 1.4204 39.6339 1.97674C39.4649 2.53357 39.6929 3.15416 40.1437 3.36377L40.1436 3.36381Z" fill="#293D7C"/>
<path d="M46.3478 6.91087C46.5889 7.09184 46.8272 7.27721 47.0618 7.46654H47.0622C47.2556 7.62241 47.498 7.68757 47.7359 7.64839C47.9738 7.60876 48.1874 7.46786 48.3294 7.25651C48.6263 6.81621 48.5406 6.19758 48.1376 5.87222C47.8868 5.67055 47.6331 5.4733 47.3766 5.28001H47.3762C46.9623 4.97091 46.3967 5.08539 46.1127 5.53582C45.8287 5.98626 45.9339 6.6018 46.3478 6.91087H46.3478Z" fill="#293D7C"/>
<path d="M33.0449 1.19297C33.4565 1.2156 33.8654 1.24116 34.2725 1.26965V1.26992C34.3359 1.27445 34.4005 1.27684 34.4646 1.27658C35.1353 1.27498 35.6905 1.03322 35.7402 0.721707C35.7894 0.410192 35.3159 0.133289 34.6527 0.0856314C34.2193 0.0552788 33.7836 0.0278543 33.345 0.00389312C32.6417 -0.0333826 32.0054 0.201184 31.923 0.528942C31.8401 0.856433 32.3421 1.15331 33.0449 1.19298V1.19297Z" fill="#293D7C"/>
<path d="M59.3698 29.3617C59.0192 29.3628 58.7357 29.7319 58.7365 30.186V30.2677C58.7365 30.5346 58.7334 30.8003 58.7269 31.0649V31.0653C58.7156 31.5194 58.9901 31.8995 59.3404 31.9142C59.3469 31.9145 59.3537 31.9145 59.3602 31.9145V31.9149C59.7029 31.9138 59.983 31.5601 59.9929 31.1159C59.9997 30.8344 60.0031 30.5518 60.0031 30.2677V30.186C60.0037 29.7319 59.7201 29.3628 59.3698 29.3617H59.3698Z" fill="#293D7C"/>
<path d="M26.3834 1.2766C26.4184 1.2766 26.4535 1.27498 26.4881 1.27228C26.7605 1.24855 27.0344 1.22779 27.309 1.20999C27.7783 1.17845 28.1234 0.883993 28.0808 0.551792C28.0385 0.219323 27.6244 -0.0263228 27.1544 0.00226195C26.8618 0.0211371 26.5704 0.0432477 26.2809 0.0683244C25.833 0.108231 25.5058 0.387313 25.5328 0.70657C25.5599 1.02556 25.932 1.27498 26.3834 1.2766L26.3834 1.2766Z" fill="#293D7C"/>
<path d="M51.9154 11.1579C52.0787 11.3462 52.3137 11.464 52.5681 11.4858C52.8225 11.5076 53.0757 11.431 53.2712 11.2732C53.6785 10.9437 53.7323 10.3607 53.3911 9.96812C53.1792 9.72423 52.9635 9.48364 52.7439 9.24677C52.5746 9.06303 52.3357 8.95179 52.0808 8.93779C51.8256 8.92378 51.575 9.00782 51.3851 9.17137C50.9876 9.51248 50.9528 10.0971 51.3065 10.4793C51.5127 10.7022 51.7156 10.9284 51.9154 11.1579L51.9154 11.1579Z" fill="#293D7C"/>
<path d="M57.5881 23.5779C57.6201 23.8003 57.7097 23.9948 57.8376 24.1183C57.9655 24.2417 58.121 24.2841 58.2699 24.236C58.4188 24.1878 58.5487 24.0533 58.6311 23.8619C58.7132 23.6704 58.7411 23.4381 58.7086 23.216C58.6672 22.9268 58.6229 22.6398 58.5753 22.354C58.539 22.1327 58.4451 21.9424 58.3147 21.8251C58.1842 21.7074 58.0279 21.6726 57.88 21.7276C57.7322 21.7827 57.605 21.9233 57.5268 22.1186C57.4485 22.3138 57.4254 22.5477 57.4628 22.7682C57.5073 23.0364 57.5493 23.3062 57.5881 23.5779V23.5779Z" fill="#293D7C"/>
<path d="M57.8588 38.2656C58.0035 38.3276 58.1587 38.2997 58.2896 38.1879C58.4207 38.0757 58.5167 37.8889 58.5567 37.6691C58.6092 37.3847 58.6588 37.0983 58.705 36.8108C58.7414 36.5895 58.7184 36.3555 58.6408 36.1603C58.5632 35.965 58.4374 35.8245 58.2914 35.7698C58.1453 35.715 57.9909 35.751 57.862 35.8689C57.7334 35.9872 57.6412 36.1783 57.6056 36.3996C57.5621 36.6695 57.5159 36.9375 57.4666 37.2043C57.3819 37.6615 57.5573 38.1358 57.8588 38.2656L57.8588 38.2656Z" fill="#293D7C"/>
<path d="M55.4608 17.3776C55.5819 17.5878 55.7968 17.7487 56.0581 17.8246C56.3194 17.9006 56.6057 17.8852 56.8536 17.7821C57.1018 17.6787 57.2912 17.4961 57.3803 17.2745C57.4694 17.053 57.4508 16.8102 57.3288 16.6001C57.1719 16.3274 57.0099 16.0571 56.8433 15.7891C56.7143 15.5821 56.493 15.4267 56.2289 15.3578C55.9648 15.2893 55.6789 15.3122 55.4348 15.4223C55.1907 15.5325 55.0083 15.7202 54.928 15.9445C54.8473 16.1688 54.8756 16.4108 55.006 16.6174C55.1619 16.8684 55.3137 17.1219 55.4608 17.3776V17.3776Z" fill="#293D7C"/>
<path d="M20.0169 3.82988C20.1227 3.82988 20.2276 3.80514 20.326 3.75761C20.5867 3.63249 20.8489 3.51269 21.1134 3.39775V3.39824C21.5682 3.2023 21.8102 2.58248 21.6541 2.01313C21.4981 1.44375 21.0027 1.14063 20.548 1.33608C20.2656 1.4583 19.9852 1.58633 19.7067 1.7202C19.3155 1.90886 19.087 2.41956 19.1629 2.93608C19.2388 3.45261 19.5975 3.82799 20.0166 3.82992L20.0169 3.82988Z" fill="#293D7C"/>
<path d="M26.0582 57.6151C25.7841 57.5694 25.5116 57.5178 25.2406 57.4598C24.7733 57.3635 24.3384 57.8125 24.2675 58.4649C24.197 59.1167 24.5176 59.7254 24.9841 59.826C25.2734 59.8872 25.5638 59.9425 25.8554 59.992H25.8558C25.8897 59.9973 25.9236 60 25.9579 60C26.4104 59.9968 26.7828 59.5035 26.8094 58.8735C26.8357 58.243 26.5072 57.6923 26.0582 57.6152L26.0582 57.6151Z" fill="#293D7C"/>
<path d="M1.26731 29.7599C1.26731 29.4965 1.27014 29.2338 1.27608 28.9727V28.9723C1.28258 28.7447 1.22148 28.5233 1.10635 28.3567C0.990928 28.1901 0.831104 28.0925 0.662227 28.0856C0.49335 28.0784 0.329275 28.163 0.206788 28.3197C0.0840194 28.4764 0.0130144 28.6929 0.00933558 28.9205C0.00311226 29.1991 0 29.479 0 29.7725L0.633932 29.8022H0C0.000282861 30.0268 0.0676081 30.2421 0.186699 30.3992C0.305789 30.5566 0.46675 30.6428 0.63365 30.6382C0.987248 30.6272 1.26928 30.2364 1.2673 29.7599L1.26731 29.7599Z" fill="#293D7C"/>
<path d="M39.6666 56.24C39.4062 56.3648 39.1442 56.4843 38.8802 56.5979C38.6612 56.6906 38.4808 56.8892 38.3787 57.149C38.2765 57.4093 38.261 57.7093 38.3357 57.9837C38.41 58.258 38.5687 58.4843 38.7761 58.612C38.9836 58.7397 39.2227 58.7581 39.4414 58.6644C39.7243 58.5425 40.0045 58.4144 40.2828 58.2813V58.2808C40.7305 58.0662 40.9554 57.4374 40.7855 56.8751C40.6156 56.3128 40.1152 56.0288 39.6666 56.24L39.6666 56.24Z" fill="#293D7C"/>
<path d="M33.5111 57.4551C33.2391 57.5021 32.9661 57.5426 32.6918 57.5771C32.2371 57.637 31.8951 58.1919 31.9149 58.8385C31.9347 59.4856 32.3091 59.9967 32.7661 60C32.7912 60 32.8164 59.9983 32.8419 59.9951C33.1348 59.9584 33.4265 59.9147 33.7171 59.8645V59.865C34.1848 59.7819 34.5173 59.1785 34.4609 58.5146C34.4042 57.8513 33.9795 57.3774 33.5111 57.4551L33.5111 57.4551Z" fill="#293D7C"/>
<path d="M13.6457 53.0892C13.4045 52.9074 13.1665 52.7217 12.931 52.5319C12.5263 52.2093 11.9577 52.3039 11.6606 52.7441C11.3635 53.1843 11.451 53.8032 11.8557 54.1259C12.1058 54.3271 12.3591 54.5243 12.6157 54.718C12.8136 54.8672 13.0576 54.9249 13.2944 54.8774C13.5312 54.8303 13.7408 54.6824 13.8768 54.4662C14.1613 54.0163 14.0581 53.4009 13.6457 53.0892L13.6457 53.0892Z" fill="#293D7C"/>
<path d="M19.8574 56.6366C19.5944 56.5137 19.333 56.3856 19.074 56.2513L19.0744 56.2518C18.629 56.0253 18.1195 56.2863 17.9343 56.8347C17.7496 57.3831 17.9592 58.0131 18.403 58.2429C18.6804 58.3864 18.9596 58.5236 19.2413 58.6556C19.6925 58.8624 20.1942 58.5802 20.3638 58.0246C20.5338 57.469 20.3074 56.8487 19.8573 56.6366H19.8574Z" fill="#293D7C"/>
<path d="M8.08683 47.566C7.74564 47.1741 7.1376 47.1217 6.72891 47.4494C6.32026 47.7767 6.26569 48.3599 6.60687 48.7519C6.81872 48.9968 7.03443 49.2383 7.25402 49.4766C7.42333 49.66 7.66181 49.7713 7.91706 49.7857C8.17188 49.8001 8.42241 49.7169 8.61276 49.5537C9.01025 49.2124 9.04592 48.6279 8.69269 48.2446C8.48729 48.022 8.28533 47.7957 8.0868 47.5661L8.08683 47.566Z" fill="#293D7C"/>
<path d="M2.26988 35.4871C2.2069 35.1537 2.02819 34.8615 1.77216 34.6753C1.51665 34.4892 1.20532 34.425 0.906789 34.4966C0.608779 34.5676 0.348141 34.7693 0.183261 35.0557C0.0178708 35.3427 -0.0384561 35.691 0.0260642 36.0244C0.108505 36.4586 0.196579 36.8894 0.290791 37.3185H0.291303C0.363502 37.6501 0.550918 37.9354 0.811556 38.1124C1.0727 38.2889 1.38557 38.3422 1.68204 38.2602C1.97801 38.1777 2.2325 37.9675 2.3897 37.6748C2.54638 37.3821 2.59298 37.0315 2.51822 36.7004C2.43015 36.2988 2.34719 35.8944 2.26988 35.4871H2.26988Z" fill="#293D7C"/>
<path d="M1.72423 20.4731C1.4345 20.3813 1.12456 20.4237 0.862657 20.5919C0.600751 20.7601 0.409117 21.0397 0.329228 21.3692C0.224565 21.7958 0.126474 22.2252 0.0339517 22.6569C-0.0393636 22.9893 0.00715451 23.3406 0.162885 23.6334C0.318107 23.9267 0.570409 24.1368 0.863174 24.2183C1.15592 24.2999 1.46486 24.2459 1.72222 24.0679C1.97958 23.8894 2.16413 23.6024 2.23441 23.27C2.32087 22.8653 2.41289 22.4634 2.51098 22.0633C2.67935 21.3779 2.32794 20.6666 1.72424 20.4732L1.72423 20.4731Z" fill="#293D7C"/>
<path d="M4.52423 42.6226C4.27141 42.1846 3.64725 42.0035 3.13043 42.2181C2.6141 42.4327 2.40031 42.9613 2.65314 43.3992C2.80929 43.6721 2.97056 43.9427 3.13694 44.2109C3.40649 44.6418 4.03669 44.8064 4.54514 44.5783C5.05403 44.3503 5.24783 43.8159 4.97875 43.385C4.82259 43.1334 4.67109 42.8793 4.52422 42.6226L4.52423 42.6226Z" fill="#293D7C"/>
</svg>
